<?xml version="1.0" encoding="utf-8"?>
<!-- Generator: Adobe Illustrator 25.1.0, SVG Export Plug-In . SVG Version: 6.00 Build 0)  -->
<svg version="1.1" id="Layer_1" xmlns="http://www.w3.org/2000/svg" xmlns:xlink="http://www.w3.org/1999/xlink" x="0px" y="0px"
	 viewBox="0 0 150 300" style="enable-background:new 0 0 150 300;" xml:space="preserve">
<style type="text/css">
	.st0{fill:url(#SVGID_1_);}
	.st1{fill:#FFFFFF;}
	.st2{clip-path:url(#cta-mask_1_);fill:#FFC100;}
	.st3{clip-path:url(#cta-mask_1_);}
	.st4{fill:#181A19;}
</style>
<g id="bgsil">
	
		<radialGradient id="SVGID_1_" cx="75" cy="150" r="142.357" fx="31.3201" fy="149.0001" gradientTransform="matrix(-3.215927e-03 -1 0.8523 -2.741080e-03 -52.6099 225.4108)" gradientUnits="userSpaceOnUse">
		<stop  offset="0.4531" style="stop-color:#000000;stop-opacity:0"/>
		<stop  offset="1" style="stop-color:#000000"/>
	</radialGradient>
	<rect class="st0" width="150" height="300"/>
</g>
<g id="c1">
	<g id="Put_data_to__work_wherever__you_need_it_1_">
		<g id="Put_data_to__work_wherever__you_need_it">
			<path class="st1" d="M28.1,27.9c0,1.1-0.4,1.9-1.1,2.5s-1.8,0.9-3.2,0.9h-1.3v4.2h-1.2V24.8h2.8C26.7,24.8,28.1,25.8,28.1,27.9z
				 M22.5,30.2h1.1c1.1,0,1.9-0.2,2.4-0.5c0.5-0.4,0.7-0.9,0.7-1.7c0-0.7-0.2-1.2-0.7-1.6c-0.5-0.3-1.2-0.5-2.2-0.5h-1.4v4.3H22.5z"
				/>
			<path class="st1" d="M31.3,27.5v5.2c0,0.7,0.1,1.1,0.4,1.5s0.8,0.5,1.4,0.5c0.8,0,1.5-0.2,1.8-0.7c0.4-0.5,0.6-1.2,0.6-2.2v-4.2
				h1.2v8h-1l-0.2-1.1h-0.1c-0.2,0.4-0.6,0.7-1,0.9s-0.9,0.3-1.5,0.3c-1,0-1.7-0.2-2.2-0.7S30,33.7,30,32.7v-5.2H31.3z"/>
			<path class="st1" d="M41.9,34.6c0.2,0,0.4,0,0.6,0c0.2,0,0.4-0.1,0.5-0.1v0.9c-0.1,0.1-0.3,0.1-0.6,0.2s-0.5,0.1-0.7,0.1
				c-1.5,0-2.3-0.8-2.3-2.4v-4.8h-1.1v-0.6l1.1-0.5l0.5-1.7h0.7v1.9h2.3v0.9h-2.3v4.7c0,0.5,0.1,0.9,0.3,1.1
				C41.2,34.5,41.5,34.6,41.9,34.6z"/>
			<path class="st1" d="M53.9,34.4L53.9,34.4c-0.6,0.8-1.5,1.2-2.6,1.2c-1,0-1.9-0.4-2.4-1.1c-0.6-0.7-0.9-1.7-0.9-3.1
				c0-1.3,0.3-2.3,0.9-3.1c0.6-0.7,1.4-1.1,2.4-1.1c1.1,0,1.9,0.4,2.5,1.2H54l-0.1-0.6v-0.6v-3.3h1.2v11.4h-1L53.9,34.4z M51.5,34.6
				c0.8,0,1.4-0.2,1.8-0.7c0.4-0.5,0.6-1.2,0.6-2.2v-0.3c0-1.1-0.2-1.9-0.6-2.4c-0.4-0.5-1-0.7-1.8-0.7c-0.7,0-1.3,0.3-1.6,0.8
				c-0.4,0.6-0.6,1.3-0.6,2.3c0,1,0.2,1.8,0.6,2.3C50.2,34.4,50.8,34.6,51.5,34.6z"/>
			<path class="st1" d="M62.6,35.5l-0.2-1.1h-0.1c-0.4,0.5-0.8,0.8-1.2,1s-0.9,0.3-1.5,0.3c-0.8,0-1.4-0.2-1.9-0.6
				c-0.5-0.4-0.7-1-0.7-1.7c0-1.6,1.3-2.5,3.9-2.5h1.4v-0.5c0-0.6-0.1-1.1-0.4-1.4s-0.7-0.4-1.3-0.4c-0.7,0-1.4,0.2-2.3,0.6L58,28
				c0.4-0.2,0.8-0.4,1.3-0.5s0.9-0.2,1.4-0.2c1,0,1.7,0.2,2.1,0.6s0.7,1.1,0.7,2v5.5L62.6,35.5L62.6,35.5z M59.8,34.6
				c0.8,0,1.3-0.2,1.8-0.6c0.4-0.4,0.6-1,0.6-1.7v-0.7L61,31.7c-1,0-1.7,0.2-2.1,0.4c-0.4,0.3-0.6,0.7-0.6,1.2c0,0.4,0.1,0.8,0.4,1
				S59.4,34.6,59.8,34.6z"/>
			<path class="st1" d="M68.6,34.6c0.2,0,0.4,0,0.6,0s0.4-0.1,0.5-0.1v0.9c-0.1,0.1-0.3,0.1-0.6,0.2s-0.5,0.1-0.7,0.1
				c-1.5,0-2.3-0.8-2.3-2.4v-4.8H65v-0.6l1.1-0.5l0.5-1.7h0.7v1.9h2.3v0.9h-2.3v4.7c0,0.5,0.1,0.9,0.3,1.1
				C67.9,34.5,68.2,34.6,68.6,34.6z"/>
			<path class="st1" d="M76.2,35.5L76,34.4h-0.1c-0.4,0.5-0.8,0.8-1.2,1c-0.4,0.2-0.9,0.3-1.5,0.3c-0.8,0-1.4-0.2-1.9-0.6
				c-0.5-0.4-0.7-1-0.7-1.7c0-1.6,1.3-2.5,3.9-2.5h1.4v-0.5c0-0.6-0.1-1.1-0.4-1.4s-0.7-0.4-1.3-0.4c-0.7,0-1.4,0.2-2.3,0.6L71.6,28
				c0.4-0.2,0.8-0.4,1.3-0.5s0.9-0.2,1.4-0.2c1,0,1.7,0.2,2.1,0.6c0.5,0.4,0.7,1.1,0.7,2v5.5L76.2,35.5L76.2,35.5z M73.5,34.6
				c0.8,0,1.3-0.2,1.8-0.6c0.4-0.4,0.6-1,0.6-1.7v-0.7l-1.2,0.1c-1,0-1.7,0.2-2.1,0.4c-0.4,0.3-0.6,0.7-0.6,1.2c0,0.4,0.1,0.8,0.4,1
				S73,34.6,73.5,34.6z"/>
			<path class="st1" d="M86.1,34.6c0.2,0,0.4,0,0.6,0s0.4-0.1,0.5-0.1v0.9c-0.1,0.1-0.3,0.1-0.6,0.2s-0.5,0.1-0.7,0.1
				c-1.5,0-2.3-0.8-2.3-2.4v-4.8h-1.1v-0.6l1.1-0.5l0.5-1.7h0.7v1.9h2.3v0.9h-2.3v4.7c0,0.5,0.1,0.9,0.3,1.1
				C85.4,34.5,85.7,34.6,86.1,34.6z"/>
			<path class="st1" d="M95.7,31.5c0,1.3-0.3,2.3-1,3.1c-0.7,0.7-1.6,1.1-2.7,1.1c-0.7,0-1.4-0.2-1.9-0.5c-0.6-0.3-1-0.8-1.3-1.4
				s-0.5-1.4-0.5-2.2c0-1.3,0.3-2.3,1-3.1s1.6-1.1,2.7-1.1s2,0.4,2.7,1.1S95.7,30.2,95.7,31.5z M89.6,31.5c0,1,0.2,1.8,0.6,2.3
				s1,0.8,1.8,0.8s1.4-0.3,1.8-0.8s0.6-1.3,0.6-2.3s-0.2-1.8-0.6-2.3s-1-0.8-1.8-0.8s-1.4,0.3-1.8,0.8
				C89.8,29.7,89.6,30.5,89.6,31.5z"/>
			<path class="st1" d="M27.7,56.3l-1.5-4.7c-0.1-0.3-0.3-0.9-0.5-2h-0.1c-0.2,0.9-0.4,1.5-0.5,2l-1.5,4.7h-1.4l-2.2-8h1.3
				c0.5,2,0.9,3.5,1.2,4.6s0.4,1.8,0.5,2.1l0,0c0.1-0.3,0.1-0.6,0.3-1.1c0.1-0.4,0.2-0.8,0.3-1l1.5-4.6h1.3l1.4,4.6
				c0.3,0.8,0.5,1.5,0.6,2.1h0.1c0-0.2,0.1-0.4,0.2-0.8c0.1-0.4,0.6-2.3,1.5-5.9h1.3l-2.2,8C29.3,56.3,27.7,56.3,27.7,56.3z"/>
			<path class="st1" d="M39.7,52.3c0,1.3-0.3,2.3-1,3.1c-0.7,0.7-1.6,1.1-2.7,1.1c-0.7,0-1.4-0.2-1.9-0.5c-0.6-0.3-1-0.8-1.3-1.4
				s-0.5-1.4-0.5-2.2c0-1.3,0.3-2.3,1-3.1c0.7-0.7,1.6-1.1,2.7-1.1c1.1,0,2,0.4,2.7,1.1C39.3,50,39.7,51,39.7,52.3z M33.6,52.3
				c0,1,0.2,1.8,0.6,2.3c0.4,0.5,1,0.8,1.8,0.8s1.4-0.3,1.8-0.8s0.6-1.3,0.6-2.3s-0.2-1.8-0.6-2.3s-1-0.8-1.8-0.8s-1.4,0.3-1.8,0.8
				S33.6,51.2,33.6,52.3z"/>
			<path class="st1" d="M45.5,48.1c0.4,0,0.7,0,1,0.1l-0.2,1.1c-0.3-0.1-0.6-0.1-0.9-0.1c-0.6,0-1.2,0.3-1.7,0.8S43,51.2,43,52v4.3
				h-1.2v-8h1l0.1,1.5H43c0.3-0.5,0.7-0.9,1.1-1.2C44.5,48.3,45,48.1,45.5,48.1z"/>
			<path class="st1" d="M49.1,52.2c0.2-0.3,0.5-0.7,1-1.2l2.6-2.7h1.4l-3.2,3.4l3.5,4.6h-1.5L50,52.5l-0.9,0.8v3h-1.2V44.9h1.2v6
				C49.1,51.2,49.1,51.6,49.1,52.2L49.1,52.2z"/>
			<path class="st1" d="M66.2,56.3l-1.5-4.7c-0.1-0.3-0.3-0.9-0.5-2h-0.1c-0.2,0.9-0.4,1.5-0.5,2l-1.5,4.7h-1.4l-2.2-8h1.3
				c0.5,2,0.9,3.5,1.2,4.6s0.4,1.8,0.5,2.1h0.1c0.1-0.3,0.1-0.6,0.3-1.1c0.1-0.4,0.2-0.8,0.3-1l1.5-4.6H65l1.4,4.6
				c0.3,0.8,0.5,1.5,0.6,2.1h0.1c0-0.2,0.1-0.4,0.2-0.8c0.1-0.4,0.6-2.3,1.5-5.9h1.3l-2.2,8C67.9,56.3,66.2,56.3,66.2,56.3z"/>
			<path class="st1" d="M76.8,56.3v-5.2c0-0.7-0.1-1.1-0.4-1.5c-0.3-0.3-0.8-0.5-1.4-0.5c-0.8,0-1.5,0.2-1.8,0.7
				c-0.4,0.5-0.6,1.2-0.6,2.3v4.2h-1.2V44.9h1.2v3.4c0,0.4,0,0.8-0.1,1h0.1c0.2-0.4,0.6-0.7,1-0.9s0.9-0.3,1.5-0.3
				c1,0,1.7,0.2,2.2,0.7S78,50,78,51v5.2L76.8,56.3L76.8,56.3z"/>
			<path class="st1" d="M83.9,56.4c-1.2,0-2.1-0.4-2.8-1.1c-0.7-0.7-1-1.7-1-3s0.3-2.3,1-3.1s1.5-1.1,2.6-1.1c1,0,1.8,0.3,2.4,1
				s0.9,1.5,0.9,2.6v0.8h-5.5c0,0.9,0.3,1.7,0.7,2.1c0.5,0.5,1.1,0.7,1.9,0.7c0.9,0,1.7-0.2,2.6-0.5v1.1c-0.4,0.2-0.8,0.3-1.2,0.4
				C84.9,56.4,84.4,56.4,83.9,56.4z M83.5,49.2c-0.6,0-1.2,0.2-1.5,0.6c-0.4,0.4-0.6,1-0.7,1.7h4.2c0-0.8-0.2-1.4-0.5-1.8
				C84.7,49.4,84.2,49.2,83.5,49.2z"/>
			<path class="st1" d="M92.5,48.1c0.4,0,0.7,0,1,0.1l-0.2,1.1c-0.3-0.1-0.6-0.1-0.9-0.1c-0.6,0-1.2,0.3-1.7,0.8S90,51.2,90,52v4.3
				h-1.2v-8h1l0.1,1.5H90c0.3-0.5,0.7-0.9,1.1-1.2C91.6,48.3,92,48.1,92.5,48.1z"/>
			<path class="st1" d="M98.4,56.4c-1.2,0-2.1-0.4-2.8-1.1c-0.7-0.7-1-1.7-1-3s0.3-2.3,1-3.1s1.5-1.1,2.6-1.1c1,0,1.8,0.3,2.4,1
				s0.9,1.5,0.9,2.6v0.8H96c0,0.9,0.3,1.7,0.7,2.1c0.5,0.5,1.1,0.7,1.9,0.7c0.9,0,1.7-0.2,2.6-0.5v1.1c-0.4,0.2-0.8,0.3-1.2,0.4
				C99.4,56.4,98.9,56.4,98.4,56.4z M98.1,49.2c-0.6,0-1.2,0.2-1.5,0.6c-0.4,0.4-0.6,1-0.7,1.7h4.2c0-0.8-0.2-1.4-0.5-1.8
				C99.2,49.4,98.7,49.2,98.1,49.2z"/>
			<path class="st1" d="M105.2,56.3l-3-8h1.3l1.7,4.8c0.4,1.1,0.6,1.8,0.7,2.2h0.1c0.1-0.3,0.2-0.8,0.5-1.6s0.9-2.6,1.9-5.3h1.3
				l-3,8h-1.5V56.3z"/>
			<path class="st1" d="M114.3,56.4c-1.2,0-2.1-0.4-2.8-1.1c-0.7-0.7-1-1.7-1-3s0.3-2.3,1-3.1s1.5-1.1,2.6-1.1c1,0,1.8,0.3,2.4,1
				s0.9,1.5,0.9,2.6v0.8h-5.5c0,0.9,0.3,1.7,0.7,2.1c0.5,0.5,1.1,0.7,1.9,0.7c0.9,0,1.7-0.2,2.6-0.5v1.1c-0.4,0.2-0.8,0.3-1.2,0.4
				C115.3,56.4,114.8,56.4,114.3,56.4z M114,49.2c-0.6,0-1.2,0.2-1.5,0.6c-0.4,0.4-0.6,1-0.7,1.7h4.2c0-0.8-0.2-1.4-0.5-1.8
				C115.1,49.4,114.6,49.2,114,49.2z"/>
			<path class="st1" d="M123,48.1c0.4,0,0.7,0,1,0.1l-0.2,1.1c-0.3-0.1-0.6-0.1-0.9-0.1c-0.6,0-1.2,0.3-1.7,0.8s-0.7,1.2-0.7,2v4.3
				h-1.2v-8h1l0.1,1.5h0.1c0.3-0.5,0.7-0.9,1.1-1.2C122,48.3,122.5,48.1,123,48.1z"/>
			<path class="st1" d="M19.8,69.1h1.3l1.8,4.6c0.4,1,0.6,1.8,0.7,2.3h0.1c0.1-0.2,0.2-0.7,0.4-1.3s0.9-2.5,2-5.6h1.3L24,78.2
				c-0.3,0.9-0.7,1.5-1.2,1.9s-1,0.6-1.7,0.6c-0.4,0-0.7,0-1.1-0.1v-1c0.3,0.1,0.6,0.1,0.9,0.1c0.8,0,1.4-0.5,1.8-1.4l0.4-1.1
				L19.8,69.1z"/>
			<path class="st1" d="M35.6,73.1c0,1.3-0.3,2.3-1,3.1c-0.7,0.7-1.6,1.1-2.7,1.1c-0.7,0-1.4-0.2-1.9-0.5c-0.6-0.3-1-0.8-1.3-1.4
				s-0.5-1.4-0.5-2.2c0-1.3,0.3-2.3,1-3.1c0.7-0.7,1.6-1.1,2.7-1.1s2,0.4,2.7,1.1C35.2,70.8,35.6,71.8,35.6,73.1z M29.5,73.1
				c0,1,0.2,1.8,0.6,2.3s1,0.8,1.8,0.8c0.8,0,1.4-0.3,1.8-0.8s0.6-1.3,0.6-2.3s-0.2-1.8-0.6-2.3s-1-0.8-1.8-0.8s-1.4,0.3-1.8,0.8
				C29.7,71.3,29.5,72,29.5,73.1z"/>
			<path class="st1" d="M38.8,69.1v5.2c0,0.7,0.1,1.1,0.4,1.5s0.8,0.5,1.4,0.5c0.8,0,1.5-0.2,1.8-0.7c0.4-0.5,0.6-1.2,0.6-2.2v-4.2
				h1.2v8h-1L43.1,76H43c-0.2,0.4-0.6,0.7-1,0.9c-0.4,0.2-0.9,0.3-1.5,0.3c-1,0-1.7-0.2-2.2-0.7s-0.7-1.2-0.7-2.2v-5.2L38.8,69.1
				L38.8,69.1z"/>
			<path class="st1" d="M56.3,77.1v-5.2c0-0.7-0.1-1.1-0.4-1.5C55.5,70.1,55,70,54.4,70c-0.8,0-1.5,0.2-1.8,0.7S52,71.8,52,72.9v4.2
				h-1.2v-8h1l0.2,1.1l0,0c0.2-0.4,0.6-0.7,1-0.9s0.9-0.3,1.5-0.3c1,0,1.7,0.2,2.2,0.7s0.7,1.2,0.7,2.2v5.2L56.3,77.1L56.3,77.1z"/>
			<path class="st1" d="M63.3,77.2c-1.2,0-2.1-0.4-2.8-1.1s-1-1.7-1-3s0.3-2.3,1-3.1c0.6-0.8,1.5-1.1,2.6-1.1c1,0,1.8,0.3,2.4,1
				s0.9,1.5,0.9,2.6v0.8h-5.5c0,0.9,0.3,1.7,0.7,2.1c0.5,0.5,1.1,0.7,1.9,0.7c0.9,0,1.7-0.2,2.6-0.5v1.1c-0.4,0.2-0.8,0.3-1.2,0.4
				C64.4,77.2,63.9,77.2,63.3,77.2z M63,69.9c-0.6,0-1.2,0.2-1.5,0.6c-0.4,0.4-0.6,1-0.7,1.7H65c0-0.8-0.2-1.4-0.5-1.8
				C64.1,70.1,63.7,69.9,63,69.9z"/>
			<path class="st1" d="M71.7,77.2c-1.2,0-2.1-0.4-2.8-1.1c-0.7-0.7-1-1.7-1-3s0.3-2.3,1-3.1c0.6-0.8,1.5-1.1,2.6-1.1
				c1,0,1.8,0.3,2.4,1s0.9,1.5,0.9,2.6v0.8h-5.5c0,0.9,0.3,1.7,0.7,2.1c0.5,0.5,1.1,0.7,1.9,0.7c0.9,0,1.7-0.2,2.6-0.5v1.1
				c-0.4,0.2-0.8,0.3-1.2,0.4C72.8,77.2,72.3,77.2,71.7,77.2z M71.4,69.9c-0.6,0-1.2,0.2-1.5,0.6c-0.4,0.4-0.6,1-0.7,1.7h4.2
				c0-0.8-0.2-1.4-0.5-1.8C72.5,70.1,72.1,69.9,71.4,69.9z"/>
			<path class="st1" d="M82.2,76L82.2,76c-0.6,0.8-1.5,1.2-2.6,1.2c-1,0-1.9-0.4-2.4-1.1c-0.6-0.7-0.9-1.7-0.9-3.1
				c0-1.3,0.3-2.3,0.9-3.1s1.4-1.1,2.4-1.1c1.1,0,1.9,0.4,2.5,1.2h0.1l-0.1-0.6v-0.6v-3.3h1.2v11.4h-1L82.2,76z M79.8,76.2
				c0.8,0,1.4-0.2,1.8-0.7s0.6-1.2,0.6-2.2V73c0-1.1-0.2-1.9-0.6-2.4s-1-0.7-1.8-0.7c-0.7,0-1.3,0.3-1.6,0.8
				c-0.4,0.6-0.6,1.3-0.6,2.3s0.2,1.8,0.6,2.3C78.5,76,79.1,76.2,79.8,76.2z"/>
			<path class="st1" d="M89.7,66.9c0-0.3,0.1-0.5,0.2-0.6s0.3-0.2,0.5-0.2s0.4,0.1,0.5,0.2s0.2,0.3,0.2,0.6s-0.1,0.5-0.2,0.6
				s-0.3,0.2-0.5,0.2s-0.4-0.1-0.5-0.2C89.8,67.4,89.7,67.2,89.7,66.9z M91,77.1h-1.2v-8H91V77.1z"/>
			<path class="st1" d="M96.2,76.2c0.2,0,0.4,0,0.6,0s0.4-0.1,0.5-0.1V77c-0.1,0.1-0.3,0.1-0.6,0.2s-0.5,0.1-0.7,0.1
				c-1.5,0-2.3-0.8-2.3-2.4V70h-1.1v-0.6l1.1-0.5l0.5-1.7h0.7v1.9h2.3V70h-2.3v4.7c0,0.5,0.1,0.9,0.3,1.1
				C95.5,76.1,95.8,76.2,96.2,76.2z"/>
		</g>
	</g>
</g>
<g id="c2">
	<g id="Whenever__x0D_you_need_it">
		<g>
			<path class="st1" d="M31.6,35.5h-1.2l-2.2-7.2c-0.1-0.3-0.2-0.7-0.3-1.2c-0.1-0.5-0.2-0.8-0.2-0.9c-0.1,0.6-0.3,1.3-0.5,2.1
				l-2.1,7.1h-1.2L21,24.8h1.3l1.7,6.6c0.2,0.9,0.4,1.8,0.5,2.5c0.1-0.9,0.3-1.8,0.6-2.6l1.9-6.5h1.3l2,6.6c0.2,0.8,0.4,1.6,0.6,2.6
				c0.1-0.7,0.3-1.5,0.5-2.5l1.7-6.6h1.3L31.6,35.5z"/>
			<path class="st1" d="M41.5,35.5v-5.2c0-0.7-0.1-1.1-0.4-1.5c-0.3-0.3-0.8-0.5-1.4-0.5c-0.8,0-1.5,0.2-1.8,0.7
				c-0.4,0.5-0.6,1.2-0.6,2.3v4.2H36V24.1h1.2v3.4c0,0.4,0,0.8-0.1,1h0.1c0.2-0.4,0.6-0.7,1-0.9c0.4-0.2,0.9-0.3,1.5-0.3
				c1,0,1.7,0.2,2.2,0.7s0.7,1.2,0.7,2.2v5.2L41.5,35.5L41.5,35.5z"/>
			<path class="st1" d="M48.5,35.6c-1.2,0-2.1-0.4-2.8-1.1c-0.7-0.7-1-1.7-1-3s0.3-2.3,1-3.1c0.6-0.8,1.5-1.1,2.6-1.1
				c1,0,1.8,0.3,2.4,1c0.6,0.7,0.9,1.5,0.9,2.6v0.8H46c0,0.9,0.3,1.7,0.7,2.1c0.5,0.5,1.1,0.7,1.9,0.7c0.9,0,1.7-0.2,2.6-0.5v1.1
				c-0.4,0.2-0.8,0.3-1.2,0.4C49.5,35.6,49.1,35.6,48.5,35.6z M48.2,28.4c-0.6,0-1.2,0.2-1.5,0.6c-0.4,0.4-0.6,1-0.7,1.7h4.2
				c0-0.8-0.2-1.4-0.5-1.8C49.3,28.6,48.8,28.4,48.2,28.4z"/>
			<path class="st1" d="M59,35.5v-5.2c0-0.7-0.1-1.1-0.4-1.5c-0.3-0.3-0.8-0.5-1.4-0.5c-0.8,0-1.5,0.2-1.8,0.7s-0.6,1.2-0.6,2.2v4.2
				h-1.2v-8h1l0.2,1.1h0.1c0.2-0.4,0.6-0.7,1-0.9s0.9-0.3,1.5-0.3c1,0,1.7,0.2,2.2,0.7s0.7,1.2,0.7,2.2v5.2L59,35.5L59,35.5z"/>
			<path class="st1" d="M66.1,35.6c-1.2,0-2.1-0.4-2.8-1.1c-0.7-0.7-1-1.7-1-3s0.3-2.3,1-3.1c0.6-0.8,1.5-1.1,2.6-1.1
				c1,0,1.8,0.3,2.4,1s0.9,1.5,0.9,2.6v0.8h-5.5c0,0.9,0.3,1.7,0.7,2.1c0.5,0.5,1.1,0.7,1.9,0.7c0.9,0,1.7-0.2,2.6-0.5v1.1
				c-0.4,0.2-0.8,0.3-1.2,0.4C67.1,35.6,66.7,35.6,66.1,35.6z M65.8,28.4c-0.6,0-1.2,0.2-1.5,0.6c-0.4,0.4-0.6,1-0.7,1.7h4.2
				c0-0.8-0.2-1.4-0.5-1.8C66.9,28.6,66.4,28.4,65.8,28.4z"/>
			<path class="st1" d="M72.9,35.5l-3-8h1.3l1.7,4.8c0.4,1.1,0.6,1.8,0.7,2.2h0.1c0.1-0.3,0.2-0.8,0.5-1.6s0.9-2.6,1.9-5.3h1.3l-3,8
				h-1.5V35.5z"/>
			<path class="st1" d="M82,35.6c-1.2,0-2.1-0.4-2.8-1.1c-0.7-0.7-1-1.7-1-3s0.3-2.3,1-3.1s1.5-1.1,2.6-1.1c1,0,1.8,0.3,2.4,1
				s0.9,1.5,0.9,2.6v0.8h-5.5c0,0.9,0.3,1.7,0.7,2.1c0.5,0.5,1.1,0.7,1.9,0.7c0.9,0,1.7-0.2,2.6-0.5v1.1c-0.4,0.2-0.8,0.3-1.2,0.4
				C83,35.6,82.6,35.6,82,35.6z M81.7,28.4c-0.6,0-1.2,0.2-1.5,0.6c-0.4,0.4-0.6,1-0.7,1.7h4.2c0-0.8-0.2-1.4-0.5-1.8
				C82.8,28.6,82.3,28.4,81.7,28.4z"/>
			<path class="st1" d="M90.7,27.3c0.4,0,0.7,0,1,0.1l-0.2,1.1c-0.3-0.1-0.6-0.1-0.9-0.1c-0.6,0-1.2,0.3-1.7,0.8s-0.7,1.2-0.7,2v4.3
				H87v-8h1l0.1,1.5h0.1c0.3-0.5,0.7-0.9,1.1-1.2C89.7,27.5,90.2,27.3,90.7,27.3z"/>
			<path class="st1" d="M20.8,48.3h1.3l1.8,4.6c0.4,1,0.6,1.8,0.7,2.3h0.1c0.1-0.2,0.2-0.7,0.4-1.3s0.9-2.5,2-5.6h1.3L25,57.4
				c-0.3,0.9-0.7,1.5-1.2,1.9s-1,0.6-1.7,0.6c-0.4,0-0.7,0-1.1-0.1v-1c0.3,0.1,0.6,0.1,0.9,0.1c0.8,0,1.4-0.5,1.8-1.4l0.4-1.1
				L20.8,48.3z"/>
			<path class="st1" d="M36.6,52.3c0,1.3-0.3,2.3-1,3.1c-0.7,0.7-1.6,1.1-2.7,1.1c-0.7,0-1.4-0.2-1.9-0.5c-0.6-0.3-1-0.8-1.3-1.4
				s-0.5-1.4-0.5-2.2c0-1.3,0.3-2.3,1-3.1c0.7-0.7,1.6-1.1,2.7-1.1s2,0.4,2.7,1.1C36.2,50,36.6,51,36.6,52.3z M30.5,52.3
				c0,1,0.2,1.8,0.6,2.3s1,0.8,1.8,0.8c0.8,0,1.4-0.3,1.8-0.8s0.6-1.3,0.6-2.3s-0.2-1.8-0.6-2.3s-1-0.8-1.8-0.8s-1.4,0.3-1.8,0.8
				C30.7,50.5,30.5,51.2,30.5,52.3z"/>
			<path class="st1" d="M39.8,48.3v5.2c0,0.7,0.1,1.1,0.4,1.5s0.8,0.5,1.4,0.5c0.8,0,1.5-0.2,1.8-0.7c0.4-0.5,0.6-1.2,0.6-2.2v-4.2
				h1.2v8h-1L44,55.3h-0.1c-0.2,0.4-0.6,0.7-1,0.9s-0.9,0.3-1.5,0.3c-1,0-1.7-0.2-2.2-0.7s-0.7-1.2-0.7-2.2v-5.2L39.8,48.3
				L39.8,48.3z"/>
			<path class="st1" d="M57.3,56.3v-5.2c0-0.7-0.1-1.1-0.4-1.5c-0.3-0.3-0.8-0.5-1.4-0.5c-0.8,0-1.5,0.2-1.8,0.7S53,51,53,52.1v4.2
				h-1.2v-8h1l0.2,1.1l0,0c0.2-0.4,0.6-0.7,1-0.9s0.9-0.3,1.5-0.3c1,0,1.7,0.2,2.2,0.7s0.7,1.2,0.7,2.2v5.2H57.3z"/>
			<path class="st1" d="M64.3,56.4c-1.2,0-2.1-0.4-2.8-1.1c-0.7-0.7-1-1.7-1-3s0.3-2.3,1-3.1c0.6-0.8,1.5-1.1,2.6-1.1
				c1,0,1.8,0.3,2.4,1s0.9,1.5,0.9,2.6v0.8h-5.5c0,0.9,0.3,1.7,0.7,2.1c0.5,0.5,1.1,0.7,1.9,0.7c0.9,0,1.7-0.2,2.6-0.5v1.1
				c-0.4,0.2-0.8,0.3-1.2,0.4C65.4,56.4,64.9,56.4,64.3,56.4z M64,49.2c-0.6,0-1.2,0.2-1.5,0.6c-0.4,0.4-0.6,1-0.7,1.7H66
				c0-0.8-0.2-1.4-0.5-1.8C65.1,49.4,64.7,49.2,64,49.2z"/>
			<path class="st1" d="M72.7,56.4c-1.2,0-2.1-0.4-2.8-1.1c-0.7-0.7-1-1.7-1-3s0.3-2.3,1-3.1c0.6-0.8,1.5-1.1,2.6-1.1
				c1,0,1.8,0.3,2.4,1s0.9,1.5,0.9,2.6v0.8h-5.5c0,0.9,0.3,1.7,0.7,2.1c0.5,0.5,1.1,0.7,1.9,0.7c0.9,0,1.7-0.2,2.6-0.5v1.1
				c-0.4,0.2-0.8,0.3-1.2,0.4C73.8,56.4,73.3,56.4,72.7,56.4z M72.4,49.2c-0.6,0-1.2,0.2-1.5,0.6c-0.4,0.4-0.6,1-0.7,1.7h4.2
				c0-0.8-0.2-1.4-0.5-1.8C73.5,49.4,73.1,49.2,72.4,49.2z"/>
			<path class="st1" d="M83.2,55.2L83.2,55.2c-0.6,0.8-1.5,1.2-2.6,1.2c-1,0-1.9-0.4-2.4-1.1c-0.6-0.7-0.9-1.7-0.9-3.1
				c0-1.3,0.3-2.3,0.9-3.1s1.4-1.1,2.4-1.1c1.1,0,1.9,0.4,2.5,1.2h0.1l-0.1-0.6V48v-3.3h1.2v11.4h-1L83.2,55.2z M80.8,55.4
				c0.8,0,1.4-0.2,1.8-0.7s0.6-1.2,0.6-2.2v-0.3c0-1.1-0.2-1.9-0.6-2.4s-1-0.7-1.8-0.7c-0.7,0-1.3,0.3-1.6,0.8
				c-0.4,0.6-0.6,1.3-0.6,2.3s0.2,1.8,0.6,2.3C79.5,55.2,80.1,55.4,80.8,55.4z"/>
			<path class="st1" d="M90.7,46.1c0-0.3,0.1-0.5,0.2-0.6s0.3-0.2,0.5-0.2s0.4,0.1,0.5,0.2c0.1,0.1,0.2,0.3,0.2,0.6
				s-0.1,0.5-0.2,0.6s-0.3,0.2-0.5,0.2s-0.4-0.1-0.5-0.2C90.8,46.6,90.7,46.4,90.7,46.1z M92,56.3h-1.2v-8H92V56.3z"/>
			<path class="st1" d="M97.2,55.4c0.2,0,0.4,0,0.6,0s0.4-0.1,0.5-0.1v0.9c-0.1,0.1-0.3,0.1-0.6,0.2s-0.5,0.1-0.7,0.1
				c-1.5,0-2.3-0.8-2.3-2.4v-4.8h-1.1v-0.6l1.1-0.5l0.5-1.7h0.7v1.9h2.3v0.9h-2.3V54c0,0.5,0.1,0.9,0.3,1.1
				C96.5,55.3,96.8,55.4,97.2,55.4z"/>
		</g>
	</g>
</g>
<g id="c3">
	<g id="Infuse__x0D_analytics__x0D_everywhere">
		<g>
			<path class="st1" d="M23.3,35.5V24.8h1.2v10.7H23.3z"/>
			<path class="st1" d="M32.8,35.5v-5.2c0-0.7-0.1-1.1-0.4-1.5c-0.3-0.3-0.8-0.5-1.4-0.5c-0.8,0-1.5,0.2-1.8,0.7s-0.6,1.2-0.6,2.2
				v4.2h-1.2v-8h1l0.2,1.1h0.1c0.2-0.4,0.6-0.7,1-0.9s0.9-0.3,1.5-0.3c1,0,1.7,0.2,2.2,0.7s0.7,1.2,0.7,2.2v5.2L32.8,35.5L32.8,35.5
				z"/>
			<path class="st1" d="M40.1,28.4h-2v7.1h-1.2v-7.1h-1.4v-0.5l1.4-0.4V27c0-2,0.9-3,2.6-3c0.4,0,0.9,0.1,1.5,0.3l-0.3,1
				c-0.5-0.2-0.9-0.2-1.2-0.2c-0.5,0-0.8,0.2-1,0.5S38,26.3,38,27v0.5h2L40.1,28.4L40.1,28.4z"/>
			<path class="st1" d="M42.7,27.5v5.2c0,0.7,0.1,1.1,0.4,1.5s0.8,0.5,1.4,0.5c0.8,0,1.5-0.2,1.8-0.7c0.4-0.5,0.6-1.2,0.6-2.2v-4.2
				h1.2v8h-1L47,34.4h-0.1c-0.2,0.4-0.6,0.7-1,0.9s-0.9,0.3-1.5,0.3c-1,0-1.7-0.2-2.2-0.7s-0.7-1.2-0.7-2.2v-5.2H42.7z"/>
			<path class="st1" d="M55.9,33.3c0,0.7-0.3,1.3-0.8,1.7c-0.6,0.4-1.3,0.6-2.3,0.6c-1.1,0-1.9-0.2-2.5-0.5V34
				c0.4,0.2,0.8,0.3,1.2,0.5c0.4,0.1,0.9,0.2,1.3,0.2c0.6,0,1.1-0.1,1.5-0.3c0.3-0.2,0.5-0.5,0.5-0.9c0-0.3-0.1-0.6-0.4-0.8
				s-0.8-0.5-1.6-0.8c-0.7-0.3-1.3-0.5-1.6-0.7s-0.5-0.4-0.7-0.7c-0.2-0.3-0.2-0.6-0.2-0.9c0-0.7,0.3-1.2,0.8-1.5
				c0.5-0.4,1.3-0.6,2.2-0.6s1.7,0.2,2.5,0.5l-0.4,1c-0.8-0.3-1.5-0.5-2.2-0.5c-0.6,0-1,0.1-1.3,0.3c-0.3,0.2-0.4,0.4-0.4,0.7
				c0,0.2,0.1,0.4,0.2,0.5c0.1,0.2,0.3,0.3,0.5,0.4s0.7,0.3,1.4,0.6c1,0.3,1.6,0.7,1.9,1C55.7,32.3,55.9,32.8,55.9,33.3z"/>
			<path class="st1" d="M61.3,35.6c-1.2,0-2.1-0.4-2.8-1.1c-0.7-0.7-1-1.7-1-3s0.3-2.3,1-3.1c0.6-0.8,1.5-1.1,2.6-1.1
				c1,0,1.8,0.3,2.4,1c0.6,0.7,0.9,1.5,0.9,2.6v0.8h-5.5c0,0.9,0.3,1.7,0.7,2.1c0.5,0.5,1.1,0.7,1.9,0.7c0.9,0,1.7-0.2,2.6-0.5v1.1
				c-0.4,0.2-0.8,0.3-1.2,0.4C62.3,35.6,61.8,35.6,61.3,35.6z M60.9,28.4c-0.6,0-1.2,0.2-1.5,0.6c-0.4,0.4-0.6,1-0.7,1.7h4.2
				c0-0.8-0.2-1.4-0.5-1.8C62.1,28.6,61.6,28.4,60.9,28.4z"/>
			<path class="st1" d="M28,56.3l-0.2-1.1h-0.1c-0.4,0.5-0.8,0.8-1.2,1c-0.4,0.2-0.9,0.3-1.5,0.3c-0.8,0-1.4-0.2-1.9-0.6
				c-0.5-0.4-0.7-1-0.7-1.7c0-1.6,1.3-2.5,3.9-2.5h1.4V51c0-0.6-0.1-1.1-0.4-1.4s-0.7-0.4-1.3-0.4c-0.7,0-1.4,0.2-2.3,0.6l-0.4-0.9
				c0.4-0.2,0.8-0.4,1.3-0.5s0.9-0.2,1.4-0.2c1,0,1.7,0.2,2.1,0.6s0.7,1.1,0.7,2v5.5C28.8,56.3,28,56.3,28,56.3z M25.3,55.4
				c0.8,0,1.3-0.2,1.8-0.6c0.4-0.4,0.6-1,0.6-1.7v-0.7l-1.2,0.1c-1,0-1.7,0.2-2.1,0.4c-0.4,0.3-0.6,0.7-0.6,1.2c0,0.4,0.1,0.8,0.4,1
				S24.8,55.4,25.3,55.4z"/>
			<path class="st1" d="M36.9,56.3v-5.2c0-0.7-0.1-1.1-0.4-1.5c-0.3-0.3-0.8-0.5-1.4-0.5c-0.8,0-1.5,0.2-1.8,0.7S32.7,51,32.7,52
				v4.2h-1.2v-8h1l0.2,1.1h0.1c0.2-0.4,0.6-0.7,1-0.9s0.9-0.3,1.5-0.3c1,0,1.7,0.2,2.2,0.7s0.7,1.2,0.7,2.2v5.2L36.9,56.3L36.9,56.3
				z"/>
			<path class="st1" d="M45.6,56.3l-0.2-1.1h-0.1c-0.4,0.5-0.8,0.8-1.2,1s-0.9,0.3-1.5,0.3c-0.8,0-1.4-0.2-1.9-0.6
				c-0.5-0.4-0.7-1-0.7-1.7c0-1.6,1.3-2.5,3.9-2.5h1.4V51c0-0.6-0.1-1.1-0.4-1.4s-0.7-0.4-1.3-0.4c-0.7,0-1.4,0.2-2.3,0.6l-0.4-0.9
				c0.4-0.2,0.8-0.4,1.3-0.5s0.9-0.2,1.4-0.2c1,0,1.7,0.2,2.1,0.6s0.7,1.1,0.7,2v5.5C46.4,56.3,45.6,56.3,45.6,56.3z M42.8,55.4
				c0.8,0,1.3-0.2,1.8-0.6c0.4-0.4,0.6-1,0.6-1.7v-0.7H44c-1,0-1.7,0.2-2.1,0.4c-0.4,0.3-0.6,0.7-0.6,1.2c0,0.4,0.1,0.8,0.4,1
				S42.3,55.4,42.8,55.4z"/>
			<path class="st1" d="M50.2,56.3H49V44.9h1.2V56.3z"/>
			<path class="st1" d="M51.5,48.3h1.3l1.8,4.6c0.4,1,0.6,1.8,0.7,2.3h0.1c0.1-0.2,0.2-0.7,0.4-1.3s0.9-2.5,2-5.6H59l-3.4,9.1
				c-0.3,0.9-0.7,1.5-1.2,1.9s-1,0.6-1.7,0.6c-0.4,0-0.7,0-1.1-0.1v-1c0.3,0.1,0.6,0.1,0.9,0.1c0.8,0,1.4-0.5,1.8-1.4l0.4-1.1
				L51.5,48.3z"/>
			<path class="st1" d="M62.9,55.4c0.2,0,0.4,0,0.6,0c0.2,0,0.4-0.1,0.5-0.1v0.9c-0.1,0.1-0.3,0.1-0.6,0.2s-0.5,0.1-0.7,0.1
				c-1.5,0-2.3-0.8-2.3-2.4v-4.8h-1.1v-0.6l1.1-0.5l0.5-1.7h0.7v1.9h2.3v0.9h-2.3V54c0,0.5,0.1,0.9,0.3,1.1
				C62.2,55.3,62.5,55.4,62.9,55.4z"/>
			<path class="st1" d="M65.5,46.1c0-0.3,0.1-0.5,0.2-0.6s0.3-0.2,0.5-0.2s0.4,0.1,0.5,0.2c0.1,0.1,0.2,0.3,0.2,0.6
				s-0.1,0.5-0.2,0.6s-0.3,0.2-0.5,0.2s-0.4-0.1-0.5-0.2C65.5,46.6,65.5,46.4,65.5,46.1z M66.8,56.3h-1.2v-8h1.2V56.3z"/>
			<path class="st1" d="M72.6,56.4c-1.2,0-2.1-0.4-2.7-1.1c-0.6-0.7-1-1.7-1-3s0.3-2.4,1-3.1c0.6-0.7,1.6-1.1,2.8-1.1
				c0.4,0,0.8,0,1.2,0.1c0.4,0.1,0.7,0.2,0.9,0.3l-0.4,1c-0.3-0.1-0.6-0.2-0.9-0.3s-0.6-0.1-0.8-0.1c-1.6,0-2.4,1-2.4,3.1
				c0,1,0.2,1.7,0.6,2.3s1,0.8,1.8,0.8c0.7,0,1.4-0.1,2.1-0.4V56C74,56.3,73.4,56.4,72.6,56.4z"/>
			<path class="st1" d="M81.7,54.1c0,0.7-0.3,1.3-0.8,1.7c-0.6,0.4-1.3,0.6-2.3,0.6c-1.1,0-1.9-0.2-2.5-0.5v-1.1
				c0.4,0.2,0.8,0.3,1.2,0.5c0.4,0.1,0.9,0.2,1.3,0.2c0.6,0,1.1-0.1,1.5-0.3c0.3-0.2,0.5-0.5,0.5-0.9c0-0.3-0.1-0.6-0.4-0.8
				s-0.8-0.5-1.6-0.8c-0.7-0.3-1.3-0.5-1.6-0.7c-0.3-0.2-0.5-0.4-0.7-0.7C76,50.9,76,50.6,76,50.2c0-0.7,0.3-1.2,0.8-1.5
				c0.5-0.4,1.3-0.6,2.2-0.6c0.9,0,1.7,0.2,2.5,0.5l-0.4,1c-0.8-0.3-1.5-0.5-2.2-0.5c-0.6,0-1,0.1-1.3,0.3s-0.4,0.4-0.4,0.7
				c0,0.2,0.1,0.4,0.2,0.5c0.1,0.2,0.3,0.3,0.5,0.4c0.2,0.1,0.7,0.3,1.4,0.6c1,0.3,1.6,0.7,1.9,1C81.5,53.1,81.7,53.6,81.7,54.1z"/>
			<path class="st1" d="M26.5,77.2c-1.2,0-2.1-0.4-2.8-1.1c-0.7-0.7-1-1.7-1-3s0.3-2.3,1-3.1c0.6-0.8,1.5-1.1,2.6-1.1
				c1,0,1.8,0.3,2.4,1s0.9,1.5,0.9,2.6v0.8h-5.5c0,0.9,0.3,1.7,0.7,2.1c0.5,0.5,1.1,0.7,1.9,0.7c0.9,0,1.7-0.2,2.6-0.5v1.1
				c-0.4,0.2-0.8,0.3-1.2,0.4C27.5,77.2,27,77.2,26.5,77.2z M26.2,69.9c-0.6,0-1.2,0.2-1.5,0.6c-0.4,0.4-0.6,1-0.7,1.7h4.2
				c0-0.8-0.2-1.4-0.5-1.8C27.3,70.1,26.8,69.9,26.2,69.9z"/>
			<path class="st1" d="M33.3,77.1l-3-8h1.3l1.7,4.8c0.4,1.1,0.6,1.8,0.7,2.2l0,0c0.1-0.3,0.2-0.8,0.5-1.6s0.9-2.6,1.9-5.3h1.3l-3,8
				L33.3,77.1L33.3,77.1z"/>
			<path class="st1" d="M42.4,77.2c-1.2,0-2.1-0.4-2.8-1.1s-1-1.7-1-3s0.3-2.3,1-3.1c0.6-0.8,1.5-1.1,2.6-1.1c1,0,1.8,0.3,2.4,1
				c0.6,0.7,0.9,1.5,0.9,2.6v0.8H40c0,0.9,0.3,1.7,0.7,2.1c0.5,0.5,1.1,0.7,1.9,0.7c0.9,0,1.7-0.2,2.6-0.5v1.1
				c-0.4,0.2-0.8,0.3-1.2,0.4C43.4,77.2,42.9,77.2,42.4,77.2z M42.1,69.9c-0.6,0-1.2,0.2-1.5,0.6c-0.4,0.4-0.6,1-0.7,1.7H44
				c0-0.8-0.2-1.4-0.5-1.8C43.2,70.1,42.7,69.9,42.1,69.9z"/>
			<path class="st1" d="M51.1,68.9c0.4,0,0.7,0,1,0.1l-0.2,1.1c-0.4,0-0.7-0.1-0.9-0.1c-0.6,0-1.2,0.3-1.7,0.8s-0.7,1.2-0.7,2v4.3
				h-1.2v-8h1l0.1,1.5h0.1c0.3-0.5,0.7-0.9,1.1-1.2C50.1,69.1,50.6,68.9,51.1,68.9z"/>
			<path class="st1" d="M52.2,69.1h1.3l1.8,4.6c0.4,1,0.6,1.8,0.7,2.3h0.1c0.1-0.2,0.2-0.7,0.4-1.3s0.9-2.5,2-5.6h1.3l-3.4,9.1
				c-0.3,0.9-0.7,1.5-1.2,1.9s-1,0.6-1.7,0.6c-0.4,0-0.7,0-1.1-0.1v-1c0.3,0.1,0.6,0.1,0.9,0.1c0.8,0,1.4-0.5,1.8-1.4l0.4-1.1
				L52.2,69.1z"/>
			<path class="st1" d="M67.6,77.1l-1.5-4.7c-0.1-0.3-0.3-0.9-0.5-2h-0.1c-0.2,0.9-0.4,1.5-0.5,2l-1.5,4.7h-1.4l-2.2-8h1.3
				c0.5,2,0.9,3.5,1.2,4.6s0.4,1.8,0.5,2.1H63c0.1-0.3,0.1-0.6,0.3-1.1c0.1-0.4,0.2-0.8,0.3-1l1.5-4.6h1.3l1.4,4.6
				c0.3,0.8,0.5,1.5,0.6,2.1h0.1c0-0.2,0.1-0.4,0.2-0.8s0.6-2.3,1.5-5.9h1.3l-2.2,8C69.3,77.1,67.6,77.1,67.6,77.1z"/>
			<path class="st1" d="M78.2,77.1v-5.2c0-0.7-0.1-1.1-0.4-1.5C77.5,70.1,77,70,76.4,70c-0.8,0-1.5,0.2-1.8,0.7
				C74.2,71.2,74,71.9,74,73v4.2h-1.2V65.7H74v3.4c0,0.4,0,0.8-0.1,1H74c0.2-0.4,0.6-0.7,1-0.9c0.4-0.2,0.9-0.3,1.5-0.3
				c1,0,1.7,0.2,2.2,0.7s0.7,1.2,0.7,2.2V77h-1.2V77.1z"/>
			<path class="st1" d="M85.3,77.2c-1.2,0-2.1-0.4-2.8-1.1c-0.7-0.7-1-1.7-1-3s0.3-2.3,1-3.1s1.5-1.1,2.6-1.1c1,0,1.8,0.3,2.4,1
				s0.9,1.5,0.9,2.6v0.8h-5.5c0,0.9,0.3,1.7,0.7,2.1c0.5,0.5,1.1,0.7,1.9,0.7c0.9,0,1.7-0.2,2.6-0.5v1.1c-0.4,0.2-0.8,0.3-1.2,0.4
				C86.3,77.2,85.8,77.2,85.3,77.2z M85,69.9c-0.6,0-1.2,0.2-1.5,0.6c-0.4,0.4-0.6,1-0.7,1.7H87c0-0.8-0.2-1.4-0.5-1.8
				C86.1,70.1,85.6,69.9,85,69.9z"/>
			<path class="st1" d="M94,68.9c0.4,0,0.7,0,1,0.1l-0.2,1.1C94.5,70,94.2,70,93.9,70c-0.6,0-1.2,0.3-1.7,0.8s-0.7,1.2-0.7,2v4.3
				h-1.2v-8h1l0.1,1.5h0.1c0.3-0.5,0.7-0.9,1.1-1.2C93,69.1,93.5,68.9,94,68.9z"/>
			<path class="st1" d="M99.8,77.2c-1.2,0-2.1-0.4-2.8-1.1c-0.7-0.7-1-1.7-1-3s0.3-2.3,1-3.1s1.5-1.1,2.6-1.1c1,0,1.8,0.3,2.4,1
				s0.9,1.5,0.9,2.6v0.8h-5.5c0,0.9,0.3,1.7,0.7,2.1c0.5,0.5,1.1,0.7,1.9,0.7c0.9,0,1.7-0.2,2.6-0.5v1.1c-0.4,0.2-0.8,0.3-1.2,0.4
				C100.8,77.2,100.3,77.2,99.8,77.2z M99.5,69.9c-0.6,0-1.2,0.2-1.5,0.6c-0.4,0.4-0.6,1-0.7,1.7h4.2c0-0.8-0.2-1.4-0.5-1.8
				C100.6,70.1,100.1,69.9,99.5,69.9z"/>
		</g>
	</g>
</g>
<g id="cta_1_">
	<defs>
		<rect id="cta-mask" x="19" y="86.3" width="77.7" height="29.8"/>
	</defs>
	<clipPath id="cta-mask_1_">
		<rect id="cta-mask" x="19" y="86.3" width="77.7" height="29.8"/>
	</clipPath>
	<path id="cta-bg" class="st2" d="M21,91.8h72.7c0.6,0,1.1,0.5,1.1,1.1l0,0v15.7c0,0.6-0.5,1.1-1.1,1.1l0,0H21
		c-0.6,0-1.1-0.5-1.1-1.1l0,0V93C19.8,92.3,20.3,91.8,21,91.8z"/>
	<g id="Learn_more" class="st3">
		<g>
			<path class="st4" d="M34,103.2V97h1v5.3h2.6v0.9C37.6,103.2,34,103.2,34,103.2z"/>
			<path class="st4" d="M40.5,103.3c-0.7,0-1.3-0.2-1.7-0.6s-0.6-1-0.6-1.7c0-0.8,0.2-1.4,0.6-1.8c0.4-0.4,0.9-0.6,1.6-0.6
				c0.6,0,1.1,0.2,1.5,0.6s0.5,0.9,0.5,1.5v0.5h-3.1c0,0.4,0.1,0.8,0.4,1s0.6,0.4,1,0.4c0.3,0,0.5,0,0.8-0.1
				c0.2-0.1,0.5-0.1,0.8-0.3v0.8c-0.2,0.1-0.5,0.2-0.7,0.2C41.1,103.2,40.8,103.3,40.5,103.3z M40.3,99.2c-0.3,0-0.6,0.1-0.8,0.3
				c-0.2,0.2-0.3,0.5-0.3,0.9h2.1c0-0.4-0.1-0.7-0.3-0.9C40.9,99.3,40.7,99.2,40.3,99.2z"/>
			<path class="st4" d="M46.3,103.2l-0.2-0.6l0,0c-0.2,0.3-0.4,0.5-0.7,0.6c-0.2,0.1-0.5,0.2-0.9,0.2c-0.5,0-0.8-0.1-1.1-0.4
				c-0.3-0.2-0.4-0.6-0.4-1c0-0.5,0.2-0.8,0.5-1.1c0.4-0.2,0.9-0.4,1.6-0.4h0.8v-0.2c0-0.3-0.1-0.5-0.2-0.7
				c-0.1-0.1-0.4-0.2-0.6-0.2c-0.2,0-0.5,0-0.7,0.1s-0.4,0.2-0.6,0.2L43.5,99c0.3-0.1,0.5-0.2,0.8-0.3c0.3-0.1,0.6-0.1,0.8-0.1
				c0.6,0,1,0.1,1.3,0.4s0.5,0.7,0.5,1.2v3.1L46.3,103.2L46.3,103.2z M44.9,102.5c0.4,0,0.6-0.1,0.9-0.3c0.2-0.2,0.3-0.5,0.3-0.8
				V101h-0.6c-0.5,0-0.8,0.1-1,0.2s-0.3,0.4-0.3,0.6s0.1,0.4,0.2,0.5S44.6,102.5,44.9,102.5z"/>
			<path class="st4" d="M50.8,98.4c0.2,0,0.4,0,0.5,0l-0.1,0.9c-0.1,0-0.3-0.1-0.4-0.1c-0.4,0-0.7,0.1-1,0.4c-0.2,0.3-0.4,0.6-0.4,1
				v2.4h-1v-4.6h0.8l0.1,0.8h0.1c0.2-0.3,0.4-0.5,0.6-0.7C50.2,98.5,50.5,98.4,50.8,98.4z"/>
			<path class="st4" d="M56.2,103.2h-1v-2.8c0-0.4-0.1-0.6-0.2-0.8c-0.1-0.2-0.4-0.3-0.7-0.3c-0.4,0-0.7,0.1-0.9,0.4
				c-0.2,0.2-0.3,0.7-0.3,1.2v2.3h-1v-4.6h0.8l0.1,0.6h0.1c0.1-0.2,0.3-0.4,0.6-0.5s0.5-0.2,0.9-0.2c1.1,0,1.7,0.6,1.7,1.7
				L56.2,103.2L56.2,103.2z"/>
			<path class="st4" d="M62.6,103.2l-1.8-5.1l0,0c0,0.8,0.1,1.5,0.1,2.1v3H60V97h1.4l1.7,4.9l0,0l1.8-4.9h1.4v6.1h-1v-3
				c0-0.3,0-0.7,0-1.2s0-0.8,0-0.9l0,0l-1.8,5.1L62.6,103.2L62.6,103.2z"/>
			<path class="st4" d="M71.8,100.8c0,0.8-0.2,1.3-0.6,1.8s-0.9,0.6-1.6,0.6c-0.4,0-0.8-0.1-1.1-0.3c-0.3-0.2-0.6-0.5-0.8-0.8
				c-0.2-0.4-0.3-0.8-0.3-1.3c0-0.8,0.2-1.3,0.6-1.8c0.4-0.4,0.9-0.6,1.6-0.6s1.2,0.2,1.6,0.6S71.8,100.1,71.8,100.8z M68.5,100.8
				c0,1.1,0.4,1.6,1.2,1.6c0.8,0,1.2-0.5,1.2-1.6s-0.4-1.6-1.2-1.6c-0.4,0-0.7,0.1-0.9,0.4C68.6,99.9,68.5,100.3,68.5,100.8z"/>
			<path class="st4" d="M75.3,98.4c0.2,0,0.4,0,0.5,0l-0.1,0.9c-0.1,0-0.3-0.1-0.4-0.1c-0.4,0-0.7,0.1-1,0.4c-0.2,0.3-0.4,0.6-0.4,1
				v2.4h-1v-4.6h0.8l0.1,0.8h0.1c0.2-0.3,0.4-0.5,0.6-0.7C74.8,98.5,75,98.4,75.3,98.4z"/>
			<path class="st4" d="M78.7,103.3c-0.7,0-1.3-0.2-1.7-0.6s-0.6-1-0.6-1.7c0-0.8,0.2-1.4,0.6-1.8s0.9-0.6,1.6-0.6
				c0.6,0,1.1,0.2,1.5,0.6s0.5,0.9,0.5,1.5v0.5h-3.1c0,0.4,0.1,0.8,0.4,1c0.2,0.2,0.6,0.4,1,0.4c0.3,0,0.5,0,0.8-0.1
				c0.2-0.1,0.5-0.1,0.8-0.3v0.8c-0.2,0.1-0.5,0.2-0.7,0.2S79,103.3,78.7,103.3z M78.5,99.2c-0.3,0-0.6,0.1-0.8,0.3
				c-0.2,0.2-0.3,0.5-0.3,0.9h2.1c0-0.4-0.1-0.7-0.3-0.9S78.8,99.2,78.5,99.2z"/>
		</g>
	</g>
</g>
<g id="logo_1_">
	<g id="Sisense_x5F_logo_xA0_Image_1_">
		
			<image style="overflow:visible;enable-background:new    ;" width="134" height="34" id="Sisense_x5F_logo_xA0_Image" xlink:href="B89A75548FC8D42B.png"  transform="matrix(0.4965 0 0 0.4965 20.9848 265.0596)">
		</image>
	</g>
</g>
</svg>
