<?xml version="1.0" encoding="utf-8"?>
<!-- Generator: Adobe Illustrator 25.1.0, SVG Export Plug-In . SVG Version: 6.00 Build 0)  -->
<svg version="1.1" id="B1-120x600-F3_1_" xmlns="http://www.w3.org/2000/svg" xmlns:xlink="http://www.w3.org/1999/xlink" x="0px"
	 y="0px" viewBox="0 0 60 300" style="enable-background:new 0 0 60 300;" xml:space="preserve">
<style type="text/css">
	.st0{fill:url(#SVGID_1_);}
	.st1{clip-path:url(#cta-mask_1_);}
	.st2{fill:#FFBE00;}
	.st3{fill:#181A19;}
	.st4{fill:#FFFFFF;}
</style>
<g id="bgsil">
	
		<radialGradient id="SVGID_1_" cx="8.75" cy="150" r="169.6884" fx="7.8859" fy="200.0296" gradientTransform="matrix(0.4 0 0 1 26.5 0)" gradientUnits="userSpaceOnUse">
		<stop  offset="0.1836" style="stop-color:#FFFFFF;stop-opacity:0"/>
		<stop  offset="0.2334" style="stop-color:#E4E4E4;stop-opacity:6.102586e-02"/>
		<stop  offset="0.3539" style="stop-color:#A8A8A8;stop-opacity:0.2087"/>
		<stop  offset="0.4741" style="stop-color:#757575;stop-opacity:0.3559"/>
		<stop  offset="0.5911" style="stop-color:#4B4B4B;stop-opacity:0.4991"/>
		<stop  offset="0.7041" style="stop-color:#2A2A2A;stop-opacity:0.6375"/>
		<stop  offset="0.8121" style="stop-color:#131313;stop-opacity:0.7699"/>
		<stop  offset="0.9131" style="stop-color:#050505;stop-opacity:0.8936"/>
		<stop  offset="1" style="stop-color:#000000"/>
	</radialGradient>
	<rect class="st0" width="60" height="300"/>
</g>
<g id="logo_1_">
	<g id="Sisense_x5F_logo_xA0_Image_1_">
		
			<image style="overflow:visible;" width="85" height="22" id="Sisense_x5F_logo_xA0_Image" xlink:href="DC4912349212930.png"  transform="matrix(0.5 0 0 0.5 8.5 278)">
		</image>
	</g>
</g>
<g id="cta_1_">
	<defs>
		<rect id="cta-mask" x="5.5" y="63" width="47.7" height="14.1"/>
	</defs>
	<clipPath id="cta-mask_1_">
		<use xlink:href="#cta_x002D_mask"  style="overflow:visible;"/>
	</clipPath>
	<g id="Rounded_Rectangle_1" class="st1">
		<g>
			<path class="st2" d="M51,64.4H8.5c-1.1,0-2,0.9-2,2v7.5c0,1.1,0.9,2,2,2H51c1.1,0,2-0.9,2-2v-7.5C53,65.3,52.1,64.4,51,64.4z"/>
		</g>
	</g>
	<g id="Learn_more" class="st1">
		<g>
			<path class="st3" d="M15.1,72v-3.8h0.6v3.3h1.6V72H15.1z"/>
			<path class="st3" d="M19.2,72.1c-0.4,0-0.8-0.1-1-0.4c-0.3-0.3-0.4-0.6-0.4-1.1c0-0.5,0.1-0.8,0.4-1.1c0.2-0.3,0.6-0.4,1-0.4
				c0.4,0,0.7,0.1,0.9,0.3c0.2,0.2,0.3,0.5,0.3,1v0.3h-1.9c0,0.3,0.1,0.5,0.2,0.6c0.1,0.1,0.3,0.2,0.6,0.2c0.2,0,0.3,0,0.5,0
				c0.1,0,0.3-0.1,0.5-0.2v0.5C20,71.9,19.9,72,19.7,72S19.4,72.1,19.2,72.1z M19.1,69.5c-0.2,0-0.3,0.1-0.5,0.2
				c-0.1,0.1-0.2,0.3-0.2,0.5h1.3c0-0.2-0.1-0.4-0.2-0.5S19.3,69.5,19.1,69.5z"/>
			<path class="st3" d="M22.8,72l-0.1-0.4h0c-0.1,0.2-0.3,0.3-0.4,0.4c-0.1,0.1-0.3,0.1-0.5,0.1c-0.3,0-0.5-0.1-0.7-0.2
				c-0.2-0.2-0.2-0.4-0.2-0.6c0-0.3,0.1-0.5,0.3-0.7c0.2-0.2,0.6-0.2,1-0.2l0.5,0v-0.2c0-0.2,0-0.3-0.1-0.4
				c-0.1-0.1-0.2-0.1-0.4-0.1c-0.1,0-0.3,0-0.4,0.1c-0.1,0-0.3,0.1-0.4,0.2l-0.2-0.4c0.2-0.1,0.3-0.1,0.5-0.2s0.4-0.1,0.5-0.1
				c0.4,0,0.6,0.1,0.8,0.2c0.2,0.2,0.3,0.4,0.3,0.8V72H22.8z M21.9,71.6c0.2,0,0.4-0.1,0.5-0.2c0.1-0.1,0.2-0.3,0.2-0.5v-0.2l-0.4,0
				c-0.3,0-0.5,0.1-0.6,0.1c-0.1,0.1-0.2,0.2-0.2,0.4c0,0.1,0,0.2,0.1,0.3C21.6,71.6,21.8,71.6,21.9,71.6z"/>
			<path class="st3" d="M25.6,69.1c0.1,0,0.2,0,0.3,0l-0.1,0.6c-0.1,0-0.2,0-0.3,0c-0.2,0-0.4,0.1-0.6,0.2c-0.2,0.2-0.2,0.4-0.2,0.6
				V72h-0.6v-2.9h0.5l0.1,0.5h0c0.1-0.2,0.2-0.3,0.4-0.4C25.2,69.1,25.4,69.1,25.6,69.1z"/>
			<path class="st3" d="M28.9,72h-0.6v-1.8c0-0.2,0-0.4-0.1-0.5c-0.1-0.1-0.2-0.2-0.4-0.2c-0.3,0-0.4,0.1-0.6,0.2S27,70.2,27,70.6
				V72h-0.6v-2.9h0.5l0.1,0.4h0c0.1-0.1,0.2-0.2,0.4-0.3s0.3-0.1,0.5-0.1c0.7,0,1,0.4,1,1.1V72z"/>
			<path class="st3" d="M33.6,72H33v-1.8c0-0.2,0-0.4-0.1-0.5c-0.1-0.1-0.2-0.2-0.4-0.2c-0.2,0-0.4,0.1-0.5,0.2
				c-0.1,0.2-0.2,0.4-0.2,0.8V72h-0.6v-2.9h0.5l0.1,0.4h0c0.1-0.1,0.2-0.2,0.3-0.3c0.2-0.1,0.3-0.1,0.5-0.1c0.4,0,0.7,0.2,0.9,0.5h0
				c0.1-0.1,0.2-0.3,0.4-0.3c0.2-0.1,0.3-0.1,0.5-0.1c0.3,0,0.6,0.1,0.7,0.3c0.2,0.2,0.2,0.4,0.2,0.8V72h-0.6v-1.8
				c0-0.2,0-0.4-0.1-0.5c-0.1-0.1-0.2-0.2-0.4-0.2c-0.2,0-0.4,0.1-0.5,0.2c-0.1,0.1-0.2,0.4-0.2,0.7V72z"/>
			<path class="st3" d="M38.8,70.6c0,0.5-0.1,0.8-0.4,1.1c-0.2,0.3-0.6,0.4-1,0.4c-0.3,0-0.5-0.1-0.7-0.2s-0.4-0.3-0.5-0.5
				c-0.1-0.2-0.2-0.5-0.2-0.8c0-0.5,0.1-0.8,0.4-1.1c0.2-0.3,0.6-0.4,1-0.4c0.4,0,0.7,0.1,1,0.4S38.8,70.1,38.8,70.6z M36.7,70.6
				c0,0.7,0.2,1,0.7,1c0.5,0,0.7-0.3,0.7-1c0-0.7-0.2-1-0.7-1c-0.3,0-0.4,0.1-0.6,0.3C36.8,70,36.7,70.2,36.7,70.6z"/>
			<path class="st3" d="M41,69.1c0.1,0,0.2,0,0.3,0l-0.1,0.6c-0.1,0-0.2,0-0.3,0c-0.2,0-0.4,0.1-0.6,0.2c-0.2,0.2-0.2,0.4-0.2,0.6
				V72h-0.6v-2.9H40l0.1,0.5h0c0.1-0.2,0.2-0.3,0.4-0.4C40.6,69.1,40.8,69.1,41,69.1z"/>
			<path class="st3" d="M43,72.1c-0.4,0-0.8-0.1-1-0.4c-0.3-0.3-0.4-0.6-0.4-1.1c0-0.5,0.1-0.8,0.4-1.1c0.2-0.3,0.6-0.4,1-0.4
				c0.4,0,0.7,0.1,0.9,0.3c0.2,0.2,0.3,0.5,0.3,1v0.3h-1.9c0,0.3,0.1,0.5,0.2,0.6c0.1,0.1,0.3,0.2,0.6,0.2c0.2,0,0.3,0,0.5,0
				c0.1,0,0.3-0.1,0.5-0.2v0.5c-0.1,0.1-0.3,0.1-0.5,0.2S43.2,72.1,43,72.1z M42.9,69.5c-0.2,0-0.3,0.1-0.5,0.2
				c-0.1,0.1-0.2,0.3-0.2,0.5h1.3c0-0.2-0.1-0.4-0.2-0.5C43.3,69.6,43.1,69.5,42.9,69.5z"/>
		</g>
	</g>
</g>
<g id="c3">
	<g id="Infuse__x0D_analytics__x0D_everywhere">
		<g>
			<path class="st4" d="M18.9,30v-6.1h0.7V30H18.9z"/>
			<path class="st4" d="M24.3,30v-3c0-0.4-0.1-0.6-0.3-0.8c-0.2-0.2-0.4-0.3-0.8-0.3c-0.5,0-0.8,0.1-1,0.4c-0.2,0.3-0.3,0.7-0.3,1.3
				V30h-0.7v-4.6h0.6l0.1,0.6h0c0.1-0.2,0.3-0.4,0.6-0.5s0.5-0.2,0.9-0.2c0.5,0,1,0.1,1.2,0.4S25,26.4,25,27v3H24.3z"/>
			<path class="st4" d="M28.5,25.9h-1.2v4h-0.7v-4h-0.8v-0.3l0.8-0.2v-0.3c0-1.1,0.5-1.7,1.5-1.7c0.2,0,0.5,0,0.8,0.1l-0.2,0.6
				c-0.3-0.1-0.5-0.1-0.7-0.1c-0.3,0-0.5,0.1-0.6,0.3c-0.1,0.2-0.2,0.5-0.2,0.8v0.3h1.2V25.9z"/>
			<path class="st4" d="M29.9,25.4v3c0,0.4,0.1,0.6,0.3,0.8c0.2,0.2,0.4,0.3,0.8,0.3c0.5,0,0.8-0.1,1-0.4s0.3-0.7,0.3-1.3v-2.4h0.7
				V30h-0.6l-0.1-0.6h0c-0.1,0.2-0.3,0.4-0.6,0.5c-0.3,0.1-0.5,0.2-0.9,0.2c-0.6,0-1-0.1-1.2-0.4c-0.3-0.3-0.4-0.7-0.4-1.3v-3H29.9z
				"/>
			<path class="st4" d="M37.5,28.7c0,0.4-0.2,0.8-0.5,1s-0.8,0.3-1.3,0.3c-0.6,0-1.1-0.1-1.4-0.3v-0.6c0.2,0.1,0.5,0.2,0.7,0.3
				c0.3,0.1,0.5,0.1,0.7,0.1c0.4,0,0.6-0.1,0.8-0.2s0.3-0.3,0.3-0.5c0-0.2-0.1-0.3-0.2-0.5c-0.2-0.1-0.5-0.3-0.9-0.4
				c-0.4-0.2-0.7-0.3-0.9-0.4c-0.2-0.1-0.3-0.3-0.4-0.4c-0.1-0.1-0.1-0.3-0.1-0.5c0-0.4,0.2-0.7,0.5-0.9c0.3-0.2,0.7-0.3,1.2-0.3
				c0.5,0,1,0.1,1.4,0.3l-0.2,0.6c-0.5-0.2-0.9-0.3-1.2-0.3c-0.3,0-0.6,0.1-0.7,0.2c-0.2,0.1-0.2,0.2-0.2,0.4c0,0.1,0,0.2,0.1,0.3
				c0.1,0.1,0.2,0.2,0.3,0.2c0.1,0.1,0.4,0.2,0.8,0.3c0.5,0.2,0.9,0.4,1.1,0.6C37.4,28.2,37.5,28.4,37.5,28.7z"/>
			<path class="st4" d="M40.5,30.1c-0.7,0-1.2-0.2-1.6-0.6c-0.4-0.4-0.6-1-0.6-1.7c0-0.7,0.2-1.3,0.5-1.8c0.4-0.4,0.8-0.6,1.5-0.6
				c0.6,0,1,0.2,1.4,0.6s0.5,0.9,0.5,1.5v0.4h-3.1c0,0.5,0.1,0.9,0.4,1.2c0.3,0.3,0.6,0.4,1.1,0.4c0.5,0,1-0.1,1.5-0.3v0.6
				c-0.2,0.1-0.5,0.2-0.7,0.2S40.8,30.1,40.5,30.1z M40.3,25.9c-0.4,0-0.7,0.1-0.9,0.4s-0.3,0.6-0.4,1h2.4c0-0.4-0.1-0.8-0.3-1
				C41,26,40.7,25.9,40.3,25.9z"/>
			<path class="st4" d="M16.7,41.8l-0.1-0.6h0c-0.2,0.3-0.5,0.5-0.7,0.6c-0.2,0.1-0.5,0.2-0.8,0.2c-0.5,0-0.8-0.1-1.1-0.4
				c-0.3-0.2-0.4-0.6-0.4-1c0-0.9,0.7-1.4,2.2-1.4l0.8,0v-0.3c0-0.4-0.1-0.6-0.2-0.8c-0.2-0.2-0.4-0.3-0.7-0.3
				c-0.4,0-0.8,0.1-1.3,0.3L14,37.6c0.2-0.1,0.5-0.2,0.7-0.3c0.3-0.1,0.5-0.1,0.8-0.1c0.5,0,0.9,0.1,1.2,0.4
				c0.3,0.2,0.4,0.6,0.4,1.2v3.1H16.7z M15.1,41.3c0.4,0,0.8-0.1,1-0.4s0.4-0.6,0.4-1v-0.4l-0.7,0c-0.5,0-0.9,0.1-1.2,0.3
				c-0.2,0.2-0.4,0.4-0.4,0.7c0,0.2,0.1,0.4,0.2,0.6C14.6,41.3,14.8,41.3,15.1,41.3z"/>
			<path class="st4" d="M21.7,41.8v-3c0-0.4-0.1-0.6-0.3-0.8c-0.2-0.2-0.4-0.3-0.8-0.3c-0.5,0-0.8,0.1-1,0.4
				c-0.2,0.3-0.3,0.7-0.3,1.3v2.4h-0.7v-4.6h0.6l0.1,0.6h0c0.1-0.2,0.3-0.4,0.6-0.5s0.5-0.2,0.9-0.2c0.5,0,1,0.1,1.2,0.4
				s0.4,0.7,0.4,1.3v3H21.7z"/>
			<path class="st4" d="M26.6,41.8l-0.1-0.6h0c-0.2,0.3-0.5,0.5-0.7,0.6c-0.2,0.1-0.5,0.2-0.8,0.2c-0.5,0-0.8-0.1-1.1-0.4
				c-0.3-0.2-0.4-0.6-0.4-1c0-0.9,0.7-1.4,2.2-1.4l0.8,0v-0.3c0-0.4-0.1-0.6-0.2-0.8c-0.2-0.2-0.4-0.3-0.7-0.3
				c-0.4,0-0.8,0.1-1.3,0.3L24,37.6c0.2-0.1,0.5-0.2,0.7-0.3c0.3-0.1,0.5-0.1,0.8-0.1c0.5,0,0.9,0.1,1.2,0.4
				c0.3,0.2,0.4,0.6,0.4,1.2v3.1H26.6z M25.1,41.3c0.4,0,0.8-0.1,1-0.4s0.4-0.6,0.4-1v-0.4l-0.7,0c-0.5,0-0.9,0.1-1.2,0.3
				c-0.2,0.2-0.4,0.4-0.4,0.7c0,0.2,0.1,0.4,0.2,0.6C24.6,41.3,24.8,41.3,25.1,41.3z"/>
			<path class="st4" d="M29.3,41.8h-0.7v-6.5h0.7V41.8z"/>
			<path class="st4" d="M30,37.3h0.7l1,2.6c0.2,0.6,0.4,1,0.4,1.3h0c0-0.1,0.1-0.4,0.2-0.7s0.5-1.4,1.1-3.2h0.7l-2,5.2
				c-0.2,0.5-0.4,0.9-0.7,1.1c-0.3,0.2-0.6,0.3-1,0.3c-0.2,0-0.4,0-0.6-0.1v-0.6c0.2,0,0.3,0,0.5,0c0.5,0,0.8-0.3,1-0.8l0.3-0.6
				L30,37.3z"/>
			<path class="st4" d="M36.5,41.3c0.1,0,0.2,0,0.4,0c0.1,0,0.2,0,0.3-0.1v0.5c-0.1,0-0.2,0.1-0.3,0.1s-0.3,0-0.4,0
				c-0.9,0-1.3-0.5-1.3-1.4v-2.7h-0.7v-0.3l0.7-0.3l0.3-1h0.4v1.1h1.3v0.5h-1.3v2.7c0,0.3,0.1,0.5,0.2,0.6
				C36.1,41.3,36.3,41.3,36.5,41.3z"/>
			<path class="st4" d="M38,36c0-0.2,0-0.3,0.1-0.3s0.2-0.1,0.3-0.1c0.1,0,0.2,0,0.3,0.1c0.1,0.1,0.1,0.2,0.1,0.3s0,0.3-0.1,0.3
				c-0.1,0.1-0.2,0.1-0.3,0.1c-0.1,0-0.2,0-0.3-0.1C38,36.3,38,36.2,38,36z M38.7,41.8H38v-4.6h0.7V41.8z"/>
			<path class="st4" d="M42,41.9c-0.7,0-1.2-0.2-1.5-0.6c-0.4-0.4-0.5-1-0.5-1.7c0-0.8,0.2-1.4,0.6-1.8c0.4-0.4,0.9-0.6,1.6-0.6
				c0.2,0,0.4,0,0.7,0.1c0.2,0,0.4,0.1,0.5,0.2L43,38c-0.2-0.1-0.3-0.1-0.5-0.2c-0.2,0-0.3-0.1-0.5-0.1c-0.9,0-1.4,0.6-1.4,1.8
				c0,0.6,0.1,1,0.3,1.3s0.6,0.4,1,0.4c0.4,0,0.8-0.1,1.2-0.2v0.6C42.9,41.8,42.5,41.9,42,41.9z"/>
			<path class="st4" d="M47.2,40.6c0,0.4-0.2,0.8-0.5,1s-0.8,0.3-1.3,0.3c-0.6,0-1.1-0.1-1.4-0.3V41c0.2,0.1,0.5,0.2,0.7,0.3
				c0.3,0.1,0.5,0.1,0.7,0.1c0.4,0,0.6-0.1,0.8-0.2s0.3-0.3,0.3-0.5c0-0.2-0.1-0.3-0.2-0.5c-0.2-0.1-0.5-0.3-0.9-0.4
				c-0.4-0.2-0.7-0.3-0.9-0.4c-0.2-0.1-0.3-0.3-0.4-0.4C44,38.8,44,38.6,44,38.4c0-0.4,0.2-0.7,0.5-0.9c0.3-0.2,0.7-0.3,1.2-0.3
				c0.5,0,1,0.1,1.4,0.3L46.9,38c-0.5-0.2-0.9-0.3-1.2-0.3c-0.3,0-0.6,0.1-0.7,0.2c-0.2,0.1-0.2,0.2-0.2,0.4c0,0.1,0,0.2,0.1,0.3
				c0.1,0.1,0.2,0.2,0.3,0.2c0.1,0.1,0.4,0.2,0.8,0.3c0.5,0.2,0.9,0.4,1.1,0.6C47.1,40,47.2,40.3,47.2,40.6z"/>
			<path class="st4" d="M10.9,53.7c-0.7,0-1.2-0.2-1.6-0.6c-0.4-0.4-0.6-1-0.6-1.7c0-0.7,0.2-1.3,0.5-1.8c0.4-0.4,0.8-0.6,1.5-0.6
				c0.6,0,1,0.2,1.4,0.6s0.5,0.9,0.5,1.5v0.4H9.4c0,0.5,0.1,0.9,0.4,1.2c0.3,0.3,0.6,0.4,1.1,0.4c0.5,0,1-0.1,1.5-0.3v0.6
				c-0.2,0.1-0.5,0.2-0.7,0.2S11.2,53.7,10.9,53.7z M10.7,49.6c-0.4,0-0.7,0.1-0.9,0.4s-0.3,0.6-0.4,1h2.4c0-0.4-0.1-0.8-0.3-1
				C11.3,49.7,11,49.6,10.7,49.6z"/>
			<path class="st4" d="M14.7,53.7L13,49.1h0.7l1,2.7c0.2,0.6,0.4,1,0.4,1.2h0c0-0.1,0.1-0.5,0.3-0.9c0.2-0.5,0.5-1.5,1.1-3h0.7
				l-1.7,4.6H14.7z"/>
			<path class="st4" d="M19.9,53.7c-0.7,0-1.2-0.2-1.6-0.6c-0.4-0.4-0.6-1-0.6-1.7c0-0.7,0.2-1.3,0.5-1.8c0.4-0.4,0.8-0.6,1.5-0.6
				c0.6,0,1,0.2,1.4,0.6s0.5,0.9,0.5,1.5v0.4h-3.1c0,0.5,0.1,0.9,0.4,1.2c0.3,0.3,0.6,0.4,1.1,0.4c0.5,0,1-0.1,1.5-0.3v0.6
				c-0.2,0.1-0.5,0.2-0.7,0.2S20.2,53.7,19.9,53.7z M19.7,49.6c-0.4,0-0.7,0.1-0.9,0.4s-0.3,0.6-0.4,1h2.4c0-0.4-0.1-0.8-0.3-1
				C20.4,49.7,20.1,49.6,19.7,49.6z"/>
			<path class="st4" d="M24.9,49c0.2,0,0.4,0,0.5,0l-0.1,0.6c-0.2,0-0.4-0.1-0.5-0.1c-0.4,0-0.7,0.1-0.9,0.4s-0.4,0.7-0.4,1.1v2.4
				h-0.7v-4.6h0.6l0.1,0.8h0c0.2-0.3,0.4-0.5,0.6-0.7C24.3,49.1,24.6,49,24.9,49z"/>
			<path class="st4" d="M25.5,49.1h0.7l1,2.6c0.2,0.6,0.4,1,0.4,1.3h0c0-0.1,0.1-0.4,0.2-0.7c0.1-0.3,0.5-1.4,1.1-3.2h0.7l-2,5.2
				c-0.2,0.5-0.4,0.9-0.7,1.1c-0.3,0.2-0.6,0.3-1,0.3c-0.2,0-0.4,0-0.6-0.1v-0.6c0.2,0,0.3,0,0.5,0c0.5,0,0.8-0.3,1-0.8l0.3-0.6
				L25.5,49.1z"/>
			<path class="st4" d="M34.3,53.7L33.4,51c-0.1-0.2-0.2-0.5-0.3-1.1h0c-0.1,0.5-0.2,0.9-0.3,1.1L32,53.7h-0.8l-1.2-4.6h0.7
				c0.3,1.1,0.5,2,0.7,2.6c0.2,0.6,0.2,1,0.3,1.2h0c0-0.2,0.1-0.4,0.1-0.6c0.1-0.3,0.1-0.5,0.2-0.6l0.8-2.6h0.7l0.8,2.6
				c0.2,0.5,0.3,0.9,0.3,1.2h0c0-0.1,0-0.3,0.1-0.5c0-0.2,0.3-1.3,0.9-3.4h0.7l-1.3,4.6H34.3z"/>
			<path class="st4" d="M40.3,53.7v-3c0-0.4-0.1-0.6-0.3-0.8c-0.2-0.2-0.4-0.3-0.8-0.3c-0.5,0-0.8,0.1-1.1,0.4
				c-0.2,0.3-0.3,0.7-0.3,1.3v2.4h-0.7v-6.5h0.7v2c0,0.2,0,0.4,0,0.6h0c0.1-0.2,0.3-0.4,0.6-0.5c0.3-0.1,0.5-0.2,0.9-0.2
				c0.6,0,1,0.1,1.3,0.4s0.4,0.7,0.4,1.3v3H40.3z"/>
			<path class="st4" d="M44.3,53.7c-0.7,0-1.2-0.2-1.6-0.6c-0.4-0.4-0.6-1-0.6-1.7c0-0.7,0.2-1.3,0.5-1.8c0.4-0.4,0.8-0.6,1.5-0.6
				c0.6,0,1,0.2,1.4,0.6s0.5,0.9,0.5,1.5v0.4h-3.1c0,0.5,0.1,0.9,0.4,1.2c0.3,0.3,0.6,0.4,1.1,0.4c0.5,0,1-0.1,1.5-0.3v0.6
				c-0.2,0.1-0.5,0.2-0.7,0.2S44.6,53.7,44.3,53.7z M44.2,49.6c-0.4,0-0.7,0.1-0.9,0.4s-0.3,0.6-0.4,1h2.4c0-0.4-0.1-0.8-0.3-1
				C44.8,49.7,44.5,49.6,44.2,49.6z"/>
			<path class="st4" d="M49.3,49c0.2,0,0.4,0,0.5,0l-0.1,0.6c-0.2,0-0.4-0.1-0.5-0.1c-0.4,0-0.7,0.1-0.9,0.4
				c-0.3,0.3-0.4,0.7-0.4,1.1v2.4h-0.7v-4.6h0.6l0.1,0.8h0c0.2-0.3,0.4-0.5,0.6-0.7C48.7,49.1,49,49,49.3,49z"/>
			<path class="st4" d="M52.6,53.7c-0.7,0-1.2-0.2-1.6-0.6c-0.4-0.4-0.6-1-0.6-1.7c0-0.7,0.2-1.3,0.5-1.8c0.4-0.4,0.8-0.6,1.5-0.6
				c0.6,0,1,0.2,1.4,0.6s0.5,0.9,0.5,1.5v0.4h-3.1c0,0.5,0.1,0.9,0.4,1.2c0.3,0.3,0.6,0.4,1.1,0.4c0.5,0,1-0.1,1.5-0.3v0.6
				c-0.2,0.1-0.5,0.2-0.7,0.2S52.9,53.7,52.6,53.7z M52.4,49.6c-0.4,0-0.7,0.1-0.9,0.4s-0.3,0.6-0.4,1h2.4c0-0.4-0.1-0.8-0.3-1
				C53.1,49.7,52.8,49.6,52.4,49.6z"/>
		</g>
	</g>
</g>
<g id="c2">
	<g id="Whenever__x0D_you_need_it">
		<g>
			<path class="st4" d="M16.2,29.7h-0.7l-1.2-4.1c-0.1-0.2-0.1-0.4-0.2-0.7c-0.1-0.3-0.1-0.4-0.1-0.5c-0.1,0.4-0.2,0.8-0.3,1.2
				l-1.2,4.1h-0.7l-1.6-6.1h0.7l1,3.8c0.1,0.5,0.2,1,0.3,1.4c0.1-0.5,0.2-1,0.3-1.5l1.1-3.7h0.7l1.1,3.7c0.1,0.4,0.2,0.9,0.3,1.5
				c0.1-0.4,0.2-0.9,0.3-1.4l1-3.8h0.7L16.2,29.7z"/>
			<path class="st4" d="M21.8,29.7v-3c0-0.4-0.1-0.6-0.3-0.8c-0.2-0.2-0.4-0.3-0.8-0.3c-0.5,0-0.8,0.1-1.1,0.4
				c-0.2,0.3-0.3,0.7-0.3,1.3v2.4h-0.7v-6.5h0.7v2c0,0.2,0,0.4,0,0.6h0c0.1-0.2,0.3-0.4,0.6-0.5c0.3-0.1,0.5-0.2,0.9-0.2
				c0.6,0,1,0.1,1.3,0.4s0.4,0.7,0.4,1.3v3H21.8z"/>
			<path class="st4" d="M25.8,29.8c-0.7,0-1.2-0.2-1.6-0.6c-0.4-0.4-0.6-1-0.6-1.7c0-0.7,0.2-1.3,0.5-1.8c0.4-0.4,0.8-0.6,1.5-0.6
				c0.6,0,1,0.2,1.4,0.6s0.5,0.9,0.5,1.5v0.4h-3.1c0,0.5,0.1,0.9,0.4,1.2c0.3,0.3,0.6,0.4,1.1,0.4c0.5,0,1-0.1,1.5-0.3v0.6
				c-0.2,0.1-0.5,0.2-0.7,0.2S26.1,29.8,25.8,29.8z M25.6,25.6c-0.4,0-0.7,0.1-0.9,0.4s-0.3,0.6-0.4,1h2.4c0-0.4-0.1-0.8-0.3-1
				C26.2,25.7,26,25.6,25.6,25.6z"/>
			<path class="st4" d="M31.8,29.7v-3c0-0.4-0.1-0.6-0.3-0.8c-0.2-0.2-0.4-0.3-0.8-0.3c-0.5,0-0.8,0.1-1,0.4
				c-0.2,0.3-0.3,0.7-0.3,1.3v2.4h-0.7v-4.6h0.6l0.1,0.6h0c0.1-0.2,0.3-0.4,0.6-0.5s0.5-0.2,0.9-0.2c0.5,0,1,0.1,1.2,0.4
				s0.4,0.7,0.4,1.3v3H31.8z"/>
			<path class="st4" d="M35.8,29.8c-0.7,0-1.2-0.2-1.6-0.6c-0.4-0.4-0.6-1-0.6-1.7c0-0.7,0.2-1.3,0.5-1.8c0.4-0.4,0.8-0.6,1.5-0.6
				c0.6,0,1,0.2,1.4,0.6s0.5,0.9,0.5,1.5v0.4h-3.1c0,0.5,0.1,0.9,0.4,1.2c0.3,0.3,0.6,0.4,1.1,0.4c0.5,0,1-0.1,1.5-0.3v0.6
				c-0.2,0.1-0.5,0.2-0.7,0.2S36.1,29.8,35.8,29.8z M35.6,25.6c-0.4,0-0.7,0.1-0.9,0.4s-0.3,0.6-0.4,1h2.4c0-0.4-0.1-0.8-0.3-1
				C36.3,25.7,36,25.6,35.6,25.6z"/>
			<path class="st4" d="M39.7,29.7l-1.7-4.6h0.7l1,2.7c0.2,0.6,0.4,1,0.4,1.2h0c0-0.1,0.1-0.5,0.3-0.9c0.2-0.5,0.5-1.5,1.1-3h0.7
				l-1.7,4.6H39.7z"/>
			<path class="st4" d="M44.9,29.8c-0.7,0-1.2-0.2-1.6-0.6c-0.4-0.4-0.6-1-0.6-1.7c0-0.7,0.2-1.3,0.5-1.8c0.4-0.4,0.8-0.6,1.5-0.6
				c0.6,0,1,0.2,1.4,0.6s0.5,0.9,0.5,1.5v0.4h-3.1c0,0.5,0.1,0.9,0.4,1.2c0.3,0.3,0.6,0.4,1.1,0.4c0.5,0,1-0.1,1.5-0.3v0.6
				c-0.2,0.1-0.5,0.2-0.7,0.2S45.2,29.8,44.9,29.8z M44.7,25.6c-0.4,0-0.7,0.1-0.9,0.4s-0.3,0.6-0.4,1h2.4c0-0.4-0.1-0.8-0.3-1
				C45.3,25.7,45,25.6,44.7,25.6z"/>
			<path class="st4" d="M49.8,25.1c0.2,0,0.4,0,0.5,0l-0.1,0.6c-0.2,0-0.4-0.1-0.5-0.1c-0.4,0-0.7,0.1-0.9,0.4
				c-0.3,0.3-0.4,0.7-0.4,1.1v2.4h-0.7v-4.6h0.6l0.1,0.8h0c0.2-0.3,0.4-0.5,0.6-0.7C49.3,25.1,49.5,25.1,49.8,25.1z"/>
			<path class="st4" d="M9.2,37h0.7l1,2.6c0.2,0.6,0.4,1,0.4,1.3h0c0-0.1,0.1-0.4,0.2-0.7c0.1-0.3,0.5-1.4,1.1-3.2h0.7l-2,5.2
				c-0.2,0.5-0.4,0.9-0.7,1.1c-0.3,0.2-0.6,0.3-1,0.3c-0.2,0-0.4,0-0.6-0.1V43c0.2,0,0.3,0,0.5,0c0.5,0,0.8-0.3,1-0.8l0.3-0.6
				L9.2,37z"/>
			<path class="st4" d="M18.2,39.3c0,0.7-0.2,1.3-0.6,1.7c-0.4,0.4-0.9,0.6-1.6,0.6c-0.4,0-0.8-0.1-1.1-0.3s-0.6-0.5-0.7-0.8
				c-0.2-0.4-0.3-0.8-0.3-1.3c0-0.7,0.2-1.3,0.6-1.7c0.4-0.4,0.9-0.6,1.5-0.6c0.6,0,1.1,0.2,1.5,0.6S18.2,38.5,18.2,39.3z
				 M14.7,39.3c0,0.6,0.1,1,0.3,1.3c0.2,0.3,0.6,0.5,1,0.5c0.5,0,0.8-0.2,1-0.5c0.2-0.3,0.4-0.7,0.4-1.3c0-0.6-0.1-1-0.4-1.3
				c-0.2-0.3-0.6-0.5-1-0.5c-0.5,0-0.8,0.1-1,0.4C14.8,38.2,14.7,38.7,14.7,39.3z"/>
			<path class="st4" d="M20,37v3c0,0.4,0.1,0.6,0.3,0.8c0.2,0.2,0.4,0.3,0.8,0.3c0.5,0,0.8-0.1,1-0.4s0.3-0.7,0.3-1.3V37h0.7v4.6
				h-0.6l-0.1-0.6h0c-0.1,0.2-0.3,0.4-0.6,0.5s-0.5,0.2-0.9,0.2c-0.6,0-1-0.1-1.2-0.4c-0.3-0.3-0.4-0.7-0.4-1.3v-3H20z"/>
			<path class="st4" d="M29.9,41.5v-3c0-0.4-0.1-0.6-0.3-0.8c-0.2-0.2-0.4-0.3-0.8-0.3c-0.5,0-0.8,0.1-1,0.4
				c-0.2,0.3-0.3,0.7-0.3,1.3v2.4h-0.7V37h0.6l0.1,0.6h0c0.1-0.2,0.3-0.4,0.6-0.5s0.5-0.2,0.9-0.2c0.5,0,1,0.1,1.2,0.4
				s0.4,0.7,0.4,1.3v3H29.9z"/>
			<path class="st4" d="M34,41.6c-0.7,0-1.2-0.2-1.6-0.6c-0.4-0.4-0.6-1-0.6-1.7c0-0.7,0.2-1.3,0.5-1.8c0.4-0.4,0.8-0.6,1.5-0.6
				c0.6,0,1,0.2,1.4,0.6s0.5,0.9,0.5,1.5v0.4h-3.1c0,0.5,0.1,0.9,0.4,1.2c0.3,0.3,0.6,0.4,1.1,0.4c0.5,0,1-0.1,1.5-0.3v0.6
				c-0.2,0.1-0.5,0.2-0.7,0.2S34.3,41.6,34,41.6z M33.8,37.5c-0.4,0-0.7,0.1-0.9,0.4s-0.3,0.6-0.4,1h2.4c0-0.4-0.1-0.8-0.3-1
				C34.4,37.6,34.2,37.5,33.8,37.5z"/>
			<path class="st4" d="M38.8,41.6c-0.7,0-1.2-0.2-1.6-0.6c-0.4-0.4-0.6-1-0.6-1.7c0-0.7,0.2-1.3,0.5-1.8c0.4-0.4,0.8-0.6,1.5-0.6
				c0.6,0,1,0.2,1.4,0.6s0.5,0.9,0.5,1.5v0.4h-3.1c0,0.5,0.1,0.9,0.4,1.2c0.3,0.3,0.6,0.4,1.1,0.4c0.5,0,1-0.1,1.5-0.3v0.6
				c-0.2,0.1-0.5,0.2-0.7,0.2S39.1,41.6,38.8,41.6z M38.6,37.5c-0.4,0-0.7,0.1-0.9,0.4s-0.3,0.6-0.4,1h2.4c0-0.4-0.1-0.8-0.3-1
				C39.2,37.6,38.9,37.5,38.6,37.5z"/>
			<path class="st4" d="M44.7,40.9L44.7,40.9c-0.4,0.5-0.8,0.7-1.5,0.7c-0.6,0-1.1-0.2-1.4-0.6c-0.3-0.4-0.5-1-0.5-1.7
				c0-0.8,0.2-1.3,0.5-1.8c0.3-0.4,0.8-0.6,1.4-0.6c0.6,0,1.1,0.2,1.4,0.7h0.1l0-0.3l0-0.3v-1.9h0.7v6.5h-0.6L44.7,40.9z M43.3,41
				c0.5,0,0.8-0.1,1-0.4c0.2-0.3,0.3-0.7,0.3-1.2v-0.1c0-0.6-0.1-1.1-0.3-1.4c-0.2-0.3-0.6-0.4-1-0.4c-0.4,0-0.7,0.2-0.9,0.5
				c-0.2,0.3-0.3,0.8-0.3,1.3c0,0.6,0.1,1,0.3,1.3S42.9,41,43.3,41z"/>
			<path class="st4" d="M49,35.7c0-0.2,0-0.3,0.1-0.3s0.2-0.1,0.3-0.1c0.1,0,0.2,0,0.3,0.1c0.1,0.1,0.1,0.2,0.1,0.3s0,0.3-0.1,0.3
				c-0.1,0.1-0.2,0.1-0.3,0.1c-0.1,0-0.2,0-0.3-0.1C49,36,49,35.9,49,35.7z M49.8,41.5h-0.7V37h0.7V41.5z"/>
			<path class="st4" d="M52.7,41.1c0.1,0,0.2,0,0.4,0c0.1,0,0.2,0,0.3-0.1v0.5c-0.1,0-0.2,0.1-0.3,0.1s-0.3,0-0.4,0
				c-0.9,0-1.3-0.5-1.3-1.4v-2.7h-0.7v-0.3l0.7-0.3l0.3-1H52V37h1.3v0.5H52v2.7c0,0.3,0.1,0.5,0.2,0.6C52.3,41,52.5,41.1,52.7,41.1z
				"/>
		</g>
	</g>
</g>
<g id="c1">
	<g id="Layer_83_xA0_Image_1_">
	</g>
	<g id="Put_data__to_work__wherever__you_need_it_1_">
		<g id="Put_data__to_work__wherever__you_need_it">
			<path class="st4" d="M18.4,25.7c0,0.6-0.2,1.1-0.6,1.4c-0.4,0.3-1,0.5-1.8,0.5h-0.7V30h-0.7v-6.1h1.6
				C17.6,23.9,18.4,24.5,18.4,25.7z M15.2,27h0.6c0.6,0,1.1-0.1,1.4-0.3s0.4-0.5,0.4-1c0-0.4-0.1-0.7-0.4-0.9
				c-0.3-0.2-0.7-0.3-1.2-0.3h-0.8V27z"/>
			<path class="st4" d="M20.2,25.4v3c0,0.4,0.1,0.6,0.3,0.8c0.2,0.2,0.4,0.3,0.8,0.3c0.5,0,0.8-0.1,1-0.4s0.3-0.7,0.3-1.3v-2.4h0.7
				V30h-0.6l-0.1-0.6h0c-0.1,0.2-0.3,0.4-0.6,0.5s-0.5,0.2-0.9,0.2c-0.6,0-1-0.1-1.2-0.4c-0.3-0.3-0.4-0.7-0.4-1.3v-3H20.2z"/>
			<path class="st4" d="M26.3,29.5c0.1,0,0.2,0,0.4,0s0.2,0,0.3-0.1v0.5c-0.1,0-0.2,0.1-0.3,0.1s-0.3,0-0.4,0
				c-0.9,0-1.3-0.5-1.3-1.4v-2.7h-0.7v-0.3l0.7-0.3l0.3-1h0.4v1.1h1.3v0.5h-1.3v2.7c0,0.3,0.1,0.5,0.2,0.6
				C25.9,29.4,26,29.5,26.3,29.5z"/>
			<path class="st4" d="M33.1,29.4L33.1,29.4c-0.4,0.5-0.8,0.7-1.5,0.7c-0.6,0-1.1-0.2-1.4-0.6c-0.3-0.4-0.5-1-0.5-1.7
				c0-0.8,0.2-1.3,0.5-1.8c0.3-0.4,0.8-0.6,1.4-0.6c0.6,0,1.1,0.2,1.4,0.7h0.1l0-0.3l0-0.3v-1.9h0.7V30h-0.6L33.1,29.4z M31.7,29.5
				c0.5,0,0.8-0.1,1-0.4c0.2-0.3,0.3-0.7,0.3-1.2v-0.1c0-0.6-0.1-1.1-0.3-1.4c-0.2-0.3-0.6-0.4-1-0.4c-0.4,0-0.7,0.2-0.9,0.5
				c-0.2,0.3-0.3,0.8-0.3,1.3c0,0.6,0.1,1,0.3,1.3C31,29.3,31.3,29.5,31.7,29.5z"/>
			<path class="st4" d="M38.1,30l-0.1-0.6h0c-0.2,0.3-0.5,0.5-0.7,0.6c-0.2,0.1-0.5,0.2-0.8,0.2c-0.5,0-0.8-0.1-1.1-0.4
				c-0.3-0.2-0.4-0.6-0.4-1c0-0.9,0.7-1.4,2.2-1.4l0.8,0V27c0-0.4-0.1-0.6-0.2-0.8c-0.2-0.2-0.4-0.3-0.7-0.3c-0.4,0-0.8,0.1-1.3,0.3
				l-0.2-0.5c0.2-0.1,0.5-0.2,0.7-0.3s0.5-0.1,0.8-0.1c0.5,0,0.9,0.1,1.2,0.4c0.3,0.2,0.4,0.6,0.4,1.2V30H38.1z M36.5,29.5
				c0.4,0,0.8-0.1,1-0.4c0.2-0.2,0.4-0.6,0.4-1v-0.4l-0.7,0c-0.5,0-0.9,0.1-1.2,0.3c-0.2,0.2-0.4,0.4-0.4,0.7c0,0.2,0.1,0.4,0.2,0.6
				S36.2,29.5,36.5,29.5z"/>
			<path class="st4" d="M41.5,29.5c0.1,0,0.2,0,0.4,0c0.1,0,0.2,0,0.3-0.1v0.5C42,30,41.9,30,41.8,30s-0.3,0-0.4,0
				c-0.9,0-1.3-0.5-1.3-1.4v-2.7h-0.7v-0.3l0.7-0.3l0.3-1h0.4v1.1h1.3v0.5h-1.3v2.7c0,0.3,0.1,0.5,0.2,0.6
				C41.1,29.4,41.2,29.5,41.5,29.5z"/>
			<path class="st4" d="M45.8,30l-0.1-0.6h0c-0.2,0.3-0.5,0.5-0.7,0.6c-0.2,0.1-0.5,0.2-0.8,0.2c-0.5,0-0.8-0.1-1.1-0.4
				c-0.3-0.2-0.4-0.6-0.4-1c0-0.9,0.7-1.4,2.2-1.4l0.8,0V27c0-0.4-0.1-0.6-0.2-0.8c-0.2-0.2-0.4-0.3-0.7-0.3c-0.4,0-0.8,0.1-1.3,0.3
				l-0.2-0.5c0.2-0.1,0.5-0.2,0.7-0.3s0.5-0.1,0.8-0.1c0.5,0,0.9,0.1,1.2,0.4c0.3,0.2,0.4,0.6,0.4,1.2V30H45.8z M44.2,29.5
				c0.4,0,0.8-0.1,1-0.4c0.2-0.2,0.4-0.6,0.4-1v-0.4l-0.7,0c-0.5,0-0.9,0.1-1.2,0.3c-0.2,0.2-0.4,0.4-0.4,0.7c0,0.2,0.1,0.4,0.2,0.6
				S44,29.5,44.2,29.5z"/>
			<path class="st4" d="M17.5,41.3c0.1,0,0.2,0,0.4,0s0.2,0,0.3-0.1v0.5c-0.1,0-0.2,0.1-0.3,0.1s-0.3,0-0.4,0
				c-0.9,0-1.3-0.5-1.3-1.4v-2.7h-0.7v-0.3l0.7-0.3l0.3-1h0.4v1.1h1.3v0.5h-1.3v2.7c0,0.3,0.1,0.5,0.2,0.6
				C17.1,41.3,17.3,41.3,17.5,41.3z"/>
			<path class="st4" d="M23,39.5c0,0.7-0.2,1.3-0.6,1.7c-0.4,0.4-0.9,0.6-1.6,0.6c-0.4,0-0.8-0.1-1.1-0.3s-0.6-0.5-0.7-0.8
				c-0.2-0.4-0.3-0.8-0.3-1.3c0-0.7,0.2-1.3,0.6-1.7c0.4-0.4,0.9-0.6,1.5-0.6c0.6,0,1.1,0.2,1.5,0.6S23,38.8,23,39.5z M19.5,39.5
				c0,0.6,0.1,1,0.3,1.3c0.2,0.3,0.6,0.5,1,0.5c0.5,0,0.8-0.2,1-0.5c0.2-0.3,0.4-0.7,0.4-1.3c0-0.6-0.1-1-0.4-1.3
				c-0.2-0.3-0.6-0.5-1-0.5c-0.5,0-0.8,0.1-1,0.4C19.6,38.5,19.5,38.9,19.5,39.5z"/>
			<path class="st4" d="M30.1,41.8l-0.8-2.7C29.2,39,29.1,38.6,29,38h0c-0.1,0.5-0.2,0.9-0.3,1.1l-0.9,2.7H27l-1.2-4.6h0.7
				c0.3,1.1,0.5,2,0.7,2.6c0.2,0.6,0.2,1,0.3,1.2h0c0-0.2,0.1-0.4,0.1-0.6c0.1-0.3,0.1-0.5,0.2-0.6l0.8-2.6h0.7l0.8,2.6
				c0.2,0.5,0.3,0.9,0.3,1.2h0c0-0.1,0-0.3,0.1-0.5s0.3-1.3,0.9-3.4h0.7L31,41.8H30.1z"/>
			<path class="st4" d="M37,39.5c0,0.7-0.2,1.3-0.6,1.7c-0.4,0.4-0.9,0.6-1.6,0.6c-0.4,0-0.8-0.1-1.1-0.3s-0.6-0.5-0.7-0.8
				c-0.2-0.4-0.3-0.8-0.3-1.3c0-0.7,0.2-1.3,0.6-1.7c0.4-0.4,0.9-0.6,1.5-0.6c0.6,0,1.1,0.2,1.5,0.6C36.8,38.2,37,38.8,37,39.5z
				 M33.5,39.5c0,0.6,0.1,1,0.3,1.3c0.2,0.3,0.6,0.5,1,0.5c0.5,0,0.8-0.2,1-0.5c0.2-0.3,0.4-0.7,0.4-1.3c0-0.6-0.1-1-0.4-1.3
				s-0.6-0.5-1-0.5c-0.5,0-0.8,0.1-1,0.4S33.5,38.9,33.5,39.5z"/>
			<path class="st4" d="M40.3,37.2c0.2,0,0.4,0,0.5,0l-0.1,0.6c-0.2,0-0.4-0.1-0.5-0.1c-0.4,0-0.7,0.1-0.9,0.4
				c-0.3,0.3-0.4,0.7-0.4,1.1v2.4h-0.7v-4.6h0.6l0.1,0.8h0c0.2-0.3,0.4-0.5,0.6-0.7C39.7,37.3,40,37.2,40.3,37.2z"/>
			<path class="st4" d="M42.4,39.5c0.1-0.2,0.3-0.4,0.5-0.7l1.5-1.6h0.8l-1.8,1.9l2,2.6h-0.8l-1.6-2.2l-0.5,0.4v1.7h-0.7v-6.5h0.7
				v3.4C42.4,38.9,42.3,39.2,42.4,39.5L42.4,39.5z"/>
			<path class="st4" d="M16.1,53.7L15.3,51c-0.1-0.2-0.2-0.5-0.3-1.1h0c-0.1,0.5-0.2,0.9-0.3,1.1l-0.9,2.7H13l-1.2-4.6h0.7
				c0.3,1.1,0.5,2,0.7,2.6c0.2,0.6,0.2,1,0.3,1.2h0c0-0.2,0.1-0.4,0.1-0.6c0.1-0.3,0.1-0.5,0.2-0.6l0.8-2.6h0.7l0.8,2.6
				c0.2,0.5,0.3,0.9,0.3,1.2h0c0-0.1,0-0.3,0.1-0.5c0-0.2,0.3-1.3,0.9-3.4h0.7l-1.3,4.6H16.1z"/>
			<path class="st4" d="M22.1,53.7v-3c0-0.4-0.1-0.6-0.3-0.8c-0.2-0.2-0.4-0.3-0.8-0.3c-0.5,0-0.8,0.1-1.1,0.4
				c-0.2,0.3-0.3,0.7-0.3,1.3v2.4H19v-6.5h0.7v2c0,0.2,0,0.4,0,0.6h0c0.1-0.2,0.3-0.4,0.6-0.5c0.3-0.1,0.5-0.2,0.9-0.2
				c0.6,0,1,0.1,1.3,0.4s0.4,0.7,0.4,1.3v3H22.1z"/>
			<path class="st4" d="M26.2,53.7c-0.7,0-1.2-0.2-1.6-0.6c-0.4-0.4-0.6-1-0.6-1.7c0-0.7,0.2-1.3,0.5-1.8c0.4-0.4,0.8-0.6,1.5-0.6
				c0.6,0,1,0.2,1.4,0.6s0.5,0.9,0.5,1.5v0.4h-3.1c0,0.5,0.1,0.9,0.4,1.2c0.3,0.3,0.6,0.4,1.1,0.4c0.5,0,1-0.1,1.5-0.3v0.6
				c-0.2,0.1-0.5,0.2-0.7,0.2S26.5,53.7,26.2,53.7z M26,49.6c-0.4,0-0.7,0.1-0.9,0.4s-0.3,0.6-0.4,1h2.4c0-0.4-0.1-0.8-0.3-1
				C26.6,49.7,26.3,49.6,26,49.6z"/>
			<path class="st4" d="M31.1,49c0.2,0,0.4,0,0.5,0l-0.1,0.6c-0.2,0-0.4-0.1-0.5-0.1c-0.4,0-0.7,0.1-0.9,0.4
				c-0.3,0.3-0.4,0.7-0.4,1.1v2.4H29v-4.6h0.6l0.1,0.8h0c0.2-0.3,0.4-0.5,0.6-0.7C30.5,49.1,30.8,49,31.1,49z"/>
			<path class="st4" d="M34.4,53.7c-0.7,0-1.2-0.2-1.6-0.6c-0.4-0.4-0.6-1-0.6-1.7c0-0.7,0.2-1.3,0.5-1.8c0.4-0.4,0.8-0.6,1.5-0.6
				c0.6,0,1,0.2,1.4,0.6s0.5,0.9,0.5,1.5v0.4H33c0,0.5,0.1,0.9,0.4,1.2c0.3,0.3,0.6,0.4,1.1,0.4c0.5,0,1-0.1,1.5-0.3v0.6
				c-0.2,0.1-0.5,0.2-0.7,0.2S34.7,53.7,34.4,53.7z M34.2,49.6c-0.4,0-0.7,0.1-0.9,0.4s-0.3,0.6-0.4,1h2.4c0-0.4-0.1-0.8-0.3-1
				C34.9,49.7,34.6,49.6,34.2,49.6z"/>
			<path class="st4" d="M38.3,53.7l-1.7-4.6h0.7l1,2.7c0.2,0.6,0.4,1,0.4,1.2h0c0-0.1,0.1-0.5,0.3-0.9c0.2-0.5,0.5-1.5,1.1-3h0.7
				l-1.7,4.6H38.3z"/>
			<path class="st4" d="M43.5,53.7c-0.7,0-1.2-0.2-1.6-0.6c-0.4-0.4-0.6-1-0.6-1.7c0-0.7,0.2-1.3,0.5-1.8c0.4-0.4,0.8-0.6,1.5-0.6
				c0.6,0,1,0.2,1.4,0.6s0.5,0.9,0.5,1.5v0.4H42c0,0.5,0.1,0.9,0.4,1.2c0.3,0.3,0.6,0.4,1.1,0.4c0.5,0,1-0.1,1.5-0.3v0.6
				c-0.2,0.1-0.5,0.2-0.7,0.2S43.8,53.7,43.5,53.7z M43.3,49.6c-0.4,0-0.7,0.1-0.9,0.4s-0.3,0.6-0.4,1h2.4c0-0.4-0.1-0.8-0.3-1
				C43.9,49.7,43.6,49.6,43.3,49.6z"/>
			<path class="st4" d="M48.4,49c0.2,0,0.4,0,0.5,0l-0.1,0.6c-0.2,0-0.4-0.1-0.5-0.1c-0.4,0-0.7,0.1-0.9,0.4
				c-0.3,0.3-0.4,0.7-0.4,1.1v2.4h-0.7v-4.6h0.6l0.1,0.8h0c0.2-0.3,0.4-0.5,0.6-0.7C47.9,49.1,48.1,49,48.4,49z"/>
			<path class="st4" d="M9.3,60.9h0.7l1,2.6c0.2,0.6,0.4,1,0.4,1.3h0c0-0.1,0.1-0.4,0.2-0.7c0.1-0.3,0.5-1.4,1.1-3.2h0.7l-2,5.2
				c-0.2,0.5-0.4,0.9-0.7,1.1c-0.3,0.2-0.6,0.3-1,0.3c-0.2,0-0.4,0-0.6-0.1v-0.6c0.2,0,0.3,0,0.5,0c0.5,0,0.8-0.3,1-0.8l0.3-0.6
				L9.3,60.9z"/>
			<path class="st4" d="M18.3,63.2c0,0.7-0.2,1.3-0.6,1.7c-0.4,0.4-0.9,0.6-1.6,0.6c-0.4,0-0.8-0.1-1.1-0.3s-0.6-0.5-0.7-0.8
				c-0.2-0.4-0.3-0.8-0.3-1.3c0-0.7,0.2-1.3,0.6-1.7c0.4-0.4,0.9-0.6,1.5-0.6c0.6,0,1.1,0.2,1.5,0.6S18.3,62.5,18.3,63.2z
				 M14.8,63.2c0,0.6,0.1,1,0.3,1.3c0.2,0.3,0.6,0.5,1,0.5c0.5,0,0.8-0.2,1-0.5c0.2-0.3,0.4-0.7,0.4-1.3c0-0.6-0.1-1-0.4-1.3
				c-0.2-0.3-0.6-0.5-1-0.5c-0.5,0-0.8,0.1-1,0.4C14.9,62.2,14.8,62.6,14.8,63.2z"/>
			<path class="st4" d="M20.1,60.9v3c0,0.4,0.1,0.6,0.3,0.8c0.2,0.2,0.4,0.3,0.8,0.3c0.5,0,0.8-0.1,1-0.4s0.3-0.7,0.3-1.3v-2.4h0.7
				v4.6h-0.6l-0.1-0.6h0c-0.1,0.2-0.3,0.4-0.6,0.5s-0.5,0.2-0.9,0.2c-0.6,0-1-0.1-1.2-0.4c-0.3-0.3-0.4-0.7-0.4-1.3v-3H20.1z"/>
			<path class="st4" d="M30.1,65.5v-3c0-0.4-0.1-0.6-0.3-0.8c-0.2-0.2-0.4-0.3-0.8-0.3c-0.5,0-0.8,0.1-1,0.4
				c-0.2,0.3-0.3,0.7-0.3,1.3v2.4h-0.7v-4.6h0.6l0.1,0.6h0c0.1-0.2,0.3-0.4,0.6-0.5s0.5-0.2,0.9-0.2c0.5,0,1,0.1,1.2,0.4
				s0.4,0.7,0.4,1.3v3H30.1z"/>
			<path class="st4" d="M34.1,65.6c-0.7,0-1.2-0.2-1.6-0.6c-0.4-0.4-0.6-1-0.6-1.7c0-0.7,0.2-1.3,0.5-1.8c0.4-0.4,0.8-0.6,1.5-0.6
				c0.6,0,1,0.2,1.4,0.6s0.5,0.9,0.5,1.5v0.4h-3.1c0,0.5,0.1,0.9,0.4,1.2c0.3,0.3,0.6,0.4,1.1,0.4c0.5,0,1-0.1,1.5-0.3v0.6
				c-0.2,0.1-0.5,0.2-0.7,0.2S34.4,65.6,34.1,65.6z M33.9,61.4c-0.4,0-0.7,0.1-0.9,0.4s-0.3,0.6-0.4,1H35c0-0.4-0.1-0.8-0.3-1
				C34.6,61.6,34.3,61.4,33.9,61.4z"/>
			<path class="st4" d="M38.9,65.6c-0.7,0-1.2-0.2-1.6-0.6c-0.4-0.4-0.6-1-0.6-1.7c0-0.7,0.2-1.3,0.5-1.8c0.4-0.4,0.8-0.6,1.5-0.6
				c0.6,0,1,0.2,1.4,0.6s0.5,0.9,0.5,1.5v0.4h-3.1c0,0.5,0.1,0.9,0.4,1.2c0.3,0.3,0.6,0.4,1.1,0.4c0.5,0,1-0.1,1.5-0.3v0.6
				c-0.2,0.1-0.5,0.2-0.7,0.2S39.2,65.6,38.9,65.6z M38.7,61.4c-0.4,0-0.7,0.1-0.9,0.4s-0.3,0.6-0.4,1h2.4c0-0.4-0.1-0.8-0.3-1
				C39.3,61.6,39.1,61.4,38.7,61.4z"/>
			<path class="st4" d="M44.8,64.9L44.8,64.9c-0.4,0.5-0.8,0.7-1.5,0.7c-0.6,0-1.1-0.2-1.4-0.6c-0.3-0.4-0.5-1-0.5-1.7
				c0-0.8,0.2-1.3,0.5-1.8c0.3-0.4,0.8-0.6,1.4-0.6c0.6,0,1.1,0.2,1.4,0.7h0.1l0-0.3l0-0.3V59h0.7v6.5h-0.6L44.8,64.9z M43.5,65
				c0.5,0,0.8-0.1,1-0.4c0.2-0.3,0.3-0.7,0.3-1.2v-0.1c0-0.6-0.1-1.1-0.3-1.4c-0.2-0.3-0.6-0.4-1-0.4c-0.4,0-0.7,0.2-0.9,0.5
				c-0.2,0.3-0.3,0.8-0.3,1.3c0,0.6,0.1,1,0.3,1.3S43,65,43.5,65z"/>
			<path class="st4" d="M49.1,59.7c0-0.2,0-0.3,0.1-0.3s0.2-0.1,0.3-0.1c0.1,0,0.2,0,0.3,0.1c0.1,0.1,0.1,0.2,0.1,0.3s0,0.3-0.1,0.3
				c-0.1,0.1-0.2,0.1-0.3,0.1c-0.1,0-0.2,0-0.3-0.1C49.2,60,49.1,59.9,49.1,59.7z M49.9,65.5h-0.7v-4.6h0.7V65.5z"/>
			<path class="st4" d="M52.8,65c0.1,0,0.2,0,0.4,0c0.1,0,0.2,0,0.3-0.1v0.5c-0.1,0-0.2,0.1-0.3,0.1s-0.3,0-0.4,0
				c-0.9,0-1.3-0.5-1.3-1.4v-2.7h-0.7v-0.3l0.7-0.3l0.3-1h0.4v1.1h1.3v0.5h-1.3v2.7c0,0.3,0.1,0.5,0.2,0.6
				C52.4,64.9,52.6,65,52.8,65z"/>
		</g>
	</g>
</g>
</svg>
