<?xml version="1.0" encoding="utf-8"?>
<!-- Generator: Adobe Illustrator 25.2.1, SVG Export Plug-In . SVG Version: 6.00 Build 0)  -->
<svg version="1.1" id="Layer_1" xmlns="http://www.w3.org/2000/svg" xmlns:xlink="http://www.w3.org/1999/xlink" x="0px" y="0px"
	 viewBox="0 0 160 600" style="enable-background:new 0 0 160 600;" xml:space="preserve">
<style type="text/css">
	.st0{clip-path:url(#SVGID_2_);}
	.st1{opacity:0.95;fill:url(#bg-light_1_);enable-background:new    ;}
	.st2{fill:url(#Elipse_70_1_);}
	.st3{fill:#FFFFFF;}
	.st4{clip-path:url(#SVGID_4_);}
	.st5{clip-path:url(#SVGID_6_);}
	.st6{opacity:0.29;fill:url(#cta-glow_1_);enable-background:new    ;}
	.st7{fill:none;stroke:#FFFFFF;stroke-width:0.81;stroke-miterlimit:10;}
	.st8{fill:#030504;}
	.st9{fill:#E4001B;}
</style>
<g id="_160x600">
	<g>
		<defs>
			<rect id="SVGID_1_" width="160" height="600"/>
		</defs>
		<clipPath id="SVGID_2_">
			<use xlink:href="#SVGID_1_"  style="overflow:visible;"/>
		</clipPath>
		<g class="st0">
			<g id="BG">
				
					<image style="overflow:visible;enable-background:new    ;" width="901" height="803" id="GettyImages-561860327" xlink:href="awareness1-300x2501.jpg"  transform="matrix(0.8477 0 0 0.8477 -286.8505 -37.2719)">
				</image>
				
					<radialGradient id="bg-light_1_" cx="244.3659" cy="1107.5803" r="0.41" gradientTransform="matrix(542.92 0 0 563.83 -132594.5938 -624181.125)" gradientUnits="userSpaceOnUse">
					<stop  offset="0" style="stop-color:#FFFFFF"/>
					<stop  offset="0.26" style="stop-color:#FFFFFF;stop-opacity:0.68"/>
					<stop  offset="0.53" style="stop-color:#FFFFFF;stop-opacity:0.39"/>
					<stop  offset="0.75" style="stop-color:#FFFFFF;stop-opacity:0.18"/>
					<stop  offset="0.91" style="stop-color:#FFFFFF;stop-opacity:5.000000e-02"/>
					<stop  offset="1" style="stop-color:#FFFFFF;stop-opacity:0"/>
				</radialGradient>
				<ellipse id="bg-light" class="st1" cx="91.6" cy="319.1" rx="246.3" ry="255.8"/>
				
					<image style="overflow:visible;enable-background:new    ;" width="600" height="491" id="keyshadow" xlink:href="awareness11.png"  transform="matrix(0.3219 0 0 0.3401 -16.6809 352.689)">
				</image>
				
					<radialGradient id="Elipse_70_1_" cx="190.9076" cy="1166.7882" r="0.27" gradientTransform="matrix(129.6595 -12.4568 113.2887 11.6695 -156857.8125 -10825.2852)" gradientUnits="userSpaceOnUse">
					<stop  offset="0" style="stop-color:#000000"/>
					<stop  offset="0.63" style="stop-color:#040404;stop-opacity:0.97"/>
					<stop  offset="1" style="stop-color:#808080;stop-opacity:0"/>
				</radialGradient>
				<path id="Elipse_70" class="st2" d="M26.1,413.7c0.1-3,24.5-5,54.5-4.4s54.4,3.3,54.3,6.3c-0.1,3-24.5,5-54.5,4.4
					S26,416.6,26.1,413.7z"/>
				
					<image style="overflow:visible;enable-background:new    ;" width="500" height="345" id="PT200827_004C1-removebg" xlink:href="awareness1-300x2503.png"  transform="matrix(1.763491e-17 -0.288 0.288 1.763491e-17 29.48 420.9)">
				</image>
				
					<image style="overflow:visible;enable-background:new    ;" width="1721" height="1721" id="shine1" xlink:href="awareness12.png"  transform="matrix(3.000000e-02 0 0 3.000000e-02 17.26 262.79)">
				</image>
			</g>
			<g id="f2">
				<g>
					<path class="st3" d="M28.8,112.2h2.1l4.5,10.6H33l-1-2.4h-4.4l-1,2.4h-2.3L28.8,112.2z M31.2,118.4l-1.4-3.4l-1.4,3.4H31.2z"/>
					<path class="st3" d="M36.8,114.8h2.3v1.1c0.5-0.8,1.4-1.3,2.3-1.3c1.7,0,2.7,1.1,2.7,3v5.2h-2.3v-4.5c0-1.1-0.5-1.6-1.4-1.6
						s-1.4,0.6-1.4,1.6v4.5h-2.3V114.8z"/>
					<path class="st3" d="M45.8,118.8L45.8,118.8c0-2.7,1.8-4.2,3.7-4.2c1,0,1.9,0.4,2.5,1.2v-4h2.3v11H52v-1.2
						c-0.6,0.8-1.5,1.3-2.5,1.3C47.6,123,45.8,121.5,45.8,118.8z M52,118.8L52,118.8c0.2-1.1-0.5-2.1-1.6-2.4
						c-1.1-0.2-2.1,0.5-2.4,1.6c-0.1,0.3-0.1,0.5,0,0.8l0,0c-0.2,1.1,0.5,2.1,1.6,2.4c1.1,0.2,2.1-0.5,2.4-1.6
						C52.1,119.4,52.1,119.1,52,118.8z"/>
					<path class="st3" d="M61,112.3h2.3v4.6l4.3-4.6h2.8l-4.3,4.4l4.5,6h-2.7l-3.3-4.5l-1.2,1.3v3.2H61V112.3z"/>
					<path class="st3" d="M70.9,118.8L70.9,118.8c-0.1-2.2,1.6-4.1,3.8-4.2c0.1,0,0.1,0,0.2,0c2.7,0,3.9,2.1,3.9,4.4
						c0,0.2,0,0.4,0,0.6h-5.6c0.1,1,1,1.7,2,1.6c0.8,0,1.5-0.3,2-0.8l1.3,1.2c-1.5,1.8-4.2,2-6,0.5c-0.9-0.8-1.5-1.9-1.5-3.2
						L70.9,118.8z M76.6,118.2c0-0.9-0.8-1.7-1.7-1.7c-0.9,0-1.7,0.8-1.7,1.7H76.6z"/>
					<path class="st3" d="M80.1,118.8L80.1,118.8c-0.1-2.2,1.6-4.1,3.8-4.2c0.1,0,0.1,0,0.2,0c2.7,0,3.9,2.1,3.9,4.4
						c0,0.2,0,0.4,0,0.6h-5.6c0.1,1,1,1.7,2,1.6c0.8,0,1.5-0.3,2-0.8l1.3,1.2c-1.5,1.8-4.2,2-6,0.5
						C80.8,121.2,80.2,120.1,80.1,118.8L80.1,118.8z M85.8,118.2c0-0.9-0.8-1.7-1.7-1.7c-0.9,0-1.7,0.8-1.7,1.7H85.8z"/>
					<path class="st3" d="M89.7,114.8H92v1.2c0.6-0.8,1.5-1.3,2.5-1.3c1.9,0,3.7,1.5,3.7,4.2l0,0c0,2.7-1.8,4.2-3.7,4.2
						c-1,0-1.9-0.4-2.5-1.2v3.4h-2.3V114.8z M95.8,118.8L95.8,118.8c0.2-1.1-0.5-2.1-1.5-2.4c-1.1-0.2-2.1,0.5-2.4,1.5
						c-0.1,0.3-0.1,0.6,0,0.8l0,0c-0.2,1.1,0.5,2.1,1.5,2.4c1.1,0.2,2.1-0.5,2.4-1.5C95.9,119.4,95.9,119.1,95.8,118.8z"/>
				</g>
				<g>
					<path class="st3" d="M24.7,134.3L24.7,134.3c-0.1-2.9,2.3-5.4,5.2-5.4c0.1,0,0.2,0,0.2,0c1.5-0.1,3.1,0.5,4.1,1.6l-1.5,1.7
						c-0.7-0.7-1.7-1.2-2.7-1.2c-1.7,0.1-3.1,1.5-3,3.2c0,0,0,0,0,0.1l0,0c-0.1,1.7,1.2,3.2,2.9,3.3c0,0,0.1,0,0.1,0
						c1.1,0,2.1-0.4,2.8-1.2l1.5,1.5c-1.1,1.2-2.7,1.9-4.3,1.9c-2.9,0.1-5.4-2.2-5.4-5.2C24.7,134.4,24.7,134.3,24.7,134.3z"/>
					<path class="st3" d="M35.5,135.5L35.5,135.5c0-2.4,1.9-4.4,4.3-4.4c2.4,0,4.4,1.9,4.4,4.4l0,0c0,2.3-1.9,4.2-4.3,4.2
						c0,0-0.1,0-0.1,0c-2.3,0.1-4.2-1.7-4.3-4C35.5,135.6,35.5,135.6,35.5,135.5z M42,135.5L42,135.5c0-1.2-0.9-2.2-2.1-2.2
						c0,0,0,0-0.1,0c-1.1,0-2.1,0.9-2.1,2c0,0.1,0,0.1,0,0.2l0,0c0,1.2,0.9,2.2,2.1,2.2c0,0,0,0,0.1,0c1.1,0,2.1-0.8,2.1-2
						C42,135.7,42,135.6,42,135.5L42,135.5z"/>
					<path class="st3" d="M45.8,131.4h2.3v1.1c0.5-0.8,1.4-1.3,2.3-1.3c1.7,0,2.7,1.1,2.7,3v5.2h-2.3V135c0-1.1-0.5-1.6-1.4-1.6
						s-1.4,0.6-1.4,1.6v4.5h-2.3V131.4z"/>
					<path class="st3" d="M55.6,137.2v-3.8h-1v-1.9h1v-2.1h2.3v2.1h1.9v1.9h-1.9v3.4c0,0.5,0.2,0.8,0.7,0.8c0.4,0,0.8-0.1,1.1-0.3
						v1.8c-0.5,0.3-1.2,0.5-1.8,0.5C56.5,139.6,55.6,139.1,55.6,137.2z"/>
					<path class="st3" d="M61.4,131.4h2.3v1.6c0.3-1.1,1.4-1.9,2.6-1.8v2.4h-0.1c-1.5,0-2.4,0.9-2.4,2.8v3h-2.3V131.4z"/>
					<path class="st3" d="M67.1,135.5L67.1,135.5c0-2.3,1.9-4.2,4.3-4.2c0,0,0.1,0,0.1,0c2.3-0.1,4.2,1.7,4.3,4c0,0,0,0.1,0,0.1l0,0
						c0,2.4-2,4.3-4.4,4.3C69,139.8,67.1,137.9,67.1,135.5L67.1,135.5z M73.5,135.5L73.5,135.5c0-1.2-0.9-2.2-2-2.2c0,0,0,0-0.1,0
						c-1.1,0-2.1,0.9-2.1,2c0,0.1,0,0.1,0,0.2l0,0c0,1.2,0.9,2.2,2.1,2.2c0,0,0,0,0.1,0c1.1,0,2.1-0.9,2.1-2
						C73.5,135.6,73.5,135.6,73.5,135.5z"/>
					<path class="st3" d="M77.5,128.5h2.3v10.9h-2.3V128.5z"/>
					<path class="st3" d="M86.2,134.3L86.2,134.3c0-3.1,2.5-5.6,5.6-5.6c3.1,0,5.6,2.5,5.6,5.6l0,0c0,3-2.4,5.4-5.4,5.4
						c-0.1,0-0.1,0-0.2,0c-3,0.1-5.5-2.2-5.6-5.2C86.2,134.4,86.2,134.3,86.2,134.3z M95,134.3L95,134.3c0.1-1.8-1.3-3.2-3.1-3.3
						c0,0-0.1,0-0.1,0c-1.7,0-3.1,1.4-3.2,3.1c0,0,0,0.1,0,0.1l0,0c-0.1,1.8,1.3,3.2,3.1,3.3c0,0,0.1,0,0.1,0c1.7,0,3.2-1.4,3.2-3.1
						C95,134.4,95,134.3,95,134.3L95,134.3z"/>
					<path class="st3" d="M99.6,133.4h-0.9v-1.9h0.9V131c-0.1-0.7,0.2-1.4,0.7-1.9c0.5-0.5,1.2-0.7,1.8-0.6c0.5,0,1.1,0.1,1.6,0.2
						v1.9c-0.3-0.1-0.7-0.2-1-0.2c-0.5,0-0.8,0.3-0.8,0.9v0.3h1.8v1.9h-1.8v6.1h-2.3V133.4z"/>
				</g>
				<g>
					<path class="st3" d="M28.2,152l-4-6.4h2.7l2.5,4.2l2.5-4.2h2.6l-4,6.3v4.2h-2.4V152z"/>
					<path class="st3" d="M33.7,152.2L33.7,152.2c0-2.4,1.9-4.4,4.3-4.4c2.4,0,4.4,1.9,4.4,4.4l0,0c0,2.3-2,4.2-4.3,4.2
						c0,0-0.1,0-0.1,0c-2.3,0.1-4.2-1.7-4.3-4C33.7,152.3,33.7,152.2,33.7,152.2z M40.1,152.2L40.1,152.2c0.1-1.2-0.8-2.2-2-2.2
						c0,0-0.1,0-0.1,0c-1.1,0-2.1,0.9-2.1,2c0,0.1,0,0.1,0,0.2l0,0c-0.1,1.2,0.8,2.2,2,2.2c0,0,0,0,0.1,0c1.1,0,2.1-0.9,2.1-2
						C40.1,152.3,40.1,152.2,40.1,152.2z"/>
					<path class="st3" d="M44,153.3v-5.2h2.3v4.5c0,1.1,0.5,1.6,1.4,1.6s1.4-0.6,1.4-1.6v-4.5h2.3v8H49V155
						c-0.5,0.8-1.4,1.3-2.3,1.3C45,156.3,44,155.1,44,153.3z"/>
					<path class="st3" d="M53.4,148.1h2.3v1.6c0.4-1.1,1.4-1.8,2.6-1.7v2.4h-0.1c-1.5,0-2.5,0.9-2.5,2.8v3h-2.3V148.1z"/>
					<path class="st3" d="M64.4,145.6h4.3c2.5,0,4,1.5,4,3.6l0,0c0,2.4-1.9,3.7-4.2,3.7h-1.7v3.1h-2.3V145.6z M68.5,150.9
						c0.9,0.1,1.7-0.5,1.8-1.4c0-0.1,0-0.1,0-0.2l0,0c0-1-0.7-1.6-1.9-1.6h-1.8v3.2L68.5,150.9z"/>
					<path class="st3" d="M74.2,145.2h2.3v4.1c0.5-0.8,1.4-1.2,2.4-1.2c1.7,0,2.7,1.1,2.7,3v5.2h-2.3v-4.5c0-1.1-0.5-1.6-1.4-1.6
						s-1.4,0.6-1.4,1.6v4.5h-2.3V145.2z"/>
					<path class="st3" d="M83.2,158l0.8-1.6c0.3,0.2,0.6,0.3,1,0.3c0.4,0,0.7-0.2,0.8-0.5l-3.2-8.1H85l1.8,5.5l1.8-5.5H91l-3.1,8.2
						c-0.6,1.6-1.3,2.2-2.6,2.2C84.5,158.6,83.8,158.4,83.2,158z"/>
					<path class="st3" d="M91.3,155.1l1-1.5c0.7,0.6,1.6,0.9,2.5,1c0.7,0,1-0.2,1-0.6l0,0c0-0.5-0.8-0.7-1.7-0.9
						c-1.1-0.3-2.4-0.9-2.4-2.4l0,0c0-1.6,1.3-2.6,2.9-2.6c1.1,0,2.1,0.3,3,0.9l-0.9,1.6c-0.7-0.4-1.4-0.7-2.2-0.8
						c-0.6,0-0.8,0.2-0.8,0.6l0,0c0,0.4,0.8,0.7,1.6,1c1.1,0.4,2.4,0.9,2.4,2.4l0,0c0,1.8-1.3,2.6-3.1,2.6
						C93.6,156.4,92.3,155.9,91.3,155.1z"/>
					<path class="st3" d="M99.6,145.2h2.4v2h-2.4L99.6,145.2z M99.6,148.1h2.3v8h-2.3V148.1z"/>
					<path class="st3" d="M103.6,152.2L103.6,152.2c0-2.3,1.8-4.2,4.1-4.2c0.1,0,0.1,0,0.2,0c1.2-0.1,2.4,0.4,3.2,1.4l-1.4,1.5
						c-0.4-0.6-1.1-0.9-1.8-0.9c-1.1,0-2,1-2,2.1c0,0,0,0.1,0,0.1l0,0c-0.1,1.1,0.8,2.1,1.9,2.2c0,0,0.1,0,0.1,0
						c0.7,0,1.4-0.3,1.8-0.9l1.3,1.4c-0.8,1-2,1.5-3.3,1.5C105.5,156.3,103.6,154.5,103.6,152.2
						C103.6,152.2,103.6,152.2,103.6,152.2z"/>
					<path class="st3" d="M112.1,153.8L112.1,153.8c0-1.8,1.3-2.6,3.2-2.6c0.7,0,1.4,0.1,2,0.3v-0.1c0-0.9-0.6-1.5-1.7-1.5
						c-0.8,0-1.5,0.2-2.2,0.4l-0.6-1.7c1-0.5,2-0.7,3.1-0.6c1-0.1,2,0.3,2.7,0.9c0.6,0.7,0.9,1.6,0.9,2.6v4.7h-2.2v-0.9
						c-0.6,0.7-1.5,1-2.4,1c-1.4,0.2-2.6-0.8-2.8-2.1C112.1,154.1,112.1,153.9,112.1,153.8z M117.4,153.3v-0.4
						c-0.5-0.2-1-0.3-1.4-0.3c-1,0-1.6,0.4-1.6,1.1l0,0c0,0.6,0.5,1,1.2,1C116.6,154.7,117.3,154.1,117.4,153.3z"/>
					<path class="st3" d="M121.6,145.2h2.3v10.9h-2.3V145.2z"/>
				</g>
				<g>
					<path class="st3" d="M25.3,162.3h2.3v10.5h-2.3V162.3z"/>
					<path class="st3" d="M30,164.8h2.3v1.1c0.5-0.8,1.4-1.3,2.3-1.3c1.7,0,2.7,1.1,2.7,3v5.2h-2.3v-4.5c0-1.1-0.5-1.6-1.4-1.6
						s-1.4,0.6-1.4,1.6v4.5H30V164.8z"/>
					<path class="st3" d="M39.7,166.7h-0.9v-1.9h0.9v-0.5c-0.1-0.7,0.2-1.5,0.7-2c0.5-0.5,1.2-0.7,1.8-0.6c0.5,0,1.1,0.1,1.6,0.2
						v1.9c-0.3-0.1-0.7-0.2-1-0.2c-0.5,0-0.8,0.3-0.8,0.9v0.3h1.8v1.9H42v6.1h-2.3V166.7z"/>
					<path class="st3" d="M45.1,164.8h2.3v1.6c0.3-1.1,1.4-1.9,2.6-1.8v2.4h-0.1c-1.5,0-2.5,0.9-2.5,2.8v3h-2.3V164.8z"/>
					<path class="st3" d="M50.5,170.5L50.5,170.5c0-1.8,1.3-2.6,3.2-2.6c0.7,0,1.4,0.1,2,0.3v-0.1c0-0.9-0.6-1.5-1.7-1.5
						c-0.8,0-1.5,0.2-2.2,0.4l-0.6-1.7c1-0.5,2-0.7,3.1-0.6c1-0.1,2,0.3,2.7,0.9c0.6,0.7,0.9,1.6,0.9,2.6v4.7h-2.2V172
						c-0.6,0.7-1.5,1-2.4,1c-1.4,0.2-2.6-0.8-2.8-2.1C50.5,170.7,50.5,170.6,50.5,170.5z M55.7,170v-0.4c-0.5-0.2-1-0.3-1.5-0.3
						c-1,0-1.6,0.4-1.6,1.1l0,0c0,0.6,0.5,1,1.2,1C55,171.4,55.7,170.8,55.7,170L55.7,170z"/>
					<path class="st3" d="M59.2,171.7l1-1.5c0.7,0.6,1.6,0.9,2.5,1c0.7,0,1-0.2,1-0.6l0,0c0-0.5-0.8-0.7-1.7-0.9
						c-1.1-0.3-2.4-0.9-2.4-2.4l0,0c0-1.6,1.3-2.6,2.9-2.6c1.1,0,2.1,0.3,3,0.9l-0.9,1.6c-0.7-0.4-1.4-0.7-2.2-0.8
						c-0.6,0-0.8,0.2-0.8,0.6l0,0c0,0.4,0.8,0.7,1.6,1c1.1,0.4,2.4,0.9,2.4,2.4l0,0c0,1.8-1.3,2.6-3.1,2.6
						C61.5,173,60.2,172.6,59.2,171.7z"/>
					<path class="st3" d="M67.6,170.5v-3.8h-1v-2h1v-2h2.3v2h1.9v2h-1.9v3.4c0,0.5,0.2,0.8,0.7,0.8c0.4,0,0.8-0.1,1.1-0.3v1.8
						c-0.5,0.3-1.2,0.5-1.8,0.5C68.6,172.9,67.6,172.4,67.6,170.5z"/>
					<path class="st3" d="M73.5,164.8h2.3v1.6c0.3-1.1,1.4-1.9,2.6-1.8v2.4h-0.1c-1.5,0-2.4,0.9-2.4,2.8v3h-2.3V164.8z"/>
					<path class="st3" d="M79.7,170v-5.2H82v4.5c0,1.1,0.5,1.6,1.4,1.6s1.4-0.6,1.4-1.6v-4.5H87v8h-2.2v-1.1
						c-0.5,0.8-1.4,1.3-2.4,1.4C80.7,173,79.7,171.8,79.7,170z"/>
					<path class="st3" d="M88.7,168.8L88.7,168.8c0-2.3,1.8-4.2,4-4.2c0.1,0,0.1,0,0.2,0c1.2-0.1,2.4,0.4,3.2,1.4l-1.4,1.5
						c-0.4-0.6-1.1-0.9-1.8-0.9c-1.1,0-2,1-2,2.1c0,0,0,0.1,0,0.1l0,0c-0.1,1.1,0.8,2.1,1.9,2.2c0.1,0,0.1,0,0.2,0
						c0.7,0,1.4-0.3,1.8-0.9l1.3,1.4c-0.8,1-2,1.6-3.3,1.5c-2.3,0-4.1-1.8-4.2-4C88.7,168.9,88.7,168.9,88.7,168.8z"/>
					<path class="st3" d="M98,170.5v-3.8h-1v-2h1v-2h2.3v2h1.9v2h-1.9v3.4c0,0.5,0.2,0.8,0.7,0.8c0.4,0,0.8-0.1,1.1-0.3v1.8
						c-0.5,0.3-1.2,0.5-1.8,0.5C99,172.9,98,172.4,98,170.5z"/>
					<path class="st3" d="M103.8,170v-5.2h2.3v4.5c0,1.1,0.5,1.6,1.4,1.6s1.4-0.6,1.4-1.6v-4.5h2.3v8h-2.3v-1.1
						c-0.5,0.8-1.4,1.3-2.3,1.3C104.8,173,103.8,171.8,103.8,170z"/>
					<path class="st3" d="M113.2,164.8h2.3v1.6c0.3-1.1,1.4-1.9,2.6-1.8v2.4h-0.1c-1.5,0-2.4,0.9-2.4,2.8v3h-2.3V164.8z"/>
					<path class="st3" d="M118.9,168.8L118.9,168.8c-0.1-2.2,1.6-4.1,3.8-4.2c0.1,0,0.1,0,0.2,0c2.7,0,3.9,2.1,3.9,4.4
						c0,0.2,0,0.4,0,0.6h-5.6c0.2,1,1,1.7,2,1.6c0.8,0,1.5-0.3,2-0.8l1.3,1.1c-1.5,1.8-4.2,2-6,0.5c-0.9-0.8-1.5-1.9-1.5-3.2
						L118.9,168.8z M124.5,168.2c0-0.9-0.8-1.7-1.7-1.7c-0.9,0-1.7,0.8-1.7,1.7H124.5z"/>
					<path class="st3" d="M129.4,166.8L129.4,166.8c2-0.2,2.7-0.6,2.7-1.4l0,0c0-0.7-0.5-1.1-1.4-1.1c-0.9,0-1.7,0.4-2.2,1l-1.4-1.5
						c0.9-1.1,2.3-1.7,3.7-1.6c2.2,0,3.6,1.1,3.6,3.1l0,0c0,1.9-1.3,2.7-3,3l-0.2,0.9h-1.5L129.4,166.8z M129.3,170.4h2.4v2.4h-2.4
						V170.4z"/>
				</g>
			</g>
			<g id="f3">
				<g id="cta">
					<g>
						<defs>
							<rect id="SVGID_3_" x="25.1" y="179.8" width="113.8" height="27.3"/>
						</defs>
						<clipPath id="SVGID_4_">
							<use xlink:href="#SVGID_3_"  style="overflow:visible;"/>
						</clipPath>
						<g class="st4">
							<g>
								<defs>
									<rect id="SVGID_5_" x="25.1" y="179.8" width="113.8" height="27.3"/>
								</defs>
								<clipPath id="SVGID_6_">
									<use xlink:href="#SVGID_5_"  style="overflow:visible;"/>
								</clipPath>
								<g class="st5">
									
										<linearGradient id="cta-glow_1_" gradientUnits="userSpaceOnUse" x1="13.0415" y1="418.8033" x2="-104.9385" y2="392.3134" gradientTransform="matrix(1 0 0 -1 0 602)">
										<stop  offset="0" style="stop-color:#000000"/>
										<stop  offset="0.24" style="stop-color:#FFFFFF"/>
										<stop  offset="0.46" style="stop-color:#000000"/>
										<stop  offset="0.71" style="stop-color:#FFFFFF"/>
										<stop  offset="1" style="stop-color:#000000"/>
									</linearGradient>
									<rect id="cta-glow" x="-287.2" y="136.8" class="st6" width="463.9" height="123.4"/>
								</g>
							</g>
							<g id="Learn_more">
								<g>
									<path class="st3" d="M45.2,188.4h2.5v6.9h4.4v2.2h-6.9V188.4z"/>
									<path class="st3" d="M52.8,194L52.8,194c-0.1-1.9,1.4-3.6,3.4-3.7c0.1,0,0.1,0,0.2,0c2.4,0,3.5,1.8,3.5,3.9
										c0,0.2,0,0.3,0,0.5h-4.7c0.2,0.7,0.8,1.2,1.5,1.1c0.6,0,1.2-0.3,1.6-0.7l1.4,1.1c-0.7,0.9-1.9,1.5-3.1,1.4
										c-2,0.1-3.6-1.3-3.8-3.3C52.8,194.3,52.8,194.1,52.8,194z M57.6,193.4c0-0.7-0.5-1.3-1.2-1.3c-0.6,0-1.1,0.5-1.2,1.3H57.6z
										"/>
									<path class="st3" d="M60.6,195.5L60.6,195.5c0-1.5,1.1-2.2,2.8-2.2c0.6,0,1.1,0.1,1.7,0.3v-0.1c0-0.7-0.5-1.1-1.4-1.1
										c-0.7,0-1.3,0.1-1.9,0.4l-0.5-1.7c0.9-0.4,1.9-0.6,2.8-0.6c1-0.1,1.9,0.2,2.7,0.9c0.6,0.6,0.8,1.4,0.8,2.2v4H65v-0.7
										c-0.5,0.6-1.3,0.9-2.1,0.9c-1.2,0.1-2.2-0.8-2.3-1.9C60.6,195.6,60.6,195.6,60.6,195.5z M65.1,194.9v-0.3
										c-0.3-0.1-0.7-0.2-1-0.2c-0.7,0-1.1,0.4-1.1,0.9l0,0c0,0.4,0.4,0.8,0.8,0.8c0,0,0.1,0,0.1,0c0.6,0.1,1.2-0.4,1.3-1
										C65.1,195.1,65.1,195,65.1,194.9z"/>
									<path class="st3" d="M68.9,190.5h2.5v1.4c0.3-1,1.2-1.6,2.2-1.5v2.6h-0.2c-1.3,0-2,0.7-2,2.4v2.2h-2.5V190.5z"/>
									<path class="st3" d="M74.5,190.5H77v1c0.5-0.7,1.3-1.1,2.1-1.1c1.3-0.1,2.4,0.9,2.4,2.2c0,0.1,0,0.3,0,0.4v4.6H79v-3.8
										c0-0.8-0.4-1.2-1-1.2c-0.6,0-1,0.4-1,1c0,0.1,0,0.1,0,0.2v3.8h-2.5V190.5z"/>
									<path class="st3" d="M86.5,188.4h2.7l2.2,3.5l2.2-3.5h2.7v9.1h-2.5v-5.2l-2.3,3.6l0,0l-2.3-3.5v5.2h-2.5V188.4z"/>
									<path class="st3" d="M97.5,194L97.5,194c0-2.1,1.7-3.7,3.8-3.7c0,0,0.1,0,0.1,0c2-0.1,3.8,1.5,3.9,3.5c0,0,0,0.1,0,0.1l0,0
										c0,2.1-1.7,3.7-3.8,3.7c0,0-0.1,0-0.1,0c-2,0.1-3.8-1.5-3.9-3.5C97.5,194.1,97.5,194,97.5,194z M102.9,194L102.9,194
										c0-0.8-0.6-1.5-1.5-1.6c0,0,0,0,0,0c-0.8,0-1.5,0.7-1.5,1.5c0,0,0,0.1,0,0.1l0,0c0,0.8,0.6,1.6,1.5,1.6c0,0,0,0,0,0
										c0.8,0,1.5-0.7,1.5-1.5C102.9,194.1,102.9,194,102.9,194z"/>
									<path class="st3" d="M106.4,190.5h2.5v1.4c0.3-1,1.2-1.6,2.2-1.5v2.6h-0.2c-1.3,0-2,0.7-2,2.4v2.2h-2.5L106.4,190.5z"/>
									<path class="st3" d="M111.7,194L111.7,194c-0.1-1.9,1.4-3.6,3.4-3.7c0.1,0,0.1,0,0.2,0c2.4,0,3.6,1.8,3.6,3.9
										c0,0.2,0,0.3,0,0.5h-4.7c0.1,0.7,0.8,1.2,1.5,1.1c0.6,0,1.2-0.3,1.6-0.7l1.4,1.1c-0.7,0.9-1.9,1.5-3.1,1.4
										c-2,0.1-3.6-1.3-3.8-3.3C111.7,194.3,111.7,194.1,111.7,194z M116.5,193.4c-0.1-0.8-0.6-1.3-1.2-1.3s-1.1,0.5-1.2,1.3
										H116.5z"/>
								</g>
							</g>
							<rect id="Rectangle_5685-2" x="25.1" y="179.8" class="st7" width="113.8" height="27.3"/>
						</g>
					</g>
				</g>
				<g id="c3">
					<g id="Just_add_metal">
						<g>
							<path class="st3" d="M23.8,102.6l4.1-3.8c1.1,1.3,2.1,2.1,3.5,2.1c1.6,0,2.6-1.1,2.6-3.2V83.2h6.3v14.5
								c0,2.9-0.7,4.9-2.2,6.4c-1.7,1.6-3.9,2.4-6.3,2.3C28.6,106.6,25.6,105.2,23.8,102.6z"/>
							<path class="st3" d="M44.3,96V83.2h6.4v12.7c0,3.3,1.7,4.9,4.2,4.9s4.2-1.5,4.2-4.7V83.2h6.4v12.6c0,7.4-4.2,10.6-10.7,10.6
								S44.3,103.2,44.3,96z"/>
							<path class="st3" d="M67.7,102.7l3.5-4.2c2.1,1.7,4.7,2.7,7.4,2.7c1.7,0,2.6-0.6,2.6-1.6v-0.1c0-0.9-0.8-1.5-3.8-2.2
								c-4.9-1.1-8.6-2.5-8.6-7.2v-0.1c0-4.2,3.4-7.3,8.8-7.3c3.4-0.1,6.7,0.9,9.4,3l-3.2,4.5c-1.9-1.4-4.1-2.2-6.4-2.2
								c-1.5,0-2.3,0.7-2.3,1.5v0.1c0,1,0.8,1.5,4,2.2c5.2,1.2,8.5,2.8,8.5,7.1V99c0,4.7-3.7,7.4-9.2,7.4
								C74.5,106.5,70.7,105.2,67.7,102.7z"/>
							<path class="st3" d="M96.1,88.8h-6.8v-5.5h20v5.5h-6.8v17.3h-6.3V88.8z"/>
						</g>
						<g>
							<path class="st3" d="M33.5,113.5h6.1l9.7,23h-6.8l-1.7-4.1h-8.8l-1.6,4.1h-6.7L33.5,113.5z M39.1,127.5l-2.5-6.5l-2.5,6.5
								L39.1,127.5z"/>
							<path class="st3" d="M51.5,113.7h8.8c8.2,0,12.9,4.7,12.9,11.3v0c0,6.6-4.8,11.5-13,11.5h-8.7V113.7z M60.4,130.9
								c3.8,0,6.3-2.1,6.3-5.8v-0.1c0-3.7-2.5-5.8-6.3-5.8h-2.6v11.6H60.4z"/>
							<path class="st3" d="M76.6,113.7h8.8c8.2,0,12.9,4.7,12.9,11.3v0c0,6.6-4.8,11.5-13,11.5h-8.7V113.7z M85.5,130.9
								c3.8,0,6.3-2.1,6.3-5.8v-0.1c0-3.7-2.5-5.8-6.3-5.8h-2.6v11.6H85.5z"/>
						</g>
						<g>
							<path class="st3" d="M25.7,144.1h6.7l5.4,8.9l5.5-8.8h6.7V167h-6.3v-13.1l-5.8,8.9h-0.1l-5.8-8.9v13h-6.2V144.1z"/>
							<path class="st3" d="M54.4,144.1h18.4v5.4H60.7v3.5h11v5h-11v3.6h12.3v5.4H54.4V144.1z"/>
							<path class="st3" d="M81.7,149.7h-6.8v-5.5h20v5.5H88v17.3h-6.3V149.7z"/>
							<path class="st3" d="M102.6,144h6.1l9.7,23h-6.8l-1.6-4.1h-8.8l-1.6,4.1h-6.7L102.6,144z M108.1,158l-2.6-6.5l-2.6,6.4
								L108.1,158z"/>
							<path class="st3" d="M120.6,144.1h6.3v17.3h11v5.5h-17.3V144.1z"/>
						</g>
					</g>
				</g>
			</g>
			<g id="Logo">
				<path id="chevon_shape" class="st3" d="M160.1,490H84.2L62,525h98L160.1,490z"/>
				<g id="Grupo_12756">
					<g id="Group_2">
						<path id="X" class="st8" d="M139.2,513.4l-1.6,1.7l-1.5-1.7h-0.9l1.9,2.2l-2.4,2.6h0.9l2-2.1l1.9,2.1h0.9l-2.3-2.6l2-2.2
							H139.2z"/>
						<rect id="I" x="130.8" y="513.4" class="st8" width="0.7" height="4.8"/>
						<path id="N" class="st8" d="M126,513.4v3.7l-3.4-3.7h-0.7v4.8h0.7v-3.8l3.4,3.8h0.7v-4.8H126z"/>
						<rect id="I-2" x="117.1" y="513.4" class="st8" width="0.7" height="4.8"/>
						<path id="U" class="st8" d="M112.6,516.3c0.1,0.7-0.5,1.4-1.2,1.4c0,0,0,0,0,0h-0.2c-0.7,0-1.3-0.5-1.3-1.2c0-0.1,0-0.1,0-0.2
							v-2.8h-0.7v2.9c-0.1,1.1,0.8,1.9,1.8,2c0,0,0,0,0,0h0.2c1,0.1,2-0.7,2.1-1.7c0-0.1,0-0.2,0-0.3v-2.9h-0.7L112.6,516.3z"/>
						<path id="Q" class="st8" d="M103.2,513.2c-1.4,0-2.5,1.1-2.5,2.5v0.1c0,1.4,1,2.5,2.4,2.5c0,0,0,0,0,0h0.1
							c0.4,0,0.8-0.1,1.1-0.3l0.4,0.5h0.8l-0.7-0.8c0.6-0.5,0.9-1.2,0.9-2l0,0c0-1.4-1-2.5-2.4-2.5H103.2 M105,515.8
							c0,0.6-0.2,1.1-0.6,1.5l-0.4-0.4h-0.8l0.6,0.7c-0.2,0.1-0.4,0.1-0.7,0.1c-1,0-1.8-0.8-1.8-1.8c0,0,0,0,0,0l0,0v-0.1l0,0
							c-0.1-1,0.7-1.9,1.6-1.9c0,0,0,0,0,0h0.1c1,0,1.8,0.8,1.8,1.8C105,515.7,105,515.7,105,515.8L105,515.8L105,515.8z"/>
						<path id="E" class="st8" d="M93.8,513.4v4.8H98v-0.6h-3.5V516h2.3v-0.6h-2.3V514h3.4v-0.6L93.8,513.4z"/>
					</g>
					<g id="icon_group">
						<path id="icon" class="st9" d="M117.5,496l-1.9,0.7v10.2l-1.3-0.5v-9.2l-3.9,1.4v6.5l-1.3-0.5v-5.6l-1.3,0.5v6.1l3.9,1.4v-7.4
							l1.3-0.4v8.4l3.9,1.4v-11.1l0.6-0.2l0.7,0.2v11.1l3.8-1.4v-8.4l1.3,0.5v7.5l3.9-1.4v-6.1l-1.3-0.5v5.6l-1.3,0.5v-6.5l-3.9-1.4
							v9.3l-1.3,0.5v-10.2L117.5,496z"/>
						<path id="R" class="st9" d="M129.6,505.1c0.6,0,1.2-0.5,1.2-1.2l0,0c0-0.6-0.5-1.2-1.2-1.2s-1.2,0.5-1.2,1.2l0,0
							C128.5,504.5,129,505.1,129.6,505.1C129.6,505.1,129.6,505.1,129.6,505.1L129.6,505.1 M129.6,504.9c-0.6,0-1-0.4-1-1l0,0l0,0
							c0-0.6,0.4-1,1-1.1s1,0.4,1.1,1v0.1l0,0C130.7,504.5,130.2,504.9,129.6,504.9L129.6,504.9 M129.2,504.5h0.3v-0.4h0.2l0.3,0.4
							h0.4L130,504c0.2-0.1,0.3-0.2,0.3-0.4c0-0.3-0.2-0.4-0.5-0.4h-0.6V504.5z M129.5,503.8v-0.3h0.2c0.1,0,0.2,0.1,0.2,0.2
							s-0.1,0.2-0.2,0.2L129.5,503.8z"/>
					</g>
				</g>
			</g>
		</g>
	</g>
</g>
</svg>
