<?xml version="1.0" encoding="utf-8"?>
<!-- Generator: Adobe Illustrator 25.1.0, SVG Export Plug-In . SVG Version: 6.00 Build 0)  -->
<svg version="1.1" xmlns="http://www.w3.org/2000/svg" xmlns:xlink="http://www.w3.org/1999/xlink" x="0px" y="0px"
	 viewBox="0 0 728 90" style="enable-background:new 0 0 728 90;" xml:space="preserve">
<style type="text/css">
	.st0{enable-background:new    ;}
	.st1{fill:url(#SVGID_1_);}
	.st2{fill:#FFFFFF;}
	.st3{clip-path:url(#cta-mask_1_);fill:#FFC100;}
	.st4{clip-path:url(#cta-mask_1_);}
	.st5{fill:#181A19;}
</style>
<g id="B1-728x90-F3_1_" class="st0">
	<g id="bgsil">
		
			<radialGradient id="SVGID_1_" cx="364" cy="38.3549" r="339.5178" fx="141.2169" fy="40.3406" gradientTransform="matrix(-1 0 0 -0.3554 728 51.9876)" gradientUnits="userSpaceOnUse">
			<stop  offset="0.1836" style="stop-color:#FFFFFF;stop-opacity:0"/>
			<stop  offset="0.2334" style="stop-color:#E4E4E4;stop-opacity:6.102586e-02"/>
			<stop  offset="0.3539" style="stop-color:#A8A8A8;stop-opacity:0.2087"/>
			<stop  offset="0.4741" style="stop-color:#757575;stop-opacity:0.3559"/>
			<stop  offset="0.5911" style="stop-color:#4B4B4B;stop-opacity:0.4991"/>
			<stop  offset="0.7041" style="stop-color:#2A2A2A;stop-opacity:0.6375"/>
			<stop  offset="0.8121" style="stop-color:#131313;stop-opacity:0.7699"/>
			<stop  offset="0.9131" style="stop-color:#050505;stop-opacity:0.8936"/>
			<stop  offset="1" style="stop-color:#000000"/>
		</radialGradient>
		<rect class="st1" width="728" height="90"/>
	</g>
	<g id="c3">
		<g id="Infuse_analytics__x0D_everywhere">
			<g>
				<path class="st2" d="M197.7,35.9V21.1h1.7v14.8H197.7z"/>
				<path class="st2" d="M210.8,35.9v-7.2c0-0.9-0.2-1.6-0.6-2c-0.4-0.4-1.1-0.7-1.9-0.7c-1.2,0-2,0.3-2.6,0.9
					c-0.5,0.6-0.8,1.7-0.8,3.1v5.8h-1.7V24.8h1.4l0.3,1.5h0.1c0.3-0.5,0.8-1,1.4-1.3c0.6-0.3,1.3-0.5,2.1-0.5c1.3,0,2.3,0.3,3,1
					c0.7,0.6,1,1.7,1,3.1v7.2H210.8z"/>
				<path class="st2" d="M221,26.1h-2.8v9.8h-1.7v-9.8h-2v-0.8l2-0.6v-0.6c0-2.7,1.2-4.1,3.6-4.1c0.6,0,1.3,0.1,2.1,0.4l-0.4,1.3
					c-0.6-0.2-1.2-0.3-1.7-0.3c-0.6,0-1.1,0.2-1.4,0.6s-0.5,1.1-0.5,2v0.7h2.8V26.1z"/>
				<path class="st2" d="M224.6,24.8V32c0,0.9,0.2,1.6,0.6,2c0.4,0.4,1.1,0.7,1.9,0.7c1.2,0,2-0.3,2.5-1c0.5-0.6,0.8-1.7,0.8-3.1
					v-5.8h1.7v11.1h-1.4l-0.2-1.5h-0.1c-0.3,0.5-0.8,1-1.4,1.3c-0.6,0.3-1.3,0.4-2.1,0.4c-1.4,0-2.4-0.3-3-1c-0.7-0.6-1-1.7-1-3.1
					v-7.3H224.6z"/>
				<path class="st2" d="M242.9,32.9c0,1-0.4,1.8-1.2,2.4s-1.9,0.8-3.2,0.8c-1.5,0-2.6-0.2-3.4-0.7v-1.6c0.5,0.3,1.1,0.5,1.7,0.6
					c0.6,0.2,1.2,0.2,1.8,0.2c0.9,0,1.6-0.1,2-0.4c0.5-0.3,0.7-0.7,0.7-1.3c0-0.4-0.2-0.8-0.6-1.1c-0.4-0.3-1.1-0.7-2.2-1.1
					c-1-0.4-1.8-0.7-2.2-1s-0.8-0.6-1-1c-0.2-0.4-0.3-0.8-0.3-1.3c0-0.9,0.4-1.6,1.1-2.1c0.7-0.5,1.7-0.8,3-0.8
					c1.2,0,2.4,0.2,3.5,0.7l-0.6,1.4c-1.1-0.5-2.1-0.7-3-0.7c-0.8,0-1.4,0.1-1.8,0.4c-0.4,0.2-0.6,0.6-0.6,1c0,0.3,0.1,0.6,0.2,0.8
					c0.2,0.2,0.4,0.4,0.7,0.6c0.3,0.2,1,0.5,1.9,0.8c1.3,0.5,2.2,1,2.7,1.4C242.7,31.5,242.9,32.1,242.9,32.9z"/>
				<path class="st2" d="M250.3,36.1c-1.6,0-2.9-0.5-3.9-1.5c-0.9-1-1.4-2.4-1.4-4.2c0-1.8,0.4-3.2,1.3-4.3c0.9-1.1,2.1-1.6,3.6-1.6
					c1.4,0,2.5,0.5,3.3,1.4c0.8,0.9,1.2,2.1,1.2,3.6v1.1h-7.7c0,1.3,0.4,2.3,1,3s1.5,1,2.6,1c1.2,0,2.4-0.2,3.5-0.8v1.5
					c-0.6,0.3-1.2,0.4-1.7,0.6C251.7,36,251.1,36.1,250.3,36.1z M249.9,26c-0.9,0-1.6,0.3-2.1,0.9c-0.5,0.6-0.8,1.4-0.9,2.4h5.8
					c0-1.1-0.2-1.9-0.7-2.4C251.4,26.3,250.8,26,249.9,26z"/>
				<path class="st2" d="M269.5,35.9l-0.3-1.6h-0.1c-0.6,0.7-1.1,1.2-1.7,1.4c-0.6,0.2-1.2,0.4-2.1,0.4c-1.1,0-2-0.3-2.6-0.9
					c-0.6-0.6-0.9-1.4-0.9-2.4c0-2.2,1.8-3.4,5.4-3.5l1.9-0.1v-0.7c0-0.9-0.2-1.5-0.6-1.9c-0.4-0.4-1-0.6-1.8-0.6
					c-0.9,0-2,0.3-3.1,0.9l-0.5-1.3c0.5-0.3,1.1-0.5,1.8-0.7c0.7-0.2,1.3-0.3,2-0.3c1.3,0,2.3,0.3,2.9,0.9c0.6,0.6,1,1.5,1,2.8v7.6
					H269.5z M265.7,34.7c1,0,1.9-0.3,2.5-0.9c0.6-0.6,0.9-1.4,0.9-2.4v-1l-1.7,0.1c-1.3,0-2.3,0.3-2.9,0.6c-0.6,0.4-0.9,0.9-0.9,1.7
					c0,0.6,0.2,1.1,0.6,1.4C264.5,34.5,265.1,34.7,265.7,34.7z"/>
				<path class="st2" d="M281.8,35.9v-7.2c0-0.9-0.2-1.6-0.6-2c-0.4-0.4-1.1-0.7-1.9-0.7c-1.2,0-2,0.3-2.6,0.9
					c-0.5,0.6-0.8,1.7-0.8,3.1v5.8h-1.7V24.8h1.4l0.3,1.5h0.1c0.3-0.5,0.8-1,1.4-1.3c0.6-0.3,1.3-0.5,2.1-0.5c1.3,0,2.3,0.3,3,1
					c0.7,0.6,1,1.7,1,3.1v7.2H281.8z"/>
				<path class="st2" d="M293.8,35.9l-0.3-1.6h-0.1c-0.6,0.7-1.1,1.2-1.7,1.4c-0.6,0.2-1.2,0.4-2.1,0.4c-1.1,0-2-0.3-2.6-0.9
					c-0.6-0.6-0.9-1.4-0.9-2.4c0-2.2,1.8-3.4,5.4-3.5l1.9-0.1v-0.7c0-0.9-0.2-1.5-0.6-1.9c-0.4-0.4-1-0.6-1.8-0.6
					c-0.9,0-2,0.3-3.1,0.9l-0.5-1.3c0.5-0.3,1.1-0.5,1.8-0.7c0.7-0.2,1.3-0.3,2-0.3c1.3,0,2.3,0.3,2.9,0.9c0.6,0.6,1,1.5,1,2.8v7.6
					H293.8z M290,34.7c1,0,1.9-0.3,2.5-0.9c0.6-0.6,0.9-1.4,0.9-2.4v-1l-1.7,0.1c-1.3,0-2.3,0.3-2.9,0.6c-0.6,0.4-0.9,0.9-0.9,1.7
					c0,0.6,0.2,1.1,0.6,1.4C288.8,34.5,289.4,34.7,290,34.7z"/>
				<path class="st2" d="M300.2,35.9h-1.7V20.1h1.7V35.9z"/>
				<path class="st2" d="M302,24.8h1.8l2.4,6.3c0.5,1.4,0.9,2.5,1,3.1h0.1c0.1-0.3,0.3-0.9,0.6-1.8c0.3-0.8,1.2-3.4,2.8-7.7h1.8
					l-4.8,12.7c-0.5,1.2-1,2.1-1.7,2.7c-0.6,0.5-1.4,0.8-2.3,0.8c-0.5,0-1-0.1-1.5-0.2v-1.3c0.4,0.1,0.8,0.1,1.2,0.1
					c1.2,0,2-0.6,2.5-1.9l0.6-1.6L302,24.8z"/>
				<path class="st2" d="M317.8,34.7c0.3,0,0.6,0,0.9-0.1c0.3,0,0.5-0.1,0.7-0.1v1.3c-0.2,0.1-0.5,0.2-0.8,0.2
					c-0.4,0.1-0.7,0.1-1,0.1c-2.1,0-3.2-1.1-3.2-3.4v-6.6h-1.6v-0.8l1.6-0.7l0.7-2.4h1v2.6h3.2v1.3H316v6.5c0,0.7,0.2,1.2,0.5,1.5
					C316.8,34.5,317.3,34.7,317.8,34.7z"/>
				<path class="st2" d="M321.4,21.8c0-0.4,0.1-0.7,0.3-0.8c0.2-0.2,0.4-0.3,0.7-0.3c0.3,0,0.5,0.1,0.7,0.3c0.2,0.2,0.3,0.5,0.3,0.8
					s-0.1,0.7-0.3,0.8c-0.2,0.2-0.4,0.3-0.7,0.3c-0.3,0-0.5-0.1-0.7-0.3C321.5,22.4,321.4,22.1,321.4,21.8z M323.3,35.9h-1.7V24.8
					h1.7V35.9z"/>
				<path class="st2" d="M331.3,36.1c-1.6,0-2.9-0.5-3.7-1.5c-0.9-1-1.3-2.4-1.3-4.2c0-1.9,0.4-3.3,1.3-4.3c0.9-1,2.2-1.5,3.8-1.5
					c0.5,0,1.1,0.1,1.6,0.2c0.5,0.1,1,0.2,1.3,0.4l-0.5,1.4c-0.4-0.1-0.8-0.3-1.2-0.4c-0.4-0.1-0.8-0.1-1.2-0.1
					c-2.3,0-3.4,1.4-3.4,4.3c0,1.4,0.3,2.4,0.8,3.1c0.6,0.7,1.4,1.1,2.4,1.1c0.9,0,1.9-0.2,2.8-0.6v1.5
					C333.3,35.9,332.4,36.1,331.3,36.1z"/>
				<path class="st2" d="M343.9,32.9c0,1-0.4,1.8-1.2,2.4s-1.9,0.8-3.2,0.8c-1.5,0-2.6-0.2-3.4-0.7v-1.6c0.5,0.3,1.1,0.5,1.7,0.6
					c0.6,0.2,1.2,0.2,1.8,0.2c0.9,0,1.6-0.1,2-0.4c0.5-0.3,0.7-0.7,0.7-1.3c0-0.4-0.2-0.8-0.6-1.1c-0.4-0.3-1.1-0.7-2.2-1.1
					c-1-0.4-1.8-0.7-2.2-1s-0.8-0.6-1-1c-0.2-0.4-0.3-0.8-0.3-1.3c0-0.9,0.4-1.6,1.1-2.1c0.7-0.5,1.7-0.8,3-0.8
					c1.2,0,2.4,0.2,3.5,0.7l-0.6,1.4c-1.1-0.5-2.1-0.7-3-0.7c-0.8,0-1.4,0.1-1.8,0.4c-0.4,0.2-0.6,0.6-0.6,1c0,0.3,0.1,0.6,0.2,0.8
					c0.2,0.2,0.4,0.4,0.7,0.6c0.3,0.2,1,0.5,1.9,0.8c1.3,0.5,2.2,1,2.7,1.4C343.6,31.5,343.9,32.1,343.9,32.9z"/>
				<path class="st2" d="M202.1,64.9c-1.6,0-2.9-0.5-3.9-1.5c-0.9-1-1.4-2.4-1.4-4.2c0-1.8,0.4-3.2,1.3-4.3c0.9-1.1,2.1-1.6,3.6-1.6
					c1.4,0,2.5,0.5,3.3,1.4c0.8,0.9,1.2,2.1,1.2,3.6v1.1h-7.7c0,1.3,0.4,2.3,1,3s1.5,1,2.6,1c1.2,0,2.4-0.2,3.5-0.8v1.5
					c-0.6,0.3-1.2,0.4-1.7,0.6C203.5,64.9,202.9,64.9,202.1,64.9z M201.7,54.8c-0.9,0-1.6,0.3-2.1,0.9c-0.5,0.6-0.8,1.4-0.9,2.4h5.8
					c0-1.1-0.2-1.9-0.7-2.4S202.6,54.8,201.7,54.8z"/>
				<path class="st2" d="M211.5,64.7l-4.2-11.1h1.8l2.4,6.6c0.5,1.5,0.9,2.5,1,3h0.1c0.1-0.4,0.3-1.1,0.7-2.2
					c0.4-1.1,1.3-3.6,2.7-7.4h1.8l-4.2,11.1H211.5z"/>
				<path class="st2" d="M224.2,64.9c-1.6,0-2.9-0.5-3.9-1.5c-0.9-1-1.4-2.4-1.4-4.2c0-1.8,0.4-3.2,1.3-4.3c0.9-1.1,2.1-1.6,3.6-1.6
					c1.4,0,2.5,0.5,3.3,1.4c0.8,0.9,1.2,2.1,1.2,3.6v1.1h-7.7c0,1.3,0.4,2.3,1,3s1.5,1,2.6,1c1.2,0,2.4-0.2,3.5-0.8v1.5
					c-0.6,0.3-1.2,0.4-1.7,0.6C225.6,64.9,224.9,64.9,224.2,64.9z M223.7,54.8c-0.9,0-1.6,0.3-2.1,0.9c-0.5,0.6-0.8,1.4-0.9,2.4h5.8
					c0-1.1-0.2-1.9-0.7-2.4S224.6,54.8,223.7,54.8z"/>
				<path class="st2" d="M236.2,53.4c0.5,0,0.9,0,1.3,0.1l-0.2,1.6c-0.5-0.1-0.9-0.2-1.2-0.2c-0.9,0-1.7,0.4-2.3,1.1
					c-0.6,0.7-1,1.6-1,2.7v6h-1.7V53.6h1.4l0.2,2.1h0.1c0.4-0.7,0.9-1.3,1.5-1.7C234.9,53.6,235.5,53.4,236.2,53.4z"/>
				<path class="st2" d="M237.8,53.6h1.8l2.4,6.3c0.5,1.4,0.9,2.5,1,3.1h0.1c0.1-0.3,0.3-0.9,0.6-1.8s1.2-3.4,2.8-7.7h1.8l-4.8,12.7
					c-0.5,1.2-1,2.1-1.7,2.7c-0.6,0.5-1.4,0.8-2.3,0.8c-0.5,0-1-0.1-1.5-0.2v-1.3c0.4,0.1,0.8,0.1,1.2,0.1c1.2,0,2-0.6,2.5-1.9
					l0.6-1.6L237.8,53.6z"/>
				<path class="st2" d="M259.1,64.7l-2-6.5c-0.1-0.4-0.4-1.3-0.7-2.7h-0.1c-0.3,1.2-0.5,2.1-0.7,2.7l-2.1,6.5h-1.9l-3-11.1h1.8
					c0.7,2.8,1.3,4.9,1.6,6.4s0.6,2.4,0.6,3h0.1c0.1-0.4,0.2-0.9,0.4-1.5c0.2-0.6,0.3-1.1,0.4-1.5l2-6.4h1.8l2,6.4
					c0.4,1.2,0.6,2.1,0.8,2.9h0.1c0-0.2,0.1-0.6,0.2-1.1s0.8-3.2,2.1-8.2h1.7l-3.1,11.1H259.1z"/>
				<path class="st2" d="M273.8,64.7v-7.2c0-0.9-0.2-1.6-0.6-2c-0.4-0.4-1.1-0.7-1.9-0.7c-1.2,0-2,0.3-2.6,1
					c-0.5,0.6-0.8,1.7-0.8,3.1v5.8h-1.7V48.9h1.7v4.8c0,0.6,0,1.1-0.1,1.4h0.1c0.3-0.5,0.8-1,1.4-1.3c0.6-0.3,1.3-0.5,2.1-0.5
					c1.4,0,2.4,0.3,3.1,1s1,1.7,1,3.1v7.2H273.8z"/>
				<path class="st2" d="M283.7,64.9c-1.6,0-2.9-0.5-3.9-1.5c-0.9-1-1.4-2.4-1.4-4.2c0-1.8,0.4-3.2,1.3-4.3c0.9-1.1,2.1-1.6,3.6-1.6
					c1.4,0,2.5,0.5,3.3,1.4c0.8,0.9,1.2,2.1,1.2,3.6v1.1h-7.7c0,1.3,0.4,2.3,1,3s1.5,1,2.6,1c1.2,0,2.4-0.2,3.5-0.8v1.5
					c-0.6,0.3-1.2,0.4-1.7,0.6C285,64.9,284.4,64.9,283.7,64.9z M283.2,54.8c-0.9,0-1.6,0.3-2.1,0.9c-0.5,0.6-0.8,1.4-0.9,2.4h5.8
					c0-1.1-0.2-1.9-0.7-2.4S284.1,54.8,283.2,54.8z"/>
				<path class="st2" d="M295.7,53.4c0.5,0,0.9,0,1.3,0.1l-0.2,1.6c-0.5-0.1-0.9-0.2-1.2-0.2c-0.9,0-1.7,0.4-2.3,1.1
					c-0.6,0.7-1,1.6-1,2.7v6h-1.7V53.6h1.4l0.2,2.1h0.1c0.4-0.7,0.9-1.3,1.5-1.7C294.3,53.6,295,53.4,295.7,53.4z"/>
				<path class="st2" d="M303.8,64.9c-1.6,0-2.9-0.5-3.9-1.5c-0.9-1-1.4-2.4-1.4-4.2c0-1.8,0.4-3.2,1.3-4.3c0.9-1.1,2.1-1.6,3.6-1.6
					c1.4,0,2.5,0.5,3.3,1.4c0.8,0.9,1.2,2.1,1.2,3.6v1.1h-7.7c0,1.3,0.4,2.3,1,3s1.5,1,2.6,1c1.2,0,2.4-0.2,3.5-0.8v1.5
					c-0.6,0.3-1.2,0.4-1.7,0.6C305.2,64.9,304.5,64.9,303.8,64.9z M303.3,54.8c-0.9,0-1.6,0.3-2.1,0.9c-0.5,0.6-0.8,1.4-0.9,2.4h5.8
					c0-1.1-0.2-1.9-0.7-2.4S304.2,54.8,303.3,54.8z"/>
			</g>
		</g>
	</g>
	<g id="logo_1_">
		<g id="Sisense_x5F_logo_xA0_Image_1_">
			
				<image style="overflow:visible;" width="110" height="28" id="Sisense_x5F_logo_xA0_Image_2_" xlink:href="43F5A4A6C19ED097.png"  transform="matrix(1 0 0 1 35.0078 30.7578)">
			</image>
		</g>
	</g>
	<g id="cta_1_">
		<defs>
			<rect id="cta-mask" x="565.1" y="26" width="128.6" height="48.3"/>
		</defs>
		<clipPath id="cta-mask_1_">
			<rect id="cta-mask" x="565.1" y="26" width="128.6" height="48.3"/>
		</clipPath>
		<path id="cta-bg" class="st3" d="M568.4,30H691c1,0,1.9,0.9,1.9,1.9l0,0v26.6c0,1-0.9,1.9-1.9,1.9l0,0H568.4c-1,0-1.9-0.9-1.9-1.9
			l0,0V31.9C566.5,30.8,567.3,30,568.4,30z"/>
		<g id="Learn_more" class="st4">
			<g>
				<path class="st5" d="M590.3,50.2V39.9h1.7v8.8h4.4v1.4H590.3z"/>
				<path class="st5" d="M601.3,50.4c-1.2,0-2.2-0.4-2.8-1.1c-0.7-0.7-1-1.7-1-2.9c0-1.3,0.3-2.3,1-3c0.6-0.7,1.5-1.1,2.6-1.1
					c1,0,1.8,0.3,2.4,0.9c0.6,0.6,0.9,1.5,0.9,2.6v0.9h-5.2c0,0.8,0.2,1.3,0.6,1.7s0.9,0.6,1.6,0.6c0.5,0,0.9,0,1.3-0.1
					s0.8-0.2,1.3-0.4v1.3c-0.4,0.2-0.8,0.3-1.2,0.4C602.3,50.3,601.8,50.4,601.3,50.4z M601,43.5c-0.5,0-0.9,0.2-1.3,0.5
					c-0.3,0.3-0.5,0.8-0.6,1.5h3.5c0-0.6-0.2-1.1-0.5-1.5C602,43.7,601.5,43.5,601,43.5z"/>
				<path class="st5" d="M611.1,50.2l-0.3-1.1h-0.1c-0.4,0.5-0.8,0.8-1.1,1s-0.9,0.3-1.5,0.3c-0.8,0-1.4-0.2-1.8-0.6
					c-0.4-0.4-0.6-1-0.6-1.8c0-0.8,0.3-1.4,0.9-1.8s1.5-0.6,2.7-0.7l1.3,0V45c0-0.5-0.1-0.9-0.3-1.1c-0.2-0.2-0.6-0.4-1.1-0.4
					c-0.4,0-0.8,0.1-1.1,0.2s-0.7,0.3-1.1,0.4l-0.5-1.2c0.4-0.2,0.9-0.4,1.4-0.5c0.5-0.1,1-0.2,1.4-0.2c1,0,1.7,0.2,2.2,0.6
					c0.5,0.4,0.8,1.1,0.8,2v5.2H611.1z M608.6,49.1c0.6,0,1.1-0.2,1.4-0.5c0.4-0.3,0.5-0.8,0.5-1.4v-0.7l-1,0
					c-0.8,0-1.3,0.2-1.7,0.4c-0.4,0.2-0.5,0.6-0.5,1.1c0,0.3,0.1,0.6,0.3,0.8C607.9,49,608.2,49.1,608.6,49.1z"/>
				<path class="st5" d="M618.5,42.3c0.3,0,0.6,0,0.8,0.1l-0.2,1.5c-0.2-0.1-0.5-0.1-0.7-0.1c-0.7,0-1.2,0.2-1.6,0.6
					c-0.4,0.4-0.6,1-0.6,1.7v4.1h-1.7v-7.8h1.3l0.2,1.4h0.1c0.3-0.5,0.6-0.8,1-1.1C617.6,42.4,618.1,42.3,618.5,42.3z"/>
				<path class="st5" d="M627.6,50.2H626v-4.8c0-0.6-0.1-1-0.4-1.3c-0.2-0.3-0.6-0.4-1.2-0.4c-0.7,0-1.2,0.2-1.5,0.6
					c-0.3,0.4-0.5,1.1-0.5,2.1v3.9h-1.7v-7.8h1.3l0.2,1h0.1c0.2-0.4,0.6-0.7,1-0.9c0.4-0.2,0.9-0.3,1.4-0.3c1.9,0,2.8,1,2.8,2.9
					V50.2z"/>
				<path class="st5" d="M638.3,50.2l-3-8.6h-0.1c0.1,1.3,0.1,2.5,0.1,3.6v5h-1.5V39.9h2.4l2.9,8.2h0l2.9-8.2h2.4v10.3h-1.6v-5.1
					c0-0.5,0-1.2,0-2s0-1.3,0.1-1.5h-0.1l-3.1,8.6H638.3z"/>
				<path class="st5" d="M653.9,46.3c0,1.3-0.3,2.3-1,3c-0.7,0.7-1.6,1.1-2.7,1.1c-0.7,0-1.4-0.2-1.9-0.5c-0.6-0.3-1-0.8-1.3-1.4
					c-0.3-0.6-0.5-1.3-0.5-2.1c0-1.3,0.3-2.2,1-3c0.6-0.7,1.6-1.1,2.7-1.1c1.1,0,2,0.4,2.7,1.1S653.9,45.1,653.9,46.3z M648.2,46.3
					c0,1.8,0.7,2.7,2,2.7c1.3,0,2-0.9,2-2.7c0-1.8-0.7-2.7-2-2.7c-0.7,0-1.2,0.2-1.5,0.7C648.4,44.8,648.2,45.5,648.2,46.3z"/>
				<path class="st5" d="M659.8,42.3c0.3,0,0.6,0,0.8,0.1l-0.2,1.5c-0.2-0.1-0.5-0.1-0.7-0.1c-0.7,0-1.2,0.2-1.6,0.6
					c-0.4,0.4-0.6,1-0.6,1.7v4.1h-1.7v-7.8h1.3l0.2,1.4h0.1c0.3-0.5,0.6-0.8,1-1.1C658.8,42.4,659.3,42.3,659.8,42.3z"/>
				<path class="st5" d="M665.4,50.4c-1.2,0-2.2-0.4-2.8-1.1c-0.7-0.7-1-1.7-1-2.9c0-1.3,0.3-2.3,1-3c0.6-0.7,1.5-1.1,2.6-1.1
					c1,0,1.8,0.3,2.4,0.9c0.6,0.6,0.9,1.5,0.9,2.6v0.9h-5.2c0,0.8,0.2,1.3,0.6,1.7s0.9,0.6,1.6,0.6c0.5,0,0.9,0,1.3-0.1
					s0.8-0.2,1.3-0.4v1.3c-0.4,0.2-0.8,0.3-1.2,0.4C666.4,50.3,665.9,50.4,665.4,50.4z M665.1,43.5c-0.5,0-0.9,0.2-1.3,0.5
					c-0.3,0.3-0.5,0.8-0.6,1.5h3.5c0-0.6-0.2-1.1-0.5-1.5C666.1,43.7,665.6,43.5,665.1,43.5z"/>
			</g>
		</g>
	</g>
	<g id="c2">
		<g id="Whenever_you_need_it">
			<g>
				<path class="st2" d="M210.6,35.9h-1.7l-3-9.9c-0.1-0.4-0.3-1-0.5-1.7s-0.3-1.1-0.3-1.2c-0.1,0.9-0.4,1.9-0.7,2.9l-2.9,9.9h-1.7
					l-3.9-14.8h1.8l2.3,9.2c0.3,1.3,0.6,2.4,0.7,3.5c0.2-1.2,0.5-2.4,0.8-3.6l2.7-9h1.8l2.8,9.1c0.3,1,0.6,2.2,0.8,3.5
					c0.1-1,0.4-2.1,0.7-3.5l2.3-9.1h1.8L210.6,35.9z"/>
				<path class="st2" d="M224.3,35.9v-7.2c0-0.9-0.2-1.6-0.6-2c-0.4-0.4-1.1-0.7-1.9-0.7c-1.2,0-2,0.3-2.6,1
					c-0.5,0.6-0.8,1.7-0.8,3.1v5.8h-1.7V20.1h1.7v4.8c0,0.6,0,1.1-0.1,1.4h0.1c0.3-0.5,0.8-1,1.4-1.3c0.6-0.3,1.3-0.5,2.1-0.5
					c1.4,0,2.4,0.3,3.1,1s1,1.7,1,3.1v7.2H224.3z"/>
				<path class="st2" d="M234.1,36.1c-1.6,0-2.9-0.5-3.9-1.5c-0.9-1-1.4-2.4-1.4-4.2c0-1.8,0.4-3.2,1.3-4.3c0.9-1.1,2.1-1.6,3.6-1.6
					c1.4,0,2.5,0.5,3.3,1.4c0.8,0.9,1.2,2.1,1.2,3.6v1.1h-7.7c0,1.3,0.4,2.3,1,3s1.5,1,2.6,1c1.2,0,2.4-0.2,3.5-0.8v1.5
					c-0.6,0.3-1.2,0.4-1.7,0.6C235.5,36,234.8,36.1,234.1,36.1z M233.6,26c-0.9,0-1.6,0.3-2.1,0.9c-0.5,0.6-0.8,1.4-0.9,2.4h5.8
					c0-1.1-0.2-1.9-0.7-2.4C235.2,26.3,234.5,26,233.6,26z"/>
				<path class="st2" d="M248.7,35.9v-7.2c0-0.9-0.2-1.6-0.6-2c-0.4-0.4-1.1-0.7-1.9-0.7c-1.2,0-2,0.3-2.6,0.9
					c-0.5,0.6-0.8,1.7-0.8,3.1v5.8H241V24.8h1.4l0.3,1.5h0.1c0.3-0.5,0.8-1,1.4-1.3c0.6-0.3,1.3-0.5,2.1-0.5c1.3,0,2.3,0.3,3,1
					c0.7,0.6,1,1.7,1,3.1v7.2H248.7z"/>
				<path class="st2" d="M258.5,36.1c-1.6,0-2.9-0.5-3.9-1.5c-0.9-1-1.4-2.4-1.4-4.2c0-1.8,0.4-3.2,1.3-4.3c0.9-1.1,2.1-1.6,3.6-1.6
					c1.4,0,2.5,0.5,3.3,1.4c0.8,0.9,1.2,2.1,1.2,3.6v1.1h-7.7c0,1.3,0.4,2.3,1,3s1.5,1,2.6,1c1.2,0,2.4-0.2,3.5-0.8v1.5
					c-0.6,0.3-1.2,0.4-1.7,0.6C259.9,36,259.2,36.1,258.5,36.1z M258,26c-0.9,0-1.6,0.3-2.1,0.9c-0.5,0.6-0.8,1.4-0.9,2.4h5.8
					c0-1.1-0.2-1.9-0.7-2.4C259.6,26.3,258.9,26,258,26z"/>
				<path class="st2" d="M267.9,35.9l-4.2-11.1h1.8l2.4,6.6c0.5,1.5,0.9,2.5,1,3h0.1c0.1-0.4,0.3-1.1,0.7-2.2
					c0.4-1.1,1.3-3.6,2.7-7.4h1.8l-4.2,11.1H267.9z"/>
				<path class="st2" d="M280.5,36.1c-1.6,0-2.9-0.5-3.9-1.5c-0.9-1-1.4-2.4-1.4-4.2c0-1.8,0.4-3.2,1.3-4.3c0.9-1.1,2.1-1.6,3.6-1.6
					c1.4,0,2.5,0.5,3.3,1.4c0.8,0.9,1.2,2.1,1.2,3.6v1.1H277c0,1.3,0.4,2.3,1,3s1.5,1,2.6,1c1.2,0,2.4-0.2,3.5-0.8v1.5
					c-0.6,0.3-1.2,0.4-1.7,0.6C281.9,36,281.3,36.1,280.5,36.1z M280.1,26c-0.9,0-1.6,0.3-2.1,0.9c-0.5,0.6-0.8,1.4-0.9,2.4h5.8
					c0-1.1-0.2-1.9-0.7-2.4C281.6,26.3,281,26,280.1,26z"/>
				<path class="st2" d="M292.6,24.6c0.5,0,0.9,0,1.3,0.1l-0.2,1.6c-0.5-0.1-0.9-0.2-1.2-0.2c-0.9,0-1.7,0.4-2.3,1.1s-1,1.6-1,2.7v6
					h-1.7V24.8h1.4l0.2,2.1h0.1c0.4-0.7,0.9-1.3,1.5-1.7C291.2,24.8,291.9,24.6,292.6,24.6z"/>
				<path class="st2" d="M299.6,24.8h1.8l2.4,6.3c0.5,1.4,0.9,2.5,1,3.1h0.1c0.1-0.3,0.3-0.9,0.6-1.8c0.3-0.8,1.2-3.4,2.8-7.7h1.8
					l-4.8,12.7c-0.5,1.2-1,2.1-1.7,2.7c-0.6,0.5-1.4,0.8-2.3,0.8c-0.5,0-1-0.1-1.5-0.2v-1.3c0.4,0.1,0.8,0.1,1.2,0.1
					c1.2,0,2-0.6,2.5-1.9l0.6-1.6L299.6,24.8z"/>
				<path class="st2" d="M321.4,30.3c0,1.8-0.5,3.2-1.4,4.2s-2.2,1.5-3.8,1.5c-1,0-1.9-0.2-2.6-0.7s-1.4-1.1-1.8-2
					c-0.4-0.9-0.6-1.9-0.6-3.1c0-1.8,0.5-3.2,1.4-4.2c0.9-1,2.2-1.5,3.8-1.5c1.6,0,2.8,0.5,3.7,1.6C321,27.2,321.4,28.6,321.4,30.3z
					 M312.9,30.3c0,1.4,0.3,2.5,0.9,3.2c0.6,0.7,1.4,1.1,2.5,1.1s1.9-0.4,2.5-1.1c0.6-0.7,0.9-1.8,0.9-3.2c0-1.4-0.3-2.5-0.9-3.2
					c-0.6-0.7-1.4-1.1-2.5-1.1c-1.1,0-1.9,0.4-2.5,1.1S312.9,28.9,312.9,30.3z"/>
				<path class="st2" d="M325.9,24.8V32c0,0.9,0.2,1.6,0.6,2c0.4,0.4,1.1,0.7,1.9,0.7c1.2,0,2-0.3,2.5-1c0.5-0.6,0.8-1.7,0.8-3.1
					v-5.8h1.7v11.1h-1.4l-0.2-1.5h-0.1c-0.3,0.5-0.8,1-1.4,1.3c-0.6,0.3-1.3,0.4-2.1,0.4c-1.4,0-2.4-0.3-3-1c-0.7-0.6-1-1.7-1-3.1
					v-7.3H325.9z"/>
				<path class="st2" d="M350.1,35.9v-7.2c0-0.9-0.2-1.6-0.6-2c-0.4-0.4-1.1-0.7-1.9-0.7c-1.2,0-2,0.3-2.6,0.9
					c-0.5,0.6-0.8,1.7-0.8,3.1v5.8h-1.7V24.8h1.4l0.3,1.5h0.1c0.3-0.5,0.8-1,1.4-1.3c0.6-0.3,1.3-0.5,2.1-0.5c1.3,0,2.3,0.3,3,1
					c0.7,0.6,1,1.7,1,3.1v7.2H350.1z"/>
				<path class="st2" d="M359.9,36.1c-1.6,0-2.9-0.5-3.9-1.5c-0.9-1-1.4-2.4-1.4-4.2c0-1.8,0.4-3.2,1.3-4.3c0.9-1.1,2.1-1.6,3.6-1.6
					c1.4,0,2.5,0.5,3.3,1.4c0.8,0.9,1.2,2.1,1.2,3.6v1.1h-7.7c0,1.3,0.4,2.3,1,3s1.5,1,2.6,1c1.2,0,2.4-0.2,3.5-0.8v1.5
					c-0.6,0.3-1.2,0.4-1.7,0.6C361.3,36,360.7,36.1,359.9,36.1z M359.5,26c-0.9,0-1.6,0.3-2.1,0.9c-0.5,0.6-0.8,1.4-0.9,2.4h5.8
					c0-1.1-0.2-1.9-0.7-2.4C361,26.3,360.4,26,359.5,26z"/>
				<path class="st2" d="M371.6,36.1c-1.6,0-2.9-0.5-3.9-1.5c-0.9-1-1.4-2.4-1.4-4.2c0-1.8,0.4-3.2,1.3-4.3c0.9-1.1,2.1-1.6,3.6-1.6
					c1.4,0,2.5,0.5,3.3,1.4c0.8,0.9,1.2,2.1,1.2,3.6v1.1H368c0,1.3,0.4,2.3,1,3c0.6,0.7,1.5,1,2.6,1c1.2,0,2.4-0.2,3.5-0.8v1.5
					c-0.6,0.3-1.2,0.4-1.7,0.6C373,36,372.3,36.1,371.6,36.1z M371.1,26c-0.9,0-1.6,0.3-2.1,0.9c-0.5,0.6-0.8,1.4-0.9,2.4h5.8
					c0-1.1-0.2-1.9-0.7-2.4C372.7,26.3,372,26,371.1,26z"/>
				<path class="st2" d="M386.1,34.4L386.1,34.4c-0.9,1.1-2,1.7-3.6,1.7c-1.5,0-2.6-0.5-3.4-1.5c-0.8-1-1.2-2.4-1.2-4.2
					s0.4-3.3,1.2-4.3c0.8-1,1.9-1.5,3.4-1.5c1.5,0,2.7,0.5,3.5,1.6h0.1l-0.1-0.8l0-0.8v-4.5h1.7v15.8h-1.4L386.1,34.4z M382.7,34.7
					c1.1,0,2-0.3,2.5-0.9c0.5-0.6,0.8-1.6,0.8-3v-0.4c0-1.6-0.3-2.7-0.8-3.4c-0.5-0.7-1.4-1-2.5-1c-1,0-1.7,0.4-2.3,1.2
					c-0.5,0.8-0.8,1.9-0.8,3.2c0,1.4,0.3,2.5,0.8,3.2C381,34.3,381.7,34.7,382.7,34.7z"/>
				<path class="st2" d="M396.5,21.8c0-0.4,0.1-0.7,0.3-0.8c0.2-0.2,0.4-0.3,0.7-0.3c0.3,0,0.5,0.1,0.7,0.3c0.2,0.2,0.3,0.5,0.3,0.8
					s-0.1,0.7-0.3,0.8c-0.2,0.2-0.4,0.3-0.7,0.3c-0.3,0-0.5-0.1-0.7-0.3C396.6,22.4,396.5,22.1,396.5,21.8z M398.3,35.9h-1.7V24.8
					h1.7V35.9z"/>
				<path class="st2" d="M405.5,34.7c0.3,0,0.6,0,0.9-0.1s0.5-0.1,0.7-0.1v1.3c-0.2,0.1-0.5,0.2-0.8,0.2c-0.4,0.1-0.7,0.1-1,0.1
					c-2.1,0-3.2-1.1-3.2-3.4v-6.6h-1.6v-0.8l1.6-0.7l0.7-2.4h1v2.6h3.2v1.3h-3.2v6.5c0,0.7,0.2,1.2,0.5,1.5
					C404.5,34.5,404.9,34.7,405.5,34.7z"/>
			</g>
		</g>
	</g>
	<g id="c1">
		<g id="Put_data_to_work__wherever_you_need_it_1_">
			<g id="Put_data_to_work__wherever_you_need_it_2_">
				<path class="st2" d="M207.1,25.4c0,1.5-0.5,2.7-1.5,3.5s-2.5,1.2-4.4,1.2h-1.7v5.8h-1.7V21.1h3.8
					C205.2,21.1,207.1,22.5,207.1,25.4z M199.4,28.6h1.6c1.5,0,2.6-0.2,3.3-0.7c0.7-0.5,1-1.3,1-2.4c0-1-0.3-1.7-1-2.2
					c-0.6-0.5-1.6-0.7-3-0.7h-1.9V28.6z"/>
				<path class="st2" d="M211.5,24.8V32c0,0.9,0.2,1.6,0.6,2c0.4,0.4,1.1,0.7,1.9,0.7c1.2,0,2-0.3,2.5-1c0.5-0.6,0.8-1.7,0.8-3.1
					v-5.8h1.7v11.1h-1.4l-0.2-1.5h-0.1c-0.3,0.5-0.8,1-1.4,1.3c-0.6,0.3-1.3,0.4-2.1,0.4c-1.4,0-2.4-0.3-3-1c-0.7-0.6-1-1.7-1-3.1
					v-7.3H211.5z"/>
				<path class="st2" d="M226.3,34.7c0.3,0,0.6,0,0.9-0.1c0.3,0,0.5-0.1,0.7-0.1v1.3c-0.2,0.1-0.5,0.2-0.8,0.2
					c-0.4,0.1-0.7,0.1-1,0.1c-2.1,0-3.2-1.1-3.2-3.4v-6.6h-1.6v-0.8l1.6-0.7l0.7-2.4h1v2.6h3.2v1.3h-3.2v6.5c0,0.7,0.2,1.2,0.5,1.5
					C225.3,34.5,225.7,34.7,226.3,34.7z"/>
				<path class="st2" d="M243,34.4L243,34.4c-0.9,1.1-2,1.7-3.6,1.7c-1.5,0-2.6-0.5-3.4-1.5c-0.8-1-1.2-2.4-1.2-4.2s0.4-3.3,1.2-4.3
					s1.9-1.5,3.4-1.5c1.5,0,2.7,0.5,3.5,1.6h0.1l-0.1-0.8l0-0.8v-4.5h1.7v15.8h-1.4L243,34.4z M239.6,34.7c1.1,0,2-0.3,2.5-0.9
					s0.8-1.6,0.8-3v-0.4c0-1.6-0.3-2.7-0.8-3.4c-0.5-0.7-1.4-1-2.5-1c-1,0-1.7,0.4-2.3,1.2c-0.5,0.8-0.8,1.9-0.8,3.2
					c0,1.4,0.3,2.5,0.8,3.2S238.6,34.7,239.6,34.7z"/>
				<path class="st2" d="M255,35.9l-0.3-1.6h-0.1c-0.6,0.7-1.1,1.2-1.7,1.4c-0.6,0.2-1.2,0.4-2.1,0.4c-1.1,0-2-0.3-2.6-0.9
					c-0.6-0.6-0.9-1.4-0.9-2.4c0-2.2,1.8-3.4,5.4-3.5l1.9-0.1v-0.7c0-0.9-0.2-1.5-0.6-1.9c-0.4-0.4-1-0.6-1.8-0.6
					c-0.9,0-2,0.3-3.1,0.9l-0.5-1.3c0.5-0.3,1.1-0.5,1.8-0.7c0.7-0.2,1.3-0.3,2-0.3c1.3,0,2.3,0.3,2.9,0.9c0.6,0.6,1,1.5,1,2.8v7.6
					H255z M251.2,34.7c1,0,1.9-0.3,2.5-0.9c0.6-0.6,0.9-1.4,0.9-2.4v-1l-1.7,0.1c-1.3,0-2.3,0.3-2.9,0.6c-0.6,0.4-0.9,0.9-0.9,1.7
					c0,0.6,0.2,1.1,0.6,1.4C250,34.5,250.5,34.7,251.2,34.7z"/>
				<path class="st2" d="M263.3,34.7c0.3,0,0.6,0,0.9-0.1c0.3,0,0.5-0.1,0.7-0.1v1.3c-0.2,0.1-0.5,0.2-0.8,0.2
					c-0.4,0.1-0.7,0.1-1,0.1c-2.1,0-3.2-1.1-3.2-3.4v-6.6h-1.6v-0.8l1.6-0.7l0.7-2.4h1v2.6h3.2v1.3h-3.2v6.5c0,0.7,0.2,1.2,0.5,1.5
					C262.3,34.5,262.7,34.7,263.3,34.7z"/>
				<path class="st2" d="M273.8,35.9l-0.3-1.6h-0.1c-0.6,0.7-1.1,1.2-1.7,1.4c-0.6,0.2-1.2,0.4-2.1,0.4c-1.1,0-2-0.3-2.6-0.9
					c-0.6-0.6-0.9-1.4-0.9-2.4c0-2.2,1.8-3.4,5.4-3.5l1.9-0.1v-0.7c0-0.9-0.2-1.5-0.6-1.9c-0.4-0.4-1-0.6-1.8-0.6
					c-0.9,0-2,0.3-3.1,0.9l-0.5-1.3c0.5-0.3,1.1-0.5,1.8-0.7c0.7-0.2,1.3-0.3,2-0.3c1.3,0,2.3,0.3,2.9,0.9c0.6,0.6,1,1.5,1,2.8v7.6
					H273.8z M270,34.7c1,0,1.9-0.3,2.5-0.9c0.6-0.6,0.9-1.4,0.9-2.4v-1l-1.7,0.1c-1.3,0-2.3,0.3-2.9,0.6c-0.6,0.4-0.9,0.9-0.9,1.7
					c0,0.6,0.2,1.1,0.6,1.4C268.9,34.5,269.4,34.7,270,34.7z"/>
				<path class="st2" d="M287.5,34.7c0.3,0,0.6,0,0.9-0.1c0.3,0,0.5-0.1,0.7-0.1v1.3c-0.2,0.1-0.5,0.2-0.8,0.2
					c-0.4,0.1-0.7,0.1-1,0.1c-2.1,0-3.2-1.1-3.2-3.4v-6.6h-1.6v-0.8l1.6-0.7l0.7-2.4h1v2.6h3.2v1.3h-3.2v6.5c0,0.7,0.2,1.2,0.5,1.5
					C286.5,34.5,287,34.7,287.5,34.7z"/>
				<path class="st2" d="M300.9,30.3c0,1.8-0.5,3.2-1.4,4.2s-2.2,1.5-3.8,1.5c-1,0-1.9-0.2-2.6-0.7s-1.4-1.1-1.8-2
					c-0.4-0.9-0.6-1.9-0.6-3.1c0-1.8,0.5-3.2,1.4-4.2c0.9-1,2.2-1.5,3.8-1.5c1.6,0,2.8,0.5,3.7,1.6
					C300.4,27.2,300.9,28.6,300.9,30.3z M292.4,30.3c0,1.4,0.3,2.5,0.9,3.2c0.6,0.7,1.4,1.1,2.5,1.1s1.9-0.4,2.5-1.1
					c0.6-0.7,0.9-1.8,0.9-3.2c0-1.4-0.3-2.5-0.9-3.2c-0.6-0.7-1.4-1.1-2.5-1.1c-1.1,0-1.9,0.4-2.5,1.1S292.4,28.9,292.4,30.3z"/>
				<path class="st2" d="M318.3,35.9l-2-6.5c-0.1-0.4-0.4-1.3-0.7-2.7h-0.1c-0.3,1.2-0.5,2.1-0.7,2.7l-2.1,6.5h-1.9l-3-11.1h1.8
					c0.7,2.8,1.3,4.9,1.6,6.4s0.6,2.4,0.6,3h0.1c0.1-0.4,0.2-0.9,0.4-1.5c0.2-0.6,0.3-1.1,0.4-1.5l2-6.4h1.8l2,6.4
					c0.4,1.2,0.6,2.1,0.8,2.9h0.1c0-0.2,0.1-0.6,0.2-1.1s0.8-3.2,2.1-8.2h1.7l-3.1,11.1H318.3z"/>
				<path class="st2" d="M334.9,30.3c0,1.8-0.5,3.2-1.4,4.2s-2.2,1.5-3.8,1.5c-1,0-1.9-0.2-2.6-0.7s-1.4-1.1-1.8-2
					c-0.4-0.9-0.6-1.9-0.6-3.1c0-1.8,0.5-3.2,1.4-4.2c0.9-1,2.2-1.5,3.8-1.5c1.6,0,2.8,0.5,3.7,1.6
					C334.5,27.2,334.9,28.6,334.9,30.3z M326.5,30.3c0,1.4,0.3,2.5,0.9,3.2c0.6,0.7,1.4,1.1,2.5,1.1s1.9-0.4,2.5-1.1
					c0.6-0.7,0.9-1.8,0.9-3.2c0-1.4-0.3-2.5-0.9-3.2c-0.6-0.7-1.4-1.1-2.5-1.1c-1.1,0-1.9,0.4-2.5,1.1S326.5,28.9,326.5,30.3z"/>
				<path class="st2" d="M343,24.6c0.5,0,0.9,0,1.3,0.1l-0.2,1.6c-0.5-0.1-0.9-0.2-1.2-0.2c-0.9,0-1.7,0.4-2.3,1.1s-1,1.6-1,2.7v6
					h-1.7V24.8h1.4l0.2,2.1h0.1c0.4-0.7,0.9-1.3,1.5-1.7C341.6,24.8,342.3,24.6,343,24.6z"/>
				<path class="st2" d="M348,30.2c0.3-0.4,0.7-1,1.3-1.6l3.6-3.8h2l-4.5,4.7l4.8,6.4h-2l-3.9-5.3l-1.3,1.1v4.2h-1.7V20.1h1.7v8.4
					C348,28.8,348,29.4,348,30.2L348,30.2z"/>
				<path class="st2" d="M206.5,64.7l-2-6.5c-0.1-0.4-0.4-1.3-0.7-2.7h-0.1c-0.3,1.2-0.5,2.1-0.7,2.7l-2.1,6.5h-1.9l-3-11.1h1.8
					c0.7,2.8,1.3,4.9,1.6,6.4s0.6,2.4,0.6,3h0.1c0.1-0.4,0.2-0.9,0.4-1.5c0.2-0.6,0.3-1.1,0.4-1.5l2-6.4h1.8l2,6.4
					c0.4,1.2,0.6,2.1,0.8,2.9h0.1c0-0.2,0.1-0.6,0.2-1.1s0.8-3.2,2.1-8.2h1.7l-3.1,11.1H206.5z"/>
				<path class="st2" d="M221.2,64.7v-7.2c0-0.9-0.2-1.6-0.6-2c-0.4-0.4-1.1-0.7-1.9-0.7c-1.2,0-2,0.3-2.6,1
					c-0.5,0.6-0.8,1.7-0.8,3.1v5.8h-1.7V48.9h1.7v4.8c0,0.6,0,1.1-0.1,1.4h0.1c0.3-0.5,0.8-1,1.4-1.3c0.6-0.3,1.3-0.5,2.1-0.5
					c1.4,0,2.4,0.3,3.1,1s1,1.7,1,3.1v7.2H221.2z"/>
				<path class="st2" d="M231,64.9c-1.6,0-2.9-0.5-3.9-1.5c-0.9-1-1.4-2.4-1.4-4.2c0-1.8,0.4-3.2,1.3-4.3c0.9-1.1,2.1-1.6,3.6-1.6
					c1.4,0,2.5,0.5,3.3,1.4c0.8,0.9,1.2,2.1,1.2,3.6v1.1h-7.7c0,1.3,0.4,2.3,1,3s1.5,1,2.6,1c1.2,0,2.4-0.2,3.5-0.8v1.5
					c-0.6,0.3-1.2,0.4-1.7,0.6C232.4,64.9,231.8,64.9,231,64.9z M230.6,54.8c-0.9,0-1.6,0.3-2.1,0.9c-0.5,0.6-0.8,1.4-0.9,2.4h5.8
					c0-1.1-0.2-1.9-0.7-2.4S231.4,54.8,230.6,54.8z"/>
				<path class="st2" d="M243,53.4c0.5,0,0.9,0,1.3,0.1l-0.2,1.6c-0.5-0.1-0.9-0.2-1.2-0.2c-0.9,0-1.7,0.4-2.3,1.1
					c-0.6,0.7-1,1.6-1,2.7v6H238V53.6h1.4l0.2,2.1h0.1c0.4-0.7,0.9-1.3,1.5-1.7C241.7,53.6,242.3,53.4,243,53.4z"/>
				<path class="st2" d="M251.1,64.9c-1.6,0-2.9-0.5-3.9-1.5c-0.9-1-1.4-2.4-1.4-4.2c0-1.8,0.4-3.2,1.3-4.3c0.9-1.1,2.1-1.6,3.6-1.6
					c1.4,0,2.5,0.5,3.3,1.4c0.8,0.9,1.2,2.1,1.2,3.6v1.1h-7.7c0,1.3,0.4,2.3,1,3s1.5,1,2.6,1c1.2,0,2.4-0.2,3.5-0.8v1.5
					c-0.6,0.3-1.2,0.4-1.7,0.6C252.5,64.9,251.9,64.9,251.1,64.9z M250.7,54.8c-0.9,0-1.6,0.3-2.1,0.9c-0.5,0.6-0.8,1.4-0.9,2.4h5.8
					c0-1.1-0.2-1.9-0.7-2.4S251.6,54.8,250.7,54.8z"/>
				<path class="st2" d="M260.5,64.7l-4.2-11.1h1.8l2.4,6.6c0.5,1.5,0.9,2.5,1,3h0.1c0.1-0.4,0.3-1.1,0.7-2.2
					c0.4-1.1,1.3-3.6,2.7-7.4h1.8l-4.2,11.1H260.5z"/>
				<path class="st2" d="M273.2,64.9c-1.6,0-2.9-0.5-3.9-1.5c-0.9-1-1.4-2.4-1.4-4.2c0-1.8,0.4-3.2,1.3-4.3c0.9-1.1,2.1-1.6,3.6-1.6
					c1.4,0,2.5,0.5,3.3,1.4c0.8,0.9,1.2,2.1,1.2,3.6v1.1h-7.7c0,1.3,0.4,2.3,1,3s1.5,1,2.6,1c1.2,0,2.4-0.2,3.5-0.8v1.5
					c-0.6,0.3-1.2,0.4-1.7,0.6C274.6,64.9,273.9,64.9,273.2,64.9z M272.7,54.8c-0.9,0-1.6,0.3-2.1,0.9c-0.5,0.6-0.8,1.4-0.9,2.4h5.8
					c0-1.1-0.2-1.9-0.7-2.4S273.6,54.8,272.7,54.8z"/>
				<path class="st2" d="M285.2,53.4c0.5,0,0.9,0,1.3,0.1l-0.2,1.6c-0.5-0.1-0.9-0.2-1.2-0.2c-0.9,0-1.7,0.4-2.3,1.1
					c-0.6,0.7-1,1.6-1,2.7v6h-1.7V53.6h1.4l0.2,2.1h0.1c0.4-0.7,0.9-1.3,1.5-1.7C283.9,53.6,284.5,53.4,285.2,53.4z"/>
				<path class="st2" d="M292.3,53.6h1.8l2.4,6.3c0.5,1.4,0.9,2.5,1,3.1h0.1c0.1-0.3,0.3-0.9,0.6-1.8s1.2-3.4,2.8-7.7h1.8l-4.8,12.7
					c-0.5,1.2-1,2.1-1.7,2.7c-0.6,0.5-1.4,0.8-2.3,0.8c-0.5,0-1-0.1-1.5-0.2v-1.3c0.4,0.1,0.8,0.1,1.2,0.1c1.2,0,2-0.6,2.5-1.9
					l0.6-1.6L292.3,53.6z"/>
				<path class="st2" d="M314.1,59.2c0,1.8-0.5,3.2-1.4,4.2c-0.9,1-2.2,1.5-3.8,1.5c-1,0-1.9-0.2-2.6-0.7c-0.8-0.5-1.4-1.1-1.8-2
					c-0.4-0.9-0.6-1.9-0.6-3.1c0-1.8,0.5-3.2,1.4-4.2c0.9-1,2.2-1.5,3.8-1.5c1.6,0,2.8,0.5,3.7,1.6C313.6,56,314.1,57.4,314.1,59.2z
					 M305.6,59.2c0,1.4,0.3,2.5,0.9,3.2c0.6,0.7,1.4,1.1,2.5,1.1s1.9-0.4,2.5-1.1c0.6-0.7,0.9-1.8,0.9-3.2c0-1.4-0.3-2.5-0.9-3.2
					c-0.6-0.7-1.4-1.1-2.5-1.1c-1.1,0-1.9,0.4-2.5,1.1C305.9,56.6,305.6,57.7,305.6,59.2z"/>
				<path class="st2" d="M318.6,53.6v7.2c0,0.9,0.2,1.6,0.6,2c0.4,0.4,1.1,0.7,1.9,0.7c1.2,0,2-0.3,2.5-1c0.5-0.6,0.8-1.7,0.8-3.1
					v-5.8h1.7v11.1h-1.4l-0.2-1.5h-0.1c-0.3,0.5-0.8,1-1.4,1.3c-0.6,0.3-1.3,0.4-2.1,0.4c-1.4,0-2.4-0.3-3-1c-0.7-0.6-1-1.7-1-3.1
					v-7.3H318.6z"/>
				<path class="st2" d="M342.8,64.7v-7.2c0-0.9-0.2-1.6-0.6-2c-0.4-0.4-1.1-0.7-1.9-0.7c-1.2,0-2,0.3-2.6,0.9
					c-0.5,0.6-0.8,1.7-0.8,3.1v5.8h-1.7V53.6h1.4l0.3,1.5h0.1c0.3-0.5,0.8-1,1.4-1.3c0.6-0.3,1.3-0.5,2.1-0.5c1.3,0,2.3,0.3,3,1
					s1,1.7,1,3.1v7.2H342.8z"/>
				<path class="st2" d="M352.6,64.9c-1.6,0-2.9-0.5-3.9-1.5c-0.9-1-1.4-2.4-1.4-4.2c0-1.8,0.4-3.2,1.3-4.3c0.9-1.1,2.1-1.6,3.6-1.6
					c1.4,0,2.5,0.5,3.3,1.4c0.8,0.9,1.2,2.1,1.2,3.6v1.1H349c0,1.3,0.4,2.3,1,3s1.5,1,2.6,1c1.2,0,2.4-0.2,3.5-0.8v1.5
					c-0.6,0.3-1.2,0.4-1.7,0.6C354,64.9,353.3,64.9,352.6,64.9z M352.1,54.8c-0.9,0-1.6,0.3-2.1,0.9c-0.5,0.6-0.8,1.4-0.9,2.4h5.8
					c0-1.1-0.2-1.9-0.7-2.4S353,54.8,352.1,54.8z"/>
				<path class="st2" d="M364.2,64.9c-1.6,0-2.9-0.5-3.9-1.5c-0.9-1-1.4-2.4-1.4-4.2c0-1.8,0.4-3.2,1.3-4.3c0.9-1.1,2.1-1.6,3.6-1.6
					c1.4,0,2.5,0.5,3.3,1.4c0.8,0.9,1.2,2.1,1.2,3.6v1.1h-7.7c0,1.3,0.4,2.3,1,3s1.5,1,2.6,1c1.2,0,2.4-0.2,3.5-0.8v1.5
					c-0.6,0.3-1.2,0.4-1.7,0.6C365.6,64.9,365,64.9,364.2,64.9z M363.8,54.8c-0.9,0-1.6,0.3-2.1,0.9c-0.5,0.6-0.8,1.4-0.9,2.4h5.8
					c0-1.1-0.2-1.9-0.7-2.4S364.7,54.8,363.8,54.8z"/>
				<path class="st2" d="M378.8,63.2L378.8,63.2c-0.9,1.1-2,1.7-3.6,1.7c-1.5,0-2.6-0.5-3.4-1.5c-0.8-1-1.2-2.4-1.2-4.2
					c0-1.8,0.4-3.3,1.2-4.3c0.8-1,1.9-1.5,3.4-1.5c1.5,0,2.7,0.5,3.5,1.6h0.1l-0.1-0.8l0-0.8v-4.5h1.7v15.8H379L378.8,63.2z
					 M375.4,63.5c1.1,0,2-0.3,2.5-0.9c0.5-0.6,0.8-1.6,0.8-3v-0.4c0-1.6-0.3-2.7-0.8-3.4c-0.5-0.7-1.4-1-2.5-1c-1,0-1.7,0.4-2.3,1.2
					c-0.5,0.8-0.8,1.9-0.8,3.2c0,1.4,0.3,2.5,0.8,3.2C373.6,63.2,374.4,63.5,375.4,63.5z"/>
				<path class="st2" d="M389.2,50.6c0-0.4,0.1-0.7,0.3-0.8c0.2-0.2,0.4-0.3,0.7-0.3c0.3,0,0.5,0.1,0.7,0.3c0.2,0.2,0.3,0.5,0.3,0.8
					c0,0.4-0.1,0.7-0.3,0.8c-0.2,0.2-0.4,0.3-0.7,0.3c-0.3,0-0.5-0.1-0.7-0.3C389.3,51.3,389.2,51,389.2,50.6z M391,64.7h-1.7V53.6
					h1.7V64.7z"/>
				<path class="st2" d="M398.2,63.5c0.3,0,0.6,0,0.9-0.1s0.5-0.1,0.7-0.1v1.3c-0.2,0.1-0.5,0.2-0.8,0.2c-0.4,0.1-0.7,0.1-1,0.1
					c-2.1,0-3.2-1.1-3.2-3.4v-6.6h-1.6v-0.8l1.6-0.7l0.7-2.4h1v2.6h3.2v1.3h-3.2v6.5c0,0.7,0.2,1.2,0.5,1.5
					C397.2,63.4,397.6,63.5,398.2,63.5z"/>
			</g>
		</g>
	</g>
</g>
<g id="B1-300x600-F3">
</g>
</svg>
