<svg xmlns="http://www.w3.org/2000/svg" xmlns:xlink="http://www.w3.org/1999/xlink" viewBox="0 0 160 600">
  <defs>
    <style>
      .cls-1, .cls-9 {
        fill: none;
      }

      .cls-2 {
        clip-path: url(#clip-path);
      }

      .cls-3 {
        opacity: 0.95;
        fill: url(#Degradado_sin_nombre_4);
      }

      .cls-3, .cls-5 {
        isolation: isolate;
      }

      .cls-4 {
        fill: url(#Degradado_sin_nombre_2);
      }

      .cls-6 {
        fill: #fff;
      }

      .cls-7 {
        clip-path: url(#clip-path-2);
      }

      .cls-8 {
        opacity: 0.29;
        fill: url(#linear-gradient);
      }

      .cls-9 {
        stroke: #fff;
        stroke-miterlimit: 10;
        stroke-width: 0.81px;
      }

      .cls-10 {
        fill: #030504;
      }

      .cls-11 {
        fill: #e4001b;
      }
    </style>
    <clipPath id="clip-path">
      <rect class="cls-1" width="160" height="600"/>
    </clipPath>
    <radialGradient id="Degradado_sin_nombre_4" data-name="Degradado sin nombre 4" cx="597.21" cy="-206.05" r="0.41" gradientTransform="matrix(542.92, 0, 0, -563.83, -324165.79, -115871.25)" gradientUnits="userSpaceOnUse">
      <stop offset="0" stop-color="#fff"/>
      <stop offset="0.26" stop-color="#fff" stop-opacity="0.68"/>
      <stop offset="0.53" stop-color="#fff" stop-opacity="0.39"/>
      <stop offset="0.75" stop-color="#fff" stop-opacity="0.18"/>
      <stop offset="0.91" stop-color="#fff" stop-opacity="0.05"/>
      <stop offset="1" stop-color="#fff" stop-opacity="0"/>
    </radialGradient>
    <radialGradient id="Degradado_sin_nombre_2" data-name="Degradado sin nombre 2" cx="554.59" cy="-251.02" r="0.27" gradientTransform="matrix(14.65, 129.43, 9.75, -113.47, -5594.96, -99850.32)" gradientUnits="userSpaceOnUse">
      <stop offset="0"/>
      <stop offset="0.63" stop-color="#040404" stop-opacity="0.97"/>
      <stop offset="1" stop-color="gray" stop-opacity="0"/>
    </radialGradient>
    <clipPath id="clip-path-2">
      <rect id="Rectangle_5685" data-name="Rectangle 5685" class="cls-1" x="25.09" y="179.82" width="113.8" height="27.32"/>
    </clipPath>
    <linearGradient id="linear-gradient" x1="13.04" y1="183.19" x2="-104.94" y2="209.68" gradientUnits="userSpaceOnUse">
      <stop offset="0"/>
      <stop offset="0.24" stop-color="#fff"/>
      <stop offset="0.46"/>
      <stop offset="0.71" stop-color="#fff"/>
      <stop offset="1"/>
    </linearGradient>
  </defs>
  <g id="_160x600" data-name="160x600">
    <g class="cls-2">
      <g id="BG">
        <image id="GettyImages-561860327" width="901" height="803" transform="translate(-286.85 -37.27) scale(0.84)" xlink:href="awareness1-300x2501.jpg"/>
        <ellipse id="back_light_ellipse" data-name="back light ellipse" class="cls-3" cx="91.58" cy="319.06" rx="246.33" ry="255.82"/>
        <image id="shadow_layer_300x" data-name="shadow_layer@300x" width="600" height="491" transform="translate(-20.51 351.57) scale(0.35)" xlink:href="awareness11.png"/>
        <ellipse id="Elipse_70" data-name="Elipse 70" class="cls-4" cx="80.5" cy="414.61" rx="5.37" ry="54.44" transform="translate(-335.42 488.05) rotate(-89.03)"/>
        <image id="PT200827_004C1-removebg" width="500" height="345" transform="translate(29.48 420.9) rotate(-90) scale(0.29)" xlink:href="awareness1-300x2503.png"/>
        <image id="shine1_300x" data-name="shine1@300x" width="1721" height="1721" transform="translate(17.26 262.79) scale(0.03)" xlink:href="awareness21.png"/>
      </g>
      <g id="f2">
        <g id="With_The_Choice_And_performance_Of_Colocation_" data-name="With The Choice And performance Of Colocation " class="cls-5">
          <g class="cls-5">
            <path class="cls-6" d="M24.3,112.31h2.51L29,119.54l2.4-7.26h2l2.39,7.26L38,112.31h2.46l-3.65,10.75h-2l-2.41-7-2.41,7h-2Z"/>
            <path class="cls-6" d="M41.8,111.85h2.44v2.06H41.8Zm.06,3h2.32V123H41.86Z"/>
            <path class="cls-6" d="M46.74,120.66v-3.87h-1v-2h1v-2.09h2.32v2.09H51v2H49.06v3.49c0,.54.23.8.75.8a2.38,2.38,0,0,0,1.14-.29v1.86a3.41,3.41,0,0,1-1.83.47C47.7,123.12,46.74,122.56,46.74,120.66Z"/>
            <path class="cls-6" d="M52.69,111.85H55V116a2.87,2.87,0,0,1,2.39-1.31c1.75,0,2.78,1.16,2.78,3V123H57.86v-4.56c0-1.09-.52-1.66-1.4-1.66s-1.45.57-1.45,1.66V123H52.69Z"/>
            <path class="cls-6" d="M69.49,114.48H66.25v-2.17h8.84v2.17H71.84V123H69.49Z"/>
            <path class="cls-6" d="M76.65,111.85H79V116a2.89,2.89,0,0,1,2.4-1.31c1.75,0,2.77,1.16,2.77,3V123H81.81v-4.56c0-1.09-.51-1.66-1.4-1.66s-1.45.57-1.45,1.66V123H76.65Z"/>
            <path class="cls-6" d="M85.75,118.94v0a4.07,4.07,0,0,1,4-4.25c2.73,0,4,2.12,4,4.44,0,.18,0,.39,0,.6H88.05a1.9,1.9,0,0,0,2,1.61,2.69,2.69,0,0,0,2-.84l1.33,1.17a4.32,4.32,0,0,1-7.61-2.7Zm5.76-.68a1.74,1.74,0,0,0-1.72-1.74A1.82,1.82,0,0,0,88,118.26Z"/>
          </g>
          <g class="cls-5">
            <path class="cls-6" d="M24.65,134v0a5.42,5.42,0,0,1,5.56-5.52,5.53,5.53,0,0,1,4.21,1.64l-1.49,1.73a4,4,0,0,0-2.73-1.21A3.17,3.17,0,0,0,27.1,134v0a3.17,3.17,0,0,0,3.1,3.35,3.85,3.85,0,0,0,2.8-1.25l1.5,1.51a5.47,5.47,0,0,1-4.38,1.9A5.38,5.38,0,0,1,24.65,134Z"/>
            <path class="cls-6" d="M36.13,128.19h2.32v4.12A2.87,2.87,0,0,1,40.84,131c1.75,0,2.78,1.16,2.78,3v5.29H41.3v-4.56c0-1.09-.52-1.66-1.4-1.66s-1.45.57-1.45,1.66v4.56H36.13Z"/>
            <path class="cls-6" d="M45.23,135.28v0a4.43,4.43,0,0,1,8.85,0v0a4.43,4.43,0,0,1-8.85,0Zm6.56,0v0A2.18,2.18,0,0,0,49.64,133a2.1,2.1,0,0,0-2.12,2.23v0a2.18,2.18,0,0,0,2.15,2.26A2.09,2.09,0,0,0,51.79,135.28Z"/>
            <path class="cls-6" d="M55.8,128.19h2.44v2.06H55.8Zm.06,3h2.32v8.17H55.86Z"/>
            <path class="cls-6" d="M60,135.28v0A4.2,4.2,0,0,1,64.25,131a4,4,0,0,1,3.26,1.37l-1.42,1.52a2.41,2.41,0,0,0-1.86-.9,2.09,2.09,0,0,0-2,2.23v0a2.1,2.1,0,0,0,2.07,2.26,2.6,2.6,0,0,0,1.88-.87L67.56,138a4.12,4.12,0,0,1-3.34,1.49A4.17,4.17,0,0,1,60,135.28Z"/>
            <path class="cls-6" d="M68.44,135.28v0a4.07,4.07,0,0,1,4-4.25c2.73,0,4,2.12,4,4.43,0,.19,0,.4,0,.61H70.74a1.9,1.9,0,0,0,2,1.6,2.68,2.68,0,0,0,2-.83L76.05,138a4.32,4.32,0,0,1-7.61-2.7Zm5.77-.68a1.76,1.76,0,0,0-1.73-1.74c-1,0-1.58.68-1.77,1.74Z"/>
            <path class="cls-6" d="M86.66,128.57h2.17l4.57,10.75H91l-1-2.39H85.46l-1,2.39H82.09Zm2.47,6.28-1.41-3.46-1.42,3.46Z"/>
            <path class="cls-6" d="M94.81,131.15h2.31v1.16a2.89,2.89,0,0,1,2.4-1.31c1.75,0,2.77,1.16,2.77,3v5.29H100v-4.56c0-1.09-.52-1.66-1.41-1.66s-1.45.57-1.45,1.66v4.56H94.81Z"/>
            <path class="cls-6" d="M103.94,135.25v0c0-2.73,1.79-4.22,3.72-4.22a3.13,3.13,0,0,1,2.55,1.22v-4h2.31v11.13h-2.31v-1.17a3,3,0,0,1-2.55,1.32C105.76,139.47,103.94,138,103.94,135.25Zm6.3,0v0a2,2,0,1,0-4,0v0a2,2,0,1,0,4,0Z"/>
          </g>
          <g class="cls-5">
            <path class="cls-6" d="M25.12,145h4.36c2.55,0,4.09,1.51,4.09,3.69v0c0,2.47-1.92,3.75-4.32,3.75H27.47v3.2H25.12Zm4.21,5.38a1.65,1.65,0,0,0,1.86-1.62v0c0-1.05-.73-1.61-1.91-1.61H27.47v3.26Z"/>
            <path class="cls-6" d="M34.59,151.62v0a4.07,4.07,0,0,1,4-4.25c2.73,0,4,2.12,4,4.43,0,.19,0,.4,0,.61H36.89a1.9,1.9,0,0,0,2,1.6,2.65,2.65,0,0,0,2-.84l1.33,1.18a4.32,4.32,0,0,1-7.61-2.7Zm5.76-.69a1.74,1.74,0,0,0-1.72-1.73,1.82,1.82,0,0,0-1.77,1.73Z"/>
            <path class="cls-6" d="M44.34,147.49h2.31v1.65a2.53,2.53,0,0,1,2.61-1.8v2.42h-.12c-1.54,0-2.49.93-2.49,2.88v3H44.34Z"/>
            <path class="cls-6" d="M51.11,149.47h-1v-1.9h1v-.52a2.67,2.67,0,0,1,.65-2,2.53,2.53,0,0,1,1.88-.64,5.31,5.31,0,0,1,1.64.22v1.92a2.93,2.93,0,0,0-1.05-.19c-.53,0-.84.27-.84.88v.32h1.88v1.89H53.42v6.19H51.11Z"/>
            <path class="cls-6" d="M56,151.62v0a4.42,4.42,0,0,1,8.84,0v0a4.29,4.29,0,0,1-4.44,4.25A4.24,4.24,0,0,1,56,151.62Zm6.55,0v0a2.18,2.18,0,0,0-2.15-2.26,2.1,2.1,0,0,0-2.12,2.23v0a2.18,2.18,0,0,0,2.15,2.26A2.1,2.1,0,0,0,62.54,151.62Z"/>
            <path class="cls-6" d="M66.51,147.49h2.31v1.65a2.53,2.53,0,0,1,2.61-1.8v2.42h-.12c-1.54,0-2.49.93-2.49,2.88v3H66.51Z"/>
            <path class="cls-6" d="M72.88,147.49H75.2v1.16a2.9,2.9,0,0,1,2.41-1.31,2.45,2.45,0,0,1,2.3,1.29,3.34,3.34,0,0,1,2.68-1.29c1.72,0,2.76,1,2.76,3v5.32H83V151.1c0-1.1-.48-1.66-1.35-1.66s-1.41.56-1.41,1.66v4.56H78V151.1c0-1.1-.49-1.66-1.36-1.66s-1.4.56-1.4,1.66v4.56H72.88Z"/>
            <path class="cls-6" d="M86.88,153.31v0c0-1.78,1.36-2.6,3.29-2.6a5.76,5.76,0,0,1,2,.33v-.14c0-1-.6-1.49-1.75-1.49a6.11,6.11,0,0,0-2.26.44l-.58-1.77a7.29,7.29,0,0,1,3.17-.65,3.76,3.76,0,0,1,2.76.91,3.56,3.56,0,0,1,.88,2.61v4.74H92.15v-.88a3.15,3.15,0,0,1-2.47,1A2.52,2.52,0,0,1,86.88,153.31Zm5.32-.53v-.41a3.51,3.51,0,0,0-1.48-.31c-1,0-1.6.4-1.6,1.13v0c0,.63.52,1,1.27,1C91.47,154.21,92.2,153.62,92.2,152.78Z"/>
            <path class="cls-6" d="M96.39,147.49h2.32v1.16a2.89,2.89,0,0,1,2.39-1.31c1.76,0,2.78,1.16,2.78,3v5.29h-2.32V151.1c0-1.1-.52-1.66-1.4-1.66s-1.45.56-1.45,1.66v4.56H96.39Z"/>
            <path class="cls-6" d="M105.5,151.62v0a4.19,4.19,0,0,1,4.28-4.25,4,4,0,0,1,3.26,1.37l-1.41,1.52a2.39,2.39,0,0,0-1.86-.9,2.1,2.1,0,0,0-2,2.23v0a2.1,2.1,0,0,0,2.08,2.26,2.58,2.58,0,0,0,1.87-.87l1.36,1.37a4.11,4.11,0,0,1-3.34,1.49A4.17,4.17,0,0,1,105.5,151.62Z"/>
            <path class="cls-6" d="M114,151.62v0a4.07,4.07,0,0,1,4-4.25c2.72,0,4,2.12,4,4.43,0,.19,0,.4,0,.61h-5.68a1.9,1.9,0,0,0,2,1.6,2.67,2.67,0,0,0,2-.84l1.32,1.18a4.31,4.31,0,0,1-7.6-2.7Zm5.76-.69A1.75,1.75,0,0,0,118,149.2a1.82,1.82,0,0,0-1.77,1.73Z"/>
          </g>
          <g class="cls-5">
            <path class="cls-6" d="M24.65,167.69v0a5.52,5.52,0,0,1,5.68-5.52A5.47,5.47,0,0,1,36,167.63v0a5.52,5.52,0,0,1-5.69,5.52A5.46,5.46,0,0,1,24.65,167.69Zm8.89,0v0a3.25,3.25,0,0,0-3.24-3.35,3.19,3.19,0,0,0-3.2,3.32v0A3.25,3.25,0,0,0,30.33,171,3.2,3.2,0,0,0,33.54,167.69Z"/>
            <path class="cls-6" d="M38.24,166.81h-1V164.9h1v-.52a2.68,2.68,0,0,1,.65-2,2.58,2.58,0,0,1,1.88-.64,5,5,0,0,1,1.64.23v1.92a2.93,2.93,0,0,0-1-.2c-.53,0-.84.28-.84.89v.32H42.4v1.89H40.55V173H38.24Z"/>
            <path class="cls-6" d="M48,167.69v0a5.43,5.43,0,0,1,5.56-5.52,5.48,5.48,0,0,1,4.21,1.65l-1.49,1.72a4,4,0,0,0-2.73-1.2,3.16,3.16,0,0,0-3.1,3.32v0a3.18,3.18,0,0,0,3.1,3.36,3.85,3.85,0,0,0,2.8-1.25l1.5,1.5a5.45,5.45,0,0,1-4.38,1.91A5.38,5.38,0,0,1,48,167.69Z"/>
            <path class="cls-6" d="M58.94,169v0a4.29,4.29,0,0,1,4.44-4.26,4.25,4.25,0,0,1,4.4,4.23v0a4.42,4.42,0,0,1-8.84,0Zm6.56,0v0a2.17,2.17,0,0,0-2.15-2.26,2.09,2.09,0,0,0-2.12,2.23v0a2.17,2.17,0,0,0,2.15,2.25A2.09,2.09,0,0,0,65.5,169Z"/>
            <path class="cls-6" d="M69.57,161.87h2.32V173H69.57Z"/>
            <path class="cls-6" d="M73.67,169v0a4.29,4.29,0,0,1,4.44-4.26,4.25,4.25,0,0,1,4.4,4.23v0a4.42,4.42,0,0,1-8.84,0Zm6.56,0v0a2.17,2.17,0,0,0-2.15-2.26A2.09,2.09,0,0,0,76,168.9v0a2.17,2.17,0,0,0,2.15,2.25A2.09,2.09,0,0,0,80.23,169Z"/>
            <path class="cls-6" d="M83.8,169v0a4.19,4.19,0,0,1,4.28-4.26,4,4,0,0,1,3.26,1.38l-1.41,1.52a2.39,2.39,0,0,0-1.86-.9,2.09,2.09,0,0,0-2,2.23v0a2.09,2.09,0,0,0,2.08,2.25,2.54,2.54,0,0,0,1.87-.87l1.36,1.38A4.32,4.32,0,0,1,83.8,169Z"/>
            <path class="cls-6" d="M92.41,170.65v0c0-1.78,1.36-2.61,3.3-2.61a5.73,5.73,0,0,1,2,.34v-.14c0-1-.59-1.49-1.75-1.49a6,6,0,0,0-2.26.44l-.57-1.77a7.11,7.11,0,0,1,3.17-.66,3.78,3.78,0,0,1,2.76.92,3.56,3.56,0,0,1,.88,2.61V173H97.69v-.89a3.13,3.13,0,0,1-2.47,1A2.53,2.53,0,0,1,92.41,170.65Zm5.32-.53v-.42a3.59,3.59,0,0,0-1.47-.3c-1,0-1.6.4-1.6,1.13v0c0,.62.51,1,1.26,1C97,171.55,97.73,171,97.73,170.12Z"/>
            <path class="cls-6" d="M102.23,170.68v-3.87h-1v-2h1v-2.09h2.32v2.09h1.92v2h-1.92v3.49c0,.53.23.79.75.79a2.38,2.38,0,0,0,1.14-.29v1.86a3.41,3.41,0,0,1-1.83.47C103.19,173.13,102.23,172.57,102.23,170.68Z"/>
            <path class="cls-6" d="M108.23,161.87h2.44v2.06h-2.44Zm.06,3h2.32V173h-2.32Z"/>
            <path class="cls-6" d="M112.39,169v0a4.29,4.29,0,0,1,4.44-4.26,4.25,4.25,0,0,1,4.4,4.23v0a4.42,4.42,0,0,1-8.84,0Zm6.55,0v0a2.16,2.16,0,0,0-2.14-2.26,2.09,2.09,0,0,0-2.12,2.23v0a2.17,2.17,0,0,0,2.15,2.25A2.09,2.09,0,0,0,118.94,169Z"/>
            <path class="cls-6" d="M122.91,164.83h2.32V166a2.9,2.9,0,0,1,2.39-1.31c1.75,0,2.78,1.16,2.78,3V173h-2.32v-4.56c0-1.1-.52-1.66-1.4-1.66s-1.45.56-1.45,1.66V173h-2.32Z"/>
            <path class="cls-6" d="M133.57,166.9l.08-.08c1.92-.07,2.66-.58,2.66-1.38v0c0-.69-.51-1.09-1.4-1.09a3.17,3.17,0,0,0-2.29,1.05l-1.4-1.53a4.83,4.83,0,0,1,3.74-1.65c2.19,0,3.69,1.13,3.69,3.15v0c0,1.94-1.35,2.73-3,3.07l-.17.93h-1.55Zm-.15,3.66h2.47V173h-2.47Z"/>
          </g>
        </g>
      </g>
      <g id="f3">
        <g id="cta">
          <g class="cls-7">
            <rect id="cta-glow" class="cls-8" x="-287.16" y="136.82" width="463.91" height="123.4"/>
          </g>
          <g id="Learn_more" data-name="Learn more" class="cls-5">
            <g class="cls-5">
              <path class="cls-6" d="M45.19,188.39h2.52v6.89h4.41v2.21H45.19Z"/>
              <path class="cls-6" d="M52.81,194v0a3.53,3.53,0,0,1,3.55-3.68c2.43,0,3.55,1.78,3.55,3.85,0,.16,0,.34,0,.51H55.19a1.46,1.46,0,0,0,1.52,1.15,2.11,2.11,0,0,0,1.56-.71l1.37,1.13a3.69,3.69,0,0,1-3.06,1.43A3.54,3.54,0,0,1,52.81,194Zm4.79-.61a1.27,1.27,0,0,0-1.23-1.28c-.65,0-1.09.51-1.22,1.28Z"/>
              <path class="cls-6" d="M60.6,195.48v0c0-1.46,1.11-2.21,2.76-2.21a5.53,5.53,0,0,1,1.69.27v-.11c0-.73-.46-1.15-1.41-1.15a5,5,0,0,0-1.93.39l-.51-1.74a7,7,0,0,1,2.85-.55,3.59,3.59,0,0,1,2.67.86,2.92,2.92,0,0,1,.76,2.24v4H65v-.73a2.62,2.62,0,0,1-2.06.89A2.14,2.14,0,0,1,60.6,195.48Zm4.47-.54v-.32a2.42,2.42,0,0,0-1-.18c-.71,0-1.13.35-1.13.87v0a.78.78,0,0,0,.87.77A1.12,1.12,0,0,0,65.07,194.94Z"/>
              <path class="cls-6" d="M68.9,190.46h2.47v1.42a2.14,2.14,0,0,1,2.22-1.54v2.6h-.21c-1.28,0-2,.74-2,2.37v2.18H68.9Z"/>
              <path class="cls-6" d="M74.51,190.46H77v1a2.59,2.59,0,0,1,2.11-1.15,2.31,2.31,0,0,1,2.39,2.59v4.6H79v-3.81c0-.76-.41-1.18-1-1.18a1,1,0,0,0-1,1.18v3.81H74.51Z"/>
              <path class="cls-6" d="M86.49,188.39h2.67l2.17,3.52,2.17-3.52h2.67v9.1H93.66v-5.22l-2.33,3.56h0L89,192.29v5.2H86.49Z"/>
              <path class="cls-6" d="M97.48,194v0a3.75,3.75,0,0,1,3.9-3.68,3.71,3.71,0,0,1,3.87,3.66v0a3.75,3.75,0,0,1-3.9,3.68A3.7,3.7,0,0,1,97.48,194Zm5.37,0v0a1.52,1.52,0,0,0-1.5-1.58A1.47,1.47,0,0,0,99.88,194v0a1.53,1.53,0,0,0,1.5,1.59A1.48,1.48,0,0,0,102.85,194Z"/>
              <path class="cls-6" d="M106.37,190.46h2.47v1.42a2.16,2.16,0,0,1,2.23-1.54v2.6h-.21c-1.29,0-2,.74-2,2.37v2.18h-2.47Z"/>
              <path class="cls-6" d="M111.67,194v0a3.53,3.53,0,0,1,3.55-3.68c2.43,0,3.55,1.78,3.55,3.85,0,.16,0,.34,0,.51h-4.71a1.45,1.45,0,0,0,1.52,1.15,2.13,2.13,0,0,0,1.56-.71l1.37,1.13a3.7,3.7,0,0,1-3.06,1.43A3.54,3.54,0,0,1,111.67,194Zm4.78-.61c-.09-.78-.54-1.28-1.22-1.28s-1.09.51-1.22,1.28Z"/>
            </g>
          </g>
          <rect id="Rectangle_5685-2" data-name="Rectangle 5685" class="cls-9" x="25.09" y="179.82" width="113.8" height="27.32"/>
        </g>
        <g id="c3">
          <g id="Just_add_metal" data-name="Just add metal" class="cls-5">
            <g class="cls-5">
              <path class="cls-6" d="M23.77,102.6l4.08-3.85c1.1,1.33,2.15,2.12,3.55,2.12,1.6,0,2.61-1.08,2.61-3.2V83.23H40.3V97.7c0,2.87-.72,4.9-2.25,6.43a8.59,8.59,0,0,1-6.26,2.31A9.28,9.28,0,0,1,23.77,102.6Z"/>
              <path class="cls-6" d="M44.29,96V83.23h6.42V95.91c0,3.29,1.66,4.86,4.21,4.86s4.2-1.5,4.2-4.7V83.23h6.43V95.88c0,7.37-4.21,10.6-10.7,10.6S44.29,103.18,44.29,96Z"/>
              <path class="cls-6" d="M67.7,102.66l3.52-4.21a11.74,11.74,0,0,0,7.41,2.74c1.69,0,2.61-.58,2.61-1.56v-.07c0-.94-.75-1.46-3.85-2.18-4.86-1.11-8.61-2.48-8.61-7.18v-.06c0-4.24,3.36-7.31,8.84-7.31a14.37,14.37,0,0,1,9.39,3l-3.17,4.46a11.49,11.49,0,0,0-6.39-2.25c-1.53,0-2.28.66-2.28,1.47v.07c0,1,.78,1.5,4,2.21,5.25,1.15,8.51,2.84,8.51,7.11V99c0,4.66-3.69,7.43-9.23,7.43A16,16,0,0,1,67.7,102.66Z"/>
              <path class="cls-6" d="M96.11,88.77H89.26V83.23h20v5.54h-6.85v17.28H96.11Z"/>
            </g>
            <g class="cls-5">
              <path class="cls-6" d="M33.55,113.51h6.1l9.72,23H42.58l-1.66-4.08h-8.8l-1.63,4.08H23.83Zm5.55,14L36.55,121,34,127.5Z"/>
              <path class="cls-6" d="M51.54,113.67h8.8c8.16,0,12.88,4.7,12.88,11.29V125c0,6.59-4.79,11.48-13,11.48H51.54Zm8.9,17.22c3.78,0,6.29-2.09,6.29-5.77v-.07c0-3.65-2.51-5.77-6.29-5.77H57.87v11.61Z"/>
              <path class="cls-6" d="M76.58,113.67h8.8c8.15,0,12.88,4.7,12.88,11.29V125c0,6.59-4.79,11.48-13,11.48H76.58Zm8.9,17.22c3.78,0,6.29-2.09,6.29-5.77v-.07c0-3.65-2.51-5.77-6.29-5.77H82.9v11.61Z"/>
            </g>
            <g class="cls-5">
              <path class="cls-6" d="M25.66,144.12h6.69L37.79,153l5.45-8.84h6.68v22.82H43.63v-13.1l-5.84,8.93h-.13l-5.8-8.87v13h-6.2Z"/>
              <path class="cls-6" d="M54.39,144.12H72.75v5.38H60.65V153h11v5h-11v3.62H72.91v5.38H54.39Z"/>
              <path class="cls-6" d="M81.71,149.66H74.86v-5.54h20v5.54H88v17.28H81.71Z"/>
              <path class="cls-6" d="M102.58,144h6.1l9.72,23h-6.79L110,162.87h-8.8l-1.63,4.07H92.86Zm5.55,14-2.55-6.48L103,157.94Z"/>
              <path class="cls-6" d="M120.57,144.12h6.33V161.4h11v5.54H120.57Z"/>
            </g>
          </g>
        </g>
      </g>
    </g>
    <g id="Logo">
      <path id="chevon_shape" data-name="chevon shape" class="cls-6" d="M159.42,495.57l-62.88,0-18.41,29h81.29Z"/>
      <g id="Grupo_12756" data-name="Grupo 12756">
        <g id="Group_2" data-name="Group 2">
          <path id="X" class="cls-10" d="M142.13,515l-1.3,1.42L139.56,515h-.74l1.59,1.81-2,2.14h.72l1.62-1.75,1.55,1.75h.79l-1.92-2.14,1.64-1.81Z"/>
          <rect id="I" class="cls-10" x="135.12" y="514.97" width="0.56" height="3.94"/>
          <path id="N" class="cls-10" d="M131.13,515v3.09l-2.8-3.09h-.56v3.94h.57V515.8l2.8,3.11h.55V515Z"/>
          <rect id="I-2" class="cls-10" x="123.81" y="514.97" width="0.57" height="3.94"/>
          <path id="U" class="cls-10" d="M120.07,517.34a1.1,1.1,0,0,1-1,1.17h-.13a1.06,1.06,0,0,1-1.1-1,.76.76,0,0,1,0-.15V515h-.57v2.39a1.58,1.58,0,0,0,1.5,1.66h.15a1.59,1.59,0,0,0,1.73-1.42,1.92,1.92,0,0,0,0-.24V515h-.56Z"/>
          <path id="Q" class="cls-10" d="M112.28,514.81a2.06,2.06,0,0,0-2.08,2v.1h0a2,2,0,0,0,2,2.09h.12a2.1,2.1,0,0,0,.92-.21l.32.37h.66l-.56-.65a2,2,0,0,0,.74-1.64v0a2,2,0,0,0-2-2.09h-.11m1.52,2.13a1.57,1.57,0,0,1-.51,1.23l-.31-.36h-.65l.53.62a1.47,1.47,0,0,1-.55.12,1.53,1.53,0,0,1-1.51-1.54h0v-.07h0a1.49,1.49,0,0,1,1.38-1.61h.09a1.53,1.53,0,0,1,1.53,1.53v.08Z"/>
          <path id="E" class="cls-10" d="M104.46,515v3.94H108v-.51H105v-1.28h1.9v-.52H105v-1.12h2.84V515Z"/>
        </g>
        <g id="icon_group" data-name="icon group">
          <path id="icon" class="cls-11" d="M124.09,500.53l-1.61.56v8.42l-1.07-.37v-7.68l-3.21,1.13V508l-1.07-.37V503l-1.07.38v5.07l3.21,1.12v-6.18l1.07-.38v6.94l3.21,1.12v-9.18l.54-.19.53.19V511l3.22-1.12V503l1.06.38v6.18l3.22-1.12v-5.08l-1.07-.37v4.68L130,508v-5.44l-3.22-1.12v7.68l-1.07.37v-8.42Z"/>
          <path id="R" class="cls-11" d="M134.17,508.05a1,1,0,0,0,1-1h0a1,1,0,1,0-1.93,0h0a1,1,0,0,0,1,1h0m0-.1a.86.86,0,0,1-.86-.85h0A.86.86,0,0,1,135,507v.06h0a.86.86,0,0,1-.85.86h0m-.39-.38H134v-.31h.15l.22.31h.29l-.25-.36a.29.29,0,0,0,.22-.31c0-.22-.17-.33-.4-.33h-.47Zm.24-.51v-.28h.21c.11,0,.17.05.17.14s-.06.14-.17.14Z"/>
        </g>
      </g>
    </g>
  </g>
</svg>
