<?xml version="1.0" encoding="utf-8"?>
<!-- Generator: Adobe Illustrator 25.2.1, SVG Export Plug-In . SVG Version: 6.00 Build 0)  -->
<svg version="1.1" id="Layer_1" xmlns="http://www.w3.org/2000/svg" xmlns:xlink="http://www.w3.org/1999/xlink" x="0px" y="0px"
	 viewBox="0 0 728 90" style="enable-background:new 0 0 728 90;" xml:space="preserve">
<style type="text/css">
	.st0{clip-path:url(#SVGID_2_);}
	.st1{opacity:0.95;fill:url(#bg-light_1_);enable-background:new    ;}
	.st2{fill:url(#Elipse_70_1_);}
	.st3{fill:#FFFFFF;}
	.st4{clip-path:url(#SVGID_4_);}
	.st5{clip-path:url(#SVGID_6_);}
	.st6{opacity:0.29;fill:url(#cta-glow_1_);enable-background:new    ;}
	.st7{fill:none;stroke:#FFFFFF;stroke-width:0.65;stroke-miterlimit:10;}
	.st8{fill:#030504;}
	.st9{fill:#E4001B;}
</style>
<g id="_728x90">
	<g>
		<defs>
			<rect id="SVGID_1_" width="728" height="90"/>
		</defs>
		<clipPath id="SVGID_2_">
			<use xlink:href="#SVGID_1_"  style="overflow:visible;"/>
		</clipPath>
		<g class="st0">
			<g id="BG">
				
					<image style="overflow:visible;enable-background:new    ;" width="901" height="803" id="GettyImages-561860327" xlink:href="awareness1-300x2501.jpg"  transform="matrix(0.8477 0 0 0.8477 -19.4105 -365.5819)">
				</image>
				
					<radialGradient id="bg-light_1_" cx="-29.6472" cy="225.6226" r="0.2" gradientTransform="matrix(542.92 0 0 563.83 16569.0391 -127164.6406)" gradientUnits="userSpaceOnUse">
					<stop  offset="0" style="stop-color:#FFFFFF"/>
					<stop  offset="0.26" style="stop-color:#FFFFFF;stop-opacity:0.68"/>
					<stop  offset="0.53" style="stop-color:#FFFFFF;stop-opacity:0.39"/>
					<stop  offset="0.75" style="stop-color:#FFFFFF;stop-opacity:0.18"/>
					<stop  offset="0.91" style="stop-color:#FFFFFF;stop-opacity:5.000000e-02"/>
					<stop  offset="1" style="stop-color:#FFFFFF;stop-opacity:0"/>
				</radialGradient>
				<ellipse id="bg-light" class="st1" cx="480" cy="51.5" rx="119.9" ry="124.5"/>
				
					<image style="overflow:visible;enable-background:new    ;" width="600" height="491" id="keyshadow" xlink:href="awareness11.png"  transform="matrix(0.2068 0 0 0.2068 411.7546 50.7344)">
				</image>
				
					<radialGradient id="Elipse_70_1_" cx="-54.7546" cy="257.9449" r="0.18" gradientTransform="matrix(129.6595 -12.4568 113.2887 11.6695 -21651.9297 -3601.4783)" gradientUnits="userSpaceOnUse">
					<stop  offset="0" style="stop-color:#000000"/>
					<stop  offset="0.63" style="stop-color:#040404;stop-opacity:0.97"/>
					<stop  offset="1" style="stop-color:#808080;stop-opacity:0"/>
				</radialGradient>
				<path id="Elipse_70" class="st2" d="M433.5,89.5c0-1.9,16.1-3.3,35.9-2.9c19.8,0.3,35.8,2.2,35.8,4.1c0,1.9-16.1,3.3-35.9,2.9
					S433.5,91.4,433.5,89.5z"/>
				
					<image style="overflow:visible;enable-background:new    ;" width="500" height="345" id="PT200827_004C1-removebg" xlink:href="awareness1-300x2503.png"  transform="matrix(1.102182e-17 -0.18 0.18 1.102182e-17 437.17 94.28)">
				</image>
				
					<image style="overflow:visible;enable-background:new    ;" width="1721" height="1721" id="shine1" xlink:href="awareness12.png"  transform="matrix(2.000000e-02 0 0 2.000000e-02 429.16 -3.63)">
				</image>
			</g>
			<g id="f2">
				<g>
					<path class="st3" d="M35.7,30.2h2.8L43,40.9h-3.1L39.1,39H35l-0.8,1.9h-3.1L35.7,30.2z M38.2,36.8l-1.2-3l-1.2,3H38.2z"/>
					<path class="st3" d="M44,32.7h2.9v1.2c0.6-0.8,1.5-1.3,2.5-1.3c1.5-0.1,2.7,1.1,2.8,2.6c0,0.1,0,0.3,0,0.4v5.4h-2.9v-4.4
						c0-0.9-0.5-1.4-1.2-1.4c-0.7,0-1.2,0.5-1.2,1.2c0,0.1,0,0.1,0,0.2v4.5H44V32.7z"/>
					<path class="st3" d="M53.4,36.9L53.4,36.9c0-2.7,1.7-4.3,3.6-4.3c1,0,1.9,0.4,2.5,1.2v-3.9h2.9v11.1h-2.9v-1.1
						c-0.6,0.8-1.5,1.3-2.5,1.3C55.1,41.1,53.4,39.5,53.4,36.9z M59.6,36.9L59.6,36.9c0.1-0.9-0.6-1.8-1.5-1.9
						c-0.9-0.1-1.8,0.6-1.9,1.5c0,0.1,0,0.2,0,0.4l0,0c-0.1,0.9,0.6,1.8,1.5,1.9c0.9,0.1,1.8-0.6,1.9-1.5
						C59.6,37.1,59.6,37,59.6,36.9z"/>
					<path class="st3" d="M68.4,30.3h2.9v4.3l3.7-4.3h3.5l-4,4.6l4.2,6.1h-3.6L72.4,37l-1.1,1.2V41h-2.9V30.3z"/>
					<path class="st3" d="M78.5,36.9L78.5,36.9c-0.1-2.3,1.7-4.2,4-4.3c0.1,0,0.1,0,0.2,0c2.8,0,4.2,2.1,4.2,4.5c0,0.2,0,0.4,0,0.6
						h-5.5c0.2,0.8,0.9,1.4,1.8,1.3c0.7,0,1.4-0.3,1.8-0.8l1.6,1.3c-0.9,1.1-2.2,1.7-3.6,1.7c-2.3,0.2-4.3-1.6-4.4-3.9
						C78.5,37.2,78.5,37,78.5,36.9z M84.1,36.2c0-0.8-0.6-1.5-1.4-1.5c-0.8,0-1.3,0.6-1.4,1.5H84.1z"/>
					<path class="st3" d="M87.8,36.9L87.8,36.9c-0.1-2.3,1.7-4.2,4-4.3c0.1,0,0.1,0,0.2,0c2.8,0,4.2,2.1,4.2,4.5c0,0.2,0,0.4,0,0.6
						h-5.5c0.2,0.8,0.9,1.4,1.8,1.3c0.7,0,1.4-0.3,1.8-0.8l1.6,1.3c-0.9,1.1-2.2,1.7-3.6,1.7c-2.3,0.2-4.3-1.6-4.4-3.9
						C87.8,37.2,87.8,37,87.8,36.9z M93.4,36.2c0-0.8-0.6-1.5-1.4-1.5c-0.8,0-1.3,0.6-1.4,1.5H93.4z"/>
					<path class="st3" d="M97.4,32.7h2.9v1.1c0.6-0.8,1.5-1.3,2.5-1.3c2,0,3.6,1.6,3.6,4.2l0,0c0,2.7-1.7,4.3-3.6,4.3
						c-1,0-1.9-0.4-2.5-1.2v3.4h-2.9V32.7z M103.6,36.8L103.6,36.8c0.1-0.9-0.6-1.8-1.5-1.9c-0.9-0.1-1.8,0.6-1.9,1.5
						c0,0.1,0,0.2,0,0.4l0,0c-0.1,0.9,0.6,1.8,1.5,1.9c0.9,0.1,1.8-0.6,1.9-1.5C103.6,37.1,103.6,37,103.6,36.8z"/>
					<path class="st3" d="M111.7,35.7L111.7,35.7c0-3,2.4-5.5,5.4-5.5c0.1,0,0.1,0,0.2,0c1.8-0.1,3.5,0.8,4.5,2.2l-2.2,1.7
						c-0.5-0.8-1.4-1.2-2.3-1.2c-1.5,0-2.6,1.3-2.5,2.7c0,0,0,0.1,0,0.1l0,0c-0.1,1.4,1,2.7,2.4,2.8c0,0,0.1,0,0.1,0
						c1,0,1.9-0.5,2.4-1.3l2.2,1.6c-1.8,2.5-5.3,3.2-7.8,1.4C112.6,39,111.7,37.4,111.7,35.7L111.7,35.7z"/>
					<path class="st3" d="M122.6,36.9L122.6,36.9c0.1-2.5,2.2-4.4,4.8-4.3c2.3,0.1,4.2,2,4.3,4.3l0,0c0,2.4-2,4.3-4.5,4.3
						c0,0-0.1,0-0.1,0c-2.4,0.1-4.4-1.8-4.5-4.1C122.6,37,122.6,36.9,122.6,36.9z M128.9,36.9L128.9,36.9c0-1-0.7-1.8-1.7-1.9
						c0,0,0,0-0.1,0c-0.9,0-1.7,0.8-1.7,1.7c0,0,0,0.1,0,0.1l0,0c0,1,0.7,1.8,1.7,1.9c0,0,0,0,0,0C128.1,38.7,128.9,37.9,128.9,36.9
						C128.9,36.9,128.9,36.9,128.9,36.9z"/>
					<path class="st3" d="M133,32.7h2.9v1.2c0.5-0.8,1.5-1.3,2.5-1.3c1.5-0.1,2.7,1.1,2.8,2.6c0,0.1,0,0.3,0,0.4v5.4h-2.9v-4.4
						c0-0.9-0.5-1.4-1.1-1.4c-0.7,0-1.2,0.5-1.2,1.2c0,0.1,0,0.1,0,0.2v4.5H133V32.7z"/>
					<path class="st3" d="M143.2,38.4V35h-1v-2.3h1v-2.1h2.9v2.1h1.9v2.3h-1.9v2.8c0,0.6,0.3,0.8,0.8,0.8c0.4,0,0.8-0.1,1.1-0.3v2.3
						c-0.6,0.3-1.3,0.5-2,0.5C144.2,41.1,143.2,40.3,143.2,38.4z"/>
					<path class="st3" d="M149.5,32.7h2.9v1.7c0.3-1.1,1.4-1.9,2.6-1.8v3h-0.2c-1.5,0-2.4,0.9-2.4,2.8v2.5h-2.9V32.7z"/>
					<path class="st3" d="M155.6,36.9L155.6,36.9c0-2.4,2-4.3,4.5-4.3c0,0,0.1,0,0.1,0c2.4-0.1,4.4,1.8,4.5,4.1c0,0,0,0.1,0,0.1l0,0
						c-0.1,2.5-2.2,4.4-4.8,4.3C157.6,41.1,155.8,39.2,155.6,36.9L155.6,36.9z M161.9,36.9L161.9,36.9c0-1-0.7-1.8-1.7-1.9
						c0,0,0,0-0.1,0c-0.9,0-1.7,0.8-1.7,1.7c0,0,0,0.1,0,0.1l0,0c0,1,0.7,1.8,1.7,1.9c0,0,0,0,0,0C161.2,38.7,161.9,37.9,161.9,36.9
						C161.9,36.9,161.9,36.9,161.9,36.9z"/>
					<path class="st3" d="M166.1,29.9h2.9v11.1h-2.9V29.9z"/>
					<path class="st3" d="M174.6,35.7L174.6,35.7c0-3.2,2.6-5.7,5.7-5.7c3.2,0,5.7,2.6,5.7,5.7l0,0c0,3.1-2.5,5.6-5.6,5.5
						c0,0-0.1,0-0.1,0c-3,0.1-5.6-2.3-5.7-5.3C174.6,35.8,174.6,35.7,174.6,35.7z M183.1,35.7L183.1,35.7c0.1-1.5-1.1-2.8-2.7-2.9
						c0,0-0.1,0-0.1,0c-1.5,0-2.7,1.2-2.7,2.7c0,0,0,0.1,0,0.1l0,0c-0.1,1.5,1.1,2.8,2.6,2.9c0,0,0,0,0.1,0c1.5,0,2.7-1.2,2.7-2.7
						C183.1,35.7,183.1,35.7,183.1,35.7z"/>
					<path class="st3" d="M188,35h-1v-2.2h1v-0.2c-0.2-1.4,0.7-2.6,2.1-2.8c0.2,0,0.5,0,0.7,0c0.6,0,1.3,0.1,1.9,0.2v2
						c-0.3-0.1-0.7-0.2-1.1-0.2c-0.5,0-0.8,0.2-0.8,0.8v0.2h1.9V35h-1.8v5.9H188V35z"/>
					<path class="st3" d="M35.1,55.4l-4-6.7h3.4l2.2,3.9l2.2-3.9h3.3l-4,6.6v4h-3L35.1,55.4z"/>
					<path class="st3" d="M41.4,55.3L41.4,55.3c0.1-2.5,2.2-4.4,4.8-4.3c2.3,0.1,4.2,2,4.3,4.3l0,0c0,2.4-2,4.3-4.5,4.3
						c0,0-0.1,0-0.1,0c-2.4,0.1-4.4-1.8-4.5-4.1C41.4,55.4,41.4,55.3,41.4,55.3z M47.6,55.3L47.6,55.3c0-1-0.7-1.8-1.7-1.8
						c0,0,0,0,0,0c-0.9,0-1.7,0.8-1.7,1.7c0,0,0,0.1,0,0.1l0,0c0,1,0.7,1.8,1.7,1.9c0,0,0,0,0,0c0.9,0,1.7-0.8,1.7-1.7
						C47.6,55.3,47.6,55.3,47.6,55.3z"/>
					<path class="st3" d="M51.7,56.5v-5.4h2.9v4.5c0,0.9,0.5,1.4,1.2,1.4c0.7,0,1.2-0.5,1.3-1.2c0-0.1,0-0.1,0-0.2v-4.5h2.9v8.2H57
						v-1.1c-0.6,0.8-1.5,1.3-2.5,1.3C52.8,59.5,51.7,58.4,51.7,56.5z"/>
					<path class="st3" d="M61.6,51.1h2.9v1.7c0.3-1.1,1.4-1.9,2.6-1.8v3h-0.2c-1.5,0-2.4,0.9-2.4,2.8v2.5h-2.9V51.1z"/>
					<path class="st3" d="M72.4,48.7H77c2.7,0,4.4,1.4,4.4,3.7l0,0c0,2.5-1.9,3.8-4.6,3.8h-1.4v3h-3L72.4,48.7z M76.8,54
						c1,0,1.7-0.5,1.7-1.4l0,0c0-0.9-0.6-1.4-1.7-1.4h-1.4V54H76.8z"/>
					<path class="st3" d="M82.5,48.2h2.9v4c0.6-0.8,1.5-1.3,2.5-1.3c1.5-0.1,2.7,1.1,2.8,2.6c0,0.1,0,0.3,0,0.4v5.4h-2.9v-4.4
						c0-0.9-0.5-1.4-1.2-1.4c-0.7,0-1.2,0.5-1.2,1.2c0,0.1,0,0.1,0,0.2v4.5h-2.9V48.2z"/>
					<path class="st3" d="M91.6,61.1l0.9-2c0.4,0.2,0.8,0.4,1.3,0.4c0.3,0,0.5-0.1,0.7-0.3l-3.2-8.1h3l1.7,5l1.6-5h3l-3,8
						c-0.7,1.9-1.5,2.7-3.1,2.7C93.4,61.8,92.4,61.6,91.6,61.1z"/>
					<path class="st3" d="M100.5,58.3l1.1-1.8c0.8,0.6,1.8,0.9,2.8,1c0.5,0,0.7-0.2,0.7-0.4l0,0c0-0.3-0.5-0.5-1.3-0.7
						c-1.6-0.4-2.9-1-2.9-2.6l0,0c0-1.8,1.4-2.7,3.3-2.7c1.2,0,2.4,0.3,3.4,1l-1,1.8c-0.7-0.4-1.6-0.7-2.4-0.8
						c-0.4,0-0.7,0.2-0.7,0.4l0,0c0,0.3,0.5,0.5,1.3,0.7c1.6,0.5,2.9,1,2.9,2.6l0,0c0,1.8-1.3,2.8-3.4,2.8
						C103,59.5,101.6,59.1,100.5,58.3z"/>
					<path class="st3" d="M109,48.2h3v2.1h-3V48.2z M109.1,51.1h2.9v8.2h-2.9L109.1,51.1z"/>
					<path class="st3" d="M113.3,55.3L113.3,55.3c0-2.4,1.9-4.3,4.3-4.3c0,0,0.1,0,0.1,0c1.4-0.1,2.8,0.6,3.5,1.8l-2,1.5
						c-0.3-0.5-0.9-0.9-1.5-0.9c-0.9,0-1.7,0.9-1.6,1.8c0,0,0,0,0,0l0,0c-0.1,0.9,0.6,1.8,1.5,1.9c0,0,0.1,0,0.1,0
						c0.6,0,1.2-0.3,1.6-0.8l1.9,1.4c-0.8,1.2-2.2,2-3.7,1.9C115.2,59.6,113.3,57.7,113.3,55.3C113.3,55.3,113.3,55.3,113.3,55.3z"
						/>
					<path class="st3" d="M122,57L122,57c0-1.7,1.3-2.6,3.2-2.6c0.7,0,1.4,0.1,2,0.3v-0.1c0-0.8-0.5-1.3-1.6-1.3
						c-0.8,0-1.5,0.2-2.3,0.5l-0.6-2c1-0.5,2.1-0.7,3.3-0.7c1.1-0.1,2.3,0.3,3.1,1c0.6,0.7,1,1.7,0.9,2.6v4.7h-2.8v-0.8
						c-0.6,0.7-1.5,1-2.4,1c-1.4,0.1-2.6-0.9-2.7-2.2C122,57.2,122,57.1,122,57z M127.2,56.4V56c-0.4-0.1-0.7-0.2-1.1-0.2
						c-0.8,0-1.3,0.4-1.3,1l0,0c0,0.5,0.4,0.9,0.9,0.9c0,0,0.1,0,0.1,0C126.5,57.7,127.1,57.2,127.2,56.4
						C127.2,56.4,127.2,56.4,127.2,56.4L127.2,56.4z"/>
					<path class="st3" d="M131.7,48.2h2.9v11.1h-2.9V48.2z"/>
					<path class="st3" d="M140.6,48.7h3v10.6h-3V48.7z"/>
					<path class="st3" d="M145.5,51.1h2.9v1.2c0.6-0.8,1.5-1.3,2.5-1.3c1.5-0.1,2.7,1.1,2.8,2.6c0,0.1,0,0.3,0,0.4v5.4h-2.9v-4.4
						c0-0.9-0.5-1.4-1.2-1.4c-0.7,0-1.2,0.5-1.2,1.2c0,0.1,0,0.1,0,0.2v4.5h-2.9L145.5,51.1z"/>
					<path class="st3" d="M155.8,53.4h-0.9v-2.3h0.9V51c-0.1-0.8,0.2-1.5,0.7-2.1c0.6-0.5,1.4-0.8,2.1-0.7c0.6,0,1.3,0.1,1.9,0.2v2
						c-0.3-0.1-0.7-0.2-1.1-0.2c-0.5,0-0.8,0.2-0.8,0.8v0.2h1.9v2.2h-1.8v5.9h-2.9L155.8,53.4z"/>
					<path class="st3" d="M161.4,51.1h2.9v1.7c0.3-1.1,1.4-1.9,2.6-1.8v3h-0.2c-1.5,0-2.4,0.9-2.4,2.8v2.5h-2.9V51.1z"/>
					<path class="st3" d="M167.3,57L167.3,57c0-1.7,1.3-2.6,3.2-2.6c0.7,0,1.4,0.1,2,0.3v-0.1c0-0.8-0.5-1.3-1.6-1.3
						c-0.8,0-1.5,0.2-2.3,0.5l-0.6-2c1.1-0.4,2.2-0.7,3.3-0.6c1.1-0.1,2.3,0.3,3.1,1c0.7,0.7,1,1.7,0.9,2.6v4.7h-2.9v-0.8
						c-0.6,0.7-1.5,1-2.4,1c-1.4,0.2-2.6-0.8-2.8-2.2C167.3,57.3,167.3,57.1,167.3,57z M172.5,56.4V56c-0.4-0.1-0.7-0.2-1.1-0.2
						c-0.8,0-1.3,0.4-1.3,1l0,0c0,0.5,0.4,0.9,0.9,0.9c0,0,0.1,0,0.1,0c0.7,0.1,1.4-0.5,1.4-1.2C172.5,56.4,172.5,56.4,172.5,56.4
						L172.5,56.4z"/>
					<path class="st3" d="M176.3,58.3l1.1-1.8c0.8,0.6,1.8,0.9,2.8,1c0.5,0,0.7-0.2,0.7-0.4l0,0c0-0.3-0.4-0.5-1.3-0.7
						c-1.6-0.4-2.9-1-2.9-2.6l0,0c0-1.8,1.4-2.7,3.3-2.7c1.2,0,2.4,0.3,3.4,1l-1,1.8c-0.7-0.5-1.6-0.7-2.4-0.8
						c-0.4,0-0.7,0.2-0.7,0.4l0,0c0,0.3,0.5,0.5,1.3,0.7c1.6,0.5,2.9,1,2.9,2.6l0,0c0,1.8-1.4,2.8-3.4,2.8
						C178.8,59.5,177.5,59.1,176.3,58.3z"/>
					<path class="st3" d="M185.3,56.8v-3.3h-1v-2.3h1V49h2.9v2.1h1.9v2.3h-1.9v2.8c0,0.6,0.3,0.8,0.8,0.8c0.4,0,0.8-0.1,1.1-0.3V59
						c-0.6,0.3-1.3,0.5-2,0.5C186.3,59.5,185.3,58.8,185.3,56.8z"/>
					<path class="st3" d="M191.5,51.1h2.9v1.7c0.3-1.1,1.4-1.9,2.6-1.8v3h-0.2c-1.5,0-2.4,0.9-2.4,2.8v2.5h-2.9L191.5,51.1z"/>
					<path class="st3" d="M198,56.5v-5.4h2.9v4.5c0,0.9,0.5,1.4,1.2,1.4c0.7,0,1.2-0.5,1.2-1.2c0-0.1,0-0.1,0-0.2v-4.5h2.9v8.2h-2.9
						v-1.1c-0.6,0.8-1.5,1.3-2.5,1.3C199.1,59.5,198,58.4,198,56.5z"/>
					<path class="st3" d="M207.5,55.3L207.5,55.3c0-2.4,1.9-4.3,4.3-4.3c0,0,0.1,0,0.1,0c1.4-0.1,2.8,0.6,3.5,1.8l-2,1.5
						c-0.3-0.5-0.9-0.9-1.5-0.9c-0.9,0-1.7,0.8-1.6,1.8c0,0,0,0,0,0l0,0c-0.1,0.9,0.6,1.8,1.5,1.9c0,0,0.1,0,0.1,0
						c0.6,0,1.2-0.3,1.6-0.8l1.9,1.4c-0.8,1.2-2.2,2-3.7,1.9C209.4,59.6,207.5,57.7,207.5,55.3C207.5,55.3,207.5,55.3,207.5,55.3z"
						/>
					<path class="st3" d="M217.1,56.8v-3.3h-1v-2.3h1V49h2.9v2.1h1.9v2.3H220v2.8c0,0.6,0.3,0.8,0.8,0.8c0.4,0,0.8-0.1,1.1-0.3V59
						c-0.6,0.3-1.3,0.5-2,0.5C218.1,59.5,217.1,58.8,217.1,56.8z"/>
					<path class="st3" d="M223.3,56.5v-5.4h2.9v4.5c0,0.9,0.5,1.4,1.2,1.4c0.7,0,1.2-0.6,1.2-1.2c0-0.1,0-0.1,0-0.2v-4.5h2.9v8.2
						h-2.9v-1.1c-0.6,0.8-1.5,1.3-2.5,1.3C224.3,59.5,223.3,58.4,223.3,56.5z"/>
					<path class="st3" d="M233.1,51.1h2.9v1.7c0.3-1.1,1.4-1.9,2.6-1.8v3h-0.2c-1.5,0-2.4,0.9-2.4,2.8v2.5h-2.9L233.1,51.1z"/>
					<path class="st3" d="M239.3,55.3L239.3,55.3c-0.1-2.3,1.7-4.2,4-4.3c0.1,0,0.1,0,0.2,0c2.8,0,4.1,2.1,4.1,4.5
						c0,0.2,0,0.4,0,0.6h-5.5c0.2,0.8,0.9,1.4,1.8,1.3c0.7,0,1.4-0.3,1.8-0.8l1.6,1.3c-0.9,1.1-2.2,1.7-3.6,1.7
						c-2.3,0.2-4.3-1.6-4.4-3.8C239.3,55.6,239.3,55.4,239.3,55.3z M244.9,54.6c0-0.8-0.6-1.5-1.4-1.5c-0.8,0-1.3,0.6-1.4,1.5H244.9
						z"/>
					<path class="st3" d="M250,53.3l0.1-0.1c1.8-0.2,2.4-0.6,2.4-1.2l0,0c0-0.5-0.4-0.8-1.1-0.8c-0.8,0.1-1.6,0.4-2.2,1l-1.5-2
						c1-1,2.5-1.6,3.9-1.6c2.2,0,3.8,1.2,3.8,3.2l0,0c0,1.9-1.3,2.7-3,3.2l-0.2,1h-1.8L250,53.3z M249.8,56.8h3v2.6h-3V56.8z"/>
				</g>
			</g>
			<g id="f3">
				<g id="c3">
					<g id="Just_add_metal">
						<g>
							<path class="st3" d="M32.2,38.2l3.4-3.2c0.7,1,1.8,1.7,3,1.8c1.3,0,2.2-0.9,2.2-2.7V21.9h5.3V34c0.2,2-0.5,3.9-1.9,5.4
								c-1.4,1.3-3.3,2.1-5.2,2C36.3,41.6,33.8,40.3,32.2,38.2z"/>
							<path class="st3" d="M49.5,32.7V21.9h5.4v10.7c0,2.8,1.4,4.1,3.5,4.1s3.5-1.3,3.5-4V21.9h5.4v10.6c0,6.2-3.5,8.9-9,8.9
								S49.5,38.7,49.5,32.7z"/>
							<path class="st3" d="M69.2,38.2l3-3.5c1.7,1.5,3.9,2.3,6.2,2.3c1.4,0,2.2-0.5,2.2-1.3l0,0c0-0.8-0.6-1.2-3.2-1.8
								c-4.1-0.9-7.2-2.1-7.2-6v0c0-3.6,2.8-6.1,7.4-6.1c2.9-0.1,5.7,0.8,7.9,2.6L82.8,28c-1.6-1.2-3.4-1.9-5.4-2
								c-1.3,0-1.9,0.5-1.9,1.2l0,0c0,0.9,0.7,1.3,3.3,1.9c4.4,1,7.2,2.4,7.2,6l0,0c0,3.9-3.1,6.3-7.8,6.3
								C75,41.5,71.8,40.3,69.2,38.2z"/>
							<path class="st3" d="M93.2,26.5h-5.8v-4.7h16.8v4.7h-5.8v14.5h-5.3V26.5z"/>
							<path class="st3" d="M120.8,21.7h5.2l8.2,19.3h-5.7l-1.4-3.4h-7.4l-1.4,3.4h-5.6L120.8,21.7z M125.5,33.5l-2.1-5.5l-2.2,5.5
								L125.5,33.5z"/>
							<path class="st3" d="M136,21.9h7.4c6.9,0,10.8,4,10.8,9.5v0c0,5.5-4,9.7-10.9,9.7H136V21.9z M143.5,36.3
								c3.2,0,5.3-1.8,5.3-4.9l0,0c0-3.1-2.1-4.9-5.3-4.9h-2.2v9.8L143.5,36.3z"/>
							<path class="st3" d="M157.1,21.9h7.4c6.9,0,10.8,4,10.8,9.5v0c0,5.5-4,9.7-10.9,9.7h-7.3V21.9z M164.6,36.3
								c3.2,0,5.3-1.8,5.3-4.9l0,0c0-3.1-2.1-4.9-5.3-4.9h-2.2v9.8L164.6,36.3z"/>
							<path class="st3" d="M185.7,21.9h5.6l4.6,7.4l4.6-7.4h5.6v19.2h-5.3V30l-4.9,7.5h-0.1l-4.9-7.5v11h-5.2L185.7,21.9z"/>
							<path class="st3" d="M209.9,21.9h15.4v4.5h-10.2v2.9h9.2v4.2h-9.2v3h10.3V41h-15.6V21.9z"/>
							<path class="st3" d="M233,26.5h-5.8v-4.7h16.9v4.7h-5.8v14.5H233V26.5z"/>
							<path class="st3" d="M250.6,21.7h5.1l8.2,19.3h-5.7l-1.4-3.4h-7.4l-1.4,3.4h-5.6L250.6,21.7z M255.2,33.5l-2.1-5.5l-2.1,5.5
								H255.2z"/>
							<path class="st3" d="M265.8,21.9h5.3v14.5h9.3v4.7h-14.6V21.9z"/>
						</g>
					</g>
				</g>
				<g id="cta">
					<g>
						<defs>
							<rect id="SVGID_3_" x="30.2" y="51" width="95.8" height="27.3"/>
						</defs>
						<clipPath id="SVGID_4_">
							<use xlink:href="#SVGID_3_"  style="overflow:visible;"/>
						</clipPath>
						<g class="st4">
							<g>
								<defs>
									<rect id="SVGID_5_" x="32.4" y="53.7" width="91.4" height="21.9"/>
								</defs>
								<clipPath id="SVGID_6_">
									<use xlink:href="#SVGID_5_"  style="overflow:visible;"/>
								</clipPath>
								<g class="st5">
									
										<linearGradient id="cta-glow_1_" gradientUnits="userSpaceOnUse" x1="22.7406" y1="35.6174" x2="-71.9994" y2="14.3574" gradientTransform="matrix(1 0 0 -1 0 92)">
										<stop  offset="0" style="stop-color:#000000"/>
										<stop  offset="0.24" style="stop-color:#FFFFFF"/>
										<stop  offset="0.46" style="stop-color:#000000"/>
										<stop  offset="0.71" style="stop-color:#FFFFFF"/>
										<stop  offset="1" style="stop-color:#000000"/>
									</linearGradient>
									<rect id="cta-glow" x="-218.3" y="19.1" class="st6" width="372.5" height="99.1"/>
								</g>
							</g>
							<g id="Learn_more">
								<g>
									<path class="st3" d="M51.4,61.2h1.8v5.1h3.2v1.6h-5.1V61.2z"/>
									<path class="st3" d="M57.1,65.3L57.1,65.3c-0.1-1.4,1-2.6,2.5-2.7c0,0,0.1,0,0.1,0c1.4,0,2.6,1.1,2.6,2.5
										c0,0.1,0,0.2,0,0.4c0,0.1,0,0.2,0,0.4h-3.5c0.1,0.5,0.6,0.9,1.1,0.8c0.4,0,0.9-0.2,1.2-0.5l1,0.8c-0.5,0.7-1.4,1-2.2,1
										c-1.4,0.1-2.7-1-2.8-2.4C57.1,65.5,57.1,65.4,57.1,65.3z M60.6,64.9c-0.1-0.6-0.4-0.9-0.9-0.9s-0.8,0.4-0.9,0.9H60.6z"/>
									<path class="st3" d="M62.9,66.4L62.9,66.4c0-1.1,0.8-1.6,2-1.6c0.4,0,0.8,0.1,1.2,0.2v-0.1c0-0.5-0.3-0.8-1-0.8
										c-0.5,0-1,0.1-1.4,0.3L63.4,63c0.7-0.3,1.4-0.4,2.1-0.4c0.7-0.1,1.4,0.2,2,0.6c0.4,0.5,0.6,1.1,0.5,1.7v3h-1.8v-0.5
										c-0.4,0.4-0.9,0.7-1.5,0.7c-0.9,0.1-1.6-0.5-1.7-1.4C62.9,66.5,62.9,66.5,62.9,66.4z M66.2,66v-0.2
										c-0.2-0.1-0.5-0.1-0.7-0.1c-0.5,0-0.8,0.3-0.8,0.6l0,0c0,0.3,0.3,0.6,0.6,0.6c0,0,0,0,0.1,0C65.8,66.8,66.2,66.5,66.2,66
										C66.2,66,66.2,66,66.2,66L66.2,66z"/>
									<path class="st3" d="M69.1,62.7h1.8v1c0.2-0.7,0.9-1.2,1.6-1.1v1.9h-0.2c-0.9,0-1.5,0.5-1.5,1.7v1.6h-1.8V62.7z"/>
									<path class="st3" d="M73.3,62.7h1.8v0.7c0.4-0.5,0.9-0.8,1.6-0.8c0.9,0,1.7,0.7,1.8,1.6c0,0.1,0,0.2,0,0.3v3.4h-1.8v-2.8
										c0-0.6-0.3-0.9-0.7-0.9c-0.4,0-0.8,0.3-0.8,0.8c0,0,0,0.1,0,0.1v2.8h-1.8V62.7z"/>
									<path class="st3" d="M82.1,61.2h1.9l1.6,2.6l1.6-2.6h1.9v6.7h-1.8V64l-1.7,2.6l0,0L83.9,64v3.8h-1.8V61.2z"/>
									<path class="st3" d="M90.3,65.3L90.3,65.3c0-1.5,1.3-2.7,2.8-2.7c0,0,0,0,0.1,0c1.5-0.1,2.8,1.1,2.9,2.6c0,0,0,0.1,0,0.1
										l0,0c0,1.5-1.2,2.7-2.8,2.7c0,0-0.1,0-0.1,0c-1.5,0.1-2.8-1.1-2.8-2.6C90.3,65.4,90.3,65.3,90.3,65.3z M94.2,65.3
										L94.2,65.3c0-0.6-0.5-1.1-1.1-1.2c0,0,0,0,0,0c-0.6,0-1.1,0.5-1.1,1c0,0,0,0,0,0.1l0,0c0,0.6,0.5,1.1,1.1,1.2c0,0,0,0,0,0
										C93.7,66.4,94.2,66,94.2,65.3C94.2,65.3,94.2,65.3,94.2,65.3z"/>
									<path class="st3" d="M96.9,62.7h1.8v1c0.2-0.7,0.9-1.2,1.6-1.1v1.9h-0.2c-1,0-1.5,0.5-1.5,1.7v1.6h-1.8V62.7z"/>
									<path class="st3" d="M100.9,65.3L100.9,65.3c-0.1-1.4,1-2.6,2.5-2.7c0,0,0.1,0,0.1,0c1.4,0,2.6,1.1,2.6,2.5
										c0,0.1,0,0.2,0,0.4v0.4h-3.5c0.1,0.5,0.6,0.9,1.1,0.8c0.4,0,0.9-0.2,1.1-0.5l1,0.8c-0.5,0.7-1.4,1-2.2,1
										c-1.4,0.1-2.7-1-2.8-2.4C100.9,65.5,100.9,65.4,100.9,65.3z M104.4,64.9c-0.1-0.6-0.4-0.9-0.9-0.9s-0.8,0.4-0.9,0.9H104.4z
										"/>
								</g>
							</g>
							<rect id="Rectangle_5685-2" x="32.4" y="53.7" class="st7" width="91.4" height="21.9"/>
						</g>
					</g>
				</g>
			</g>
			<g id="Logo">
				<path id="chevon_shape" class="st3" d="M728,40.7h-85.2L617.8,80H728V40.7z"/>
				<g id="Grupo_12756">
					<g id="Group_2">
						<path id="X" class="st8" d="M704.6,67l-1.8,1.9l-1.7-1.9h-1l2.2,2.4l-2.7,2.9h1l2.2-2.4l2.1,2.4h1.1l-2.6-2.9l2.2-2.4H704.6z"
							/>
						<rect id="I" x="695.1" y="67" class="st8" width="0.8" height="5.3"/>
						<path id="N" class="st8" d="M689.7,67v4.2l-3.8-4.2h-0.8v5.3h0.8v-4.2l3.8,4.2h0.8V67H689.7z"/>
						<rect id="I-2" x="679.7" y="67" class="st8" width="0.8" height="5.3"/>
						<path id="U" class="st8" d="M674.7,70.2c0.1,0.8-0.6,1.5-1.4,1.6c0,0,0,0,0,0c-0.1,0-0.1,0-0.2,0c-0.8,0-1.5-0.6-1.5-1.4
							c0,0,0,0,0,0c0-0.1,0-0.1,0-0.2V67h-0.8v3.2c-0.1,1.2,0.8,2.2,2,2.2h0.2c1.2,0.1,2.2-0.7,2.3-1.9c0,0,0,0,0,0
							c0-0.1,0-0.2,0-0.3V67h-0.8L674.7,70.2z"/>
						<path id="Q" class="st8" d="M664.1,66.8c-1.5,0-2.8,1.2-2.8,2.7c0,0,0,0,0,0v0.2c0,1.5,1.2,2.8,2.7,2.8c0,0,0,0,0,0h0.2
							c0.4,0,0.9-0.1,1.2-0.3l0.4,0.5h0.9l-0.8-0.9c0.7-0.5,1-1.4,1-2.2l0,0c0-1.5-1.2-2.8-2.7-2.8L664.1,66.8 M666.1,69.7
							c0,0.6-0.2,1.2-0.7,1.7l-0.4-0.5h-0.9l0.7,0.8c-0.2,0.1-0.5,0.2-0.8,0.2c-1.1,0-2-1-2-2.1l0,0v-0.1c-0.1-1.1,0.7-2.1,1.8-2.2
							c0,0,0.1,0,0.1,0h0.1c1.1,0,2.1,0.9,2.1,2.1v0L666.1,69.7L666.1,69.7z"/>
						<path id="E" class="st8" d="M653.5,67v5.3h4.8v-0.7h-4v-1.8h2.6v-0.7h-2.6v-1.5h3.8V67H653.5z"/>
					</g>
					<g id="icon_group">
						<path id="icon" class="st9" d="M680.1,47.4l-2.2,0.8v11.4l-1.5-0.5V48.7l-4.4,1.5v7.4l-1.5-0.5v-6.3l-1.5,0.5v6.9l4.4,1.5
							v-8.4l1.5-0.5v9.4l4.3,1.5V49.2l0.7-0.2l0.7,0.2v12.4l4.3-1.5v-9.4l1.5,0.5v8.4l4.4-1.5v-6.9l-1.5-0.5v6.4l-1.5,0.5v-7.4
							l-4.3-1.5v10.4l-1.5,0.5V48.2L680.1,47.4z"/>
						<path id="R" class="st9" d="M693.8,57.6c0.7,0,1.3-0.6,1.3-1.3l0,0c0-0.7-0.6-1.3-1.3-1.3c-0.7,0-1.3,0.6-1.3,1.3l0,0
							C692.5,57,693.1,57.6,693.8,57.6L693.8,57.6 M693.8,57.4c-0.6,0-1.1-0.5-1.2-1.1c0,0,0,0,0,0l0,0l0,0c0-0.6,0.6-1.1,1.2-1.1
							c0.6,0,1,0.5,1.1,1v0.1l0,0C694.9,56.9,694.4,57.5,693.8,57.4C693.8,57.5,693.8,57.5,693.8,57.4L693.8,57.4 M693.2,57h0.3
							v-0.4h0.2l0.3,0.4h0.4l-0.3-0.5c0.2-0.1,0.3-0.2,0.3-0.4c0-0.3-0.2-0.4-0.5-0.4h-0.6L693.2,57z M693.6,56.3v-0.4h0.3
							c0.1,0,0.2,0.1,0.2,0.2s-0.1,0.2-0.2,0.2L693.6,56.3z"/>
					</g>
				</g>
			</g>
		</g>
	</g>
</g>
</svg>
