	<svg xmlns="http://www.w3.org/2000/svg" xmlns:xlink="http://www.w3.org/1999/xlink" viewBox="0 0 160 600" width="160" height="600">
  <defs>
    <style>
      .cls-1, .cls-19 {
        fill: none;
      }

      .cls-2 {
        clip-path: url(#clip-path);
      }

      .cls-3 {
        clip-path: url(#clip-path-2);
      }

      .cls-4 {
        clip-path: url(#clip-path-3);
      }

      .cls-5 {
        fill: url(#radial-gradient);
      }

      .cls-6 {
        fill: url(#radial-gradient-2);
      }

      .cls-7 {
        fill: url(#radial-gradient-3);
      }

      .cls-8 {
        fill: url(#radial-gradient-4);
      }

      .cls-9 {
        fill: url(#radial-gradient-5);
      }

      .cls-10 {
        fill: url(#radial-gradient-6);
      }

      .cls-11 {
        fill: url(#radial-gradient-7);
      }

      .cls-12 {
        fill: url(#radial-gradient-8);
      }

      .cls-13, .cls-14 {
        opacity: 0.75;
      }

      .cls-13, .cls-14, .cls-15 {
        isolation: isolate;
      }

      .cls-13 {
        fill: url(#radial-gradient-9);
      }

      .cls-14 {
        fill: url(#radial-gradient-10);
      }

      .cls-16 {
        fill: #fff;
      }

      .cls-17 {
        clip-path: url(#clip-path-4);
      }

      .cls-18 {
        opacity: 0.29;
        fill: url(#linear-gradient);
      }

      .cls-19 {
        stroke: #fff;
        stroke-miterlimit: 10;
      }

      .cls-20 {
        fill: #ed1c24;
      }

      .cls-21 {
        fill: #888;
      }

      .cls-22 {
        clip-path: url(#clip-path-5);
      }

      .cls-23 {
        clip-path: url(#clip-path-6);
      }
    </style>
    <clipPath id="clip-path">
      <rect class="cls-1" x="-664.99" y="-384.33" width="298.9" height="601.34"/>
    </clipPath>
    <clipPath id="clip-path-2">
      <rect class="cls-1" x="0.55" y="-0.67" width="158.4" height="601.34"/>
    </clipPath>
    <clipPath id="clip-path-3">
      <rect id="SVGID" class="cls-1" x="-70.18" y="1.52" width="300" height="600"/>
    </clipPath>
    <radialGradient id="radial-gradient" cx="1087.49" cy="1731.53" fy="1746.3894292462137" r="360.88" gradientTransform="translate(-646.09 -980.45) scale(0.69 0.76)" gradientUnits="userSpaceOnUse">
      <stop offset="0" stop-color="#fff"/>
      <stop offset="0.27" stop-color="#fff" stop-opacity="0.68"/>
      <stop offset="0.53" stop-color="#fff" stop-opacity="0.39"/>
      <stop offset="0.75" stop-color="#fff" stop-opacity="0.18"/>
      <stop offset="0.91" stop-color="#fff" stop-opacity="0.05"/>
      <stop offset="1" stop-color="#fff" stop-opacity="0"/>
    </radialGradient>
    <radialGradient id="radial-gradient-2" cx="1049.41" cy="1717.99" fy="1717.987615969956" r="135.94" xlink:href="#radial-gradient"/>
    <radialGradient id="radial-gradient-3" cx="-3769.64" cy="-3267.27" r="0.39" gradientTransform="matrix(10.73, 100.67, 7.15, -88.26, 63884.77, 91523.04)" gradientUnits="userSpaceOnUse">
      <stop offset="0"/>
      <stop offset="0.63" stop-color="#040404" stop-opacity="0.97"/>
      <stop offset="1" stop-color="gray" stop-opacity="0"/>
    </radialGradient>
    <radialGradient id="radial-gradient-4" cx="-3034.83" cy="-18053.96" r="8.4" gradientTransform="matrix(5.48, 0, 0, -0.26, 16946.54, -4845.82)" gradientUnits="userSpaceOnUse">
      <stop offset="0.63"/>
      <stop offset="1" stop-color="#010101" stop-opacity="0"/>
    </radialGradient>
    <radialGradient id="radial-gradient-5" cx="-3233.16" cy="-4605.74" r="0.9" gradientTransform="matrix(5.51, 0, 0, -2.43, 22229.06, -11204.37)" xlink:href="#radial-gradient-4"/>
    <radialGradient id="radial-gradient-6" cx="-2581.3" cy="-4273.64" r="0.4" gradientTransform="matrix(0, 26.2, 6.99, 0, 29984.53, 68019.1)" xlink:href="#radial-gradient-4"/>
    <radialGradient id="radial-gradient-7" cx="-2622.35" cy="-4238.4" r="0.4" gradientTransform="matrix(0, 26.2, 6.99, 0, 29711.58, 69094.95)" xlink:href="#radial-gradient-4"/>
    <radialGradient id="radial-gradient-8" cx="-2685.46" cy="-4182.5" r="0.4" gradientTransform="matrix(0, 26.2, 6.99, 0, 29279.41, 70748.36)" xlink:href="#radial-gradient-4"/>
    <radialGradient id="radial-gradient-9" cx="-3532.18" cy="-3096.17" r="0.21" gradientTransform="matrix(55, 0, 0, -55, 194349.72, -170018.34)" gradientUnits="userSpaceOnUse">
      <stop offset="0" stop-color="#fff"/>
      <stop offset="0.4" stop-color="#fff" stop-opacity="0.37"/>
      <stop offset="1" stop-color="#fff" stop-opacity="0"/>
    </radialGradient>
    <radialGradient id="radial-gradient-10" cx="-3532.19" cy="-3097.85" r="0.22" xlink:href="#radial-gradient-9"/>
    <clipPath id="clip-path-4">
      <rect id="Rectangle_5685" data-name="Rectangle 5685" class="cls-1" x="18.92" y="142.33" width="90.39" height="22.99"/>
    </clipPath>
    <linearGradient id="linear-gradient" x1="9.53" y1="145.85" x2="-84.49" y2="166.96" gradientUnits="userSpaceOnUse">
      <stop offset="0"/>
      <stop offset="0.24" stop-color="#fff"/>
      <stop offset="0.46"/>
      <stop offset="0.71" stop-color="#fff"/>
      <stop offset="1"/>
    </linearGradient>
    <clipPath id="clip-path-5">
      <rect class="cls-1" x="-214.66" y="-382.77" width="728.17" height="89.79"/>
    </clipPath>
    <clipPath id="clip-path-6">
      <rect class="cls-1" x="747.31" y="-273.16" width="300.31" height="250.07"/>
    </clipPath>
  </defs>
  <g id="_160x600" data-name="160x600">
    <g class="cls-3">
      <g id="bg" data-name="bg copy">
        <g id="bgi">
          <g id="background">
            <g class="cls-4">
              <g id="back_light_ellipse">
                <ellipse id="back_light_ellipse-2" data-name="back_light_ellipse" class="cls-5" cx="101.84" cy="332.23" rx="248.2" ry="273.59"/>
              </g>
              <image id="bg-image" width="2627" height="2615" transform="translate(-235.41 -12.3) scale(0.24)" xlink:href="img2.jpg"/>
            </g>
          </g>
        </g>
        <g id="metal_copy" data-name="metal copy">
          <g id="back_light_copy" data-name="back_light copy">
            <ellipse id="back_light_ellipse-3" data-name="back_light_ellipse" class="cls-6" cx="75.65" cy="321.97" rx="93.49" ry="103.06"/>
          </g>
          <g id="shadow_copy" data-name="shadow copy">
            <g id="shadow_layer">
              <image id="front-shadow" width="1826" height="1080" transform="matrix(0.13, 0, 0.01, 0.13, -37.07, 375.54)" xlink:href="metal-BL-A2.png"/>
              <g id="back-shadow">
                <image width="293" height="166" transform="translate(-65.72 265.92)" xlink:href="metal-BL-A3.png"/>
              </g>
            </g>
          </g>
          <g id="Group_12446" data-name="Group 12446">
            <ellipse id="Ellipse_70" data-name="Ellipse 70" class="cls-7" cx="80.96" cy="394.26" rx="5.64" ry="60.66" transform="translate(-314.63 468.51) rotate(-89.03)"/>
          </g>
          <g id="metal-2">
            <g id="drop_shadow" data-name="drop shadow">
              <ellipse id="Ellipse_1" data-name="Ellipse 1" class="cls-8" cx="79.79" cy="394.05" rx="46.19" ry="2.18"/>
              <ellipse id="Ellipse_2" data-name="Ellipse 2" class="cls-9" cx="121.01" cy="396.22" rx="4.96" ry="2.19"/>
              <ellipse id="Ellipse_3" data-name="Ellipse 3" class="cls-10" cx="111.77" cy="394.32" rx="2.77" ry="10.37" transform="translate(-288.31 483.29) rotate(-86.71)"/>
              <ellipse id="Ellipse_4" data-name="Ellipse 4" class="cls-11" cx="85.19" cy="394.7" rx="2.77" ry="10.37" transform="translate(-313.74 457.11) rotate(-86.71)"/>
              <ellipse id="Ellipse_5" data-name="Ellipse 5" class="cls-12" cx="43.76" cy="394.7" rx="2.77" ry="10.37" transform="translate(-352.79 415.75) rotate(-86.71)"/>
            </g>
            <image width="1469" height="2089" transform="translate(29.57 259.37) scale(0.07)" xlink:href="metal-BL-A4.png"/>
          </g>
          <g id="gleam_copy" data-name="gleam copy">
            <circle id="shine1" data-name="Ellipse 145" class="cls-13" cx="79.76" cy="271.21" r="14.55"/>
            <circle id="shine2" data-name="Ellipse 145" class="cls-14" cx="79.22" cy="363.3" r="15.08"/>
          </g>
        </g>
      </g>
      <g id="headlines_copy" data-name="headlines copy">
        <g id="option1_copy" data-name="option1 copy">
          <g id="f2" class="cls-15">
            <path class="cls-16" d="M19,87.06h4.4c4.07,0,6.44,2.34,6.44,5.64v0c0,3.29-2.4,5.73-6.5,5.73H19Zm4.45,8.6c1.89,0,3.14-1,3.14-2.88v0c0-1.82-1.25-2.88-3.14-2.88H22.14v5.8Z"/>
            <path class="cls-16" d="M31,94.1v0a4.42,4.42,0,0,1,4.45-4.61c3,0,4.44,2.23,4.44,4.83,0,.19,0,.42,0,.63H34a1.82,1.82,0,0,0,1.91,1.45,2.65,2.65,0,0,0,2-.9l1.71,1.42a4.61,4.61,0,0,1-3.83,1.8A4.44,4.44,0,0,1,31,94.1Zm6-.77c-.11-1-.68-1.6-1.53-1.6s-1.37.64-1.53,1.6Z"/>
            <path class="cls-16" d="M41.3,89.65h3.09v1.17a3.27,3.27,0,0,1,2.68-1.37C49.17,89.45,51,91.2,51,94v0c0,2.87-1.81,4.61-3.9,4.61a3.32,3.32,0,0,1-2.69-1.27v3.68H41.3Zm6.63,4.41v0a1.81,1.81,0,1,0-3.6,0v0a1.81,1.81,0,1,0,3.6,0Z"/>
            <path class="cls-16" d="M52.49,86.57h3.1V98.46h-3.1Z"/>
            <path class="cls-16" d="M57,94.1v0a4.88,4.88,0,0,1,9.75,0v0a4.71,4.71,0,0,1-4.89,4.62A4.65,4.65,0,0,1,57,94.1Zm6.73,0v0a1.91,1.91,0,0,0-1.87-2A1.84,1.84,0,0,0,60,94v0a1.91,1.91,0,0,0,1.87,2A1.84,1.84,0,0,0,63.74,94.1Z"/>
            <path class="cls-16" d="M67.39,100.35l1-2.16a3,3,0,0,0,1.35.47.75.75,0,0,0,.71-.36L67,89.65h3.24L72,95l1.67-5.31h3.17l-3.22,8.6c-.77,2.06-1.6,2.87-3.36,2.87A5.7,5.7,0,0,1,67.39,100.35Z"/>
            <path class="cls-16" d="M19.05,101.87h3.17v11.41H19.05Z"/>
            <path class="cls-16" d="M24.29,104.47h3.1v1.23A3.27,3.27,0,0,1,30,104.27c1.87,0,3,1.24,3,3.24v5.77h-3.1v-4.77c0-1-.5-1.49-1.24-1.49a1.31,1.31,0,0,0-1.3,1.49v4.77h-3.1Z"/>
            <path class="cls-16" d="M35.23,110.54V107h-1v-2.49h1v-2.24h3.1v2.24h2.05V107H38.33v3c0,.62.27.88.84.88a2.74,2.74,0,0,0,1.18-.29V113a4.44,4.44,0,0,1-2.15.5C36.34,113.46,35.23,112.65,35.23,110.54Z"/>
            <path class="cls-16" d="M41.39,108.91v0a4.42,4.42,0,0,1,4.45-4.61c3,0,4.45,2.23,4.45,4.82,0,.2,0,.43,0,.64h-5.9a1.82,1.82,0,0,0,1.91,1.45,2.65,2.65,0,0,0,1.95-.9l1.71,1.42a4.59,4.59,0,0,1-3.83,1.79A4.43,4.43,0,0,1,41.39,108.91Zm6-.76c-.12-1-.69-1.6-1.54-1.6s-1.36.64-1.53,1.6Z"/>
            <path class="cls-16" d="M51.72,104.47h3.1v1.77a2.69,2.69,0,0,1,2.78-1.92v3.26h-.26c-1.61,0-2.52.93-2.52,3v2.74h-3.1Z"/>
            <path class="cls-16" d="M58.34,108.91v0a4.58,4.58,0,0,1,4.73-4.59,4.16,4.16,0,0,1,3.76,2l-2.1,1.56a1.9,1.9,0,0,0-1.64-.93,1.83,1.83,0,0,0-1.73,2v0a1.83,1.83,0,0,0,1.76,2,2.12,2.12,0,0,0,1.69-.92l2.07,1.5a4.36,4.36,0,0,1-3.92,2A4.55,4.55,0,0,1,58.34,108.91Z"/>
            <path class="cls-16" d="M67.41,108.91v0a4.88,4.88,0,0,1,9.75,0v0a4.88,4.88,0,0,1-9.75,0Zm6.73,0v0a1.91,1.91,0,0,0-1.87-2,1.85,1.85,0,0,0-1.84,2v0a1.91,1.91,0,0,0,1.87,2A1.85,1.85,0,0,0,74.14,108.91Z"/>
            <path class="cls-16" d="M78.55,104.47h3.1v1.23a3.27,3.27,0,0,1,2.64-1.43c1.87,0,3,1.24,3,3.24v5.77h-3.1v-4.77c0-1-.5-1.49-1.24-1.49a1.31,1.31,0,0,0-1.3,1.49v4.77h-3.1Z"/>
            <path class="cls-16" d="M89.08,104.47h3.1v1.23a3.27,3.27,0,0,1,2.64-1.43c1.87,0,3,1.24,3,3.24v5.77h-3.1v-4.77c0-1-.51-1.49-1.24-1.49a1.31,1.31,0,0,0-1.3,1.49v4.77h-3.1Z"/>
            <path class="cls-16" d="M99.18,108.91v0a4.42,4.42,0,0,1,4.45-4.61c3,0,4.44,2.23,4.44,4.82,0,.2,0,.43,0,.64h-5.9a1.82,1.82,0,0,0,1.91,1.45,2.65,2.65,0,0,0,2-.9l1.71,1.42a4.59,4.59,0,0,1-3.83,1.79A4.43,4.43,0,0,1,99.18,108.91Zm6-.76c-.11-1-.68-1.6-1.53-1.6s-1.37.64-1.53,1.6Z"/>
            <path class="cls-16" d="M109.06,108.91v0a4.57,4.57,0,0,1,4.72-4.59,4.18,4.18,0,0,1,3.77,2l-2.11,1.56a1.9,1.9,0,0,0-1.64-.93,1.83,1.83,0,0,0-1.73,2v0a1.84,1.84,0,0,0,1.76,2,2.14,2.14,0,0,0,1.7-.92l2.06,1.5a4.35,4.35,0,0,1-3.92,2A4.54,4.54,0,0,1,109.06,108.91Z"/>
            <path class="cls-16" d="M119.35,110.54V107h-1v-2.49h1v-2.24h3.1v2.24h2V107h-2v3c0,.62.28.88.85.88a2.7,2.7,0,0,0,1.17-.29V113a4.41,4.41,0,0,1-2.15.5C120.46,113.46,119.35,112.65,119.35,110.54Z"/>
            <path class="cls-16" d="M125.51,108.91v0a4.42,4.42,0,0,1,4.45-4.61c3,0,4.45,2.23,4.45,4.82,0,.2,0,.43,0,.64h-5.9a1.83,1.83,0,0,0,1.91,1.45,2.68,2.68,0,0,0,2-.9l1.71,1.42a4.61,4.61,0,0,1-3.83,1.79A4.44,4.44,0,0,1,125.51,108.91Zm6-.76a1.58,1.58,0,0,0-1.53-1.6c-.82,0-1.37.64-1.53,1.6Z"/>
            <path class="cls-16" d="M135.45,108.91v0c0-2.87,1.79-4.61,3.87-4.61a3.37,3.37,0,0,1,2.71,1.27v-4.15h3.1v11.89H142v-1.17a3.28,3.28,0,0,1-2.69,1.37C137.26,113.48,135.45,111.73,135.45,108.91Zm6.63,0v0a1.81,1.81,0,1,0-3.6,0v0a1.81,1.81,0,1,0,3.6,0Z"/>
            <path class="cls-16" d="M19,116.69h5.85a4.17,4.17,0,0,1,3.11,1,2.5,2.5,0,0,1,.74,1.84v0a2.65,2.65,0,0,1-1.76,2.55,2.76,2.76,0,0,1,2.26,2.78v0c0,2-1.59,3.15-4.32,3.15H19Zm5.07,4.55c1,0,1.5-.33,1.5-1v0c0-.62-.49-1-1.44-1H22.06v2Zm.46,4.32c1,0,1.51-.38,1.51-1v0c0-.62-.49-1-1.55-1H22.06v2.1Z"/>
            <path class="cls-16" d="M30.24,125.57v0c0-1.82,1.38-2.77,3.45-2.77a6.75,6.75,0,0,1,2.12.34V123c0-.92-.57-1.44-1.76-1.44a6.2,6.2,0,0,0-2.43.49L31,119.84a8.77,8.77,0,0,1,3.56-.69,4.54,4.54,0,0,1,3.36,1.08,3.67,3.67,0,0,1,1,2.8v5.07H35.79v-.91a3.31,3.31,0,0,1-2.59,1.11A2.68,2.68,0,0,1,30.24,125.57Zm5.6-.66v-.41a3.24,3.24,0,0,0-1.2-.23c-.9,0-1.42.44-1.42,1.09v0a1,1,0,0,0,1.09,1A1.41,1.41,0,0,0,35.84,124.91Z"/>
            <path class="cls-16" d="M40.63,119.28h3.09v1.78a2.69,2.69,0,0,1,2.79-1.92v3.26h-.26c-1.61,0-2.53.93-2.53,3v2.74H40.63Z"/>
            <path class="cls-16" d="M47.26,123.73v0a4.42,4.42,0,0,1,4.45-4.61c3,0,4.45,2.23,4.45,4.82,0,.2,0,.43,0,.64h-5.9A1.83,1.83,0,0,0,52.15,126a2.65,2.65,0,0,0,2-.9l1.72,1.42A4.61,4.61,0,0,1,52,128.31,4.43,4.43,0,0,1,47.26,123.73Zm6-.76c-.12-1-.69-1.6-1.54-1.6s-1.36.64-1.53,1.6Z"/>
            <path class="cls-16" d="M62.17,116.69h3.34l2.73,4.42L71,116.69H74.3V128.1H71.15v-6.55L68.24,126h-.07l-2.9-4.43v6.52h-3.1Z"/>
            <path class="cls-16" d="M76,123.73v0a4.42,4.42,0,0,1,4.45-4.61c3,0,4.45,2.23,4.45,4.82,0,.2,0,.43,0,.64h-5.9A1.83,1.83,0,0,0,80.85,126a2.65,2.65,0,0,0,2-.9l1.71,1.42a4.58,4.58,0,0,1-3.83,1.79A4.43,4.43,0,0,1,76,123.73Zm6-.76c-.12-1-.69-1.6-1.54-1.6s-1.36.64-1.53,1.6Z"/>
            <path class="cls-16" d="M86.63,125.36v-3.58h-1v-2.5h1v-2.23h3.09v2.23h2.06v2.5H89.72v3c0,.62.28.88.85.88a2.66,2.66,0,0,0,1.17-.29v2.42a4.38,4.38,0,0,1-2.15.51C87.74,128.28,86.63,127.46,86.63,125.36Z"/>
            <path class="cls-16" d="M92.79,125.57v0c0-1.82,1.38-2.77,3.45-2.77a6.75,6.75,0,0,1,2.12.34V123c0-.92-.57-1.44-1.76-1.44a6.2,6.2,0,0,0-2.43.49l-.64-2.18a8.85,8.85,0,0,1,3.57-.69,4.54,4.54,0,0,1,3.36,1.08,3.67,3.67,0,0,1,1,2.8v5.07H98.34v-.91a3.31,3.31,0,0,1-2.59,1.11A2.68,2.68,0,0,1,92.79,125.57Zm5.6-.66v-.41a3.24,3.24,0,0,0-1.2-.23c-.9,0-1.42.44-1.42,1.09v0a1,1,0,0,0,1.09,1A1.41,1.41,0,0,0,98.39,124.91Z"/>
            <path class="cls-16" d="M103.21,116.2h3.1v11.9h-3.1Z"/>
            <path class="cls-16" d="M18.21,131.51h3.35l2,6.6,2.2-6.63h2.73l2.2,6.63,2-6.6h3.28L32.12,143H29.36l-2.3-6.57L24.78,143H22Z"/>
            <path class="cls-16" d="M37,131h3.23v2.28H37Zm.07,3.08h3.09v8.82H37.09Z"/>
            <path class="cls-16" d="M42.49,140.18V136.6h-1v-2.5h1v-2.23h3.1v2.23h2v2.5h-2v3c0,.62.27.88.84.88a2.75,2.75,0,0,0,1.18-.3v2.43a4.43,4.43,0,0,1-2.15.51C43.6,143.1,42.49,142.28,42.49,140.18Z"/>
            <path class="cls-16" d="M49.22,131h3.1v4.29a3.21,3.21,0,0,1,2.63-1.4c1.88,0,3,1.24,3,3.24v5.77H54.86v-4.78c0-1-.51-1.48-1.24-1.48a1.3,1.3,0,0,0-1.3,1.48v4.78h-3.1Z"/>
            <path class="cls-16" d="M63.63,140.39v0c0-1.83,1.38-2.77,3.45-2.77a6.7,6.7,0,0,1,2.12.34v-.15c0-.91-.57-1.43-1.76-1.43a6.2,6.2,0,0,0-2.43.49l-.63-2.18A8.78,8.78,0,0,1,68,134a4.51,4.51,0,0,1,3.35,1.08,3.67,3.67,0,0,1,1,2.8v5.07H69.18V142a3.34,3.34,0,0,1-2.59,1.1A2.67,2.67,0,0,1,63.63,140.39Zm5.6-.67v-.4a3.24,3.24,0,0,0-1.2-.23c-.9,0-1.42.44-1.42,1.09v0a1,1,0,0,0,1.09,1A1.41,1.41,0,0,0,69.23,139.72Z"/>
            <path class="cls-16" d="M77.66,141.22l1.76-2.1a5.87,5.87,0,0,0,3.7,1.37c.85,0,1.3-.29,1.3-.78v0c0-.48-.37-.74-1.92-1.1-2.43-.55-4.3-1.23-4.3-3.58v0c0-2.12,1.68-3.65,4.41-3.65a7.22,7.22,0,0,1,4.7,1.51l-1.58,2.23a5.78,5.78,0,0,0-3.2-1.12c-.76,0-1.14.33-1.14.73v0c0,.53.39.75,2,1.11,2.63.57,4.26,1.42,4.26,3.56v0c0,2.33-1.84,3.71-4.61,3.71A8,8,0,0,1,77.66,141.22Z"/>
            <path class="cls-16" d="M89.08,131h3.23v2.28H89.08Zm.07,3.08h3.09v8.82H89.15Z"/>
            <path class="cls-16" d="M94.09,134.1h3.1v1.24a3.27,3.27,0,0,1,2.64-1.43c1.87,0,3,1.24,3,3.24v5.77h-3.1v-4.78c0-1-.5-1.48-1.24-1.48a1.3,1.3,0,0,0-1.3,1.48v4.78h-3.1Z"/>
            <path class="cls-16" d="M104.45,144.55l1-2.06a6,6,0,0,0,3.08.84c1.54,0,2.31-.77,2.31-2.17v-.34a3.43,3.43,0,0,1-2.72,1.32,3.84,3.84,0,0,1-3.91-4.09v0a3.83,3.83,0,0,1,3.81-4.1,3.55,3.55,0,0,1,2.77,1.24V134.1h3.1v6.7a4.71,4.71,0,0,1-1.14,3.52,5.24,5.24,0,0,1-3.88,1.24A9.48,9.48,0,0,1,104.45,144.55Zm6.39-6.5v0a1.8,1.8,0,0,0-3.6,0v0a1.8,1.8,0,0,0,3.6,0Z"/>
            <path class="cls-16" d="M115.75,131h3.1v11.9h-3.1Z"/>
            <path class="cls-16" d="M120.3,138.55v0a4.42,4.42,0,0,1,4.45-4.61c3,0,4.45,2.23,4.45,4.82,0,.2,0,.42,0,.64h-5.9a1.83,1.83,0,0,0,1.91,1.45,2.65,2.65,0,0,0,2-.9l1.72,1.42a4.63,4.63,0,0,1-3.83,1.79A4.43,4.43,0,0,1,120.3,138.55Zm6-.77a1.58,1.58,0,0,0-1.54-1.59c-.81,0-1.36.63-1.53,1.59Z"/>
            <path class="cls-16" d="M22.92,146.25h3l4.86,11.49H27.44l-.83-2h-4.4l-.82,2H18.07Zm2.78,7L24.42,150l-1.28,3.24Z"/>
            <path class="cls-16" d="M32,146.33h4.89c2.88,0,4.74,1.48,4.74,4v0c0,2.69-2.07,4.11-4.9,4.11H35.15v3.26H32ZM36.65,152c1.13,0,1.81-.59,1.81-1.48v0c0-1-.68-1.5-1.83-1.5H35.15v3Z"/>
            <path class="cls-16" d="M43.09,146.33h3.18v11.41H43.09Z"/>
            <path class="cls-16" d="M52.48,152.07v0a5.86,5.86,0,0,1,6-5.93,5.59,5.59,0,0,1,4.84,2.38L61,150.32A3.05,3.05,0,0,0,58.46,149a2.82,2.82,0,0,0-2.72,3v0a2.82,2.82,0,0,0,2.72,3.05A3.1,3.1,0,0,0,61,153.7l2.38,1.69a6,6,0,0,1-10.93-3.32Z"/>
            <path class="cls-16" d="M64.32,155.21v0c0-1.83,1.38-2.77,3.45-2.77a6.75,6.75,0,0,1,2.12.34v-.15c0-.91-.57-1.43-1.76-1.43a6.2,6.2,0,0,0-2.43.49l-.63-2.19a9,9,0,0,1,3.57-.68A4.47,4.47,0,0,1,72,149.87a3.67,3.67,0,0,1,1,2.8v5.07H69.87v-.92a3.31,3.31,0,0,1-2.59,1.11A2.67,2.67,0,0,1,64.32,155.21Zm5.6-.67v-.4a3.24,3.24,0,0,0-1.2-.23c-.9,0-1.42.44-1.42,1.09v0a1,1,0,0,0,1.09,1A1.41,1.41,0,0,0,69.92,154.54Z"/>
            <path class="cls-16" d="M74.75,145.84h3.09v11.9H74.75Z"/>
            <path class="cls-16" d="M79.72,145.84h3.09v11.9H79.72Z"/>
            <path class="cls-16" d="M84.66,154.56h3.22v3.18H84.66Z"/>
          </g>
        </g>
        <g id="c3">
          <g id="cta-2" data-name="cta">
            <g class="cls-17">
              <rect id="cta-glow" class="cls-18" x="-229.09" y="106.13" width="368.47" height="103.86"/>
            </g>
            <rect id="Rectangle_5685-2" data-name="Rectangle 5685" class="cls-19" x="18.41" y="141.79" width="91.45" height="24.06"/>
            <g class="cls-15">
              <path class="cls-16" d="M37.14,149.81h1.52v5.53H42.1v1.38h-5Z"/>
              <path class="cls-16" d="M42.73,154.1v0a2.63,2.63,0,0,1,2.62-2.75,2.57,2.57,0,0,1,2.57,2.87c0,.12,0,.26,0,.4H44.22a1.23,1.23,0,0,0,1.3,1,1.76,1.76,0,0,0,1.28-.54l.86.76a2.8,2.8,0,0,1-4.93-1.75Zm3.73-.44a1.14,1.14,0,0,0-1.11-1.13,1.19,1.19,0,0,0-1.15,1.13Z"/>
              <path class="cls-16" d="M48.72,155.2v0c0-1.16.88-1.69,2.14-1.69a3.73,3.73,0,0,1,1.29.22v-.09c0-.62-.39-1-1.14-1a3.84,3.84,0,0,0-1.46.29l-.37-1.15a4.74,4.74,0,0,1,2-.42A2.44,2.44,0,0,1,53,152a2.34,2.34,0,0,1,.57,1.69v3.07H52.14v-.57a2.06,2.06,0,0,1-1.6.67A1.64,1.64,0,0,1,48.72,155.2Zm3.45-.35v-.26a2.31,2.31,0,0,0-1-.2c-.64,0-1,.26-1,.73v0c0,.4.34.64.82.64C51.69,155.78,52.17,155.4,52.17,154.85Z"/>
              <path class="cls-16" d="M54.88,151.43h1.5v1.06a1.63,1.63,0,0,1,1.69-1.16v1.57H58c-1,0-1.61.6-1.61,1.86v2h-1.5Z"/>
              <path class="cls-16" d="M59,151.43h1.5v.75a1.85,1.85,0,0,1,1.55-.85,1.73,1.73,0,0,1,1.79,2v3.43h-1.5v-2.95c0-.71-.33-1.08-.91-1.08s-.93.37-.93,1.08v2.95H59Z"/>
              <path class="cls-16" d="M68.27,149.81h1.64l1.82,2.92,1.81-2.92h1.64v6.91H73.67v-4.51l-1.94,2.95h0l-1.93-2.92v4.48H68.27Z"/>
              <path class="cls-16" d="M76.42,154.1v0a2.78,2.78,0,0,1,2.88-2.75,2.74,2.74,0,0,1,2.85,2.73v0a2.87,2.87,0,0,1-5.73,0Zm4.25,0v0a1.4,1.4,0,0,0-1.39-1.46,1.35,1.35,0,0,0-1.37,1.44v0a1.4,1.4,0,0,0,1.39,1.46A1.35,1.35,0,0,0,80.67,154.1Z"/>
              <path class="cls-16" d="M83.23,151.43h1.5v1.06a1.63,1.63,0,0,1,1.69-1.16v1.57h-.08c-1,0-1.61.6-1.61,1.86v2h-1.5Z"/>
              <path class="cls-16" d="M87,154.1v0a2.63,2.63,0,0,1,2.62-2.75,2.58,2.58,0,0,1,2.58,2.87c0,.12,0,.26,0,.4H88.45a1.22,1.22,0,0,0,1.29,1,1.74,1.74,0,0,0,1.28-.54l.86.76A2.8,2.8,0,0,1,87,154.1Zm3.74-.44a1.15,1.15,0,0,0-1.12-1.13,1.18,1.18,0,0,0-1.14,1.13Z"/>
            </g>
          </g>
          <g>
            <path class="cls-16" d="M15.56,71.87l3.57-3.37c1,1.17,1.89,1.86,3.12,1.86,1.4,0,2.28-1,2.28-2.8V54.9h5.52V67.59a7.46,7.46,0,0,1-2,5.63,7.56,7.56,0,0,1-5.49,2A8.13,8.13,0,0,1,15.56,71.87Z"/>
            <path class="cls-16" d="M33.08,66.13V54.9h5.63V66c0,2.89,1.46,4.26,3.69,4.26s3.69-1.31,3.69-4.11V54.9h5.63V66c0,6.45-3.69,9.28-9.38,9.28S33.08,72.39,33.08,66.13Z"/>
            <path class="cls-16" d="M53.49,71.93l3.09-3.69a10.25,10.25,0,0,0,6.49,2.4c1.48,0,2.29-.51,2.29-1.37v-.06c0-.82-.66-1.28-3.38-1.91-4.26-1-7.54-2.17-7.54-6.29V61c0-3.71,2.94-6.4,7.74-6.4a12.61,12.61,0,0,1,8.23,2.66l-2.77,3.92a10,10,0,0,0-5.6-2c-1.34,0-2,.58-2,1.29v.06c0,.91.69,1.31,3.46,1.94,4.6,1,7.46,2.49,7.46,6.23v.06c0,4.09-3.23,6.51-8.09,6.51A14,14,0,0,1,53.49,71.93Z"/>
            <path class="cls-16" d="M78,59.75H72V54.9H89.51v4.85h-6V74.9H78Z"/>
            <path class="cls-16" d="M24.13,78.75h5.35L38,98.9h-6l-1.46-3.57H22.88L21.45,98.9H15.62ZM29,91l-2.23-5.68L24.51,91Z"/>
            <path class="cls-16" d="M40,78.9h7.71C54.81,78.9,59,83,59,88.78v.06c0,5.77-4.2,10.06-11.4,10.06H40ZM47.75,94c3.31,0,5.51-1.83,5.51-5.06v-.06c0-3.2-2.2-5.06-5.51-5.06H45.49V94Z"/>
            <path class="cls-16" d="M61.81,78.9h7.72c7.15,0,11.29,4.11,11.29,9.88v.06c0,5.77-4.2,10.06-11.4,10.06H61.81ZM69.61,94c3.32,0,5.52-1.83,5.52-5.06v-.06c0-3.2-2.2-5.06-5.52-5.06H67.36V94Z"/>
            <path class="cls-16" d="M17.22,102.9h5.86l4.77,7.74,4.77-7.74h5.86v20H33V111.41l-5.12,7.83h-.11l-5.09-7.77V122.9H17.22Z"/>
            <path class="cls-16" d="M42,102.9H58.12v4.71H47.52v3h9.6V115h-9.6v3.18H58.26v4.71H42Z"/>
            <path class="cls-16" d="M66,107.75H60V102.9H77.53v4.85h-6V122.9H66Z"/>
            <path class="cls-16" d="M84.31,102.75h5.34l8.52,20.15h-6l-1.45-3.57H83.05l-1.43,3.57H75.79ZM89.17,115l-2.23-5.68L84.68,115Z"/>
            <path class="cls-16" d="M100.12,102.9h5.54V118h9.69v4.86H100.12Z"/>
          </g>
        </g>
      </g>
      <g id="logo_copy" data-name="logo copy">
        <path id="Path_17007" data-name="Path 17007" class="cls-16" d="M162.56,438.29l-117.37,0L10.83,492.8H162.56Z"/>
        <g id="Group_12161" data-name="Group 12161">
          <rect id="Rectangle_1" data-name="Rectangle 1" x="109.51" y="452.02" width="0.26" height="25.87"/>
          <g id="Group_2" data-name="Group 2">
            <path id="Path_17" data-name="Path 17" d="M43.41,472.34v5.55h5v-.72H44.22v-1.81H46.9v-.73H44.22v-1.57h4v-.73Z"/>
            <path id="Path_18" data-name="Path 18" d="M65.37,475.68a1.54,1.54,0,0,1-1.44,1.64h-.19a1.49,1.49,0,0,1-1.54-1.44,1.33,1.33,0,0,1,0-.2v-3.33h-.8v3.36a2.23,2.23,0,0,0,2.12,2.34h.21a2.21,2.21,0,0,0,2.43-2c0-.12,0-.24,0-.36v-3.36h-.8Z"/>
            <rect id="Rectangle_2" data-name="Rectangle 2" x="70.64" y="472.34" width="0.8" height="5.55"/>
            <path id="Path_19" data-name="Path 19" d="M80.94,472.34v4.35L77,472.34h-.79v5.55H77V473.5L81,477.89h.78v-5.55Z"/>
            <rect id="Rectangle_3" data-name="Rectangle 3" x="86.56" y="472.34" width="0.79" height="5.55"/>
            <path id="Path_20" data-name="Path 20" d="M96.43,472.33l-1.84,2-1.78-2h-1L94,474.88l-2.79,3h1l2.29-2.47,2.18,2.47h1.1l-2.7-3,2.31-2.55Z"/>
            <path id="Path_21" data-name="Path 21" d="M54.41,472.11A2.91,2.91,0,0,0,51.48,475v.16a2.88,2.88,0,0,0,2.79,2.95h.16a3.1,3.1,0,0,0,1.3-.31l.45.52h.92l-.79-.9a2.86,2.86,0,0,0,1.06-2.32v0a2.88,2.88,0,0,0-2.8-2.95h-.16m2.13,3a2.18,2.18,0,0,1-.72,1.73l-.43-.5h-.92l.75.87a2,2,0,0,1-.77.16,2.15,2.15,0,0,1-2.14-2.16.38.38,0,0,1,0-.1v0a2.11,2.11,0,0,1,2-2.26h.12A2.14,2.14,0,0,1,56.54,475v.13Z"/>
          </g>
          <g id="Group_3" data-name="Group 3">
            <path id="Path_22" data-name="Path 22" class="cls-20" d="M71,452l-2.26.78v11.86l-1.5-.53v-10.8l-4.52,1.58v7.65L61.24,462v-6.59l-1.51.52v7.14l4.53,1.58V456l1.5-.53v9.76l4.52,1.57v-12.9l.75-.27.76.27v12.9l4.52-1.57v-9.76l1.5.53v8.7l4.52-1.58V456l-1.51-.52V462l-1.5.53v-7.65l-4.52-1.58v10.81l-1.51.52V452.8Z"/>
            <path id="Path_23" data-name="Path 23" class="cls-20" d="M85.22,462.6a1.35,1.35,0,0,0,1.35-1.36h0a1.36,1.36,0,1,0-2.71,0h0a1.35,1.35,0,0,0,1.35,1.36h0m0-.15a1.18,1.18,0,0,1-1.2-1.18v0h0a1.2,1.2,0,1,1,2.4,0h0a1.21,1.21,0,0,1-1.2,1.21h0m-.56-.54H85v-.44h.22l.3.44h.41l-.35-.5a.44.44,0,0,0,.31-.44c0-.32-.24-.47-.57-.47h-.66Zm.34-.72v-.39h.3c.14,0,.24.07.24.19s-.09.2-.24.2Z"/>
          </g>
          <g id="Group_4" data-name="Group 4">
            <path id="Path_24" data-name="Path 24" class="cls-21" d="M120.45,462.15h1.18l1.93,2.83,1.91-2.83h1.17v6h-1.1v-4.29l-2,2.82h0l-2-2.8v4.27h-1.11Z"/>
            <path id="Path_25" data-name="Path 25" class="cls-21" d="M128.85,462.15h4.65v.94H130v1.55h3.15v.95H130v1.6h3.59v.94h-4.69Z"/>
            <path id="Path_26" data-name="Path 26" class="cls-21" d="M137.25,463.13h-2v-1h5.1v1h-2v5h-1.1Z"/>
            <path id="Path_27" data-name="Path 27" class="cls-21" d="M143.54,462.11h1l2.74,6h-1.17l-.63-1.45h-3l-.65,1.45h-1.12Zm1.58,3.64L144,463.36,143,465.75Z"/>
            <path id="Path_28" data-name="Path 28" class="cls-21" d="M149.17,462.15h1.1v5h3.3v1h-4.4Z"/>
          </g>
        </g>
      </g>
    </g>
  </g>
</svg>
