<?xml version="1.0" encoding="utf-8"?>
<!-- Generator: Adobe Illustrator 25.2.1, SVG Export Plug-In . SVG Version: 6.00 Build 0)  -->
<svg version="1.1" id="_300x250" xmlns="http://www.w3.org/2000/svg" xmlns:xlink="http://www.w3.org/1999/xlink" x="0px" y="0px"
	 viewBox="0 0 300 250" style="enable-background:new 0 0 300 250;" xml:space="preserve">
<style type="text/css">
	.st0{clip-path:url(#SVGID_2_);}
	.st1{opacity:0.95;fill:url(#back_light_ellipse_1_);enable-background:new    ;}
	.st2{fill:url(#Elipse_70_1_);}
	.st3{fill:#FFFFFF;}
	.st4{clip-path:url(#SVGID_4_);}
	.st5{opacity:0.29;fill:url(#cta-glow_1_);enable-background:new    ;}
	.st6{fill:none;stroke:#FFFFFF;stroke-width:0.64;stroke-miterlimit:10;}
	.st7{fill:#030504;}
	.st8{fill:#E4001B;}
</style>
<g>
	<defs>
		<rect id="SVGID_1_" width="300" height="250"/>
	</defs>
	<clipPath id="SVGID_2_">
		<use xlink:href="#SVGID_1_"  style="overflow:visible;"/>
	</clipPath>
	<g class="st0">
		<g id="BG">
			
				<image style="overflow:visible;enable-background:new    ;" width="901" height="803" id="GettyImages-561860327" xlink:href="awareness1-300x2501.jpg"  transform="matrix(0.4806 0 0 0.4414 -69.05 -78.43)">
			</image>
			<g>
				
					<radialGradient id="back_light_ellipse_1_" cx="-1131.5684" cy="931.1212" r="0.2101" gradientTransform="matrix(542.92 0 0 562.69 614557.0625 -523817.8125)" gradientUnits="userSpaceOnUse">
					<stop  offset="0" style="stop-color:#FFFFFF"/>
					<stop  offset="0.26" style="stop-color:#FFFFFF;stop-opacity:0.68"/>
					<stop  offset="0.53" style="stop-color:#FFFFFF;stop-opacity:0.39"/>
					<stop  offset="0.75" style="stop-color:#FFFFFF;stop-opacity:0.18"/>
					<stop  offset="0.91" style="stop-color:#FFFFFF;stop-opacity:5.000000e-02"/>
					<stop  offset="1" style="stop-color:#FFFFFF;stop-opacity:0"/>
				</radialGradient>
				<ellipse id="back_light_ellipse" class="st1" cx="217.6" cy="121.3" rx="128.4" ry="133"/>
				
					<image style="overflow:visible;enable-background:new    ;" width="600" height="491" id="shadow_layer_300x" xlink:href="awareness11.png"  transform="matrix(0.2927 0 0 0.2927 142.814 106.288)">
				</image>
				
					<radialGradient id="Elipse_70_1_" cx="-1178.6774" cy="993.3497" r="0.2552" gradientTransform="matrix(129.659 -12.4268 113.289 11.6495 40516.5352 -26058.2676)" gradientUnits="userSpaceOnUse">
					<stop  offset="0" style="stop-color:#000000"/>
					<stop  offset="0.63" style="stop-color:#040404;stop-opacity:0.97"/>
					<stop  offset="1" style="stop-color:#808080;stop-opacity:0"/>
				</radialGradient>
				<path id="Elipse_70" class="st2" d="M175.3,159.6c0-2.8,23.1-4.7,51.4-4.2s51.3,3.1,51.2,5.9c0,2.8-23.1,4.7-51.4,4.2
					C198.2,165,175.2,162.4,175.3,159.6z"/>
				
					<image style="overflow:visible;enable-background:new    ;" width="500" height="345" id="PT200827_004C1-removebg" xlink:href="awareness1-300x2503.png"  transform="matrix(1.562490e-17 -0.2552 0.2627 1.608445e-17 180.4296 166.4565)">
				</image>
				
					<image style="overflow:visible;enable-background:new    ;" width="1721" height="1718" id="shine1_300x" xlink:href="awareness22.png"  transform="matrix(2.253498e-02 0 0 2.253498e-02 167.8567 53.7015)">
				</image>
			</g>
		</g>
		<g id="f2">
			<g id="With_The_Choice_And_performance_Of_Colocation_">
				<g>
					<path class="st3" d="M33.1,31.5h2.6l2.3,7.4l2.5-7.4h2.1l2.5,7.4l2.3-7.4h2.5l-3.7,11h-2.1l-2.5-7.2l-2.5,7.2h-2.1L33.1,31.5z"
						/>
					<path class="st3" d="M51,31h2.5v2.1H51V31z M51,34h2.4v8.4H51V34z"/>
					<path class="st3" d="M56,40v-4h-1v-2h1v-2.1h2.4V34h2v2h-2v3.6c0,0.5,0.2,0.8,0.8,0.8c0.4,0,0.8-0.1,1.2-0.3V42
						c-0.6,0.3-1.2,0.5-1.9,0.5C57,42.5,56,42,56,40z"/>
					<path class="st3" d="M62.1,31h2.4v4.2c0.6-0.8,1.5-1.3,2.5-1.3c1.8,0,2.8,1.2,2.8,3.1v5.4h-2.4v-4.7c0-1.1-0.5-1.7-1.4-1.7
						s-1.5,0.6-1.5,1.7v4.7h-2.4V31z"/>
					<path class="st3" d="M79.3,33.7H76v-2.2h9v2.2h-3.3v8.7h-2.4V33.7z"/>
					<path class="st3" d="M86.7,31H89v4.2c0.5-0.8,1.5-1.3,2.4-1.3c1.8,0,2.8,1.2,2.8,3.1v5.4H92v-4.7c0-1.1-0.5-1.7-1.4-1.7
						S89,36.6,89,37.7v4.7h-2.3V31z"/>
					<path class="st3" d="M96,38.3L96,38.3c-0.1-2.3,1.7-4.3,4-4.4c0.1,0,0.1,0,0.2,0c2.8,0,4.1,2.2,4.1,4.5c0,0.2,0,0.4,0,0.6h-5.9
						c0.2,1,1,1.7,2,1.6c0.8,0,1.5-0.3,2-0.9l1.4,1.2c-1.6,1.8-4.4,1.9-6.2,0.3C96.6,40.6,96,39.5,96,38.3z M101.9,37.6
						c0-1-0.8-1.8-1.8-1.8c-1,0-1.8,0.8-1.8,1.8H101.9z"/>
				</g>
				<g>
					<path class="st3" d="M33.4,53.7L33.4,53.7c-0.1-3.1,2.3-5.6,5.4-5.7c0.1,0,0.2,0,0.3,0c1.6-0.1,3.2,0.5,4.3,1.7l-1.5,1.8
						c-0.7-0.8-1.7-1.2-2.8-1.2c-1.8,0-3.2,1.5-3.2,3.3c0,0,0,0.1,0,0.1l0,0c-0.1,1.8,1.3,3.3,3.1,3.4c0,0,0.1,0,0.1,0
						c1.1,0,2.2-0.4,2.9-1.2l1.5,1.5c-1.1,1.3-2.8,2.1-4.5,2c-3,0.1-5.6-2.3-5.6-5.4C33.4,53.9,33.4,53.8,33.4,53.7z"/>
					<path class="st3" d="M45.2,47.7h2.4V52c0.5-0.8,1.5-1.4,2.5-1.4c1.8,0,2.8,1.2,2.8,3.1v5.4h-2.4v-4.7c0-1.1-0.5-1.7-1.4-1.7
						s-1.5,0.6-1.5,1.7v4.7h-2.4V47.7z"/>
					<path class="st3" d="M54.5,55L54.5,55c0-2.4,2-4.4,4.4-4.4c0,0,0.1,0,0.1,0c2.4-0.1,4.4,1.8,4.5,4.2c0,0,0,0.1,0,0.1l0,0
						c0,2.4-2,4.4-4.4,4.4c0,0-0.1,0-0.1,0c-2.4,0.1-4.4-1.8-4.5-4.2C54.5,55.1,54.5,55,54.5,55z M61.2,55L61.2,55
						c0.1-1.2-0.9-2.3-2.1-2.3c0,0-0.1,0-0.1,0c-1.2,0-2.2,0.9-2.2,2.1c0,0.1,0,0.1,0,0.2l0,0c-0.1,1.2,0.9,2.3,2.1,2.3
						c0,0,0,0,0.1,0c1.2,0,2.2-0.9,2.2-2.1C61.2,55.1,61.2,55.1,61.2,55z"/>
					<path class="st3" d="M65.3,47.7h2.5v2.1h-2.5V47.7z M65.4,50.7h2.4v8.4h-2.4V50.7z"/>
					<path class="st3" d="M69.6,55L69.6,55c-0.1-2.4,1.8-4.3,4.2-4.4c0.1,0,0.2,0,0.2,0c1.3-0.1,2.5,0.4,3.3,1.4l-1.4,1.6
						c-0.5-0.6-1.2-0.9-1.9-0.9c-1.2,0.1-2.1,1.1-2,2.3c0,0,0,0,0,0l0,0c-0.1,1.2,0.7,2.2,1.9,2.3c0,0,0.1,0,0.1,0
						c0.8,0,1.5-0.3,2-0.9l1.4,1.4c-0.8,1-2.1,1.6-3.4,1.5c-2.4,0.1-4.3-1.8-4.4-4.1C69.6,55.1,69.6,55.1,69.6,55z"/>
					<path class="st3" d="M78.3,55L78.3,55c-0.1-2.3,1.7-4.3,4-4.4c0.1,0,0.1,0,0.2,0c2.8,0,4.1,2.2,4.1,4.5c0,0.2,0,0.4,0,0.6h-5.9
						c0.2,1,1,1.7,2,1.6c0.8,0,1.5-0.3,2-0.9l1.4,1.2c-1.6,1.8-4.4,2-6.2,0.3C78.8,57.3,78.3,56.2,78.3,55z M84.2,54.3
						c0-1-0.8-1.8-1.8-1.8c-1,0-1.8,0.8-1.8,1.8H84.2z"/>
					<path class="st3" d="M96.9,48.1h2.2l4.7,11h-2.5l-1-2.5h-4.6l-1,2.5h-2.4L96.9,48.1z M99.4,54.6L98,51l-1.4,3.5L99.4,54.6z"/>
					<path class="st3" d="M105.2,50.8h2.4V52c0.5-0.8,1.5-1.3,2.4-1.3c1.8,0,2.8,1.2,2.8,3.1v5.4h-2.4v-4.7c0-1.1-0.5-1.7-1.4-1.7
						s-1.5,0.6-1.5,1.7v4.7h-2.4V50.8z"/>
					<path class="st3" d="M114.6,55L114.6,55c0-2.8,1.8-4.3,3.8-4.3c1,0,2,0.4,2.6,1.2v-4.1h2.4v11.4H121v-1.2
						c-0.6,0.9-1.6,1.4-2.6,1.4C116.5,59.3,114.6,57.8,114.6,55z M121,55L121,55c0.1-1.1-0.7-2.1-1.8-2.3s-2.1,0.7-2.3,1.8
						c0,0.2,0,0.3,0,0.5l0,0c-0.1,1.1,0.7,2.1,1.8,2.3s2.1-0.7,2.3-1.8C121.1,55.3,121.1,55.2,121,55z"/>
				</g>
				<g>
					<path class="st3" d="M33.9,64.9h4.5c2.6,0,4.2,1.5,4.2,3.8l0,0c0,2.5-2,3.8-4.4,3.8h-1.8v3.3h-2.4V64.9z M38.2,70.5
						c0.9,0.1,1.8-0.5,1.9-1.5c0-0.1,0-0.1,0-0.2l0,0c0-1.1-0.8-1.7-2-1.7h-1.8v3.3L38.2,70.5z"/>
					<path class="st3" d="M43.6,71.7L43.6,71.7c-0.1-2.3,1.7-4.3,4-4.4c0.1,0,0.1,0,0.2,0c2.8,0,4.1,2.2,4.1,4.5c0,0.2,0,0.4,0,0.6
						H46c0.2,1,1,1.7,2,1.6c0.8,0,1.5-0.3,2-0.9l1.4,1.2c-1.6,1.9-4.4,2.1-6.2,0.5C44.2,74.2,43.6,73,43.6,71.7L43.6,71.7z M49.5,71
						c0-1-0.8-1.8-1.8-1.8c-1,0-1.8,0.8-1.8,1.8H49.5z"/>
					<path class="st3" d="M53.6,67.5H56v1.7c0.3-1.2,1.5-1.9,2.7-1.8v2.5h-0.1c-1.6,0-2.5,1-2.5,3v3.1h-2.4V67.5z"/>
					<path class="st3" d="M60.5,69.5h-1v-2h1V67c0-0.7,0.2-1.4,0.7-2c0.5-0.5,1.2-0.7,1.9-0.7c0.6,0,1.1,0.1,1.7,0.2v2
						c-0.3-0.1-0.7-0.2-1.1-0.2c-0.5,0-0.8,0.3-0.8,0.9v0.3h1.9v1.9h-1.9v6.3h-2.4V69.5z"/>
					<path class="st3" d="M65.5,71.7L65.5,71.7c0-2.4,2-4.4,4.4-4.4c0,0,0.1,0,0.1,0c2.4-0.1,4.4,1.8,4.5,4.2c0,0,0,0.1,0,0.1l0,0
						c-0.3,2.5-2.5,4.3-5,4C67.4,75.4,65.8,73.7,65.5,71.7L65.5,71.7z M72.2,71.7L72.2,71.7c0.1-1.2-0.9-2.3-2.1-2.3
						c0,0-0.1,0-0.1,0c-1.2,0-2.2,0.9-2.2,2.1c0,0.1,0,0.1,0,0.2l0,0c-0.1,1.2,0.9,2.3,2.1,2.3c0,0,0,0,0.1,0c1.2,0,2.2-0.9,2.2-2.1
						C72.2,71.9,72.2,71.8,72.2,71.7z"/>
					<path class="st3" d="M76.3,67.5h2.4v1.7c0.3-1.2,1.5-1.9,2.7-1.8v2.5h-0.1c-1.6,0-2.5,1-2.5,3v3.1h-2.4V67.5z"/>
					<path class="st3" d="M82.8,67.5h2.4v1.2c0.6-0.8,1.5-1.3,2.5-1.3c1-0.1,1.9,0.5,2.4,1.3c0.7-0.8,1.7-1.3,2.7-1.3
						c1.8,0,2.8,1.1,2.8,3.1v5.4h-2.4v-4.7c0-1.1-0.5-1.7-1.4-1.7s-1.4,0.6-1.4,1.7v4.7H88v-4.7c0-1.1-0.5-1.7-1.4-1.7
						s-1.4,0.6-1.4,1.7v4.7h-2.4V67.5z"/>
					<path class="st3" d="M97.1,73.5L97.1,73.5c0-1.8,1.4-2.7,3.4-2.7c0.7,0,1.4,0.1,2,0.3V71c0-1-0.6-1.5-1.8-1.5
						c-0.8,0-1.6,0.2-2.3,0.4l-0.6-1.8c1-0.5,2.1-0.7,3.2-0.7c1-0.1,2,0.3,2.8,0.9c0.7,0.7,1,1.7,0.9,2.7v4.8h-2.3V75
						c-0.6,0.7-1.5,1-2.5,1c-1.4,0.1-2.7-0.9-2.9-2.3C97.1,73.6,97.1,73.5,97.1,73.5z M102.6,72.9v-0.4c-0.5-0.2-1-0.3-1.5-0.3
						c-1,0-1.6,0.4-1.6,1.2l0,0c0,0.6,0.5,1,1.3,1C101.8,74.4,102.6,73.8,102.6,72.9z"/>
					<path class="st3" d="M106.9,67.5h2.4v1.2c0.5-0.8,1.5-1.3,2.4-1.3c1.8,0,2.8,1.2,2.8,3.1v5.4h-2.4v-4.7c0-1.1-0.5-1.7-1.4-1.7
						s-1.5,0.6-1.5,1.7v4.7h-2.4L106.9,67.5z"/>
					<path class="st3" d="M116.2,71.7L116.2,71.7c0-2.4,1.8-4.3,4.2-4.4c0.1,0,0.1,0,0.2,0c1.3-0.1,2.5,0.4,3.3,1.4l-1.4,1.6
						c-0.5-0.6-1.2-0.9-1.9-0.9c-1.2,0.1-2.1,1.1-2,2.3c0,0,0,0,0,0l0,0c-0.1,1.2,0.8,2.2,2,2.3c0,0,0.1,0,0.1,0
						c0.7,0,1.4-0.3,1.9-0.9l1.4,1.4c-0.8,1-2.1,1.6-3.4,1.5c-2.4,0-4.3-1.8-4.3-4.2C116.2,71.8,116.2,71.8,116.2,71.7z"/>
					<path class="st3" d="M124.9,71.7L124.9,71.7c-0.1-2.3,1.6-4.3,3.9-4.4c0.1,0,0.1,0,0.2,0c2.8,0,4.1,2.2,4.1,4.5
						c0,0.2,0,0.4,0,0.6h-5.8c0.2,1,1,1.7,2,1.6c0.8,0,1.5-0.3,2-0.9l1.4,1.2c-1.6,1.9-4.4,2.1-6.2,0.5
						C125.4,74.2,124.8,73,124.9,71.7L124.9,71.7z M130.8,71c0-1-0.8-1.8-1.8-1.8c-1,0-1.7,0.8-1.8,1.8L130.8,71z"/>
					<path class="st3" d="M139.3,70.4L139.3,70.4c0-3.2,2.6-5.8,5.8-5.8c3.2,0,5.8,2.6,5.8,5.8l0,0c0,3.2-2.6,5.8-5.8,5.8
						C141.9,76.2,139.3,73.6,139.3,70.4z M148.4,70.4L148.4,70.4c0.1-1.8-1.4-3.4-3.2-3.4c0,0-0.1,0-0.1,0c-1.8,0-3.3,1.4-3.3,3.2
						c0,0.1,0,0.1,0,0.2l0,0c-0.1,1.8,1.4,3.4,3.2,3.4c0,0,0.1,0,0.1,0c1.8,0,3.3-1.4,3.3-3.2C148.4,70.5,148.4,70.5,148.4,70.4
						L148.4,70.4z"/>
					<path class="st3" d="M153.2,69.5h-1v-2h1V67c0-0.7,0.2-1.4,0.7-2c0.5-0.5,1.2-0.7,1.9-0.7c0.6,0,1.1,0.1,1.7,0.2v2
						c-0.3-0.1-0.7-0.2-1.1-0.2c-0.5,0-0.9,0.3-0.9,0.9v0.3h1.9v1.9h-1.9v6.3h-2.4L153.2,69.5z"/>
				</g>
				<g>
					<path class="st3" d="M33.4,87.2L33.4,87.2c-0.1-3.1,2.4-5.6,5.4-5.7c0.1,0,0.2,0,0.2,0c1.6-0.1,3.2,0.5,4.3,1.7L41.9,85
						c-0.7-0.8-1.7-1.2-2.8-1.2c-1.8,0-3.2,1.5-3.2,3.3c0,0,0,0.1,0,0.1l0,0c-0.1,1.8,1.3,3.3,3,3.4c0,0,0.1,0,0.1,0
						c1.1,0,2.2-0.5,2.9-1.3l1.5,1.6c-1.1,1.3-2.8,2.1-4.5,2c-3,0.1-5.6-2.3-5.6-5.4C33.4,87.3,33.4,87.3,33.4,87.2z"/>
					<path class="st3" d="M44.6,88.4L44.6,88.4c0-2.4,2-4.4,4.4-4.4c0,0,0.1,0,0.1,0c2.4-0.1,4.4,1.8,4.5,4.2c0,0,0,0.1,0,0.1l0,0
						c-0.3,2.5-2.5,4.3-5,4C46.5,92.2,44.9,90.5,44.6,88.4L44.6,88.4z M51.3,88.4L51.3,88.4c0-1.2-0.9-2.3-2.1-2.3c0,0,0,0-0.1,0
						c-1.2,0-2.1,1-2.1,2.2c0,0,0,0,0,0.1l0,0c0,1.2,0.9,2.3,2.1,2.3c0,0,0,0,0.1,0C50.4,90.7,51.3,89.7,51.3,88.4
						C51.3,88.5,51.3,88.5,51.3,88.4z"/>
					<path class="st3" d="M55.5,81.2h2.4v11.4h-2.4V81.2z"/>
					<path class="st3" d="M59.7,88.4L59.7,88.4c0-2.4,2-4.4,4.4-4.4c0,0,0.1,0,0.1,0c2.4-0.1,4.4,1.8,4.5,4.2c0,0,0,0.1,0,0.1l0,0
						c0,2.4-2,4.4-4.4,4.4c0,0-0.1,0-0.1,0c-2.4,0.1-4.4-1.8-4.5-4.2C59.7,88.5,59.7,88.5,59.7,88.4z M66.4,88.4L66.4,88.4
						c0-1.2-0.9-2.3-2.1-2.3c0,0,0,0-0.1,0C63,86.1,62,87,62,88.2c0,0.1,0,0.1,0,0.2l0,0c0,1.2,0.9,2.3,2.1,2.3c0,0,0.1,0,0.1,0
						c1.2,0,2.2-0.9,2.2-2.1C66.4,88.6,66.4,88.5,66.4,88.4z"/>
					<path class="st3" d="M70.1,88.4L70.1,88.4c0-2.4,1.9-4.3,4.2-4.4c0,0,0.1,0,0.1,0c1.3-0.1,2.5,0.4,3.3,1.4L76.3,87
						c-0.5-0.6-1.2-0.9-1.9-0.9c-1.2,0.1-2.1,1.1-2,2.3c0,0,0,0,0,0l0,0c-0.1,1.2,0.8,2.2,2,2.3c0.1,0,0.1,0,0.2,0
						c0.7,0,1.4-0.3,1.9-0.9l1.4,1.4c-0.8,1-2.1,1.6-3.4,1.5c-2.4,0.1-4.3-1.8-4.4-4.2C70.1,88.5,70.1,88.5,70.1,88.4z"/>
					<path class="st3" d="M78.9,90.2L78.9,90.2c0-1.8,1.4-2.7,3.4-2.7c0.7,0,1.4,0.1,2,0.3v-0.1c0-1-0.6-1.5-1.8-1.5
						c-0.8,0-1.6,0.2-2.3,0.4l-0.5-1.8c1-0.5,2.1-0.7,3.2-0.7c1-0.1,2,0.3,2.8,0.9c0.7,0.7,1,1.7,0.9,2.7v4.8h-2.3v-0.9
						c-0.6,0.7-1.6,1.1-2.5,1.1c-1.4,0.2-2.7-0.9-2.9-2.3C78.9,90.4,78.9,90.3,78.9,90.2z M84.3,89.6v-0.4c-0.5-0.2-1-0.3-1.5-0.3
						c-1,0-1.6,0.4-1.6,1.2l0,0c0,0.6,0.5,1,1.3,1C83.6,91.1,84.3,90.5,84.3,89.6z"/>
					<path class="st3" d="M88.9,90.2v-4h-1v-2h1v-2.1h2.4v2.1h2v2h-2v3.6c0,0.5,0.2,0.8,0.8,0.8c0.4,0,0.8-0.1,1.2-0.3v1.9
						c-0.6,0.3-1.2,0.5-1.9,0.5C89.9,92.7,88.9,92.2,88.9,90.2z"/>
					<path class="st3" d="M95.1,81.2h2.5v2.1h-2.5V81.2z M95.1,84.2h2.4v8.4h-2.4V84.2z"/>
					<path class="st3" d="M99.3,88.4L99.3,88.4c0-2.4,2-4.4,4.4-4.4c0,0,0.1,0,0.1,0c2.4-0.1,4.4,1.8,4.5,4.2c0,0,0,0.1,0,0.1l0,0
						c0,2.5-2,4.5-4.5,4.5C101.4,92.9,99.3,90.9,99.3,88.4L99.3,88.4z M106.1,88.4L106.1,88.4c0-1.2-0.9-2.3-2.1-2.3c0,0,0,0-0.1,0
						c-1.2,0-2.2,0.9-2.2,2.1c0,0.1,0,0.1,0,0.2l0,0c0,1.2,0.9,2.3,2.1,2.3c0,0,0,0,0.1,0c1.2,0,2.2-0.9,2.2-2.1
						C106.1,88.6,106.1,88.5,106.1,88.4z"/>
					<path class="st3" d="M110.1,84.2h2.4v1.2c0.5-0.8,1.5-1.3,2.4-1.3c1.8,0,2.8,1.2,2.8,3.1v5.4h-2.4v-4.7c0-1.1-0.5-1.7-1.4-1.7
						s-1.5,0.6-1.5,1.7v4.7h-2.4L110.1,84.2z"/>
					<path class="st3" d="M121,86.3L121,86.3c2.1-0.2,2.8-0.7,2.8-1.5l0,0c0-0.7-0.5-1.1-1.4-1.1c-0.9,0-1.7,0.4-2.3,1.1l-1.4-1.6
						c1-1.1,2.4-1.7,3.8-1.7c2.2,0,3.8,1.2,3.8,3.2l0,0c0,2-1.4,2.8-3.1,3.1l-0.2,1h-1.6L121,86.3z M120.8,90.1h2.5v2.5h-2.5V90.1z"
						/>
				</g>
			</g>
		</g>
		<g id="f3">
			<g id="c3">
				<g id="Just_add_metal">
					<g>
						<path class="st3" d="M34.2,46.3l3.1-2.9c0.6,0.9,1.6,1.6,2.7,1.7c1.2,0,2-0.8,2-2.4v-11h4.8v11c0.1,1.8-0.5,3.6-1.7,4.9
							c-1.3,1.2-3,1.8-4.8,1.8C37.9,49.3,35.6,48.2,34.2,46.3z"/>
						<path class="st3" d="M49.9,41.3v-9.8h4.9v9.6c0,2.5,1.3,3.7,3.2,3.7s3.2-1.1,3.2-3.6v-9.8h4.9v9.6c0,5.6-3.2,8.1-8.1,8.1
							S49.9,46.7,49.9,41.3z"/>
						<path class="st3" d="M67.8,46.3l2.7-3.2c1.6,1.3,3.6,2.1,5.6,2.1c1.3,0,2-0.4,2-1.2l0,0c0-0.7-0.6-1.1-2.9-1.7
							c-3.7-0.8-6.6-1.9-6.6-5.5l0,0c0-3.2,2.6-5.5,6.7-5.5c2.6-0.1,5.1,0.7,7.2,2.3L80,36.9c-1.4-1-3.1-1.6-4.9-1.7
							c-1.2,0-1.7,0.5-1.7,1.1l0,0c0,0.8,0.6,1.1,3,1.7c4,0.9,6.5,2.2,6.5,5.4v0c0,3.5-2.8,5.7-7,5.7C72.9,49.2,70,48.2,67.8,46.3z"
							/>
						<path class="st3" d="M89.4,35.7h-5.2v-4.2h15.2v4.2h-5.2v13.1h-4.8V35.7z"/>
					</g>
					<g>
						<path class="st3" d="M41.7,54.6h4.6l7.4,17.5h-5.2L47.3,69h-6.7l-1.2,3.1h-5.1L41.7,54.6z M45.9,65.2L44,60.3l-2,4.9H45.9z"/>
						<path class="st3" d="M55.4,54.7h6.7c6.2,0,9.8,3.6,9.8,8.6l0,0c0,5-3.6,8.7-9.9,8.7h-6.6V54.7z M62.2,67.8
							c2.9,0,4.8-1.6,4.8-4.4l0,0c0-2.8-1.9-4.4-4.8-4.4h-2v8.8L62.2,67.8z"/>
						<path class="st3" d="M74.5,54.7h6.7c6.2,0,9.8,3.6,9.8,8.6l0,0c0,5-3.6,8.7-9.9,8.7h-6.6V54.7z M81.3,67.8
							c2.9,0,4.8-1.6,4.8-4.4l0,0c0-2.8-1.9-4.4-4.8-4.4h-2v8.8L81.3,67.8z"/>
					</g>
					<g>
						<path class="st3" d="M35.7,77.8h5.1l4.1,6.7l4.1-6.7h5.1v17.4h-4.8v-10L44.9,92h-0.1l-4.4-6.8v9.9h-4.7V77.8z"/>
						<path class="st3" d="M57.6,77.8h14v4.1h-9.2v2.6h8.3v3.8h-8.3v2.8h9.3v4.1H57.6V77.8z"/>
						<path class="st3" d="M78.4,82.1h-5.2v-4.2h15.2v4.2h-5.2v13.1h-4.8V82.1z"/>
						<path class="st3" d="M94.4,77.7H99l7.4,17.5h-5.2l-1.2-3.1h-6.7L92,95.2h-5L94.4,77.7z M98.6,88.4l-1.9-4.9l-2,4.9H98.6z"/>
						<path class="st3" d="M108.1,77.8h4.8V91h8.4v4.2h-13.2V77.8z"/>
					</g>
				</g>
			</g>
			<g id="cta">
				<g>
					<defs>
						<rect id="SVGID_3_" x="33.9" y="107.2" width="89.4" height="21.5"/>
					</defs>
					<clipPath id="SVGID_4_">
						<use xlink:href="#SVGID_3_"  style="overflow:visible;"/>
					</clipPath>
					<g class="st4">
						
							<linearGradient id="cta-glow_1_" gradientUnits="userSpaceOnUse" x1="24.4699" y1="142.1405" x2="-68.2501" y2="121.3305" gradientTransform="matrix(1 0 0 -1 0 252)">
							<stop  offset="0" style="stop-color:#000000"/>
							<stop  offset="0.24" style="stop-color:#FFFFFF"/>
							<stop  offset="0.46" style="stop-color:#000000"/>
							<stop  offset="0.71" style="stop-color:#FFFFFF"/>
							<stop  offset="1" style="stop-color:#000000"/>
						</linearGradient>
						<rect id="cta-glow" x="-211.4" y="73.4" class="st5" width="364.6" height="97"/>
					</g>
				</g>
				<g id="Learn_more">
					<g>
						<path class="st3" d="M51.7,114.4h1.8v5h3.2v1.6h-5.1V114.4z"/>
						<path class="st3" d="M57.4,118.5L57.4,118.5c-0.1-1.4,1-2.6,2.5-2.7c0,0,0.1,0,0.1,0c1.4,0,2.6,1.1,2.6,2.5c0,0.1,0,0.2,0,0.4
							c0,0.1,0,0.2,0,0.4h-3.5c0.1,0.5,0.6,0.9,1.1,0.8c0.4,0,0.9-0.2,1.1-0.5l1,0.8c-0.5,0.7-1.4,1-2.2,1c-1.4,0.1-2.7-1-2.8-2.4
							C57.4,118.7,57.4,118.6,57.4,118.5z M60.9,118.1c0-0.5-0.4-0.9-0.9-0.9c-0.5,0-0.8,0.4-0.9,0.9H60.9z"/>
						<path class="st3" d="M63.2,119.6L63.2,119.6c0-1.1,0.8-1.6,2-1.6c0.4,0,0.8,0.1,1.2,0.2v-0.1c0-0.5-0.3-0.8-1-0.8
							c-0.5,0-1,0.1-1.4,0.3l-0.4-1.3c0.7-0.3,1.4-0.4,2.1-0.4c0.7-0.1,1.4,0.2,2,0.6c0.4,0.4,0.6,1,0.6,1.6v3h-1.8v-0.5
							c-0.4,0.4-0.9,0.7-1.5,0.7c-0.9,0.1-1.7-0.5-1.8-1.4C63.2,119.8,63.2,119.7,63.2,119.6z M66.4,119.2V119
							c-0.2-0.1-0.5-0.1-0.7-0.1c-0.5,0-0.8,0.3-0.8,0.6l0,0c0,0.3,0.3,0.6,0.6,0.6c0,0,0,0,0.1,0C66,120.1,66.4,119.8,66.4,119.2
							C66.4,119.3,66.5,119.3,66.4,119.2z"/>
						<path class="st3" d="M69.3,115.9h1.8v1c0.2-0.7,0.9-1.2,1.6-1.1v1.9h-0.2c-1,0-1.5,0.6-1.5,1.7v1.6h-1.8V115.9z"/>
						<path class="st3" d="M73.6,115.9h1.8v0.7c0.3-0.5,0.9-0.8,1.6-0.8c0.9,0,1.7,0.7,1.8,1.6c0,0.1,0,0.2,0,0.3v3.4h-1.8v-2.8
							c0-0.6-0.3-0.9-0.7-0.9c-0.4,0-0.8,0.3-0.8,0.8c0,0,0,0.1,0,0.1v2.8h-1.8V115.9z"/>
						<path class="st3" d="M82.3,114.4h2l1.6,2.6l1.6-2.6h2v6.7h-1.9v-3.8l-1.7,2.6l0,0l-1.7-2.6v3.8h-1.9V114.4z"/>
						<path class="st3" d="M90.5,118.5L90.5,118.5c0-1.5,1.3-2.7,2.8-2.7c0,0,0,0,0.1,0c1.5-0.1,2.8,1.1,2.8,2.6c0,0,0,0.1,0,0.1
							l0,0c-0.1,1.6-1.4,2.8-3,2.7C91.7,121.1,90.6,120,90.5,118.5L90.5,118.5z M94.4,118.5L94.4,118.5c0-0.6-0.5-1.1-1.1-1.2
							c0,0,0,0,0,0c-0.6,0-1.1,0.5-1.1,1.1c0,0,0,0,0,0.1l0,0c0,0.6,0.5,1.1,1.1,1.2c0,0,0,0,0,0C94,119.7,94.4,119.2,94.4,118.5
							C94.4,118.6,94.4,118.6,94.4,118.5z"/>
						<path class="st3" d="M97.1,115.9h1.8v1c0.2-0.7,0.9-1.2,1.6-1.1v1.9h-0.2c-0.9,0-1.5,0.6-1.5,1.7v1.6h-1.8V115.9z"/>
						<path class="st3" d="M101.1,118.5L101.1,118.5c-0.1-1.4,1-2.6,2.5-2.7c0,0,0.1,0,0.1,0c1.4,0,2.6,1.1,2.6,2.5
							c0,0.1,0,0.2,0,0.4c0,0.1,0,0.2,0,0.4h-3.4c0.1,0.5,0.6,0.9,1.1,0.8c0.4,0,0.9-0.2,1.2-0.5l1,0.8c-0.5,0.7-1.4,1-2.2,1
							c-1.4,0.1-2.7-1-2.8-2.4C101.1,118.7,101.1,118.6,101.1,118.5z M104.6,118.1c0-0.5-0.4-0.9-0.9-0.9c-0.5,0-0.8,0.4-0.9,0.9
							H104.6z"/>
					</g>
				</g>
				<rect id="Rectangle_5685-2" x="33.9" y="107.2" class="st6" width="89.4" height="21.5"/>
			</g>
		</g>
	</g>
</g>
<g id="Logo">
	<path id="chevon_shape" class="st3" d="M300.3,192h-56.9l-16.6,26.2h73.5L300.3,192z"/>
	<g id="Grupo_12756">
		<g id="Group_2">
			<path id="X" class="st7" d="M284.6,209.5l-1.2,1.3l-1.1-1.3h-0.7l1.4,1.6l-1.8,1.9h0.6l1.5-1.6l1.4,1.6h0.7l-1.7-1.9l1.5-1.6
				H284.6z"/>
			<rect id="I" x="278.3" y="209.5" class="st7" width="0.5" height="3.6"/>
			<path id="N" class="st7" d="M274.7,209.5v2.8l-2.5-2.8h-0.5v3.6h0.5v-2.8l2.5,2.8h0.5v-3.6H274.7z"/>
			<rect id="I-2" x="268" y="209.5" class="st7" width="0.5" height="3.6"/>
			<path id="U" class="st7" d="M264.7,211.7c0,0.5-0.4,1-0.9,1.1h-0.1c-0.5,0-1-0.4-1-0.9v-2.3h-0.5v2.2c0,0.8,0.6,1.5,1.3,1.5
				c0,0,0,0,0,0c0,0,0.1,0,0.1,0c0.8,0.1,1.5-0.5,1.5-1.3c0,0,0,0,0,0c0-0.1,0-0.1,0-0.2v-2.2h-0.5L264.7,211.7z"/>
			<path id="Q" class="st7" d="M257.6,209.4c-1,0-1.9,0.8-1.9,1.8c0,0,0,0,0,0v0.1l0,0c0,1,0.8,1.9,1.8,1.9c0,0,0,0,0,0h0.1
				c0.3,0,0.6-0.1,0.8-0.2l0.3,0.3h0.6l-0.5-0.6c0.4-0.4,0.7-0.9,0.7-1.5l0,0c0-1-0.8-1.9-1.8-1.9
				C257.7,209.4,257.7,209.4,257.6,209.4L257.6,209.4 M259,211.3c0,0.4-0.2,0.8-0.5,1.1l-0.3-0.3h-0.6l0.5,0.6
				c-0.2,0.1-0.3,0.1-0.5,0.1c-0.8,0-1.4-0.6-1.4-1.4c0,0,0,0,0,0l0,0v-0.1l0,0c-0.1-0.7,0.5-1.4,1.3-1.4h0.1
				C258.4,209.9,259,210.5,259,211.3C259,211.2,259,211.2,259,211.3L259,211.3L259,211.3z"/>
			<path id="E" class="st7" d="M250.6,209.5v3.6h3.2v-0.5h-2.7v-1.2h1.7V211h-1.7v-1h2.6v-0.5L250.6,209.5z"/>
		</g>
		<g id="icon_group">
			<path id="icon" class="st8" d="M268.3,196.5l-1.5,0.5v7.6l-1-0.3v-6.9l-2.9,1v4.9l-1-0.3v-4.2l-1,0.3v4.6l2.9,1V199l1-0.3v6.3
				l2.9,1v-8.3l0.5-0.2l0.5,0.2v8.3l2.9-1v-6.3l1,0.3v5.6l2.9-1V199l-1-0.3v4.2l-1,0.3v-4.9l-2.9-1v6.9l-1,0.3V197L268.3,196.5z"/>
			<path id="R" class="st8" d="M277.4,203.3c0.5,0,0.9-0.4,0.9-0.9l0,0c0-0.5-0.4-0.9-0.9-0.9c-0.5,0-0.9,0.4-0.9,0.9l0,0
				C276.6,202.9,276.9,203.3,277.4,203.3L277.4,203.3 M277.4,203.2c-0.4,0-0.8-0.3-0.8-0.8l0,0c0-0.4,0.3-0.8,0.8-0.8
				c0.4,0,0.8,0.3,0.8,0.8l0,0l0,0C278.2,202.9,277.9,203.2,277.4,203.2C277.4,203.2,277.4,203.2,277.4,203.2L277.4,203.2
				 M277.1,202.9h0.2v-0.3h0.1l0.2,0.3h0.3l-0.2-0.3c0.1,0,0.2-0.2,0.2-0.3c0-0.2-0.1-0.3-0.4-0.3h-0.4L277.1,202.9z M277.3,202.4
				v-0.2h0.2c0.1,0,0.2,0,0.2,0.1s-0.1,0.1-0.2,0.1H277.3z"/>
		</g>
	</g>
</g>
</svg>
