<svg xmlns="http://www.w3.org/2000/svg" xmlns:xlink="http://www.w3.org/1999/xlink" viewBox="0 0 728 90">
  <defs>
    <style>
      .cls-1, .cls-8 {
        fill: none;
      }

      .cls-2 {
        clip-path: url(#clip-path);
      }

      .cls-3 {
        opacity: 0.6;
        fill: url(#Degradado_sin_nombre_4);
      }

      .cls-3, .cls-4 {
        isolation: isolate;
      }

      .cls-12, .cls-5 {
        fill: #fff;
      }

      .cls-6 {
        clip-path: url(#clip-path-2);
      }

      .cls-7 {
        opacity: 0.29;
        fill: url(#linear-gradient);
      }

      .cls-8 {
        stroke: #fff;
        stroke-miterlimit: 10;
        stroke-width: 0.64px;
      }

      .cls-9 {
        fill: #030504;
      }

      .cls-10 {
        fill: #e4001b;
      }

      .cls-11 {
        fill: #fe5000;
      }

      .cls-11, .cls-12 {
        fill-rule: evenodd;
      }
    </style>
    <clipPath id="clip-path">
      <rect class="cls-1" width="728" height="90"/>
    </clipPath>
    <radialGradient id="Degradado_sin_nombre_4" data-name="Degradado sin nombre 4" cx="204.84" cy="113.16" r="0.2" gradientTransform="matrix(694.7, 0, 0, -262.18, -141877.38, 29716.59)" gradientUnits="userSpaceOnUse">
      <stop offset="0" stop-color="#fff"/>
      <stop offset="0.26" stop-color="#fff" stop-opacity="0.68"/>
      <stop offset="0.53" stop-color="#fff" stop-opacity="0.39"/>
      <stop offset="0.75" stop-color="#fff" stop-opacity="0.18"/>
      <stop offset="0.91" stop-color="#fff" stop-opacity="0.05"/>
      <stop offset="1" stop-color="#fff" stop-opacity="0"/>
    </radialGradient>
    <clipPath id="clip-path-2">
      <rect id="cta-mask" class="cls-1" x="212.57" y="27.55" width="94.65" height="34.89"/>
    </clipPath>
    <linearGradient id="linear-gradient" x1="205.36" y1="36.86" x2="112.06" y2="57.81" gradientUnits="userSpaceOnUse">
      <stop offset="0"/>
      <stop offset="0.24" stop-color="#fff"/>
      <stop offset="0.46"/>
      <stop offset="0.71" stop-color="#fff"/>
      <stop offset="1"/>
    </linearGradient>
  </defs>
  <g id="_728x90" data-name="728x90">
    <g class="cls-2">
      <g id="BG">
        <image id="GettyImages-561860327" width="901" height="803" transform="translate(-19.41 -335.58) scale(0.85)" xlink:href="awareness1-300x2501.jpg"/>
        <ellipse id="bg-light" class="cls-3" cx="441.07" cy="51.71" rx="153.39" ry="57.89"/>
        <image id="keyshadow" width="600" height="491" transform="translate(320.46 -46.19) scale(0.51)" xlink:href="awareness11.png"/>
        <image width="258" height="68" transform="translate(380.73 35.24) scale(0.69)" xlink:href="metal3.png"/>
        <image id="shine1_300x" data-name="shine1@300x" width="1721" height="1721" transform="translate(401.43 17.3) scale(0.02)" xlink:href="consideration21.png"/>
      </g>
      <g id="f2">
        <g class="cls-4">
          <path class="cls-5" d="M35.67,30.23h2.84L43,40.94H39.88L39.1,39H35l-.76,1.9h-3.1Zm2.58,6.52-1.18-3-1.21,3Z"/>
          <path class="cls-5" d="M43.36,36.87v0c0-2.67,1.67-4.3,3.61-4.3a3.14,3.14,0,0,1,2.53,1.19V29.85h2.88V40.94H49.5V39.85A3.06,3.06,0,0,1,47,41.13C45,41.13,43.36,39.5,43.36,36.87Zm6.18,0v0a1.69,1.69,0,1,0-3.36,0v0a1.69,1.69,0,1,0,3.36,0Z"/>
          <path class="cls-5" d="M53.76,36.87v0c0-2.67,1.67-4.3,3.61-4.3a3.14,3.14,0,0,1,2.53,1.19V29.85h2.88V40.94H59.9V39.85a3.08,3.08,0,0,1-2.51,1.28C55.44,41.13,53.76,39.5,53.76,36.87Zm6.18,0v0a1.69,1.69,0,1,0-3.36,0v0a1.69,1.69,0,1,0,3.36,0Z"/>
          <path class="cls-5" d="M67.91,39.36l1.64-2A5.47,5.47,0,0,0,73,38.68c.79,0,1.21-.27,1.21-.73v0c0-.44-.35-.68-1.79-1-2.26-.52-4-1.15-4-3.34v0c0-2,1.56-3.41,4.12-3.41a6.65,6.65,0,0,1,4.37,1.42l-1.47,2.08a5.37,5.37,0,0,0-3-1c-.71,0-1.06.3-1.06.68v0c0,.49.36.7,1.84,1,2.44.53,4,1.32,4,3.31v0c0,2.17-1.72,3.47-4.3,3.47A7.42,7.42,0,0,1,67.91,39.36Z"/>
          <path class="cls-5" d="M78.9,38.39V35.05h-1V32.72h1V30.64h2.89v2.08H83.7v2.33H81.79v2.78c0,.58.26.82.79.82a2.62,2.62,0,0,0,1.09-.27v2.26a4.08,4.08,0,0,1-2,.47C79.93,41.11,78.9,40.35,78.9,38.39Z"/>
          <path class="cls-5" d="M84.62,36.87v0a4.55,4.55,0,0,1,9.08,0v0a4.55,4.55,0,0,1-9.08,0Zm6.27,0v0A1.78,1.78,0,0,0,89.14,35a1.72,1.72,0,0,0-1.71,1.82v0a1.79,1.79,0,0,0,1.74,1.86A1.73,1.73,0,0,0,90.89,36.87Z"/>
          <path class="cls-5" d="M95,32.72H97.9v1.66a2.5,2.5,0,0,1,2.6-1.79v3h-.25c-1.5,0-2.35.87-2.35,2.77v2.55H95Z"/>
          <path class="cls-5" d="M100.86,38.59v0c0-1.7,1.29-2.59,3.22-2.59a6.54,6.54,0,0,1,2,.32v-.13c0-.85-.53-1.34-1.64-1.34a5.79,5.79,0,0,0-2.27.46l-.59-2a8.29,8.29,0,0,1,3.33-.64,4.24,4.24,0,0,1,3.13,1,3.46,3.46,0,0,1,.88,2.62v4.72h-2.85v-.85a3.1,3.1,0,0,1-2.42,1A2.5,2.5,0,0,1,100.86,38.59Zm5.23-.62v-.38a2.86,2.86,0,0,0-1.12-.22c-.84,0-1.33.41-1.33,1v0a.91.91,0,0,0,1,.9A1.32,1.32,0,0,0,106.09,38Z"/>
          <path class="cls-5" d="M110.38,42.46l.92-1.91a5.68,5.68,0,0,0,2.88.77c1.44,0,2.15-.71,2.15-2V39a3.15,3.15,0,0,1-2.53,1.23,3.57,3.57,0,0,1-3.65-3.81v0a3.59,3.59,0,0,1,3.55-3.83,3.28,3.28,0,0,1,2.59,1.16v-1h2.89V39a4.38,4.38,0,0,1-1.07,3.28,4.85,4.85,0,0,1-3.61,1.16A8.76,8.76,0,0,1,110.38,42.46Zm6-6.06v0a1.68,1.68,0,0,0-3.35,0v0A1.57,1.57,0,0,0,114.66,38,1.59,1.59,0,0,0,116.33,36.4Z"/>
          <path class="cls-5" d="M120.51,36.87v0a4.13,4.13,0,0,1,4.15-4.3c2.84,0,4.15,2.08,4.15,4.5,0,.18,0,.39,0,.59h-5.5A1.69,1.69,0,0,0,125.07,39a2.46,2.46,0,0,0,1.82-.83l1.6,1.32a4.31,4.31,0,0,1-3.57,1.67A4.14,4.14,0,0,1,120.51,36.87Zm5.59-.71a1.47,1.47,0,0,0-1.43-1.49c-.76,0-1.27.59-1.43,1.49Z"/>
          <path class="cls-5" d="M129.64,42.34c1-.12,1.55-.61,1.52-1.43H130V38h3v2.42c0,2.25-1.23,3-3.13,3.08Z"/>
          <path class="cls-5" d="M138.44,35.66v0a5.47,5.47,0,0,1,5.61-5.53,5.2,5.2,0,0,1,4.51,2.22L146.35,34A2.86,2.86,0,0,0,144,32.78a2.63,2.63,0,0,0-2.54,2.81v0A2.64,2.64,0,0,0,144,38.47a2.9,2.9,0,0,0,2.4-1.3l2.22,1.59a5.6,5.6,0,0,1-10.2-3.1Z"/>
          <path class="cls-5" d="M149.36,36.87v0a4.38,4.38,0,0,1,4.56-4.3,4.33,4.33,0,0,1,4.52,4.27v0a4.55,4.55,0,0,1-9.08,0Zm6.27,0v0A1.78,1.78,0,0,0,153.89,35a1.72,1.72,0,0,0-1.72,1.82v0a1.79,1.79,0,0,0,1.75,1.86A1.73,1.73,0,0,0,155.63,36.87Z"/>
          <path class="cls-5" d="M159.75,32.72h2.89v1.13a3,3,0,0,1,2.44-1.31,2.54,2.54,0,0,1,2.38,1.34,3.45,3.45,0,0,1,2.75-1.34c1.74,0,2.81,1.09,2.81,3v5.39h-2.89V36.48c0-.9-.44-1.37-1.12-1.37s-1.19.47-1.19,1.37v4.46h-2.89V36.48c0-.9-.44-1.37-1.12-1.37s-1.17.47-1.17,1.37v4.46h-2.89Z"/>
          <path class="cls-5" d="M174.71,32.72h2.89v1.1a3,3,0,0,1,2.49-1.28c2,0,3.65,1.63,3.65,4.25v0c0,2.67-1.69,4.3-3.63,4.3a3.1,3.1,0,0,1-2.51-1.19v3.44h-2.89Zm6.19,4.12v0a1.69,1.69,0,1,0-3.36,0v0a1.69,1.69,0,1,0,3.36,0Z"/>
          <path class="cls-5" d="M185.05,38.1V32.72h2.89v4.45c0,.9.47,1.39,1.17,1.39s1.2-.49,1.2-1.39V32.72h2.89v8.22h-2.89V39.82a3,3,0,0,1-2.46,1.31C186.1,41.13,185.05,40,185.05,38.1Z"/>
          <path class="cls-5" d="M195.41,38.39V35.05h-1V32.72h1V30.64h2.89v2.08h1.91v2.33H198.3v2.78c0,.58.26.82.79.82a2.62,2.62,0,0,0,1.09-.27v2.26a4.08,4.08,0,0,1-2,.47C196.44,41.11,195.41,40.35,195.41,38.39Z"/>
          <path class="cls-5" d="M201.16,36.87v0a4.13,4.13,0,0,1,4.15-4.3c2.84,0,4.15,2.08,4.15,4.5,0,.18,0,.39,0,.59h-5.5A1.69,1.69,0,0,0,205.72,39a2.46,2.46,0,0,0,1.82-.83l1.6,1.32a4.31,4.31,0,0,1-3.57,1.67A4.14,4.14,0,0,1,201.16,36.87Zm5.59-.71c-.11-.91-.64-1.49-1.43-1.49s-1.27.59-1.43,1.49Z"/>
          <path class="cls-5" d="M35.67,48.63h2.84L43,59.34H39.88l-.78-1.89H35l-.76,1.89h-3.1Zm2.58,6.52-1.18-3-1.21,3Z"/>
          <path class="cls-5" d="M44,51.12h2.88v1.16a3.06,3.06,0,0,1,2.47-1.34,2.69,2.69,0,0,1,2.79,3v5.38H49.23V54.89c0-.89-.47-1.38-1.15-1.38a1.22,1.22,0,0,0-1.22,1.38v4.45H44Z"/>
          <path class="cls-5" d="M53.44,55.27v0c0-2.67,1.67-4.3,3.62-4.3a3.13,3.13,0,0,1,2.52,1.19V48.25h2.89V59.34H59.58V58.25a3.06,3.06,0,0,1-2.51,1.28C55.13,59.53,53.44,57.9,53.44,55.27Zm6.19,0v0a1.69,1.69,0,1,0-3.36,0v0a1.69,1.69,0,1,0,3.36,0Z"/>
          <path class="cls-5" d="M68,54.06v0a5.52,5.52,0,0,1,5.73-5.54A6.24,6.24,0,0,1,78.08,50l-1.74,2.09a3.75,3.75,0,0,0-2.56-1A2.79,2.79,0,0,0,71.06,54v0a2.81,2.81,0,0,0,2.88,3,3,3,0,0,0,1.71-.44V55.29h-2.1V53.13h4.89v4.79a7.22,7.22,0,0,1-4.62,1.64A5.47,5.47,0,0,1,68,54.06Z"/>
          <path class="cls-5" d="M80.26,48.25h2.88V59.34H80.26Z"/>
          <path class="cls-5" d="M84.47,55.27v0A4.38,4.38,0,0,1,89,50.94a4.34,4.34,0,0,1,4.53,4.27v0a4.55,4.55,0,0,1-9.09,0Zm6.28,0v0A1.78,1.78,0,0,0,89,53.39a1.71,1.71,0,0,0-1.71,1.82v0A1.79,1.79,0,0,0,89,57.1,1.73,1.73,0,0,0,90.75,55.27Z"/>
          <path class="cls-5" d="M97.76,58.34v1H94.87V48.25h2.89v4a3,3,0,0,1,2.49-1.28c2,0,3.65,1.63,3.65,4.26v0c0,2.67-1.69,4.3-3.64,4.3A3.09,3.09,0,0,1,97.76,58.34Zm3.29-3.1v0a1.69,1.69,0,1,0-3.36,0v0a1.69,1.69,0,1,0,3.36,0Z"/>
          <path class="cls-5" d="M104.74,57v0c0-1.7,1.29-2.59,3.22-2.59a6.54,6.54,0,0,1,2,.32v-.13c0-.85-.53-1.34-1.64-1.34a5.79,5.79,0,0,0-2.27.46l-.59-2a8.29,8.29,0,0,1,3.33-.64,4.24,4.24,0,0,1,3.13,1,3.46,3.46,0,0,1,.88,2.62v4.72h-2.86v-.85a3.06,3.06,0,0,1-2.41,1A2.5,2.5,0,0,1,104.74,57Zm5.23-.62V56a2.86,2.86,0,0,0-1.12-.22c-.84,0-1.33.41-1.33,1v0a.91.91,0,0,0,1,.9A1.32,1.32,0,0,0,110,56.37Z"/>
          <path class="cls-5" d="M114.47,48.25h2.89V59.34h-2.89Z"/>
          <path class="cls-5" d="M123,54.06v0a5.47,5.47,0,0,1,5.61-5.54,5.22,5.22,0,0,1,4.51,2.22l-2.22,1.72a2.83,2.83,0,0,0-2.32-1.25A2.64,2.64,0,0,0,126,54v0a2.63,2.63,0,0,0,2.54,2.84,2.92,2.92,0,0,0,2.4-1.29l2.22,1.58a5.6,5.6,0,0,1-10.2-3.1Z"/>
          <path class="cls-5" d="M133.9,55.27v0a4.55,4.55,0,0,1,9.08,0v0a4.38,4.38,0,0,1-4.56,4.3A4.33,4.33,0,0,1,133.9,55.27Zm6.27,0v0a1.78,1.78,0,0,0-1.75-1.85,1.72,1.72,0,0,0-1.71,1.82v0a1.79,1.79,0,0,0,1.74,1.86A1.73,1.73,0,0,0,140.17,55.27Z"/>
          <path class="cls-5" d="M144.29,51.12h2.89v1.16a3,3,0,0,1,2.46-1.34c1.75,0,2.79,1.16,2.79,3v5.38h-2.88V54.89c0-.89-.47-1.38-1.16-1.38a1.21,1.21,0,0,0-1.21,1.38v4.45h-2.89Z"/>
          <path class="cls-5" d="M154.11,51.12H157v1.16a3,3,0,0,1,2.46-1.34,2.7,2.7,0,0,1,2.8,3v5.38h-2.89V54.89c0-.89-.47-1.38-1.16-1.38A1.21,1.21,0,0,0,157,54.89v4.45h-2.89Z"/>
          <path class="cls-5" d="M163.53,55.27v0a4.13,4.13,0,0,1,4.15-4.3c2.84,0,4.15,2.08,4.15,4.5,0,.18,0,.39,0,.59h-5.5a1.69,1.69,0,0,0,1.78,1.35,2.46,2.46,0,0,0,1.82-.83l1.6,1.32a4.31,4.31,0,0,1-3.57,1.67A4.14,4.14,0,0,1,163.53,55.27Zm5.59-.71a1.46,1.46,0,0,0-1.42-1.49c-.76,0-1.28.59-1.43,1.49Z"/>
          <path class="cls-5" d="M172.75,55.27v0a4.26,4.26,0,0,1,4.4-4.28,3.88,3.88,0,0,1,3.51,1.83l-2,1.46a1.77,1.77,0,0,0-1.53-.86,1.7,1.7,0,0,0-1.61,1.82v0a1.7,1.7,0,0,0,1.64,1.87,2,2,0,0,0,1.58-.85l1.93,1.4a4.08,4.08,0,0,1-3.66,1.88A4.24,4.24,0,0,1,172.75,55.27Z"/>
          <path class="cls-5" d="M182.35,56.79V53.45h-1V51.12h1V49h2.89v2.08h1.92v2.33h-1.92v2.78c0,.58.26.82.79.82a2.66,2.66,0,0,0,1.1-.27V59a4.12,4.12,0,0,1-2,.47C183.39,59.51,182.35,58.75,182.35,56.79Z"/>
          <path class="cls-5" d="M188.58,48.25h3v2.13h-3Zm.06,2.87h2.89v8.22h-2.89Z"/>
          <path class="cls-5" d="M192.43,51.12h3l1.58,4.8,1.58-4.8h3l-3.28,8.29h-2.63Z"/>
          <path class="cls-5" d="M202.48,48.25h3v2.13h-3Zm.06,2.87h2.89v8.22h-2.89Z"/>
          <path class="cls-5" d="M207.59,56.79V53.45h-1V51.12h1V49h2.89v2.08h1.91v2.33h-1.91v2.78c0,.58.25.82.79.82a2.62,2.62,0,0,0,1.09-.27V59a4.12,4.12,0,0,1-2,.47C208.62,59.51,207.59,58.75,207.59,56.79Z"/>
          <path class="cls-5" d="M213.52,61.11l.89-2a2.88,2.88,0,0,0,1.26.44.72.72,0,0,0,.67-.34l-3.22-8.07h3l1.64,5,1.55-5h3l-3,8c-.71,1.91-1.49,2.67-3.13,2.67A5.35,5.35,0,0,1,213.52,61.11Z"/>
        </g>
      </g>
      <g id="f3">
        <g id="c3">
          <g class="cls-4">
            <path class="cls-5" d="M34,55.79h4.6L43.74,64l5.1-8.21h4.61V75.22H49.21V62.53l-5.47,8.31h-.12l-5.41-8.22v12.6H34Z"/>
            <path class="cls-5" d="M58.12,55.79H72.78v3.8H62.37v3.94h9.16v3.81H62.37v4.08H72.92v3.8H58.12Z"/>
            <path class="cls-5" d="M81.25,59.73H75.34V55.79h16.1v3.94H85.53V75.22H81.25Z"/>
            <path class="cls-5" d="M98.88,55.65h4l8.33,19.57h-4.47l-1.78-4.36H96.69l-1.78,4.36H90.55Zm4.5,11.44-2.58-6.31-2.58,6.31Z"/>
            <path class="cls-5" d="M114.16,55.79h4.27V71.34h9.7v3.88h-14Z"/>
          </g>
          <g class="cls-4">
            <path class="cls-5" d="M32.44,41.9H35a2.16,2.16,0,0,1,2.42,2.18v0a2.25,2.25,0,0,1-2.55,2.21H33.82V48.2H32.44Zm2.48,3.18a1,1,0,0,0,1.1-.95v0c0-.62-.43-1-1.12-1H33.82v1.93Z"/>
            <path class="cls-5" d="M38.36,45.5V41.9h1.38v3.57c0,1,.52,1.56,1.36,1.56s1.36-.52,1.36-1.52V41.9h1.39v3.56a2.53,2.53,0,0,1-2.77,2.84A2.49,2.49,0,0,1,38.36,45.5Z"/>
            <path class="cls-5" d="M45.26,41.9h2.88a2.52,2.52,0,0,1,1.84.64A2,2,0,0,1,50.52,44v0a2,2,0,0,1-1.35,2l1.54,2.25H49.09l-1.35-2H46.65v2H45.26ZM48.05,45c.68,0,1.07-.36,1.07-.89v0c0-.59-.42-.9-1.09-.9H46.65V45Z"/>
            <path class="cls-5" d="M51.77,41.9h4.76v1.24H53.15v1.27h3v1.24h-3V47h3.42V48.2h-4.8Z"/>
            <path class="cls-5" d="M60.08,47.29l.82-1a2.93,2.93,0,0,0,1.88.76c.57,0,.91-.22.91-.59v0c0-.35-.22-.53-1.27-.8-1.27-.33-2.09-.68-2.09-1.93v0a2,2,0,0,1,2.21-1.9,3.68,3.68,0,0,1,2.34.8l-.72,1A3,3,0,0,0,62.52,43c-.53,0-.81.24-.81.55h0c0,.42.27.55,1.36.83,1.28.34,2,.8,2,1.89v0c0,1.25-1,1.95-2.32,1.95A4,4,0,0,1,60.08,47.29Z"/>
            <path class="cls-5" d="M67.61,43.18H65.69V41.9h5.22v1.28H69v5H67.61Z"/>
            <path class="cls-5" d="M71.43,45.07v0a3.35,3.35,0,0,1,6.69,0h0a3.35,3.35,0,0,1-6.69,0Zm5.24,0v0a1.91,1.91,0,0,0-1.9-2,1.89,1.89,0,0,0-1.89,2h0a1.92,1.92,0,0,0,1.9,2A1.89,1.89,0,0,0,76.67,45.07Z"/>
            <path class="cls-5" d="M79.36,41.9h2.88a2.55,2.55,0,0,1,1.84.64A2,2,0,0,1,84.62,44v0a2,2,0,0,1-1.35,2l1.54,2.25H83.19l-1.35-2H80.75v2H79.36ZM82.15,45c.68,0,1.06-.36,1.06-.89v0c0-.59-.41-.9-1.09-.9H80.75V45Z"/>
            <path class="cls-5" d="M88,41.86h1.28L92,48.2H90.56L90,46.79H87.32l-.57,1.41H85.33Zm1.46,3.71-.84-2-.83,2Z"/>
            <path class="cls-5" d="M92.3,45.07v0a3.24,3.24,0,0,1,3.31-3.26,3.44,3.44,0,0,1,2.47.87l-.87,1.05a2.35,2.35,0,0,0-1.65-.64,1.89,1.89,0,0,0-1.81,2h0a1.88,1.88,0,0,0,1.91,2A2.2,2.2,0,0,0,97,46.67v-.9h-1.4V44.58h2.74v2.73a4.09,4.09,0,0,1-2.69,1A3.15,3.15,0,0,1,92.3,45.07Z"/>
            <path class="cls-5" d="M99.64,41.9h4.76v1.24H101v1.27h3v1.24h-3V47h3.42V48.2h-4.8Z"/>
            <path class="cls-5" d="M108.1,45.07v0a3.35,3.35,0,0,1,6.7,0h0a3.26,3.26,0,0,1-3.36,3.26A3.23,3.23,0,0,1,108.1,45.07Zm5.25,0v0a1.91,1.91,0,0,0-1.91-2,1.89,1.89,0,0,0-1.89,2h0a1.92,1.92,0,0,0,1.91,2A1.89,1.89,0,0,0,113.35,45.07Z"/>
            <path class="cls-5" d="M116,41.9h1.28l3,3.88V41.9h1.37v6.3h-1.18l-3-4v4H116Z"/>
          </g>
          <g class="cls-4">
            <path class="cls-5" d="M32.07,30.94l2.7-3a4.79,4.79,0,0,0,3.55,1.94c1.61,0,2.61-1,2.61-3.22V14.14h4.39V26.85a7.1,7.1,0,0,1-1.83,5.2,7,7,0,0,1-5.06,1.8A8,8,0,0,1,32.07,30.94Z"/>
            <path class="cls-5" d="M49.37,25.24V14.14h4.28v11c0,3.17,1.58,4.81,4.19,4.81S62,28.35,62,25.27V14.14h4.28v11c0,5.88-3.3,8.77-8.52,8.77S49.37,31,49.37,25.24Z"/>
            <path class="cls-5" d="M69.34,30.74l2.52-3a9,9,0,0,0,5.81,2.36c1.75,0,2.8-.7,2.8-1.84v0c0-1.09-.66-1.64-3.91-2.47-3.92-1-6.45-2.09-6.45-5.95v-.05c0-3.53,2.84-5.86,6.81-5.86a11.27,11.27,0,0,1,7.22,2.47l-2.22,3.22a9.17,9.17,0,0,0-5.06-1.92c-1.63,0-2.5.75-2.5,1.7v.05c0,1.28.84,1.7,4.2,2.56,3.94,1,6.16,2.44,6.16,5.83v.06c0,3.86-2.94,6-7.13,6A12.32,12.32,0,0,1,69.34,30.74Z"/>
            <path class="cls-5" d="M92.55,18.08H86.64V14.14h16.1v3.94H96.83v15.5H92.55Z"/>
            <path class="cls-5" d="M121,14H125l8.33,19.58h-4.47L127,29.21h-8.22L117,33.58h-4.36Zm4.5,11.44-2.59-6.31-2.58,6.31Z"/>
            <path class="cls-5" d="M136.29,14.14h7.58c6.11,0,10.33,4.19,10.33,9.66v.06c0,5.47-4.22,9.72-10.33,9.72h-7.58Zm7.58,15.57a5.54,5.54,0,0,0,5.86-5.8v-.05A5.58,5.58,0,0,0,143.87,18h-3.3V29.71Z"/>
            <path class="cls-5" d="M158,14.14h7.58c6.11,0,10.34,4.19,10.34,9.66v.06c0,5.47-4.23,9.72-10.34,9.72H158Zm7.58,15.57a5.54,5.54,0,0,0,5.86-5.8v-.05A5.58,5.58,0,0,0,165.58,18h-3.3V29.71Z"/>
          </g>
        </g>
        <g id="cta">
          <g class="cls-6">
            <g>
              <rect id="cta-glow" class="cls-7" x="-32.06" y="0.18" width="366.9" height="97.59"/>
              <rect id="Rectangle_5685" data-name="Rectangle 5685" class="cls-1" x="214.9" y="34.2" width="90" height="21.61"/>
            </g>
            <g id="Learn_more" data-name="Learn more" class="cls-4">
              <g class="cls-4">
                <path class="cls-5" d="M232.75,41.45h1.87v5.09h3.25v1.63h-5.12Z"/>
                <path class="cls-5" d="M238.48,45.6v0a2.6,2.6,0,0,1,2.62-2.72,2.56,2.56,0,0,1,2.62,2.84c0,.12,0,.25,0,.38h-3.48a1.08,1.08,0,0,0,1.13.85,1.58,1.58,0,0,0,1.15-.52l1,.83a2.74,2.74,0,0,1-2.26,1.06A2.61,2.61,0,0,1,238.48,45.6Zm3.53-.45c-.07-.58-.4-.94-.9-.94s-.81.37-.9.94Z"/>
                <path class="cls-5" d="M244.32,46.68v0c0-1.07.82-1.63,2-1.63a4.13,4.13,0,0,1,1.25.2v-.08c0-.54-.33-.85-1-.85a3.69,3.69,0,0,0-1.43.29l-.38-1.29a5.23,5.23,0,0,1,2.1-.4,2.63,2.63,0,0,1,2,.64,2.18,2.18,0,0,1,.56,1.65v3h-1.81v-.54a1.92,1.92,0,0,1-1.52.66A1.58,1.58,0,0,1,244.32,46.68Zm3.3-.39v-.24a1.83,1.83,0,0,0-.71-.14c-.53,0-.83.26-.83.65v0a.57.57,0,0,0,.64.56A.83.83,0,0,0,247.62,46.29Z"/>
                <path class="cls-5" d="M250.53,43h1.83v1A1.57,1.57,0,0,1,254,42.89v1.92h-.16c-1,0-1.48.55-1.48,1.75v1.61h-1.83Z"/>
                <path class="cls-5" d="M254.77,43h1.82v.73a2,2,0,0,1,1.56-.85,1.7,1.7,0,0,1,1.76,1.91v3.4h-1.82V45.36c0-.57-.3-.87-.73-.87a.77.77,0,0,0-.77.87v2.81h-1.82Z"/>
                <path class="cls-5" d="M263.62,41.45h2l1.6,2.6,1.6-2.6h2v6.72h-1.85V44.31l-1.72,2.63h0l-1.71-2.61v3.84h-1.82Z"/>
                <path class="cls-5" d="M271.82,45.6v0a2.87,2.87,0,0,1,5.74,0v0a2.87,2.87,0,0,1-5.74,0Zm4,0v0a1.13,1.13,0,0,0-1.1-1.17,1.09,1.09,0,0,0-1.09,1.15v0a1.13,1.13,0,0,0,1.11,1.17A1.09,1.09,0,0,0,275.78,45.6Z"/>
                <path class="cls-5" d="M278.48,43h1.82v1a1.59,1.59,0,0,1,1.64-1.13v1.92h-.15c-1,0-1.49.55-1.49,1.75v1.61h-1.82Z"/>
                <path class="cls-5" d="M282.48,45.6v0a2.6,2.6,0,0,1,2.62-2.72,2.56,2.56,0,0,1,2.62,2.84c0,.12,0,.25,0,.38h-3.47a1.07,1.07,0,0,0,1.12.85,1.57,1.57,0,0,0,1.15-.52l1,.83a2.74,2.74,0,0,1-2.26,1.06A2.61,2.61,0,0,1,282.48,45.6Zm3.53-.45c-.07-.58-.4-.94-.9-.94s-.81.37-.9.94Z"/>
              </g>
            </g>
            <rect id="Rectangle_5685-2" data-name="Rectangle 5685" class="cls-8" x="214.9" y="34.2" width="90" height="21.61"/>
          </g>
        </g>
      </g>
    </g>
    <g id="Logo">
      <path id="chevon_shape" data-name="chevon shape" class="cls-5" d="M727.85,38.44,630,38.49,601.32,83.6H727.85Z"/>
      <g id="Grupo_12756" data-name="Grupo 12756">
        <g id="Group_2" data-name="Group 2">
          <path id="X" class="cls-9" d="M700.94,68.63l-2,2.21-2-2.21h-1.15l2.47,2.82-3.08,3.32h1.12L698.83,72l2.41,2.73h1.22l-3-3.33L702,68.63Z"/>
          <rect id="I" class="cls-9" x="690.03" y="68.63" width="0.88" height="6.14"/>
          <path id="N" class="cls-9" d="M683.81,68.64v4.81l-4.35-4.81h-.87v6.13h.88V69.93l4.36,4.84h.86V68.64Z"/>
          <rect id="I-2" class="cls-9" x="672.42" y="68.63" width="0.88" height="6.14"/>
          <path id="U" class="cls-9" d="M666.6,72.33a1.71,1.71,0,0,1-1.6,1.82h-.2a1.65,1.65,0,0,1-1.71-1.6,1.61,1.61,0,0,1,0-.22V68.66h-.88v3.71A2.45,2.45,0,0,0,664.55,75h.24a2.45,2.45,0,0,0,2.68-2.2c0-.12,0-.25,0-.38V68.65h-.88Z"/>
          <path id="Q" class="cls-9" d="M654.47,68.39a3.21,3.21,0,0,0-3.24,3.17v.18A3.17,3.17,0,0,0,654.31,75h.18a3.33,3.33,0,0,0,1.43-.33l.5.57h1l-.88-1a3.16,3.16,0,0,0,1.17-2.56v0a3.18,3.18,0,0,0-3.1-3.26h-.17m2.35,3.32a2.4,2.4,0,0,1-.79,1.91l-.48-.55h-1l.84,1a2.49,2.49,0,0,1-.86.18,2.38,2.38,0,0,1-2.36-2.39h0v-.12a2.35,2.35,0,0,1,2.16-2.51h.14a2.39,2.39,0,0,1,2.38,2.39v.14Z"/>
          <path id="E" class="cls-9" d="M642.3,68.64v6.13h5.48V74H643.2V72h3v-.8h-3V69.44h4.42v-.81Z"/>
        </g>
        <g id="icon_group" data-name="icon group">
          <path id="icon" class="cls-10" d="M672.86,46.16l-2.5.87V60.14l-1.67-.58V47.62l-5,1.74v8.46L662,57.24v-7.3l-1.67.59v7.9l5,1.74V50.55L667,50V60.75l5,1.75V48.22l.83-.29.83.29V62.49l5-1.74V50l1.66.58v9.63l5-1.75V50.53l-1.66-.59v7.3l-1.67.58V49.36l-5-1.75v12l-1.66.58V47Z"/>
          <path id="R" class="cls-10" d="M688.54,57.87a1.51,1.51,0,0,0,1.5-1.51h0a1.5,1.5,0,1,0-3,0h0a1.51,1.51,0,0,0,1.49,1.5h0m0-.17a1.33,1.33,0,0,1-1.33-1.31v0h0a1.33,1.33,0,0,1,2.66-.09v.08h0a1.32,1.32,0,0,1-1.32,1.34h0m-.62-.59h.38v-.49h.24l.34.49h.46l-.4-.56a.48.48,0,0,0,.34-.48c0-.36-.26-.52-.62-.52h-.74Zm.38-.8v-.43h.33c.16,0,.27.07.27.21s-.1.22-.27.22Z"/>
        </g>
      </g>
    </g>
    <g id="purestorage_logo" data-name="purestorage logo">
      <g id="Group-28">
        <g id="Group-3">
          <path id="Fill-1" class="cls-11" d="M632,29.43h-4.27a2.49,2.49,0,0,1-2.15-1.24L622,21.92a2.53,2.53,0,0,1,0-2.5l3.59-6.26a2.48,2.48,0,0,1,2.15-1.25h7.19a2.48,2.48,0,0,1,2.15,1.25l3.59,6.26a2.53,2.53,0,0,1,0,2.5l-.93,1.49a2.46,2.46,0,0,1-2.13,1.23h-4.29l2.34-4-2.16-3.77h-4.33L627,20.67Z"/>
        </g>
        <path id="Fill-4" class="cls-12" d="M648,20.7c.76,0,1.25-.24,1.25-1s-.41-1-1.15-1h-.55V20.7Zm-.45,4.13h-2V17.07h2.83c1.82,0,2.92.85,2.92,2.46,0,1.81-1.31,2.72-3.16,2.72h-.59Z"/>
        <path id="Fill-6" class="cls-12" d="M654.39,17.07v5c0,.88.45,1.14,1.08,1.14a1,1,0,0,0,1-.9.54.54,0,0,0,0-.18v-5h2v5.27c0,1.55-1.24,2.49-3,2.49-2,0-3-.8-3-2.66v-5.1Z"/>
        <path id="Fill-8" class="cls-12" d="M667.09,17.07h5.09v1.75H669.1V20h2.65v1.75H669.1v1.33h3.16v1.75h-5.17Z"/>
        <path id="Fill-10" class="cls-12" d="M674.09,23.36a4.11,4.11,0,0,0,2.12.67c.79,0,1.64-.25,1.64-1.44,0-.94-.82-1.24-1.76-1.5-1.12-.3-2.23-.72-2.23-2.16a2.21,2.21,0,0,1,2.48-2.15,3.68,3.68,0,0,1,2.53,1l-.51.62a3.14,3.14,0,0,0-2-.86c-.66,0-1.5.28-1.5,1.26s.79,1.19,1.8,1.5,2.19.74,2.19,2.21-1,2.28-2.64,2.28a4.62,4.62,0,0,1-2.48-.71Z"/>
        <path id="Fill-12" class="cls-12" d="M685.2,17.07v.79h-2.3v7H682v-7h-2.26v-.79Z"/>
        <path id="Fill-14" class="cls-12" d="M689,24.05c1.66,0,2.18-1.6,2.18-3.19,0-1.38-.45-3.28-2.19-3.28s-2.29,1.62-2.29,3.21.42,3.26,2.3,3.26m-.09.78c-1.95,0-3.13-1.34-3.13-4,0-3,1.69-4,3.25-4s3.07,1.06,3.07,4c0,2.68-1.23,4-3.19,4"/>
        <path id="Fill-16" class="cls-12" d="M701.83,21.69h2.61l-1.32-3.79Zm-2,3.14,2.73-7.76h1.09l2.79,7.76h-1l-.85-2.39H701.6l-.83,2.39Z"/>
        <path id="Fill-18" class="cls-12" d="M712.49,24.12a4.44,4.44,0,0,1-2.51.71c-2,0-3.21-1.3-3.21-4,0-3,1.7-4,3.21-4A3.07,3.07,0,0,1,712.52,18l-.65.53a2.36,2.36,0,0,0-1.9-1c-1.43,0-2.28,1.21-2.28,3.17s.72,3.33,2.37,3.33a3,3,0,0,0,1.53-.41V21.35h-1.71v-.8h2.61Z"/>
        <path id="Fill-20" class="cls-12" d="M714.24,17.07h4.24v.79h-3.34v2.62H718v.79h-2.87V24h3.42v.79h-4.32Z"/>
        <path id="Fill-22" class="cls-12" d="M695.66,21.22h-1.19V17.83h1c1.33,0,2.28.15,2.28,1.69C697.79,20.77,696.92,21.22,695.66,21.22Zm2.22,1.18c-.18-.4-.29-.59-.54-.71a2.34,2.34,0,0,0,1.41-2.31c0-1.52-1-2.31-2.65-2.31h-2.56v7.76h.93V22h1.63c.48,0,.71.31.91.73l1,2.13h1Z"/>
        <path id="Fill-24" class="cls-12" d="M661.86,20.7V18.64h.55c.72,0,1.13.22,1.13,1s-.48,1-1.23,1Zm3,1.67a1.18,1.18,0,0,0-.5-.6,2.48,2.48,0,0,0,1.16-2.24c0-1.61-1.09-2.46-2.88-2.46H659.9v7.76h2V22.25h.51a.63.63,0,0,1,.55.44l.92,2.13h2.1Z"/>
        <path id="Fill-26" class="cls-12" d="M720.15,17.73c.13,0,.26,0,.26-.18s-.14-.15-.25-.15h-.22v.33Zm-.21.63h-.19V17.25h.43c.28,0,.42.09.42.32a.28.28,0,0,1-.27.3h0l.32.49h-.21l-.29-.47H720Zm.2-1.41a.84.84,0,0,0-.88.79.83.83,0,0,0,.79.87.81.81,0,0,0,.87-.78v0a.79.79,0,0,0-.75-.83h0Zm0,1.84a1,1,0,1,1,1-1h0a1,1,0,0,1-.94,1Z"/>
      </g>
    </g>
  </g>
</svg>
