<svg xmlns="http://www.w3.org/2000/svg" xmlns:xlink="http://www.w3.org/1999/xlink" viewBox="0 0 160 600">
  <defs>
    <style>
      .cls-1, .cls-9 {
        fill: none;
      }

      .cls-2 {
        clip-path: url(#clip-path);
      }

      .cls-3 {
        opacity: 0.6;
        fill: url(#Degradado_sin_nombre_4);
      }

      .cls-3, .cls-4 {
        isolation: isolate;
      }

      .cls-13, .cls-5 {
        fill: #fff;
      }

      .cls-6 {
        clip-path: url(#clip-path-2);
      }

      .cls-7 {
        clip-path: url(#clip-path-3);
      }

      .cls-8 {
        opacity: 0.29;
        fill: url(#linear-gradient);
      }

      .cls-9 {
        stroke: #fff;
        stroke-miterlimit: 10;
        stroke-width: 0.82px;
      }

      .cls-10 {
        fill: #030504;
      }

      .cls-11 {
        fill: #e4001b;
      }

      .cls-12 {
        fill: #fe5000;
      }

      .cls-12, .cls-13 {
        fill-rule: evenodd;
      }
    </style>
    <clipPath id="clip-path">
      <rect class="cls-1" width="160" height="600"/>
    </clipPath>
    <radialGradient id="Degradado_sin_nombre_4" data-name="Degradado sin nombre 4" cx="569.84" cy="-206.26" r="0.41" gradientTransform="matrix(542.92, 0, 0, -239.64, -309315.83, -49063.99)" gradientUnits="userSpaceOnUse">
      <stop offset="0" stop-color="#fff"/>
      <stop offset="0.26" stop-color="#fff" stop-opacity="0.68"/>
      <stop offset="0.53" stop-color="#fff" stop-opacity="0.39"/>
      <stop offset="0.75" stop-color="#fff" stop-opacity="0.18"/>
      <stop offset="0.91" stop-color="#fff" stop-opacity="0.05"/>
      <stop offset="1" stop-color="#fff" stop-opacity="0"/>
    </radialGradient>
    <clipPath id="clip-path-2">
      <rect id="cta-mask" class="cls-1" x="19.63" y="200.97" width="124.61" height="38.13"/>
    </clipPath>
    <clipPath id="clip-path-3">
      <rect id="Rectangle_5685" data-name="Rectangle 5685" class="cls-1" x="24.95" y="206.35" width="113.97" height="27.36"/>
    </clipPath>
    <linearGradient id="linear-gradient" x1="12.88" y1="209.73" x2="-105.28" y2="236.26" gradientUnits="userSpaceOnUse">
      <stop offset="0"/>
      <stop offset="0.24" stop-color="#fff"/>
      <stop offset="0.46"/>
      <stop offset="0.71" stop-color="#fff"/>
      <stop offset="1"/>
    </linearGradient>
  </defs>
  <g id="_160x600" data-name="160x600">
    <g class="cls-2">
      <g id="BG">
        <image id="GettyImages-561860327" width="901" height="803" transform="translate(-286.85 -37.27) scale(0.84)" xlink:href="awareness1-300x2501.jpg"/>
        <ellipse id="bg-light" class="cls-3" cx="80" cy="367.65" rx="246.33" ry="108.73"/>
        <image id="keyshadow" width="600" height="491" transform="translate(-57.23 299.99) scale(0.47)" xlink:href="awareness11.png"/>
        <image width="258" height="68" transform="translate(13.49 351.19) scale(0.52)" xlink:href="metal3.png"/>
        <image id="shine1_300x" data-name="shine1@300x" width="1721" height="1721" transform="translate(14.61 328.01) scale(0.03)" xlink:href="consideration21.png"/>
      </g>
      <g id="f2">
        <g class="cls-4">
          <path class="cls-5" d="M28.81,112.25h2.13l4.5,10.58H33l-1-2.36H27.62l-1,2.36H24.31Zm2.43,6.18-1.4-3.4-1.39,3.4Z"/>
          <path class="cls-5" d="M36.08,118.82v0c0-2.68,1.76-4.15,3.66-4.15a3.08,3.08,0,0,1,2.51,1.2v-4h2.28v11H42.25v-1.16A3,3,0,0,1,39.74,123C37.87,123,36.08,121.51,36.08,118.82Zm6.2,0v0a2,2,0,1,0-3.92,0v0a2,2,0,1,0,3.92,0Z"/>
          <path class="cls-5" d="M46.21,118.82v0c0-2.68,1.75-4.15,3.66-4.15a3.07,3.07,0,0,1,2.5,1.2v-4h2.28v11H52.37v-1.16a3,3,0,0,1-2.5,1.31C48,123,46.21,121.51,46.21,118.82Zm6.19,0v0a2,2,0,1,0-3.91,0v0a2,2,0,1,0,3.91,0Z"/>
          <path class="cls-5" d="M60.71,121.3l1.37-1.64a4.8,4.8,0,0,0,3.13,1.28c1,0,1.52-.38,1.52-1v0c0-.59-.36-.89-2.12-1.34-2.11-.54-3.48-1.12-3.48-3.21v0c0-1.9,1.53-3.16,3.68-3.16a6.11,6.11,0,0,1,3.9,1.33l-1.2,1.74a5,5,0,0,0-2.73-1c-.89,0-1.35.4-1.35.91v0c0,.69.45.92,2.26,1.38,2.13.56,3.33,1.32,3.33,3.15v0c0,2.09-1.59,3.26-3.85,3.26A6.72,6.72,0,0,1,60.71,121.3Z"/>
          <path class="cls-5" d="M71.09,120.55v-3.81h-1v-1.95h1v-2.06h2.28v2.06h1.89v1.95H73.37v3.43c0,.53.23.78.74.78a2.3,2.3,0,0,0,1.12-.28v1.83a3.39,3.39,0,0,1-1.8.46C72,123,71.09,122.41,71.09,120.55Z"/>
          <path class="cls-5" d="M76.33,118.85v0a4.35,4.35,0,0,1,8.7,0v0A4.23,4.23,0,0,1,80.66,123,4.18,4.18,0,0,1,76.33,118.85Zm6.45,0v0a2.14,2.14,0,0,0-2.12-2.22,2.06,2.06,0,0,0-2.08,2.19v0A2.13,2.13,0,0,0,80.69,121,2.06,2.06,0,0,0,82.78,118.85Z"/>
          <path class="cls-5" d="M86.68,114.79H89v1.62a2.47,2.47,0,0,1,2.56-1.77V117H91.4c-1.51,0-2.44.92-2.44,2.84v3H86.68Z"/>
          <path class="cls-5" d="M92.09,120.52v0c0-1.76,1.34-2.57,3.24-2.57a5.87,5.87,0,0,1,2,.33v-.13c0-1-.59-1.47-1.73-1.47a5.93,5.93,0,0,0-2.22.43l-.57-1.74a7.13,7.13,0,0,1,3.12-.64,3.72,3.72,0,0,1,2.72.9,3.49,3.49,0,0,1,.87,2.56v4.67H97.28V122a3.1,3.1,0,0,1-2.43,1A2.49,2.49,0,0,1,92.09,120.52Zm5.24-.53v-.4a3.54,3.54,0,0,0-1.46-.3c-1,0-1.57.39-1.57,1.11v0c0,.61.51,1,1.24,1C96.61,121.4,97.33,120.82,97.33,120Z"/>
          <path class="cls-5" d="M101.5,124.42l.78-1.71a5.27,5.27,0,0,0,2.71.73c1.56,0,2.3-.75,2.3-2.19v-.39a3.16,3.16,0,0,1-2.63,1.31,3.54,3.54,0,0,1-3.57-3.75v0a3.54,3.54,0,0,1,3.57-3.75,3.25,3.25,0,0,1,2.6,1.2v-1h2.28V121a4.36,4.36,0,0,1-1,3.17,4.73,4.73,0,0,1-3.47,1.08A7.62,7.62,0,0,1,101.5,124.42Zm5.79-6v0a2,2,0,0,0-3.92,0v0a1.84,1.84,0,0,0,1.95,1.86A1.87,1.87,0,0,0,107.29,118.42Z"/>
          <path class="cls-5" d="M111.19,118.85v0a4,4,0,0,1,4-4.18c2.69,0,3.92,2.08,3.92,4.36,0,.18,0,.39,0,.6h-5.6a1.87,1.87,0,0,0,2,1.58,2.63,2.63,0,0,0,2-.83l1.3,1.16a4.24,4.24,0,0,1-7.48-2.66Zm5.67-.67a1.73,1.73,0,0,0-1.7-1.71,1.79,1.79,0,0,0-1.74,1.71Z"/>
          <path class="cls-5" d="M120,124.31c1-.1,1.55-.63,1.47-1.48h-.93v-2.4H123v2c0,2-1,2.78-2.77,2.81Z"/>
        </g>
        <g class="cls-4">
          <path class="cls-5" d="M24.74,134.26v0a5.34,5.34,0,0,1,5.48-5.43,5.43,5.43,0,0,1,4.14,1.62l-1.47,1.7a3.87,3.87,0,0,0-2.69-1.19,3.11,3.11,0,0,0-3,3.27v0a3.11,3.11,0,0,0,3,3.3A3.78,3.78,0,0,0,33,136.3l1.47,1.49a5.38,5.38,0,0,1-4.3,1.87A5.3,5.3,0,0,1,24.74,134.26Z"/>
          <path class="cls-5" d="M35.5,135.51v0a4.35,4.35,0,0,1,8.7,0v0a4.22,4.22,0,0,1-4.37,4.18A4.17,4.17,0,0,1,35.5,135.51Zm6.45,0v0a2.14,2.14,0,0,0-2.12-2.22,2.06,2.06,0,0,0-2.08,2.19v0a2.14,2.14,0,0,0,2.11,2.22A2.06,2.06,0,0,0,42,135.51Z"/>
          <path class="cls-5" d="M45.85,131.44h2.28v1.14a2.87,2.87,0,0,1,2.37-1.29,2.4,2.4,0,0,1,2.26,1.28,3.32,3.32,0,0,1,2.64-1.28c1.7,0,2.72,1,2.72,3v5.23H55.84V135c0-1.08-.48-1.64-1.34-1.64s-1.38.56-1.38,1.64v4.48H50.84V135c0-1.08-.48-1.64-1.33-1.64s-1.38.56-1.38,1.64v4.48H45.85Z"/>
          <path class="cls-5" d="M60.1,131.44h2.28v1.16a3,3,0,0,1,2.5-1.31c1.88,0,3.66,1.47,3.66,4.16v0c0,2.68-1.75,4.15-3.66,4.15a3.07,3.07,0,0,1-2.5-1.2v3.45H60.1Zm6.16,4v0a2,2,0,1,0-3.91,0v0a2,2,0,1,0,3.91,0Z"/>
          <path class="cls-5" d="M70.16,136.65v-5.21h2.28v4.49c0,1.08.51,1.63,1.38,1.63s1.43-.55,1.43-1.63v-4.49h2.28v8H75.25v-1.14a2.84,2.84,0,0,1-2.36,1.29C71.17,139.63,70.16,138.49,70.16,136.65Z"/>
          <path class="cls-5" d="M79.94,137.2v-3.81H79v-1.95h1v-2.05h2.28v2.05h1.89v1.95H82.22v3.44c0,.52.23.78.74.78a2.3,2.3,0,0,0,1.12-.29v1.83a3.3,3.3,0,0,1-1.8.47C80.89,139.62,79.94,139.06,79.94,137.2Z"/>
          <path class="cls-5" d="M85.18,135.51v0a4,4,0,0,1,4-4.19c2.69,0,3.92,2.09,3.92,4.37,0,.18,0,.39,0,.6h-5.6a1.87,1.87,0,0,0,2,1.57,2.66,2.66,0,0,0,2-.82l1.3,1.15a4.24,4.24,0,0,1-7.48-2.65Zm5.67-.68a1.73,1.73,0,0,0-1.7-1.71,1.8,1.8,0,0,0-1.74,1.71Z"/>
          <path class="cls-5" d="M103.1,128.91h2.13l4.5,10.57h-2.41l-1-2.35h-4.44l-1,2.35H98.6Zm2.43,6.18-1.39-3.41-1.4,3.41Z"/>
          <path class="cls-5" d="M111.11,131.44h2.28v1.14a2.87,2.87,0,0,1,2.36-1.29c1.72,0,2.73,1.14,2.73,3v5.2H116.2V135c0-1.08-.51-1.64-1.38-1.64s-1.43.56-1.43,1.64v4.48h-2.28Z"/>
          <path class="cls-5" d="M120.1,135.48v0c0-2.69,1.75-4.16,3.66-4.16a3.1,3.1,0,0,1,2.5,1.2v-4h2.28v10.95h-2.28v-1.15a2.94,2.94,0,0,1-2.5,1.3C121.88,139.63,120.1,138.16,120.1,135.48Zm6.19,0v0a2,2,0,1,0-3.91,0v0a2,2,0,1,0,3.91,0Z"/>
        </g>
        <g class="cls-4">
          <path class="cls-5" d="M24.74,150.92v0a5.4,5.4,0,0,1,5.51-5.43,5.74,5.74,0,0,1,4.12,1.44l-1.45,1.76a3.85,3.85,0,0,0-2.75-1.07,3.15,3.15,0,0,0-3,3.27v0a3.15,3.15,0,0,0,3.18,3.33,3.66,3.66,0,0,0,2.17-.63v-1.5H30.19v-2h4.56v4.56a6.85,6.85,0,0,1-4.49,1.66A5.25,5.25,0,0,1,24.74,150.92Z"/>
          <path class="cls-5" d="M36.83,145.19h2.28v10.95H36.83Z"/>
          <path class="cls-5" d="M40.87,152.17v0a4.35,4.35,0,0,1,8.7,0v0a4.22,4.22,0,0,1-4.37,4.18A4.17,4.17,0,0,1,40.87,152.17Zm6.45,0v0a2.14,2.14,0,0,0-2.12-2.22,2.06,2.06,0,0,0-2.08,2.19v0a2.14,2.14,0,0,0,2.11,2.22A2.06,2.06,0,0,0,47.32,152.17Z"/>
          <path class="cls-5" d="M53.5,155.09v1H51.22V145.19H53.5v4.07A3,3,0,0,1,56,148c1.88,0,3.66,1.47,3.66,4.16v0c0,2.68-1.75,4.15-3.66,4.15A3.07,3.07,0,0,1,53.5,155.09Zm3.88-3v0a2,2,0,1,0-3.91,0v0a2,2,0,1,0,3.91,0Z"/>
          <path class="cls-5" d="M60.86,153.83v0c0-1.75,1.34-2.56,3.24-2.56a5.63,5.63,0,0,1,2,.33v-.14c0-.94-.59-1.47-1.73-1.47a5.94,5.94,0,0,0-2.22.44l-.57-1.74a7.12,7.12,0,0,1,3.12-.65,3.72,3.72,0,0,1,2.72.9,3.52,3.52,0,0,1,.87,2.57v4.66H66.05v-.87a3.07,3.07,0,0,1-2.43,1A2.49,2.49,0,0,1,60.86,153.83Zm5.24-.52v-.41a3.54,3.54,0,0,0-1.46-.3c-1,0-1.57.39-1.57,1.11v0c0,.62.51,1,1.24,1C65.38,154.72,66.1,154.13,66.1,153.31Z"/>
          <path class="cls-5" d="M70.33,145.19h2.28v10.95H70.33Z"/>
        </g>
        <g class="cls-4">
          <path class="cls-5" d="M24.74,167.58v0a5.34,5.34,0,0,1,5.48-5.43,5.43,5.43,0,0,1,4.14,1.62l-1.47,1.7a3.87,3.87,0,0,0-2.69-1.19,3.11,3.11,0,0,0-3,3.27v0a3.11,3.11,0,0,0,3,3.3A3.78,3.78,0,0,0,33,169.62l1.47,1.49a5.38,5.38,0,0,1-4.3,1.87A5.3,5.3,0,0,1,24.74,167.58Z"/>
          <path class="cls-5" d="M35.5,168.83v0a4.35,4.35,0,0,1,8.7,0v0A4.22,4.22,0,0,1,39.83,173,4.17,4.17,0,0,1,35.5,168.83Zm6.45,0v0a2.14,2.14,0,0,0-2.12-2.22,2.06,2.06,0,0,0-2.08,2.19v0A2.14,2.14,0,0,0,39.86,171,2.06,2.06,0,0,0,42,168.83Z"/>
          <path class="cls-5" d="M45.85,164.76h2.28v1.14a2.85,2.85,0,0,1,2.35-1.29c1.73,0,2.73,1.14,2.73,3v5.2H50.93v-4.48c0-1.08-.51-1.64-1.38-1.64s-1.42.56-1.42,1.64v4.48H45.85Z"/>
          <path class="cls-5" d="M55.19,164.76h2.28v1.14a2.87,2.87,0,0,1,2.36-1.29c1.72,0,2.73,1.14,2.73,3v5.2H60.28v-4.48c0-1.08-.51-1.64-1.38-1.64s-1.43.56-1.43,1.64v4.48H55.19Z"/>
          <path class="cls-5" d="M64.15,168.83v0a4,4,0,0,1,4-4.19c2.69,0,3.92,2.09,3.92,4.37,0,.18,0,.39,0,.6h-5.6a1.87,1.87,0,0,0,2,1.57,2.66,2.66,0,0,0,2-.82l1.3,1.15a4.24,4.24,0,0,1-7.48-2.65Zm5.67-.68a1.73,1.73,0,0,0-1.7-1.71,1.8,1.8,0,0,0-1.74,1.71Z"/>
          <path class="cls-5" d="M73.34,168.83v0a4.13,4.13,0,0,1,4.22-4.19A4,4,0,0,1,80.77,166l-1.4,1.5a2.34,2.34,0,0,0-1.83-.88,2.05,2.05,0,0,0-2,2.19v0a2.06,2.06,0,0,0,2,2.22,2.54,2.54,0,0,0,1.85-.86l1.33,1.35A4,4,0,0,1,77.53,173,4.11,4.11,0,0,1,73.34,168.83Z"/>
          <path class="cls-5" d="M82.67,170.52v-3.81h-1v-2h1v-2H85v2h1.89v2H85v3.44c0,.52.23.78.74.78a2.3,2.3,0,0,0,1.12-.29v1.83a3.3,3.3,0,0,1-1.8.47C83.62,172.94,82.67,172.38,82.67,170.52Z"/>
          <path class="cls-5" d="M88.57,161.85H91v2h-2.4Zm.06,2.91h2.28v8H88.63Z"/>
          <path class="cls-5" d="M92.33,164.76h2.42l1.8,5.39,1.81-5.39h2.37l-3.16,8.1H95.5Z"/>
          <path class="cls-5" d="M102.1,161.85h2.4v2h-2.4Zm.06,2.91h2.28v8h-2.28Z"/>
          <path class="cls-5" d="M107,170.52v-3.81h-1v-2h1v-2h2.28v2h1.89v2h-1.89v3.44c0,.52.22.78.73.78a2.34,2.34,0,0,0,1.13-.29v1.83a3.33,3.33,0,0,1-1.8.47C107.9,172.94,107,172.38,107,170.52Z"/>
          <path class="cls-5" d="M112.7,174.69l.77-1.65a2.06,2.06,0,0,0,1,.32.77.77,0,0,0,.8-.53l-3.15-8.07h2.41l1.83,5.48,1.76-5.48h2.37L117.37,173c-.62,1.63-1.28,2.25-2.64,2.25A3.75,3.75,0,0,1,112.7,174.69Z"/>
        </g>
      </g>
      <g id="f3">
        <g id="c3">
          <g class="cls-4">
            <path class="cls-5" d="M27.47,165h5.84l6.47,10.41L46.25,165h5.84v24.62H46.71V173.5L39.78,184h-.14L32.78,173.6v16H27.47Z"/>
            <path class="cls-5" d="M58,165H76.57v4.82H63.38v5H75v4.82H63.38v5.17H76.74v4.82H58Z"/>
            <path class="cls-5" d="M87.29,170H79.8v-5h20.4v5H92.71v19.62H87.29Z"/>
            <path class="cls-5" d="M109.62,164.78h5l10.55,24.79H119.5l-2.25-5.52H106.84l-2.25,5.52H99.07Zm5.7,14.49-3.27-8-3.27,8Z"/>
            <path class="cls-5" d="M129,165h5.42v19.7h12.27v4.92H129Z"/>
          </g>
          <g class="cls-4">
            <path class="cls-5" d="M25.48,147.38h3.26a2.73,2.73,0,0,1,3.05,2.76v0c0,1.85-1.44,2.8-3.23,2.8H27.23v2.4H25.48Zm3.14,4A1.23,1.23,0,0,0,30,150.19v0c0-.79-.54-1.21-1.42-1.21H27.23v2.44Z"/>
            <path class="cls-5" d="M33,151.94v-4.56h1.75v4.51c0,1.3.65,2,1.73,2s1.72-.65,1.72-1.91v-4.57h1.75v4.5c0,2.42-1.35,3.6-3.5,3.6S33,154.29,33,151.94Z"/>
            <path class="cls-5" d="M41.72,147.38h3.64a3.17,3.17,0,0,1,2.33.81,2.51,2.51,0,0,1,.68,1.82v0a2.48,2.48,0,0,1-1.71,2.48l2,2.85h-2l-1.71-2.56H43.47v2.56H41.72Zm3.53,3.87c.85,0,1.35-.45,1.35-1.12v0c0-.75-.53-1.14-1.38-1.14H43.47v2.29Z"/>
            <path class="cls-5" d="M50,147.38h6v1.56H51.71v1.62h3.76v1.56H51.71v1.68H56v1.56H50Z"/>
            <path class="cls-5" d="M60.48,154.19l1-1.24a3.66,3.66,0,0,0,2.38,1c.72,0,1.15-.28,1.15-.75v0c0-.45-.27-.68-1.61-1-1.61-.41-2.64-.85-2.64-2.44v0a2.5,2.5,0,0,1,2.79-2.41,4.62,4.62,0,0,1,3,1l-.91,1.32a3.73,3.73,0,0,0-2.07-.79c-.68,0-1,.31-1,.7v0c0,.53.34.7,1.72,1.05,1.62.42,2.53,1,2.53,2.4v0c0,1.58-1.21,2.47-2.93,2.47A5.06,5.06,0,0,1,60.48,154.19Z"/>
            <path class="cls-5" d="M70,149H67.58v-1.62h6.61V149H71.77v6.36H70Z"/>
            <path class="cls-5" d="M74.85,151.39v0a4.24,4.24,0,0,1,8.48,0v0a4.24,4.24,0,0,1-8.48,0Zm6.64,0v0a2.42,2.42,0,0,0-2.41-2.51,2.39,2.39,0,0,0-2.4,2.49v0a2.44,2.44,0,0,0,2.42,2.51A2.39,2.39,0,0,0,81.49,151.39Z"/>
            <path class="cls-5" d="M84.9,147.38h3.64a3.17,3.17,0,0,1,2.33.81,2.51,2.51,0,0,1,.68,1.82v0a2.48,2.48,0,0,1-1.71,2.48l2,2.85H89.74L88,152.8H86.65v2.56H84.9Zm3.53,3.87c.85,0,1.34-.45,1.34-1.12v0c0-.75-.52-1.14-1.38-1.14H86.65v2.29Z"/>
            <path class="cls-5" d="M95.88,147.32H97.5l3.42,8H99.08l-.73-1.79H95l-.73,1.79H92.46Zm1.84,4.7-1.06-2.59L95.6,152Z"/>
            <path class="cls-5" d="M101.29,151.39v0a4.09,4.09,0,0,1,4.18-4.13,4.36,4.36,0,0,1,3.13,1.1l-1.1,1.33a3,3,0,0,0-2.09-.81,2.4,2.4,0,0,0-2.29,2.49v0a2.39,2.39,0,0,0,2.42,2.53,2.77,2.77,0,0,0,1.65-.48v-1.14h-1.77v-1.52h3.47v3.47a5.21,5.21,0,0,1-3.41,1.26A4,4,0,0,1,101.29,151.39Z"/>
            <path class="cls-5" d="M110.58,147.38h6v1.56h-4.28v1.62h3.77v1.56h-3.77v1.68h4.34v1.56h-6.08Z"/>
            <path class="cls-5" d="M121.29,151.39v0a4.24,4.24,0,0,1,8.48,0v0a4.24,4.24,0,0,1-8.48,0Zm6.65,0v0a2.43,2.43,0,0,0-2.42-2.51,2.39,2.39,0,0,0-2.4,2.49v0a2.44,2.44,0,0,0,2.42,2.51A2.4,2.4,0,0,0,127.94,151.39Z"/>
            <path class="cls-5" d="M131.34,147.38H133l3.73,4.91v-4.91h1.74v8h-1.5l-3.86-5.08v5.08h-1.73Z"/>
          </g>
          <g class="cls-4">
            <path class="cls-5" d="M35.91,114.4h5l10.55,24.8H45.8l-2.25-5.52H33.14l-2.26,5.52H25.36Zm5.7,14.5-3.27-8-3.27,8Z"/>
            <path class="cls-5" d="M55.25,114.58h9.61c7.73,0,13.08,5.31,13.08,12.24v.07c0,6.93-5.35,12.31-13.08,12.31H55.25Zm9.61,19.73A7,7,0,0,0,72.28,127v-.07a7.07,7.07,0,0,0-7.42-7.42H60.67v14.84Z"/>
            <path class="cls-5" d="M82.75,114.58h9.6c7.74,0,13.09,5.31,13.09,12.24v.07c0,6.93-5.35,12.31-13.09,12.31h-9.6Zm9.6,19.73A7,7,0,0,0,99.78,127v-.07a7.07,7.07,0,0,0-7.43-7.42H88.17v14.84Z"/>
          </g>
          <g class="cls-4">
            <path class="cls-5" d="M25,104.49l3.41-3.79c1.41,1.54,2.78,2.46,4.5,2.46,2,0,3.31-1.23,3.31-4.08V83.22h5.56v16.1a9,9,0,0,1-2.32,6.58,8.82,8.82,0,0,1-6.4,2.29A10.06,10.06,0,0,1,25,104.49Z"/>
            <path class="cls-5" d="M46.92,97.28V83.22h5.42V97.14c0,4,2,6.09,5.31,6.09s5.31-2,5.31-5.91V83.22h5.41V97.11c0,7.46-4.18,11.11-10.79,11.11S46.92,104.53,46.92,97.28Z"/>
            <path class="cls-5" d="M72.2,104.25l3.2-3.84a11.3,11.3,0,0,0,7.35,3c2.22,0,3.56-.88,3.56-2.32V101c0-1.37-.85-2.07-5-3.13-5-1.26-8.16-2.64-8.16-7.52v-.08c0-4.46,3.59-7.42,8.62-7.42A14.29,14.29,0,0,1,91,86l-2.81,4.08a11.57,11.57,0,0,0-6.41-2.42c-2.07,0-3.16.95-3.16,2.14v.07c0,1.62,1.05,2.15,5.31,3.24,5,1.3,7.81,3.09,7.81,7.38v.08c0,4.88-3.73,7.63-9,7.63A15.67,15.67,0,0,1,72.2,104.25Z"/>
            <path class="cls-5" d="M101.6,88.21H94.11v-5h20.4v5H107v19.63H101.6Z"/>
          </g>
        </g>
        <g id="cta">
          <g class="cls-6">
            <g class="cls-7">
              <rect id="cta-glow" class="cls-8" x="-287.78" y="163.28" width="464.63" height="123.59"/>
            </g>
            <g id="Learn_more" data-name="Learn more" class="cls-4">
              <g class="cls-4">
                <path class="cls-5" d="M48,215.54h2.35V222h4.13v2.07H48Z"/>
                <path class="cls-5" d="M55.09,220.79v0a3.3,3.3,0,0,1,3.32-3.44c2.27,0,3.32,1.66,3.32,3.6,0,.14,0,.31,0,.47H57.31a1.36,1.36,0,0,0,1.43,1.08,2,2,0,0,0,1.46-.67l1.27,1.06a3.44,3.44,0,0,1-2.85,1.34A3.31,3.31,0,0,1,55.09,220.79Zm4.47-.57A1.17,1.17,0,0,0,58.42,219c-.61,0-1,.47-1.14,1.19Z"/>
                <path class="cls-5" d="M62.38,222.17v0c0-1.36,1-2.07,2.57-2.07a5.21,5.21,0,0,1,1.59.26v-.11c0-.68-.43-1.07-1.32-1.07a4.47,4.47,0,0,0-1.81.37l-.47-1.63a6.48,6.48,0,0,1,2.66-.52,3.33,3.33,0,0,1,2.5.81,2.74,2.74,0,0,1,.71,2.09v3.78H66.52v-.68a2.48,2.48,0,0,1-1.93.83A2,2,0,0,1,62.38,222.17Zm4.18-.5v-.31a2.58,2.58,0,0,0-.9-.17c-.67,0-1.06.33-1.06.82v0a.73.73,0,0,0,.82.72A1.06,1.06,0,0,0,66.56,221.67Z"/>
                <path class="cls-5" d="M70.14,217.47h2.31v1.33a2,2,0,0,1,2.08-1.44v2.43h-.2c-1.2,0-1.88.7-1.88,2.22v2H70.14Z"/>
                <path class="cls-5" d="M75.39,217.47H77.7v.93a2.42,2.42,0,0,1,2-1.07,2.15,2.15,0,0,1,2.24,2.42v4.3H79.6v-3.56c0-.72-.38-1.11-.93-1.11a1,1,0,0,0-1,1.11v3.56H75.39Z"/>
                <path class="cls-5" d="M86.6,215.54h2.49l2,3.29,2-3.29h2.5v8.51H93.3v-4.89l-2.18,3.33h-.05l-2.16-3.3v4.86H86.6Z"/>
                <path class="cls-5" d="M96.87,220.79v0a3.5,3.5,0,0,1,3.65-3.44,3.47,3.47,0,0,1,3.62,3.41v0a3.64,3.64,0,0,1-7.27,0Zm5,0v0a1.43,1.43,0,0,0-1.39-1.49,1.38,1.38,0,0,0-1.38,1.46v0a1.42,1.42,0,0,0,1.4,1.48A1.37,1.37,0,0,0,101.89,220.79Z"/>
                <path class="cls-5" d="M105.19,217.47h2.31v1.33a2,2,0,0,1,2.08-1.44v2.43h-.19c-1.21,0-1.89.7-1.89,2.22v2h-2.31Z"/>
                <path class="cls-5" d="M110.15,220.79v0a3.3,3.3,0,0,1,3.32-3.44c2.27,0,3.32,1.66,3.32,3.6,0,.14,0,.31,0,.47h-4.4a1.35,1.35,0,0,0,1.42,1.08,2,2,0,0,0,1.46-.67l1.28,1.06a3.47,3.47,0,0,1-2.86,1.34A3.31,3.31,0,0,1,110.15,220.79Zm4.48-.57c-.09-.73-.51-1.19-1.15-1.19s-1,.47-1.14,1.19Z"/>
              </g>
            </g>
            <rect id="Rectangle_5685-2" data-name="Rectangle 5685" class="cls-9" x="24.95" y="206.35" width="113.97" height="27.36"/>
          </g>
        </g>
      </g>
    </g>
    <g id="Logo">
      <path id="chevon_shape" data-name="chevon shape" class="cls-5" d="M159.42,495.57l-62.88,0-18.41,29h81.29Z"/>
      <g id="Grupo_12756" data-name="Grupo 12756">
        <g id="Group_2" data-name="Group 2">
          <path id="X" class="cls-10" d="M142.13,515l-1.3,1.42L139.56,515h-.74l1.59,1.81-2,2.14h.72l1.62-1.75,1.55,1.75h.79l-1.92-2.14,1.64-1.81Z"/>
          <rect id="I" class="cls-10" x="135.12" y="514.97" width="0.56" height="3.94"/>
          <path id="N" class="cls-10" d="M131.13,515v3.09l-2.8-3.09h-.56v3.94h.57V515.8l2.8,3.11h.55V515Z"/>
          <rect id="I-2" class="cls-10" x="123.81" y="514.97" width="0.57" height="3.94"/>
          <path id="U" class="cls-10" d="M120.07,517.34a1.1,1.1,0,0,1-1,1.17h-.13a1.06,1.06,0,0,1-1.1-1,.76.76,0,0,1,0-.15V515h-.57v2.39a1.58,1.58,0,0,0,1.5,1.66h.15a1.59,1.59,0,0,0,1.73-1.42,1.92,1.92,0,0,0,0-.24V515h-.56Z"/>
          <path id="Q" class="cls-10" d="M112.28,514.81a2.06,2.06,0,0,0-2.08,2v.1h0a2,2,0,0,0,2,2.09h.12a2.1,2.1,0,0,0,.92-.21l.32.37h.66l-.56-.65a2,2,0,0,0,.74-1.64v0a2,2,0,0,0-2-2.09h-.11m1.52,2.13a1.57,1.57,0,0,1-.51,1.23l-.31-.36h-.65l.53.62a1.47,1.47,0,0,1-.55.12,1.53,1.53,0,0,1-1.51-1.54h0v-.07h0a1.49,1.49,0,0,1,1.38-1.61h.09a1.53,1.53,0,0,1,1.53,1.53v.08Z"/>
          <path id="E" class="cls-10" d="M104.46,515v3.94H108v-.51H105v-1.28h1.9v-.52H105v-1.12h2.84V515Z"/>
        </g>
        <g id="icon_group" data-name="icon group">
          <path id="icon" class="cls-11" d="M124.09,500.53l-1.61.56v8.42l-1.07-.37v-7.68l-3.21,1.13V508l-1.07-.37V503l-1.07.38v5.07l3.21,1.12v-6.18l1.07-.38v6.94l3.21,1.12v-9.18l.54-.19.53.19V511l3.22-1.12V503l1.06.38v6.18l3.22-1.12v-5.08l-1.07-.37v4.68L130,508v-5.44l-3.22-1.12v7.68l-1.07.37v-8.42Z"/>
          <path id="R" class="cls-11" d="M134.17,508.05a1,1,0,0,0,1-1h0a1,1,0,1,0-1.93,0h0a1,1,0,0,0,1,1h0m0-.1a.86.86,0,0,1-.86-.85h0A.86.86,0,0,1,135,507v.06h0a.86.86,0,0,1-.85.86h0m-.39-.38H134v-.31h.15l.22.31h.29l-.25-.36a.29.29,0,0,0,.22-.31c0-.22-.17-.33-.4-.33h-.47Zm.24-.51v-.28h.21c.11,0,.17.05.17.14s-.06.14-.17.14Z"/>
        </g>
      </g>
    </g>
    <g id="purestorage_logo" data-name="purestorage logo">
      <g id="Group-28">
        <g id="Group-3">
          <path id="Fill-1" class="cls-12" d="M18.86,515H16.07a1.63,1.63,0,0,1-1.41-.81l-2.34-4.1a1.64,1.64,0,0,1,0-1.63l2.34-4.09a1.63,1.63,0,0,1,1.41-.81h4.69a1.62,1.62,0,0,1,1.4.81l2.35,4.1a1.62,1.62,0,0,1,0,1.62l-.61,1a1.59,1.59,0,0,1-1.39.8h-2.8l1.53-2.59-1.41-2.46H17l-1.41,2.46Z"/>
        </g>
        <path id="Fill-4" class="cls-13" d="M29.28,509.28c.5,0,.82-.16.82-.68s-.27-.66-.75-.66H29v1.34ZM29,512H27.68v-5.07h1.85c1.19,0,1.91.55,1.91,1.6s-.86,1.78-2.07,1.78H29Z"/>
        <path id="Fill-6" class="cls-13" d="M33.48,506.91v3.25c0,.57.29.74.7.74a.63.63,0,0,0,.67-.58.49.49,0,0,0,0-.12v-3.29h1.29v3.44c0,1-.81,1.63-2,1.63s-2-.53-2-1.74v-3.33Z"/>
        <path id="Fill-8" class="cls-13" d="M41.76,506.91h3.33v1.14h-2v.77h1.73V510H43.08v.87h2.06V512H41.76Z"/>
        <path id="Fill-10" class="cls-13" d="M46.34,511a2.61,2.61,0,0,0,1.38.43c.52,0,1.07-.16,1.07-.94,0-.61-.53-.81-1.14-1s-1.46-.47-1.46-1.41a1.44,1.44,0,0,1,1.62-1.4,2.43,2.43,0,0,1,1.65.68l-.34.4a2,2,0,0,0-1.32-.56c-.43,0-1,.18-1,.82s.52.78,1.18,1,1.42.49,1.42,1.45S48.78,512,47.7,512a3,3,0,0,1-1.62-.47Z"/>
        <path id="Fill-12" class="cls-13" d="M53.59,506.91v.51h-1.5V512H51.5v-4.56H50v-.51Z"/>
        <path id="Fill-14" class="cls-13" d="M56.07,511.46c1.09,0,1.42-1,1.42-2.08s-.29-2.14-1.42-2.14-1.5,1.06-1.5,2.1.27,2.13,1.5,2.13m0,.51c-1.28,0-2.05-.88-2.05-2.62,0-2,1.1-2.64,2.12-2.64s2,.69,2,2.64c0,1.75-.81,2.62-2.09,2.62"/>
        <path id="Fill-16" class="cls-13" d="M64.45,509.92h1.7l-.86-2.47ZM63.17,512,65,506.91h.72L67.49,512h-.64l-.55-1.57h-2L63.76,512Z"/>
        <path id="Fill-18" class="cls-13" d="M71.41,511.51a3,3,0,0,1-1.64.47c-1.3,0-2.1-.85-2.1-2.62,0-2,1.12-2.64,2.1-2.64a2,2,0,0,1,1.66.82l-.43.35a1.51,1.51,0,0,0-1.23-.65c-.94,0-1.5.78-1.5,2.06s.48,2.18,1.55,2.18a2,2,0,0,0,1-.27V509.7H69.7v-.52h1.71Z"/>
        <path id="Fill-20" class="cls-13" d="M72.55,506.91h2.77v.51H73.14v1.71H75v.52H73.14v1.81h2.23V512H72.55Z"/>
        <path id="Fill-22" class="cls-13" d="M60.42,509.62h-.77V507.4h.67c.87,0,1.49.1,1.49,1.11C61.81,509.32,61.24,509.62,60.42,509.62Zm1.45.77c-.11-.26-.19-.39-.35-.47a1.52,1.52,0,0,0,.92-1.5c0-1-.65-1.51-1.73-1.51H59V512h.61v-1.87h1.06c.31,0,.46.2.59.47L62,512h.65Z"/>
        <path id="Fill-24" class="cls-13" d="M38.35,509.28v-1.34h.36c.47,0,.74.14.74.66s-.32.68-.81.68Zm2,1.09A.81.81,0,0,0,40,510a1.62,1.62,0,0,0,.76-1.46c0-1.05-.71-1.6-1.88-1.6H37.07V512h1.28v-1.69h.33a.41.41,0,0,1,.36.29l.6,1.39H41Z"/>
        <path id="Fill-26" class="cls-13" d="M76.41,507.34c.09,0,.17,0,.17-.12s-.09-.09-.16-.09h-.15v.21Zm-.14.41h-.12V507h.28c.19,0,.28.07.28.21a.19.19,0,0,1-.18.2h0l.21.32h-.14l-.19-.31h-.11Zm.14-.92a.55.55,0,0,0-.58.51.55.55,0,1,0,1.09.06v0a.52.52,0,0,0-.49-.55Zm0,1.2a.66.66,0,1,1,.65-.66h0a.64.64,0,0,1-.62.65Z"/>
      </g>
    </g>
  </g>
</svg>
