<svg id="_300x600" data-name="300x600" xmlns="http://www.w3.org/2000/svg" xmlns:xlink="http://www.w3.org/1999/xlink" viewBox="0 0 300 600">
  <defs>
    <style>
      .cls-1, .cls-10 {
        fill: none;
      }

      .cls-2 {
        clip-path: url(#clip-path);
      }

      .cls-3 {
        opacity: 0.95;
        fill: url(#Degradado_sin_nombre_4);
      }

      .cls-3, .cls-5 {
        isolation: isolate;
      }

      .cls-4 {
        fill: url(#Degradado_sin_nombre_2);
      }

      .cls-6 {
        fill: #fff;
      }

      .cls-7 {
        clip-path: url(#clip-path-2);
      }

      .cls-8 {
        clip-path: url(#clip-path-3);
      }

      .cls-9 {
        opacity: 0.29;
        fill: url(#linear-gradient);
      }

      .cls-10 {
        stroke: #fff;
        stroke-miterlimit: 10;
        stroke-width: 0.97px;
      }

      .cls-11 {
        fill: #030504;
      }

      .cls-12 {
        fill: #e4001b;
      }
    </style>
    <clipPath id="clip-path">
      <rect class="cls-1" width="300" height="600"/>
    </clipPath>
    <radialGradient id="Degradado_sin_nombre_4" data-name="Degradado sin nombre 4" cx="1.69" cy="-1071.6" r="0.41" gradientTransform="matrix(542.92, 0, 0, -563.83, -783.24, -603884.99)" gradientUnits="userSpaceOnUse">
      <stop offset="0" stop-color="#fff"/>
      <stop offset="0.26" stop-color="#fff" stop-opacity="0.68"/>
      <stop offset="0.53" stop-color="#fff" stop-opacity="0.39"/>
      <stop offset="0.75" stop-color="#fff" stop-opacity="0.18"/>
      <stop offset="0.91" stop-color="#fff" stop-opacity="0.05"/>
      <stop offset="1" stop-color="#fff" stop-opacity="0"/>
    </radialGradient>
    <radialGradient id="Degradado_sin_nombre_2" data-name="Degradado sin nombre 2" cx="-74.1" cy="-1157.46" r="0.38" gradientTransform="matrix(14.65, 129.43, 9.75, -113.47, 12523.17, -121306.89)" gradientUnits="userSpaceOnUse">
      <stop offset="0"/>
      <stop offset="0.63" stop-color="#040404" stop-opacity="0.97"/>
      <stop offset="1" stop-color="gray" stop-opacity="0"/>
    </radialGradient>
    <clipPath id="clip-path-2">
      <rect id="cta-mask" class="cls-1" x="27.22" y="174.37" width="144.09" height="44.97"/>
    </clipPath>
    <clipPath id="clip-path-3">
      <rect id="Rectangle_5685" data-name="Rectangle 5685" class="cls-1" x="31.75" y="180.65" width="135.02" height="32.42"/>
    </clipPath>
    <linearGradient id="linear-gradient" x1="17.45" y1="184.65" x2="-122.53" y2="216.08" gradientUnits="userSpaceOnUse">
      <stop offset="0"/>
      <stop offset="0.24" stop-color="#fff"/>
      <stop offset="0.46"/>
      <stop offset="0.71" stop-color="#fff"/>
      <stop offset="1"/>
    </linearGradient>
  </defs>
  <g class="cls-2">
    <g id="BG">
      <image id="GettyImages-561860327" width="1736" height="1547" transform="translate(-228.45 -37.25) scale(0.44)" xlink:href="awareness1-300x2501.jpg"/>
      <ellipse id="bg-light" class="cls-3" cx="156.64" cy="326.17" rx="246.33" ry="255.82"/>
      <image id="keyshadow" width="1034" height="846" transform="translate(19.61 359.74) scale(0.26)" xlink:href="awareness11.png"/>
      <ellipse id="Elipse_70" data-name="Elipse 70" class="cls-4" cx="150" cy="443.83" rx="7.56" ry="76.7" transform="translate(-296.32 586.27) rotate(-89.03)"/>
      <image id="PT200827_004C1-removebg" width="600" height="414" transform="translate(79.12 453.66) rotate(-90) scale(0.34)" xlink:href="awareness1-300x2503.png"/>
      <image id="shine1" width="1721" height="1721" transform="translate(61.46 231.87) scale(0.04)" xlink:href="awareness12.png"/>
    </g>
    <g id="f2">
      <g class="cls-5">
        <path class="cls-6" d="M41.71,59h3.51l7.43,17.46h-4l-1.59-3.89H39.75l-1.58,3.89H34.28Zm4,10.2-2.3-5.62-2.31,5.62Z"/>
        <path class="cls-6" d="M54.93,63.16h3.76v1.89a4.69,4.69,0,0,1,3.89-2.13c2.85,0,4.51,1.88,4.51,4.93v8.59H63.32V69c0-1.78-.84-2.7-2.27-2.7s-2.36.92-2.36,2.7v7.41H54.93Z"/>
        <path class="cls-6" d="M69.76,69.83v0c0-4.44,2.9-6.86,6-6.86a5.08,5.08,0,0,1,4.14,2V58.36H83.7V76.44H79.94V74.53a4.88,4.88,0,0,1-4.14,2.16C72.71,76.69,69.76,74.26,69.76,69.83Zm10.23,0v0a3.26,3.26,0,1,0-6.47,0v0a3.26,3.26,0,1,0,6.47,0Z"/>
        <path class="cls-6" d="M94.89,59.1h3.82v7.58l7-7.58h4.61l-7.06,7.36,7.38,10h-4.58l-5.38-7.38-2,2.08v5.3H94.89Z"/>
        <path class="cls-6" d="M111.18,69.88v0a6.61,6.61,0,0,1,6.57-6.91c4.43,0,6.46,3.44,6.46,7.2,0,.3,0,.65,0,1h-9.24a3.08,3.08,0,0,0,3.25,2.6,4.34,4.34,0,0,0,3.22-1.36l2.15,1.91a7,7,0,0,1-12.36-4.38Zm9.37-1.12c-.23-1.68-1.22-2.82-2.8-2.82s-2.58,1.11-2.88,2.82Z"/>
        <path class="cls-6" d="M126.36,69.88v0a6.61,6.61,0,0,1,6.57-6.91c4.43,0,6.46,3.44,6.46,7.2,0,.3,0,.65,0,1H130.1a3.08,3.08,0,0,0,3.25,2.6,4.34,4.34,0,0,0,3.22-1.36l2.15,1.91a7,7,0,0,1-12.36-4.38Zm9.36-1.12c-.22-1.68-1.21-2.82-2.79-2.82s-2.58,1.11-2.88,2.82Z"/>
        <path class="cls-6" d="M142.19,63.16H146v1.91a4.88,4.88,0,0,1,4.14-2.15c3.09,0,6,2.42,6,6.86v0c0,4.43-2.9,6.86-6,6.86a5.11,5.11,0,0,1-4.14-2V80.4h-3.76Zm10.17,6.67v0a3.26,3.26,0,1,0-6.46,0v0a3.26,3.26,0,1,0,6.46,0Z"/>
      </g>
      <g class="cls-5">
        <path class="cls-6" d="M35,97.82v0a8.8,8.8,0,0,1,9-9,9,9,0,0,1,6.83,2.67l-2.43,2.8a6.4,6.4,0,0,0-4.43-2,5.14,5.14,0,0,0-5,5.4v0a5.15,5.15,0,0,0,5,5.45,6.26,6.26,0,0,0,4.56-2L51,103.64a8.84,8.84,0,0,1-7.1,3.1A8.75,8.75,0,0,1,35,97.82Z"/>
        <path class="cls-6" d="M52.75,99.88v0A7,7,0,0,1,60,92.92a6.89,6.89,0,0,1,7.15,6.86v0a7.19,7.19,0,0,1-14.36,0Zm10.65,0v0a3.53,3.53,0,0,0-3.49-3.67,3.41,3.41,0,0,0-3.45,3.62v0a3.53,3.53,0,0,0,3.5,3.66A3.4,3.4,0,0,0,63.4,99.88Z"/>
        <path class="cls-6" d="M69.83,93.16H73.6v1.89a4.69,4.69,0,0,1,3.89-2.13c2.84,0,4.5,1.88,4.5,4.93v8.59H78.23V99c0-1.78-.84-2.7-2.28-2.7s-2.35.92-2.35,2.7v7.41H69.83Z"/>
        <path class="cls-6" d="M85.88,102.67V96.38H84.29V93.16h1.59V89.77h3.76v3.39h3.12v3.22H89.64v5.68c0,.86.38,1.28,1.22,1.28a3.76,3.76,0,0,0,1.85-.47v3a5.52,5.52,0,0,1-3,.77C87.44,106.66,85.88,105.75,85.88,102.67Z"/>
        <path class="cls-6" d="M95.54,93.16H99.3v2.68c.77-1.83,2-3,4.24-2.92v3.93h-.2c-2.5,0-4,1.52-4,4.69v4.9H95.54Z"/>
        <path class="cls-6" d="M104.87,99.88v0a7,7,0,0,1,7.21-6.91,6.89,6.89,0,0,1,7.15,6.86v0a7.19,7.19,0,0,1-14.36,0Zm10.65,0v0A3.53,3.53,0,0,0,112,96.16a3.4,3.4,0,0,0-3.44,3.62v0a3.52,3.52,0,0,0,3.49,3.66A3.4,3.4,0,0,0,115.52,99.88Z"/>
        <path class="cls-6" d="M122.13,88.36h3.76v18.08h-3.76Z"/>
        <path class="cls-6" d="M136.49,97.82v0a9.22,9.22,0,0,1,18.43,0v0a9.22,9.22,0,0,1-18.43,0Zm14.44,0v0a5.27,5.27,0,0,0-5.25-5.45,5.19,5.19,0,0,0-5.2,5.4v0a5.27,5.27,0,0,0,5.25,5.45A5.19,5.19,0,0,0,150.93,97.82Z"/>
        <path class="cls-6" d="M158.55,96.38H157V93.29h1.56v-.84a4.35,4.35,0,0,1,1.07-3.22,4.09,4.09,0,0,1,3-1,8.48,8.48,0,0,1,2.68.37v3.12a4.77,4.77,0,0,0-1.71-.32c-.87,0-1.36.44-1.36,1.43v.52h3v3.07h-3v10.06h-3.77Z"/>
      </g>
      <g class="cls-5">
        <path class="cls-6" d="M40.64,129.6,34,119.1h4.46l4.13,7,4.21-7h4.34l-6.66,10.43v6.91H40.64Z"/>
        <path class="cls-6" d="M49.73,129.88v0a7,7,0,0,1,7.21-6.91,6.89,6.89,0,0,1,7.15,6.86v.05a7.19,7.19,0,0,1-14.36,0Zm10.65,0v0a3.53,3.53,0,0,0-3.49-3.67,3.41,3.41,0,0,0-3.45,3.62v.05a3.53,3.53,0,0,0,3.5,3.66A3.4,3.4,0,0,0,60.38,129.88Z"/>
        <path class="cls-6" d="M66.71,131.76v-8.6h3.77v7.41c0,1.78.84,2.7,2.28,2.7s2.35-.92,2.35-2.7v-7.41h3.76v13.28H75.11v-1.88a4.71,4.71,0,0,1-3.89,2.13C68.37,136.69,66.71,134.8,66.71,131.76Z"/>
        <path class="cls-6" d="M82.24,123.16H86v2.68c.77-1.83,2-3,4.24-2.92v3.93H90c-2.5,0-4,1.52-4,4.69v4.9H82.24Z"/>
        <path class="cls-6" d="M100.41,119.1h7.09c4.13,0,6.63,2.46,6.63,6v.05c0,4-3.12,6.09-7,6.09h-2.9v5.2h-3.82Zm6.84,8.75c1.91,0,3-1.14,3-2.63v0c0-1.71-1.19-2.62-3.09-2.62h-3v5.3Z"/>
        <path class="cls-6" d="M116.56,118.36h3.76v6.69a4.69,4.69,0,0,1,3.89-2.13c2.85,0,4.51,1.88,4.51,4.93v8.59H125V129c0-1.78-.84-2.7-2.28-2.7s-2.35.92-2.35,2.7v7.41h-3.76Z"/>
        <path class="cls-6" d="M131.44,139.56l1.26-2.72a3.52,3.52,0,0,0,1.61.51,1.24,1.24,0,0,0,1.31-.86l-5.2-13.33h4l3,9,2.9-9h3.91l-5.1,13.6c-1,2.7-2.1,3.72-4.36,3.72A6.23,6.23,0,0,1,131.44,139.56Z"/>
        <path class="cls-6" d="M144.93,134.68l1.61-2.48a7.53,7.53,0,0,0,4.19,1.59c1.09,0,1.58-.4,1.58-1v-.05c0-.82-1.28-1.09-2.75-1.54-1.85-.54-4-1.41-4-4v0c0-2.7,2.18-4.21,4.86-4.21a9.24,9.24,0,0,1,4.95,1.53L154,127.1a7.81,7.81,0,0,0-3.59-1.24c-.91,0-1.38.4-1.38.92v0c0,.74,1.26,1.09,2.69,1.59,1.86.61,4,1.51,4,3.93v.05c0,2.95-2.21,4.29-5.08,4.29A9.29,9.29,0,0,1,144.93,134.68Z"/>
        <path class="cls-6" d="M158.48,118.36h4v3.34h-4Zm.1,4.8h3.76v13.28h-3.76Z"/>
        <path class="cls-6" d="M165.24,129.88v0a6.82,6.82,0,0,1,7-6.91,6.52,6.52,0,0,1,5.3,2.23l-2.31,2.47a3.87,3.87,0,0,0-3-1.46,3.4,3.4,0,0,0-3.22,3.62v.05a3.4,3.4,0,0,0,3.37,3.66,4.21,4.21,0,0,0,3.05-1.41l2.2,2.23a6.69,6.69,0,0,1-5.42,2.43A6.78,6.78,0,0,1,165.24,129.88Z"/>
        <path class="cls-6" d="M179.23,132.63v0c0-2.9,2.2-4.24,5.35-4.24a9.24,9.24,0,0,1,3.24.55v-.23c0-1.56-1-2.42-2.85-2.42a9.86,9.86,0,0,0-3.66.71l-.94-2.87a11.74,11.74,0,0,1,5.15-1.06A6.13,6.13,0,0,1,190,124.5a5.79,5.79,0,0,1,1.44,4.24v7.7H187.8V135a5.1,5.1,0,0,1-4,1.69C181.28,136.69,179.23,135.25,179.23,132.63Zm8.64-.87v-.67a5.75,5.75,0,0,0-2.4-.5c-1.61,0-2.6.65-2.6,1.84v0c0,1,.84,1.61,2,1.61C186.68,134.09,187.87,133.12,187.87,131.76Z"/>
        <path class="cls-6" d="M194.85,118.36h3.77v18.08h-3.77Z"/>
      </g>
      <g class="cls-5">
        <path class="cls-6" d="M35.94,149.1h3.81v17.34H35.94Z"/>
        <path class="cls-6" d="M43.69,153.16h3.76v1.89a4.69,4.69,0,0,1,3.89-2.13c2.85,0,4.51,1.88,4.51,4.93v8.59H52.08V159c0-1.78-.84-2.7-2.28-2.7s-2.35.92-2.35,2.7v7.41H43.69Z"/>
        <path class="cls-6" d="M59.76,156.38H58.2v-3.09h1.56v-.84a4.39,4.39,0,0,1,1.06-3.22,4.12,4.12,0,0,1,3-1,8.37,8.37,0,0,1,2.67.37v3.12a4.69,4.69,0,0,0-1.71-.32c-.86,0-1.36.44-1.36,1.43v.52h3v3.07h-3v10.06H59.76Z"/>
        <path class="cls-6" d="M68.57,153.16h3.77v2.68c.76-1.83,2-3,4.23-2.92v3.93h-.2c-2.5,0-4,1.52-4,4.69v4.9H68.57Z"/>
        <path class="cls-6" d="M77.51,162.63v0c0-2.9,2.2-4.24,5.35-4.24a9.2,9.2,0,0,1,3.24.55v-.23c0-1.56-1-2.42-2.84-2.42a9.87,9.87,0,0,0-3.67.71l-.94-2.87A11.77,11.77,0,0,1,83.8,153a6.12,6.12,0,0,1,4.48,1.48,5.79,5.79,0,0,1,1.44,4.24v7.7H86.08V165a5.1,5.1,0,0,1-4,1.69C79.57,166.69,77.51,165.25,77.51,162.63Zm8.64-.87v-.67a5.75,5.75,0,0,0-2.4-.5c-1.61,0-2.6.65-2.6,1.84v0c0,1,.84,1.61,2.06,1.61C85,164.09,86.15,163.12,86.15,161.76Z"/>
        <path class="cls-6" d="M91.92,164.68l1.61-2.48a7.53,7.53,0,0,0,4.19,1.59c1.09,0,1.58-.4,1.58-1v-.05c0-.82-1.29-1.09-2.75-1.54-1.86-.54-4-1.41-4-4v0c0-2.7,2.18-4.21,4.85-4.21a9.25,9.25,0,0,1,5,1.53L101,157.1a7.81,7.81,0,0,0-3.59-1.24c-.92,0-1.39.4-1.39.92v.05c0,.74,1.27,1.09,2.7,1.59,1.86.61,4,1.51,4,3.93v.05c0,2.95-2.2,4.29-5.07,4.29A9.29,9.29,0,0,1,91.92,164.68Z"/>
        <path class="cls-6" d="M105.76,162.67v-6.29h-1.58v-3.22h1.58v-3.39h3.77v3.39h3.12v3.22h-3.12v5.68c0,.86.37,1.28,1.21,1.28a3.83,3.83,0,0,0,1.86-.47v3a5.55,5.55,0,0,1-3,.77C107.32,166.66,105.76,165.75,105.76,162.67Z"/>
        <path class="cls-6" d="M115.42,153.16h3.76v2.68c.77-1.83,2-3,4.24-2.92v3.93h-.2c-2.5,0-4,1.52-4,4.69v4.9h-3.76Z"/>
        <path class="cls-6" d="M125.67,161.76v-8.6h3.76v7.41c0,1.78.85,2.7,2.28,2.7s2.36-.92,2.36-2.7v-7.41h3.76v13.28h-3.76v-1.88a4.73,4.73,0,0,1-3.89,2.13C127.33,166.69,125.67,164.8,125.67,161.76Z"/>
        <path class="cls-6" d="M140.55,159.88v0a6.82,6.82,0,0,1,7-6.91,6.52,6.52,0,0,1,5.3,2.23l-2.3,2.47a3.89,3.89,0,0,0-3-1.46,3.39,3.39,0,0,0-3.22,3.62v.05a3.39,3.39,0,0,0,3.36,3.66,4.19,4.19,0,0,0,3.05-1.41l2.2,2.23a6.67,6.67,0,0,1-5.42,2.43A6.78,6.78,0,0,1,140.55,159.88Z"/>
        <path class="cls-6" d="M156,162.67v-6.29h-1.58v-3.22H156v-3.39h3.77v3.39h3.12v3.22h-3.12v5.68c0,.86.37,1.28,1.21,1.28a3.83,3.83,0,0,0,1.86-.47v3a5.55,5.55,0,0,1-3,.77C157.51,166.66,156,165.75,156,162.67Z"/>
        <path class="cls-6" d="M165.51,161.76v-8.6h3.76v7.41c0,1.78.85,2.7,2.28,2.7s2.36-.92,2.36-2.7v-7.41h3.76v13.28h-3.76v-1.88a4.73,4.73,0,0,1-3.89,2.13C167.17,166.69,165.51,164.8,165.51,161.76Z"/>
        <path class="cls-6" d="M181,153.16h3.76v2.68c.77-1.83,2-3,4.23-2.92v3.93h-.19c-2.5,0-4,1.52-4,4.69v4.9H181Z"/>
        <path class="cls-6" d="M190.37,159.88v0a6.61,6.61,0,0,1,6.56-6.91c4.44,0,6.47,3.44,6.47,7.2,0,.3,0,.65-.05,1h-9.24a3.07,3.07,0,0,0,3.24,2.6,4.32,4.32,0,0,0,3.22-1.36l2.16,1.91a7,7,0,0,1-12.36-4.38Zm9.36-1.12c-.22-1.68-1.21-2.82-2.8-2.82s-2.57,1.11-2.87,2.82Z"/>
        <path class="cls-6" d="M207.83,156.53l.12-.12c3.12-.12,4.34-.94,4.34-2.25v0c0-1.12-.85-1.76-2.28-1.76a5.1,5.1,0,0,0-3.72,1.71l-2.28-2.5a7.82,7.82,0,0,1,6.07-2.68c3.57,0,6,1.83,6,5.13v.05c0,3.14-2.18,4.43-4.87,5l-.28,1.51H208.4Zm-.25,5.95h4v4h-4Z"/>
      </g>
    </g>
    <g id="f3">
      <g id="c3">
        <g id="Just_add_metal" data-name="Just add metal" class="cls-5">
          <g class="cls-5">
            <path class="cls-6" d="M32.2,83.13l5.18-4.89c1.41,1.7,2.73,2.69,4.51,2.69,2,0,3.32-1.36,3.32-4.06V58.52h8v18.4c0,3.64-.91,6.21-2.85,8.16a11,11,0,0,1-8,2.94C37.34,88,34.23,85.91,32.2,83.13Z"/>
            <path class="cls-6" d="M58.18,74.8V58.52h8.16V74.64c0,4.18,2.11,6.17,5.34,6.17S77,78.9,77,74.85V58.52h8.16V74.6c0,9.36-5.35,13.46-13.59,13.46S58.18,83.88,58.18,74.8Z"/>
            <path class="cls-6" d="M87.83,83.21l4.48-5.34a14.91,14.91,0,0,0,9.4,3.48c2.15,0,3.31-.75,3.31-2v-.08c0-1.2-1-1.87-4.88-2.78C94,75.09,89.2,73.35,89.2,67.39V67.3c0-5.38,4.27-9.28,11.23-9.28a18.24,18.24,0,0,1,11.93,3.86l-4,5.67a14.57,14.57,0,0,0-8.12-2.86c-2,0-2.9.83-2.9,1.87v.08c0,1.33,1,1.91,5,2.82,6.67,1.45,10.81,3.6,10.81,9v.08c0,5.93-4.68,9.45-11.72,9.45A20.27,20.27,0,0,1,87.83,83.21Z"/>
            <path class="cls-6" d="M123.81,65.56h-8.7v-7h25.44v7h-8.7v22h-8Z"/>
          </g>
          <g class="cls-5">
            <path class="cls-6" d="M44.63,97h7.75L64.72,126.2H56.1L54,121H42.81l-2.08,5.18H32.28Zm7,17.78-3.23-8.25-3.27,8.25Z"/>
            <path class="cls-6" d="M67.38,97.2H78.57c10.35,0,16.36,6,16.36,14.34v.08c0,8.37-6.09,14.58-16.53,14.58h-11Zm11.31,21.88c4.81,0,8-2.66,8-7.34v-.08c0-4.64-3.19-7.33-8-7.33H75.42v14.75Z"/>
            <path class="cls-6" d="M99.09,97.2h11.19c10.35,0,16.36,6,16.36,14.34v.08c0,8.37-6.09,14.58-16.53,14.58h-11Zm11.31,21.88c4.81,0,8-2.66,8-7.34v-.08c0-4.64-3.19-7.33-8-7.33h-3.27v14.75Z"/>
          </g>
          <g class="cls-5">
            <path class="cls-6" d="M34.6,135.88h8.5L50,147.11l6.92-11.23h8.49v29h-8V148.23L50,159.58h-.16l-7.38-11.27v16.57H34.6Z"/>
            <path class="cls-6" d="M71,135.88H94.34v6.84H79v4.39H92.89v6.34H79V158H94.55v6.84H71Z"/>
            <path class="cls-6" d="M105.61,142.92h-8.7v-7h25.44v7h-8.7v22h-8Z"/>
            <path class="cls-6" d="M132,135.67h7.74l12.35,29.21h-8.62l-2.11-5.18H130.15l-2.07,5.18h-8.45Zm7,17.78-3.23-8.25-3.27,8.25Z"/>
            <path class="cls-6" d="M154.73,135.88h8v22h14v7H154.73Z"/>
          </g>
        </g>
      </g>
      <g id="cta">
        <g class="cls-7">
          <g class="cls-8">
            <rect id="cta-glow" class="cls-9" x="-338.74" y="129.62" width="550.45" height="146.41"/>
          </g>
          <g id="Learn_more" data-name="Learn more" class="cls-5">
            <g class="cls-5">
              <path class="cls-6" d="M60.85,191.78h2.73v7.45h4.76v2.39H60.85Z"/>
              <path class="cls-6" d="M69.09,197.85v0a3.82,3.82,0,0,1,3.84-4c2.63,0,3.84,1.93,3.84,4.16a5.15,5.15,0,0,1,0,.55H71.67a1.56,1.56,0,0,0,1.64,1.25A2.32,2.32,0,0,0,75,199l1.47,1.22a4,4,0,0,1-3.3,1.55A3.83,3.83,0,0,1,69.09,197.85Zm5.17-.66a1.36,1.36,0,0,0-1.32-1.38c-.7,0-1.18.55-1.32,1.38Z"/>
              <path class="cls-6" d="M77.51,199.44v0c0-1.57,1.2-2.39,3-2.39a5.72,5.72,0,0,1,1.83.3v-.13c0-.79-.49-1.24-1.52-1.24a5.45,5.45,0,0,0-2.09.42l-.55-1.88a7.67,7.67,0,0,1,3.08-.59,3.87,3.87,0,0,1,2.89.93,3.16,3.16,0,0,1,.82,2.42v4.37H82.3v-.79a2.87,2.87,0,0,1-2.23.95A2.31,2.31,0,0,1,77.51,199.44Zm4.84-.58v-.35a2.87,2.87,0,0,0-1-.2c-.78,0-1.23.38-1.23.95v0a.84.84,0,0,0,.94.83A1.22,1.22,0,0,0,82.35,198.86Z"/>
              <path class="cls-6" d="M86.48,194h2.67v1.53a2.33,2.33,0,0,1,2.4-1.65v2.81h-.22c-1.39,0-2.18.8-2.18,2.56v2.36H86.48Z"/>
              <path class="cls-6" d="M92.54,194h2.67v1.07a2.85,2.85,0,0,1,2.28-1.24,2.49,2.49,0,0,1,2.59,2.8v5H97.41V197.5c0-.83-.44-1.28-1.07-1.28a1.13,1.13,0,0,0-1.13,1.28v4.12H92.54Z"/>
              <path class="cls-6" d="M105.5,191.78h2.89l2.34,3.81,2.35-3.81H116v9.84h-2.71V196l-2.52,3.85h0L108.17,196v5.63H105.5Z"/>
              <path class="cls-6" d="M117.38,197.85v0a4.21,4.21,0,0,1,8.4,0v0a4,4,0,0,1-4.22,4A4,4,0,0,1,117.38,197.85Zm5.8,0v0a1.64,1.64,0,0,0-1.62-1.71,1.59,1.59,0,0,0-1.58,1.68v0a1.65,1.65,0,0,0,1.61,1.72A1.6,1.6,0,0,0,123.18,197.85Z"/>
              <path class="cls-6" d="M127,194h2.67v1.53a2.33,2.33,0,0,1,2.4-1.65v2.81h-.22c-1.39,0-2.18.8-2.18,2.56v2.36H127Z"/>
              <path class="cls-6" d="M132.72,197.85v0a3.82,3.82,0,0,1,3.84-4c2.62,0,3.83,1.93,3.83,4.16,0,.17,0,.37,0,.55h-5.09a1.57,1.57,0,0,0,1.64,1.25,2.3,2.3,0,0,0,1.69-.77l1.48,1.22a4,4,0,0,1-3.31,1.55A3.82,3.82,0,0,1,132.72,197.85Zm5.17-.66c-.1-.84-.59-1.38-1.32-1.38s-1.18.55-1.32,1.38Z"/>
            </g>
          </g>
          <rect id="Rectangle_5685-2" data-name="Rectangle 5685" class="cls-10" x="31.75" y="180.65" width="135.02" height="32.42"/>
        </g>
      </g>
    </g>
    <g id="Logo">
      <path id="chevon_shape" data-name="chevon shape" class="cls-6" d="M300,504.94l-75.84,0L202,539.93h98Z"/>
      <g id="Grupo_12756" data-name="Grupo 12756">
        <g id="Group_2" data-name="Group 2">
          <path id="X" class="cls-11" d="M279.15,528.33,277.58,530l-1.53-1.71h-.89l1.91,2.19-2.39,2.57h.87l2-2.11,1.87,2.11h.95L278,530.51l2-2.18Z"/>
          <rect id="I" class="cls-11" x="270.69" y="528.34" width="0.68" height="4.75"/>
          <path id="N" class="cls-11" d="M265.87,528.34v3.73l-3.37-3.73h-.67v4.75h.68v-3.75l3.38,3.75h.67v-4.75Z"/>
          <rect id="I-2" class="cls-11" x="257.05" y="528.34" width="0.68" height="4.75"/>
          <path id="U" class="cls-11" d="M252.54,531.2a1.33,1.33,0,0,1-1.24,1.41h-.16a1.27,1.27,0,0,1-1.32-1.23,1.08,1.08,0,0,1,0-.18v-2.85h-.69v2.88a1.91,1.91,0,0,0,1.82,2h.18a1.89,1.89,0,0,0,2.08-1.7c0-.1,0-.2,0-.3v-2.88h-.69Z"/>
          <path id="Q" class="cls-11" d="M243.14,528.15a2.49,2.49,0,0,0-2.51,2.46v.13a2.46,2.46,0,0,0,2.39,2.53h.14a2.71,2.71,0,0,0,1.11-.27l.38.45h.8l-.68-.78a2.4,2.4,0,0,0,.9-2v0a2.46,2.46,0,0,0-2.4-2.52h-.13m1.82,2.57a1.89,1.89,0,0,1-.61,1.48l-.37-.43h-.79l.65.75a1.9,1.9,0,0,1-.67.13,1.84,1.84,0,0,1-1.83-1.85h0v-.1a1.82,1.82,0,0,1,1.67-1.94h.11a1.84,1.84,0,0,1,1.84,1.85v.11Z"/>
          <path id="E" class="cls-11" d="M233.71,528.34v4.75H238v-.61h-3.54v-1.55h2.3v-.62h-2.3V529h3.42v-.62Z"/>
        </g>
        <g id="icon_group" data-name="icon group">
          <path id="icon" class="cls-12" d="M257.39,510.92l-1.94.68v10.16l-1.29-.45v-9.26l-3.87,1.35V520l-1.29-.45v-5.65l-1.3.45v6.12l3.88,1.35v-7.46l1.29-.45v8.36l3.87,1.35V512.52l.65-.23.64.23v11.06l3.88-1.35v-8.36l1.28.45v7.46l3.88-1.36v-6.11l-1.29-.46v5.66l-1.29.45V513.4l-3.88-1.35v9.26l-1.29.45V511.6Z"/>
          <path id="R" class="cls-12" d="M269.54,520a1.15,1.15,0,0,0,1.16-1.17h0a1.16,1.16,0,0,0-2.32,0h0a1.15,1.15,0,0,0,1.15,1.16h0m0-.12a1,1,0,0,1-1-1v0h0a1,1,0,1,1,2.06-.07v.06h0a1,1,0,0,1-1,1h0m-.48-.46h.29V519h.19l.26.38h.36l-.31-.44a.39.39,0,0,0,.27-.37c0-.28-.21-.4-.49-.4h-.57Zm.29-.62v-.34h.26c.12,0,.21.06.21.17s-.08.17-.21.17Z"/>
        </g>
      </g>
    </g>
  </g>
</svg>
