<?xml version="1.0" encoding="utf-8"?>
<!-- Generator: Adobe Illustrator 25.1.0, SVG Export Plug-In . SVG Version: 6.00 Build 0)  -->
<svg version="1.1" xmlns="http://www.w3.org/2000/svg" xmlns:xlink="http://www.w3.org/1999/xlink" x="0px" y="0px"
	 viewBox="0 0 970 250" style="enable-background:new 0 0 970 250;" xml:space="preserve">
<style type="text/css">
	.st0{enable-background:new    ;}
	.st1{fill:url(#SVGID_1_);}
	.st2{fill:#FFFFFF;}
	.st3{clip-path:url(#cta-mask_1_);fill:#FFC100;}
	.st4{clip-path:url(#cta-mask_1_);}
	.st5{fill:#181A19;}
</style>
<g id="B1-970x250-F3_1_" class="st0">
	<g id="bgsil">
		
			<radialGradient id="SVGID_1_" cx="493.7344" cy="133.4961" r="488.2792" fx="314.9425" fy="141.3105" gradientTransform="matrix(-1 0 0 -0.4296 987.4688 190.842)" gradientUnits="userSpaceOnUse">
			<stop  offset="0.1836" style="stop-color:#FFFFFF;stop-opacity:0"/>
			<stop  offset="0.2334" style="stop-color:#E4E4E4;stop-opacity:6.102586e-02"/>
			<stop  offset="0.3539" style="stop-color:#A8A8A8;stop-opacity:0.2087"/>
			<stop  offset="0.4741" style="stop-color:#757575;stop-opacity:0.3559"/>
			<stop  offset="0.5911" style="stop-color:#4B4B4B;stop-opacity:0.4991"/>
			<stop  offset="0.7041" style="stop-color:#2A2A2A;stop-opacity:0.6375"/>
			<stop  offset="0.8121" style="stop-color:#131313;stop-opacity:0.7699"/>
			<stop  offset="0.9131" style="stop-color:#050505;stop-opacity:0.8936"/>
			<stop  offset="1" style="stop-color:#000000"/>
		</radialGradient>
		<rect class="st1" width="970" height="250"/>
	</g>
	<g id="logo_1_">
		<g id="Sisense_x5F_logo_xA0_Image_1_">
			
				<image style="overflow:visible;" width="133" height="34" id="Sisense_x5F_logo_xA0_Image" xlink:href="5ABC01559EC8D1EB.png"  transform="matrix(1 0 0 1 67 46)">
			</image>
		</g>
	</g>
	<g id="headline_and_cta_1_">
		<g id="c3">
			<g id="Infuse_analytics_everywhere">
				<g>
					<path class="st2" d="M69.6,130.2v-21.4h2.5v21.4H69.6z"/>
					<path class="st2" d="M88.6,130.2v-10.4c0-1.3-0.3-2.3-0.9-2.9s-1.5-1-2.8-1c-1.7,0-2.9,0.5-3.7,1.4s-1.2,2.4-1.2,4.5v8.4h-2.4
						v-16.1h2l0.4,2.2h0.1c0.5-0.8,1.2-1.4,2.1-1.8s1.9-0.7,3-0.7c1.9,0,3.4,0.5,4.4,1.4s1.5,2.4,1.5,4.5v10.5H88.6z"/>
					<path class="st2" d="M103.2,116h-4.1v14.2h-2.4V116h-2.9v-1.1l2.9-0.9v-0.9c0-3.9,1.7-5.9,5.2-5.9c0.8,0,1.8,0.2,3,0.5
						l-0.6,1.9c-0.9-0.3-1.7-0.5-2.4-0.5c-0.9,0-1.6,0.3-2,0.9s-0.7,1.6-0.7,2.9v1h4.1V116z"/>
					<path class="st2" d="M108.5,114.1v10.4c0,1.3,0.3,2.3,0.9,2.9s1.5,1,2.8,1c1.7,0,2.9-0.5,3.7-1.4s1.2-2.4,1.2-4.5v-8.4h2.4
						v16.1h-2l-0.4-2.2h-0.1c-0.5,0.8-1.2,1.4-2.1,1.8s-1.9,0.6-3,0.6c-2,0-3.4-0.5-4.4-1.4s-1.5-2.4-1.5-4.5v-10.5H108.5z"/>
					<path class="st2" d="M134.9,125.8c0,1.5-0.6,2.6-1.7,3.5s-2.7,1.2-4.7,1.2c-2.1,0-3.8-0.3-5-1v-2.3c0.8,0.4,1.6,0.7,2.5,0.9
						s1.7,0.3,2.6,0.3c1.3,0,2.2-0.2,2.9-0.6c0.7-0.4,1-1,1-1.9c0-0.6-0.3-1.2-0.8-1.6s-1.6-1-3.2-1.6c-1.5-0.6-2.6-1-3.2-1.5
						s-1.1-0.9-1.4-1.4s-0.5-1.2-0.5-1.9c0-1.3,0.5-2.3,1.6-3.1s2.5-1.1,4.4-1.1c1.7,0,3.4,0.4,5.1,1.1l-0.9,2c-1.6-0.7-3.1-1-4.4-1
						c-1.2,0-2,0.2-2.6,0.5s-0.9,0.9-0.9,1.5c0,0.4,0.1,0.8,0.3,1.1s0.6,0.6,1.1,0.9s1.4,0.7,2.8,1.2c1.9,0.7,3.2,1.4,3.9,2.1
						S134.9,124.7,134.9,125.8z"/>
					<path class="st2" d="M145.7,130.5c-2.4,0-4.2-0.7-5.6-2.2s-2.1-3.5-2.1-6c0-2.6,0.6-4.6,1.9-6.2s3-2.3,5.1-2.3
						c2,0,3.6,0.7,4.8,2s1.8,3.1,1.8,5.2v1.5h-11.1c0,1.9,0.5,3.3,1.4,4.3s2.2,1.5,3.8,1.5c1.7,0,3.4-0.4,5.1-1.1v2.2
						c-0.9,0.4-1.7,0.6-2.4,0.8C147.7,130.4,146.8,130.5,145.7,130.5z M145,115.9c-1.3,0-2.3,0.4-3.1,1.3s-1.2,2-1.4,3.5h8.4
						c0-1.5-0.3-2.7-1-3.5S146.3,115.9,145,115.9z"/>
					<path class="st2" d="M173.4,130.2l-0.5-2.3h-0.1c-0.8,1-1.6,1.7-2.4,2c-0.8,0.4-1.8,0.5-3,0.5c-1.6,0-2.8-0.4-3.7-1.2
						s-1.4-2-1.4-3.5c0-3.2,2.6-4.9,7.8-5.1l2.7-0.1v-1c0-1.3-0.3-2.2-0.8-2.8s-1.4-0.9-2.6-0.9c-1.3,0-2.9,0.4-4.5,1.2l-0.7-1.9
						c0.8-0.4,1.7-0.8,2.6-1s1.9-0.4,2.8-0.4c1.9,0,3.3,0.4,4.3,1.3s1.4,2.2,1.4,4.1v11H173.4z M167.9,128.5c1.5,0,2.7-0.4,3.6-1.2
						s1.3-2,1.3-3.5v-1.5l-2.4,0.1c-1.9,0.1-3.3,0.4-4.2,0.9s-1.3,1.4-1.3,2.5c0,0.9,0.3,1.5,0.8,2S166.9,128.5,167.9,128.5z"/>
					<path class="st2" d="M191.2,130.2v-10.4c0-1.3-0.3-2.3-0.9-2.9s-1.5-1-2.8-1c-1.7,0-2.9,0.5-3.7,1.4s-1.2,2.4-1.2,4.5v8.4h-2.4
						v-16.1h2l0.4,2.2h0.1c0.5-0.8,1.2-1.4,2.1-1.8s1.9-0.7,3-0.7c1.9,0,3.4,0.5,4.4,1.4s1.5,2.4,1.5,4.5v10.5H191.2z"/>
					<path class="st2" d="M208.5,130.2l-0.5-2.3h-0.1c-0.8,1-1.6,1.7-2.4,2c-0.8,0.4-1.8,0.5-3,0.5c-1.6,0-2.8-0.4-3.7-1.2
						s-1.4-2-1.4-3.5c0-3.2,2.6-4.9,7.8-5.1l2.7-0.1v-1c0-1.3-0.3-2.2-0.8-2.8s-1.4-0.9-2.6-0.9c-1.3,0-2.9,0.4-4.5,1.2l-0.7-1.9
						c0.8-0.4,1.7-0.8,2.6-1s1.9-0.4,2.8-0.4c1.9,0,3.3,0.4,4.3,1.3s1.4,2.2,1.4,4.1v11H208.5z M203,128.5c1.5,0,2.7-0.4,3.6-1.2
						s1.3-2,1.3-3.5v-1.5l-2.4,0.1c-1.9,0.1-3.3,0.4-4.2,0.9s-1.3,1.4-1.3,2.5c0,0.9,0.3,1.5,0.8,2S202,128.5,203,128.5z"/>
					<path class="st2" d="M217.7,130.2h-2.4v-22.8h2.4V130.2z"/>
					<path class="st2" d="M220.3,114.1h2.6l3.5,9.2c0.8,2.1,1.2,3.6,1.4,4.5h0.1c0.1-0.5,0.4-1.3,0.8-2.6c0.4-1.2,1.7-4.9,4-11.1
						h2.6l-6.9,18.3c-0.7,1.8-1.5,3.1-2.4,3.8c-0.9,0.8-2,1.1-3.4,1.1c-0.7,0-1.5-0.1-2.2-0.2v-1.9c0.5,0.1,1.1,0.2,1.8,0.2
						c1.7,0,2.9-0.9,3.6-2.8l0.9-2.3L220.3,114.1z"/>
					<path class="st2" d="M243.2,128.5c0.4,0,0.8,0,1.2-0.1s0.7-0.1,1-0.2v1.9c-0.3,0.1-0.7,0.2-1.2,0.3s-1,0.1-1.4,0.1
						c-3.1,0-4.7-1.6-4.7-4.9V116h-2.3v-1.2l2.3-1l1-3.4h1.4v3.7h4.7v1.9h-4.7v9.4c0,1,0.2,1.7,0.7,2.2S242.4,128.5,243.2,128.5z"/>
					<path class="st2" d="M248.4,109.8c0-0.6,0.1-1,0.4-1.2s0.6-0.4,1-0.4c0.4,0,0.7,0.1,1,0.4s0.4,0.7,0.4,1.2s-0.1,1-0.4,1.2
						s-0.6,0.4-1,0.4c-0.4,0-0.8-0.1-1-0.4S248.4,110.3,248.4,109.8z M251,130.2h-2.4v-16.1h2.4V130.2z"/>
					<path class="st2" d="M262.6,130.5c-2.3,0-4.1-0.7-5.4-2.1c-1.3-1.4-1.9-3.5-1.9-6.1c0-2.7,0.6-4.8,1.9-6.2s3.1-2.2,5.5-2.2
						c0.8,0,1.5,0.1,2.3,0.2s1.4,0.4,1.8,0.6l-0.7,2.1c-0.5-0.2-1.1-0.4-1.8-0.5s-1.2-0.2-1.7-0.2c-3.3,0-4.9,2.1-4.9,6.2
						c0,2,0.4,3.5,1.2,4.5s2,1.6,3.5,1.6c1.3,0,2.7-0.3,4.1-0.9v2.2C265.6,130.2,264.2,130.5,262.6,130.5z"/>
					<path class="st2" d="M280.8,125.8c0,1.5-0.6,2.6-1.7,3.5s-2.7,1.2-4.7,1.2c-2.1,0-3.8-0.3-5-1v-2.3c0.8,0.4,1.6,0.7,2.5,0.9
						s1.7,0.3,2.6,0.3c1.3,0,2.2-0.2,2.9-0.6c0.7-0.4,1-1,1-1.9c0-0.6-0.3-1.2-0.8-1.6s-1.6-1-3.2-1.6c-1.5-0.6-2.6-1-3.2-1.5
						s-1.1-0.9-1.4-1.4s-0.5-1.2-0.5-1.9c0-1.3,0.5-2.3,1.6-3.1s2.5-1.1,4.4-1.1c1.7,0,3.4,0.4,5.1,1.1l-0.9,2c-1.6-0.7-3.1-1-4.4-1
						c-1.2,0-2,0.2-2.6,0.5s-0.9,0.9-0.9,1.5c0,0.4,0.1,0.8,0.3,1.1s0.6,0.6,1.1,0.9s1.4,0.7,2.8,1.2c1.9,0.7,3.2,1.4,3.9,2.1
						S280.8,124.7,280.8,125.8z"/>
					<path class="st2" d="M299.3,130.5c-2.4,0-4.2-0.7-5.6-2.2s-2.1-3.5-2.1-6c0-2.6,0.6-4.6,1.9-6.2s3-2.3,5.1-2.3
						c2,0,3.6,0.7,4.8,2s1.8,3.1,1.8,5.2v1.5h-11.1c0,1.9,0.5,3.3,1.4,4.3s2.2,1.5,3.8,1.5c1.7,0,3.4-0.4,5.1-1.1v2.2
						c-0.9,0.4-1.7,0.6-2.4,0.8C301.4,130.4,300.4,130.5,299.3,130.5z M298.7,115.9c-1.3,0-2.3,0.4-3.1,1.3s-1.2,2-1.4,3.5h8.4
						c0-1.5-0.3-2.7-1-3.5S300,115.9,298.7,115.9z"/>
					<path class="st2" d="M312.9,130.2l-6.1-16.1h2.6l3.5,9.5c0.8,2.2,1.2,3.7,1.4,4.3h0.1c0.1-0.5,0.4-1.6,1-3.2
						c0.6-1.6,1.9-5.2,3.8-10.6h2.6l-6.1,16.1H312.9z"/>
					<path class="st2" d="M331.2,130.5c-2.4,0-4.2-0.7-5.6-2.2s-2.1-3.5-2.1-6c0-2.6,0.6-4.6,1.9-6.2s3-2.3,5.1-2.3
						c2,0,3.6,0.7,4.8,2s1.8,3.1,1.8,5.2v1.5h-11.1c0,1.9,0.5,3.3,1.4,4.3s2.2,1.5,3.8,1.5c1.7,0,3.4-0.4,5.1-1.1v2.2
						c-0.9,0.4-1.7,0.6-2.4,0.8C333.2,130.4,332.3,130.5,331.2,130.5z M330.6,115.9c-1.3,0-2.3,0.4-3.1,1.3s-1.2,2-1.4,3.5h8.4
						c0-1.5-0.3-2.7-1-3.5S331.8,115.9,330.6,115.9z"/>
					<path class="st2" d="M348.6,113.8c0.7,0,1.4,0.1,1.9,0.2l-0.3,2.3c-0.7-0.1-1.2-0.2-1.8-0.2c-1.3,0-2.4,0.5-3.3,1.6
						s-1.4,2.4-1.4,3.9v8.6h-2.4v-16.1h2l0.3,3h0.1c0.6-1,1.3-1.9,2.2-2.4S347.6,113.8,348.6,113.8z"/>
					<path class="st2" d="M351,114.1h2.6l3.5,9.2c0.8,2.1,1.2,3.6,1.4,4.5h0.1c0.1-0.5,0.4-1.3,0.8-2.6c0.4-1.2,1.7-4.9,4-11.1h2.6
						l-6.9,18.3c-0.7,1.8-1.5,3.1-2.4,3.8c-0.9,0.8-2,1.1-3.4,1.1c-0.7,0-1.5-0.1-2.2-0.2v-1.9c0.5,0.1,1.1,0.2,1.8,0.2
						c1.7,0,2.9-0.9,3.6-2.8l0.9-2.3L351,114.1z"/>
					<path class="st2" d="M381.7,130.2l-2.9-9.4c-0.2-0.6-0.5-1.9-1-3.9h-0.1c-0.4,1.7-0.7,3-1,4l-3,9.4h-2.8l-4.4-16.1h2.5
						c1,4,1.8,7.1,2.4,9.2s0.9,3.5,0.9,4.3h0.1c0.1-0.6,0.3-1.3,0.5-2.2c0.2-0.9,0.4-1.6,0.6-2.1l2.9-9.2h2.6l2.9,9.2
						c0.5,1.7,0.9,3.1,1.1,4.2h0.1c0-0.4,0.1-0.9,0.3-1.6s1.2-4.7,3.1-11.8h2.5l-4.4,16.1H381.7z"/>
					<path class="st2" d="M402.9,130.2v-10.4c0-1.3-0.3-2.3-0.9-2.9s-1.5-1-2.8-1c-1.7,0-2.9,0.5-3.7,1.4s-1.2,2.4-1.2,4.5v8.4H392
						v-22.8h2.4v6.9c0,0.8,0,1.5-0.1,2.1h0.1c0.5-0.8,1.2-1.4,2-1.8s1.9-0.7,3-0.7c2,0,3.4,0.5,4.4,1.4s1.5,2.4,1.5,4.4v10.5H402.9z
						"/>
					<path class="st2" d="M417.2,130.5c-2.4,0-4.2-0.7-5.6-2.2s-2.1-3.5-2.1-6c0-2.6,0.6-4.6,1.9-6.2s3-2.3,5.1-2.3
						c2,0,3.6,0.7,4.8,2s1.8,3.1,1.8,5.2v1.5H412c0,1.9,0.5,3.3,1.4,4.3s2.2,1.5,3.8,1.5c1.7,0,3.4-0.4,5.1-1.1v2.2
						c-0.9,0.4-1.7,0.6-2.4,0.8C419.2,130.4,418.2,130.5,417.2,130.5z M416.5,115.9c-1.3,0-2.3,0.4-3.1,1.3s-1.2,2-1.4,3.5h8.4
						c0-1.5-0.3-2.7-1-3.5S417.8,115.9,416.5,115.9z"/>
					<path class="st2" d="M434.5,113.8c0.7,0,1.4,0.1,1.9,0.2l-0.3,2.3c-0.7-0.1-1.2-0.2-1.8-0.2c-1.3,0-2.4,0.5-3.3,1.6
						s-1.4,2.4-1.4,3.9v8.6h-2.4v-16.1h2l0.3,3h0.1c0.6-1,1.3-1.9,2.2-2.4S433.5,113.8,434.5,113.8z"/>
					<path class="st2" d="M446.2,130.5c-2.4,0-4.2-0.7-5.6-2.2s-2.1-3.5-2.1-6c0-2.6,0.6-4.6,1.9-6.2s3-2.3,5.1-2.3
						c2,0,3.6,0.7,4.8,2s1.8,3.1,1.8,5.2v1.5h-11.1c0,1.9,0.5,3.3,1.4,4.3s2.2,1.5,3.8,1.5c1.7,0,3.4-0.4,5.1-1.1v2.2
						c-0.9,0.4-1.7,0.6-2.4,0.8C448.2,130.4,447.3,130.5,446.2,130.5z M445.6,115.9c-1.3,0-2.3,0.4-3.1,1.3s-1.2,2-1.4,3.5h8.4
						c0-1.5-0.3-2.7-1-3.5S446.8,115.9,445.6,115.9z"/>
				</g>
			</g>
		</g>
		<g id="cta_1_">
			<defs>
				<rect id="cta-mask" x="66.8" y="155" width="171.9" height="62"/>
			</defs>
			<clipPath id="cta-mask_1_">
				<rect id="cta-mask" x="66.8" y="155" width="171.9" height="62"/>
			</clipPath>
			<path id="cta-bg" class="st3" d="M71.8,163.2h160.8c1.3,0,2.5,1.2,2.5,2.5l0,0v34.7c0,1.3-1.2,2.5-2.5,2.5l0,0H71.8
				c-1.3,0-2.5-1.2-2.5-2.5l0,0v-34.7C69.3,164.2,70.3,163.2,71.8,163.2z"/>
			<g id="Learn_more" class="st4">
				<g>
					<path class="st5" d="M99.8,189.1v-13.5h2.2v11.6h5.7v1.9H99.8z"/>
					<path class="st5" d="M114.4,189.3c-1.6,0-2.8-0.5-3.7-1.4c-0.9-0.9-1.3-2.2-1.3-3.8c0-1.7,0.4-3,1.2-3.9s2-1.4,3.4-1.4
						c1.4,0,2.4,0.4,3.2,1.2s1.2,2,1.2,3.4v1.2h-6.8c0,1,0.3,1.8,0.8,2.3c0.5,0.5,1.2,0.8,2.1,0.8c0.6,0,1.2-0.1,1.7-0.2
						s1.1-0.3,1.7-0.6v1.8c-0.5,0.3-1.1,0.4-1.6,0.5C115.7,189.2,115.1,189.3,114.4,189.3z M114,180.3c-0.7,0-1.2,0.2-1.7,0.7
						c-0.4,0.4-0.7,1.1-0.7,1.9h4.6c0-0.8-0.2-1.5-0.6-1.9C115.2,180.5,114.7,180.3,114,180.3z"/>
					<path class="st5" d="M127.2,189.1l-0.4-1.4h-0.1c-0.5,0.6-1,1-1.5,1.3c-0.5,0.2-1.1,0.3-1.9,0.3c-1,0-1.8-0.3-2.4-0.8
						c-0.6-0.5-0.8-1.3-0.8-2.3c0-1.1,0.4-1.9,1.2-2.4s2-0.8,3.6-0.9l1.8-0.1v-0.5c0-0.7-0.2-1.1-0.5-1.5s-0.8-0.5-1.4-0.5
						c-0.5,0-1,0.1-1.5,0.2c-0.5,0.2-0.9,0.3-1.4,0.5l-0.7-1.6c0.6-0.3,1.2-0.5,1.8-0.7s1.3-0.2,1.9-0.2c1.3,0,2.3,0.3,3,0.9
						c0.7,0.6,1,1.5,1,2.7v6.9H127.2z M124,187.6c0.8,0,1.4-0.2,1.9-0.7s0.7-1.1,0.7-1.9v-0.9l-1.3,0.1c-1,0-1.8,0.2-2.2,0.5
						s-0.7,0.8-0.7,1.4c0,0.5,0.1,0.8,0.4,1.1C123,187.5,123.4,187.6,124,187.6z"/>
					<path class="st5" d="M137,178.7c0.4,0,0.8,0,1.1,0.1l-0.2,2c-0.3-0.1-0.6-0.1-1-0.1c-0.9,0-1.6,0.3-2.1,0.9
						c-0.5,0.6-0.8,1.3-0.8,2.2v5.4h-2.2v-10.2h1.7l0.3,1.8h0.1c0.3-0.6,0.8-1.1,1.3-1.5C135.8,178.9,136.4,178.7,137,178.7z"/>
					<path class="st5" d="M149,189.1h-2.2v-6.3c0-0.8-0.2-1.4-0.5-1.8c-0.3-0.4-0.8-0.6-1.5-0.6c-0.9,0-1.6,0.3-2,0.8
						c-0.4,0.5-0.6,1.5-0.6,2.7v5.1H140v-10.2h1.7l0.3,1.3h0.1c0.3-0.5,0.7-0.9,1.3-1.1c0.6-0.3,1.2-0.4,1.9-0.4
						c2.5,0,3.7,1.3,3.7,3.8V189.1z"/>
					<path class="st5" d="M163.1,189.1l-3.9-11.3h-0.1c0.1,1.7,0.2,3.3,0.2,4.7v6.6h-2v-13.5h3.1l3.8,10.8h0.1l3.9-10.8h3.1v13.5
						H169v-6.7c0-0.7,0-1.5,0.1-2.6c0-1.1,0.1-1.7,0.1-2h-0.1l-4.1,11.3H163.1z"/>
					<path class="st5" d="M183.6,184c0,1.7-0.4,3-1.3,3.9s-2.1,1.4-3.6,1.4c-1,0-1.8-0.2-2.5-0.6c-0.7-0.4-1.3-1.1-1.7-1.9
						c-0.4-0.8-0.6-1.7-0.6-2.8c0-1.7,0.4-3,1.3-3.9c0.9-0.9,2.1-1.4,3.6-1.4c1.5,0,2.7,0.5,3.5,1.4
						C183.1,181.1,183.6,182.3,183.6,184z M176.1,184c0,2.4,0.9,3.5,2.6,3.5c1.7,0,2.6-1.2,2.6-3.5c0-2.3-0.9-3.5-2.6-3.5
						c-0.9,0-1.6,0.3-2,0.9C176.3,182,176.1,182.8,176.1,184z"/>
					<path class="st5" d="M191.3,178.7c0.4,0,0.8,0,1.1,0.1l-0.2,2c-0.3-0.1-0.6-0.1-1-0.1c-0.9,0-1.6,0.3-2.1,0.9
						c-0.5,0.6-0.8,1.3-0.8,2.2v5.4h-2.2v-10.2h1.7l0.3,1.8h0.1c0.3-0.6,0.8-1.1,1.3-1.5C190,178.9,190.6,178.7,191.3,178.7z"/>
					<path class="st5" d="M198.7,189.3c-1.6,0-2.8-0.5-3.7-1.4c-0.9-0.9-1.3-2.2-1.3-3.8c0-1.7,0.4-3,1.2-3.9s2-1.4,3.4-1.4
						c1.4,0,2.4,0.4,3.2,1.2s1.2,2,1.2,3.4v1.2h-6.8c0,1,0.3,1.8,0.8,2.3c0.5,0.5,1.2,0.8,2.1,0.8c0.6,0,1.2-0.1,1.7-0.2
						s1.1-0.3,1.7-0.6v1.8c-0.5,0.3-1.1,0.4-1.6,0.5C200,189.2,199.4,189.3,198.7,189.3z M198.3,180.3c-0.7,0-1.2,0.2-1.7,0.7
						c-0.4,0.4-0.7,1.1-0.7,1.9h4.6c0-0.8-0.2-1.5-0.6-1.9C199.5,180.5,199,180.3,198.3,180.3z"/>
				</g>
			</g>
		</g>
	</g>
	<g id="c1">
		<g id="Put_data_to_work__wherever_you_need_it_1_">
			<g id="Put_data_to_work__wherever_you_need_it">
				<path class="st2" d="M88.5,117c0,2.6-0.9,4.6-2.7,6s-4.3,2.1-7.6,2.1h-3v10.1h-3v-25.7h6.7C85.3,109.5,88.5,112,88.5,117z
					 M75.2,122.5h2.7c2.6,0,4.6-0.4,5.7-1.3s1.8-2.2,1.8-4.1c0-1.7-0.6-3-1.7-3.8s-2.8-1.2-5.2-1.2h-3.3V122.5z"/>
				<path class="st2" d="M96.2,115.9v12.5c0,1.6,0.4,2.7,1.1,3.5s1.8,1.2,3.4,1.2c2,0,3.5-0.6,4.4-1.7s1.4-2.9,1.4-5.4v-10.1h2.9
					v19.3h-2.4l-0.4-2.6h-0.2c-0.6,0.9-1.4,1.7-2.5,2.2s-2.3,0.8-3.6,0.8c-2.3,0-4.1-0.6-5.3-1.7s-1.7-2.9-1.7-5.3v-12.6H96.2z"/>
				<path class="st2" d="M121.7,133.1c0.5,0,1,0,1.5-0.1s0.9-0.2,1.1-0.2v2.2c-0.3,0.2-0.8,0.3-1.4,0.4s-1.2,0.1-1.7,0.1
					c-3.7,0-5.6-2-5.6-5.9v-11.5H113v-1.4l2.8-1.2l1.2-4.1h1.7v4.5h5.6v2.3h-5.6v11.3c0,1.2,0.3,2.1,0.8,2.7
					S120.8,133.1,121.7,133.1z"/>
				<path class="st2" d="M150.7,132.6h-0.2c-1.3,2-3.4,2.9-6,2.9c-2.5,0-4.5-0.9-5.9-2.6s-2.1-4.2-2.1-7.3s0.7-5.6,2.1-7.4
					s3.4-2.6,5.9-2.6c2.6,0,4.6,0.9,6,2.8h0.2l-0.1-1.4l-0.1-1.4v-7.8h2.9v27.4h-2.4L150.7,132.6z M144.8,133.1c2,0,3.4-0.5,4.3-1.6
					s1.3-2.8,1.3-5.2v-0.6c0-2.7-0.5-4.7-1.4-5.8s-2.4-1.7-4.4-1.7c-1.7,0-3,0.7-3.9,2s-1.4,3.2-1.4,5.6c0,2.5,0.5,4.3,1.4,5.6
					S143.1,133.1,144.8,133.1z"/>
				<path class="st2" d="M171.5,135.2l-0.6-2.7h-0.1c-1,1.2-1.9,2-2.9,2.5s-2.1,0.6-3.6,0.6c-1.9,0-3.4-0.5-4.5-1.5
					s-1.6-2.4-1.6-4.2c0-3.9,3.1-5.9,9.3-6.1l3.3-0.1v-1.2c0-1.5-0.3-2.6-1-3.3s-1.7-1.1-3.1-1.1c-1.6,0-3.4,0.5-5.4,1.5l-0.9-2.2
					c0.9-0.5,2-0.9,3.1-1.2s2.3-0.4,3.4-0.4c2.3,0,4,0.5,5.1,1.5s1.7,2.7,1.7,4.9v13.1H171.5z M164.9,133.1c1.8,0,3.2-0.5,4.3-1.5
					s1.6-2.4,1.6-4.2v-1.7l-2.9,0.1c-2.3,0.1-4,0.4-5,1.1s-1.5,1.6-1.5,3c0,1.1,0.3,1.9,1,2.4S163.7,133.1,164.9,133.1z"/>
				<path class="st2" d="M185.9,133.1c0.5,0,1,0,1.5-0.1s0.9-0.2,1.1-0.2v2.2c-0.3,0.2-0.8,0.3-1.4,0.4s-1.2,0.1-1.7,0.1
					c-3.7,0-5.6-2-5.6-5.9v-11.5h-2.8v-1.4l2.8-1.2l1.2-4.1h1.7v4.5h5.6v2.3h-5.6v11.3c0,1.2,0.3,2.1,0.8,2.7
					S184.9,133.1,185.9,133.1z"/>
				<path class="st2" d="M204.2,135.2l-0.6-2.7h-0.1c-1,1.2-1.9,2-2.9,2.5s-2.1,0.6-3.6,0.6c-1.9,0-3.4-0.5-4.5-1.5
					s-1.6-2.4-1.6-4.2c0-3.9,3.1-5.9,9.3-6.1l3.3-0.1v-1.2c0-1.5-0.3-2.6-1-3.3s-1.7-1.1-3.1-1.1c-1.6,0-3.4,0.5-5.4,1.5l-0.9-2.2
					c0.9-0.5,2-0.9,3.1-1.2s2.3-0.4,3.4-0.4c2.3,0,4,0.5,5.1,1.5s1.7,2.7,1.7,4.9v13.1H204.2z M197.6,133.1c1.8,0,3.2-0.5,4.3-1.5
					s1.6-2.4,1.6-4.2v-1.7l-2.9,0.1c-2.3,0.1-4,0.4-5,1.1s-1.5,1.6-1.5,3c0,1.1,0.3,1.9,1,2.4S196.5,133.1,197.6,133.1z"/>
				<path class="st2" d="M228,133.1c0.5,0,1,0,1.5-0.1s0.9-0.2,1.1-0.2v2.2c-0.3,0.2-0.8,0.3-1.4,0.4s-1.2,0.1-1.7,0.1
					c-3.7,0-5.6-2-5.6-5.9v-11.5h-2.8v-1.4l2.8-1.2l1.2-4.1h1.7v4.5h5.6v2.3h-5.6v11.3c0,1.2,0.3,2.1,0.8,2.7S227,133.1,228,133.1z"
					/>
				<path class="st2" d="M251.1,125.5c0,3.1-0.8,5.6-2.4,7.4s-3.8,2.6-6.6,2.6c-1.7,0-3.3-0.4-4.6-1.2s-2.4-2-3.1-3.5
					s-1.1-3.3-1.1-5.3c0-3.1,0.8-5.6,2.4-7.3s3.8-2.6,6.5-2.6c2.7,0,4.8,0.9,6.4,2.7S251.1,122.5,251.1,125.5z M236.4,125.5
					c0,2.5,0.5,4.3,1.5,5.6s2.4,1.9,4.3,1.9s3.4-0.6,4.4-1.9s1.5-3.2,1.5-5.6c0-2.4-0.5-4.3-1.5-5.6s-2.5-1.9-4.4-1.9
					c-1.9,0-3.4,0.6-4.3,1.9S236.4,123.1,236.4,125.5z"/>
				<path class="st2" d="M281.3,135.2l-3.5-11.3c-0.2-0.7-0.6-2.3-1.2-4.7h-0.1c-0.5,2.1-0.9,3.6-1.2,4.7l-3.6,11.3h-3.4l-5.3-19.3
					h3.1c1.2,4.8,2.2,8.5,2.8,11.1s1,4.2,1.1,5.1h0.1c0.1-0.7,0.3-1.5,0.6-2.6s0.5-1.9,0.7-2.5l3.5-11.1h3.2l3.4,11.1
					c0.7,2,1.1,3.7,1.3,5.1h0.1c0-0.4,0.2-1.1,0.4-2s1.4-5.6,3.7-14.2h3l-5.3,19.3H281.3z"/>
				<path class="st2" d="M310.2,125.5c0,3.1-0.8,5.6-2.4,7.4s-3.8,2.6-6.6,2.6c-1.7,0-3.3-0.4-4.6-1.2s-2.4-2-3.1-3.5
					s-1.1-3.3-1.1-5.3c0-3.1,0.8-5.6,2.4-7.3s3.8-2.6,6.5-2.6c2.7,0,4.8,0.9,6.4,2.7S310.2,122.5,310.2,125.5z M295.5,125.5
					c0,2.5,0.5,4.3,1.5,5.6s2.4,1.9,4.3,1.9s3.4-0.6,4.4-1.9s1.5-3.2,1.5-5.6c0-2.4-0.5-4.3-1.5-5.6s-2.5-1.9-4.4-1.9
					c-1.9,0-3.4,0.6-4.3,1.9S295.5,123.1,295.5,125.5z"/>
				<path class="st2" d="M324.1,115.6c0.9,0,1.6,0.1,2.3,0.2l-0.4,2.7c-0.8-0.2-1.5-0.3-2.1-0.3c-1.6,0-2.9,0.6-4,1.9
					s-1.7,2.8-1.7,4.7v10.3h-2.9v-19.3h2.4l0.3,3.6h0.1c0.7-1.3,1.6-2.2,2.6-2.9S322.9,115.6,324.1,115.6z"/>
				<path class="st2" d="M332.9,125.3c0.5-0.7,1.3-1.7,2.3-2.8l6.2-6.6h3.5l-7.8,8.2l8.3,11.1h-3.5l-6.8-9.1l-2.2,1.9v7.2H330v-27.4
					h2.9v14.5c0,0.6,0,1.6-0.1,3H332.9z"/>
				<path class="st2" d="M87.5,185.2l-3.5-11.3c-0.2-0.7-0.6-2.3-1.2-4.7h-0.1c-0.5,2.1-0.9,3.6-1.2,4.7l-3.6,11.3h-3.4L69,165.9
					h3.1c1.2,4.8,2.2,8.5,2.8,11.1s1,4.2,1.1,5.1h0.1c0.1-0.7,0.3-1.5,0.6-2.6s0.5-1.9,0.7-2.5l3.5-11.1h3.2l3.4,11.1
					c0.7,2,1.1,3.7,1.3,5.1h0.1c0-0.4,0.2-1.1,0.4-2s1.4-5.6,3.7-14.2h3l-5.3,19.3H87.5z"/>
				<path class="st2" d="M112.9,185.2v-12.5c0-1.6-0.4-2.7-1.1-3.5s-1.8-1.2-3.4-1.2c-2,0-3.5,0.6-4.4,1.7s-1.4,2.9-1.4,5.4v10.1
					h-2.9v-27.4h2.9v8.3c0,1,0,1.8-0.1,2.5h0.2c0.6-0.9,1.4-1.7,2.5-2.2s2.3-0.8,3.6-0.8c2.4,0,4.1,0.6,5.3,1.7s1.8,2.9,1.8,5.3
					v12.6H112.9z"/>
				<path class="st2" d="M130,185.5c-2.8,0-5.1-0.9-6.7-2.6s-2.5-4.1-2.5-7.2c0-3.1,0.8-5.6,2.3-7.4s3.6-2.7,6.2-2.7
					c2.4,0,4.3,0.8,5.7,2.4s2.1,3.7,2.1,6.3v1.8h-13.3c0.1,2.3,0.6,4,1.7,5.2s2.6,1.8,4.6,1.8c2.1,0,4.1-0.4,6.2-1.3v2.6
					c-1,0.4-2,0.8-2.9,1S131.3,185.5,130,185.5z M129.2,168c-1.5,0-2.8,0.5-3.7,1.5s-1.5,2.4-1.6,4.2h10.1c0-1.8-0.4-3.2-1.2-4.2
					S130.7,168,129.2,168z"/>
				<path class="st2" d="M150.8,165.6c0.9,0,1.6,0.1,2.3,0.2l-0.4,2.7c-0.8-0.2-1.5-0.3-2.1-0.3c-1.6,0-2.9,0.6-4,1.9
					s-1.7,2.8-1.7,4.7v10.3H142v-19.3h2.4l0.3,3.6h0.1c0.7-1.3,1.6-2.2,2.6-2.9S149.6,165.6,150.8,165.6z"/>
				<path class="st2" d="M164.9,185.5c-2.8,0-5.1-0.9-6.7-2.6s-2.5-4.1-2.5-7.2c0-3.1,0.8-5.6,2.3-7.4s3.6-2.7,6.2-2.7
					c2.4,0,4.3,0.8,5.7,2.4s2.1,3.7,2.1,6.3v1.8h-13.3c0.1,2.3,0.6,4,1.7,5.2s2.6,1.8,4.6,1.8c2.1,0,4.1-0.4,6.2-1.3v2.6
					c-1,0.4-2,0.8-2.9,1S166.2,185.5,164.9,185.5z M164.1,168c-1.5,0-2.8,0.5-3.7,1.5s-1.5,2.4-1.6,4.2h10.1c0-1.8-0.4-3.2-1.2-4.2
					S165.6,168,164.1,168z"/>
				<path class="st2" d="M181.1,185.2l-7.3-19.3h3.1l4.1,11.4c0.9,2.7,1.5,4.4,1.7,5.2h0.1c0.1-0.6,0.5-1.9,1.2-3.9
					s2.2-6.2,4.6-12.8h3.1l-7.3,19.3H181.1z"/>
				<path class="st2" d="M203.1,185.5c-2.8,0-5.1-0.9-6.7-2.6s-2.5-4.1-2.5-7.2c0-3.1,0.8-5.6,2.3-7.4s3.6-2.7,6.2-2.7
					c2.4,0,4.3,0.8,5.7,2.4s2.1,3.7,2.1,6.3v1.8h-13.3c0.1,2.3,0.6,4,1.7,5.2s2.6,1.8,4.6,1.8c2.1,0,4.1-0.4,6.2-1.3v2.6
					c-1,0.4-2,0.8-2.9,1S204.4,185.5,203.1,185.5z M202.3,168c-1.5,0-2.8,0.5-3.7,1.5s-1.5,2.4-1.6,4.2h10.1c0-1.8-0.4-3.2-1.2-4.2
					S203.8,168,202.3,168z"/>
				<path class="st2" d="M223.9,165.6c0.9,0,1.6,0.1,2.3,0.2l-0.4,2.7c-0.8-0.2-1.5-0.3-2.1-0.3c-1.6,0-2.9,0.6-4,1.9
					s-1.7,2.8-1.7,4.7v10.3h-2.9v-19.3h2.4l0.3,3.6h0.1c0.7-1.3,1.6-2.2,2.6-2.9S222.7,165.6,223.9,165.6z"/>
				<path class="st2" d="M236.1,165.9h3.1l4.2,11c0.9,2.5,1.5,4.3,1.7,5.4h0.1c0.2-0.6,0.5-1.6,1-3.1s2.1-5.9,4.8-13.4h3.1
					l-8.3,21.9c-0.8,2.2-1.8,3.7-2.9,4.6s-2.4,1.4-4,1.4c-0.9,0-1.8-0.1-2.6-0.3v-2.3c0.6,0.1,1.4,0.2,2.2,0.2c2,0,3.4-1.1,4.3-3.4
					l1.1-2.7L236.1,165.9z"/>
				<path class="st2" d="M274,175.5c0,3.1-0.8,5.6-2.4,7.4s-3.8,2.6-6.6,2.6c-1.7,0-3.3-0.4-4.6-1.2s-2.4-2-3.1-3.5
					s-1.1-3.3-1.1-5.3c0-3.1,0.8-5.6,2.4-7.3s3.8-2.6,6.5-2.6c2.7,0,4.8,0.9,6.4,2.7S274,172.5,274,175.5z M259.3,175.5
					c0,2.5,0.5,4.3,1.5,5.6s2.4,1.9,4.3,1.9s3.4-0.6,4.4-1.9s1.5-3.2,1.5-5.6c0-2.4-0.5-4.3-1.5-5.6s-2.5-1.9-4.4-1.9
					c-1.9,0-3.4,0.6-4.3,1.9S259.3,173.1,259.3,175.5z"/>
				<path class="st2" d="M281.8,165.9v12.5c0,1.6,0.4,2.7,1.1,3.5s1.8,1.2,3.4,1.2c2,0,3.5-0.6,4.4-1.7s1.4-2.9,1.4-5.4v-10.1h2.9
					v19.3h-2.4l-0.4-2.6H292c-0.6,0.9-1.4,1.7-2.5,2.2s-2.3,0.8-3.6,0.8c-2.3,0-4.1-0.6-5.3-1.7s-1.7-2.9-1.7-5.3v-12.6H281.8z"/>
				<path class="st2" d="M323.7,185.2v-12.5c0-1.6-0.4-2.7-1.1-3.5s-1.8-1.2-3.4-1.2c-2,0-3.5,0.5-4.4,1.6s-1.4,2.9-1.4,5.4v10.1
					h-2.9v-19.3h2.4l0.5,2.6h0.1c0.6-0.9,1.4-1.7,2.5-2.2s2.3-0.8,3.6-0.8c2.3,0,4.1,0.6,5.2,1.7s1.8,2.9,1.8,5.4v12.6H323.7z"/>
				<path class="st2" d="M340.8,185.5c-2.8,0-5.1-0.9-6.7-2.6s-2.5-4.1-2.5-7.2c0-3.1,0.8-5.6,2.3-7.4s3.6-2.7,6.2-2.7
					c2.4,0,4.3,0.8,5.7,2.4s2.1,3.7,2.1,6.3v1.8h-13.3c0.1,2.3,0.6,4,1.7,5.2s2.6,1.8,4.6,1.8c2.1,0,4.1-0.4,6.2-1.3v2.6
					c-1,0.4-2,0.8-2.9,1S342.1,185.5,340.8,185.5z M340,168c-1.5,0-2.8,0.5-3.7,1.5s-1.5,2.4-1.6,4.2h10.1c0-1.8-0.4-3.2-1.2-4.2
					S341.5,168,340,168z"/>
				<path class="st2" d="M361,185.5c-2.8,0-5.1-0.9-6.7-2.6s-2.5-4.1-2.5-7.2c0-3.1,0.8-5.6,2.3-7.4s3.6-2.7,6.2-2.7
					c2.4,0,4.3,0.8,5.7,2.4s2.1,3.7,2.1,6.3v1.8h-13.3c0.1,2.3,0.6,4,1.7,5.2s2.6,1.8,4.6,1.8c2.1,0,4.1-0.4,6.2-1.3v2.6
					c-1,0.4-2,0.8-2.9,1S362.3,185.5,361,185.5z M360.2,168c-1.5,0-2.8,0.5-3.7,1.5s-1.5,2.4-1.6,4.2h10.1c0-1.8-0.4-3.2-1.2-4.2
					S361.7,168,360.2,168z"/>
				<path class="st2" d="M386.1,182.6H386c-1.3,2-3.4,2.9-6,2.9c-2.5,0-4.5-0.9-5.9-2.6s-2.1-4.2-2.1-7.3s0.7-5.6,2.1-7.4
					s3.4-2.6,5.9-2.6c2.6,0,4.6,0.9,6,2.8h0.2l-0.1-1.4l-0.1-1.4v-7.8h2.9v27.4h-2.4L386.1,182.6z M380.3,183.1c2,0,3.4-0.5,4.3-1.6
					s1.3-2.8,1.3-5.2v-0.6c0-2.7-0.5-4.7-1.4-5.8s-2.4-1.7-4.4-1.7c-1.7,0-3,0.7-3.9,2s-1.4,3.2-1.4,5.6c0,2.5,0.5,4.3,1.4,5.6
					S378.6,183.1,380.3,183.1z"/>
				<path class="st2" d="M404.2,160.7c0-0.7,0.2-1.2,0.5-1.5s0.7-0.5,1.2-0.5c0.5,0,0.9,0.2,1.2,0.5s0.5,0.8,0.5,1.5
					s-0.2,1.1-0.5,1.5s-0.7,0.5-1.2,0.5c-0.5,0-0.9-0.2-1.2-0.5S404.2,161.4,404.2,160.7z M407.4,185.2h-2.9v-19.3h2.9V185.2z"/>
				<path class="st2" d="M419.8,183.1c0.5,0,1,0,1.5-0.1s0.9-0.2,1.1-0.2v2.2c-0.3,0.2-0.8,0.3-1.4,0.4s-1.2,0.1-1.7,0.1
					c-3.7,0-5.6-2-5.6-5.9v-11.5H411v-1.4l2.8-1.2l1.2-4.1h1.7v4.5h5.6v2.3h-5.6v11.3c0,1.2,0.3,2.1,0.8,2.7
					S418.8,183.1,419.8,183.1z"/>
			</g>
		</g>
	</g>
	<g id="c2">
		<g id="Whenever_you_need_it">
			<g>
				<path class="st2" d="M94.6,135.2h-3L86.5,118c-0.2-0.8-0.5-1.7-0.8-2.9s-0.5-1.9-0.5-2.1c-0.3,1.5-0.7,3.2-1.2,5.1l-5,17.1h-3
					l-6.8-25.7h3.2l4.1,15.9c0.6,2.2,1,4.2,1.2,6c0.3-2.1,0.8-4.2,1.4-6.3l4.6-15.6h3.2l4.8,15.8c0.6,1.8,1,3.9,1.4,6.2
					c0.2-1.7,0.6-3.7,1.3-6.1l4-15.8h3.2L94.6,135.2z"/>
				<path class="st2" d="M118.2,135.2v-12.5c0-1.6-0.4-2.7-1.1-3.5s-1.8-1.2-3.4-1.2c-2,0-3.5,0.6-4.4,1.7s-1.4,2.9-1.4,5.4v10.1
					h-2.9v-27.4h2.9v8.3c0,1,0,1.8-0.1,2.5h0.2c0.6-0.9,1.4-1.7,2.5-2.2s2.3-0.8,3.6-0.8c2.4,0,4.1,0.6,5.3,1.7s1.8,2.9,1.8,5.3
					v12.6H118.2z"/>
				<path class="st2" d="M135.3,135.5c-2.8,0-5.1-0.9-6.7-2.6s-2.5-4.1-2.5-7.2c0-3.1,0.8-5.6,2.3-7.4s3.6-2.7,6.2-2.7
					c2.4,0,4.3,0.8,5.7,2.4s2.1,3.7,2.1,6.3v1.8h-13.3c0.1,2.3,0.6,4,1.7,5.2s2.6,1.8,4.6,1.8c2.1,0,4.1-0.4,6.2-1.3v2.6
					c-1,0.4-2,0.8-2.9,1S136.6,135.5,135.3,135.5z M134.5,118c-1.5,0-2.8,0.5-3.7,1.5s-1.5,2.4-1.6,4.2h10.1c0-1.8-0.4-3.2-1.2-4.2
					S136,118,134.5,118z"/>
				<path class="st2" d="M160.5,135.2v-12.5c0-1.6-0.4-2.7-1.1-3.5s-1.8-1.2-3.4-1.2c-2,0-3.5,0.5-4.4,1.6s-1.4,2.9-1.4,5.4v10.1
					h-2.9v-19.3h2.4l0.5,2.6h0.1c0.6-0.9,1.4-1.7,2.5-2.2s2.3-0.8,3.6-0.8c2.3,0,4.1,0.6,5.2,1.7s1.8,2.9,1.8,5.4v12.6H160.5z"/>
				<path class="st2" d="M177.6,135.5c-2.8,0-5.1-0.9-6.7-2.6s-2.5-4.1-2.5-7.2c0-3.1,0.8-5.6,2.3-7.4s3.6-2.7,6.2-2.7
					c2.4,0,4.3,0.8,5.7,2.4s2.1,3.7,2.1,6.3v1.8h-13.3c0.1,2.3,0.6,4,1.7,5.2s2.6,1.8,4.6,1.8c2.1,0,4.1-0.4,6.2-1.3v2.6
					c-1,0.4-2,0.8-2.9,1S178.9,135.5,177.6,135.5z M176.8,118c-1.5,0-2.8,0.5-3.7,1.5s-1.5,2.4-1.6,4.2h10.1c0-1.8-0.4-3.2-1.2-4.2
					S178.3,118,176.8,118z"/>
				<path class="st2" d="M193.9,135.2l-7.3-19.3h3.1l4.1,11.4c0.9,2.7,1.5,4.4,1.7,5.2h0.1c0.1-0.6,0.5-1.9,1.2-3.9
					s2.2-6.2,4.6-12.8h3.1l-7.3,19.3H193.9z"/>
				<path class="st2" d="M215.8,135.5c-2.8,0-5.1-0.9-6.7-2.6s-2.5-4.1-2.5-7.2c0-3.1,0.8-5.6,2.3-7.4s3.6-2.7,6.2-2.7
					c2.4,0,4.3,0.8,5.7,2.4s2.1,3.7,2.1,6.3v1.8h-13.3c0.1,2.3,0.6,4,1.7,5.2s2.6,1.8,4.6,1.8c2.1,0,4.1-0.4,6.2-1.3v2.6
					c-1,0.4-2,0.8-2.9,1S217.1,135.5,215.8,135.5z M215,118c-1.5,0-2.8,0.5-3.7,1.5s-1.5,2.4-1.6,4.2h10.1c0-1.8-0.4-3.2-1.2-4.2
					S216.6,118,215,118z"/>
				<path class="st2" d="M236.7,115.6c0.9,0,1.6,0.1,2.3,0.2l-0.4,2.7c-0.8-0.2-1.5-0.3-2.1-0.3c-1.6,0-2.9,0.6-4,1.9
					s-1.7,2.8-1.7,4.7v10.3h-2.9v-19.3h2.4l0.3,3.6h0.1c0.7-1.3,1.6-2.2,2.6-2.9S235.5,115.6,236.7,115.6z"/>
				<path class="st2" d="M248.9,115.9h3.1l4.2,11c0.9,2.5,1.5,4.3,1.7,5.4h0.1c0.2-0.6,0.5-1.6,1-3.1s2.1-5.9,4.8-13.4h3.1
					l-8.3,21.9c-0.8,2.2-1.8,3.7-2.9,4.6s-2.4,1.4-4,1.4c-0.9,0-1.8-0.1-2.6-0.3v-2.3c0.6,0.1,1.4,0.2,2.2,0.2c2,0,3.4-1.1,4.3-3.4
					l1.1-2.7L248.9,115.9z"/>
				<path class="st2" d="M286.7,125.5c0,3.1-0.8,5.6-2.4,7.4s-3.8,2.6-6.6,2.6c-1.7,0-3.3-0.4-4.6-1.2s-2.4-2-3.1-3.5
					s-1.1-3.3-1.1-5.3c0-3.1,0.8-5.6,2.4-7.3s3.8-2.6,6.5-2.6c2.7,0,4.8,0.9,6.4,2.7S286.7,122.5,286.7,125.5z M272,125.5
					c0,2.5,0.5,4.3,1.5,5.6s2.4,1.9,4.3,1.9s3.4-0.6,4.4-1.9s1.5-3.2,1.5-5.6c0-2.4-0.5-4.3-1.5-5.6s-2.5-1.9-4.4-1.9
					c-1.9,0-3.4,0.6-4.3,1.9S272,123.1,272,125.5z"/>
				<path class="st2" d="M294.6,115.9v12.5c0,1.6,0.4,2.7,1.1,3.5s1.8,1.2,3.4,1.2c2,0,3.5-0.6,4.4-1.7s1.4-2.9,1.4-5.4v-10.1h2.9
					v19.3h-2.4l-0.4-2.6h-0.2c-0.6,0.9-1.4,1.7-2.5,2.2s-2.3,0.8-3.6,0.8c-2.3,0-4.1-0.6-5.3-1.7s-1.7-2.9-1.7-5.3v-12.6H294.6z"/>
				<path class="st2" d="M336.4,135.2v-12.5c0-1.6-0.4-2.7-1.1-3.5s-1.8-1.2-3.4-1.2c-2,0-3.5,0.5-4.4,1.6s-1.4,2.9-1.4,5.4v10.1
					h-2.9v-19.3h2.4l0.5,2.6h0.1c0.6-0.9,1.4-1.7,2.5-2.2s2.3-0.8,3.6-0.8c2.3,0,4.1,0.6,5.2,1.7s1.8,2.9,1.8,5.4v12.6H336.4z"/>
				<path class="st2" d="M353.5,135.5c-2.8,0-5.1-0.9-6.7-2.6s-2.5-4.1-2.5-7.2c0-3.1,0.8-5.6,2.3-7.4s3.6-2.7,6.2-2.7
					c2.4,0,4.3,0.8,5.7,2.4s2.1,3.7,2.1,6.3v1.8h-13.3c0.1,2.3,0.6,4,1.7,5.2s2.6,1.8,4.6,1.8c2.1,0,4.1-0.4,6.2-1.3v2.6
					c-1,0.4-2,0.8-2.9,1S354.8,135.5,353.5,135.5z M352.7,118c-1.5,0-2.8,0.5-3.7,1.5s-1.5,2.4-1.6,4.2h10.1c0-1.8-0.4-3.2-1.2-4.2
					S354.2,118,352.7,118z"/>
				<path class="st2" d="M373.7,135.5c-2.8,0-5.1-0.9-6.7-2.6s-2.5-4.1-2.5-7.2c0-3.1,0.8-5.6,2.3-7.4s3.6-2.7,6.2-2.7
					c2.4,0,4.3,0.8,5.7,2.4s2.1,3.7,2.1,6.3v1.8h-13.3c0.1,2.3,0.6,4,1.7,5.2s2.6,1.8,4.6,1.8c2.1,0,4.1-0.4,6.2-1.3v2.6
					c-1,0.4-2,0.8-2.9,1S375,135.5,373.7,135.5z M372.9,118c-1.5,0-2.8,0.5-3.7,1.5s-1.5,2.4-1.6,4.2h10.1c0-1.8-0.4-3.2-1.2-4.2
					S374.4,118,372.9,118z"/>
				<path class="st2" d="M398.9,132.6h-0.2c-1.3,2-3.4,2.9-6,2.9c-2.5,0-4.5-0.9-5.9-2.6s-2.1-4.2-2.1-7.3s0.7-5.6,2.1-7.4
					s3.4-2.6,5.9-2.6c2.6,0,4.6,0.9,6,2.8h0.2l-0.1-1.4l-0.1-1.4v-7.8h2.9v27.4h-2.4L398.9,132.6z M393,133.1c2,0,3.4-0.5,4.3-1.6
					s1.3-2.8,1.3-5.2v-0.6c0-2.7-0.5-4.7-1.4-5.8S395,118,393,118c-1.7,0-3,0.7-3.9,2s-1.4,3.2-1.4,5.6c0,2.5,0.5,4.3,1.4,5.6
					S391.3,133.1,393,133.1z"/>
				<path class="st2" d="M416.9,110.7c0-0.7,0.2-1.2,0.5-1.5s0.7-0.5,1.2-0.5c0.5,0,0.9,0.2,1.2,0.5s0.5,0.8,0.5,1.5
					s-0.2,1.1-0.5,1.5s-0.7,0.5-1.2,0.5c-0.5,0-0.9-0.2-1.2-0.5S416.9,111.4,416.9,110.7z M420.1,135.2h-2.9v-19.3h2.9V135.2z"/>
				<path class="st2" d="M432.5,133.1c0.5,0,1,0,1.5-0.1s0.9-0.2,1.1-0.2v2.2c-0.3,0.2-0.8,0.3-1.4,0.4s-1.2,0.1-1.7,0.1
					c-3.7,0-5.6-2-5.6-5.9v-11.5h-2.8v-1.4l2.8-1.2l1.2-4.1h1.7v4.5h5.6v2.3h-5.6v11.3c0,1.2,0.3,2.1,0.8,2.7
					S431.5,133.1,432.5,133.1z"/>
			</g>
		</g>
	</g>
</g>
<g id="B1-300x600-F3">
</g>
</svg>
