<?xml version="1.0" encoding="utf-8"?>
<!-- Generator: Adobe Illustrator 25.2.1, SVG Export Plug-In . SVG Version: 6.00 Build 0)  -->
<svg version="1.1" id="Layer_1" xmlns="http://www.w3.org/2000/svg" xmlns:xlink="http://www.w3.org/1999/xlink" x="0px" y="0px"
	 viewBox="0 0 728 90" style="enable-background:new 0 0 728 90;" xml:space="preserve">
<style type="text/css">
	.st0{clip-path:url(#SVGID_2_);}
	.st1{opacity:0.95;fill:url(#bg-light_1_);enable-background:new    ;}
	.st2{fill:url(#Elipse_70_1_);}
	.st3{fill:#FFFFFF;}
	.st4{clip-path:url(#SVGID_4_);}
	.st5{clip-path:url(#SVGID_6_);}
	.st6{opacity:0.29;fill:url(#cta-glow_1_);enable-background:new    ;}
	.st7{fill:none;stroke:#FFFFFF;stroke-width:0.65;stroke-miterlimit:10;}
	.st8{fill:#030504;}
	.st9{fill:#E4001B;}
</style>
<g id="_728x90">
	<g>
		<defs>
			<rect id="SVGID_1_" width="728" height="90"/>
		</defs>
		<clipPath id="SVGID_2_">
			<use xlink:href="#SVGID_1_"  style="overflow:visible;"/>
		</clipPath>
		<g class="st0">
			<g id="BG">
				
					<image style="overflow:visible;enable-background:new    ;" width="901" height="803" id="GettyImages-561860327" xlink:href="awareness.jpg"  transform="matrix(0.8519 0 0 0.8519 -19.4329 -353.42)">
				</image>
				
					<radialGradient id="bg-light_1_" cx="-29.7072" cy="234.3826" r="0.2" gradientTransform="matrix(542.92 0 0 563.83 16569.0391 -132102.3906)" gradientUnits="userSpaceOnUse">
					<stop  offset="0" style="stop-color:#FFFFFF"/>
					<stop  offset="0.26" style="stop-color:#FFFFFF;stop-opacity:0.68"/>
					<stop  offset="0.53" style="stop-color:#FFFFFF;stop-opacity:0.39"/>
					<stop  offset="0.75" style="stop-color:#FFFFFF;stop-opacity:0.18"/>
					<stop  offset="0.91" style="stop-color:#FFFFFF;stop-opacity:5.000000e-02"/>
					<stop  offset="1" style="stop-color:#FFFFFF;stop-opacity:0"/>
				</radialGradient>
				<ellipse id="bg-light" class="st1" cx="450" cy="51.5" rx="119.9" ry="124.5"/>
				
					<image style="overflow:visible;enable-background:new    ;" width="600" height="491" id="keyshadow" xlink:href="awareness32.png"  transform="matrix(0.2384 0 0 0.217 374.6192 65.3332)">
				</image>
				
					<radialGradient id="Elipse_70_1_" cx="-55.2146" cy="266.9449" r="0.18" gradientTransform="matrix(129.6595 -12.4568 113.2887 11.6695 -22642.3301 -3712.2566)" gradientUnits="userSpaceOnUse">
					<stop  offset="0" style="stop-color:#000000"/>
					<stop  offset="0.63" style="stop-color:#040404;stop-opacity:0.97"/>
					<stop  offset="1" style="stop-color:#808080;stop-opacity:0"/>
				</radialGradient>
				<path id="Elipse_70" class="st2" d="M403.6,89.5c0-1.9,16.1-3.3,35.9-2.9s35.8,2.2,35.8,4.1c0,1.9-16.1,3.3-35.9,2.9
					C419.5,93.3,403.5,91.4,403.6,89.5z"/>
				
					<image style="overflow:visible;enable-background:new    ;" width="492" height="700" id="PT200827_001C1" xlink:href="awareness33.png"  transform="matrix(0.1562 0 0 0.1562 405.7946 2.4197)">
				</image>
				
					<image style="overflow:visible;enable-background:new    ;" width="1721" height="1721" id="shine1_300x" xlink:href="awareness34.png"  transform="matrix(2.000000e-02 0 0 2.000000e-02 418.253 10.37)">
				</image>
			</g>
			<g id="f2">
				<g id="_70_Less_Hardware_Spend_84_Faster_Time_To_Market_">
					<g>
						<path class="st3" d="M36.7,31.9h-5.8v-2.3h8.8v2l-5.5,10.2h-3L36.7,31.9z"/>
						<path class="st3" d="M41.2,35.7L41.2,35.7c0-3.6,2.2-6.4,5.5-6.4s5.4,2.7,5.4,6.3l0,0c0,3.5-2.2,6.3-5.5,6.3
							S41.2,39.3,41.2,35.7z M49.3,35.7L49.3,35.7c0-2.2-1.1-3.9-2.7-3.9s-2.7,1.6-2.7,3.9l0,0c0,2.2,1.1,3.9,2.7,3.9
							S49.3,38,49.3,35.7z"/>
						<path class="st3" d="M53.8,32.6L53.8,32.6c-0.1-1.7,1.2-3.1,2.9-3.1c0,0,0.1,0,0.1,0c1.7,0,3,1.3,3,3c0,0,0,0.1,0,0.1l0,0
							c0.1,1.7-1.2,3.1-2.9,3.1c0,0-0.1,0-0.1,0c-1.7,0-3-1.3-3-3C53.8,32.7,53.8,32.6,53.8,32.6z M64,29.6h2.1l-9,12.2H55L64,29.6z
							 M57.9,32.6L57.9,32.6c0-0.8-0.5-1.5-1.2-1.5s-1.1,0.7-1.1,1.5l0,0c0,0.8,0.5,1.5,1.2,1.5S57.9,33.4,57.9,32.6z M61.3,38.9
							L61.3,38.9c-0.1-1.7,1.2-3.1,2.9-3.1c0,0,0.1,0,0.1,0c1.6,0,3,1.3,3,2.9c0,0.1,0,0.2,0,0.2l0,0c0.1,1.7-1.2,3.1-2.9,3.1
							c0,0-0.1,0-0.1,0c-1.7,0-3-1.3-3-3C61.3,39,61.3,38.9,61.3,38.9z M65.4,38.9L65.4,38.9c0-0.8-0.5-1.5-1.2-1.5
							s-1.1,0.7-1.1,1.5l0,0c0,0.8,0.5,1.5,1.2,1.5C65,40.4,65.4,39.7,65.4,38.9z"/>
						<path class="st3" d="M74.8,29.6h2.7v9.8h6.1v2.5h-8.8V29.6z"/>
						<path class="st3" d="M84.7,37.2L84.7,37.2c-0.1-2.6,1.9-4.8,4.5-4.9c0.1,0,0.1,0,0.2,0c3.1,0,4.6,2.4,4.6,5.1
							c0,0.2,0,0.5,0,0.7h-6.6c0.2,1.1,1.2,1.9,2.3,1.8c0.9,0,1.7-0.4,2.3-1l1.5,1.3c-1.8,2.1-5,2.3-7.1,0.4
							C85.4,39.8,84.8,38.6,84.7,37.2z M91.3,36.4c0-1.1-0.9-2-2-2c-1.1,0.1-1.9,0.9-2,2H91.3z"/>
						<path class="st3" d="M95.2,40.6l1.1-1.8c0.9,0.7,1.9,1.1,3,1.1c0.8,0,1.1-0.3,1.1-0.7l0,0c0-0.6-0.9-0.8-1.9-1.1
							c-1.3-0.4-2.8-1-2.8-2.8l0,0c0-1.9,1.5-3,3.4-3c1.2,0,2.5,0.4,3.5,1.1l-1,1.8c-0.8-0.5-1.7-0.8-2.6-0.9c-0.7,0-1,0.3-1,0.6
							l0,0c0,0.5,0.9,0.8,1.9,1.1c1.3,0.4,2.8,1.1,2.8,2.8l0,0c0,2.1-1.6,3-3.6,3C97.7,41.9,96.3,41.5,95.2,40.6z"/>
						<path class="st3" d="M103.8,40.6l1.1-1.8c0.9,0.7,1.9,1.1,3,1.1c0.8,0,1.1-0.3,1.1-0.7l0,0c0-0.6-0.9-0.8-1.9-1.1
							c-1.3-0.4-2.8-1-2.8-2.8l0,0c0-1.9,1.5-3,3.4-3c1.2,0,2.5,0.4,3.5,1.1l-1,1.8c-0.8-0.5-1.6-0.8-2.5-0.9c-0.6,0-1,0.3-1,0.6
							l0,0c0,0.5,0.9,0.8,1.9,1.1c1.3,0.4,2.8,1.1,2.8,2.8l0,0c0,2.1-1.6,3-3.6,3C106.4,42,105,41.5,103.8,40.6z"/>
						<path class="st3" d="M118.8,29.6h2.7v4.9h5v-4.9h2.7v12.3h-2.7v-4.9h-5v4.9h-2.7L118.8,29.6z"/>
						<path class="st3" d="M131.3,39.1L131.3,39.1c0-2,1.6-3,3.8-3c0.8,0,1.6,0.1,2.3,0.4v-0.2c0-1.1-0.7-1.7-2-1.7
							c-0.9,0-1.8,0.2-2.6,0.5l-0.7-2c1.1-0.5,2.4-0.8,3.6-0.8c1.1-0.1,2.3,0.3,3.2,1c0.7,0.8,1.1,1.9,1,3v5.5h-2.6v-1
							c-0.7,0.8-1.8,1.2-2.8,1.2C132.8,42,131.3,41,131.3,39.1z M137.4,38.5V38c-0.5-0.2-1.1-0.4-1.7-0.3c-1.1,0-1.8,0.5-1.8,1.3
							l0,0c0,0.7,0.6,1.1,1.4,1.1C136.6,40.2,137.4,39.5,137.4,38.5L137.4,38.5z"/>
						<path class="st3" d="M142.2,32.5h2.7v1.9c0.4-1.3,1.6-2.2,3-2.1v2.8h-0.1c-1.8,0-2.9,1.1-2.9,3.3v3.5h-2.7V32.5z"/>
						<path class="st3" d="M149,37.2L149,37.2c0-3.1,2.1-4.8,4.3-4.8c1.1,0,2.2,0.5,2.9,1.4V29h2.7v12.8h-2.7v-1.3
							c-0.7,1-1.8,1.5-2.9,1.5C151.1,42,149,40.3,149,37.2z M156.2,37.2L156.2,37.2c0.1-1.3-0.8-2.4-2-2.5c-1.3-0.1-2.4,0.8-2.5,2
							c0,0.2,0,0.4,0,0.5l0,0c-0.1,1.3,0.8,2.4,2,2.5c1.3,0.1,2.4-0.8,2.5-2C156.3,37.5,156.3,37.3,156.2,37.2z"/>
						<path class="st3" d="M160.4,32.5h2.7l1.5,5.7l1.8-5.7h2.3l1.8,5.8l1.5-5.7h2.6l-2.9,9.5h-2.4l-1.8-5.8l-1.8,5.8h-2.4
							L160.4,32.5z"/>
						<path class="st3" d="M175.4,39.1L175.4,39.1c0-2,1.6-3,3.8-3c0.8,0,1.6,0.1,2.3,0.4v-0.2c0-1.1-0.7-1.7-2-1.7
							c-0.9,0-1.8,0.2-2.6,0.5l-0.7-2c1.1-0.5,2.4-0.8,3.6-0.8c1.1-0.1,2.3,0.3,3.2,1c0.7,0.8,1.1,1.9,1,3v5.5h-2.6v-1
							c-0.7,0.8-1.8,1.2-2.8,1.2C176.8,42,175.4,41,175.4,39.1z M181.5,38.5V38c-0.5-0.2-1.1-0.4-1.7-0.3c-1.1,0-1.8,0.5-1.8,1.3
							l0,0c0,0.7,0.6,1.1,1.4,1.1C180.7,40.2,181.5,39.5,181.5,38.5z"/>
						<path class="st3" d="M186.3,32.5h2.7v1.9c0.4-1.3,1.6-2.2,3-2.1v2.8h-0.1c-1.8,0-2.9,1.1-2.9,3.3v3.5h-2.7L186.3,32.5z"/>
						<path class="st3" d="M192.9,37.2L192.9,37.2c-0.1-2.6,1.9-4.8,4.4-4.9c0.1,0,0.1,0,0.2,0c3.1,0,4.6,2.4,4.6,5.1
							c0,0.2,0,0.5,0,0.7h-6.5c0.2,1.1,1.2,1.9,2.3,1.8c0.9,0,1.7-0.4,2.3-1l1.5,1.3c-1.8,2.1-5,2.3-7.1,0.4
							C193.6,39.8,193,38.6,192.9,37.2L192.9,37.2z M199.5,36.4c0-1.1-0.9-2-2-2c-1.1,0-1.8,0.8-2,2H199.5z"/>
						<path class="st3" d="M208.8,40l1.6-1.9c1,0.9,2.3,1.5,3.7,1.5c1.1,0,1.8-0.4,1.8-1.2l0,0c0-0.7-0.4-1-2.5-1.6
							c-2.5-0.6-4.1-1.3-4.1-3.8l0,0c0-2.2,1.8-3.7,4.3-3.7c1.7,0,3.3,0.5,4.6,1.5l-1.4,2c-0.9-0.7-2-1.1-3.2-1.2
							c-1,0-1.6,0.5-1.6,1.1l0,0c0,0.8,0.5,1.1,2.6,1.6c2.5,0.7,3.9,1.5,3.9,3.7l0,0c0,2.4-1.9,3.8-4.5,3.8
							C212.1,42,210.2,41.3,208.8,40z"/>
						<path class="st3" d="M220.6,32.5h2.7v1.3c0.7-1,1.8-1.6,2.9-1.5c2.2,0,4.3,1.7,4.3,4.8l0,0c0,3.1-2.1,4.8-4.3,4.8
							c-1.1,0-2.2-0.5-2.9-1.4v4h-2.7V32.5z M227.8,37.2L227.8,37.2c0.1-1.3-0.8-2.4-2-2.5c-1.3-0.1-2.4,0.8-2.5,2
							c0,0.2,0,0.4,0,0.5l0,0c-0.1,1.3,0.8,2.4,2,2.5c1.3,0.1,2.4-0.8,2.5-2C227.8,37.5,227.8,37.3,227.8,37.2z"/>
						<path class="st3" d="M231.9,37.2L231.9,37.2c-0.1-2.6,1.9-4.8,4.5-4.9c0.1,0,0.1,0,0.2,0c3.1,0,4.6,2.4,4.6,5.1
							c0,0.2,0,0.5,0,0.7h-6.5c0.2,1.1,1.2,1.9,2.3,1.8c0.9,0,1.7-0.4,2.3-1l1.5,1.3c-1.8,2.1-5,2.3-7.1,0.5
							C232.6,39.8,232,38.6,231.9,37.2L231.9,37.2z M238.6,36.4c0-1.1-0.9-2-2-2c-1.1,0-1.8,0.8-2,2H238.6z"/>
						<path class="st3" d="M243.1,32.5h2.7v1.3c0.6-0.9,1.6-1.5,2.8-1.5c2,0,3.2,1.3,3.2,3.5v6.1h-2.7v-5.2c0-1.3-0.6-1.9-1.6-1.9
							s-1.7,0.7-1.7,1.9v5.2h-2.7V32.5z"/>
						<path class="st3" d="M253.6,37.2L253.6,37.2c0-3.1,2-4.8,4.3-4.8c1.1,0,2.2,0.5,2.9,1.4V29h2.7v12.8h-2.7v-1.3
							c-0.7,1-1.8,1.5-2.9,1.5C255.7,42,253.6,40.3,253.6,37.2z M260.9,37.2L260.9,37.2c0.1-1.3-0.8-2.4-2-2.5
							c-1.3-0.1-2.4,0.8-2.5,2c0,0.2,0,0.4,0,0.5l0,0c-0.1,1.3,0.8,2.4,2,2.5c1.3,0.1,2.4-0.8,2.5-2
							C260.9,37.5,260.9,37.3,260.9,37.2z"/>
					</g>
					<g>
						<path class="st3" d="M30.5,56.2L30.5,56.2c-0.1-1.3,0.7-2.6,2-3c-1-0.5-1.6-1.6-1.5-2.7l0,0c0-1.9,1.7-3.4,4.3-3.4
							s4.3,1.5,4.3,3.4l0,0c0,1.1-0.6,2.2-1.6,2.7c1.2,0.4,2,1.6,2,2.9l0,0c0,2.3-2,3.6-4.7,3.6S30.5,58.4,30.5,56.2z M37.4,56
							L37.4,56c0-0.9-0.9-1.5-2.1-1.5s-2.1,0.6-2.1,1.5l0,0c0,0.8,0.8,1.5,2.1,1.5S37.4,56.9,37.4,56z M37,50.9L37,50.9
							c-0.1-0.9-0.8-1.5-1.7-1.4c0,0-0.1,0-0.1,0c-1.1,0-1.8,0.7-1.8,1.4l0,0c0,0.9,0.8,1.5,1.6,1.5c0,0,0.1,0,0.1,0
							c0.9,0.1,1.6-0.5,1.7-1.3C37,51,37,50.9,37,50.9z"/>
						<path class="st3" d="M47.7,57h-6l-0.4-1.9l6.7-7.8h2.3v7.5H52V57h-1.7v2.6h-2.6V57z M47.7,54.8V51l-3.3,3.8H47.7z"/>
						<path class="st3" d="M53.6,50.4L53.6,50.4c-0.1-1.7,1.2-3.1,2.9-3.1c0,0,0.1,0,0.1,0c1.6,0,3,1.3,3,2.9c0,0.1,0,0.2,0,0.2l0,0
							c0.1,1.7-1.2,3.1-2.9,3.1c0,0-0.1,0-0.1,0c-1.7,0-3-1.3-3-3C53.6,50.4,53.6,50.4,53.6,50.4z M63.8,47.4h2.1l-8.9,12.2h-2.1
							L63.8,47.4z M57.7,50.4L57.7,50.4c0-0.8-0.5-1.5-1.2-1.5s-1.1,0.7-1.1,1.5l0,0c0,0.8,0.5,1.5,1.2,1.5S57.7,51.2,57.7,50.4z
							 M61.2,56.6L61.2,56.6c-0.1-1.7,1.2-3.1,2.9-3.1c0,0,0.1,0,0.1,0c1.6,0,3,1.3,3,2.9c0,0.1,0,0.2,0,0.2l0,0
							c0.1,1.7-1.2,3.1-2.9,3.1c0,0-0.1,0-0.1,0c-1.6,0-3-1.3-3-2.9C61.1,56.8,61.1,56.7,61.2,56.6z M65.3,56.6L65.3,56.6
							c0-0.8-0.4-1.5-1.2-1.5S63,55.8,63,56.6l0,0c0,0.8,0.5,1.5,1.2,1.5C64.9,58.1,65.3,57.4,65.3,56.6z"/>
						<path class="st3" d="M74.6,47.3H84v2.5h-6.7v2.6h5.8v2.5h-5.8v4.7h-2.7V47.3z"/>
						<path class="st3" d="M84.8,56.9L84.8,56.9c0-2,1.6-3,3.8-3c0.8,0,1.6,0.1,2.3,0.4v-0.2c0-1.1-0.7-1.7-2-1.7
							c-0.9,0-1.8,0.2-2.6,0.5l-0.7-2c1.1-0.5,2.4-0.8,3.6-0.8c1.1-0.1,2.3,0.3,3.2,1c0.7,0.8,1.1,1.9,1,3v5.5h-2.6v-1
							c-0.7,0.8-1.8,1.2-2.8,1.2C86.3,59.8,84.8,58.8,84.8,56.9z M90.9,56.3v-0.5c-0.5-0.2-1.1-0.4-1.7-0.3c-1.1,0-1.8,0.5-1.8,1.3
							l0,0c0,0.7,0.6,1.1,1.4,1.1C90.1,57.9,90.9,57.2,90.9,56.3z"/>
						<path class="st3" d="M95,58.4l1.1-1.8c0.9,0.7,1.9,1.1,3,1.1c0.8,0,1.1-0.3,1.1-0.7l0,0c0-0.6-0.9-0.8-1.9-1.1
							c-1.3-0.4-2.8-1-2.8-2.8l0,0c0-1.9,1.5-3,3.4-3c1.3,0,2.5,0.4,3.5,1.1l-1,1.8c-0.8-0.5-1.6-0.8-2.5-0.9c-0.7,0-1,0.3-1,0.7
							l0,0c0,0.5,0.9,0.8,1.9,1.1c1.3,0.4,2.8,1.1,2.8,2.8l0,0c0,2.1-1.6,3-3.6,3C97.6,59.7,96.2,59.3,95,58.4z"/>
						<path class="st3" d="M104.8,56.9v-4.4h-1.1v-2.3h1.1v-2.4h2.7v2.4h2.2v2.3h-2.2v4c0,0.6,0.3,0.9,0.9,0.9
							c0.5,0,0.9-0.1,1.3-0.3v2.1c-0.6,0.4-1.4,0.6-2.1,0.5C105.9,59.8,104.8,59.1,104.8,56.9z"/>
						<path class="st3" d="M110.9,55L110.9,55c-0.2-2.6,1.8-4.8,4.3-5c0.1,0,0.2,0,0.3,0c3.1,0,4.6,2.4,4.6,5.1c0,0.2,0,0.5,0,0.7
							h-6.5c0.2,1.1,1.2,1.9,2.3,1.8c0.9,0,1.7-0.4,2.3-1l1.5,1.3c-1.8,2.1-5,2.3-7.1,0.4c-1-0.9-1.6-2.2-1.7-3.5L110.9,55z
							 M117.5,54.2c0-1.1-0.9-2-2-2c-1.1,0.1-1.9,0.9-2,2H117.5z"/>
						<path class="st3" d="M122.1,50.2h2.7v1.9c0.4-1.3,1.6-2.2,3-2.1v2.8h-0.1c-1.8,0-2.9,1.1-2.9,3.3v3.5h-2.7V50.2z"/>
						<path class="st3" d="M137.8,49.8h-3.7v-2.5h10.2v2.5h-3.7v9.8h-2.7L137.8,49.8z"/>
						<path class="st3" d="M145.9,46.8h2.8v2.4h-2.8V46.8z M146,50.2h2.7v9.4H146L146,50.2z"/>
						<path class="st3" d="M151.1,50.2h2.7v1.3c0.6-0.9,1.7-1.5,2.8-1.5c1.1-0.1,2.1,0.5,2.6,1.5c0.7-1,1.9-1.5,3.1-1.5
							c2,0,3.2,1.2,3.2,3.5v6.1h-2.7v-5.2c0-1.3-0.6-1.9-1.6-1.9s-1.6,0.7-1.6,1.9v5.2H157v-5.2c0-1.3-0.6-1.9-1.6-1.9
							s-1.6,0.7-1.6,1.9v5.2h-2.7L151.1,50.2z"/>
						<path class="st3" d="M167.3,55L167.3,55c-0.2-2.6,1.8-4.8,4.3-5c0.1,0,0.2,0,0.3,0c3.1,0,4.6,2.4,4.6,5.1c0,0.2,0,0.5,0,0.7
							H170c0.2,1.1,1.2,1.9,2.3,1.8c0.9,0,1.7-0.4,2.3-1l1.5,1.3c-1.8,2.1-5,2.3-7.1,0.4c-1-0.9-1.6-2.2-1.7-3.5L167.3,55z
							 M173.9,54.2c0-1.1-0.9-2-2-2c-1.1,0.1-1.9,0.9-2,2H173.9z"/>
						<path class="st3" d="M186.9,49.8h-3.7v-2.5h10.2v2.5h-3.7v9.8h-2.7L186.9,49.8z"/>
						<path class="st3" d="M192.8,55L192.8,55c0-2.8,2.3-5.1,5.1-5.1s5.1,2.3,5.1,5.1l0,0c0,2.7-2.2,4.9-5,4.9c0,0-0.1,0-0.1,0
							c-2.7,0.1-5-2-5.1-4.7C192.8,55.1,192.8,55.1,192.8,55z M200.4,55L200.4,55c0-1.4-1-2.5-2.4-2.6c0,0,0,0-0.1,0
							c-1.3,0-2.4,1-2.4,2.4c0,0.1,0,0.1,0,0.2l0,0c-0.1,1.4,1,2.5,2.4,2.6c0,0,0,0,0.1,0c1.3,0,2.4-1,2.4-2.4
							C200.4,55.1,200.4,55.1,200.4,55z"/>
						<path class="st3" d="M210.4,47.3h2.9l3.2,5.2l3.2-5.2h2.9v12.3H220v-8l-3.4,5.2h-0.1l-3.4-5.2v8h-2.6L210.4,47.3z"/>
						<path class="st3" d="M224.8,56.9L224.8,56.9c0-2,1.6-3,3.8-3c0.8,0,1.6,0.1,2.3,0.4v-0.2c0-1.1-0.7-1.7-2-1.7
							c-0.9,0-1.8,0.2-2.6,0.5l-0.7-2c1.1-0.5,2.4-0.8,3.6-0.8c1.1-0.1,2.3,0.3,3.2,1c0.7,0.8,1.1,1.9,1,3v5.5h-2.6v-1
							c-0.7,0.8-1.8,1.2-2.8,1.2C226.3,59.8,224.8,58.8,224.8,56.9z M230.9,56.3v-0.5c-0.5-0.2-1.1-0.4-1.7-0.3
							c-1.1,0-1.8,0.5-1.8,1.3l0,0c0,0.7,0.6,1.1,1.5,1.1C230.1,57.9,230.9,57.2,230.9,56.3z"/>
						<path class="st3" d="M235.7,50.2h2.7v1.9c0.4-1.3,1.6-2.2,3-2.1v2.8h-0.1c-1.8,0-2.9,1.1-2.9,3.3v3.5h-2.7L235.7,50.2z"/>
						<path class="st3" d="M243.1,46.8h2.7v6.8l3.1-3.4h3.2l-3.6,3.7l3.7,5.7h-3l-2.4-3.8l-0.9,1v2.8h-2.7L243.1,46.8z"/>
						<path class="st3" d="M252.5,55L252.5,55c-0.2-2.6,1.8-4.8,4.3-5c0.1,0,0.2,0,0.3,0c3.1,0,4.6,2.4,4.6,5.1c0,0.2,0,0.5,0,0.7
							h-6.5c0.2,1.1,1.2,1.9,2.3,1.8c0.9,0,1.7-0.4,2.3-1l1.5,1.3c-1.8,2.1-5,2.3-7.1,0.4c-1-0.9-1.6-2.2-1.7-3.5L252.5,55z
							 M259.1,54.2c0-1.1-0.9-2-2-2c-1.1,0.1-1.9,0.9-2,2H259.1z"/>
						<path class="st3" d="M264.2,56.9v-4.4H263v-2.3h1.1v-2.4h2.7v2.4h2.2v2.3h-2.2v4c0,0.6,0.3,0.9,0.9,0.9c0.5,0,0.9-0.1,1.3-0.3
							v2.1c-0.6,0.4-1.4,0.6-2.1,0.5C265.3,59.8,264.2,59.1,264.2,56.9z"/>
					</g>
				</g>
			</g>
			<g id="f3">
				<g id="c3">
					<g id="Just_add_metal">
						<g>
							<path class="st3" d="M32.2,38.2l3.4-3.2c0.7,1,1.8,1.7,3,1.8c1.3,0,2.2-0.9,2.2-2.7V21.9h5.3V34c0.2,2-0.5,3.9-1.9,5.4
								c-1.4,1.3-3.3,2.1-5.2,2C36.3,41.6,33.8,40.3,32.2,38.2z"/>
							<path class="st3" d="M49.5,32.7V21.9h5.4v10.7c0,2.8,1.4,4.1,3.5,4.1s3.5-1.3,3.5-4V21.9h5.4v10.6c0,6.2-3.5,8.9-9,8.9
								S49.5,38.7,49.5,32.7z"/>
							<path class="st3" d="M69.2,38.2l3-3.5c1.7,1.5,3.9,2.3,6.2,2.3c1.4,0,2.2-0.5,2.2-1.3l0,0c0-0.8-0.6-1.2-3.2-1.8
								c-4.1-0.9-7.2-2.1-7.2-6v0c0-3.6,2.8-6.1,7.4-6.1c2.9-0.1,5.7,0.8,7.9,2.6L82.8,28c-1.6-1.2-3.4-1.9-5.4-2
								c-1.3,0-1.9,0.5-1.9,1.2l0,0c0,0.9,0.7,1.3,3.3,1.9c4.4,1,7.2,2.4,7.2,6l0,0c0,3.9-3.1,6.3-7.8,6.3
								C75,41.5,71.8,40.3,69.2,38.2z"/>
							<path class="st3" d="M93.2,26.5h-5.8v-4.7h16.8v4.7h-5.8v14.5h-5.3V26.5z"/>
							<path class="st3" d="M120.8,21.7h5.2l8.2,19.3h-5.7l-1.4-3.4h-7.4l-1.4,3.4h-5.6L120.8,21.7z M125.5,33.5l-2.1-5.5l-2.2,5.5
								L125.5,33.5z"/>
							<path class="st3" d="M136,21.9h7.4c6.9,0,10.8,4,10.8,9.5v0c0,5.5-4,9.7-10.9,9.7H136V21.9z M143.5,36.3
								c3.2,0,5.3-1.8,5.3-4.9l0,0c0-3.1-2.1-4.9-5.3-4.9h-2.2v9.8L143.5,36.3z"/>
							<path class="st3" d="M157.1,21.9h7.4c6.9,0,10.8,4,10.8,9.5v0c0,5.5-4,9.7-10.9,9.7h-7.3V21.9z M164.6,36.3
								c3.2,0,5.3-1.8,5.3-4.9l0,0c0-3.1-2.1-4.9-5.3-4.9h-2.2v9.8L164.6,36.3z"/>
							<path class="st3" d="M185.7,21.9h5.6l4.6,7.4l4.6-7.4h5.6v19.2h-5.3V30l-4.9,7.5h-0.1l-4.9-7.5v11h-5.2L185.7,21.9z"/>
							<path class="st3" d="M209.9,21.9h15.4v4.5h-10.2v2.9h9.2v4.2h-9.2v3h10.3V41h-15.6V21.9z"/>
							<path class="st3" d="M233,26.5h-5.8v-4.7h16.9v4.7h-5.8v14.5H233V26.5z"/>
							<path class="st3" d="M250.6,21.7h5.1l8.2,19.3h-5.7l-1.4-3.4h-7.4l-1.4,3.4h-5.6L250.6,21.7z M255.2,33.5l-2.1-5.5l-2.1,5.5
								H255.2z"/>
							<path class="st3" d="M265.8,21.9h5.3v14.5h9.3v4.7h-14.6V21.9z"/>
						</g>
					</g>
				</g>
				<g id="cta">
					<g>
						<defs>
							<rect id="SVGID_3_" x="32.4" y="53.7" width="91.4" height="21.9"/>
						</defs>
						<clipPath id="SVGID_4_">
							<use xlink:href="#SVGID_3_"  style="overflow:visible;"/>
						</clipPath>
						<g class="st4">
							<g>
								<defs>
									<rect id="SVGID_5_" x="32.4" y="53.7" width="91.4" height="21.9"/>
								</defs>
								<clipPath id="SVGID_6_">
									<use xlink:href="#SVGID_5_"  style="overflow:visible;"/>
								</clipPath>
								<g class="st5">
									
										<linearGradient id="cta-glow_1_" gradientUnits="userSpaceOnUse" x1="22.7406" y1="35.6174" x2="-71.9994" y2="14.3574" gradientTransform="matrix(1 0 0 -1 0 92)">
										<stop  offset="0" style="stop-color:#000000"/>
										<stop  offset="0.24" style="stop-color:#FFFFFF"/>
										<stop  offset="0.46" style="stop-color:#000000"/>
										<stop  offset="0.71" style="stop-color:#FFFFFF"/>
										<stop  offset="1" style="stop-color:#000000"/>
									</linearGradient>
									<rect id="cta-glow" x="-218.3" y="19.1" class="st6" width="372.5" height="99.1"/>
								</g>
							</g>
							<g id="Learn_more">
								<g>
									<path class="st3" d="M44.3,66.9l1-1.2c0.6,0.5,1.4,0.8,2.2,0.8c0.5,0,0.8-0.2,0.8-0.4l0,0c0-0.3-0.2-0.4-1.1-0.6
										c-1.4-0.3-2.5-0.7-2.5-2.1l0,0c0-1.2,1-2.1,2.6-2.1c1,0,2,0.3,2.8,0.9L49,63.3c-0.5-0.4-1.2-0.6-1.9-0.7
										c-0.5,0-0.7,0.2-0.7,0.4l0,0c0,0.3,0.2,0.4,1.2,0.7c1.5,0.3,2.5,0.8,2.5,2.1l0,0c0,1.4-1.1,2.2-2.7,2.2
										C46.3,68,45.1,67.6,44.3,66.9z"/>
									<path class="st3" d="M50.8,65.3L50.8,65.3c-0.1-1.4,1-2.6,2.5-2.7c0,0,0.1,0,0.1,0c1.4,0,2.6,1.1,2.6,2.5
										c0,0.1,0,0.2,0,0.3c0,0.1,0,0.2,0,0.4h-3.4c0.1,0.5,0.6,0.9,1.1,0.8c0.4,0,0.9-0.2,1.1-0.5l1,0.8c-0.5,0.7-1.4,1-2.2,1
										c-1.4,0.1-2.7-1-2.8-2.4C50.8,65.4,50.8,65.4,50.8,65.3z M54.3,64.9c-0.1-0.6-0.4-0.9-0.9-0.9s-0.8,0.4-0.9,0.9H54.3z"/>
									<path class="st3" d="M56.7,65.3L56.7,65.3c-0.1-1.4,1-2.6,2.5-2.7c0,0,0.1,0,0.1,0c1.4,0,2.6,1.1,2.6,2.5
										c0,0.1,0,0.2,0,0.4c0,0.1,0,0.2,0,0.4h-3.5c0.1,0.5,0.6,0.9,1.1,0.8c0.4,0,0.9-0.2,1.2-0.5l1,0.8c-0.5,0.7-1.4,1-2.2,1
										c-1.4,0.1-2.7-1-2.8-2.4C56.7,65.5,56.7,65.4,56.7,65.3z M60.2,64.9c0-0.5-0.4-0.9-0.9-0.9c0,0,0,0,0,0
										c-0.5,0-0.8,0.4-0.9,0.9H60.2z"/>
									<path class="st3" d="M67.1,62.8h-2v-1.6h5.9v1.6h-2v5h-1.9V62.8z"/>
									<path class="st3" d="M71.7,60.9h1.8v2.5c0.3-0.5,0.9-0.8,1.5-0.8c0.9,0,1.7,0.7,1.8,1.6c0,0.1,0,0.2,0,0.3v3.4H75v-2.8
										c0-0.6-0.3-0.9-0.7-0.9c-0.4,0-0.8,0.3-0.8,0.8c0,0,0,0.1,0,0.1v2.8h-1.8V60.9z"/>
									<path class="st3" d="M77.7,65.3L77.7,65.3c-0.1-1.4,1-2.6,2.5-2.7c0,0,0.1,0,0.1,0c1.4,0,2.6,1.1,2.6,2.5
										c0,0.1,0,0.2,0,0.4c0,0.1,0,0.2,0,0.4h-3.5c0.1,0.5,0.6,0.9,1.1,0.8c0.4,0,0.9-0.2,1.1-0.5l1,0.8c-0.5,0.7-1.4,1-2.2,1
										c-1.4,0.1-2.7-1-2.7-2.4C77.7,65.5,77.7,65.4,77.7,65.3z M81.2,64.9c-0.1-0.6-0.4-0.9-0.9-0.9s-0.8,0.4-0.9,0.9H81.2z"/>
									<path class="st3" d="M85.9,66.9l1-1.2c0.6,0.5,1.4,0.8,2.2,0.8c0.5,0,0.8-0.2,0.8-0.4l0,0c0-0.3-0.2-0.4-1.1-0.6
										c-1.4-0.3-2.5-0.7-2.5-2.1l0,0c0-1.2,1-2.1,2.6-2.1c1,0,2,0.3,2.8,0.9l-0.9,1.3c-0.5-0.4-1.2-0.6-1.9-0.7
										c-0.4,0-0.7,0.2-0.7,0.4l0,0c0,0.3,0.2,0.4,1.2,0.7c1.5,0.3,2.5,0.8,2.5,2.1l0,0c0,1.4-1.1,2.2-2.7,2.2
										C87.9,68,86.8,67.6,85.9,66.9z"/>
									<path class="st3" d="M92.9,66.2v-2.1h-0.6v-1.5h0.6v-1.3h1.8v1.3H96v1.5h-1.2v1.8c0,0.4,0.2,0.5,0.5,0.5
										c0.2,0,0.5-0.1,0.7-0.2v1.4c-0.4,0.2-0.8,0.3-1.3,0.3c-0.8,0.2-1.6-0.4-1.8-1.2C92.9,66.6,92.9,66.4,92.9,66.2z"/>
									<path class="st3" d="M96.6,65.3L96.6,65.3c0-1.5,1.3-2.7,2.8-2.7c0,0,0,0,0.1,0c1.5-0.1,2.8,1.1,2.8,2.6c0,0,0,0.1,0,0.1
										l0,0c0,1.5-1.3,2.7-2.8,2.7c0,0-0.1,0-0.1,0c-1.5,0.1-2.8-1.1-2.8-2.6C96.6,65.4,96.6,65.3,96.6,65.3z M100.6,65.3
										L100.6,65.3c0-0.6-0.4-1.1-1.1-1.2c0,0,0,0,0,0c-0.6,0-1.1,0.5-1.1,1.1c0,0,0,0,0,0.1l0,0c0,0.6,0.5,1.1,1.1,1.2
										c0,0,0,0,0,0C100.1,66.4,100.6,65.9,100.6,65.3C100.6,65.3,100.6,65.3,100.6,65.3z"/>
									<path class="st3" d="M103.2,62.7h1.8v1c0.2-0.7,0.9-1.2,1.6-1.1v1.9h-0.2c-0.9,0-1.5,0.5-1.5,1.7v1.6h-1.8L103.2,62.7z"/>
									<path class="st3" d="M107.4,69l0.6-1.3c0.2,0.2,0.5,0.3,0.8,0.3c0.2,0,0.3-0.1,0.4-0.2l-2-5.1h1.9l1,3.1l1-3.1h1.9l-1.9,5
										c-0.4,1.2-0.9,1.7-2,1.7C108.5,69.4,107.9,69.3,107.4,69z"/>
								</g>
							</g>
							<rect id="Rectangle_5685-2" x="32.4" y="53.7" class="st7" width="91.4" height="21.9"/>
						</g>
					</g>
				</g>
			</g>
		</g>
	</g>
	<g id="Logo">
		<path id="chevon_shape" class="st3" d="M727.8,41.9h-86.5l-25.3,39.9h111.8V41.9z"/>
		<g id="Grupo_12756">
			<g id="Group_2">
				<path id="X" class="st8" d="M704.1,68.6l-1.8,2l-1.8-2h-1l2.2,2.5L699,74h1l2.2-2.4l2.1,2.4h1.1l-2.7-2.9l2.2-2.5H704.1z"/>
				<rect id="I" x="694.4" y="68.6" class="st8" width="0.8" height="5.4"/>
				<path id="N" class="st8" d="M688.9,68.6v4.2l-3.8-4.2h-0.8V74h0.8v-4.3L689,74h0.8v-5.4H688.9z"/>
				<rect id="I-2" x="678.9" y="68.6" class="st8" width="0.8" height="5.4"/>
				<path id="U" class="st8" d="M673.7,71.8c0.1,0.8-0.6,1.6-1.4,1.6h-0.2c-0.8,0-1.5-0.6-1.5-1.4c0,0,0,0,0,0c0-0.1,0-0.1,0-0.2
					v-3.3h-0.8v3.3c-0.1,1.2,0.9,2.2,2.1,2.3c0,0,0,0,0,0h0.2c1.2,0.1,2.2-0.8,2.4-1.9c0-0.1,0-0.2,0-0.3v-3.3h-0.8L673.7,71.8z"/>
				<path id="Q" class="st8" d="M663,68.3c-1.6,0-2.8,1.2-2.9,2.8v0.2c0,1.5,1.2,2.8,2.7,2.9h0.2c0.4,0,0.9-0.1,1.3-0.3l0.4,0.5h0.9
					l-0.8-0.9c0.7-0.6,1.1-1.4,1-2.3l0,0c0-1.5-1.2-2.8-2.7-2.9L663,68.3 M665.1,71.3c0,0.6-0.2,1.3-0.7,1.7l-0.4-0.5h-0.9l0.7,0.9
					c-0.2,0.1-0.5,0.2-0.8,0.2c-1.2,0-2.1-1-2.1-2.1l0,0v-0.1c-0.1-1.1,0.8-2.1,1.9-2.2c0,0,0,0,0,0h0.1
					C664.2,69.1,665.1,70.1,665.1,71.3L665.1,71.3L665.1,71.3z"/>
				<path id="E" class="st8" d="M652.3,68.6V74h4.8v-0.7h-4v-1.8h2.7v-0.7h-2.7v-1.5h3.9v-0.7L652.3,68.6z"/>
			</g>
			<g id="icon_group">
				<path id="icon" class="st9" d="M679.3,48.7l-2.2,0.8v11.6l-1.5-0.5V49.9l-4.4,1.5V59l-1.5-0.5v-6.4l-1.5,0.5v7l4.4,1.5v-8.5
					l1.5-0.5v9.5l4.4,1.5V50.5l0.7-0.3l0.7,0.3v12.6l4.4-1.5v-9.5l1.5,0.5v8.5l4.4-1.5v-7l-1.5-0.5v6.4l-1.5,0.5v-7.5l-4.4-1.5v10.6
					l-1.5,0.5V49.5L679.3,48.7z"/>
				<path id="R" class="st9" d="M693.1,59c0.7,0,1.3-0.6,1.3-1.3c0,0,0,0,0,0l0,0c0-0.7-0.6-1.3-1.3-1.3c-0.7,0-1.3,0.6-1.3,1.3l0,0
					C691.8,58.4,692.4,59,693.1,59L693.1,59 M693.1,58.9c-0.6,0-1.1-0.5-1.2-1.1l0,0l0,0c0-0.6,0.5-1.2,1.1-1.2
					c0.6,0,1.2,0.5,1.2,1.1l0,0v0.1l0,0C694.3,58.4,693.8,59,693.1,58.9L693.1,58.9 M692.6,58.4h0.3V58h0.2l0.3,0.4h0.4l-0.4-0.5
					c0.2-0.1,0.3-0.2,0.3-0.4c0-0.3-0.2-0.5-0.5-0.5h-0.7L692.6,58.4z M692.9,57.7v-0.4h0.3c0.1,0,0.2,0.1,0.2,0.2s-0.1,0.2-0.2,0.2
					H692.9z"/>
			</g>
		</g>
	</g>
	
		<image style="overflow:visible;enable-background:new    ;" width="400" height="214" id="Logo_Dizzion" xlink:href="awareness35.png"  transform="matrix(0.1412 0 0 0.1412 654.4467 6.3099)">
	</image>
</g>
</svg>
