<?xml version="1.0" encoding="utf-8"?>
<!-- Generator: Adobe Illustrator 25.1.0, SVG Export Plug-In . SVG Version: 6.00 Build 0)  -->
<svg version="1.1" id="Layer_2_1_" xmlns="http://www.w3.org/2000/svg" xmlns:xlink="http://www.w3.org/1999/xlink" x="0px" y="0px"
	 viewBox="0 0 300 250" style="enable-background:new 0 0 300 250;" xml:space="preserve">
<style type="text/css">
	.st0{fill:url(#SVGID_1_);}
	.st1{opacity:0.803;clip-path:url(#SVGID_3_);}
	.st2{fill:url(#Rectangle_6104_1_);}
	.st3{fill:#FFFFFF;}
	.st4{fill:#FFC100;}
	.st5{clip-path:url(#cta-mask_1_);fill:#FFC100;}
	.st6{clip-path:url(#cta-mask_1_);enable-background:new    ;}
	.st7{enable-background:new    ;}
</style>
<g id="bgsil">
	
		<radialGradient id="SVGID_1_" cx="-461.9549" cy="1480.2729" r="301.2723" fx="-419.6522" fy="1181.9854" gradientTransform="matrix(-0.9659 0.2589 0.1854 0.6916 -422.6448 -856.6577)" gradientUnits="userSpaceOnUse">
		<stop  offset="0.5793" style="stop-color:#000000;stop-opacity:0"/>
		<stop  offset="0.9384" style="stop-color:#000000;stop-opacity:0.6913"/>
		<stop  offset="1" style="stop-color:#000000;stop-opacity:0.81"/>
	</radialGradient>
	<rect class="st0" width="300" height="250"/>
</g>
<g id="logo" transform="translate(-1000)">
	<g>
		<g>
			<defs>
				<rect id="SVGID_2_" x="1500" y="174.9" width="144" height="75"/>
			</defs>
			<clipPath id="SVGID_3_">
				<use xlink:href="#SVGID_2_"  style="overflow:visible;"/>
			</clipPath>
			<g id="Mask_Group_202" transform="translate(500)" class="st1">
				
					<radialGradient id="Rectangle_6104_1_" cx="111.3246" cy="-2.6862" r="0.3107" gradientTransform="matrix(4.958878e-15 88 -210.56 1.400996e-14 7.277 -9577.9023)" gradientUnits="userSpaceOnUse">
					<stop  offset="0" style="stop-color:#000000"/>
					<stop  offset="0.626" style="stop-color:#000000;stop-opacity:0.478"/>
					<stop  offset="1" style="stop-color:#000000;stop-opacity:0"/>
				</radialGradient>
				<path id="Rectangle_6104" class="st2" d="M641,191.4v49.9c0,2.5-1.8,4.5-4.1,4.5H504.1c-2.3,0-4.1-2-4.1-4.5v-49.9
					c0-2.5,1.8-4.5,4.1-4.5h132.7C639.2,187,641,189,641,191.4z"/>
			</g>
		</g>
	</g>
	<g id="Group_12262" transform="translate(1278.635 659.491)">
		<g id="Group_12090" transform="translate(30.381 2.214)">
			<path id="Path_17059" class="st3" d="M-255.8-438c-1.5,0.1-3-0.4-4.3-1.3l1-1.7c1,0.7,2.1,1,3.3,1c0.5,0,1-0.1,1.4-0.2
				c0.3-0.1,0.5-0.4,0.5-0.7c0-0.3-0.2-0.5-0.6-0.7c-0.5-0.2-1-0.3-1.5-0.4c-0.6-0.1-1.2-0.2-1.8-0.3c-0.6-0.1-1.1-0.4-1.5-0.8
				s-0.6-1-0.6-1.6c0-0.9,0.5-1.8,1.2-2.2c0.9-0.5,1.8-0.8,2.8-0.8c0.7,0,1.4,0.1,2.1,0.3c0.7,0.2,1.3,0.4,1.9,0.7l-1,1.8
				c-0.9-0.5-1.9-0.8-3-0.8c-0.4,0-0.9,0.1-1.3,0.2c-0.3,0.1-0.5,0.3-0.5,0.6c0,0.2,0.2,0.4,0.5,0.5c0.4,0.1,0.8,0.2,1.2,0.3
				c0.5,0.1,1,0.1,1.5,0.3c0.5,0.1,1,0.3,1.5,0.4c0.5,0.2,0.9,0.5,1.2,0.9s0.5,0.9,0.5,1.5c0,0.7-0.2,1.3-0.7,1.8s-1,0.8-1.7,1
				C-254.4-438.1-255.1-438-255.8-438z"/>
			<path id="Path_17060" class="st4" d="M-247.4-449.3c-0.3,0.3-0.7,0.5-1.2,0.5s-0.9-0.2-1.2-0.5s-0.5-0.7-0.5-1.2
				c0-0.4,0.2-0.9,0.5-1.2c0.3-0.3,0.7-0.5,1.2-0.5c0.4,0,0.9,0.2,1.2,0.5s0.5,0.7,0.5,1.2C-246.9-450.1-247.1-449.6-247.4-449.3z"
				/>
			<rect id="Rectangle_6020" x="-249.9" y="-447.5" class="st3" width="2.6" height="9.3"/>
			<path id="Path_17061" class="st3" d="M-241.7-438c-1.5,0.1-3-0.4-4.3-1.3l1-1.7c1,0.7,2.1,1,3.3,1c0.5,0,1-0.1,1.4-0.2
				c0.3-0.1,0.5-0.4,0.5-0.7c0-0.3-0.2-0.5-0.6-0.7c-0.5-0.2-1-0.3-1.5-0.4c-0.6-0.1-1.2-0.2-1.8-0.3c-0.6-0.1-1.1-0.4-1.5-0.8
				s-0.6-1-0.6-1.6c0-0.9,0.5-1.8,1.2-2.2c0.9-0.5,1.8-0.8,2.8-0.8c0.7,0,1.4,0.1,2.1,0.3c0.7,0.2,1.3,0.4,1.9,0.7l-1,1.8
				c-0.9-0.5-1.9-0.8-3-0.8c-0.4,0-0.9,0.1-1.3,0.2c-0.3,0.1-0.5,0.3-0.5,0.6c0,0.2,0.2,0.4,0.5,0.5c0.4,0.1,0.8,0.2,1.2,0.3
				c0.5,0.1,1,0.1,1.5,0.3c0.5,0.1,1,0.3,1.5,0.4c0.5,0.2,0.9,0.5,1.2,0.9s0.5,0.9,0.5,1.5c0,0.7-0.2,1.3-0.7,1.8s-1,0.8-1.7,1
				C-240.3-438.1-241-438-241.7-438z"/>
			<path id="Path_17062" class="st3" d="M-231.2-438c-1.4,0.1-2.7-0.4-3.8-1.4c-1-0.9-1.5-2.2-1.5-3.6c0-1.3,0.5-2.6,1.4-3.5
				c1-0.9,2.4-1.4,3.7-1.4c1.4-0.1,2.8,0.5,3.7,1.6s1.4,2.5,1.3,4h-7.6c0.1,0.6,0.4,1.2,0.9,1.6s1.2,0.6,1.8,0.5
				c0.9,0,1.8-0.3,2.4-0.9l1.8,1.2C-228-438.6-229.6-437.9-231.2-438z M-233.8-443.8h4.8c-0.1-0.6-0.3-1.1-0.8-1.5
				c-0.4-0.4-1-0.6-1.6-0.6s-1.2,0.2-1.7,0.5C-233.4-444.9-233.7-444.4-233.8-443.8z"/>
			<path id="Path_17063" class="st3" d="M-222.3-438.3h-2.6v-9.3h2.3l0.3,1.3c0.8-1,2-1.6,3.3-1.5c2.2,0,3.4,1.2,3.4,3.7v5.8h-2.6
				v-5.5c0.1-0.9-0.5-1.7-1.4-1.8c-0.1,0-0.3,0-0.4,0c-0.9,0-1.8,0.4-2.2,1.3L-222.3-438.3z"/>
			<path id="Path_17064" class="st3" d="M-210.3-438c-1.5,0.1-3-0.4-4.3-1.3l1-1.7c1,0.7,2.1,1,3.3,1c0.5,0,1-0.1,1.4-0.2
				c0.3-0.1,0.5-0.4,0.5-0.7c0-0.3-0.2-0.5-0.6-0.7c-0.5-0.2-1-0.3-1.5-0.4c-0.6-0.1-1.2-0.2-1.8-0.3c-0.6-0.1-1.1-0.4-1.5-0.8
				s-0.6-1-0.6-1.6c0-0.9,0.5-1.8,1.2-2.2c0.9-0.5,1.8-0.8,2.8-0.8c0.7,0,1.4,0.1,2.1,0.3c0.7,0.2,1.3,0.4,1.9,0.7l-1,1.8
				c-0.9-0.5-1.9-0.8-3-0.8c-0.4,0-0.9,0.1-1.3,0.2c-0.3,0.1-0.5,0.3-0.5,0.6c0,0.2,0.2,0.4,0.5,0.5c0.4,0.1,0.8,0.2,1.2,0.3
				c0.5,0.1,1,0.1,1.5,0.3c0.5,0.1,1,0.3,1.5,0.4c0.5,0.2,0.9,0.5,1.1,0.9c0.3,0.4,0.5,0.9,0.5,1.5c0,0.7-0.2,1.3-0.7,1.8
				s-1,0.8-1.7,1C-208.8-438.1-209.6-438-210.3-438z"/>
			<path id="Path_17065" class="st3" d="M-199.8-438c-1.4,0.1-2.7-0.4-3.8-1.4c-1-0.9-1.5-2.2-1.5-3.6c0-1.3,0.5-2.6,1.4-3.5
				c1-0.9,2.4-1.4,3.7-1.4c1.4-0.1,2.8,0.5,3.7,1.6s1.4,2.5,1.3,4h-7.6c0.1,0.6,0.4,1.2,0.9,1.6s1.2,0.6,1.8,0.5
				c0.9,0,1.8-0.3,2.4-0.9l1.8,1.2C-196.5-438.6-198.1-437.9-199.8-438z M-202.3-443.8h4.8c-0.1-0.6-0.3-1.1-0.8-1.5
				c-0.4-0.4-1-0.6-1.6-0.6s-1.2,0.2-1.7,0.5C-201.9-444.9-202.2-444.4-202.3-443.8z"/>
		</g>
		<g id="Group_12091" transform="translate(0 0)">
			<path id="Path_17066" class="st4" d="M-242.3-440.4L-242.3-440.4c-1.9,0-3.4-1.5-3.4-3.4s1.5-3.4,3.4-3.4c0,0,0,0,0.1,0v-4.4
				h-0.1c-4.3,0-7.7,3.5-7.7,7.7c0,4.3,3.5,7.7,7.7,7.7h0.1v-4.2H-242.3z"/>
			<path id="Path_17067" class="st3" d="M-240.2-434.8L-240.2-434.8c1.9,0,3.4-1.5,3.4-3.4s-1.5-3.4-3.4-3.4c0,0,0,0-0.1,0v-4.4h0.1
				c4.3,0,7.7,3.5,7.7,7.7s-3.5,7.7-7.7,7.7l0,0h-0.1v-4.2H-240.2z"/>
		</g>
	</g>
</g>
<g id="cta">
	<defs>
		<rect id="cta-mask" x="21.2" y="47.6" width="108" height="50.1"/>
	</defs>
	<clipPath id="cta-mask_1_">
		<rect id="cta-mask" x="21.2" y="47.6" width="108" height="50.1"/>
	</clipPath>
	<path id="cta-bg" class="st5" d="M31.7,59.8h95.5c0.8,0,1.5,0.7,1.5,1.5l0,0v20.6c0,0.8-0.7,1.5-1.5,1.5l0,0H31.7
		c-0.8,0-1.5-0.7-1.5-1.5l0,0V61.3C30.2,60.4,30.8,59.8,31.7,59.8z"/>
	<g class="st6">
		<path d="M51,75.2v-7.6h1.3v6.6h3.2v1.1H51V75.2z"/>
		<path d="M59.2,75.3c-0.9,0-1.6-0.3-2.1-0.8s-0.8-1.2-0.8-2.2c0-0.9,0.2-1.7,0.7-2.2s1.1-0.8,1.9-0.8c0.8,0,1.4,0.2,1.8,0.7
			s0.7,1.1,0.7,1.9v0.7h-3.9c0,0.6,0.2,1,0.5,1.3s0.7,0.5,1.2,0.5c0.3,0,0.7,0,1-0.1s0.6-0.2,0.9-0.3v1c-0.3,0.1-0.6,0.2-0.9,0.3
			C60,75.2,59.6,75.3,59.2,75.3z M59,70.2c-0.4,0-0.7,0.1-0.9,0.4c-0.2,0.2-0.4,0.6-0.4,1.1h2.6c0-0.5-0.1-0.8-0.3-1.1
			C59.7,70.3,59.4,70.2,59,70.2z"/>
		<path d="M66.5,75.2l-0.2-0.8l0,0c-0.3,0.4-0.6,0.6-0.8,0.7c-0.3,0.1-0.6,0.2-1.1,0.2c-0.6,0-1-0.2-1.3-0.5s-0.5-0.7-0.5-1.3
			c0-0.6,0.2-1,0.7-1.4c0.4-0.3,1.1-0.5,2-0.5h1v-0.3c0-0.4-0.1-0.6-0.3-0.8c-0.2-0.2-0.4-0.3-0.8-0.3c-0.3,0-0.6,0-0.9,0.1
			c-0.3,0.1-0.5,0.2-0.8,0.3l-0.4-0.9c0.3-0.2,0.7-0.3,1-0.4c0.4-0.1,0.7-0.1,1.1-0.1c0.7,0,1.3,0.2,1.7,0.5s0.6,0.8,0.6,1.5v3.9
			L66.5,75.2L66.5,75.2z M64.6,74.3c0.4,0,0.8-0.1,1.1-0.4c0.3-0.2,0.4-0.6,0.4-1v-0.5h-0.7c-0.6,0-1,0.1-1.3,0.3
			c-0.3,0.2-0.4,0.4-0.4,0.8c0,0.3,0.1,0.5,0.2,0.6C64.1,74.2,64.3,74.3,64.6,74.3z"/>
		<path d="M72,69.3c0.2,0,0.5,0,0.6,0.1l-0.1,1.1c-0.2,0-0.4-0.1-0.5-0.1c-0.5,0-0.9,0.2-1.2,0.5s-0.5,0.7-0.5,1.3v3h-1.2v-5.8h1
			l0.2,1h0.1c0.2-0.3,0.4-0.6,0.8-0.8S71.7,69.3,72,69.3z"/>
		<path d="M78.8,75.2h-1.2v-3.6c0-0.4-0.1-0.8-0.3-1s-0.5-0.3-0.9-0.3c-0.5,0-0.9,0.2-1.1,0.5c-0.2,0.3-0.4,0.8-0.4,1.5v2.9h-1.2
			v-5.8h1l0.2,0.8H75c0.2-0.3,0.4-0.5,0.7-0.6s0.7-0.2,1.1-0.2c1.4,0,2.1,0.7,2.1,2.1v3.7H78.8z"/>
		<path d="M86.7,75.2l-2.2-6.4l0,0c0.1,0.9,0.1,1.8,0.1,2.7v3.7h-1.1v-7.6h1.8l2.1,6.1l0,0l2.2-6.1h1.8v7.6h-1.2v-3.8
			c0-0.4,0-0.9,0-1.5s0-1,0-1.1l0,0l-2.3,6.4L86.7,75.2L86.7,75.2z"/>
		<path d="M98.3,72.3c0,0.9-0.2,1.7-0.7,2.2s-1.2,0.8-2,0.8c-0.5,0-1-0.1-1.4-0.4s-0.7-0.6-1-1.1c-0.2-0.5-0.3-1-0.3-1.6
			c0-0.9,0.2-1.7,0.7-2.2s1.2-0.8,2-0.8s1.5,0.3,2,0.8C98.1,70.6,98.3,71.3,98.3,72.3z M94.1,72.3c0,1.3,0.5,2,1.5,2s1.5-0.7,1.5-2
			s-0.5-2-1.5-2c-0.5,0-0.9,0.2-1.1,0.5S94.1,71.6,94.1,72.3z"/>
		<path d="M102.6,69.3c0.2,0,0.5,0,0.6,0.1l-0.1,1.1c-0.2,0-0.4-0.1-0.5-0.1c-0.5,0-0.9,0.2-1.2,0.5s-0.5,0.7-0.5,1.3v3h-1.2v-5.8h1
			l0.2,1h0.1c0.2-0.3,0.4-0.6,0.8-0.8S102.3,69.3,102.6,69.3z"/>
		<path d="M106.9,75.3c-0.9,0-1.6-0.3-2.1-0.8s-0.8-1.2-0.8-2.2c0-0.9,0.2-1.7,0.7-2.2s1.1-0.8,1.9-0.8c0.8,0,1.4,0.2,1.8,0.7
			s0.7,1.1,0.7,1.9v0.7h-3.9c0,0.6,0.2,1,0.5,1.3s0.7,0.5,1.2,0.5c0.3,0,0.7,0,1-0.1s0.6-0.2,0.9-0.3v1c-0.3,0.1-0.6,0.2-0.9,0.3
			C107.6,75.2,107.3,75.3,106.9,75.3z M106.6,70.2c-0.4,0-0.7,0.1-0.9,0.4c-0.2,0.2-0.4,0.6-0.4,1.1h2.6c0-0.5-0.1-0.8-0.3-1.1
			C107.3,70.3,107,70.2,106.6,70.2z"/>
	</g>
</g>
<g id="c2">
	<g class="st7">
		<path class="st3" d="M43.7,44.3h-1.5l-2.7-9c-0.1-0.4-0.3-0.9-0.4-1.5c-0.2-0.6-0.2-1-0.2-1.1c-0.1,0.8-0.3,1.7-0.6,2.6l-2.6,8.9
			h-1.5l-3.6-13.4H32l2.1,8.3c0.3,1.2,0.5,2.2,0.6,3.1c0.2-1.1,0.4-2.2,0.7-3.3l2.4-8.1h1.6l2.5,8.2c0.3,0.9,0.5,2,0.7,3.2
			c0.1-0.9,0.3-1.9,0.7-3.2l2.1-8.2H47L43.7,44.3z"/>
		<path class="st3" d="M56,44.3v-6.5c0-0.8-0.2-1.4-0.6-1.8c-0.4-0.4-1-0.6-1.7-0.6c-1.1,0-1.8,0.3-2.3,0.9s-0.7,1.5-0.7,2.8v5.2
			h-1.5V30.1h1.5v4.3c0,0.5,0,0.9-0.1,1.3h0.1c0.3-0.5,0.7-0.9,1.3-1.1c0.6-0.3,1.2-0.4,1.9-0.4c1.2,0,2.1,0.3,2.8,0.9
			c0.6,0.6,0.9,1.5,0.9,2.8v6.5H56V44.3z"/>
		<path class="st3" d="M64.9,44.5c-1.5,0-2.7-0.5-3.5-1.4c-0.9-0.9-1.3-2.2-1.3-3.8s0.4-2.9,1.2-3.9s1.9-1.4,3.2-1.4
			c1.3,0,2.3,0.4,3,1.2s1.1,1.9,1.1,3.3v1h-6.9c0,1.2,0.3,2.1,0.9,2.7s1.4,0.9,2.4,0.9c1.1,0,2.1-0.2,3.2-0.7v1.4
			c-0.5,0.2-1,0.4-1.5,0.5C66.1,44.4,65.5,44.5,64.9,44.5z M64.4,35.4c-0.8,0-1.4,0.3-1.9,0.8s-0.8,1.3-0.8,2.2h5.2
			c0-1-0.2-1.7-0.6-2.2C65.8,35.6,65.2,35.4,64.4,35.4z"/>
		<path class="st3" d="M78,44.3v-6.5c0-0.8-0.2-1.4-0.6-1.8c-0.4-0.4-1-0.6-1.7-0.6c-1.1,0-1.8,0.3-2.3,0.9
			c-0.5,0.6-0.7,1.5-0.7,2.8v5.3h-1.5v-10h1.2l0.2,1.4h0.1c0.3-0.5,0.7-0.9,1.3-1.1c0.6-0.3,1.2-0.4,1.9-0.4c1.2,0,2.1,0.3,2.7,0.9
			c0.6,0.6,0.9,1.5,0.9,2.8v6.5H78V44.3z"/>
		<path class="st3" d="M86.9,44.5c-1.5,0-2.7-0.5-3.5-1.4c-0.9-0.9-1.3-2.2-1.3-3.8s0.4-2.9,1.2-3.9s1.9-1.4,3.2-1.4
			c1.3,0,2.3,0.4,3,1.2s1.1,1.9,1.1,3.3v1h-6.9c0,1.2,0.3,2.1,0.9,2.7s1.4,0.9,2.4,0.9c1.1,0,2.1-0.2,3.2-0.7v1.4
			c-0.5,0.2-1,0.4-1.5,0.5C88.1,44.4,87.6,44.5,86.9,44.5z M86.5,35.4c-0.8,0-1.4,0.3-1.9,0.8s-0.8,1.3-0.8,2.2H89
			c0-1-0.2-1.7-0.6-2.2C87.9,35.6,87.3,35.4,86.5,35.4z"/>
		<path class="st3" d="M95.4,44.3l-3.8-10h1.6l2.2,6c0.5,1.4,0.8,2.3,0.9,2.7h0.1c0.1-0.3,0.3-1,0.6-2s1.2-3.2,2.4-6.7h1.6l-3.8,10
			H95.4z"/>
		<path class="st3" d="M106.8,44.5c-1.5,0-2.7-0.5-3.5-1.4c-0.9-0.9-1.3-2.2-1.3-3.8s0.4-2.9,1.2-3.9s1.9-1.4,3.2-1.4
			c1.3,0,2.3,0.4,3,1.2s1.1,1.9,1.1,3.3v1h-6.9c0,1.2,0.3,2.1,0.9,2.7s1.4,0.9,2.4,0.9c1.1,0,2.1-0.2,3.2-0.7v1.4
			c-0.5,0.2-1,0.4-1.5,0.5C108,44.4,107.5,44.5,106.8,44.5z M106.4,35.4c-0.8,0-1.4,0.3-1.9,0.8s-0.8,1.3-0.8,2.2h5.2
			c0-1-0.2-1.7-0.6-2.2C107.8,35.6,107.2,35.4,106.4,35.4z"/>
		<path class="st3" d="M117.6,34.1c0.4,0,0.8,0,1.2,0.1l-0.2,1.4c-0.4-0.1-0.8-0.1-1.1-0.1c-0.8,0-1.5,0.3-2.1,1s-0.9,1.5-0.9,2.5
			v5.4H113v-10h1.3l0.2,1.9h0.1c0.4-0.7,0.8-1.2,1.3-1.5C116.4,34.3,117,34.1,117.6,34.1z"/>
		<path class="st3" d="M124,34.3h1.6l2.2,5.7c0.5,1.3,0.8,2.2,0.9,2.8h0.1c0.1-0.3,0.2-0.8,0.5-1.6s1.1-3.1,2.5-7h1.6l-4.3,11.4
			c-0.4,1.1-0.9,1.9-1.5,2.4c-0.6,0.5-1.3,0.7-2.1,0.7c-0.5,0-0.9-0.1-1.4-0.2v-1.2c0.3,0.1,0.7,0.1,1.1,0.1c1,0,1.8-0.6,2.2-1.8
			l0.6-1.4L124,34.3z"/>
		<path class="st3" d="M143.7,39.3c0,1.6-0.4,2.9-1.2,3.8c-0.8,0.9-2,1.4-3.4,1.4c-0.9,0-1.7-0.2-2.4-0.6c-0.7-0.4-1.2-1-1.6-1.8
			c-0.4-0.8-0.6-1.7-0.6-2.8c0-1.6,0.4-2.9,1.2-3.8c0.8-0.9,2-1.4,3.4-1.4s2.5,0.5,3.3,1.4C143.3,36.4,143.7,37.7,143.7,39.3z
			 M136.1,39.3c0,1.3,0.3,2.3,0.8,2.9s1.3,1,2.3,1s1.8-0.3,2.3-1s0.8-1.6,0.8-2.9c0-1.3-0.3-2.2-0.8-2.9s-1.3-1-2.3-1
			s-1.7,0.3-2.3,1C136.3,37,136.1,38,136.1,39.3z"/>
		<path class="st3" d="M147.8,34.3v6.5c0,0.8,0.2,1.4,0.6,1.8c0.4,0.4,1,0.6,1.7,0.6c1,0,1.8-0.3,2.3-0.9s0.7-1.5,0.7-2.8v-5.3h1.5
			v10h-1.3l-0.2-1.3H153c-0.3,0.5-0.7,0.9-1.3,1.1c-0.6,0.3-1.2,0.4-1.9,0.4c-1.2,0-2.1-0.3-2.7-0.9c-0.6-0.6-0.9-1.5-0.9-2.8v-6.6
			h1.6V34.3z"/>
		<path class="st3" d="M169.6,44.3v-6.5c0-0.8-0.2-1.4-0.6-1.8c-0.4-0.4-1-0.6-1.7-0.6c-1,0-1.8,0.3-2.3,0.9
			c-0.5,0.6-0.7,1.5-0.7,2.8v5.3h-1.5v-10h1.2l0.2,1.4h0.1c0.3-0.5,0.7-0.9,1.3-1.1c0.6-0.3,1.2-0.4,1.9-0.4c1.2,0,2.1,0.3,2.7,0.9
			c0.6,0.6,0.9,1.5,0.9,2.8v6.5h-1.5V44.3z"/>
		<path class="st3" d="M178.5,44.5c-1.5,0-2.7-0.5-3.5-1.4s-1.3-2.2-1.3-3.8s0.4-2.9,1.2-3.9s1.9-1.4,3.2-1.4s2.3,0.4,3,1.2
			s1.1,1.9,1.1,3.3v1h-6.9c0,1.2,0.3,2.1,0.9,2.7s1.4,0.9,2.4,0.9c1.1,0,2.1-0.2,3.2-0.7v1.4c-0.5,0.2-1,0.4-1.5,0.5
			C179.8,44.4,179.2,44.5,178.5,44.5z M178.1,35.4c-0.8,0-1.4,0.3-1.9,0.8s-0.8,1.3-0.8,2.2h5.2c0-1-0.2-1.7-0.6-2.2
			C179.5,35.6,178.9,35.4,178.1,35.4z"/>
		<path class="st3" d="M189,44.5c-1.5,0-2.7-0.5-3.5-1.4s-1.3-2.2-1.3-3.8s0.4-2.9,1.2-3.9s1.9-1.4,3.2-1.4s2.3,0.4,3,1.2
			s1.1,1.9,1.1,3.3v1h-6.9c0,1.2,0.3,2.1,0.9,2.7s1.4,0.9,2.4,0.9c1.1,0,2.1-0.2,3.2-0.7v1.4c-0.5,0.2-1,0.4-1.5,0.5
			C190.3,44.4,189.7,44.5,189,44.5z M188.6,35.4c-0.8,0-1.4,0.3-1.9,0.8s-0.8,1.3-0.8,2.2h5.2c0-1-0.2-1.7-0.6-2.2
			C190,35.6,189.4,35.4,188.6,35.4z"/>
		<path class="st3" d="M202.1,43L202.1,43c-0.8,1-1.8,1.5-3.2,1.5c-1.3,0-2.3-0.4-3.1-1.3c-0.7-0.9-1.1-2.2-1.1-3.8
			c0-1.7,0.4-2.9,1.1-3.9c0.7-0.9,1.8-1.4,3.1-1.4c1.4,0,2.4,0.5,3.1,1.5h0.1l-0.1-0.7v-0.7v-4.1h1.5v14.2h-1.2L202.1,43z
			 M199.1,43.2c1,0,1.8-0.3,2.3-0.8c0.5-0.6,0.7-1.5,0.7-2.7v-0.3c0-1.4-0.2-2.4-0.7-3s-1.2-0.9-2.3-0.9c-0.9,0-1.6,0.3-2,1
			c-0.5,0.7-0.7,1.7-0.7,2.9c0,1.3,0.2,2.2,0.7,2.9C197.5,42.9,198.2,43.2,199.1,43.2z"/>
		<path class="st3" d="M211.5,31.6c0-0.3,0.1-0.6,0.3-0.8s0.4-0.2,0.6-0.2c0.2,0,0.5,0.1,0.6,0.2c0.2,0.2,0.3,0.4,0.3,0.8
			s-0.1,0.6-0.3,0.8s-0.4,0.3-0.6,0.3c-0.3,0-0.5-0.1-0.6-0.3S211.5,31.9,211.5,31.6z M213.2,44.3h-1.5v-10h1.5V44.3z"/>
		<path class="st3" d="M219.6,43.2c0.3,0,0.5,0,0.8-0.1c0.2,0,0.4-0.1,0.6-0.1v1.2c-0.2,0.1-0.4,0.1-0.7,0.2
			c-0.3,0.1-0.6,0.1-0.9,0.1c-1.9,0-2.9-1-2.9-3.1v-6h-1.4v-0.7l1.4-0.6l0.6-2.1h0.9v2.3h2.9v1.2H218v5.9c0,0.6,0.1,1.1,0.4,1.4
			C218.7,43.1,219.1,43.2,219.6,43.2z"/>
	</g>
</g>
<g id="c1">
	<g class="st7">
		<path class="st3" d="M40.5,34.8c0,1.4-0.5,2.4-1.4,3.1c-0.9,0.7-2.2,1.1-4,1.1h-1.6v5.3H32V30.9h3.5
			C38.8,30.9,40.5,32.2,40.5,34.8z M33.5,37.7h1.4c1.4,0,2.4-0.2,3-0.7c0.6-0.4,0.9-1.2,0.9-2.1c0-0.9-0.3-1.5-0.9-2
			c-0.6-0.4-1.5-0.6-2.7-0.6h-1.7V37.7z"/>
		<path class="st3" d="M44.5,34.3v6.5c0,0.8,0.2,1.4,0.6,1.8c0.4,0.4,1,0.6,1.7,0.6c1,0,1.8-0.3,2.3-0.9c0.5-0.6,0.7-1.5,0.7-2.8
			v-5.3h1.5v10H50L49.8,43h-0.1c-0.3,0.5-0.7,0.9-1.3,1.1c-0.6,0.3-1.2,0.4-1.9,0.4c-1.2,0-2.1-0.3-2.7-0.9
			c-0.6-0.6-0.9-1.5-0.9-2.8v-6.6L44.5,34.3L44.5,34.3z"/>
		<path class="st3" d="M57.8,43.2c0.3,0,0.5,0,0.8-0.1c0.3,0,0.4-0.1,0.6-0.1v1.2c-0.2,0.1-0.4,0.1-0.7,0.2
			c-0.3,0.1-0.6,0.1-0.9,0.1c-1.9,0-2.9-1-2.9-3.1v-6h-1.4v-0.7l1.4-0.6l0.6-2.1h0.9v2.3h2.9v1.2h-2.9v5.9c0,0.6,0.1,1.1,0.4,1.4
			C56.9,43.1,57.3,43.2,57.8,43.2z"/>
		<path class="st3" d="M72.9,43L72.9,43c-0.8,1-1.8,1.5-3.2,1.5c-1.3,0-2.3-0.4-3.1-1.3c-0.7-0.9-1.1-2.2-1.1-3.8
			c0-1.7,0.4-2.9,1.1-3.9c0.7-0.9,1.8-1.4,3.1-1.4c1.4,0,2.4,0.5,3.1,1.5h0.1l-0.1-0.7v-0.7v-4.1h1.5v14.2h-1.2L72.9,43z M69.8,43.2
			c1,0,1.8-0.3,2.3-0.8c0.5-0.6,0.7-1.5,0.7-2.7v-0.3c0-1.4-0.2-2.4-0.7-3s-1.2-0.9-2.3-0.9c-0.9,0-1.6,0.3-2,1
			c-0.5,0.7-0.7,1.7-0.7,2.9c0,1.3,0.2,2.2,0.7,2.9C68.2,42.9,68.9,43.2,69.8,43.2z"/>
		<path class="st3" d="M83.7,44.3l-0.3-1.4h-0.1c-0.5,0.6-1,1.1-1.5,1.3s-1.1,0.3-1.9,0.3c-1,0-1.8-0.3-2.3-0.8s-0.8-1.2-0.8-2.2
			c0-2,1.6-3.1,4.9-3.2l1.7-0.1v-0.6c0-0.8-0.2-1.4-0.5-1.7c-0.3-0.4-0.9-0.6-1.6-0.6c-0.8,0-1.8,0.3-2.8,0.8L77.9,35
			c0.5-0.3,1-0.5,1.6-0.6c0.6-0.2,1.2-0.2,1.8-0.2c1.2,0,2.1,0.3,2.7,0.8s0.9,1.4,0.9,2.6v6.8L83.7,44.3L83.7,44.3z M80.3,43.2
			c0.9,0,1.7-0.3,2.2-0.8s0.8-1.2,0.8-2.2v-0.9l-1.5,0.1c-1.2,0-2.1,0.2-2.6,0.6c-0.5,0.3-0.8,0.9-0.8,1.6c0,0.5,0.2,1,0.5,1.3
			C79.2,43.1,79.7,43.2,80.3,43.2z"/>
		<path class="st3" d="M91.2,43.2c0.3,0,0.5,0,0.8-0.1c0.3,0,0.4-0.1,0.6-0.1v1.2c-0.2,0.1-0.4,0.1-0.7,0.2
			c-0.3,0.1-0.6,0.1-0.9,0.1c-1.9,0-2.9-1-2.9-3.1v-6h-1.4v-0.7l1.4-0.6l0.6-2.1h0.9v2.3h2.9v1.2h-2.9v5.9c0,0.6,0.1,1.1,0.4,1.4
			C90.3,43.1,90.7,43.2,91.2,43.2z"/>
		<path class="st3" d="M100.7,44.3l-0.3-1.4h-0.1c-0.5,0.6-1,1.1-1.5,1.3s-1.1,0.3-1.9,0.3c-1,0-1.8-0.3-2.3-0.8s-0.8-1.2-0.8-2.2
			c0-2,1.6-3.1,4.9-3.2l1.7-0.1v-0.6c0-0.8-0.2-1.4-0.5-1.7c-0.3-0.4-0.9-0.6-1.6-0.6c-0.8,0-1.8,0.3-2.8,0.8L94.9,35
			c0.5-0.3,1-0.5,1.6-0.6c0.6-0.2,1.2-0.2,1.8-0.2c1.2,0,2.1,0.3,2.7,0.8s0.9,1.4,0.9,2.6v6.8L100.7,44.3L100.7,44.3z M97.3,43.2
			c0.9,0,1.7-0.3,2.2-0.8s0.8-1.2,0.8-2.2v-0.9l-1.5,0.1c-1.2,0-2.1,0.2-2.6,0.6c-0.5,0.3-0.8,0.9-0.8,1.6c0,0.5,0.2,1,0.5,1.3
			C96.2,43.1,96.7,43.2,97.3,43.2z"/>
		<path class="st3" d="M113.1,43.2c0.3,0,0.5,0,0.8-0.1c0.3,0,0.4-0.1,0.6-0.1v1.2c-0.2,0.1-0.4,0.1-0.7,0.2
			c-0.3,0.1-0.6,0.1-0.9,0.1c-1.9,0-2.9-1-2.9-3.1v-6h-1.4v-0.7l1.4-0.6l0.6-2.1h0.9v2.3h2.9v1.2h-2.9v5.9c0,0.6,0.1,1.1,0.4,1.4
			C112.2,43.1,112.6,43.2,113.1,43.2z"/>
		<path class="st3" d="M125.1,39.3c0,1.6-0.4,2.9-1.2,3.8c-0.8,0.9-2,1.4-3.4,1.4c-0.9,0-1.7-0.2-2.4-0.6c-0.7-0.4-1.2-1-1.6-1.8
			s-0.6-1.7-0.6-2.8c0-1.6,0.4-2.9,1.2-3.8c0.8-0.9,2-1.4,3.4-1.4s2.5,0.5,3.3,1.4C124.7,36.4,125.1,37.7,125.1,39.3z M117.5,39.3
			c0,1.3,0.3,2.3,0.8,2.9s1.3,1,2.3,1s1.8-0.3,2.3-1s0.8-1.6,0.8-2.9c0-1.3-0.3-2.2-0.8-2.9s-1.3-1-2.3-1s-1.7,0.3-2.3,1
			C117.8,37,117.5,38,117.5,39.3z"/>
		<path class="st3" d="M140.9,44.3l-1.8-5.9c-0.1-0.4-0.3-1.2-0.6-2.5h-0.1c-0.2,1.1-0.5,1.9-0.6,2.5l-1.9,5.9H134l-2.7-10h1.6
			c0.6,2.5,1.1,4.4,1.5,5.8s0.5,2.2,0.6,2.7h0.1c0.1-0.3,0.2-0.8,0.3-1.4c0.1-0.6,0.3-1,0.4-1.3l1.8-5.8h1.6L141,40
			c0.3,1,0.6,1.9,0.7,2.6h0.1c0-0.2,0.1-0.6,0.2-1c0.1-0.5,0.7-2.9,1.9-7.4h1.6l-2.8,10h-1.8V44.3z"/>
		<path class="st3" d="M155.9,39.3c0,1.6-0.4,2.9-1.2,3.8c-0.8,0.9-2,1.4-3.4,1.4c-0.9,0-1.7-0.2-2.4-0.6c-0.7-0.4-1.2-1-1.6-1.8
			c-0.4-0.8-0.6-1.7-0.6-2.8c0-1.6,0.4-2.9,1.2-3.8c0.8-0.9,2-1.4,3.4-1.4s2.5,0.5,3.3,1.4C155.5,36.4,155.9,37.7,155.9,39.3z
			 M148.3,39.3c0,1.3,0.3,2.3,0.8,2.9s1.3,1,2.3,1s1.8-0.3,2.3-1s0.8-1.6,0.8-2.9c0-1.3-0.3-2.2-0.8-2.9s-1.3-1-2.3-1
			s-1.7,0.3-2.3,1C148.5,37,148.3,38,148.3,39.3z"/>
		<path class="st3" d="M163.2,34.1c0.4,0,0.8,0,1.2,0.1l-0.2,1.4c-0.4-0.1-0.8-0.1-1.1-0.1c-0.8,0-1.5,0.3-2.1,1s-0.9,1.5-0.9,2.5
			v5.4h-1.5v-10h1.3l0.2,1.9h0.1c0.4-0.7,0.8-1.2,1.3-1.5C162,34.3,162.5,34.1,163.2,34.1z"/>
		<path class="st3" d="M167.7,39.2c0.3-0.4,0.7-0.9,1.2-1.5l3.2-3.4h1.8l-4.1,4.3l4.3,5.8h-1.8l-3.5-4.7l-1.1,1v3.8h-1.5V30.1h1.5
			v7.6C167.7,38,167.7,38.5,167.7,39.2L167.7,39.2z"/>
		<path class="st3" d="M189.2,44.3l-1.8-5.9c-0.1-0.4-0.3-1.2-0.6-2.5h-0.1c-0.2,1.1-0.5,1.9-0.6,2.5l-1.9,5.9h-1.8l-2.7-10h1.6
			c0.6,2.5,1.1,4.4,1.5,5.8s0.5,2.2,0.6,2.7h0.1c0.1-0.3,0.2-0.8,0.3-1.4c0.1-0.6,0.3-1,0.4-1.3l1.8-5.8h1.6l1.8,5.8
			c0.3,1,0.6,1.9,0.7,2.6h0.1c0-0.2,0.1-0.6,0.2-1c0.1-0.5,0.7-2.9,1.9-7.4h1.6l-2.8,10C191.1,44.3,189.2,44.3,189.2,44.3z"/>
		<path class="st3" d="M202.4,44.3v-6.5c0-0.8-0.2-1.4-0.6-1.8c-0.4-0.4-1-0.6-1.7-0.6c-1.1,0-1.8,0.3-2.3,0.9
			c-0.5,0.6-0.7,1.5-0.7,2.8v5.2h-1.5V30.1h1.5v4.3c0,0.5,0,0.9-0.1,1.3h0.1c0.3-0.5,0.7-0.9,1.3-1.1c0.6-0.3,1.2-0.4,1.9-0.4
			c1.2,0,2.1,0.3,2.8,0.9c0.6,0.6,0.9,1.5,0.9,2.8v6.5h-1.6V44.3z"/>
		<path class="st3" d="M211.3,44.5c-1.5,0-2.7-0.5-3.5-1.4s-1.3-2.2-1.3-3.8s0.4-2.9,1.2-3.9s1.9-1.4,3.2-1.4s2.3,0.4,3,1.2
			s1.1,1.9,1.1,3.3v1h-6.9c0,1.2,0.3,2.1,0.9,2.7s1.4,0.9,2.4,0.9c1.1,0,2.1-0.2,3.2-0.7v1.4c-0.5,0.2-1,0.4-1.5,0.5
			C212.5,44.4,212,44.5,211.3,44.5z M210.9,35.4c-0.8,0-1.4,0.3-1.9,0.8s-0.8,1.3-0.8,2.2h5.2c0-1-0.2-1.7-0.6-2.2
			C212.3,35.6,211.7,35.4,210.9,35.4z"/>
		<path class="st3" d="M222.1,34.1c0.4,0,0.8,0,1.2,0.1l-0.2,1.4c-0.4-0.1-0.8-0.1-1.1-0.1c-0.8,0-1.5,0.3-2.1,1S219,38,219,39v5.4
			h-1.5v-10h1.3l0.2,1.9h0.1c0.4-0.7,0.8-1.2,1.3-1.5C220.9,34.3,221.5,34.1,222.1,34.1z"/>
		<path class="st3" d="M229.5,44.5c-1.5,0-2.7-0.5-3.5-1.4s-1.3-2.2-1.3-3.8s0.4-2.9,1.2-3.9s1.9-1.4,3.2-1.4s2.3,0.4,3,1.2
			s1.1,1.9,1.1,3.3v1h-6.9c0,1.2,0.3,2.1,0.9,2.7s1.4,0.9,2.4,0.9c1.1,0,2.1-0.2,3.2-0.7v1.4c-0.5,0.2-1,0.4-1.5,0.5
			C230.7,44.4,230.1,44.5,229.5,44.5z M229.1,35.4c-0.8,0-1.4,0.3-1.9,0.8s-0.8,1.3-0.8,2.2h5.2c0-1-0.2-1.7-0.6-2.2
			C230.5,35.6,229.8,35.4,229.1,35.4z"/>
		<path class="st3" d="M237.9,44.3l-3.8-10h1.6l2.2,6c0.5,1.4,0.8,2.3,0.9,2.7h0.1c0.1-0.3,0.3-1,0.6-2s1.2-3.2,2.4-6.7h1.6l-3.8,10
			H237.9z"/>
		<path class="st3" d="M249.4,44.5c-1.5,0-2.7-0.5-3.5-1.4s-1.3-2.2-1.3-3.8s0.4-2.9,1.2-3.9s1.9-1.4,3.2-1.4s2.3,0.4,3,1.2
			s1.1,1.9,1.1,3.3v1h-6.9c0,1.2,0.3,2.1,0.9,2.7s1.4,0.9,2.4,0.9c1.1,0,2.1-0.2,3.2-0.7v1.4c-0.5,0.2-1,0.4-1.5,0.5
			C250.6,44.4,250.1,44.5,249.4,44.5z M249,35.4c-0.8,0-1.4,0.3-1.9,0.8s-0.8,1.3-0.8,2.2h5.2c0-1-0.2-1.7-0.6-2.2
			C250.4,35.6,249.8,35.4,249,35.4z"/>
		<path class="st3" d="M260.2,34.1c0.4,0,0.8,0,1.2,0.1l-0.2,1.4c-0.4-0.1-0.8-0.1-1.1-0.1c-0.8,0-1.5,0.3-2.1,1s-0.9,1.5-0.9,2.5
			v5.4h-1.5v-10h1.3l0.2,1.9h0.1c0.4-0.7,0.8-1.2,1.3-1.5C259,34.3,259.6,34.1,260.2,34.1z"/>
	</g>
	<g class="st7">
		<path class="st3" d="M30.2,59.1h1.6l2.2,5.7c0.5,1.3,0.8,2.2,0.9,2.8H35c0.1-0.3,0.2-0.8,0.5-1.6c0.3-0.8,1.1-3.1,2.5-7h1.6
			l-4.3,11.4c-0.4,1.1-0.9,1.9-1.5,2.4s-1.3,0.7-2.1,0.7c-0.5,0-0.9-0.1-1.4-0.2v-1.2c0.3,0.1,0.7,0.1,1.1,0.1c1,0,1.8-0.6,2.2-1.8
			l0.6-1.4L30.2,59.1z"/>
		<path class="st3" d="M49.9,64.1c0,1.6-0.4,2.9-1.2,3.8s-2,1.4-3.4,1.4c-0.9,0-1.7-0.2-2.4-0.6s-1.2-1-1.6-1.8
			c-0.4-0.8-0.6-1.7-0.6-2.8c0-1.6,0.4-2.9,1.2-3.8c0.8-0.9,2-1.4,3.4-1.4s2.5,0.5,3.3,1.4S49.9,62.5,49.9,64.1z M42.2,64.1
			c0,1.3,0.3,2.3,0.8,2.9s1.3,1,2.3,1s1.8-0.3,2.3-1s0.8-1.6,0.8-2.9c0-1.3-0.3-2.2-0.8-2.9s-1.3-1-2.3-1s-1.7,0.3-2.3,1
			C42.5,61.8,42.2,62.8,42.2,64.1z"/>
		<path class="st3" d="M53.9,59.1v6.5c0,0.8,0.2,1.4,0.6,1.8c0.4,0.4,1,0.6,1.7,0.6c1,0,1.8-0.3,2.3-0.9s0.7-1.5,0.7-2.8V59h1.5v10
			h-1.3l-0.2-1.3h-0.1c-0.3,0.5-0.7,0.9-1.3,1.1c-0.6,0.3-1.2,0.4-1.9,0.4c-1.2,0-2.1-0.3-2.7-0.9c-0.6-0.6-0.9-1.5-0.9-2.8v-6.6
			h1.6V59.1z"/>
		<path class="st3" d="M75.8,69.1v-6.5c0-0.8-0.2-1.4-0.6-1.8c-0.4-0.4-1-0.6-1.7-0.6c-1.1,0-1.8,0.3-2.3,0.9
			c-0.5,0.6-0.7,1.5-0.7,2.8v5.3H69v-10h1.2l0.2,1.4h0.1c0.3-0.5,0.7-0.9,1.3-1.1c0.6-0.3,1.2-0.4,1.9-0.4c1.2,0,2.1,0.3,2.7,0.9
			c0.6,0.6,0.9,1.5,0.9,2.8v6.5h-1.5V69.1z"/>
		<path class="st3" d="M84.6,69.3c-1.5,0-2.7-0.5-3.5-1.4c-0.9-0.9-1.3-2.2-1.3-3.8c0-1.6,0.4-2.9,1.2-3.9s1.9-1.4,3.2-1.4
			c1.3,0,2.3,0.4,3,1.2s1.1,1.9,1.1,3.3v1h-6.9c0,1.2,0.3,2.1,0.9,2.7s1.4,0.9,2.4,0.9c1.1,0,2.1-0.2,3.2-0.7v1.4
			c-0.5,0.2-1,0.4-1.5,0.5C85.9,69.2,85.3,69.3,84.6,69.3z M84.2,60.1c-0.8,0-1.4,0.3-1.9,0.8s-0.8,1.3-0.8,2.2h5.2
			c0-1-0.2-1.7-0.6-2.2C85.6,60.4,85,60.1,84.2,60.1z"/>
		<path class="st3" d="M95.2,69.3c-1.5,0-2.7-0.5-3.5-1.4c-0.9-0.9-1.3-2.2-1.3-3.8c0-1.6,0.4-2.9,1.2-3.9s1.9-1.4,3.2-1.4
			c1.3,0,2.3,0.4,3,1.2s1.1,1.9,1.1,3.3v1H92c0,1.2,0.3,2.1,0.9,2.7s1.4,0.9,2.4,0.9c1.1,0,2.1-0.2,3.2-0.7v1.4
			c-0.5,0.2-1,0.4-1.5,0.5C96.4,69.2,95.8,69.3,95.2,69.3z M94.8,60.1c-0.8,0-1.4,0.3-1.9,0.8s-0.8,1.3-0.8,2.2h5.2
			c0-1-0.2-1.7-0.6-2.2C96.2,60.4,95.5,60.1,94.8,60.1z"/>
		<path class="st3" d="M108.3,67.7L108.3,67.7c-0.8,1-1.8,1.5-3.2,1.5c-1.3,0-2.3-0.4-3.1-1.3c-0.7-0.9-1.1-2.2-1.1-3.8
			c0-1.7,0.4-2.9,1.1-3.9c0.7-0.9,1.8-1.4,3.1-1.4c1.4,0,2.4,0.5,3.1,1.5h0.1l-0.1-0.7v-0.7v-4.1h1.5V69h-1.2L108.3,67.7z M105.2,68
			c1,0,1.8-0.3,2.3-0.8c0.5-0.6,0.7-1.5,0.7-2.7v-0.3c0-1.4-0.2-2.4-0.7-3s-1.2-0.9-2.3-0.9c-0.9,0-1.6,0.3-2,1
			c-0.5,0.7-0.7,1.7-0.7,2.9c0,1.3,0.2,2.2,0.7,2.9C103.6,67.7,104.3,68,105.2,68z"/>
		<path class="st3" d="M117.7,56.3c0-0.3,0.1-0.6,0.3-0.8s0.4-0.2,0.6-0.2s0.5,0.1,0.6,0.2c0.2,0.2,0.3,0.4,0.3,0.8
			s-0.1,0.6-0.3,0.8c-0.2,0.2-0.4,0.3-0.6,0.3c-0.3,0-0.5-0.1-0.6-0.3S117.7,56.7,117.7,56.3z M119.3,69.1h-1.5v-10h1.5V69.1z"/>
		<path class="st3" d="M125.8,68c0.3,0,0.5,0,0.8-0.1c0.3,0,0.4-0.1,0.6-0.1V69c-0.2,0.1-0.4,0.1-0.7,0.2c-0.3,0.1-0.6,0.1-0.9,0.1
			c-1.9,0-2.9-1-2.9-3.1v-6h-1.4v-0.7l1.4-0.6l0.6-2.1h0.9v2.3h2.9v1.2h-2.9v5.9c0,0.6,0.1,1.1,0.4,1.4
			C124.9,67.9,125.3,68,125.8,68z"/>
	</g>
</g>
<g id="c3">
	<g class="st7">
		<path class="st3" d="M32,44.3V30.9h1.6v13.4H32z"/>
		<path class="st3" d="M43.8,44.3v-6.5c0-0.8-0.2-1.4-0.6-1.8c-0.4-0.4-1-0.6-1.7-0.6c-1.1,0-1.8,0.3-2.3,0.9
			c-0.5,0.6-0.7,1.5-0.7,2.8v5.3H37v-10h1.2l0.2,1.4h0.1c0.3-0.5,0.7-0.9,1.3-1.1c0.6-0.3,1.2-0.4,1.9-0.4c1.2,0,2.1,0.3,2.7,0.9
			c0.6,0.6,0.9,1.5,0.9,2.8v6.5h-1.5V44.3z"/>
		<path class="st3" d="M53,35.5h-2.6v8.9h-1.5v-8.9h-1.8v-0.7l1.8-0.5v-0.6c0-2.5,1.1-3.7,3.2-3.7c0.5,0,1.2,0.1,1.9,0.3l-0.4,1.2
			c-0.6-0.2-1.1-0.3-1.5-0.3c-0.6,0-1,0.2-1.3,0.6s-0.4,1-0.4,1.8v0.6H53V35.5z"/>
		<path class="st3" d="M56.3,34.3v6.5c0,0.8,0.2,1.4,0.6,1.8c0.4,0.4,1,0.6,1.7,0.6c1,0,1.8-0.3,2.3-0.9c0.5-0.6,0.7-1.5,0.7-2.8
			v-5.3h1.5v10h-1.3L61.6,43h-0.1c-0.3,0.5-0.7,0.9-1.3,1.1c-0.6,0.3-1.2,0.4-1.9,0.4c-1.2,0-2.1-0.3-2.7-0.9
			c-0.6-0.6-0.9-1.5-0.9-2.8v-6.6L56.3,34.3L56.3,34.3z"/>
		<path class="st3" d="M72.8,41.6c0,0.9-0.3,1.7-1,2.2s-1.7,0.8-2.9,0.8c-1.3,0-2.4-0.2-3.1-0.6v-1.4c0.5,0.2,1,0.4,1.6,0.6
			c0.6,0.1,1.1,0.2,1.6,0.2c0.8,0,1.4-0.1,1.8-0.4c0.4-0.3,0.6-0.6,0.6-1.2c0-0.4-0.2-0.7-0.5-1s-1-0.6-2-1c-0.9-0.3-1.6-0.7-2-0.9
			S66.2,38.3,66,38c-0.2-0.3-0.3-0.7-0.3-1.2c0-0.8,0.3-1.5,1-1.9c0.7-0.5,1.6-0.7,2.7-0.7s2.1,0.2,3.2,0.7L72.1,36
			c-1-0.4-1.9-0.6-2.7-0.6c-0.7,0-1.3,0.1-1.6,0.3c-0.4,0.2-0.5,0.5-0.5,0.9c0,0.3,0.1,0.5,0.2,0.7s0.4,0.4,0.7,0.5s0.9,0.4,1.8,0.7
			c1.2,0.4,2,0.9,2.4,1.3S72.8,40.9,72.8,41.6z"/>
		<path class="st3" d="M79.5,44.5c-1.5,0-2.7-0.5-3.5-1.4c-0.9-0.9-1.3-2.2-1.3-3.8s0.4-2.9,1.2-3.9s1.9-1.4,3.2-1.4
			c1.3,0,2.3,0.4,3,1.2s1.1,1.9,1.1,3.3v1h-6.9c0,1.2,0.3,2.1,0.9,2.7s1.4,0.9,2.4,0.9c1.1,0,2.1-0.2,3.2-0.7v1.4
			c-0.5,0.2-1,0.4-1.5,0.5C80.8,44.4,80.2,44.5,79.5,44.5z M79.1,35.4c-0.8,0-1.4,0.3-1.9,0.8s-0.8,1.3-0.8,2.2h5.2
			c0-1-0.2-1.7-0.6-2.2C80.5,35.6,79.9,35.4,79.1,35.4z"/>
		<path class="st3" d="M96.8,44.3l-0.3-1.4h-0.1c-0.5,0.6-1,1.1-1.5,1.3s-1.1,0.3-1.9,0.3c-1,0-1.8-0.3-2.3-0.8s-0.8-1.2-0.8-2.2
			c0-2,1.6-3.1,4.9-3.2l1.7-0.1v-0.6c0-0.8-0.2-1.4-0.5-1.7c-0.3-0.4-0.9-0.6-1.6-0.6c-0.8,0-1.8,0.3-2.8,0.8L91.1,35
			c0.5-0.3,1-0.5,1.6-0.6c0.6-0.2,1.2-0.2,1.8-0.2c1.2,0,2.1,0.3,2.7,0.8s0.9,1.4,0.9,2.6v6.8L96.8,44.3L96.8,44.3z M93.4,43.2
			c0.9,0,1.7-0.3,2.2-0.8s0.8-1.2,0.8-2.2v-0.9l-1.5,0.1c-1.2,0-2.1,0.2-2.6,0.6c-0.5,0.3-0.8,0.9-0.8,1.6c0,0.5,0.2,1,0.5,1.3
			C92.4,43.1,92.8,43.2,93.4,43.2z"/>
		<path class="st3" d="M108,44.3v-6.5c0-0.8-0.2-1.4-0.6-1.8c-0.4-0.4-1-0.6-1.7-0.6c-1.1,0-1.8,0.3-2.3,0.9
			c-0.5,0.6-0.7,1.5-0.7,2.8v5.3h-1.5v-10h1.2l0.2,1.4h0.1c0.3-0.5,0.7-0.9,1.3-1.1c0.6-0.3,1.2-0.4,1.9-0.4c1.2,0,2.1,0.3,2.7,0.9
			c0.6,0.6,0.9,1.5,0.9,2.8v6.5H108V44.3z"/>
		<path class="st3" d="M118.8,44.3l-0.3-1.4h-0.1c-0.5,0.6-1,1.1-1.5,1.3s-1.1,0.3-1.9,0.3c-1,0-1.8-0.3-2.3-0.8s-0.8-1.2-0.8-2.2
			c0-2,1.6-3.1,4.9-3.2l1.7-0.1v-0.6c0-0.8-0.2-1.4-0.5-1.7c-0.3-0.4-0.9-0.6-1.6-0.6c-0.8,0-1.8,0.3-2.8,0.8L113,35
			c0.5-0.3,1-0.5,1.6-0.6c0.6-0.2,1.2-0.2,1.8-0.2c1.2,0,2.1,0.3,2.7,0.8s0.9,1.4,0.9,2.6v6.8L118.8,44.3L118.8,44.3z M115.4,43.2
			c0.9,0,1.7-0.3,2.2-0.8s0.8-1.2,0.8-2.2v-0.9l-1.5,0.1c-1.2,0-2.1,0.2-2.6,0.6c-0.5,0.3-0.8,0.9-0.8,1.6c0,0.5,0.2,1,0.5,1.3
			C114.3,43.1,114.8,43.2,115.4,43.2z"/>
		<path class="st3" d="M124.6,44.3H123V30.1h1.5L124.6,44.3L124.6,44.3z"/>
		<path class="st3" d="M126.2,34.3h1.6L130,40c0.5,1.3,0.8,2.2,0.9,2.8h0.1c0.1-0.3,0.2-0.8,0.5-1.6s1.1-3.1,2.5-7h1.6l-4.3,11.4
			c-0.4,1.1-0.9,1.9-1.5,2.4s-1.3,0.7-2.1,0.7c-0.5,0-0.9-0.1-1.4-0.2v-1.2c0.3,0.1,0.7,0.1,1.1,0.1c1,0,1.8-0.6,2.2-1.8l0.6-1.4
			L126.2,34.3z"/>
		<path class="st3" d="M140.5,43.2c0.3,0,0.5,0,0.8-0.1c0.3,0,0.4-0.1,0.6-0.1v1.2c-0.2,0.1-0.4,0.1-0.7,0.2
			c-0.3,0.1-0.6,0.1-0.9,0.1c-1.9,0-2.9-1-2.9-3.1v-6H136v-0.7l1.4-0.6L138,32h0.9v2.3h2.9v1.2h-2.9v5.9c0,0.6,0.1,1.1,0.4,1.4
			C139.6,43.1,140,43.2,140.5,43.2z"/>
		<path class="st3" d="M143.7,31.6c0-0.3,0.1-0.6,0.3-0.8s0.4-0.2,0.6-0.2c0.2,0,0.5,0.1,0.6,0.2c0.2,0.2,0.3,0.4,0.3,0.8
			s-0.1,0.6-0.3,0.8s-0.4,0.3-0.6,0.3c-0.3,0-0.5-0.1-0.6-0.3S143.7,31.9,143.7,31.6z M145.4,44.3h-1.5v-10h1.5V44.3z"/>
		<path class="st3" d="M152.6,44.5c-1.5,0-2.6-0.4-3.4-1.3S148,41,148,39.4c0-1.7,0.4-3,1.2-3.9s2-1.4,3.5-1.4c0.5,0,1,0.1,1.4,0.2
			c0.5,0.1,0.9,0.2,1.1,0.4l-0.5,1.3c-0.3-0.1-0.7-0.2-1.1-0.3s-0.7-0.1-1.1-0.1c-2,0-3.1,1.3-3.1,3.9c0,1.2,0.2,2.2,0.7,2.8
			s1.2,1,2.2,1c0.8,0,1.7-0.2,2.6-0.5V44C154.5,44.3,153.6,44.5,152.6,44.5z"/>
		<path class="st3" d="M164,41.6c0,0.9-0.3,1.7-1,2.2s-1.7,0.8-2.9,0.8c-1.3,0-2.4-0.2-3.1-0.6v-1.4c0.5,0.2,1,0.4,1.6,0.6
			c0.6,0.1,1.1,0.2,1.6,0.2c0.8,0,1.4-0.1,1.8-0.4c0.4-0.3,0.6-0.6,0.6-1.2c0-0.4-0.2-0.7-0.5-1s-1-0.6-2-1c-0.9-0.3-1.6-0.7-2-0.9
			s-0.7-0.6-0.9-0.9c-0.2-0.3-0.3-0.7-0.3-1.2c0-0.8,0.3-1.5,1-1.9c0.7-0.5,1.6-0.7,2.7-0.7c1.1,0,2.1,0.2,3.2,0.7l-0.5,1.2
			c-1-0.4-1.9-0.6-2.7-0.6c-0.7,0-1.3,0.1-1.6,0.3c-0.4,0.2-0.5,0.5-0.5,0.9c0,0.3,0.1,0.5,0.2,0.7c0.1,0.2,0.4,0.4,0.7,0.5
			c0.3,0.2,0.9,0.4,1.8,0.7c1.2,0.4,2,0.9,2.4,1.3S164,40.9,164,41.6z"/>
		<path class="st3" d="M175.6,44.5c-1.5,0-2.7-0.5-3.5-1.4s-1.3-2.2-1.3-3.8s0.4-2.9,1.2-3.9s1.9-1.4,3.2-1.4s2.3,0.4,3,1.2
			s1.1,1.9,1.1,3.3v1h-6.9c0,1.2,0.3,2.1,0.9,2.7s1.4,0.9,2.4,0.9c1.1,0,2.1-0.2,3.2-0.7v1.4c-0.5,0.2-1,0.4-1.5,0.5
			C176.8,44.4,176.3,44.5,175.6,44.5z M175.2,35.4c-0.8,0-1.4,0.3-1.9,0.8s-0.8,1.3-0.8,2.2h5.2c0-1-0.2-1.7-0.6-2.2
			C176.6,35.6,176,35.4,175.2,35.4z"/>
		<path class="st3" d="M184.1,44.3l-3.8-10h1.6l2.2,6c0.5,1.4,0.8,2.3,0.9,2.7h0.1c0.1-0.3,0.3-1,0.6-2s1.2-3.2,2.4-6.7h1.6l-3.8,10
			H184.1z"/>
		<path class="st3" d="M195.5,44.5c-1.5,0-2.7-0.5-3.5-1.4s-1.3-2.2-1.3-3.8s0.4-2.9,1.2-3.9s1.9-1.4,3.2-1.4s2.3,0.4,3,1.2
			s1.1,1.9,1.1,3.3v1h-6.9c0,1.2,0.3,2.1,0.9,2.7s1.4,0.9,2.4,0.9c1.1,0,2.1-0.2,3.2-0.7v1.4c-0.5,0.2-1,0.4-1.5,0.5
			C196.7,44.4,196.2,44.5,195.5,44.5z M195.1,35.4c-0.8,0-1.4,0.3-1.9,0.8s-0.8,1.3-0.8,2.2h5.2c0-1-0.2-1.7-0.6-2.2
			C196.5,35.6,195.9,35.4,195.1,35.4z"/>
		<path class="st3" d="M206.3,34.1c0.4,0,0.8,0,1.2,0.1l-0.2,1.4c-0.4-0.1-0.8-0.1-1.1-0.1c-0.8,0-1.5,0.3-2.1,1s-0.9,1.5-0.9,2.5
			v5.4h-1.5v-10h1.3l0.2,1.9h0.1c0.4-0.7,0.8-1.2,1.3-1.5C205.1,34.3,205.7,34.1,206.3,34.1z"/>
		<path class="st3" d="M207.8,34.3h1.6l2.2,5.7c0.5,1.3,0.8,2.2,0.9,2.8h0.1c0.1-0.3,0.2-0.8,0.5-1.6s1.1-3.1,2.5-7h1.6l-4.3,11.4
			c-0.4,1.1-0.9,1.9-1.5,2.4s-1.3,0.7-2.1,0.7c-0.5,0-0.9-0.1-1.4-0.2v-1.2c0.3,0.1,0.7,0.1,1.1,0.1c1,0,1.8-0.6,2.2-1.8l0.6-1.4
			L207.8,34.3z"/>
		<path class="st3" d="M227.1,44.3l-1.8-5.9c-0.1-0.4-0.3-1.2-0.6-2.5h-0.1c-0.2,1.1-0.5,1.9-0.6,2.5l-1.9,5.9h-1.8l-2.7-10h1.6
			c0.6,2.5,1.1,4.4,1.5,5.8s0.5,2.2,0.6,2.7h0.1c0.1-0.3,0.2-0.8,0.3-1.4c0.1-0.6,0.3-1,0.4-1.3l1.8-5.8h1.6l1.8,5.8
			c0.3,1,0.6,1.9,0.7,2.6h0.1c0-0.2,0.1-0.6,0.2-1c0.1-0.5,0.7-2.9,1.9-7.4h1.6l-2.8,10C229,44.3,227.1,44.3,227.1,44.3z"/>
		<path class="st3" d="M240.3,44.3v-6.5c0-0.8-0.2-1.4-0.6-1.8c-0.4-0.4-1-0.6-1.7-0.6c-1.1,0-1.8,0.3-2.3,0.9
			c-0.5,0.6-0.7,1.5-0.7,2.8v5.2h-1.5V30.1h1.5v4.3c0,0.5,0,0.9-0.1,1.3h0.1c0.3-0.5,0.7-0.9,1.3-1.1c0.6-0.3,1.2-0.4,1.9-0.4
			c1.2,0,2.1,0.3,2.8,0.9c0.6,0.6,0.9,1.5,0.9,2.8v6.5h-1.6V44.3z"/>
		<path class="st3" d="M249.2,44.5c-1.5,0-2.7-0.5-3.5-1.4s-1.3-2.2-1.3-3.8s0.4-2.9,1.2-3.9s1.9-1.4,3.2-1.4s2.3,0.4,3,1.2
			s1.1,1.9,1.1,3.3v1H246c0,1.2,0.3,2.1,0.9,2.7s1.4,0.9,2.4,0.9c1.1,0,2.1-0.2,3.2-0.7v1.4c-0.5,0.2-1,0.4-1.5,0.5
			C250.5,44.4,249.9,44.5,249.2,44.5z M248.8,35.4c-0.8,0-1.4,0.3-1.9,0.8s-0.8,1.3-0.8,2.2h5.2c0-1-0.2-1.7-0.6-2.2
			C250.2,35.6,249.6,35.4,248.8,35.4z"/>
		<path class="st3" d="M260.1,34.1c0.4,0,0.8,0,1.2,0.1l-0.2,1.4c-0.4-0.1-0.8-0.1-1.1-0.1c-0.8,0-1.5,0.3-2.1,1S257,38,257,39v5.4
			h-1.5v-10h1.3l0.2,1.9h0.1c0.4-0.7,0.8-1.2,1.3-1.5C258.9,34.3,259.4,34.1,260.1,34.1z"/>
		<path class="st3" d="M267.4,44.5c-1.5,0-2.7-0.5-3.5-1.4s-1.3-2.2-1.3-3.8s0.4-2.9,1.2-3.9c0.8-1,1.9-1.4,3.2-1.4
			c1.3,0,2.3,0.4,3,1.2s1.1,1.9,1.1,3.3v1h-6.9c0,1.2,0.3,2.1,0.9,2.7s1.4,0.9,2.4,0.9c1.1,0,2.1-0.2,3.2-0.7v1.4
			c-0.5,0.2-1,0.4-1.5,0.5C268.6,44.4,268.1,44.5,267.4,44.5z M267,35.4c-0.8,0-1.4,0.3-1.9,0.8s-0.8,1.3-0.8,2.2h5.2
			c0-1-0.2-1.7-0.6-2.2C268.4,35.6,267.8,35.4,267,35.4z"/>
	</g>
</g>
</svg>
