<?xml version="1.0" encoding="utf-8"?>
<!-- Generator: Adobe Illustrator 25.1.0, SVG Export Plug-In . SVG Version: 6.00 Build 0)  -->
<svg version="1.1" id="Layer_2" xmlns="http://www.w3.org/2000/svg" xmlns:xlink="http://www.w3.org/1999/xlink" x="0px" y="0px"
	 viewBox="0 0 300 250" style="enable-background:new 0 0 300 250;" xml:space="preserve">
<style type="text/css">
	.st0{fill:#FFFFFF;}
	.st1{font-family:'OpenSans';}
	.st2{font-size:18.75px;}
	.st3{opacity:0.803;clip-path:url(#SVGID_2_);}
	.st4{fill:url(#Rectangle_6104_1_);}
	.st5{fill:#FFC100;}
	.st6{font-family:'OpenSans-Semibold';}
	.st7{font-size:10.7143px;}
</style>
<text transform="matrix(1 0 0 1 30.1338 44.3081)" class="st0 st1 st2">Whenever you need it</text>
<text transform="matrix(1 0 0 1 30.1338 44.3081)" class="st0 st1 st2">Put data to work wherever </text>
<text transform="matrix(1 0 0 1 30.1338 69.085)" class="st0 st1 st2">you need it</text>
<g id="logo" transform="translate(-1000)">
	<g>
		<defs>
			<rect id="SVGID_1_" x="1000" y="174.9" width="144" height="75"/>
		</defs>
		<clipPath id="SVGID_2_">
			<use xlink:href="#SVGID_1_"  style="overflow:visible;"/>
		</clipPath>
		<g id="Mask_Group_202" transform="translate(500)" class="st3">
			
				<radialGradient id="Rectangle_6104_1_" cx="54.9382" cy="726.5538" r="0.3107" gradientTransform="matrix(4.958878e-15 88 210.56 -1.400996e-14 -152410.2812 -4615.9019)" gradientUnits="userSpaceOnUse">
				<stop  offset="0" style="stop-color:#000000"/>
				<stop  offset="0.626" style="stop-color:#000000;stop-opacity:0.478"/>
				<stop  offset="1" style="stop-color:#000000;stop-opacity:0"/>
			</radialGradient>
			<path id="Rectangle_6104" class="st4" d="M641,191.4v49.9c0,2.5-1.8,4.5-4.1,4.5H504.1c-2.3,0-4.1-2-4.1-4.5v-49.9
				c0-2.5,1.8-4.5,4.1-4.5h132.7C639.2,187,641,189,641,191.4z"/>
		</g>
	</g>
	<g id="Group_12262" transform="translate(1278.635 659.491)">
		<g id="Group_12090" transform="translate(30.381 2.214)">
			<path id="Path_17059" class="st0" d="M-255.8-438c-1.5,0.1-3-0.4-4.3-1.3l1-1.7c1,0.7,2.1,1,3.3,1c0.5,0,1-0.1,1.4-0.2
				c0.3-0.1,0.5-0.4,0.5-0.7c0-0.3-0.2-0.5-0.6-0.7c-0.5-0.2-1-0.3-1.5-0.4c-0.6-0.1-1.2-0.2-1.8-0.3c-0.6-0.1-1.1-0.4-1.5-0.8
				c-0.4-0.4-0.6-1-0.6-1.6c0-0.9,0.5-1.8,1.2-2.2c0.9-0.5,1.8-0.8,2.8-0.8c0.7,0,1.4,0.1,2.1,0.3c0.7,0.2,1.3,0.4,1.9,0.7l-1,1.8
				c-0.9-0.5-1.9-0.8-3-0.8c-0.4,0-0.9,0.1-1.3,0.2c-0.3,0.1-0.5,0.3-0.5,0.6c0,0.2,0.2,0.4,0.5,0.5c0.4,0.1,0.8,0.2,1.2,0.3
				c0.5,0.1,1,0.1,1.5,0.3c0.5,0.1,1,0.3,1.5,0.4c0.5,0.2,0.9,0.5,1.2,0.9c0.3,0.4,0.5,0.9,0.5,1.5c0,0.7-0.2,1.3-0.7,1.8
				c-0.5,0.5-1,0.8-1.7,1C-254.4-438.1-255.1-438-255.8-438z"/>
			<path id="Path_17060" class="st5" d="M-247.4-449.3c-0.3,0.3-0.7,0.5-1.2,0.5c-0.5,0-0.9-0.2-1.2-0.5c-0.3-0.3-0.5-0.7-0.5-1.2
				c0-0.4,0.2-0.9,0.5-1.2c0.3-0.3,0.7-0.5,1.2-0.5c0.4,0,0.9,0.2,1.2,0.5c0.3,0.3,0.5,0.7,0.5,1.2
				C-246.9-450.1-247.1-449.6-247.4-449.3z"/>
			<rect id="Rectangle_6020" x="-249.9" y="-447.5" class="st0" width="2.6" height="9.3"/>
			<path id="Path_17061" class="st0" d="M-241.7-438c-1.5,0.1-3-0.4-4.3-1.3l1-1.7c1,0.7,2.1,1,3.3,1c0.5,0,1-0.1,1.4-0.2
				c0.3-0.1,0.5-0.4,0.5-0.7c0-0.3-0.2-0.5-0.6-0.7c-0.5-0.2-1-0.3-1.5-0.4c-0.6-0.1-1.2-0.2-1.8-0.3c-0.6-0.1-1.1-0.4-1.5-0.8
				c-0.4-0.4-0.6-1-0.6-1.6c0-0.9,0.5-1.8,1.2-2.2c0.9-0.5,1.8-0.8,2.8-0.8c0.7,0,1.4,0.1,2.1,0.3c0.7,0.2,1.3,0.4,1.9,0.7l-1,1.8
				c-0.9-0.5-1.9-0.8-3-0.8c-0.4,0-0.9,0.1-1.3,0.2c-0.3,0.1-0.5,0.3-0.5,0.6c0,0.2,0.2,0.4,0.5,0.5c0.4,0.1,0.8,0.2,1.2,0.3
				c0.5,0.1,1,0.1,1.5,0.3c0.5,0.1,1,0.3,1.5,0.4c0.5,0.2,0.9,0.5,1.2,0.9c0.3,0.4,0.5,0.9,0.5,1.5c0,0.7-0.2,1.3-0.7,1.8
				c-0.5,0.5-1,0.8-1.7,1C-240.3-438.1-241-438-241.7-438z"/>
			<path id="Path_17062" class="st0" d="M-231.2-438c-1.4,0.1-2.7-0.4-3.8-1.4c-1-0.9-1.5-2.2-1.5-3.6c0-1.3,0.5-2.6,1.4-3.5
				c1-0.9,2.4-1.4,3.7-1.4c1.4-0.1,2.8,0.5,3.7,1.6c0.9,1.1,1.4,2.5,1.3,4h-7.6c0.1,0.6,0.4,1.2,0.9,1.6c0.5,0.4,1.2,0.6,1.8,0.5
				c0.9,0,1.8-0.3,2.4-0.9l1.8,1.2C-228-438.6-229.6-437.9-231.2-438z M-233.8-443.8h4.8c-0.1-0.6-0.3-1.1-0.8-1.5
				c-0.4-0.4-1-0.6-1.6-0.6c-0.6,0-1.2,0.2-1.7,0.5C-233.4-444.9-233.7-444.4-233.8-443.8z"/>
			<path id="Path_17063" class="st0" d="M-222.3-438.3h-2.6v-9.3h2.3l0.3,1.3c0.8-1,2-1.6,3.3-1.5c2.2,0,3.4,1.2,3.4,3.7v5.8h-2.6
				v-5.5c0.1-0.9-0.5-1.7-1.4-1.8c-0.1,0-0.3,0-0.4,0c-0.9,0-1.8,0.4-2.2,1.3L-222.3-438.3z"/>
			<path id="Path_17064" class="st0" d="M-210.3-438c-1.5,0.1-3-0.4-4.3-1.3l1-1.7c1,0.7,2.1,1,3.3,1c0.5,0,1-0.1,1.4-0.2
				c0.3-0.1,0.5-0.4,0.5-0.7c0-0.3-0.2-0.5-0.6-0.7c-0.5-0.2-1-0.3-1.5-0.4c-0.6-0.1-1.2-0.2-1.8-0.3c-0.6-0.1-1.1-0.4-1.5-0.8
				c-0.4-0.4-0.6-1-0.6-1.6c0-0.9,0.5-1.8,1.2-2.2c0.9-0.5,1.8-0.8,2.8-0.8c0.7,0,1.4,0.1,2.1,0.3c0.7,0.2,1.3,0.4,1.9,0.7l-1,1.8
				c-0.9-0.5-1.9-0.8-3-0.8c-0.4,0-0.9,0.1-1.3,0.2c-0.3,0.1-0.5,0.3-0.5,0.6c0,0.2,0.2,0.4,0.5,0.5c0.4,0.1,0.8,0.2,1.2,0.3
				c0.5,0.1,1,0.1,1.5,0.3c0.5,0.1,1,0.3,1.5,0.4c0.5,0.2,0.9,0.5,1.1,0.9c0.3,0.4,0.5,0.9,0.5,1.5c0,0.7-0.2,1.3-0.7,1.8
				c-0.5,0.5-1,0.8-1.7,1C-208.8-438.1-209.6-438-210.3-438z"/>
			<path id="Path_17065" class="st0" d="M-199.8-438c-1.4,0.1-2.7-0.4-3.8-1.4c-1-0.9-1.5-2.2-1.5-3.6c0-1.3,0.5-2.6,1.4-3.5
				c1-0.9,2.4-1.4,3.7-1.4c1.4-0.1,2.8,0.5,3.7,1.6c0.9,1.1,1.4,2.5,1.3,4h-7.6c0.1,0.6,0.4,1.2,0.9,1.6c0.5,0.4,1.2,0.6,1.8,0.5
				c0.9,0,1.8-0.3,2.4-0.9l1.8,1.2C-196.5-438.6-198.1-437.9-199.8-438z M-202.3-443.8h4.8c-0.1-0.6-0.3-1.1-0.8-1.5
				c-0.4-0.4-1-0.6-1.6-0.6c-0.6,0-1.2,0.2-1.7,0.5C-201.9-444.9-202.2-444.4-202.3-443.8z"/>
		</g>
		<g id="Group_12091" transform="translate(0 0)">
			<path id="Path_17066" class="st5" d="M-242.3-440.4C-242.3-440.4-242.3-440.4-242.3-440.4c-1.9,0-3.4-1.5-3.4-3.4
				c0-1.9,1.5-3.4,3.4-3.4c0,0,0,0,0.1,0v-4.4h-0.1c-4.3,0-7.7,3.5-7.7,7.7c0,4.3,3.5,7.7,7.7,7.7h0.1V-440.4z"/>
			<path id="Path_17067" class="st0" d="M-240.2-434.8C-240.2-434.8-240.2-434.8-240.2-434.8c1.9,0,3.4-1.5,3.4-3.4
				c0-1.9-1.5-3.4-3.4-3.4c0,0,0,0-0.1,0v-4.4h0.1c4.3,0,7.7,3.5,7.7,7.7s-3.5,7.7-7.7,7.7c0,0,0,0,0,0h-0.1V-434.8z"/>
		</g>
	</g>
</g>
<text transform="matrix(1 0 0 1 30.1338 44.3081)" class="st0 st1 st2">Infuse analytics everywhere</text>
<g id="cta" transform="translate(280.682 438.257)">
	<path id="Path_17142" class="st5" d="M-249-378.5h95.5c0.8,0,1.5,0.7,1.5,1.5c0,0,0,0,0,0v20.6c0,0.8-0.7,1.5-1.5,1.5l0,0H-249
		c-0.8,0-1.5-0.7-1.5-1.5c0,0,0,0,0,0V-377C-250.5-377.9-249.9-378.5-249-378.5z"/>
	<text transform="matrix(1 0 0 1 -230.6986 -363.1447)" class="st6 st7">Learn More</text>
</g>
</svg>
