<svg xmlns="http://www.w3.org/2000/svg" xmlns:xlink="http://www.w3.org/1999/xlink" viewBox="0 0 300 600">
  <defs>
    <style>
      .cls-1, .cls-9 {
        fill: none;
      }

      .cls-2 {
        clip-path: url(#clip-path);
      }

      .cls-3 {
        opacity: 0.95;
        fill: url(#Degradado_sin_nombre_4);
      }

      .cls-3, .cls-5 {
        isolation: isolate;
      }

      .cls-4 {
        fill: url(#Degradado_sin_nombre_2);
      }

      .cls-6 {
        fill: #fff;
      }

      .cls-7 {
        clip-path: url(#clip-path-2);
      }

      .cls-8 {
        opacity: 0.29;
        fill: url(#linear-gradient);
      }

      .cls-9 {
        stroke: #fff;
        stroke-miterlimit: 10;
        stroke-width: 0.97px;
      }

      .cls-10 {
        fill: #030504;
      }

      .cls-11 {
        fill: #e4001b;
      }
    </style>
    <clipPath id="clip-path">
      <rect class="cls-1" width="300" height="600"/>
    </clipPath>
    <radialGradient id="Degradado_sin_nombre_4" data-name="Degradado sin nombre 4" cx="1.69" cy="-206.07" r="0.41" gradientTransform="matrix(542.92, 0, 0, -563.83, -783.24, -115871.25)" gradientUnits="userSpaceOnUse">
      <stop offset="0" stop-color="#fff"/>
      <stop offset="0.26" stop-color="#fff" stop-opacity="0.68"/>
      <stop offset="0.53" stop-color="#fff" stop-opacity="0.39"/>
      <stop offset="0.75" stop-color="#fff" stop-opacity="0.18"/>
      <stop offset="0.91" stop-color="#fff" stop-opacity="0.05"/>
      <stop offset="1" stop-color="#fff" stop-opacity="0"/>
    </radialGradient>
    <radialGradient id="Degradado_sin_nombre_2" data-name="Degradado sin nombre 2" cx="-40.62" cy="-255.15" r="0.38" gradientTransform="matrix(14.65, 129.43, 9.75, -113.47, 3233.37, -23251.37)" gradientUnits="userSpaceOnUse">
      <stop offset="0"/>
      <stop offset="0.63" stop-color="#040404" stop-opacity="0.97"/>
      <stop offset="1" stop-color="gray" stop-opacity="0"/>
    </radialGradient>
    <clipPath id="clip-path-2">
      <rect id="Rectangle_5685" data-name="Rectangle 5685" class="cls-1" x="31.75" y="180.65" width="135.02" height="32.42"/>
    </clipPath>
    <linearGradient id="linear-gradient" x1="17.45" y1="184.65" x2="-122.53" y2="216.08" gradientUnits="userSpaceOnUse">
      <stop offset="0"/>
      <stop offset="0.24" stop-color="#fff"/>
      <stop offset="0.46"/>
      <stop offset="0.71" stop-color="#fff"/>
      <stop offset="1"/>
    </linearGradient>
  </defs>
  <g id="_300x600" data-name="300x600">
    <g class="cls-2">
      <g id="BG">
        <image id="GettyImages-561860327" width="901" height="803" transform="translate(-228.43 -37.27) scale(0.84)" xlink:href="awareness1-300x2501.jpg"/>
        <ellipse id="back_light_ellipse" data-name="back light ellipse" class="cls-3" cx="156.64" cy="326.17" rx="246.33" ry="255.82"/>
        <image id="shadow_layer_300x" data-name="shadow_layer@300x" width="600" height="491" transform="translate(19.62 359.73) scale(0.45)" xlink:href="awareness11.png"/>
        <ellipse id="Elipse_70" data-name="Elipse 70" class="cls-4" cx="150" cy="443.83" rx="7.56" ry="76.7" transform="translate(-296.32 586.27) rotate(-89.03)"/>
        <image id="PT200827_004C1-removebg" width="500" height="345" transform="translate(79.12 453.66) rotate(-90) scale(0.41)" xlink:href="awareness1-300x2503.png"/>
        <image id="shine1_300x" data-name="shine1@300x" width="1721" height="1721" transform="translate(61.46 231.87) scale(0.04)" xlink:href="awareness21.png"/>
      </g>
      <g id="f2">
        <g class="cls-5">
          <path class="cls-6" d="M35.45,59.35h4.49l4,12.9,4.28-13h3.59l4.27,13L60,59.35h4.38l-6.5,19.19H54.21l-4.3-12.46-4.3,12.46H42Z"/>
          <path class="cls-6" d="M66.7,58.53h4.35v3.68H66.7Zm.11,5.29H71V78.41H66.81Z"/>
          <path class="cls-6" d="M75.52,74.27V67.36H73.78V63.82h1.74V60.09h4.14v3.73h3.43v3.54H79.66v6.23c0,1,.4,1.41,1.33,1.41a4.28,4.28,0,0,0,2-.51v3.32a6.17,6.17,0,0,1-3.27.84C77.23,78.65,75.52,77.65,75.52,74.27Z"/>
          <path class="cls-6" d="M86.13,58.53h4.14v7.36a5.15,5.15,0,0,1,4.27-2.35c3.13,0,5,2.07,5,5.42v9.45H95.36V70.27c0-2-.92-3-2.5-3s-2.59,1-2.59,3v8.14H86.13Z"/>
          <path class="cls-6" d="M116.13,63.22h-5.8V59.35h15.79v3.87h-5.8V78.41h-4.19Z"/>
          <path class="cls-6" d="M128.89,58.53H133v7.36a5.15,5.15,0,0,1,4.27-2.35c3.13,0,5,2.07,5,5.42v9.45h-4.14V70.27c0-2-.93-3-2.51-3s-2.58,1-2.58,3v8.14h-4.14Z"/>
          <path class="cls-6" d="M145.14,71.19v0c0-4.17,3-7.6,7.21-7.6,4.88,0,7.11,3.79,7.11,7.93,0,.32,0,.7-.06,1.08H149.25a3.38,3.38,0,0,0,3.57,2.86,4.77,4.77,0,0,0,3.53-1.49L158.72,76a7.71,7.71,0,0,1-13.58-4.82ZM155.43,70c-.25-1.85-1.33-3.11-3.08-3.11s-2.83,1.23-3.15,3.11Z"/>
        </g>
        <g class="cls-5">
          <path class="cls-6" d="M36.08,98.1V98A9.68,9.68,0,0,1,46,88.19a9.84,9.84,0,0,1,7.51,2.94L50.86,94.2A7.05,7.05,0,0,0,46,92.05,5.65,5.65,0,0,0,40.46,98V98c0,3.27,2.26,6,5.53,6a6.88,6.88,0,0,0,5-2.23l2.66,2.69a9.72,9.72,0,0,1-7.81,3.41A9.62,9.62,0,0,1,36.08,98.1Z"/>
          <path class="cls-6" d="M56.57,87.7h4.14v7.35A5.15,5.15,0,0,1,65,92.71c3.13,0,5,2.06,5,5.41v9.45H65.8V99.43c0-2-.92-3-2.5-3s-2.59,1-2.59,3v8.14H56.57Z"/>
          <path class="cls-6" d="M72.82,100.36v-.06a7.66,7.66,0,0,1,7.92-7.59,7.58,7.58,0,0,1,7.87,7.54v0a7.9,7.9,0,0,1-15.79.06Zm11.71,0v-.06a3.88,3.88,0,0,0-3.84-4,3.74,3.74,0,0,0-3.78,4v0a3.88,3.88,0,0,0,3.83,4A3.74,3.74,0,0,0,84.53,100.36Z"/>
          <path class="cls-6" d="M91.68,87.7H96v3.67H91.68ZM91.79,93h4.14v14.59H91.79Z"/>
          <path class="cls-6" d="M99.11,100.36v-.06a7.49,7.49,0,0,1,7.65-7.59,7.16,7.16,0,0,1,5.83,2.45l-2.53,2.72a4.27,4.27,0,0,0-3.32-1.61,3.73,3.73,0,0,0-3.54,4v0a3.74,3.74,0,0,0,3.7,4,4.64,4.64,0,0,0,3.35-1.55l2.42,2.45a7.35,7.35,0,0,1-6,2.67A7.46,7.46,0,0,1,99.11,100.36Z"/>
          <path class="cls-6" d="M114.25,100.36v-.06c0-4.16,3-7.59,7.21-7.59,4.87,0,7.11,3.78,7.11,7.92,0,.32,0,.71-.06,1.09H118.36a3.38,3.38,0,0,0,3.56,2.85,4.77,4.77,0,0,0,3.54-1.49l2.37,2.09a7.7,7.7,0,0,1-13.58-4.81Zm10.29-1.23c-.25-1.85-1.34-3.1-3.08-3.1s-2.83,1.22-3.16,3.1Z"/>
          <path class="cls-6" d="M146.77,88.38h3.87l8.17,19.19h-4.39l-1.74-4.27h-8.06l-1.74,4.27h-4.27Zm4.41,11.21-2.53-6.18-2.53,6.18Z"/>
          <path class="cls-6" d="M161.31,93h4.13v2.07a5.17,5.17,0,0,1,4.28-2.34c3.13,0,4.95,2.06,4.95,5.41v9.45h-4.14V99.43c0-2-.92-3-2.5-3s-2.59,1-2.59,3v8.14h-4.13Z"/>
          <path class="cls-6" d="M177.61,100.3v0c0-4.88,3.18-7.54,6.64-7.54a5.6,5.6,0,0,1,4.55,2.17V87.7h4.14v19.87H188.8v-2.1a5.37,5.37,0,0,1-4.55,2.37C180.85,107.84,177.61,105.17,177.61,100.3Zm11.24,0v0c0-2.43-1.6-4-3.54-4s-3.56,1.58-3.56,4v0a3.72,3.72,0,0,0,3.56,4C187.25,104.33,188.85,102.72,188.85,100.3Z"/>
        </g>
        <g class="cls-5">
          <path class="cls-6" d="M36.92,117.68h7.79c4.54,0,7.29,2.69,7.29,6.58v.06c0,4.41-3.43,6.69-7.7,6.69H41.12v5.72h-4.2Zm7.52,9.6c2.09,0,3.32-1.25,3.32-2.88v-.05c0-1.88-1.31-2.89-3.41-2.89H41.12v5.82Z"/>
          <path class="cls-6" d="M53.83,129.52v-.06c0-4.16,3-7.59,7.21-7.59,4.87,0,7.1,3.78,7.1,7.92,0,.33,0,.71,0,1.09H57.94a3.37,3.37,0,0,0,3.56,2.86,4.79,4.79,0,0,0,3.54-1.5l2.37,2.1a7.71,7.71,0,0,1-13.58-4.82Zm10.29-1.23c-.25-1.85-1.34-3.1-3.08-3.1s-2.83,1.22-3.16,3.1Z"/>
          <path class="cls-6" d="M71.22,122.14h4.14v2.94c.84-2,2.2-3.32,4.65-3.21v4.33h-.22c-2.75,0-4.43,1.66-4.43,5.14v5.39H71.22Z"/>
          <path class="cls-6" d="M83.3,125.68H81.59v-3.4H83.3v-.93a4.82,4.82,0,0,1,1.17-3.54,4.56,4.56,0,0,1,3.35-1.14,9,9,0,0,1,2.94.41v3.43a5.2,5.2,0,0,0-1.88-.36c-.95,0-1.49.49-1.49,1.58v.57h3.34v3.38H87.44v11H83.3Z"/>
          <path class="cls-6" d="M92,129.52v-.06a7.9,7.9,0,0,1,15.79-.05v.05a7.9,7.9,0,0,1-15.79.06Zm11.71,0v-.06a3.88,3.88,0,0,0-3.84-4,3.74,3.74,0,0,0-3.78,4v.05a3.88,3.88,0,0,0,3.83,4A3.74,3.74,0,0,0,103.72,129.52Z"/>
          <path class="cls-6" d="M110.79,122.14h4.14v2.94c.84-2,2.2-3.32,4.65-3.21v4.33h-.21c-2.75,0-4.44,1.66-4.44,5.14v5.39h-4.14Z"/>
          <path class="cls-6" d="M122.17,122.14h4.14v2.07a5.19,5.19,0,0,1,4.3-2.34,4.37,4.37,0,0,1,4.11,2.31,6,6,0,0,1,4.79-2.31c3.08,0,4.93,1.85,4.93,5.36v9.5H140.3v-8.14c0-2-.87-3-2.42-3s-2.51,1-2.51,3v8.14h-4.14v-8.14c0-2-.87-3-2.42-3s-2.5,1-2.5,3v8.14h-4.14Z"/>
          <path class="cls-6" d="M147.15,132.54v-.06c0-3.18,2.43-4.65,5.88-4.65a10.23,10.23,0,0,1,3.57.6v-.25c0-1.71-1.06-2.66-3.13-2.66a10.76,10.76,0,0,0-4,.79l-1-3.16a12.8,12.8,0,0,1,5.66-1.17,6.77,6.77,0,0,1,4.93,1.63,6.41,6.41,0,0,1,1.58,4.66v8.46h-4v-1.58a5.58,5.58,0,0,1-4.41,1.85C149.41,137,147.15,135.42,147.15,132.54Zm9.51-.95v-.74a6.41,6.41,0,0,0-2.65-.54c-1.76,0-2.85.7-2.85,2v.06c0,1.11.92,1.77,2.26,1.77C155.35,134.15,156.66,133.08,156.66,131.59Z"/>
          <path class="cls-6" d="M164.14,122.14h4.14v2.07a5.13,5.13,0,0,1,4.27-2.34c3.13,0,4.95,2.07,4.95,5.41v9.45h-4.13v-8.14c0-2-.93-3-2.51-3s-2.58,1-2.58,3v8.14h-4.14Z"/>
          <path class="cls-6" d="M180.39,129.52v-.06a7.49,7.49,0,0,1,7.65-7.59,7.14,7.14,0,0,1,5.82,2.45L191.33,127a4.27,4.27,0,0,0-3.32-1.61,3.73,3.73,0,0,0-3.54,4v.05a3.74,3.74,0,0,0,3.7,4,4.64,4.64,0,0,0,3.35-1.55l2.42,2.45a7.33,7.33,0,0,1-6,2.67A7.45,7.45,0,0,1,180.39,129.52Z"/>
          <path class="cls-6" d="M195.52,129.52v-.06a7.27,7.27,0,0,1,7.22-7.59c4.87,0,7.1,3.78,7.1,7.92,0,.33,0,.71-.05,1.09H199.63a3.39,3.39,0,0,0,3.57,2.86,4.8,4.8,0,0,0,3.54-1.5l2.36,2.1a7.71,7.71,0,0,1-13.58-4.82Zm10.29-1.23c-.24-1.85-1.33-3.1-3.07-3.1s-2.84,1.22-3.16,3.1Z"/>
          <path class="cls-6" d="M220.67,127.26v-.06a10.13,10.13,0,0,1,20.25,0v0a10.13,10.13,0,0,1-20.25.06Zm15.87,0v-.06a5.79,5.79,0,0,0-5.77-6,5.7,5.7,0,0,0-5.72,5.94v0a5.79,5.79,0,0,0,5.77,6A5.7,5.7,0,0,0,236.54,127.26Z"/>
          <path class="cls-6" d="M244.92,125.68h-1.71v-3.4h1.71v-.93a4.82,4.82,0,0,1,1.17-3.54,4.55,4.55,0,0,1,3.35-1.14,9,9,0,0,1,2.94.41v3.43a5.2,5.2,0,0,0-1.88-.36c-.95,0-1.5.49-1.5,1.58v.57h3.35v3.38h-3.29v11h-4.14Z"/>
        </g>
        <g class="cls-5">
          <path class="cls-6" d="M36.08,156.42v0A9.69,9.69,0,0,1,46,146.51a9.84,9.84,0,0,1,7.51,2.94l-2.67,3.08A7,7,0,0,0,46,150.38a5.64,5.64,0,0,0-5.53,5.93v.06c0,3.26,2.26,6,5.53,6a6.88,6.88,0,0,0,5-2.23l2.66,2.7a9.74,9.74,0,0,1-7.81,3.4A9.62,9.62,0,0,1,36.08,156.42Z"/>
          <path class="cls-6" d="M55.59,158.68v-.06A7.66,7.66,0,0,1,63.52,151a7.58,7.58,0,0,1,7.86,7.54v.05a7.9,7.9,0,0,1-15.79.06Zm11.71,0v-.06a3.87,3.87,0,0,0-3.84-4,3.73,3.73,0,0,0-3.78,4v.05a3.87,3.87,0,0,0,3.84,4A3.74,3.74,0,0,0,67.3,158.68Z"/>
          <path class="cls-6" d="M74.56,146H78.7v19.87H74.56Z"/>
          <path class="cls-6" d="M81.89,158.68v-.06a7.9,7.9,0,0,1,15.79-.05v.05a7.66,7.66,0,0,1-7.93,7.6A7.58,7.58,0,0,1,81.89,158.68Zm11.7,0v-.06a3.87,3.87,0,0,0-3.84-4,3.74,3.74,0,0,0-3.78,4v.05a3.87,3.87,0,0,0,3.84,4A3.73,3.73,0,0,0,93.59,158.68Z"/>
          <path class="cls-6" d="M100,158.68v-.06a7.49,7.49,0,0,1,7.65-7.59,7.17,7.17,0,0,1,5.82,2.45l-2.53,2.72a4.25,4.25,0,0,0-3.32-1.6,3.72,3.72,0,0,0-3.54,4v.05a3.73,3.73,0,0,0,3.7,4,4.58,4.58,0,0,0,3.35-1.55l2.43,2.45a7.37,7.37,0,0,1-6,2.67A7.45,7.45,0,0,1,100,158.68Z"/>
          <path class="cls-6" d="M115.34,161.7v0c0-3.19,2.42-4.66,5.88-4.66a10.4,10.4,0,0,1,3.56.6v-.24c0-1.72-1.06-2.67-3.13-2.67a10.76,10.76,0,0,0-4,.79l-1-3.16a12.8,12.8,0,0,1,5.66-1.17,6.77,6.77,0,0,1,4.93,1.63,6.37,6.37,0,0,1,1.58,4.66v8.46h-4v-1.58a5.61,5.61,0,0,1-4.41,1.86C117.6,166.17,115.34,164.59,115.34,161.7Zm9.5-.95V160a6.56,6.56,0,0,0-2.64-.54c-1.77,0-2.86.71-2.86,2v.06c0,1.11.92,1.77,2.26,1.77C123.53,163.31,124.84,162.25,124.84,160.75Z"/>
          <path class="cls-6" d="M132.87,161.76v-6.92h-1.75V151.3h1.75v-3.73H137v3.73h3.43v3.54H137v6.23c0,1,.41,1.42,1.34,1.42a4.18,4.18,0,0,0,2-.52v3.32a6.08,6.08,0,0,1-3.27.85C134.58,166.14,132.87,165.13,132.87,161.76Z"/>
          <path class="cls-6" d="M143.56,146h4.36v3.68h-4.36Zm.11,5.28h4.14v14.59h-4.14Z"/>
          <path class="cls-6" d="M151,158.68v-.06a7.9,7.9,0,0,1,15.79-.05v.05a7.9,7.9,0,0,1-15.79.06Zm11.71,0v-.06a3.87,3.87,0,0,0-3.84-4,3.73,3.73,0,0,0-3.78,4v.05a3.87,3.87,0,0,0,3.83,4A3.74,3.74,0,0,0,162.7,158.68Z"/>
          <path class="cls-6" d="M169.77,151.3h4.14v2.07a5.17,5.17,0,0,1,4.27-2.34c3.13,0,5,2.07,5,5.42v9.44H179v-8.14c0-2-.93-3-2.5-3s-2.59,1-2.59,3v8.14h-4.14Z"/>
          <path class="cls-6" d="M188.8,155l.13-.13c3.43-.14,4.77-1,4.77-2.48v0c0-1.23-.93-1.94-2.51-1.94a5.61,5.61,0,0,0-4.08,1.88l-2.51-2.75a8.62,8.62,0,0,1,6.67-2.94c3.92,0,6.59,2,6.59,5.64v.05c0,3.46-2.39,4.87-5.36,5.47l-.3,1.66h-2.78Zm-.28,6.54h4.42v4.35h-4.42Z"/>
        </g>
      </g>
      <g id="f3">
        <g id="c3">
          <g id="Just_add_metal" data-name="Just add metal" class="cls-5">
            <g class="cls-5">
              <path class="cls-6" d="M32.2,83.13l5.18-4.89c1.41,1.7,2.73,2.69,4.51,2.69,2,0,3.32-1.36,3.32-4.06V58.52h8v18.4c0,3.64-.91,6.21-2.85,8.16a11,11,0,0,1-8,2.94C37.34,88,34.23,85.91,32.2,83.13Z"/>
              <path class="cls-6" d="M58.18,74.8V58.52h8.16V74.64c0,4.18,2.11,6.17,5.34,6.17S77,78.9,77,74.84V58.52h8.16V74.6c0,9.36-5.35,13.46-13.59,13.46S58.18,83.88,58.18,74.8Z"/>
              <path class="cls-6" d="M87.83,83.21l4.48-5.34a14.91,14.91,0,0,0,9.4,3.48c2.15,0,3.31-.75,3.31-2v-.08c0-1.2-1-1.87-4.88-2.78C94,75.09,89.2,73.35,89.2,67.39V67.3c0-5.38,4.27-9.28,11.23-9.28a18.24,18.24,0,0,1,11.93,3.86l-4,5.67a14.57,14.57,0,0,0-8.12-2.86c-2,0-2.9.83-2.9,1.87v.08c0,1.33,1,1.91,5,2.82,6.67,1.45,10.81,3.6,10.81,9v.08c0,5.93-4.68,9.45-11.72,9.45A20.27,20.27,0,0,1,87.83,83.21Z"/>
              <path class="cls-6" d="M123.81,65.57h-8.7v-7h25.44v7h-8.7v22h-8Z"/>
            </g>
            <g class="cls-5">
              <path class="cls-6" d="M44.63,97h7.75L64.72,126.2H56.1L54,121H42.81l-2.08,5.18H32.28Zm7,17.78-3.23-8.25-3.27,8.25Z"/>
              <path class="cls-6" d="M67.38,97.2H78.57c10.35,0,16.36,6,16.36,14.34v.08c0,8.37-6.09,14.58-16.53,14.58h-11Zm11.31,21.88c4.81,0,8-2.66,8-7.34v-.08c0-4.64-3.19-7.33-8-7.33H75.42v14.75Z"/>
              <path class="cls-6" d="M99.09,97.2h11.19c10.35,0,16.36,6,16.36,14.34v.08c0,8.37-6.09,14.58-16.53,14.58h-11Zm11.31,21.88c4.81,0,8-2.66,8-7.34v-.08c0-4.64-3.19-7.33-8-7.33h-3.27v14.75Z"/>
            </g>
            <g class="cls-5">
              <path class="cls-6" d="M34.6,135.88h8.5L50,147.11l6.92-11.23h8.49v29h-8V148.23L50,159.58h-.16l-7.38-11.27v16.57H34.6Z"/>
              <path class="cls-6" d="M71,135.88H94.34v6.84H79v4.39H92.89v6.34H79V158H94.55v6.84H71Z"/>
              <path class="cls-6" d="M105.61,142.92h-8.7v-7h25.44v7h-8.7v22h-8Z"/>
              <path class="cls-6" d="M132,135.67h7.74l12.35,29.21h-8.62l-2.11-5.18H130.15l-2.07,5.18h-8.45Zm7,17.78-3.23-8.25-3.27,8.25Z"/>
              <path class="cls-6" d="M154.73,135.88h8v22h14v7H154.73Z"/>
            </g>
          </g>
        </g>
        <g id="cta">
          <g class="cls-7">
            <rect id="cta-glow" class="cls-8" x="-338.74" y="129.62" width="550.45" height="146.41"/>
          </g>
          <g id="Learn_more" data-name="Learn more" class="cls-5">
            <g class="cls-5">
              <path class="cls-6" d="M60.85,191.78h2.73v7.45h4.76v2.39H60.85Z"/>
              <path class="cls-6" d="M69.09,197.85v0a3.82,3.82,0,0,1,3.84-4c2.63,0,3.84,1.93,3.84,4.16a5.15,5.15,0,0,1,0,.55H71.67a1.56,1.56,0,0,0,1.64,1.25A2.32,2.32,0,0,0,75,199l1.47,1.22a4,4,0,0,1-3.3,1.55A3.83,3.83,0,0,1,69.09,197.85Zm5.17-.66a1.36,1.36,0,0,0-1.32-1.38c-.7,0-1.18.55-1.32,1.38Z"/>
              <path class="cls-6" d="M77.51,199.44v0c0-1.57,1.2-2.39,3-2.39a5.72,5.72,0,0,1,1.83.3v-.13c0-.79-.49-1.24-1.52-1.24a5.45,5.45,0,0,0-2.09.42l-.55-1.88a7.67,7.67,0,0,1,3.08-.59,3.87,3.87,0,0,1,2.89.93,3.16,3.16,0,0,1,.82,2.41v4.38H82.3v-.79a2.87,2.87,0,0,1-2.23.95A2.31,2.31,0,0,1,77.51,199.44Zm4.84-.58v-.35a2.87,2.87,0,0,0-1-.2c-.78,0-1.23.38-1.23.94v0a.84.84,0,0,0,.94.83A1.22,1.22,0,0,0,82.35,198.86Z"/>
              <path class="cls-6" d="M86.48,194h2.67v1.53a2.32,2.32,0,0,1,2.4-1.65v2.81h-.22c-1.39,0-2.18.8-2.18,2.55v2.37H86.48Z"/>
              <path class="cls-6" d="M92.54,194h2.67v1.07a2.85,2.85,0,0,1,2.28-1.24,2.49,2.49,0,0,1,2.59,2.8v5H97.41V197.5c0-.83-.44-1.28-1.07-1.28a1.13,1.13,0,0,0-1.13,1.28v4.12H92.54Z"/>
              <path class="cls-6" d="M105.5,191.78h2.89l2.34,3.81,2.35-3.81H116v9.84h-2.71V196l-2.52,3.85h0L108.17,196v5.63H105.5Z"/>
              <path class="cls-6" d="M117.38,197.85v0a4.21,4.21,0,0,1,8.4,0v0a4.05,4.05,0,0,1-4.22,4A4,4,0,0,1,117.38,197.85Zm5.8,0v0a1.64,1.64,0,0,0-1.62-1.71,1.59,1.59,0,0,0-1.58,1.68v0a1.65,1.65,0,0,0,1.61,1.72A1.6,1.6,0,0,0,123.18,197.85Z"/>
              <path class="cls-6" d="M127,194h2.67v1.53a2.32,2.32,0,0,1,2.4-1.65v2.81h-.22c-1.39,0-2.18.8-2.18,2.55v2.37H127Z"/>
              <path class="cls-6" d="M132.72,197.85v0a3.82,3.82,0,0,1,3.84-4c2.62,0,3.83,1.93,3.83,4.16,0,.17,0,.37,0,.55h-5.09a1.57,1.57,0,0,0,1.64,1.25,2.3,2.3,0,0,0,1.69-.77l1.48,1.22a4,4,0,0,1-3.31,1.55A3.82,3.82,0,0,1,132.72,197.85Zm5.17-.66c-.1-.84-.59-1.38-1.32-1.38s-1.18.55-1.32,1.38Z"/>
            </g>
          </g>
          <rect id="Rectangle_5685-2" data-name="Rectangle 5685" class="cls-9" x="31.75" y="180.65" width="135.02" height="32.42"/>
        </g>
      </g>
    </g>
    <g id="Logo">
      <path id="chevon_shape" data-name="chevon shape" class="cls-6" d="M300,471.38l-114.18.05L152.4,524.06H300Z"/>
      <g id="Grupo_12756" data-name="Grupo 12756">
        <g id="Group_2" data-name="Group 2">
          <path id="X" class="cls-10" d="M268.61,506.59l-2.36,2.57-2.31-2.57H262.6l2.88,3.29-3.6,3.88h1.32l2.95-3.19,2.81,3.19h1.42l-3.48-3.89,3-3.28Z"/>
          <rect id="I" class="cls-10" x="255.88" y="506.6" width="1.03" height="7.16"/>
          <path id="N" class="cls-10" d="M248.62,506.6v5.61l-5.07-5.61h-1v7.16h1V508.1l5.09,5.66h1V506.6Z"/>
          <rect id="I-2" class="cls-10" x="235.33" y="506.6" width="1.03" height="7.16"/>
          <path id="U" class="cls-10" d="M228.54,510.91a2,2,0,0,1-1.86,2.12h-.24a1.92,1.92,0,0,1-2-1.86,1.13,1.13,0,0,1,0-.26v-4.29h-1V511a2.89,2.89,0,0,0,2.74,3h.27a2.87,2.87,0,0,0,3.13-2.57,3.23,3.23,0,0,0,0-.44v-4.34h-1Z"/>
          <path id="Q" class="cls-10" d="M214.4,506.31a3.74,3.74,0,0,0-3.78,3.7v.21a3.7,3.7,0,0,0,3.59,3.8h.21a4,4,0,0,0,1.67-.4l.59.67h1.19l-1-1.17a3.65,3.65,0,0,0,1.36-3v0a3.71,3.71,0,0,0-3.62-3.8h-.2m2.75,3.87a2.83,2.83,0,0,1-.93,2.23l-.55-.64h-1.19l1,1.12a2.89,2.89,0,0,1-1,.21,2.77,2.77,0,0,1-2.75-2.79h0v-.15a2.72,2.72,0,0,1,2.52-2.92h.16a2.78,2.78,0,0,1,2.78,2.78v.16Z"/>
          <path id="E" class="cls-10" d="M200.2,506.6v7.16h6.39v-.92h-5.34v-2.33h3.46v-.95h-3.46v-2h5.16v-1Z"/>
        </g>
        <g id="icon_group" data-name="icon group">
          <path id="icon" class="cls-11" d="M235.84,480.38l-2.91,1v15.29L231,496V482.08l-5.84,2V494l-1.94-.68v-8.51l-1.94.68v9.22l5.83,2V485.5l1.94-.68V497.4l5.84,2V482.78l1-.34,1,.34v16.65l5.83-2V484.82l1.94.67v11.23l5.83-2v-9.21l-1.94-.68v8.51l-1.94.68v-9.87l-5.84-2V496l-1.94.67V481.4Z"/>
          <path id="R" class="cls-11" d="M254.15,494a1.77,1.77,0,0,0,1.75-1.76h0a1.76,1.76,0,0,0-3.51,0h0a1.76,1.76,0,0,0,1.74,1.76h0m0-.19a1.54,1.54,0,0,1-1.55-1.53,0,0,0,0,1,0,0h0a1.55,1.55,0,1,1,3.09-.11v.1h0a1.55,1.55,0,0,1-1.54,1.57h0m-.72-.7h.44v-.57h.28l.4.57h.53l-.47-.65a.57.57,0,0,0,.41-.56c0-.42-.31-.61-.73-.61h-.86Zm.44-.93v-.51h.39c.18,0,.31.09.31.25s-.11.26-.31.26Z"/>
        </g>
      </g>
    </g>
  </g>
</svg>
