<svg xmlns="http://www.w3.org/2000/svg" xmlns:xlink="http://www.w3.org/1999/xlink" viewBox="0 0 728 90">
  <defs>
    <style>
      .cls-1, .cls-9 {
        fill: none;
      }

      .cls-2 {
        clip-path: url(#clip-path);
      }

      .cls-3 {
        opacity: 0.95;
        fill: url(#Degradado_sin_nombre_4);
      }

      .cls-3, .cls-5 {
        isolation: isolate;
      }

      .cls-4 {
        fill: url(#Degradado_sin_nombre_2);
      }

      .cls-6 {
        fill: #fff;
      }

      .cls-7 {
        clip-path: url(#clip-path-2);
      }

      .cls-8 {
        opacity: 0.29;
        fill: url(#linear-gradient);
      }

      .cls-9 {
        stroke: #fff;
        stroke-miterlimit: 10;
        stroke-width: 0.65px;
      }

      .cls-10 {
        fill: #030504;
      }

      .cls-11 {
        fill: #e4001b;
      }
    </style>
    <clipPath id="clip-path">
      <rect class="cls-1" width="728" height="90"/>
    </clipPath>
    <radialGradient id="Degradado_sin_nombre_4" data-name="Degradado sin nombre 4" cx="204.92" cy="316.67" r="0.2" gradientTransform="matrix(542.92, 0, 0, -563.83, -110782.16, 178597.58)" gradientUnits="userSpaceOnUse">
      <stop offset="0" stop-color="#fff"/>
      <stop offset="0.26" stop-color="#fff" stop-opacity="0.68"/>
      <stop offset="0.53" stop-color="#fff" stop-opacity="0.39"/>
      <stop offset="0.75" stop-color="#fff" stop-opacity="0.18"/>
      <stop offset="0.91" stop-color="#fff" stop-opacity="0.05"/>
      <stop offset="1" stop-color="#fff" stop-opacity="0"/>
    </radialGradient>
    <radialGradient id="Degradado_sin_nombre_2" data-name="Degradado sin nombre 2" cx="196.72" cy="304.49" r="0.18" gradientTransform="matrix(14.65, 129.43, 9.75, -113.47, -5381.63, 9179.43)" gradientUnits="userSpaceOnUse">
      <stop offset="0"/>
      <stop offset="0.63" stop-color="#040404" stop-opacity="0.97"/>
      <stop offset="1" stop-color="gray" stop-opacity="0"/>
    </radialGradient>
    <clipPath id="clip-path-2">
      <rect id="Rectangle_5685" data-name="Rectangle 5685" class="cls-1" x="32.41" y="53.67" width="91.37" height="21.94"/>
    </clipPath>
    <linearGradient id="linear-gradient" x1="22.74" y1="56.38" x2="-72" y2="77.64" gradientUnits="userSpaceOnUse">
      <stop offset="0"/>
      <stop offset="0.24" stop-color="#fff"/>
      <stop offset="0.46"/>
      <stop offset="0.71" stop-color="#fff"/>
      <stop offset="1"/>
    </linearGradient>
  </defs>
  <g id="_728x90" data-name="728x90">
    <g class="cls-2">
      <g id="BG">
        <image id="GettyImages-561860327" width="901" height="803" transform="translate(-19.41 -335.58) scale(0.85)" xlink:href="awareness1-300x2501.jpg"/>
        <ellipse id="back_light_ellipse" data-name="back light ellipse" class="cls-3" cx="479.95" cy="51.52" rx="119.87" ry="124.49"/>
        <image id="shadow_layer_300x" data-name="shadow_layer@300x" width="600" height="491" transform="translate(411.76 50.74) scale(0.2)" xlink:href="awareness11.png"/>
        <ellipse id="Elipse_70" data-name="Elipse 70" class="cls-4" cx="469.4" cy="90.09" rx="3.53" ry="35.82" transform="translate(371.34 557.89) rotate(-89.03)"/>
        <image id="PT200827_004C1-removebg" width="500" height="345" transform="translate(437.17 94.28) rotate(-90) scale(0.18)" xlink:href="awareness1-300x2503.png"/>
        <image id="shine1_300x" data-name="shine1@300x" width="1721" height="1721" transform="translate(429.16 -3.63) scale(0.02)" xlink:href="awareness21.png"/>
      </g>
      <g id="f1">
        <g id="_Company_Name_Company_Name_Ready_To_Control_Your_Cloud_" data-name=" Company Name Company Name Ready To Control Your Cloud " class="cls-5">
          <g class="cls-5">
            <path class="cls-6" d="M32.38,29.76h5.51v2h-3v10.1h3v2H32.38Z"/>
            <path class="cls-6" d="M39.46,35.76v0a6.06,6.06,0,0,1,6.22-6.18,6.14,6.14,0,0,1,4.71,1.85l-1.67,1.92a4.42,4.42,0,0,0-3-1.34,3.54,3.54,0,0,0-3.47,3.71v0a3.55,3.55,0,0,0,3.47,3.75,4.26,4.26,0,0,0,3.13-1.4l1.68,1.69a6.1,6.1,0,0,1-4.9,2.13A6,6,0,0,1,39.46,35.76Z"/>
            <path class="cls-6" d="M51.68,37.18v0a4.81,4.81,0,0,1,5-4.76,4.76,4.76,0,0,1,4.93,4.73v0a4.8,4.8,0,0,1-5,4.76A4.75,4.75,0,0,1,51.68,37.18Zm7.34,0v0a2.43,2.43,0,0,0-2.41-2.52,2.34,2.34,0,0,0-2.37,2.49v0a2.43,2.43,0,0,0,2.41,2.53A2.34,2.34,0,0,0,59,37.18Z"/>
            <path class="cls-6" d="M63.45,32.56H66v1.29a3.28,3.28,0,0,1,2.7-1.47,2.74,2.74,0,0,1,2.58,1.46,3.76,3.76,0,0,1,3-1.46c1.93,0,3.09,1.17,3.09,3.37v6h-2.6V36.6c0-1.23-.54-1.86-1.52-1.86s-1.57.63-1.57,1.86v5.1H69.13V36.6c0-1.23-.54-1.86-1.52-1.86S66,35.37,66,36.6v5.1H63.45Z"/>
            <path class="cls-6" d="M79.65,32.56h2.6v1.31a3.36,3.36,0,0,1,2.84-1.49c2.14,0,4.17,1.68,4.17,4.73v0c0,3.06-2,4.73-4.17,4.73a3.5,3.5,0,0,1-2.84-1.36v3.92h-2.6Zm7,4.58v0a2.24,2.24,0,1,0-4.45,0v0a2.24,2.24,0,1,0,4.45,0Z"/>
            <path class="cls-6" d="M90.62,39.07v0c0-2,1.52-2.92,3.68-2.92a6.34,6.34,0,0,1,2.24.38v-.16c0-1.07-.67-1.67-2-1.67a6.71,6.71,0,0,0-2.53.5l-.65-2A8,8,0,0,1,95,32.45a4.22,4.22,0,0,1,3.09,1,4,4,0,0,1,1,2.91V41.7H96.52v-1a3.51,3.51,0,0,1-2.76,1.16C92,41.87,90.62,40.88,90.62,39.07Zm5.95-.6V38a4.07,4.07,0,0,0-1.65-.34c-1.11,0-1.79.45-1.79,1.27v0c0,.7.58,1.11,1.41,1.11C95.75,40.08,96.57,39.41,96.57,38.47Z"/>
            <path class="cls-6" d="M101.26,32.56h2.59v1.29a3.24,3.24,0,0,1,2.68-1.47c2,0,3.11,1.3,3.11,3.4V41.7H107V36.6c0-1.23-.58-1.86-1.57-1.86s-1.62.63-1.62,1.86v5.1h-2.59Z"/>
            <path class="cls-6" d="M111.51,43.85l.87-1.88a2.31,2.31,0,0,0,1.11.36.87.87,0,0,0,.9-.6l-3.58-9.17h2.75l2.08,6.22,2-6.22h2.7l-3.51,9.36c-.7,1.86-1.45,2.56-3,2.56A4.31,4.31,0,0,1,111.51,43.85Z"/>
            <path class="cls-6" d="M127.25,29.76h2.42l5.6,7.35V29.76h2.59V41.7h-2.23l-5.79-7.59V41.7h-2.59Z"/>
            <path class="cls-6" d="M139.91,39.07v0c0-2,1.51-2.92,3.68-2.92a6.24,6.24,0,0,1,2.23.38v-.16c0-1.07-.66-1.67-2-1.67a6.62,6.62,0,0,0-2.52.5l-.65-2a8,8,0,0,1,3.55-.74,4.23,4.23,0,0,1,3.09,1,4,4,0,0,1,1,2.91V41.7h-2.51v-1A3.51,3.51,0,0,1,143,41.87,2.82,2.82,0,0,1,139.91,39.07Zm6-.6V38a4.08,4.08,0,0,0-1.66-.34c-1.1,0-1.79.45-1.79,1.27v0c0,.7.58,1.11,1.42,1.11C145,40.08,145.86,39.41,145.86,38.47Z"/>
            <path class="cls-6" d="M150.55,32.56h2.59v1.29a3.27,3.27,0,0,1,2.7-1.47,2.73,2.73,0,0,1,2.57,1.46,3.77,3.77,0,0,1,3-1.46c1.93,0,3.09,1.17,3.09,3.37v6h-2.59V36.6c0-1.23-.55-1.86-1.52-1.86s-1.57.63-1.57,1.86v5.1h-2.59V36.6c0-1.23-.55-1.86-1.52-1.86s-1.57.63-1.57,1.86v5.1h-2.59Z"/>
            <path class="cls-6" d="M166.31,37.18v0a4.55,4.55,0,0,1,4.52-4.76c3,0,4.45,2.38,4.45,5,0,.2,0,.44,0,.68h-6.36a2.13,2.13,0,0,0,2.24,1.79,3,3,0,0,0,2.21-.94l1.49,1.32a4.83,4.83,0,0,1-8.51-3Zm6.44-.77a2,2,0,0,0-1.92-1.94,2,2,0,0,0-2,1.94Z"/>
            <path class="cls-6" d="M182.06,35.76v0a6.07,6.07,0,0,1,6.23-6.18A6.14,6.14,0,0,1,193,31.4l-1.67,1.92A4.43,4.43,0,0,0,188.27,32a3.53,3.53,0,0,0-3.46,3.71v0a3.54,3.54,0,0,0,3.46,3.75,4.28,4.28,0,0,0,3.14-1.4l1.67,1.69a6.3,6.3,0,0,1-11-4Z"/>
            <path class="cls-6" d="M194.29,37.18v0a4.81,4.81,0,0,1,5-4.76,4.76,4.76,0,0,1,4.93,4.73v0a4.8,4.8,0,0,1-5,4.76A4.75,4.75,0,0,1,194.29,37.18Zm7.34,0v0a2.44,2.44,0,0,0-2.41-2.52,2.34,2.34,0,0,0-2.37,2.49v0a2.43,2.43,0,0,0,2.41,2.53A2.34,2.34,0,0,0,201.63,37.18Z"/>
            <path class="cls-6" d="M206.06,32.56h2.59v1.29a3.27,3.27,0,0,1,2.7-1.47,2.72,2.72,0,0,1,2.57,1.46,3.79,3.79,0,0,1,3-1.46c1.92,0,3.08,1.17,3.08,3.37v6h-2.59V36.6c0-1.23-.55-1.86-1.52-1.86s-1.57.63-1.57,1.86v5.1h-2.59V36.6c0-1.23-.55-1.86-1.52-1.86s-1.57.63-1.57,1.86v5.1h-2.59Z"/>
            <path class="cls-6" d="M222.26,32.56h2.59v1.31a3.39,3.39,0,0,1,2.85-1.49c2.14,0,4.17,1.68,4.17,4.73v0c0,3.06-2,4.73-4.17,4.73a3.53,3.53,0,0,1-2.85-1.36v3.92h-2.59Zm7,4.58v0a2.24,2.24,0,1,0-4.45,0v0a2.24,2.24,0,1,0,4.45,0Z"/>
            <path class="cls-6" d="M233.23,39.07v0c0-2,1.51-2.92,3.68-2.92a6.34,6.34,0,0,1,2.24.38v-.16c0-1.07-.67-1.67-2-1.67a6.66,6.66,0,0,0-2.52.5l-.65-2a8,8,0,0,1,3.55-.74,4.22,4.22,0,0,1,3.09,1,4,4,0,0,1,1,2.91V41.7h-2.51v-1a3.51,3.51,0,0,1-2.76,1.16C234.64,41.87,233.23,40.88,233.23,39.07Zm6-.6V38a4.07,4.07,0,0,0-1.65-.34c-1.11,0-1.8.45-1.8,1.27v0c0,.7.58,1.11,1.42,1.11C238.36,40.08,239.18,39.41,239.18,38.47Z"/>
            <path class="cls-6" d="M243.87,32.56h2.59v1.29a3.24,3.24,0,0,1,2.68-1.47c2,0,3.1,1.3,3.1,3.4V41.7h-2.59V36.6c0-1.23-.58-1.86-1.57-1.86s-1.62.63-1.62,1.86v5.1h-2.59Z"/>
            <path class="cls-6" d="M254.12,43.85,255,42a2.31,2.31,0,0,0,1.11.36.87.87,0,0,0,.9-.6l-3.58-9.17h2.75l2.08,6.22,2-6.22h2.7l-3.52,9.36c-.7,1.86-1.45,2.56-3,2.56A4.28,4.28,0,0,1,254.12,43.85Z"/>
            <path class="cls-6" d="M269.86,29.76h2.42l5.6,7.35V29.76h2.59V41.7h-2.23l-5.79-7.59V41.7h-2.59Z"/>
            <path class="cls-6" d="M282.51,39.07v0c0-2,1.52-2.92,3.69-2.92a6.29,6.29,0,0,1,2.23.38v-.16c0-1.07-.66-1.67-2-1.67a6.62,6.62,0,0,0-2.52.5l-.65-2a7.94,7.94,0,0,1,3.55-.74,4.19,4.19,0,0,1,3.08,1,4,4,0,0,1,1,2.91V41.7h-2.5v-1a3.53,3.53,0,0,1-2.77,1.16C283.93,41.87,282.51,40.88,282.51,39.07Zm6-.6V38a4.15,4.15,0,0,0-1.66-.34c-1.11,0-1.79.45-1.79,1.27v0c0,.7.58,1.11,1.42,1.11C287.65,40.08,288.47,39.41,288.47,38.47Z"/>
            <path class="cls-6" d="M293.16,32.56h2.59v1.29a3.26,3.26,0,0,1,2.69-1.47A2.73,2.73,0,0,1,301,33.84a3.77,3.77,0,0,1,3-1.46c1.93,0,3.09,1.17,3.09,3.37v6h-2.59V36.6c0-1.23-.55-1.86-1.52-1.86s-1.57.63-1.57,1.86v5.1h-2.59V36.6c0-1.23-.55-1.86-1.52-1.86s-1.57.63-1.57,1.86v5.1h-2.59Z"/>
            <path class="cls-6" d="M308.91,37.18v0a4.55,4.55,0,0,1,4.52-4.76c3.06,0,4.46,2.38,4.46,5,0,.2,0,.44,0,.68h-6.36a2.12,2.12,0,0,0,2.23,1.79,3,3,0,0,0,2.22-.94l1.49,1.32a4.84,4.84,0,0,1-8.52-3Zm6.45-.77a2,2,0,0,0-1.93-1.94,2,2,0,0,0-2,1.94Z"/>
            <path class="cls-6" d="M319.32,41.89h3V31.79h-3v-2h5.51V43.92h-5.51Z"/>
            <path class="cls-6" d="M326.68,43.39c1.18-.12,1.76-.72,1.68-1.69H327.3V39h2.76v2.3c0,2.25-1.12,3.16-3.15,3.19Z"/>
          </g>
          <g class="cls-5">
            <path class="cls-6" d="M32.4,48h5.45a4.73,4.73,0,0,1,3.48,1.22,3.71,3.71,0,0,1,1,2.72v0a3.7,3.7,0,0,1-2.56,3.7L42.72,60H39.65l-2.56-3.83H35V60H32.4Zm5.28,5.8c1.28,0,2-.68,2-1.68v0c0-1.12-.79-1.7-2.07-1.7H35v3.42Z"/>
            <path class="cls-6" d="M43.84,55.46v0a4.55,4.55,0,0,1,4.52-4.76c3,0,4.45,2.37,4.45,5,0,.2,0,.44,0,.68H46.41a2.13,2.13,0,0,0,2.24,1.79,3,3,0,0,0,2.22-.94l1.48,1.31a4.83,4.83,0,0,1-8.51-3Zm6.45-.77a2,2,0,0,0-1.93-1.95,2,2,0,0,0-2,1.95Z"/>
            <path class="cls-6" d="M54.19,57.35v0c0-2,1.52-2.91,3.69-2.91a6.53,6.53,0,0,1,2.23.37v-.15c0-1.08-.67-1.67-2-1.67a6.71,6.71,0,0,0-2.53.49l-.64-2a8.07,8.07,0,0,1,3.54-.73,4.22,4.22,0,0,1,3.09,1,4,4,0,0,1,1,2.92V60H60.09V59a3.51,3.51,0,0,1-2.76,1.16C55.61,60.15,54.19,59.16,54.19,57.35Zm6-.6v-.46A4.07,4.07,0,0,0,58.49,56c-1.11,0-1.79.44-1.79,1.26v0c0,.7.58,1.1,1.41,1.1C59.33,58.35,60.14,57.69,60.14,56.75Z"/>
            <path class="cls-6" d="M64.42,55.42v0c0-3.06,2-4.73,4.17-4.73A3.48,3.48,0,0,1,71.43,52V47.52H74V60h-2.6V58.66a3.36,3.36,0,0,1-2.84,1.49C66.45,60.15,64.42,58.47,64.42,55.42Zm7,0v0a2.24,2.24,0,1,0-4.45,0v0a2.24,2.24,0,1,0,4.45,0Z"/>
            <path class="cls-6" d="M76.22,62.13l.87-1.88a2.46,2.46,0,0,0,1.11.36.87.87,0,0,0,.91-.6l-3.58-9.18h2.74l2.08,6.23,2-6.23H85L81.53,60.2c-.7,1.86-1.45,2.56-3,2.56A4.35,4.35,0,0,1,76.22,62.13Z"/>
            <path class="cls-6" d="M94.75,50.46H91.11V48H101v2.43H97.37V60H94.75Z"/>
            <path class="cls-6" d="M100.51,55.46v0a4.8,4.8,0,0,1,5-4.76,4.75,4.75,0,0,1,4.93,4.73v0a4.95,4.95,0,0,1-9.89,0Zm7.33,0v0a2.42,2.42,0,0,0-2.4-2.52,2.34,2.34,0,0,0-2.37,2.49v0a2.43,2.43,0,0,0,2.4,2.53A2.34,2.34,0,0,0,107.84,55.46Z"/>
            <path class="cls-6" d="M117.14,54v0a6.07,6.07,0,0,1,6.22-6.18,6.16,6.16,0,0,1,4.71,1.84L126.4,51.6a4.39,4.39,0,0,0-3.05-1.35A3.54,3.54,0,0,0,119.88,54v0a3.55,3.55,0,0,0,3.47,3.75,4.34,4.34,0,0,0,3.14-1.4l1.67,1.69a6.11,6.11,0,0,1-4.9,2.13A6,6,0,0,1,117.14,54Z"/>
            <path class="cls-6" d="M129.37,55.46v0a4.95,4.95,0,0,1,9.89,0v0a4.8,4.8,0,0,1-5,4.76A4.75,4.75,0,0,1,129.37,55.46Zm7.33,0v0a2.42,2.42,0,0,0-2.4-2.52,2.34,2.34,0,0,0-2.38,2.49v0A2.44,2.44,0,0,0,134.33,58,2.35,2.35,0,0,0,136.7,55.46Z"/>
            <path class="cls-6" d="M141.13,50.83h2.6v1.3a3.21,3.21,0,0,1,2.67-1.47c2,0,3.11,1.3,3.11,3.4V60h-2.59v-5.1c0-1.23-.58-1.86-1.57-1.86s-1.62.63-1.62,1.86V60h-2.6Z"/>
            <path class="cls-6" d="M152.18,57.38V53.05h-1.09V50.83h1.09V48.5h2.6v2.33h2.15v2.22h-2.15V57c0,.59.25.88.83.88a2.67,2.67,0,0,0,1.28-.32V59.6a3.82,3.82,0,0,1-2,.53C153.26,60.13,152.18,59.5,152.18,57.38Z"/>
            <path class="cls-6" d="M158.84,50.83h2.59v1.84a2.82,2.82,0,0,1,2.92-2v2.71h-.14c-1.72,0-2.78,1-2.78,3.23V60h-2.59Z"/>
            <path class="cls-6" d="M165.26,55.46v0a5,5,0,0,1,9.9,0v0a4.8,4.8,0,0,1-5,4.76A4.75,4.75,0,0,1,165.26,55.46Zm7.34,0v0a2.42,2.42,0,0,0-2.41-2.52,2.34,2.34,0,0,0-2.37,2.49v0A2.44,2.44,0,0,0,170.23,58,2.35,2.35,0,0,0,172.6,55.46Z"/>
            <path class="cls-6" d="M177.15,47.52h2.59V60h-2.59Z"/>
            <path class="cls-6" d="M190.93,55.27,186.34,48h3.07l2.85,4.8,2.9-4.8h3l-4.59,7.19V60h-2.63Z"/>
            <path class="cls-6" d="M197.19,55.46v0a4.8,4.8,0,0,1,5-4.76,4.75,4.75,0,0,1,4.93,4.73v0a4.95,4.95,0,0,1-9.89,0Zm7.34,0v0a2.43,2.43,0,0,0-2.41-2.52,2.34,2.34,0,0,0-2.37,2.49v0a2.43,2.43,0,0,0,2.4,2.53A2.35,2.35,0,0,0,204.53,55.46Z"/>
            <path class="cls-6" d="M208.89,56.75V50.83h2.59v5.1c0,1.23.58,1.86,1.57,1.86s1.62-.63,1.62-1.86v-5.1h2.6V60h-2.6v-1.3A3.22,3.22,0,0,1,212,60.15C210,60.15,208.89,58.85,208.89,56.75Z"/>
            <path class="cls-6" d="M219.58,50.83h2.6v1.84a2.81,2.81,0,0,1,2.91-2v2.71H225c-1.73,0-2.78,1-2.78,3.23V60h-2.6Z"/>
            <path class="cls-6" d="M231.57,54v0a6.07,6.07,0,0,1,6.23-6.18,6.18,6.18,0,0,1,4.71,1.84l-1.68,1.93a4.37,4.37,0,0,0-3.05-1.35A3.54,3.54,0,0,0,234.32,54v0a3.54,3.54,0,0,0,3.46,3.75,4.32,4.32,0,0,0,3.14-1.4l1.67,1.69a6.11,6.11,0,0,1-4.89,2.13A6,6,0,0,1,231.57,54Z"/>
            <path class="cls-6" d="M244.53,47.52h2.6V60h-2.6Z"/>
            <path class="cls-6" d="M249.12,55.46v0a4.8,4.8,0,0,1,5-4.76A4.75,4.75,0,0,1,259,55.39v0a4.95,4.95,0,0,1-9.89,0Zm7.34,0v0a2.43,2.43,0,0,0-2.41-2.52,2.34,2.34,0,0,0-2.37,2.49v0a2.43,2.43,0,0,0,2.4,2.53A2.35,2.35,0,0,0,256.46,55.46Z"/>
            <path class="cls-6" d="M260.82,56.75V50.83h2.59v5.1c0,1.23.58,1.86,1.57,1.86s1.62-.63,1.62-1.86v-5.1h2.6V60h-2.6v-1.3a3.22,3.22,0,0,1-2.68,1.47C262,60.15,260.82,58.85,260.82,56.75Z"/>
            <path class="cls-6" d="M271.1,55.42v0c0-3.06,2-4.73,4.17-4.73A3.48,3.48,0,0,1,278.11,52V47.52h2.6V60h-2.6V58.66a3.36,3.36,0,0,1-2.84,1.49C273.13,60.15,271.1,58.47,271.1,55.42Zm7,0v0a2.24,2.24,0,1,0-4.45,0v0a2.24,2.24,0,1,0,4.45,0Z"/>
          </g>
        </g>
      </g>
      <g id="f2">
        <g id="With_The_Choice_And_performance_Of_Colocation_" data-name="With The Choice And performance Of Colocation " class="cls-5">
          <g class="cls-5">
            <path class="cls-6" d="M31.47,29.8h2.75l2.41,7.89,2.62-7.92h2.2l2.61,7.92,2.41-7.89h2.68l-4,11.74H42.94l-2.63-7.63-2.63,7.63H35.45Z"/>
            <path class="cls-6" d="M50.59,29.3h2.66v2.25H50.59Zm.07,3.23h2.53v8.93H50.66Z"/>
            <path class="cls-6" d="M56,38.92V34.7H54.92V32.53H56V30.25h2.53v2.28h2.09V34.7H58.52v3.81c0,.58.24.86.81.86a2.57,2.57,0,0,0,1.25-.31v2a3.7,3.7,0,0,1-2,.51C57,41.6,56,41,56,38.92Z"/>
            <path class="cls-6" d="M62.48,29.3H65v4.5a3.15,3.15,0,0,1,2.61-1.43c1.92,0,3,1.26,3,3.31v5.78H68.12v-5c0-1.2-.56-1.82-1.53-1.82S65,35.28,65,36.48v5H62.48Z"/>
            <path class="cls-6" d="M80.83,32.17H77.28V29.8h9.66v2.37H83.39v9.29H80.83Z"/>
            <path class="cls-6" d="M88.64,29.3h2.53v4.5a3.15,3.15,0,0,1,2.61-1.43c1.92,0,3,1.26,3,3.31v5.78H94.28v-5c0-1.2-.56-1.82-1.53-1.82s-1.58.62-1.58,1.82v5H88.64Z"/>
            <path class="cls-6" d="M98.58,37v0A4.43,4.43,0,0,1,103,32.37c3,0,4.35,2.31,4.35,4.84,0,.2,0,.43,0,.67h-6.21a2.07,2.07,0,0,0,2.18,1.74,2.93,2.93,0,0,0,2.17-.91L106.89,40a4.71,4.71,0,0,1-8.31-3Zm6.29-.75A1.9,1.9,0,0,0,103,34.4a2,2,0,0,0-1.93,1.89Z"/>
            <path class="cls-6" d="M114,35.66v0a5.92,5.92,0,0,1,6.07-6,6,6,0,0,1,4.6,1.8L123,33.28A4.33,4.33,0,0,0,120,32a3.45,3.45,0,0,0-3.38,3.62v0A3.46,3.46,0,0,0,120,39.29a4.21,4.21,0,0,0,3.06-1.36l1.63,1.64a5.94,5.94,0,0,1-4.78,2.09A5.88,5.88,0,0,1,114,35.66Z"/>
            <path class="cls-6" d="M126.51,29.3H129v4.5a3.15,3.15,0,0,1,2.61-1.43c1.91,0,3,1.26,3,3.31v5.78h-2.53v-5c0-1.2-.57-1.82-1.53-1.82s-1.58.62-1.58,1.82v5h-2.53Z"/>
            <path class="cls-6" d="M136.45,37v0a4.83,4.83,0,0,1,9.65,0v0a4.69,4.69,0,0,1-4.84,4.65A4.64,4.64,0,0,1,136.45,37Zm7.15,0v0a2.36,2.36,0,0,0-2.34-2.46A2.29,2.29,0,0,0,138.94,37v0a2.37,2.37,0,0,0,2.35,2.46A2.28,2.28,0,0,0,143.6,37Z"/>
            <path class="cls-6" d="M148,29.3h2.66v2.25H148Zm.06,3.23h2.53v8.93h-2.53Z"/>
            <path class="cls-6" d="M152.53,37v0a4.58,4.58,0,0,1,4.68-4.64,4.38,4.38,0,0,1,3.56,1.49l-1.55,1.67a2.59,2.59,0,0,0-2-1A2.28,2.28,0,0,0,155,37v0a2.28,2.28,0,0,0,2.26,2.46,2.84,2.84,0,0,0,2.05-.94L160.82,40a4.48,4.48,0,0,1-3.64,1.64A4.57,4.57,0,0,1,152.53,37Z"/>
            <path class="cls-6" d="M161.79,37v0a4.44,4.44,0,0,1,4.41-4.64c3,0,4.35,2.31,4.35,4.84,0,.2,0,.43,0,.67H164.3a2.07,2.07,0,0,0,2.19,1.74,2.92,2.92,0,0,0,2.16-.91L170.1,40a4.71,4.71,0,0,1-8.31-3Zm6.29-.75a1.9,1.9,0,0,0-1.88-1.89,2,2,0,0,0-1.93,1.89Z"/>
            <path class="cls-6" d="M181.69,29.72h2.36l5,11.74h-2.68l-1.07-2.62h-4.93l-1.06,2.62h-2.62Zm2.69,6.86-1.54-3.78-1.55,3.78Z"/>
            <path class="cls-6" d="M190.58,32.53h2.53V33.8a3.15,3.15,0,0,1,2.62-1.43c1.91,0,3,1.26,3,3.31v5.78h-2.54v-5c0-1.2-.56-1.82-1.53-1.82s-1.58.62-1.58,1.82v5h-2.53Z"/>
            <path class="cls-6" d="M200.56,37v0c0-3,1.94-4.61,4.06-4.61a3.41,3.41,0,0,1,2.78,1.33V29.3h2.53V41.46H207.4V40.17a3.27,3.27,0,0,1-2.78,1.45C202.54,41.62,200.56,40,200.56,37Zm6.87,0v0a2.19,2.19,0,1,0-4.34,0v0a2.19,2.19,0,1,0,4.34,0Z"/>
          </g>
          <g class="cls-5">
            <path class="cls-6" d="M32.37,47.64h4.76c2.78,0,4.47,1.65,4.47,4v0c0,2.69-2.1,4.09-4.72,4.09H34.94v3.5H32.37ZM37,53.52a1.8,1.8,0,0,0,2-1.76v0c0-1.15-.8-1.76-2.08-1.76h-2v3.56Z"/>
            <path class="cls-6" d="M42.71,54.89v0a4.44,4.44,0,0,1,4.42-4.64c3,0,4.34,2.31,4.34,4.84,0,.2,0,.43,0,.67H45.23a2.07,2.07,0,0,0,2.18,1.75,2.92,2.92,0,0,0,2.16-.92L51,57.83a4.71,4.71,0,0,1-8.31-2.94Zm6.3-.75a1.91,1.91,0,0,0-1.88-1.9,2,2,0,0,0-1.94,1.9Z"/>
            <path class="cls-6" d="M53.35,50.37h2.53v1.8a2.76,2.76,0,0,1,2.85-2v2.64H58.6c-1.68,0-2.72,1-2.72,3.15v3.3H53.35Z"/>
            <path class="cls-6" d="M60.75,52.54h-1V50.46h1v-.57a3,3,0,0,1,.71-2.16,2.77,2.77,0,0,1,2-.7,5.62,5.62,0,0,1,1.8.25v2.1a3.1,3.1,0,0,0-1.15-.22.84.84,0,0,0-.92,1v.35h2.05v2.07h-2V59.3H60.75Z"/>
            <path class="cls-6" d="M66.08,54.89v0a4.83,4.83,0,0,1,9.65,0v0a4.83,4.83,0,0,1-9.65,0Zm7.16,0v0a2.37,2.37,0,0,0-2.35-2.46,2.29,2.29,0,0,0-2.32,2.43v0a2.37,2.37,0,0,0,2.35,2.47A2.29,2.29,0,0,0,73.24,54.89Z"/>
            <path class="cls-6" d="M77.57,50.37H80.1v1.8a2.74,2.74,0,0,1,2.84-2v2.64h-.13c-1.68,0-2.71,1-2.71,3.15v3.3H77.57Z"/>
            <path class="cls-6" d="M84.53,50.37h2.53v1.27a3.18,3.18,0,0,1,2.63-1.43,2.66,2.66,0,0,1,2.51,1.41,3.69,3.69,0,0,1,2.93-1.41c1.88,0,3,1.13,3,3.28V59.3H95.61v-5c0-1.2-.53-1.81-1.48-1.81s-1.53.61-1.53,1.81v5H90.07v-5c0-1.2-.53-1.81-1.48-1.81s-1.53.61-1.53,1.81v5H84.53Z"/>
            <path class="cls-6" d="M99.81,56.73v0c0-2,1.49-2.85,3.6-2.85a6.23,6.23,0,0,1,2.18.37v-.15c0-1-.65-1.63-1.91-1.63a6.59,6.59,0,0,0-2.47.48L100.58,51a7.91,7.91,0,0,1,3.46-.72,4.12,4.12,0,0,1,3,1,3.89,3.89,0,0,1,1,2.85V59.3h-2.45v-1a3.42,3.42,0,0,1-2.69,1.13C101.19,59.46,99.81,58.5,99.81,56.73Zm5.81-.58V55.7a3.91,3.91,0,0,0-1.61-.33c-1.08,0-1.75.43-1.75,1.23v0c0,.69.57,1.09,1.38,1.09C104.82,57.72,105.62,57.07,105.62,56.15Z"/>
            <path class="cls-6" d="M110.2,50.37h2.53v1.27a3.18,3.18,0,0,1,2.62-1.43c1.91,0,3,1.26,3,3.31V59.3h-2.53v-5c0-1.2-.57-1.81-1.53-1.81s-1.59.61-1.59,1.81v5H110.2Z"/>
            <path class="cls-6" d="M120.15,54.89v0a4.57,4.57,0,0,1,4.67-4.64,4.39,4.39,0,0,1,3.57,1.5l-1.55,1.66a2.6,2.6,0,0,0-2-1,2.28,2.28,0,0,0-2.17,2.43v0a2.29,2.29,0,0,0,2.27,2.47,2.81,2.81,0,0,0,2-1l1.49,1.5a4.72,4.72,0,0,1-8.29-3Z"/>
            <path class="cls-6" d="M129.4,54.89v0a4.44,4.44,0,0,1,4.42-4.64c3,0,4.34,2.31,4.34,4.84,0,.2,0,.43,0,.67h-6.21a2.07,2.07,0,0,0,2.18,1.75,2.92,2.92,0,0,0,2.16-.92l1.45,1.28a4.71,4.71,0,0,1-8.31-2.94Zm6.3-.75a1.91,1.91,0,0,0-1.88-1.9,2,2,0,0,0-1.94,1.9Z"/>
            <path class="cls-6" d="M144.79,53.5v0a6.2,6.2,0,0,1,12.39,0v0a6,6,0,0,1-6.21,6A6,6,0,0,1,144.79,53.5Zm9.71,0v0A3.54,3.54,0,0,0,151,49.81a3.48,3.48,0,0,0-3.5,3.63v0A3.54,3.54,0,0,0,151,57.13,3.49,3.49,0,0,0,154.5,53.5Z"/>
            <path class="cls-6" d="M159.63,52.54h-1V50.46h1v-.57a3,3,0,0,1,.71-2.16,2.77,2.77,0,0,1,2-.7,5.62,5.62,0,0,1,1.8.25v2.1a3.1,3.1,0,0,0-1.15-.22.84.84,0,0,0-.92,1v.35h2v2.07h-2V59.3h-2.53Z"/>
            <path class="cls-6" d="M170.3,53.5v0a5.93,5.93,0,0,1,6.08-6,6,6,0,0,1,4.59,1.8l-1.63,1.88a4.31,4.31,0,0,0-3-1.31A3.46,3.46,0,0,0,173,53.44v0a3.46,3.46,0,0,0,3.38,3.66,4.2,4.2,0,0,0,3.06-1.36l1.63,1.65A6.14,6.14,0,0,1,170.3,53.5Z"/>
            <path class="cls-6" d="M182.24,54.89v0a4.83,4.83,0,0,1,9.66,0v0a4.69,4.69,0,0,1-4.85,4.65A4.64,4.64,0,0,1,182.24,54.89Zm7.16,0v0a2.37,2.37,0,0,0-2.35-2.46,2.28,2.28,0,0,0-2.31,2.43v0a2.37,2.37,0,0,0,2.34,2.47A2.29,2.29,0,0,0,189.4,54.89Z"/>
            <path class="cls-6" d="M193.85,47.14h2.53V59.3h-2.53Z"/>
            <path class="cls-6" d="M198.33,54.89v0a4.83,4.83,0,0,1,9.65,0v0a4.83,4.83,0,0,1-9.65,0Zm7.15,0v0a2.37,2.37,0,0,0-2.34-2.46,2.29,2.29,0,0,0-2.32,2.43v0a2.37,2.37,0,0,0,2.35,2.47A2.28,2.28,0,0,0,205.48,54.89Z"/>
            <path class="cls-6" d="M209.38,54.89v0a4.58,4.58,0,0,1,4.68-4.64,4.36,4.36,0,0,1,3.56,1.5l-1.55,1.66a2.59,2.59,0,0,0-2-1,2.28,2.28,0,0,0-2.16,2.43v0a2.29,2.29,0,0,0,2.26,2.47,2.85,2.85,0,0,0,2.05-1l1.48,1.5A4.5,4.5,0,0,1,214,59.5,4.56,4.56,0,0,1,209.38,54.89Z"/>
            <path class="cls-6" d="M218.79,56.73v0c0-2,1.48-2.85,3.6-2.85a6.27,6.27,0,0,1,2.18.37v-.15c0-1-.65-1.63-1.92-1.63a6.57,6.57,0,0,0-2.46.48L219.56,51a7.87,7.87,0,0,1,3.46-.72,4.12,4.12,0,0,1,3,1,3.89,3.89,0,0,1,1,2.85V59.3h-2.45v-1a3.44,3.44,0,0,1-2.7,1.13A2.76,2.76,0,0,1,218.79,56.73Zm5.81-.58V55.7a3.91,3.91,0,0,0-1.61-.33c-1.09,0-1.75.43-1.75,1.23v0c0,.69.56,1.09,1.38,1.09C223.8,57.72,224.6,57.07,224.6,56.15Z"/>
            <path class="cls-6" d="M229.51,56.77V52.54h-1.06V50.37h1.06V48.09H232v2.28h2.1v2.17H232v3.81c0,.58.25.87.82.87a2.58,2.58,0,0,0,1.25-.32v2a3.7,3.7,0,0,1-2,.52C230.56,59.45,229.51,58.83,229.51,56.77Z"/>
            <path class="cls-6" d="M236.06,47.14h2.66v2.25h-2.66Zm.07,3.23h2.53V59.3h-2.53Z"/>
            <path class="cls-6" d="M240.6,54.89v0a4.69,4.69,0,0,1,4.85-4.64,4.64,4.64,0,0,1,4.81,4.61v0a4.83,4.83,0,0,1-9.66,0Zm7.16,0v0a2.37,2.37,0,0,0-2.34-2.46,2.29,2.29,0,0,0-2.32,2.43v0a2.37,2.37,0,0,0,2.35,2.47A2.28,2.28,0,0,0,247.76,54.89Z"/>
            <path class="cls-6" d="M252.09,50.37h2.53v1.27a3.18,3.18,0,0,1,2.62-1.43c1.91,0,3,1.26,3,3.31V59.3h-2.53v-5c0-1.2-.57-1.81-1.53-1.81s-1.59.61-1.59,1.81v5h-2.53Z"/>
            <path class="cls-6" d="M263.73,52.64l.09-.09c2.09-.08,2.91-.63,2.91-1.51v0c0-.75-.57-1.19-1.53-1.19A3.47,3.47,0,0,0,262.7,51l-1.53-1.68a5.26,5.26,0,0,1,4.08-1.8c2.4,0,4,1.24,4,3.45v0c0,2.12-1.47,3-3.28,3.35l-.19,1h-1.69Zm-.16,4h2.69V59.3h-2.69Z"/>
          </g>
        </g>
      </g>
      <g id="f3">
        <g id="c3">
          <g id="Just_add_metal" data-name="Just add metal" class="cls-5">
            <g class="cls-5">
              <path class="cls-6" d="M32.21,38.16l3.43-3.24a3.87,3.87,0,0,0,3,1.79c1.35,0,2.2-.91,2.2-2.69V21.86h5.29V34a7.14,7.14,0,0,1-1.89,5.41A7.26,7.26,0,0,1,39,41.4,7.81,7.81,0,0,1,32.21,38.16Z"/>
              <path class="cls-6" d="M49.51,32.64V21.86h5.41V32.54c0,2.77,1.4,4.08,3.54,4.08S62,35.36,62,32.67V21.86h5.4V32.51c0,6.2-3.54,8.91-9,8.91S49.51,38.65,49.51,32.64Z"/>
              <path class="cls-6" d="M69.25,38.21l3-3.54A9.87,9.87,0,0,0,78.44,37c1.43,0,2.2-.49,2.2-1.32v0c0-.8-.63-1.24-3.24-1.84-4.09-.93-7.24-2.09-7.24-6v-.05c0-3.57,2.83-6.15,7.43-6.15a12.08,12.08,0,0,1,7.91,2.56l-2.67,3.75A9.63,9.63,0,0,0,77.46,26c-1.29,0-1.92.55-1.92,1.24v0c0,.88.66,1.26,3.32,1.87,4.41,1,7.16,2.38,7.16,6v0c0,3.92-3.1,6.26-7.77,6.26A13.39,13.39,0,0,1,69.25,38.21Z"/>
              <path class="cls-6" d="M93.19,26.53H87.43V21.86h16.85v4.67H98.52V41.07H93.19Z"/>
              <path class="cls-6" d="M120.85,21.73H126l8.18,19.34h-5.71l-1.4-3.43h-7.4l-1.38,3.43h-5.59Zm4.67,11.77L123.38,28l-2.17,5.46Z"/>
              <path class="cls-6" d="M136,21.86h7.41c6.86,0,10.84,3.95,10.84,9.5v.05c0,5.54-4,9.66-10.95,9.66H136Zm7.49,14.49c3.18,0,5.3-1.76,5.3-4.86v0c0-3.07-2.12-4.86-5.3-4.86h-2.17v9.77Z"/>
              <path class="cls-6" d="M157.14,21.86h7.4c6.86,0,10.84,3.95,10.84,9.5v.05c0,5.54-4,9.66-10.95,9.66h-7.29Zm7.49,14.49c3.18,0,5.29-1.76,5.29-4.86v0c0-3.07-2.11-4.86-5.29-4.86h-2.17v9.77Z"/>
              <path class="cls-6" d="M185.73,21.86h5.62l4.59,7.44,4.58-7.44h5.62V41.07h-5.29V30l-4.91,7.52h-.11l-4.89-7.47v11h-5.21Z"/>
              <path class="cls-6" d="M209.94,21.86h15.45v4.53H215.21V29.3h9.22v4.2h-9.22v3h10.32v4.53H209.94Z"/>
              <path class="cls-6" d="M233,26.53H227.2V21.86h16.85v4.67h-5.76V41.07H233Z"/>
              <path class="cls-6" d="M250.59,21.73h5.13l8.18,19.34h-5.71l-1.4-3.43h-7.41L248,41.07h-5.6Zm4.66,11.77L253.11,28,251,33.5Z"/>
              <path class="cls-6" d="M265.77,21.86h5.32V36.4h9.3v4.67H265.77Z"/>
            </g>
          </g>
        </g>
        <g id="cta">
          <g class="cls-7">
            <rect id="cta-glow" class="cls-8" x="-218.31" y="19.14" width="372.5" height="99.08"/>
          </g>
          <g id="Learn_more" data-name="Learn more" class="cls-5">
            <g class="cls-5">
              <path class="cls-6" d="M51.44,61.18h1.85v5.05h3.23v1.62H51.44Z"/>
              <path class="cls-6" d="M57.13,65.3v0a2.59,2.59,0,0,1,2.6-2.7,2.54,2.54,0,0,1,2.61,2.82c0,.12,0,.25,0,.37H58.88a1.05,1.05,0,0,0,1.11.85,1.58,1.58,0,0,0,1.15-.52l1,.83a2.7,2.7,0,0,1-2.24,1A2.6,2.6,0,0,1,57.13,65.3Zm3.51-.45c-.07-.57-.4-.93-.9-.93s-.8.37-.89.93Z"/>
              <path class="cls-6" d="M62.94,66.38v0c0-1.07.81-1.62,2-1.62a3.82,3.82,0,0,1,1.24.2v-.09c0-.53-.33-.84-1-.84a3.67,3.67,0,0,0-1.42.29L63.38,63a5.15,5.15,0,0,1,2.09-.4,2.65,2.65,0,0,1,2,.63A2.15,2.15,0,0,1,68,64.89v3H66.19v-.53a2,2,0,0,1-1.52.65A1.56,1.56,0,0,1,62.94,66.38Zm3.28-.4v-.23a1.83,1.83,0,0,0-.71-.14c-.52,0-.83.26-.83.64v0a.57.57,0,0,0,.64.56A.83.83,0,0,0,66.22,66Z"/>
              <path class="cls-6" d="M69.11,62.69h1.82v1a1.57,1.57,0,0,1,1.63-1.12v1.91H72.4c-.94,0-1.47.54-1.47,1.73v1.6H69.11Z"/>
              <path class="cls-6" d="M73.32,62.69h1.81v.73a1.94,1.94,0,0,1,1.55-.84,1.68,1.68,0,0,1,1.75,1.9v3.37H76.62V65.06c0-.56-.29-.87-.72-.87a.77.77,0,0,0-.77.87v2.79H73.32Z"/>
              <path class="cls-6" d="M82.12,61.18h1.95l1.6,2.58,1.59-2.58h1.95v6.67H87.37V64l-1.7,2.61h0L83.93,64v3.81H82.12Z"/>
              <path class="cls-6" d="M90.27,65.3v0a2.75,2.75,0,0,1,2.86-2.7A2.72,2.72,0,0,1,96,65.26v0A2.75,2.75,0,0,1,93.11,68,2.72,2.72,0,0,1,90.27,65.3Zm3.94,0v0a1.12,1.12,0,0,0-1.1-1.16A1.08,1.08,0,0,0,92,65.26v0a1.12,1.12,0,0,0,1.1,1.16A1.08,1.08,0,0,0,94.21,65.3Z"/>
              <path class="cls-6" d="M96.89,62.69H98.7v1a1.57,1.57,0,0,1,1.63-1.12v1.91h-.15c-1,0-1.48.54-1.48,1.73v1.6H96.89Z"/>
              <path class="cls-6" d="M100.87,65.3v0a2.58,2.58,0,0,1,2.6-2.7,2.54,2.54,0,0,1,2.6,2.82v.37h-3.46a1.07,1.07,0,0,0,1.12.85,1.55,1.55,0,0,0,1.14-.52l1,.83a2.69,2.69,0,0,1-2.24,1A2.59,2.59,0,0,1,100.87,65.3Zm3.51-.45c-.07-.57-.4-.93-.9-.93s-.8.37-.9.93Z"/>
            </g>
          </g>
          <rect id="Rectangle_5685-2" data-name="Rectangle 5685" class="cls-9" x="32.41" y="53.67" width="91.37" height="21.94"/>
        </g>
      </g>
    </g>
    <g id="Logo">
      <path id="chevon_shape" data-name="chevon shape" class="cls-6" d="M727.85,45l-97.88,0L601.32,90.16H727.85Z"/>
      <g id="Grupo_12756" data-name="Grupo 12756">
        <g id="Group_2" data-name="Group 2">
          <path id="X" class="cls-10" d="M700.94,75.18l-2,2.21-2-2.21h-1.15L698.26,78l-3.08,3.33h1.12l2.53-2.73,2.41,2.73h1.22l-3-3.33L702,75.18Z"/>
          <rect id="I" class="cls-10" x="690.03" y="75.19" width="0.88" height="6.14"/>
          <path id="N" class="cls-10" d="M683.81,75.19V80l-4.35-4.8h-.87v6.13h.88V76.48l4.36,4.85h.86V75.19Z"/>
          <rect id="I-2" class="cls-10" x="672.42" y="75.19" width="0.88" height="6.14"/>
          <path id="U" class="cls-10" d="M666.6,78.89a1.72,1.72,0,0,1-1.6,1.82h-.2a1.65,1.65,0,0,1-1.71-1.6,1.62,1.62,0,0,1,0-.22V75.21h-.88v3.72a2.46,2.46,0,0,0,2.34,2.58h.24a2.46,2.46,0,0,0,2.68-2.2c0-.13,0-.26,0-.38V75.21h-.88Z"/>
          <path id="Q" class="cls-10" d="M654.47,74.94a3.22,3.22,0,0,0-3.24,3.18v.17a3.18,3.18,0,0,0,3.08,3.26h.18a3.34,3.34,0,0,0,1.43-.34l.5.58h1l-.88-1a3.19,3.19,0,0,0,1.17-2.56v0a3.18,3.18,0,0,0-3.1-3.25h-.17m2.35,3.31a2.37,2.37,0,0,1-.79,1.91l-.48-.55h-1l.84,1a2.11,2.11,0,0,1-.86.18,2.38,2.38,0,0,1-2.36-2.39h0v-.13a2.33,2.33,0,0,1,2.16-2.5h.14a2.39,2.39,0,0,1,2.38,2.38v.14Z"/>
          <path id="E" class="cls-10" d="M642.3,75.19v6.14h5.48v-.79H643.2v-2h3v-.81h-3V76h4.42v-.8Z"/>
        </g>
        <g id="icon_group" data-name="icon group">
          <path id="icon" class="cls-11" d="M672.86,52.72l-2.5.87V66.7l-1.67-.58v-12l-5,1.75v8.46L662,63.79V56.5l-1.67.58V65l5,1.75V57.1l1.67-.58V67.31l5,1.74V54.77l.83-.29.83.29V69.05l5-1.75V56.52l1.66.58v9.62l5-1.74v-7.9l-1.66-.58v7.29l-1.67.59V55.92l-5-1.75v12l-1.66.58V53.59Z"/>
          <path id="R" class="cls-11" d="M688.54,64.42a1.5,1.5,0,0,0,1.5-1.51h0a1.5,1.5,0,1,0-3,0h0a1.5,1.5,0,0,0,1.49,1.5h0m0-.16A1.33,1.33,0,0,1,687.21,63v0h0a1.33,1.33,0,0,1,2.66-.1v.09h0a1.34,1.34,0,0,1-1.32,1.34h0m-.62-.6h.38v-.49h.24l.34.49h.46l-.4-.56a.48.48,0,0,0,.34-.48c0-.35-.26-.52-.62-.52h-.74Zm.38-.8v-.43h.33c.16,0,.27.08.27.22s-.1.21-.27.21Z"/>
        </g>
      </g>
    </g>
  </g>
</svg>
