<?xml version="1.0" encoding="utf-8"?>
<!-- Generator: Adobe Illustrator 25.2.1, SVG Export Plug-In . SVG Version: 6.00 Build 0)  -->
<svg version="1.1" id="_300x250" xmlns="http://www.w3.org/2000/svg" xmlns:xlink="http://www.w3.org/1999/xlink" x="0px" y="0px"
	 viewBox="0 0 300 250" style="enable-background:new 0 0 300 250;" xml:space="preserve">
<style type="text/css">
	.st0{clip-path:url(#SVGID_2_);}
	.st1{opacity:0.95;fill:url(#bg-light_1_);enable-background:new    ;}
	.st2{fill:url(#Elipse_70_1_);}
	.st3{fill:#FFFFFF;}
	.st4{clip-path:url(#SVGID_4_);}
	.st5{clip-path:url(#SVGID_6_);}
	.st6{opacity:0.29;fill:url(#cta-glow_1_);enable-background:new    ;}
	.st7{fill:none;stroke:#FFFFFF;stroke-width:0.64;stroke-miterlimit:10;}
	.st8{fill:#030504;}
	.st9{fill:#E4001B;}
</style>
<g>
	<defs>
		<rect id="SVGID_1_" width="300" height="250"/>
	</defs>
	<clipPath id="SVGID_2_">
		<use xlink:href="#SVGID_1_"  style="overflow:visible;"/>
	</clipPath>
	<g class="st0">
		<g id="BG">
			
				<image style="overflow:visible;enable-background:new    ;" width="1740" height="1731" id="GettyImages-561860327" xlink:href="awareness.jpg"  transform="matrix(0.1799 0 0 0.1756 -4.140618e-02 -47.9684)">
			</image>
			<g>
				
					<radialGradient id="bg-light_1_" cx="-1479.0389" cy="932.5574" r="0.1894" gradientTransform="matrix(542.92 0 0 562.69 803206.8125 -524624.9375)" gradientUnits="userSpaceOnUse">
					<stop  offset="0" style="stop-color:#FFFFFF"/>
					<stop  offset="0.26" style="stop-color:#FFFFFF;stop-opacity:0.68"/>
					<stop  offset="0.53" style="stop-color:#FFFFFF;stop-opacity:0.39"/>
					<stop  offset="0.75" style="stop-color:#FFFFFF;stop-opacity:0.18"/>
					<stop  offset="0.91" style="stop-color:#FFFFFF;stop-opacity:5.000000e-02"/>
					<stop  offset="1" style="stop-color:#FFFFFF;stop-opacity:0"/>
				</radialGradient>
				<ellipse id="bg-light" class="st1" cx="220.3" cy="119.5" rx="115.7" ry="119.9"/>
				
					<image style="overflow:visible;enable-background:new    ;" width="1035" height="847" id="keyshadow" xlink:href="awareness32.png"  transform="matrix(0.1487 0 0 0.1487 152.8697 105.9903)">
				</image>
				
					<radialGradient id="Elipse_70_1_" cx="-1525.2694" cy="996.1345" r="0.23" gradientTransform="matrix(129.659 -12.4268 113.289 11.6495 85143.1328 -30401.6875)" gradientUnits="userSpaceOnUse">
					<stop  offset="0" style="stop-color:#000000"/>
					<stop  offset="0.63" style="stop-color:#040404;stop-opacity:0.97"/>
					<stop  offset="1" style="stop-color:#808080;stop-opacity:0"/>
				</radialGradient>
				<path id="Elipse_70" class="st2" d="M182.1,155.4c0-2.5,20.8-4.2,46.3-3.8c25.5,0.4,46.2,2.8,46.2,5.3c0,2.5-20.8,4.2-46.3,3.8
					C202.8,160.3,182.1,157.9,182.1,155.4z"/>
				
					<image style="overflow:visible;enable-background:new    ;" width="1922" height="2733" id="PT200827_001C1" xlink:href="awareness33.png"  transform="matrix(4.735018e-02 0 0 4.735018e-02 183.4986 42.7183)">
				</image>
				
					<image style="overflow:visible;enable-background:new    ;" width="1721" height="1721" id="shine1_300x" xlink:href="awareness34.png"  transform="matrix(2.029293e-02 0 0 2.029293e-02 171.3973 52.4927)">
				</image>
			</g>
		</g>
		<g id="f2">
			<g id="_70_Less_Hardware_Spend_84_Faster_Time_To_Market_">
				<g>
					<path class="st3" d="M38.3,33.4h-5.2v-2.1h7.9v1.8l-5,9.2h-2.7L38.3,33.4z"/>
					<path class="st3" d="M42.3,36.8L42.3,36.8c0-3.2,2-5.7,4.9-5.7s4.9,2.5,4.9,5.7l0,0c0,3.2-2,5.7-4.9,5.7S42.3,40,42.3,36.8z
						 M49.6,36.8L49.6,36.8c0-2-1-3.5-2.4-3.5s-2.4,1.5-2.4,3.5l0,0c0,2,1,3.5,2.4,3.5S49.6,38.8,49.6,36.8z"/>
					<path class="st3" d="M53.7,34L53.7,34c-0.1-1.5,1.1-2.7,2.5-2.8c0.1,0,0.1,0,0.2,0c1.5,0,2.6,1.2,2.6,2.7c0,0,0,0.1,0,0.1l0,0
						c0.1,1.5-1.1,2.7-2.6,2.8c0,0-0.1,0-0.1,0C54.9,36.7,53.7,35.5,53.7,34C53.7,34.1,53.7,34,53.7,34z M62.8,31.3h1.9l-8,11h-1.9
						L62.8,31.3z M57.4,34L57.4,34c0-0.7-0.4-1.4-1-1.4s-1,0.6-1,1.3l0,0c0,0.7,0.4,1.4,1,1.4S57.4,34.7,57.4,34z M60.5,39.6
						L60.5,39.6c-0.1-1.5,1-2.7,2.5-2.8c1.5-0.1,2.7,1,2.8,2.5c0,0.1,0,0.2,0,0.3l0,0c0.1,1.5-1.1,2.7-2.6,2.8c0,0-0.1,0-0.1,0
						c-1.5,0-2.7-1.2-2.7-2.6C60.5,39.8,60.5,39.7,60.5,39.6z M64.2,39.6L64.2,39.6c0-0.7-0.4-1.4-1-1.4s-1,0.6-1,1.3l0,0
						c0,0.7,0.4,1.4,1,1.4S64.2,40.3,64.2,39.6z"/>
					<path class="st3" d="M72.6,31.3H75v8.8h5.5v2.2h-7.9V31.3z"/>
					<path class="st3" d="M81.5,38.1L81.5,38.1c-0.1-2.3,1.7-4.3,4-4.4c0.1,0,0.1,0,0.2,0c2.8,0,4.1,2.2,4.1,4.6c0,0.2,0,0.4,0,0.6
						h-5.9c0.2,1,1.1,1.7,2.1,1.7c0.8,0,1.5-0.3,2-0.9l1.4,1.2c-1.6,1.9-4.4,2.1-6.3,0.5C82.1,40.6,81.5,39.4,81.5,38.1L81.5,38.1z
						 M87.5,37.4c0-1-0.8-1.8-1.8-1.8c-1,0-1.8,0.8-1.8,1.8H87.5z"/>
					<path class="st3" d="M90.9,41.2l1-1.6c0.8,0.6,1.7,0.9,2.7,1c0.7,0,1-0.2,1-0.6l0,0c0-0.5-0.8-0.7-1.8-1
						c-1.2-0.3-2.5-0.9-2.5-2.5l0,0c0-1.7,1.4-2.7,3.1-2.7c1.1,0,2.2,0.4,3.2,1l-0.9,1.7c-0.7-0.4-1.5-0.7-2.3-0.8
						c-0.6,0-0.9,0.2-0.9,0.6l0,0c0,0.5,0.8,0.7,1.7,1c1.2,0.4,2.6,1,2.6,2.5l0,0c0,1.9-1.4,2.7-3.2,2.7
						C93.2,42.4,91.9,42,90.9,41.2z"/>
					<path class="st3" d="M98.7,41.2l1-1.6c0.8,0.6,1.7,0.9,2.7,1c0.7,0,1-0.2,1-0.6l0,0c0-0.5-0.8-0.7-1.8-1
						c-1.2-0.3-2.5-0.9-2.5-2.5l0,0c0-1.7,1.4-2.7,3.1-2.7c1.1,0,2.2,0.4,3.2,1l-0.9,1.7c-0.7-0.4-1.5-0.7-2.3-0.8
						c-0.6,0-0.9,0.2-0.9,0.6l0,0c0,0.5,0.8,0.7,1.7,1c1.2,0.4,2.6,1,2.6,2.5l0,0c0,1.9-1.4,2.7-3.2,2.7
						C100.9,42.4,99.7,42,98.7,41.2z"/>
				</g>
				<g>
					<path class="st3" d="M33.4,48.2h2.4v4.4h4.5v-4.4h2.4v11h-2.4v-4.4h-4.5v4.4h-2.4V48.2z"/>
					<path class="st3" d="M44.6,56.7L44.6,56.7c0-1.9,1.4-2.7,3.4-2.7c0.7,0,1.4,0.1,2.1,0.3v-0.2c0-1-0.6-1.5-1.8-1.5
						c-0.8,0-1.6,0.2-2.3,0.5l-0.6-1.8c1-0.5,2.1-0.7,3.3-0.7c1-0.1,2.1,0.3,2.8,1c0.7,0.7,1,1.7,0.9,2.7v4.9H50v-0.9
						c-0.6,0.7-1.6,1.1-2.5,1.1c-1.4,0.1-2.7-0.9-2.9-2.4C44.6,56.9,44.6,56.8,44.6,56.7z M50.1,56.2v-0.4c-0.5-0.2-1-0.3-1.5-0.3
						c-1,0-1.7,0.4-1.7,1.2l0,0c0,0.6,0.5,1,1.3,1C49.3,57.7,50.1,57.1,50.1,56.2z"/>
					<path class="st3" d="M54.4,50.7h2.4v1.7c0.3-1.2,1.5-2,2.7-1.9v2.5h-0.1c-1.6,0-2.6,1-2.6,3v3.1h-2.4V50.7z"/>
					<path class="st3" d="M60.5,55L60.5,55c0-2.8,1.8-4.4,3.8-4.4c1,0,2,0.4,2.6,1.3v-4.2h2.4v11.5h-2.4V58
						c-0.6,0.9-1.6,1.4-2.6,1.4C62.3,59.3,60.5,57.8,60.5,55z M67,55L67,55c0.1-1.1-0.7-2.2-1.8-2.3c-1.1-0.1-2.2,0.7-2.3,1.8
						c0,0.2,0,0.3,0,0.5l0,0c-0.1,1.1,0.7,2.2,1.8,2.3c1.1,0.1,2.2-0.7,2.3-1.8C67,55.3,67,55.2,67,55z"/>
					<path class="st3" d="M70.8,50.7h2.4l1.3,5.1l1.6-5.2h2.1l1.6,5.2l1.4-5.1h2.4L81,59.2h-2.2L77.2,54l-1.7,5.2h-2.1L70.8,50.7z"
						/>
					<path class="st3" d="M84.2,56.7L84.2,56.7c0-1.8,1.4-2.7,3.4-2.7c0.7,0,1.4,0.1,2.1,0.3v-0.2c0-1-0.6-1.5-1.8-1.5
						c-0.8,0-1.6,0.2-2.3,0.5l-0.6-1.8c1-0.5,2.1-0.7,3.3-0.7c1-0.1,2.1,0.3,2.9,1c0.7,0.7,1,1.7,0.9,2.7v4.9h-2.3v-0.9
						c-0.6,0.7-1.6,1.1-2.6,1.1c-1.4,0.2-2.7-0.9-2.9-2.3C84.2,56.9,84.2,56.8,84.2,56.7z M89.7,56.2v-0.4c-0.5-0.2-1-0.3-1.5-0.3
						c-1,0-1.7,0.4-1.7,1.2l0,0c0,0.6,0.5,1,1.3,1C89,57.7,89.7,57.1,89.7,56.2z"/>
					<path class="st3" d="M94,50.7h2.4v1.7c0.3-1.2,1.5-2,2.7-1.9v2.5H99c-1.6,0-2.6,1-2.6,3v3.1H94V50.7z"/>
					<path class="st3" d="M100,55L100,55c-0.1-2.3,1.7-4.3,4-4.4c0.1,0,0.1,0,0.2,0c2.8,0,4.1,2.2,4.1,4.6c0,0.2,0,0.4,0,0.6h-5.9
						c0.2,1,1.1,1.7,2.1,1.7c0.8,0,1.5-0.3,2-0.9l1.4,1.2c-1.6,1.9-4.4,2.1-6.3,0.5C100.6,57.5,100,56.3,100,55z M106,54.3
						c0-1-0.8-1.8-1.8-1.8c-1,0-1.8,0.8-1.8,1.8H106z"/>
					<path class="st3" d="M114.2,57.6l1.4-1.7c0.9,0.8,2.1,1.3,3.3,1.3c1,0,1.6-0.4,1.6-1l0,0c0-0.6-0.4-0.9-2.2-1.4
						c-2.2-0.6-3.7-1.2-3.7-3.4l0,0c0-2,1.6-3.3,3.9-3.3c1.5,0,2.9,0.5,4.1,1.4l-1.3,1.8c-0.8-0.6-1.8-1-2.9-1.1
						c-0.9,0-1.4,0.4-1.4,1l0,0c0,0.7,0.5,1,2.4,1.5c2.2,0.6,3.5,1.4,3.5,3.3l0,0c0,2.2-1.7,3.4-4,3.4
						C117.2,59.4,115.5,58.8,114.2,57.6z"/>
					<path class="st3" d="M124.8,50.7h2.4v1.2c0.6-0.9,1.6-1.4,2.6-1.4c2,0,3.8,1.5,3.8,4.4l0,0c0,2.8-1.8,4.4-3.8,4.4
						c-1,0-2-0.4-2.6-1.3v3.6h-2.4V50.7z M131.3,55L131.3,55c0.1-1.1-0.7-2.2-1.8-2.3c-1.1-0.1-2.2,0.7-2.3,1.8c0,0.2,0,0.3,0,0.5
						l0,0c-0.1,1.1,0.7,2.2,1.8,2.3c1.1,0.1,2.2-0.7,2.3-1.8C131.3,55.3,131.3,55.2,131.3,55z"/>
					<path class="st3" d="M135.1,55L135.1,55c-0.1-2.3,1.7-4.3,4-4.4c0.1,0,0.1,0,0.2,0c2.8,0,4.1,2.2,4.1,4.6c0,0.2,0,0.4,0,0.6
						h-5.9c0.2,1,1.1,1.7,2.1,1.7c0.8,0,1.5-0.3,2-0.9l1.4,1.2c-1.6,1.9-4.4,2.1-6.3,0.5C135.6,57.5,135.1,56.3,135.1,55z M141,54.3
						c0-1-0.8-1.8-1.8-1.8c-1,0-1.8,0.8-1.8,1.8H141z"/>
					<path class="st3" d="M145.1,50.7h2.4v1.2c0.5-0.8,1.5-1.4,2.5-1.4c1.8,0,2.9,1.2,2.9,3.1v5.5h-2.4v-4.7c0-1.1-0.5-1.7-1.4-1.7
						s-1.5,0.6-1.5,1.7v4.7h-2.4L145.1,50.7z"/>
					<path class="st3" d="M154.6,55L154.6,55c0-2.8,1.8-4.4,3.8-4.4c1,0,2,0.4,2.6,1.2v-4.2h2.4v11.5H161V58
						c-0.6,0.9-1.6,1.4-2.6,1.4C156.4,59.3,154.6,57.8,154.6,55z M161.1,55L161.1,55c0.1-1.1-0.7-2.2-1.8-2.3
						c-1.1-0.1-2.2,0.7-2.3,1.8c0,0.2,0,0.3,0,0.5l0,0c-0.1,1.2,0.8,2.2,2,2.3c0,0,0,0,0.1,0C160.2,57.2,161.1,56.3,161.1,55
						C161.1,55.1,161.1,55,161.1,55z"/>
				</g>
				<g>
					<path class="st3" d="M32.8,73L32.8,73c-0.1-1.2,0.7-2.3,1.8-2.7c-0.9-0.5-1.4-1.4-1.4-2.4l0,0c0-1.7,1.5-3,3.9-3s3.9,1.3,3.9,3
						l0,0c0,1-0.5,1.9-1.4,2.4c1.1,0.4,1.8,1.4,1.8,2.6l0,0c0,2-1.8,3.2-4.2,3.2S32.8,74.9,32.8,73z M38.9,72.8L38.9,72.8
						c0-0.8-0.8-1.4-1.9-1.4s-1.9,0.6-1.9,1.4l0,0c0,0.8,0.7,1.4,1.9,1.4S38.9,73.6,38.9,72.8L38.9,72.8z M38.6,68.2L38.6,68.2
						c0-0.8-0.7-1.4-1.5-1.3c0,0-0.1,0-0.1,0c-1,0-1.6,0.6-1.6,1.3l0,0c0,0.8,0.7,1.4,1.4,1.4c0.1,0,0.1,0,0.2,0
						c0.8,0.1,1.5-0.4,1.6-1.2C38.6,68.3,38.6,68.2,38.6,68.2L38.6,68.2z"/>
					<path class="st3" d="M48.2,73.7h-5.4L42.5,72l6-7h2v6.8H52v2h-1.5V76h-2.3V73.7z M48.2,71.7v-3.4l-2.9,3.4L48.2,71.7z"/>
					<path class="st3" d="M53.5,67.7L53.5,67.7c-0.1-1.5,1-2.7,2.5-2.8c1.5-0.1,2.7,1,2.8,2.5c0,0.1,0,0.2,0,0.3l0,0
						c0.1,1.5-1.1,2.7-2.6,2.8c0,0-0.1,0-0.1,0c-1.5,0-2.7-1.2-2.7-2.6C53.5,67.9,53.5,67.8,53.5,67.7z M62.7,65h1.9l-8,11h-1.9
						L62.7,65z M57.2,67.7L57.2,67.7c0-0.7-0.4-1.4-1-1.4s-1,0.6-1,1.3l0,0c0,0.7,0.4,1.4,1,1.4S57.2,68.4,57.2,67.7L57.2,67.7z
						 M60.3,73.4L60.3,73.4c-0.1-1.5,1-2.7,2.5-2.8c0.1,0,0.1,0,0.2,0c1.5,0,2.7,1.2,2.7,2.6c0,0.1,0,0.1,0,0.2l0,0
						c0.1,1.5-1,2.8-2.5,2.8c0,0-0.1,0-0.1,0c-1.5,0-2.7-1.1-2.7-2.6C60.3,73.5,60.3,73.4,60.3,73.4L60.3,73.4z M64,73.4L64,73.4
						c0-0.7-0.4-1.4-1-1.4s-1,0.6-1,1.4l0,0c0,0.7,0.4,1.4,1,1.4S64,74.1,64,73.4L64,73.4z"/>
					<path class="st3" d="M72.4,65h8.4v2.2h-6v2.3h5.3v2.2h-5.2V76h-2.4V65z"/>
					<path class="st3" d="M81.6,73.6L81.6,73.6c0-1.8,1.4-2.7,3.4-2.7c0.7,0,1.4,0.1,2.1,0.3v-0.2c0-1-0.6-1.6-1.8-1.6
						c-0.8,0-1.6,0.2-2.3,0.5l-0.6-1.8c1-0.5,2.1-0.7,3.3-0.7c1-0.1,2.1,0.3,2.8,0.9c0.7,0.7,1,1.7,0.9,2.7V76H87v-0.9
						c-0.6,0.7-1.6,1.1-2.6,1.1c-1.4,0.1-2.7-0.9-2.8-2.3C81.6,73.7,81.6,73.7,81.6,73.6z M87.1,73.1v-0.4c-0.5-0.2-1-0.3-1.5-0.3
						c-1,0-1.7,0.4-1.7,1.2l0,0c0,0.7,0.5,1,1.3,1C86.3,74.6,87.1,73.9,87.1,73.1z"/>
					<path class="st3" d="M90.8,74.9l1-1.6c0.8,0.6,1.7,0.9,2.7,1c0.7,0,1-0.2,1-0.6l0,0c0-0.5-0.8-0.7-1.8-1
						c-1.2-0.3-2.5-0.9-2.5-2.5l0,0c0-1.7,1.4-2.7,3.1-2.7c1.1,0,2.2,0.4,3.2,1l-0.9,1.7c-0.7-0.4-1.5-0.7-2.3-0.8
						c-0.6,0-0.9,0.2-0.9,0.6l0,0c0,0.5,0.8,0.7,1.7,1c1.2,0.4,2.6,1,2.6,2.5l0,0c0,1.9-1.4,2.7-3.2,2.7
						C93,76.2,91.8,75.7,90.8,74.9z"/>
					<path class="st3" d="M99.6,73.7v-4h-1v-2.1h1v-2.2h2.4v2.2h2v2.1h-2v3.6c0,0.6,0.2,0.8,0.8,0.8c0.4,0,0.8-0.1,1.2-0.3v1.9
						c-0.6,0.3-1.2,0.5-1.9,0.5C100.6,76.2,99.6,75.6,99.6,73.7z"/>
					<path class="st3" d="M105.1,71.9L105.1,71.9c-0.1-2.3,1.7-4.3,4-4.4c0.1,0,0.1,0,0.2,0c2.8,0,4.1,2.2,4.1,4.6
						c0,0.2,0,0.4,0,0.6h-5.9c0.2,1,1.1,1.7,2.1,1.7c0.8,0,1.5-0.3,2-0.9l1.4,1.2c-1.6,1.9-4.4,2.1-6.3,0.5
						C105.6,74.4,105.1,73.2,105.1,71.9L105.1,71.9z M111.1,71.2c0-1-0.8-1.8-1.8-1.8c-1,0-1.8,0.8-1.8,1.8H111.1z"/>
					<path class="st3" d="M115.1,67.6h2.4v1.7c0.4-1.2,1.5-1.9,2.7-1.9V70h-0.1c-1.6,0-2.6,1-2.6,3v3h-2.4V67.6z"/>
				</g>
				<g>
					<path class="st3" d="M35.9,84.1h-3.4v-2.2h9.1v2.2h-3.4v8.8h-2.4V84.1z"/>
					<path class="st3" d="M43.2,81.4h2.5v2.1h-2.5V81.4z M43.3,84.4h2.4v8.4h-2.4V84.4z"/>
					<path class="st3" d="M47.9,84.5h2.4v1.2c0.5-0.8,1.5-1.3,2.5-1.3c1-0.1,1.9,0.5,2.4,1.3c0.7-0.9,1.7-1.4,2.8-1.3
						c1.8,0,2.8,1.1,2.8,3.1v5.5h-2.4v-4.7c0-1.1-0.5-1.7-1.4-1.7s-1.5,0.6-1.5,1.7v4.7h-2.4v-4.7c0-1.1-0.5-1.7-1.4-1.7
						s-1.4,0.6-1.4,1.7v4.7h-2.4L47.9,84.5z"/>
					<path class="st3" d="M62.5,88.7L62.5,88.7c-0.1-2.3,1.7-4.3,4-4.4c0.1,0,0.1,0,0.2,0c2.8,0,4.1,2.2,4.1,4.6c0,0.2,0,0.4,0,0.6
						h-5.9c0.2,1,1.1,1.7,2.1,1.7c0.8,0,1.5-0.3,2-0.9l1.4,1.2c-1.6,1.9-4.4,2.1-6.3,0.5C63,91.2,62.4,90,62.5,88.7L62.5,88.7z
						 M68.5,88c0-1-0.8-1.8-1.8-1.8c-1,0-1.8,0.8-1.9,1.8L68.5,88z"/>
					<path class="st3" d="M80.1,84.1h-3.4v-2.2h9.1v2.2h-3.4v8.8h-2.4V84.1z"/>
					<path class="st3" d="M85.4,88.7L85.4,88.7c0-2.5,2-4.6,4.6-4.6c2.5,0,4.6,2,4.6,4.6l0,0c0,2.4-2.1,4.4-4.5,4.4c0,0,0,0,0,0
						c-2.4,0.1-4.5-1.7-4.6-4.2C85.4,88.9,85.4,88.8,85.4,88.7z M92.2,88.7L92.2,88.7c0.1-1.2-0.9-2.3-2.1-2.4c0,0,0,0-0.1,0
						c-1.2,0-2.2,0.9-2.2,2.1c0,0.1,0,0.1,0,0.2l0,0c0,1.2,0.9,2.3,2.2,2.3c0,0,0,0,0,0c1.2,0,2.2-1,2.2-2.1
						C92.2,88.8,92.2,88.8,92.2,88.7z"/>
					<path class="st3" d="M101.2,81.9h2.6l2.9,4.7l2.9-4.7h2.6v11h-2.4v-7.2l-3.1,4.7h-0.1l-3.1-4.7v7.1h-2.4V81.9z"/>
					<path class="st3" d="M114.2,90.5L114.2,90.5c0-1.8,1.4-2.7,3.4-2.7c0.7,0,1.4,0.1,2.1,0.3V88c0-1-0.6-1.5-1.8-1.5
						c-0.8,0-1.6,0.2-2.3,0.4l-0.6-1.8c1-0.5,2.1-0.7,3.3-0.7c1-0.1,2.1,0.3,2.8,0.9c0.7,0.7,1,1.7,0.9,2.7v4.9h-2.3V92
						c-0.6,0.7-1.6,1.1-2.6,1.1c-1.4,0.2-2.7-0.9-2.9-2.3C114.2,90.7,114.2,90.6,114.2,90.5z M119.7,89.9v-0.4
						c-0.5-0.2-1-0.3-1.5-0.3c-1,0-1.7,0.4-1.7,1.2l0,0c0,0.6,0.5,1,1.3,1C118.9,91.4,119.7,90.8,119.7,89.9z"/>
					<path class="st3" d="M124,84.5h2.4v1.7c0.3-1.2,1.5-2,2.7-1.9v2.5H129c-1.6,0-2.6,1-2.6,3v3.1H124V84.5z"/>
					<path class="st3" d="M130.6,81.4h2.4v6.1l2.8-3.1h2.9l-3.2,3.3l3.3,5.1H136l-2.2-3.4l-0.8,0.9v2.6h-2.4L130.6,81.4z"/>
					<path class="st3" d="M139.1,88.7L139.1,88.7c-0.1-2.3,1.7-4.3,4-4.4c0.1,0,0.1,0,0.2,0c2.8,0,4.1,2.2,4.1,4.6
						c0,0.2,0,0.4,0,0.6h-5.9c0.2,1,1.1,1.7,2.1,1.7c0.8,0,1.5-0.3,2.1-0.9l1.4,1.2c-1.6,1.9-4.4,2.1-6.3,0.5
						C139.7,91.2,139.2,90,139.1,88.7L139.1,88.7z M145,88c0-1-0.8-1.8-1.8-1.8c-1,0-1.7,0.8-1.8,1.8H145z"/>
					<path class="st3" d="M149.5,90.5v-4h-1v-2h1v-2.2h2.4v2.2h2v2h-2v3.6c0,0.6,0.2,0.8,0.8,0.8c0.4,0,0.8-0.1,1.2-0.3v1.9
						c-0.6,0.3-1.2,0.5-1.9,0.5C150.5,93.1,149.5,92.5,149.5,90.5z"/>
				</g>
			</g>
		</g>
		<g id="f3">
			<g id="c3">
				<g id="Just_add_metal">
					<g>
						<path class="st3" d="M34.2,46.3l3.1-2.9c0.6,0.9,1.6,1.5,2.7,1.6c1.2,0,2-0.8,2-2.4v-11h4.8v11c0.1,1.8-0.5,3.6-1.7,4.9
							c-1.3,1.2-3,1.8-4.8,1.8C37.9,49.3,35.6,48.2,34.2,46.3z"/>
						<path class="st3" d="M49.9,41.3v-9.8h4.9v9.6c0,2.5,1.3,3.7,3.2,3.7s3.2-1.1,3.2-3.6v-9.8h4.9v9.6c0,5.6-3.2,8.1-8.1,8.1
							S49.9,46.7,49.9,41.3z"/>
						<path class="st3" d="M67.8,46.3l2.7-3.2c1.6,1.3,3.6,2.1,5.6,2.1c1.3,0,2-0.4,2-1.2l0,0c0-0.7-0.6-1.1-2.9-1.7
							c-3.7-0.8-6.6-1.9-6.6-5.5l0,0c0-3.2,2.6-5.5,6.7-5.5c2.6-0.1,5.1,0.7,7.2,2.3L80,36.9c-1.4-1-3.1-1.6-4.9-1.7
							c-1.2,0-1.7,0.5-1.7,1.1l0,0c0,0.8,0.6,1.1,3,1.7c4,0.9,6.5,2.2,6.5,5.4v0c0,3.5-2.8,5.7-7,5.7C72.9,49.2,70,48.2,67.8,46.3z"
							/>
						<path class="st3" d="M89.4,35.7h-5.2v-4.2h15.2v4.2h-5.2v13.1h-4.8V35.7z"/>
					</g>
					<g>
						<path class="st3" d="M41.7,54.6h4.6l7.4,17.5h-5.2L47.3,69h-6.7l-1.2,3.1h-5.1L41.7,54.6z M45.9,65.2L44,60.3l-2,4.9H45.9z"/>
						<path class="st3" d="M55.4,54.7h6.7c6.2,0,9.8,3.6,9.8,8.6l0,0c0,5-3.6,8.7-9.9,8.7h-6.6V54.7z M62.2,67.8
							c2.9,0,4.8-1.6,4.8-4.4l0,0c0-2.8-1.9-4.4-4.8-4.4h-2v8.8L62.2,67.8z"/>
						<path class="st3" d="M74.5,54.7h6.7c6.2,0,9.8,3.6,9.8,8.6l0,0c0,5-3.6,8.7-9.9,8.7h-6.6V54.7z M81.3,67.8
							c2.9,0,4.8-1.6,4.8-4.4l0,0c0-2.8-1.9-4.4-4.8-4.4h-2v8.8L81.3,67.8z"/>
					</g>
					<g>
						<path class="st3" d="M35.7,77.8h5.1l4.1,6.7l4.1-6.7h5.1v17.4h-4.8v-10L44.9,92h-0.1l-4.4-6.8v9.9h-4.7V77.8z"/>
						<path class="st3" d="M57.6,77.8h14v4.1h-9.2v2.6h8.3v3.8h-8.3v2.8h9.3v4.1H57.6V77.8z"/>
						<path class="st3" d="M78.4,82.1h-5.2v-4.2h15.2v4.2h-5.2v13.1h-4.8V82.1z"/>
						<path class="st3" d="M94.4,77.7H99l7.4,17.5h-5.2l-1.2-3.1h-6.7L92,95.2h-5L94.4,77.7z M98.6,88.4l-1.9-4.9l-2,4.9H98.6z"/>
						<path class="st3" d="M108.1,77.8h4.8V91h8.4v4.2h-13.2V77.8z"/>
					</g>
				</g>
			</g>
			<g id="cta">
				<g>
					<defs>
						<rect id="SVGID_3_" x="28.5" y="100.7" width="100.2" height="34.6"/>
					</defs>
					<clipPath id="SVGID_4_">
						<use xlink:href="#SVGID_3_"  style="overflow:visible;"/>
					</clipPath>
					<g class="st4">
						<g>
							<defs>
								<rect id="SVGID_5_" x="33.9" y="107.2" width="89.4" height="21.5"/>
							</defs>
							<clipPath id="SVGID_6_">
								<use xlink:href="#SVGID_5_"  style="overflow:visible;"/>
							</clipPath>
							<g class="st5">
								
									<linearGradient id="cta-glow_1_" gradientUnits="userSpaceOnUse" x1="24.4699" y1="142.1405" x2="-68.2501" y2="121.3305" gradientTransform="matrix(1 0 0 -1 0 252)">
									<stop  offset="0" style="stop-color:#000000"/>
									<stop  offset="0.24" style="stop-color:#FFFFFF"/>
									<stop  offset="0.46" style="stop-color:#000000"/>
									<stop  offset="0.71" style="stop-color:#FFFFFF"/>
									<stop  offset="1" style="stop-color:#000000"/>
								</linearGradient>
								<rect id="cta-glow" x="-211.4" y="73.4" class="st6" width="364.6" height="97"/>
							</g>
						</g>
						<g id="Learn_more">
							<g>
								<path class="st3" d="M44.5,120.1l1-1.2c0.6,0.5,1.4,0.8,2.2,0.8c0.5,0,0.8-0.2,0.8-0.5l0,0c0-0.3-0.2-0.4-1.1-0.6
									c-1.4-0.3-2.5-0.7-2.5-2.1l0,0c0-1.2,1-2.1,2.6-2.1c1,0,2,0.3,2.7,0.9l-0.9,1.3c-0.5-0.4-1.2-0.6-1.9-0.7
									c-0.5,0-0.7,0.2-0.7,0.4l0,0c0,0.3,0.2,0.4,1.2,0.6c1.5,0.3,2.5,0.8,2.5,2.1l0,0c0,1.4-1.1,2.2-2.7,2.2
									C46.5,121.2,45.4,120.8,44.5,120.1z"/>
								<path class="st3" d="M51,118.5L51,118.5c-0.1-1.4,1-2.6,2.5-2.7c0,0,0.1,0,0.1,0c1.4,0,2.6,1.1,2.6,2.5c0,0.1,0,0.2,0,0.4
									c0,0.1,0,0.2,0,0.4h-3.5c0.1,0.5,0.6,0.9,1.1,0.8c0.4,0,0.9-0.2,1.2-0.5l1,0.8c-0.5,0.7-1.4,1-2.2,1c-1.4,0.1-2.7-1-2.8-2.4
									C51.1,118.7,51,118.6,51,118.5z M54.6,118.1c0-0.5-0.4-0.9-0.9-0.9c0,0,0,0,0,0c-0.5,0-0.8,0.4-0.9,0.9H54.6z"/>
								<path class="st3" d="M57,118.5L57,118.5c-0.1-1.4,1-2.6,2.5-2.7c0,0,0.1,0,0.1,0c1.4,0,2.6,1.1,2.6,2.5c0,0.1,0,0.2,0,0.4
									c0,0.1,0,0.2,0,0.4h-3.5c0.1,0.5,0.6,0.9,1.1,0.8c0.4,0,0.9-0.2,1.1-0.5l1,0.8c-0.5,0.7-1.4,1-2.2,1c-1.4,0.1-2.6-1-2.7-2.5
									C57,118.7,57,118.6,57,118.5z M60.5,118.1c-0.1-0.6-0.4-0.9-0.9-0.9s-0.8,0.4-0.9,0.9H60.5z"/>
								<path class="st3" d="M67.3,116h-2v-1.6h5.9v1.6h-2v5h-1.9V116z"/>
								<path class="st3" d="M71.9,114.1h1.8v2.5c0.3-0.5,0.9-0.8,1.5-0.8c0.9,0,1.7,0.7,1.8,1.6c0,0.1,0,0.2,0,0.3v3.4h-1.8v-2.8
									c0-0.6-0.3-0.9-0.7-0.9s-0.8,0.3-0.8,0.9v2.8h-1.8V114.1z"/>
								<path class="st3" d="M77.9,118.5L77.9,118.5c-0.1-1.4,1-2.6,2.5-2.7c0,0,0.1,0,0.1,0c1.4,0,2.6,1.1,2.6,2.5
									c0,0.1,0,0.2,0,0.4c0,0.1,0,0.2,0,0.4h-3.5c0.1,0.5,0.6,0.9,1.1,0.8c0.4,0,0.9-0.2,1.2-0.5l1,0.8c-0.5,0.7-1.4,1-2.2,1
									c-1.4,0.1-2.7-1-2.8-2.4C77.9,118.7,77.9,118.6,77.9,118.5z M81.5,118.1c0-0.5-0.4-0.9-0.9-0.9c-0.5,0-0.8,0.4-0.9,0.9H81.5
									z"/>
								<path class="st3" d="M86.2,120.1l1-1.2c0.6,0.5,1.4,0.8,2.2,0.8c0.5,0,0.8-0.2,0.8-0.5l0,0c0-0.3-0.2-0.4-1.1-0.6
									c-1.4-0.3-2.5-0.7-2.5-2.1l0,0c0-1.2,1-2.1,2.6-2.1c1,0,2,0.3,2.7,0.9l-0.9,1.3c-0.5-0.4-1.2-0.6-1.9-0.7
									c-0.4,0-0.7,0.2-0.7,0.4l0,0c0,0.3,0.2,0.4,1.2,0.6c1.5,0.3,2.5,0.8,2.5,2.1l0,0c0,1.4-1.1,2.2-2.7,2.2
									C88.1,121.2,87,120.8,86.2,120.1z"/>
								<path class="st3" d="M93.2,119.5v-2.1h-0.6v-1.5h0.6v-1.3H95v1.3h1.2v1.5H95v1.8c0,0.4,0.2,0.5,0.5,0.5
									c0.2,0,0.5-0.1,0.7-0.2v1.4c-0.4,0.2-0.8,0.3-1.2,0.3c-0.8,0.1-1.6-0.4-1.8-1.2C93.2,119.8,93.1,119.6,93.2,119.5z"/>
								<path class="st3" d="M96.8,118.5L96.8,118.5c0-1.5,1.3-2.7,2.8-2.7c0,0,0,0,0.1,0c1.5-0.1,2.8,1.1,2.8,2.6c0,0,0,0.1,0,0.1
									l0,0c0,1.5-1.3,2.7-2.8,2.7c0,0,0,0-0.1,0C98.2,121.3,96.9,120.1,96.8,118.5C96.9,118.6,96.9,118.6,96.8,118.5z
									 M100.8,118.5L100.8,118.5c0-0.6-0.5-1.1-1.1-1.2c0,0,0,0,0,0c-0.6,0-1.1,0.5-1.1,1.1c0,0,0,0,0,0.1l0,0
									c0,0.6,0.5,1.1,1.1,1.2c0,0,0,0,0,0C100.3,119.7,100.8,119.2,100.8,118.5C100.8,118.6,100.8,118.6,100.8,118.5z"/>
								<path class="st3" d="M103.5,115.9h1.8v1c0.2-0.7,0.9-1.2,1.6-1.1v1.9h-0.2c-1,0-1.5,0.6-1.5,1.7v1.6h-1.8L103.5,115.9z"/>
								<path class="st3" d="M107.6,122.2l0.6-1.3c0.2,0.2,0.5,0.3,0.8,0.3c0.2,0,0.3-0.1,0.4-0.2l-2-5.1h1.9l1,3.1l1-3.1h1.9
									l-1.9,5c-0.4,1.2-0.9,1.7-2,1.7C108.7,122.6,108.1,122.5,107.6,122.2z"/>
							</g>
						</g>
						<rect id="Rectangle_5685-2" x="33.9" y="107.2" class="st7" width="89.4" height="21.5"/>
					</g>
				</g>
			</g>
		</g>
	</g>
</g>
<g id="Logo">
	<path id="chevon_shape" class="st3" d="M300.3,192h-56.9l-16.6,26.2h73.5L300.3,192z"/>
	<g id="Grupo_12756">
		<g id="Group_2">
			<path id="X" class="st8" d="M284.6,209.5l-1.2,1.3l-1.1-1.3h-0.7l1.4,1.6l-1.8,1.9h0.6l1.5-1.6l1.4,1.6h0.7l-1.7-1.9l1.5-1.6
				H284.6z"/>
			<rect id="I" x="278.3" y="209.5" class="st8" width="0.5" height="3.6"/>
			<path id="N" class="st8" d="M274.7,209.5v2.8l-2.5-2.8h-0.5v3.6h0.5v-2.8l2.5,2.8h0.5v-3.6H274.7z"/>
			<rect id="I-2" x="268" y="209.5" class="st8" width="0.5" height="3.6"/>
			<path id="U" class="st8" d="M264.7,211.7c0,0.5-0.4,1-0.9,1.1h-0.1c-0.5,0-1-0.4-1-0.9v-2.3h-0.5v2.2c0,0.8,0.6,1.5,1.3,1.5
				c0,0,0,0,0,0c0,0,0.1,0,0.1,0c0.8,0.1,1.5-0.5,1.5-1.3c0,0,0,0,0,0c0-0.1,0-0.1,0-0.2v-2.2h-0.5L264.7,211.7z"/>
			<path id="Q" class="st8" d="M257.6,209.4c-1,0-1.9,0.8-1.9,1.8c0,0,0,0,0,0v0.1l0,0c0,1,0.8,1.9,1.8,1.9c0,0,0,0,0,0h0.1
				c0.3,0,0.6-0.1,0.8-0.2l0.3,0.3h0.6l-0.5-0.6c0.4-0.4,0.7-0.9,0.7-1.5l0,0c0-1-0.8-1.9-1.8-1.9
				C257.7,209.4,257.7,209.4,257.6,209.4L257.6,209.4 M259,211.3c0,0.4-0.2,0.8-0.5,1.1l-0.3-0.3h-0.6l0.5,0.6
				c-0.2,0.1-0.3,0.1-0.5,0.1c-0.8,0-1.4-0.6-1.4-1.4c0,0,0,0,0,0l0,0v-0.1l0,0c-0.1-0.7,0.5-1.4,1.3-1.4h0.1
				C258.4,209.9,259,210.5,259,211.3C259,211.2,259,211.2,259,211.3L259,211.3L259,211.3z"/>
			<path id="E" class="st8" d="M250.6,209.5v3.6h3.2v-0.5h-2.7v-1.2h1.7V211h-1.7v-1h2.6v-0.5L250.6,209.5z"/>
		</g>
		<g id="icon_group">
			<path id="icon" class="st9" d="M268.3,196.5l-1.5,0.5v7.6l-1-0.3v-6.9l-2.9,1v4.9l-1-0.3v-4.2l-1,0.3v4.6l2.9,1V199l1-0.3v6.3
				l2.9,1v-8.3l0.5-0.2l0.5,0.2v8.3l2.9-1v-6.3l1,0.3v5.6l2.9-1V199l-1-0.3v4.2l-1,0.3v-4.9l-2.9-1v6.9l-1,0.3V197L268.3,196.5z"/>
			<path id="R" class="st9" d="M277.4,203.3c0.5,0,0.9-0.4,0.9-0.9l0,0c0-0.5-0.4-0.9-0.9-0.9c-0.5,0-0.9,0.4-0.9,0.9l0,0
				C276.6,202.9,276.9,203.3,277.4,203.3L277.4,203.3 M277.4,203.2c-0.4,0-0.8-0.3-0.8-0.8l0,0c0-0.4,0.3-0.8,0.8-0.8
				c0.4,0,0.8,0.3,0.8,0.8l0,0l0,0C278.2,202.9,277.9,203.2,277.4,203.2C277.4,203.2,277.4,203.2,277.4,203.2L277.4,203.2
				 M277.1,202.9h0.2v-0.3h0.1l0.2,0.3h0.3l-0.2-0.3c0.1,0,0.2-0.2,0.2-0.3c0-0.2-0.1-0.3-0.4-0.3h-0.4L277.1,202.9z M277.3,202.4
				v-0.2h0.2c0.1,0,0.2,0,0.2,0.1s-0.1,0.1-0.2,0.1H277.3z"/>
		</g>
	</g>
</g>
<image style="overflow:visible;enable-background:new    ;" width="2430" height="1298" id="Logo_Dizzion" xlink:href="awareness35.png"  transform="matrix(3.000000e-02 0 0 3.000000e-02 35.05 184.43)">
</image>
</svg>
