<?xml version="1.0" encoding="utf-8"?>
<!-- Generator: Adobe Illustrator 25.2.1, SVG Export Plug-In . SVG Version: 6.00 Build 0)  -->
<svg version="1.1" id="Layer_1" xmlns="http://www.w3.org/2000/svg" xmlns:xlink="http://www.w3.org/1999/xlink" x="0px" y="0px"
	 viewBox="0 0 160 600" style="enable-background:new 0 0 160 600;" xml:space="preserve">
<style type="text/css">
	.st0{clip-path:url(#SVGID_2_);}
	.st1{opacity:0.95;fill:url(#bg-light_1_);enable-background:new    ;}
	.st2{fill:url(#Elipse_70_1_);}
	.st3{fill:#FFFFFF;}
	.st4{clip-path:url(#SVGID_4_);}
	.st5{clip-path:url(#SVGID_6_);}
	.st6{opacity:0.29;fill:url(#cta-glow_1_);enable-background:new    ;}
	.st7{fill:none;stroke:#FFFFFF;stroke-width:0.81;stroke-miterlimit:10;}
	.st8{fill:#030504;}
	.st9{fill:#E4001B;}
</style>
<g id="_160x600">
	<g>
		<defs>
			<rect id="SVGID_1_" width="160" height="600"/>
		</defs>
		<clipPath id="SVGID_2_">
			<use xlink:href="#SVGID_1_"  style="overflow:visible;"/>
		</clipPath>
		<g class="st0">
			<g id="BG">
				
					<image style="overflow:visible;enable-background:new    ;" width="1740" height="1731" id="GettyImages-561860327" xlink:href="awareness.jpg"  transform="matrix(0.4089 0 0 0.4089 -267.7899 -57.5096)">
				</image>
				
					<radialGradient id="bg-light_1_" cx="330.6259" cy="1107.5803" r="0.41" gradientTransform="matrix(542.92 0 0 563.83 -179426.4375 -624181.125)" gradientUnits="userSpaceOnUse">
					<stop  offset="0" style="stop-color:#FFFFFF"/>
					<stop  offset="0.26" style="stop-color:#FFFFFF;stop-opacity:0.68"/>
					<stop  offset="0.53" style="stop-color:#FFFFFF;stop-opacity:0.39"/>
					<stop  offset="0.75" style="stop-color:#FFFFFF;stop-opacity:0.18"/>
					<stop  offset="0.91" style="stop-color:#FFFFFF;stop-opacity:5.000000e-02"/>
					<stop  offset="1" style="stop-color:#FFFFFF;stop-opacity:0"/>
				</radialGradient>
				<ellipse id="bg-light" class="st1" cx="91.6" cy="319.1" rx="246.3" ry="255.8"/>
				
					<image style="overflow:visible;enable-background:new    ;" width="1035" height="847" id="keyshadow" xlink:href="awareness32.png"  transform="matrix(0.2087 0 0 0.2009 -21.1302 366.0996)">
				</image>
				
					<radialGradient id="Elipse_70_1_" cx="276.8276" cy="1166.5981" r="0.27" gradientTransform="matrix(129.6595 -12.4568 113.2887 11.6695 -167976.5 -9748.9707)" gradientUnits="userSpaceOnUse">
					<stop  offset="0" style="stop-color:#000000"/>
					<stop  offset="0.63" style="stop-color:#040404;stop-opacity:0.97"/>
					<stop  offset="1" style="stop-color:#808080;stop-opacity:0"/>
				</radialGradient>
				<path id="Elipse_70" class="st2" d="M26.1,417.7c0.1-3,24.5-5,54.5-4.4s54.4,3.3,54.3,6.3c-0.1,3-24.5,5-54.5,4.4
					S26,420.6,26.1,417.7z"/>
				
					<image style="overflow:visible;enable-background:new    ;" width="1922" height="2733" id="PT200827_001C1" xlink:href="awareness33.png"  transform="matrix(6.000000e-02 0 0 6.000000e-02 26.16 275.92)">
				</image>
				
					<image style="overflow:visible;enable-background:new    ;" width="1721" height="1721" id="shine1_300x" xlink:href="awareness34.png"  transform="matrix(3.000000e-02 0 0 3.000000e-02 13.26 287.79)">
				</image>
			</g>
			<g id="f2">
				<g id="_70_Less_Hardware_Spend_84_Faster_Time_To_Market_">
					<g>
						<path class="st3" d="M29.1,114.4h-5.2v-2.1h7.9v1.8l-4.9,9.2h-2.7L29.1,114.4z"/>
						<path class="st3" d="M33.2,117.8L33.2,117.8c0-3.2,2-5.7,4.9-5.7s4.9,2.4,4.9,5.6l0,0c0,3.2-2,5.7-4.9,5.7
							S33.2,121,33.2,117.8z M40.5,117.8L40.5,117.8c0-2-1-3.5-2.4-3.5s-2.4,1.5-2.4,3.5l0,0c0,2,1,3.5,2.4,3.5
							S40.5,119.8,40.5,117.8z"/>
						<path class="st3" d="M44.5,115L44.5,115c-0.1-1.5,1.1-2.7,2.5-2.8c0.1,0,0.1,0,0.2,0c1.5,0,2.7,1.2,2.7,2.6c0,0.1,0,0.1,0,0.2
							l0,0c0.1,1.5-1.1,2.8-2.6,2.8c0,0-0.1,0-0.1,0c-1.5,0-2.7-1.2-2.7-2.6C44.5,115.1,44.5,115.1,44.5,115z M53.7,112.3h1.9l-8,11
							h-1.9L53.7,112.3z M48.2,115L48.2,115c0-0.7-0.4-1.4-1-1.4s-1,0.6-1,1.3l0,0c0,0.7,0.4,1.4,1,1.4S48.2,115.7,48.2,115z
							 M51.3,120.6L51.3,120.6c0-1.5,1.2-2.7,2.7-2.7s2.7,1.2,2.7,2.7l0,0c0.1,1.5-1.1,2.8-2.6,2.8c0,0-0.1,0-0.1,0
							c-1.5,0-2.7-1.2-2.7-2.6C51.3,120.8,51.3,120.7,51.3,120.6L51.3,120.6z M55,120.6L55,120.6c0-0.7-0.4-1.4-1-1.4s-1,0.6-1,1.4
							l0,0c0,0.7,0.4,1.4,1,1.4S55,121.4,55,120.6L55,120.6z"/>
						<path class="st3" d="M63.4,112.3h2.4v8.8h5.5v2.2h-7.9V112.3z"/>
						<path class="st3" d="M72.3,119.2L72.3,119.2c-0.1-2.3,1.7-4.3,4-4.4c0.1,0,0.1,0,0.2,0c2.8,0,4.1,2.2,4.1,4.6
							c0,0.2,0,0.4,0,0.6h-5.9c0.2,1,1.1,1.7,2.1,1.7c0.8,0,1.5-0.3,2-0.9l1.4,1.2c-1.6,1.9-4.4,2.1-6.3,0.5
							C72.9,121.7,72.3,120.5,72.3,119.2L72.3,119.2z M78.3,118.4c0-1-0.8-1.8-1.8-1.8c-1,0-1.8,0.8-1.8,1.8H78.3z"/>
						<path class="st3" d="M81.8,122.2l1-1.6c0.8,0.6,1.7,0.9,2.7,1c0.7,0,1-0.3,1-0.6l0,0c0-0.5-0.8-0.7-1.7-1
							c-1.2-0.3-2.5-0.9-2.5-2.5l0,0c0-1.7,1.4-2.7,3.1-2.7c1.1,0,2.2,0.4,3.2,1l-0.9,1.7c-0.7-0.4-1.5-0.7-2.3-0.8
							c-0.6,0-0.9,0.2-0.9,0.6l0,0c0,0.5,0.8,0.7,1.7,1c1.2,0.4,2.6,1,2.6,2.5l0,0c0,1.9-1.4,2.7-3.2,2.7
							C84,123.5,82.8,123,81.8,122.2z"/>
						<path class="st3" d="M89.5,122.2l1-1.6c0.8,0.6,1.7,0.9,2.7,1c0.7,0,1-0.3,1-0.6l0,0c0-0.5-0.8-0.7-1.8-1
							c-1.2-0.3-2.5-0.9-2.5-2.5l0,0c0-1.7,1.4-2.7,3.1-2.7c1.1,0,2.2,0.4,3.2,1l-0.9,1.7c-0.7-0.4-1.5-0.7-2.3-0.8
							c-0.6,0-0.9,0.2-0.9,0.6l0,0c0,0.5,0.8,0.7,1.7,1c1.2,0.4,2.6,1,2.6,2.5l0,0c0,1.9-1.4,2.7-3.2,2.7
							C91.8,123.4,90.5,123,89.5,122.2z"/>
					</g>
					<g>
						<path class="st3" d="M24.2,128.2h2.4v4.4h4.5v-4.4h2.4v11h-2.4v-4.4h-4.5v4.4h-2.4V128.2z"/>
						<path class="st3" d="M35.4,136.8L35.4,136.8c0-1.9,1.4-2.7,3.4-2.7c0.7,0,1.4,0.1,2.1,0.4v-0.1c0-1-0.6-1.6-1.8-1.6
							c-0.8,0-1.6,0.2-2.3,0.5l-0.6-1.8c1-0.5,2.1-0.7,3.3-0.7c1-0.1,2.1,0.3,2.9,1c0.7,0.7,1,1.7,0.9,2.7v4.9h-2.3v-0.9
							c-0.6,0.7-1.6,1.1-2.5,1.1c-1.4,0.2-2.7-0.9-2.9-2.3C35.4,137,35.4,136.9,35.4,136.8z M40.9,136.2v-0.4
							c-0.5-0.2-1-0.3-1.5-0.3c-1,0-1.7,0.4-1.7,1.2l0,0c0,0.6,0.5,1,1.3,1C40.1,137.7,40.9,137.1,40.9,136.2z"/>
						<path class="st3" d="M45.2,130.8h2.4v1.7c0.3-1.2,1.5-1.9,2.7-1.9v2.5h-0.1c-1.6,0-2.6,1-2.6,3v3.1h-2.4V130.8z"/>
						<path class="st3" d="M51.3,135L51.3,135c0-2.8,1.8-4.4,3.8-4.4c1,0,2,0.4,2.6,1.3v-4.2h2.4v11.5h-2.4V138
							c-0.6,0.9-1.6,1.4-2.6,1.4C53.2,139.4,51.3,137.8,51.3,135z M57.8,135L57.8,135c0.1-1.1-0.7-2.2-1.8-2.3s-2.2,0.7-2.3,1.8
							c0,0.2,0,0.3,0,0.5l0,0c-0.1,1.1,0.7,2.2,1.8,2.3s2.2-0.7,2.3-1.8C57.8,135.3,57.8,135.2,57.8,135z"/>
						<path class="st3" d="M61.6,130.8H64l1.4,5.1l1.6-5.1h2.1l1.6,5.2l1.3-5.1h2.4l-2.6,8.5h-2.1l-1.6-5.2l-1.7,5.2h-2.1
							L61.6,130.8z"/>
						<path class="st3" d="M75.1,136.8L75.1,136.8c0-1.9,1.4-2.7,3.4-2.7c0.7,0,1.4,0.1,2.1,0.4v-0.1c0-1-0.6-1.6-1.8-1.6
							c-0.8,0-1.6,0.2-2.3,0.5l-0.6-1.8c1-0.5,2.1-0.7,3.3-0.7c1-0.1,2.1,0.3,2.9,1c0.7,0.7,1,1.7,0.9,2.7v4.9h-2.3v-0.9
							c-0.6,0.7-1.6,1-2.5,1c-1.4,0.2-2.7-0.8-2.9-2.2C75.1,137,75.1,136.9,75.1,136.8z M80.6,136.2v-0.4c-0.5-0.2-1-0.3-1.5-0.3
							c-1,0-1.7,0.4-1.7,1.2l0,0c0,0.6,0.5,1,1.3,1C79.8,137.7,80.6,137.1,80.6,136.2z"/>
						<path class="st3" d="M84.9,130.8h2.4v1.7c0.4-1.2,1.5-2,2.7-1.9v2.5h-0.1c-1.6,0-2.6,1-2.6,3v3.1h-2.4L84.9,130.8z"/>
						<path class="st3" d="M90.8,135L90.8,135c-0.1-2.3,1.7-4.3,4-4.4c0.1,0,0.1,0,0.2,0c2.8,0,4.1,2.2,4.1,4.6c0,0.2,0,0.4,0,0.6
							h-5.9c0.2,1,1.1,1.7,2.1,1.6c0.8,0,1.5-0.3,2-0.9l1.4,1.2c-1.6,1.9-4.4,2-6.3,0.4C91.4,137.4,90.9,136.2,90.8,135z
							 M96.8,134.3c0-1-0.8-1.8-1.8-1.8c-1,0-1.8,0.8-1.8,1.8H96.8z"/>
						<path class="st3" d="M105.1,137.6l1.4-1.7c0.9,0.8,2.1,1.3,3.3,1.3c1,0,1.6-0.4,1.6-1l0,0c0-0.6-0.4-0.9-2.2-1.4
							c-2.2-0.6-3.7-1.2-3.7-3.4l0,0c0-2,1.6-3.3,3.9-3.3c1.5,0,2.9,0.5,4.1,1.4l-1.3,1.8c-0.8-0.6-1.8-1-2.9-1.1
							c-0.9,0-1.4,0.4-1.4,1l0,0c0,0.7,0.5,1,2.4,1.4c2.2,0.6,3.5,1.4,3.5,3.3l0,0c0,2.2-1.7,3.4-4,3.4
							C108.1,139.4,106.4,138.8,105.1,137.6z"/>
						<path class="st3" d="M115.7,130.8h2.4v1.2c0.6-0.9,1.6-1.4,2.6-1.4c2,0,3.8,1.6,3.8,4.4l0,0c0,2.8-1.8,4.4-3.8,4.4
							c-1,0-2-0.4-2.6-1.3v3.6h-2.4V130.8z M122.2,135L122.2,135c0.2-1.1-0.6-2.2-1.8-2.3c-1.1-0.2-2.2,0.6-2.3,1.8
							c0,0.2,0,0.4,0,0.6l0,0c-0.2,1.1,0.6,2.2,1.8,2.3c1.1,0.2,2.2-0.6,2.3-1.8C122.2,135.4,122.2,135.2,122.2,135z"/>
						<path class="st3" d="M125.9,135L125.9,135c-0.1-2.3,1.7-4.3,4-4.4c0.1,0,0.1,0,0.2,0c2.8,0,4.1,2.2,4.1,4.6c0,0.2,0,0.4,0,0.6
							h-5.9c0.2,1,1.1,1.7,2.1,1.6c0.8,0,1.5-0.3,2.1-0.9l1.4,1.2c-1.6,1.9-4.4,2.1-6.3,0.5C126.6,137.5,126,136.3,125.9,135
							L125.9,135z M131.9,134.3c0-1-0.8-1.8-1.8-1.8c-1,0-1.6,0.7-1.8,1.8H131.9z"/>
						<path class="st3" d="M136,130.8h2.4v1.2c0.5-0.8,1.5-1.3,2.5-1.4c1.8,0,2.9,1.2,2.9,3.1v5.5h-2.4v-4.7c0-1.1-0.5-1.7-1.4-1.7
							s-1.5,0.6-1.5,1.7v4.7H136V130.8z"/>
						<path class="st3" d="M145.4,135L145.4,135c0-2.8,1.8-4.4,3.8-4.4c1,0,2,0.4,2.6,1.3v-4.2h2.4v11.5h-2.4V138
							c-0.6,0.9-1.6,1.4-2.6,1.4C147.3,139.4,145.4,137.8,145.4,135z M152,135L152,135c0.2-1.1-0.6-2.2-1.8-2.3
							c-1.1-0.2-2.2,0.6-2.3,1.8c0,0.2,0,0.4,0,0.6l0,0c-0.2,1.1,0.6,2.2,1.8,2.3c1.1,0.2,2.2-0.6,2.3-1.8
							C152,135.4,152,135.2,152,135z"/>
					</g>
					<g>
						<path class="st3" d="M23.6,153.1L23.6,153.1c-0.1-1.2,0.7-2.3,1.8-2.7c-0.9-0.5-1.4-1.4-1.4-2.4l0,0c0-1.7,1.5-3,3.9-3
							s3.9,1.3,3.9,3l0,0c0,1-0.5,1.9-1.4,2.4c1.1,0.4,1.8,1.4,1.8,2.6l0,0c0,2.1-1.8,3.2-4.3,3.2S23.6,155,23.6,153.1z M29.7,152.9
							L29.7,152.9c0-0.9-0.8-1.4-1.9-1.4s-1.9,0.5-1.9,1.4l0,0c0,0.8,0.7,1.4,1.9,1.4S29.7,153.6,29.7,152.9z M29.4,148.2
							L29.4,148.2c-0.1-0.8-0.7-1.4-1.5-1.3c0,0,0,0-0.1,0c-1,0-1.6,0.6-1.6,1.3l0,0c0,0.8,0.7,1.4,1.5,1.4c0,0,0.1,0,0.1,0
							c0.8,0.1,1.5-0.4,1.6-1.2C29.4,148.3,29.4,148.3,29.4,148.2L29.4,148.2z"/>
						<path class="st3" d="M39.1,153.7h-5.4l-0.4-1.7l6-7h2v6.8h1.5v2h-1.4v2.4h-2.3V153.7z M39.1,151.7v-3.4l-2.9,3.4H39.1z"/>
						<path class="st3" d="M44.3,147.8L44.3,147.8c-0.1-1.5,1.1-2.7,2.6-2.8c0,0,0.1,0,0.1,0c1.5,0,2.7,1.2,2.7,2.6
							c0,0.1,0,0.1,0,0.2l0,0c0.1,1.5-1.1,2.8-2.6,2.8c0,0-0.1,0-0.1,0c-1.5,0-2.7-1.2-2.7-2.6C44.3,147.9,44.3,147.8,44.3,147.8z
							 M53.5,145.1h1.9l-8,11h-1.9L53.5,145.1z M48,147.8L48,147.8c0-0.7-0.4-1.4-1-1.4s-1,0.6-1,1.4l0,0c0,0.7,0.4,1.4,1,1.4
							S48,148.5,48,147.8z M51.1,153.4L51.1,153.4c-0.1-1.5,1.1-2.7,2.5-2.8c0.1,0,0.1,0,0.2,0c1.5,0,2.7,1.2,2.7,2.6
							c0,0.1,0,0.1,0,0.2l0,0c0.1,1.5-1.1,2.8-2.6,2.8c0,0-0.1,0-0.1,0c-1.5,0-2.7-1.2-2.7-2.6C51.1,153.5,51.1,153.5,51.1,153.4z
							 M54.8,153.4L54.8,153.4c0-0.7-0.4-1.4-1-1.4s-1,0.6-1,1.4l0,0c0,0.7,0.4,1.4,1,1.4S54.8,154.1,54.8,153.4z"/>
						<path class="st3" d="M63.2,145.1h8.4v2.2h-6v2.3h5.3v2.2h-5.2v4.3h-2.4V145.1z"/>
						<path class="st3" d="M72.4,153.7L72.4,153.7c0-1.8,1.4-2.7,3.4-2.7c0.7,0,1.4,0.1,2.1,0.3v-0.1c0-1-0.6-1.5-1.8-1.5
							c-0.8,0-1.6,0.2-2.3,0.5l-0.6-1.8c1-0.5,2.1-0.7,3.3-0.7c1-0.1,2.1,0.3,2.8,0.9c0.6,0.7,1,1.7,0.9,2.7v4.9h-2.3v-0.9
							c-0.7,0.7-1.6,1.1-2.6,1.1c-1.4,0.2-2.7-0.9-2.9-2.3C72.4,153.9,72.4,153.8,72.4,153.7z M77.9,153.1v-0.4
							c-0.5-0.2-1-0.3-1.5-0.3c-1,0-1.7,0.4-1.7,1.2l0,0c0,0.6,0.5,1,1.3,1C77.2,154.6,77.9,154,77.9,153.1z"/>
						<path class="st3" d="M81.6,155l1-1.6c0.8,0.6,1.7,0.9,2.7,1c0.7,0,1-0.3,1-0.6l0,0c0-0.5-0.8-0.7-1.8-1
							c-1.2-0.4-2.5-0.9-2.5-2.5l0,0c0-1.7,1.4-2.7,3.1-2.7c1.1,0,2.2,0.4,3.2,1l-0.9,1.7c-0.7-0.4-1.5-0.7-2.3-0.8
							c-0.6,0-0.9,0.2-0.9,0.6l0,0c0,0.5,0.8,0.7,1.7,1c1.2,0.4,2.6,1,2.6,2.5l0,0c0,1.9-1.4,2.7-3.2,2.7
							C83.9,156.3,82.6,155.8,81.6,155z"/>
						<path class="st3" d="M90.4,153.7v-4h-1v-2.1h1v-2.2h2.4v2.2h2v2.1h-2v3.6c0,0.6,0.2,0.8,0.8,0.8c0.4,0,0.8-0.1,1.2-0.3v1.9
							c-0.6,0.3-1.2,0.5-1.9,0.5C91.4,156.2,90.4,155.6,90.4,153.7z"/>
						<path class="st3" d="M95.9,151.9L95.9,151.9c-0.1-2.3,1.7-4.3,4-4.4c0.1,0,0.1,0,0.2,0c2.8,0,4.1,2.2,4.1,4.6
							c0,0.2,0,0.4,0,0.6h-5.9c0.2,1,1.1,1.7,2.1,1.7c0.8,0,1.5-0.3,2-0.9l1.4,1.2c-1.6,1.9-4.4,2.1-6.3,0.5
							C96.5,154.4,95.9,153.2,95.9,151.9L95.9,151.9z M101.9,151.2c0-1-0.8-1.8-1.8-1.8c-1,0-1.8,0.8-1.8,1.8H101.9z"/>
						<path class="st3" d="M106,147.6h2.4v1.7c0.3-1.2,1.5-2,2.7-1.9v2.5H111c-1.6,0-2.6,1-2.6,3v3.1H106V147.6z"/>
					</g>
					<g>
						<path class="st3" d="M26.8,164.2h-3.4v-2.2h9.1v2.2h-3.4v8.8h-2.4V164.2z"/>
						<path class="st3" d="M34,161.5h2.5v2.1H34V161.5z M34.1,164.5h2.4v8.5h-2.4V164.5z"/>
						<path class="st3" d="M38.7,164.5h2.4v1.2c0.5-0.8,1.5-1.4,2.5-1.4c1-0.1,1.9,0.5,2.4,1.3c0.7-0.9,1.7-1.4,2.8-1.3
							c1.8,0,2.8,1.1,2.8,3.1v5.5h-2.4v-4.7c0-1.1-0.5-1.7-1.4-1.7s-1.5,0.6-1.5,1.7v4.7H44v-4.7c0-1.1-0.5-1.7-1.4-1.7
							s-1.5,0.6-1.5,1.7v4.7h-2.4L38.7,164.5z"/>
						<path class="st3" d="M53.3,168.8L53.3,168.8c-0.1-2.3,1.7-4.3,4-4.4c0.1,0,0.1,0,0.2,0c2.8,0,4.1,2.2,4.1,4.6
							c0,0.2,0,0.4,0,0.6h-5.9c0.2,1,1.1,1.7,2.1,1.6c0.8,0,1.5-0.3,2-0.9l1.4,1.2c-1.6,1.9-4.4,2.1-6.3,0.5
							C53.9,171.3,53.3,170.1,53.3,168.8L53.3,168.8z M59.3,168.1c0-1-0.8-1.8-1.8-1.8c-1,0-1.8,0.8-1.8,1.8H59.3z"/>
						<path class="st3" d="M70.9,164.2h-3.4v-2.2h9.2v2.2h-3.4v8.8h-2.4V164.2z"/>
						<path class="st3" d="M76.2,168.8L76.2,168.8c0-2.5,2-4.6,4.6-4.6c2.5,0,4.6,2,4.6,4.6l0,0c0,2.5-2,4.6-4.6,4.6
							C78.3,173.4,76.3,171.3,76.2,168.8z M83,168.8L83,168.8c0-1.2-0.9-2.3-2.1-2.3c0,0-0.1,0-0.1,0c-1.2,0-2.2,0.9-2.2,2.1
							c0,0.1,0,0.1,0,0.2l0,0c0,1.2,0.9,2.3,2.1,2.3c0,0,0,0,0.1,0c1.2,0,2.2-1,2.2-2.1C83,168.9,83,168.9,83,168.8L83,168.8z"/>
						<path class="st3" d="M92.1,161.9h2.6l2.9,4.7l2.9-4.7h2.6v11h-2.4v-7.2l-3.1,4.7h-0.1l-3.1-4.7v7.2h-2.4V161.9z"/>
						<path class="st3" d="M105,170.6L105,170.6c0-1.8,1.4-2.7,3.4-2.7c0.7,0,1.4,0.1,2.1,0.4V168c0-1-0.6-1.6-1.8-1.6
							c-0.8,0-1.6,0.2-2.3,0.5l-0.6-1.8c1-0.5,2.1-0.7,3.3-0.7c1-0.1,2.1,0.3,2.8,0.9c0.7,0.7,1,1.7,0.9,2.7v4.9h-2.3v-0.9
							c-0.6,0.7-1.6,1.1-2.6,1.1c-1.4,0.2-2.7-0.9-2.9-2.3C105,170.7,105,170.6,105,170.6z M110.5,170v-0.4c-0.5-0.2-1-0.3-1.5-0.3
							c-1,0-1.7,0.4-1.7,1.2l0,0c0,0.6,0.5,1,1.3,1C109.8,171.5,110.5,170.9,110.5,170L110.5,170z"/>
						<path class="st3" d="M114.9,164.5h2.4v1.7c0.4-1.2,1.5-1.9,2.7-1.9v2.5h-0.1c-1.6,0-2.6,1-2.6,3v3.1h-2.4V164.5z"/>
						<path class="st3" d="M121.4,161.5h2.4v6.1l2.8-3.1h2.9l-3.2,3.3l3.3,5.1h-2.8l-2.2-3.4l-0.8,0.9v2.6h-2.4V161.5z"/>
						<path class="st3" d="M130,168.8L130,168.8c-0.1-2.3,1.7-4.3,4-4.4c0.1,0,0.1,0,0.2,0c2.8,0,4.1,2.2,4.1,4.6c0,0.2,0,0.4,0,0.6
							h-5.9c0.2,1,1.1,1.7,2.1,1.6c0.8,0,1.5-0.3,2.1-0.9l1.4,1.2c-1.6,1.9-4.4,2.2-6.3,0.6C130.6,171.4,130,170.1,130,168.8z
							 M136,168.1c0-1-0.8-1.8-1.8-1.8c-1,0-1.8,0.8-1.8,1.8H136z"/>
						<path class="st3" d="M140.4,170.6v-4h-1v-2.1h1v-2.2h2.4v2.2h2v2.1h-2v3.6c0,0.6,0.2,0.8,0.8,0.8c0.4,0,0.8-0.1,1.2-0.3v1.9
							c-0.6,0.3-1.2,0.5-1.9,0.5C141.4,173.1,140.4,172.5,140.4,170.6z"/>
					</g>
				</g>
			</g>
			<g id="f3">
				<g id="cta">
					<g>
						<defs>
							<rect id="SVGID_3_" x="25.1" y="179.8" width="113.8" height="27.3"/>
						</defs>
						<clipPath id="SVGID_4_">
							<use xlink:href="#SVGID_3_"  style="overflow:visible;"/>
						</clipPath>
						<g class="st4">
							<g>
								<defs>
									<rect id="SVGID_5_" x="25.1" y="179.8" width="113.8" height="27.3"/>
								</defs>
								<clipPath id="SVGID_6_">
									<use xlink:href="#SVGID_5_"  style="overflow:visible;"/>
								</clipPath>
								<g class="st5">
									
										<linearGradient id="cta-glow_1_" gradientUnits="userSpaceOnUse" x1="13.0415" y1="418.8033" x2="-104.9385" y2="392.3134" gradientTransform="matrix(1 0 0 -1 0 602)">
										<stop  offset="0" style="stop-color:#000000"/>
										<stop  offset="0.24" style="stop-color:#FFFFFF"/>
										<stop  offset="0.46" style="stop-color:#000000"/>
										<stop  offset="0.71" style="stop-color:#FFFFFF"/>
										<stop  offset="1" style="stop-color:#000000"/>
									</linearGradient>
									<rect id="cta-glow" x="-287.2" y="136.8" class="st6" width="463.9" height="123.4"/>
								</g>
							</g>
							<g id="Learn_more">
								<g>
									<path class="st3" d="M35.5,196.1l1.4-1.7c0.8,0.7,1.9,1.1,3,1.1c0.7,0,1-0.2,1-0.6l0,0c0-0.4-0.3-0.6-1.5-0.9
										c-1.9-0.4-3.4-1-3.4-2.9l0,0c0-1.7,1.3-2.9,3.5-2.9c1.4,0,2.7,0.4,3.7,1.2l-1.3,1.8c-0.7-0.6-1.6-0.9-2.5-0.9
										c-0.6,0-0.9,0.3-0.9,0.6l0,0c0,0.4,0.3,0.6,1.6,0.9c2.1,0.5,3.4,1.1,3.4,2.8l0,0c0,1.9-1.5,3-3.7,3
										C38.2,197.7,36.7,197.2,35.5,196.1z"/>
									<path class="st3" d="M44.3,194L44.3,194c-0.1-1.9,1.4-3.6,3.4-3.7c0.1,0,0.1,0,0.2,0c2.4,0,3.5,1.8,3.5,3.9
										c0,0.2,0,0.3,0,0.5h-4.7c0.2,0.7,0.8,1.2,1.5,1.1c0.6,0,1.2-0.3,1.6-0.7l1.4,1.1c-0.7,0.9-1.9,1.5-3.1,1.4
										c-2,0.1-3.6-1.3-3.8-3.3C44.3,194.3,44.3,194.1,44.3,194z M49.1,193.4c0-0.7-0.5-1.3-1.2-1.3c-0.7,0-1.1,0.5-1.2,1.3H49.1z
										"/>
									<path class="st3" d="M52.2,194L52.2,194c-0.1-1.9,1.4-3.6,3.4-3.7c0.1,0,0.1,0,0.2,0c2.4,0,3.5,1.8,3.5,3.9
										c0,0.2,0,0.3,0,0.5h-4.7c0.1,0.7,0.8,1.2,1.5,1.1c0.6,0,1.2-0.3,1.6-0.7l1.3,1.1c-0.7,0.9-1.8,1.5-3,1.4
										c-1.9,0.1-3.6-1.3-3.8-3.3C52.2,194.3,52.2,194.1,52.2,194z M57,193.4c-0.1-0.8-0.5-1.3-1.2-1.3s-1.1,0.5-1.2,1.3H57z"/>
									<path class="st3" d="M66.3,190.6h-2.7v-2.2h8v2.2h-2.8v6.9h-2.5V190.6z"/>
									<path class="st3" d="M72.5,188H75v3.4c0.5-0.7,1.3-1.1,2.1-1.1c1.3-0.1,2.4,0.9,2.4,2.2c0,0.1,0,0.3,0,0.4v4.6H77v-3.8
										c0-0.8-0.4-1.2-1-1.2c-0.6,0-1,0.4-1,1c0,0.1,0,0.1,0,0.2v3.8h-2.5V188z"/>
									<path class="st3" d="M80.5,194L80.5,194c-0.1-1.9,1.4-3.6,3.4-3.7c0.1,0,0.1,0,0.2,0c2.4,0,3.6,1.8,3.6,3.9
										c0,0.2,0,0.3,0,0.5h-4.7c0.2,0.7,0.8,1.2,1.5,1.1c0.6,0,1.2-0.3,1.6-0.7l1.4,1.1c-0.7,0.9-1.9,1.5-3.1,1.4
										c-2,0.1-3.6-1.3-3.8-3.3C80.5,194.2,80.5,194.1,80.5,194z M85.3,193.4c0-0.7-0.5-1.3-1.2-1.3c-0.7,0-1.1,0.5-1.2,1.3H85.3z
										"/>
									<path class="st3" d="M91.8,196.1l1.4-1.7c0.8,0.7,1.9,1.1,2.9,1.1c0.7,0,1.1-0.2,1.1-0.6l0,0c0-0.4-0.3-0.6-1.5-0.9
										c-1.9-0.4-3.4-1-3.4-2.9l0,0c0-1.7,1.3-2.9,3.5-2.9c1.4-0.1,2.7,0.4,3.8,1.2l-1.3,1.8c-0.7-0.6-1.6-0.9-2.5-0.9
										c-0.6,0-0.9,0.3-0.9,0.6l0,0c0,0.4,0.3,0.6,1.6,0.9c2.1,0.5,3.4,1.1,3.4,2.8l0,0c0,1.9-1.5,3-3.7,3
										C94.4,197.7,92.9,197.2,91.8,196.1z"/>
									<path class="st3" d="M101.2,195.3v-2.9h-0.8v-2h0.8v-1.8h2.5v1.8h1.6v2h-1.6v2.4c0,0.5,0.2,0.7,0.7,0.7
										c0.3,0,0.6-0.1,0.9-0.2v1.9c-0.5,0.3-1.1,0.4-1.7,0.4C102,197.6,101.2,197,101.2,195.3z"/>
									<path class="st3" d="M106.1,194L106.1,194c0-2.1,1.7-3.7,3.8-3.7c0,0,0.1,0,0.1,0c2-0.1,3.8,1.5,3.9,3.5c0,0,0,0.1,0,0.1
										l0,0c0,2.1-1.7,3.7-3.8,3.7c0,0-0.1,0-0.1,0c-2,0.1-3.8-1.5-3.9-3.5C106.1,194.1,106.1,194,106.1,194z M111.4,194
										L111.4,194c0-0.8-0.6-1.5-1.5-1.6c0,0,0,0,0,0c-0.8,0-1.5,0.7-1.5,1.5c0,0,0,0,0,0.1l0,0c0,0.8,0.6,1.6,1.5,1.6
										c0,0,0,0,0,0C110.8,195.6,111.4,194.9,111.4,194C111.4,194.1,111.4,194,111.4,194z"/>
									<path class="st3" d="M114.9,190.5h2.5v1.4c0.3-1,1.2-1.6,2.2-1.5v2.6h-0.2c-1.3,0-2,0.7-2,2.4v2.2H115L114.9,190.5z"/>
									<path class="st3" d="M120.5,199l0.8-1.7c0.3,0.2,0.7,0.3,1.1,0.4c0.2,0,0.5-0.1,0.6-0.3l-2.8-6.9h2.6l1.4,4.2l1.3-4.2h2.5
										l-2.6,6.9c-0.6,1.6-1.3,2.3-2.7,2.3C122,199.6,121.2,199.4,120.5,199z"/>
								</g>
							</g>
							<rect id="Rectangle_5685-2" x="25.1" y="179.8" class="st7" width="113.8" height="27.3"/>
						</g>
					</g>
				</g>
				<g id="c3">
					<g id="Just_add_metal">
						<g>
							<path class="st3" d="M23.8,102.6l4.1-3.8c1.1,1.3,2.1,2.1,3.5,2.1c1.6,0,2.6-1.1,2.6-3.2V83.2h6.3v14.5
								c0,2.9-0.7,4.9-2.2,6.4c-1.7,1.6-3.9,2.4-6.3,2.3C28.6,106.6,25.6,105.2,23.8,102.6z"/>
							<path class="st3" d="M44.3,96V83.2h6.4v12.7c0,3.3,1.7,4.9,4.2,4.9s4.2-1.5,4.2-4.7V83.2h6.4v12.6c0,7.4-4.2,10.6-10.7,10.6
								S44.3,103.2,44.3,96z"/>
							<path class="st3" d="M67.7,102.7l3.5-4.2c2.1,1.7,4.7,2.7,7.4,2.7c1.7,0,2.6-0.6,2.6-1.6v-0.1c0-0.9-0.8-1.5-3.8-2.2
								c-4.9-1.1-8.6-2.5-8.6-7.2v-0.1c0-4.2,3.4-7.3,8.8-7.3c3.4-0.1,6.7,0.9,9.4,3l-3.2,4.5c-1.9-1.4-4.1-2.2-6.4-2.2
								c-1.5,0-2.3,0.7-2.3,1.5v0.1c0,1,0.8,1.5,4,2.2c5.2,1.2,8.5,2.8,8.5,7.1V99c0,4.7-3.7,7.4-9.2,7.4
								C74.5,106.5,70.7,105.2,67.7,102.7z"/>
							<path class="st3" d="M96.1,88.8h-6.8v-5.5h20v5.5h-6.8v17.3h-6.3V88.8z"/>
						</g>
						<g>
							<path class="st3" d="M33.5,113.5h6.1l9.7,23h-6.8l-1.7-4.1h-8.8l-1.6,4.1h-6.7L33.5,113.5z M39.1,127.5l-2.5-6.5l-2.5,6.5
								L39.1,127.5z"/>
							<path class="st3" d="M51.5,113.7h8.8c8.2,0,12.9,4.7,12.9,11.3v0c0,6.6-4.8,11.5-13,11.5h-8.7V113.7z M60.4,130.9
								c3.8,0,6.3-2.1,6.3-5.8v-0.1c0-3.7-2.5-5.8-6.3-5.8h-2.6v11.6H60.4z"/>
							<path class="st3" d="M76.6,113.7h8.8c8.2,0,12.9,4.7,12.9,11.3v0c0,6.6-4.8,11.5-13,11.5h-8.7V113.7z M85.5,130.9
								c3.8,0,6.3-2.1,6.3-5.8v-0.1c0-3.7-2.5-5.8-6.3-5.8h-2.6v11.6H85.5z"/>
						</g>
						<g>
							<path class="st3" d="M25.7,144.1h6.7l5.4,8.9l5.5-8.8h6.7V167h-6.3v-13.1l-5.8,8.9h-0.1l-5.8-8.9v13h-6.2V144.1z"/>
							<path class="st3" d="M54.4,144.1h18.4v5.4H60.7v3.5h11v5h-11v3.6h12.3v5.4H54.4V144.1z"/>
							<path class="st3" d="M81.7,149.7h-6.8v-5.5h20v5.5H88v17.3h-6.3V149.7z"/>
							<path class="st3" d="M102.6,144h6.1l9.7,23h-6.8l-1.6-4.1h-8.8l-1.6,4.1h-6.7L102.6,144z M108.1,158l-2.6-6.5l-2.6,6.4
								L108.1,158z"/>
							<path class="st3" d="M120.6,144.1h6.3v17.3h11v5.5h-17.3V144.1z"/>
						</g>
					</g>
				</g>
			</g>
		</g>
	</g>
	<g id="Logo">
		<path id="chevon_shape" class="st3" d="M159.4,495.6H96.5l-18.4,29h81.3L159.4,495.6z"/>
		<g id="Grupo_12756">
			<g id="Group_2">
				<path id="X" class="st8" d="M142.1,515l-1.3,1.4l-1.3-1.4h-0.7l1.6,1.8l-2,2.1h0.7l1.6-1.8l1.6,1.8h0.8l-1.9-2.1l1.6-1.8H142.1z
					"/>
				<rect id="I" x="135.1" y="515" class="st8" width="0.6" height="3.9"/>
				<path id="N" class="st8" d="M131.1,515v3.1l-2.8-3.1h-0.6v3.9h0.6v-3.1l2.8,3.1h0.6V515H131.1z"/>
				<rect id="I-2" x="123.8" y="515" class="st8" width="0.6" height="3.9"/>
				<path id="U" class="st8" d="M120.1,517.3c0,0.6-0.4,1.1-1,1.2h-0.1c-0.6,0-1.1-0.4-1.1-1c0,0,0-0.1,0-0.2V515h-0.6v2.4
					c0,0.9,0.6,1.6,1.5,1.7c0,0,0,0,0,0h0.2c0.9,0.1,1.6-0.6,1.7-1.4c0-0.1,0-0.2,0-0.2V515h-0.6L120.1,517.3z"/>
				<path id="Q" class="st8" d="M112.3,514.8c-1.1,0-2,0.9-2.1,2v0.1l0,0c0,1.1,0.8,2,1.9,2.1c0,0,0.1,0,0.1,0h0.1
					c0.3,0,0.6-0.1,0.9-0.2l0.3,0.4h0.7l-0.6-0.7c0.5-0.4,0.8-1,0.7-1.6l0,0c0-1.1-0.8-2-1.9-2.1c0,0-0.1,0-0.1,0L112.3,514.8
					 M113.8,516.9c0,0.5-0.2,0.9-0.5,1.2l-0.3-0.4h-0.7l0.5,0.6c-0.2,0.1-0.4,0.1-0.6,0.1c-0.8,0-1.5-0.7-1.5-1.5l0,0v-0.1l0,0
					c-0.1-0.8,0.5-1.5,1.4-1.6c0,0,0,0,0,0h0.1C113.1,515.3,113.8,516,113.8,516.9L113.8,516.9L113.8,516.9L113.8,516.9z"/>
				<path id="E" class="st8" d="M104.5,515v3.9h3.5v-0.5h-3v-1.3h1.9v-0.5H105v-1.1h2.8V515H104.5z"/>
			</g>
			<g id="icon_group">
				<path id="icon" class="st9" d="M124.1,500.5l-1.6,0.6v8.4l-1.1-0.4v-7.7l-3.2,1.1v5.4l-1.1-0.4V503l-1.1,0.4v5.1l3.2,1.1v-6.2
					l1.1-0.4v6.9l3.2,1.1v-9.2l0.5-0.2l0.5,0.2v9.1l3.2-1.1V503l1.1,0.4v6.2l3.2-1.1v-5.1L131,503v4.7l-1,0.3v-5.4l-3.2-1.1v7.7
					l-1.1,0.4v-8.4L124.1,500.5z"/>
				<path id="R" class="st9" d="M134.2,508c0.6,0,1-0.4,1-1l0,0c0.1-0.5-0.2-1.1-0.7-1.2c-0.5-0.1-1.1,0.2-1.2,0.7
					c0,0.2,0,0.4,0,0.5l0,0C133.2,507.6,133.7,508,134.2,508L134.2,508 M134.2,507.9c-0.5,0-0.9-0.4-0.9-0.9l0,0
					c0.1-0.5,0.6-0.7,1.1-0.6c0.3,0.1,0.5,0.3,0.6,0.5v0.1l0,0C135,507.5,134.6,507.9,134.2,507.9L134.2,507.9 M133.8,507.5h0.2
					v-0.3h0.1l0.2,0.3h0.3l-0.2-0.4c0.1,0,0.2-0.2,0.2-0.3c0-0.2-0.2-0.3-0.4-0.3h-0.5V507.5z M134,507v-0.3h0.2
					c0.1,0,0.2,0,0.2,0.1s-0.1,0.1-0.2,0.1L134,507z"/>
			</g>
		</g>
	</g>
	
		<image style="overflow:visible;enable-background:new    ;" width="2430" height="1298" id="Logo_Dizzion" xlink:href="awareness35.png"  transform="matrix(2.000000e-02 0 0 2.000000e-02 16.8679 496.0498)">
	</image>
</g>
</svg>
