<?xml version="1.0" encoding="utf-8"?>
<!-- Generator: Adobe Illustrator 25.2.1, SVG Export Plug-In . SVG Version: 6.00 Build 0)  -->
<svg version="1.1" id="Layer_1" xmlns="http://www.w3.org/2000/svg" xmlns:xlink="http://www.w3.org/1999/xlink" x="0px" y="0px"
	 viewBox="0 0 300 600" style="enable-background:new 0 0 300 600;" xml:space="preserve">
<style type="text/css">
	.st0{clip-path:url(#SVGID_2_);}
	.st1{opacity:0.6;fill:url(#bg-light_1_);enable-background:new    ;}
	.st2{fill:#FFFFFF;}
	.st3{clip-path:url(#SVGID_4_);}
	.st4{clip-path:url(#SVGID_6_);}
	.st5{opacity:0.29;fill:url(#cta-glow_1_);enable-background:new    ;}
	.st6{fill:none;stroke:#FFFFFF;stroke-width:0.96;stroke-miterlimit:10;}
	.st7{fill:#030504;}
	.st8{fill:#E4001B;}
	.st9{fill-rule:evenodd;clip-rule:evenodd;fill:#FE5000;}
	.st10{fill-rule:evenodd;clip-rule:evenodd;fill:#FFFFFF;}
</style>
<g id="_300x600">
	<g>
		<g>
			<defs>
				<rect id="SVGID_1_" width="300" height="600"/>
			</defs>
			<clipPath id="SVGID_2_">
				<use xlink:href="#SVGID_1_"  style="overflow:visible;"/>
			</clipPath>
			<g class="st0">
				<g id="BG">
					<g id="GettyImages-561860327" transform="translate(-228.43 -37.27) scale(0.84)">
						
							<image style="overflow:visible;enable-background:new    ;" width="901" height="803" id="image" xlink:href="awareness1-300x2501.jpg"  transform="matrix(0.8864 0 0 1.1998 55.4329 -123.4881)">
						</image>
					</g>
					
						<radialGradient id="bg-light_1_" cx="-894.666" cy="-210.4787" r="0.41" gradientTransform="matrix(542.92 0 0 -175.73 485860.9062 -36623.1445)" gradientUnits="userSpaceOnUse">
						<stop  offset="0" style="stop-color:#FFFFFF"/>
						<stop  offset="0.26" style="stop-color:#FFFFFF;stop-opacity:0.68"/>
						<stop  offset="0.53" style="stop-color:#FFFFFF;stop-opacity:0.39"/>
						<stop  offset="0.75" style="stop-color:#FFFFFF;stop-opacity:0.18"/>
						<stop  offset="0.91" style="stop-color:#FFFFFF;stop-opacity:5.000000e-02"/>
						<stop  offset="1" style="stop-color:#FFFFFF;stop-opacity:0"/>
					</radialGradient>
					<ellipse id="bg-light" class="st1" cx="150" cy="365.9" rx="246.3" ry="79.7"/>
					
						<image style="overflow:visible;enable-background:new    ;" width="600" height="491" id="keyshadow" xlink:href="awareness11.png"  transform="matrix(0.7716 0 0 0.6838 -73.94 276)">
					</image>
					
						<image style="overflow:visible;enable-background:new    ;" width="258" height="68" xlink:href="metal3.png"  transform="matrix(0.74 0 0 0.74 54.09 347.41)">
					</image>
					
						<image style="overflow:visible;enable-background:new    ;" width="1721" height="1721" id="shine1_300x" xlink:href="consideration21.png"  transform="matrix(4.000000e-02 0 0 4.000000e-02 61.46 314.8)">
					</image>
				</g>
				<g id="f2">
					<g>
						<path class="st2" d="M41.7,59h3.5l7.4,17.5h-4L47,72.6h-7.3l-1.6,3.9h-3.9L41.7,59z M45.7,69.2l-2.3-5.6l-2.3,5.6H45.7z"/>
						<path class="st2" d="M53.7,69.8L53.7,69.8c0-4.4,2.9-6.9,6-6.9c1.6,0,3.2,0.7,4.1,2v-6.6h3.8v18.1h-3.7v-1.9
							c-0.9,1.4-2.5,2.2-4.1,2.2C56.7,76.7,53.7,74.3,53.7,69.8z M63.9,69.8L63.9,69.8c0.2-1.8-1-3.4-2.8-3.7
							c-1.8-0.2-3.4,1-3.7,2.8c0,0.3,0,0.6,0,0.9l0,0c-0.2,1.8,1,3.4,2.8,3.7c1.8,0.2,3.4-1,3.7-2.8C64,70.4,64,70.1,63.9,69.8z"/>
						<path class="st2" d="M70.4,69.8L70.4,69.8c0-4.4,2.9-6.9,6-6.9c1.6,0,3.2,0.7,4.1,2v-6.6h3.8v18.1h-3.7v-1.9
							c-0.9,1.4-2.5,2.2-4.1,2.2C73.4,76.7,70.4,74.3,70.4,69.8z M80.7,69.8L80.7,69.8c0.2-1.8-1-3.4-2.8-3.6s-3.4,1-3.6,2.8
							c0,0.3,0,0.5,0,0.8l0,0c-0.2,1.8,1,3.4,2.8,3.6s3.4-1,3.6-2.8C80.7,70.4,80.7,70.1,80.7,69.8z"/>
						<path class="st2" d="M94.4,73.9l2.3-2.7c1.4,1.3,3.2,2.1,5.2,2.1c1.6,0,2.5-0.6,2.5-1.6v-0.1c0-1-0.6-1.5-3.5-2.2
							c-3.5-0.9-5.7-1.9-5.7-5.3l0,0c0-3.1,2.5-5.2,6.1-5.2c2.3,0,4.6,0.7,6.4,2.2l-2,2.9c-1.3-1-2.9-1.6-4.5-1.7
							c-1.5,0-2.2,0.7-2.2,1.5l0,0c0,1.1,0.8,1.5,3.7,2.3c3.5,0.9,5.5,2.2,5.5,5.2l0,0c0,3.4-2.6,5.4-6.4,5.4
							C99,76.7,96.4,75.7,94.4,73.9z"/>
						<path class="st2" d="M111.5,72.7v-6.3h-1.6v-3.2h1.6v-3.4h3.8v3.4h3.1v3.2h-3.1v5.7c0,0.9,0.4,1.3,1.2,1.3
							c0.7,0,1.3-0.2,1.9-0.5v3c-0.9,0.5-1.9,0.8-3,0.8C113.1,76.7,111.5,75.8,111.5,72.7z"/>
						<path class="st2" d="M120.2,69.9L120.2,69.9c0.2-4,3.6-7,7.6-6.8c3.7,0.2,6.6,3.1,6.8,6.8l0,0c-0.2,4-3.6,7-7.6,6.8
							C123.3,76.5,120.3,73.6,120.2,69.9z M130.8,69.9L130.8,69.9c0.1-1.9-1.4-3.6-3.4-3.7h-0.1c-1.9,0-3.4,1.5-3.5,3.4
							c0,0.1,0,0.2,0,0.3l0,0c-0.1,1.9,1.4,3.6,3.4,3.7h0.1c1.9,0,3.4-1.5,3.5-3.3C130.8,70.1,130.8,70,130.8,69.9z"/>
						<path class="st2" d="M137.2,63.2h3.8v2.7c0.8-1.8,2-3,4.2-2.9v3.9H145c-2.5,0-4,1.5-4,4.7v4.9h-3.8V63.2z"/>
						<path class="st2" d="M146.2,72.6L146.2,72.6c0-2.9,2.2-4.2,5.4-4.2c1.1,0,2.2,0.2,3.2,0.6v-0.2c0-1.6-1-2.4-2.9-2.4
							c-1.3,0-2.5,0.2-3.7,0.7l-0.9-2.9c1.6-0.8,3.4-1.1,5.2-1.1c1.7-0.1,3.3,0.4,4.5,1.5c1,1.2,1.5,2.7,1.4,4.2v7.7h-3.6V75
							c-1,1.1-2.5,1.8-4,1.7C148.2,76.7,146.2,75.2,146.2,72.6z M154.8,71.8v-0.7c-0.8-0.3-1.6-0.5-2.4-0.5c-1.6,0-2.6,0.7-2.6,1.8
							l0,0c0,1,0.8,1.6,2.1,1.6C153.6,74.1,154.8,73.1,154.8,71.8L154.8,71.8z"/>
						<path class="st2" d="M161.7,79.1l1.3-2.8c1.4,0.8,2.9,1.2,4.5,1.2c2.6,0,3.8-1.2,3.8-3.6v-0.7c-1,1.4-2.6,2.2-4.3,2.2
							c-3.2,0.1-5.9-2.5-5.9-5.7c0-0.2,0-0.3,0-0.5l0,0c-0.2-3.2,2.3-6,5.5-6.2c0.1,0,0.3,0,0.4,0c1.7,0,3.2,0.7,4.3,2v-1.8h3.8
							v10.3c0,2.4-0.6,4.1-1.7,5.2s-3.1,1.8-5.7,1.8C165.5,80.5,163.5,80,161.7,79.1z M171.3,69.2L171.3,69.2
							c-0.1-1.8-1.6-3.2-3.4-3.1c-1.6,0.1-3,1.4-3.1,3.1l0,0c0,1.7,1.3,3,2.9,3.1c0.1,0,0.2,0,0.3,0c1.7,0.1,3.1-1.2,3.3-2.9
							C171.3,69.3,171.3,69.2,171.3,69.2z"/>
						<path class="st2" d="M177.7,69.9L177.7,69.9c-0.2-3.6,2.7-6.7,6.3-6.9c0.1,0,0.2,0,0.3,0c4.4,0,6.5,3.4,6.5,7.2
							c0,0.3,0,0.7-0.1,1h-9.2c0.2,1.6,1.7,2.7,3.2,2.6c1.2,0,2.4-0.5,3.2-1.4l2.1,1.9c-2.5,3-6.9,3.3-9.9,0.9
							C178.6,73.9,177.7,72,177.7,69.9L177.7,69.9z M187.1,68.8c-0.2-1.7-1.2-2.8-2.8-2.8s-2.6,1.1-2.9,2.8H187.1z"/>
						<path class="st2" d="M192.2,78.9c1.7-0.2,2.6-1,2.4-2.4h-1.5v-4h4v3.3c0,3.3-1.6,4.6-4.6,4.6L192.2,78.9z"/>
					</g>
					<g>
						<path class="st2" d="M35,97.8L35,97.8c-0.1-4.9,3.7-8.9,8.6-9c0.1,0,0.3,0,0.4,0c2.6-0.1,5,0.9,6.8,2.7l-2.4,2.8
							c-1.2-1.2-2.7-1.9-4.4-2c-2.8,0.1-5.1,2.4-5,5.3v0.1l0,0c-0.2,2.8,2,5.3,4.8,5.4c0.1,0,0.1,0,0.2,0c1.7,0,3.4-0.7,4.6-2
							l2.5,2.5c-1.8,2.1-4.4,3.2-7.1,3.1c-4.8,0.1-8.8-3.8-8.9-8.6C35,98,35,97.9,35,97.8z"/>
						<path class="st2" d="M52.8,99.9L52.8,99.9c0-3.9,3.2-7,7-7c0.1,0,0.1,0,0.2,0c3.8-0.1,7,2.8,7.1,6.6c0,0.1,0,0.2,0,0.2l0,0
							c-0.2,4-3.6,7-7.6,6.8C55.9,106.4,53,103.5,52.8,99.9L52.8,99.9z M63.4,99.9L63.4,99.9c0.1-1.9-1.4-3.6-3.4-3.7h-0.1
							c-1.9,0-3.4,1.5-3.5,3.4c0,0.1,0,0.2,0,0.3l0,0c-0.1,1.9,1.4,3.6,3.4,3.7h0.1c1.9,0,3.4-1.5,3.4-3.4
							C63.4,100.1,63.4,100,63.4,99.9z"/>
						<path class="st2" d="M69.8,93.2h3.8v1.9c0.9-1.3,2.3-2.1,3.9-2.1c1.5-0.1,3,0.7,3.7,2.1c1-1.3,2.7-2.1,4.4-2.1
							c2.8,0,4.5,1.7,4.5,4.9v8.6h-3.8V99c0-1.8-0.8-2.7-2.2-2.7s-2.3,0.9-2.3,2.7v7.4H78V99c0-1.8-0.8-2.7-2.2-2.7
							s-2.3,0.9-2.3,2.7v7.4h-3.8V93.2H69.8z"/>
						<path class="st2" d="M93.4,93.2h3.8v1.9c0.9-1.4,2.5-2.2,4.1-2.2c3.1,0,6,2.4,6,6.9l0,0c0,4.4-2.9,6.9-6,6.9
							c-1.6,0-3.2-0.7-4.1-2v5.7h-3.8V93.2z M103.5,99.8L103.5,99.8c0.2-1.8-1-3.4-2.8-3.6s-3.4,1-3.6,2.8c0,0.3,0,0.5,0,0.8l0,0
							c-0.2,1.8,1,3.4,2.8,3.6s3.4-1,3.6-2.8C103.6,100.4,103.6,100.1,103.5,99.8z"/>
						<path class="st2" d="M110,101.8v-8.6h3.8v7.4c0,1.8,0.8,2.7,2.3,2.7s2.4-0.9,2.4-2.7v-7.4h3.8v13.3h-3.8v-1.9
							c-0.9,1.3-2.3,2.1-3.9,2.1C111.6,106.7,110,104.8,110,101.8z"/>
						<path class="st2" d="M126.1,102.7v-6.3h-1.6v-3.2h1.6v-3.4h3.8v3.4h3.1v3.2h-3.1v5.7c0,0.9,0.4,1.3,1.2,1.3
							c0.7,0,1.3-0.2,1.9-0.5v3c-0.9,0.5-1.9,0.8-3,0.8C127.7,106.7,126.1,105.8,126.1,102.7z"/>
						<path class="st2" d="M134.8,99.9L134.8,99.9c-0.2-3.6,2.7-6.7,6.3-6.9c0.1,0,0.2,0,0.3,0c4.4,0,6.5,3.4,6.5,7.2
							c0,0.3,0,0.7-0.1,1h-9.2c0.2,1.6,1.6,2.7,3.2,2.6c1.2,0,2.4-0.5,3.2-1.4l2.2,1.9c-2.5,3-6.9,3.3-9.9,0.9
							C135.7,103.9,134.8,102,134.8,99.9L134.8,99.9z M144.1,98.8c-0.2-1.7-1.2-2.8-2.8-2.8s-2.6,1.1-2.9,2.8H144.1z"/>
					</g>
					<g>
						<path class="st2" d="M41.7,119h3.5l7.4,17.5h-4l-1.6-3.9h-7.3l-1.6,3.9h-3.9L41.7,119z M45.7,129.2l-2.3-5.6l-2.3,5.6H45.7z"
							/>
						<path class="st2" d="M54.9,123.2h3.8v1.9c0.9-1.3,2.3-2.1,3.9-2.1c2.9,0,4.5,1.9,4.5,4.9v8.6h-3.8V129c0-1.8-0.8-2.7-2.3-2.7
							s-2.4,0.9-2.4,2.7v7.4h-3.8L54.9,123.2L54.9,123.2z"/>
						<path class="st2" d="M69.8,129.8L69.8,129.8c0-4.5,2.9-6.9,6-6.9c1.6,0,3.2,0.7,4.1,2v-6.5h3.8v18.1h-3.8v-1.9
							c-0.9,1.4-2.5,2.2-4.1,2.2C72.7,136.7,69.8,134.3,69.8,129.8z M80,129.8L80,129.8c0.2-1.8-1-3.5-2.8-3.7s-3.4,1-3.6,2.8
							c0,0.3,0,0.5,0,0.8v0.1c-0.2,1.8,1,3.4,2.8,3.6c1.8,0.2,3.4-1,3.6-2.8C80,130.4,80,130.1,80,129.8z"/>
						<path class="st2" d="M94.1,127.8L94.1,127.8c-0.1-4.9,3.9-8.9,8.8-9c0.1,0,0.2,0,0.3,0c2.5-0.1,4.9,0.7,6.8,2.4l-2.4,2.9
							c-1.2-1.2-2.8-1.8-4.5-1.8c-2.9,0.1-5.1,2.5-5,5.4l0,0c-0.2,2.9,2,5.3,4.9,5.5c0.1,0,0.2,0,0.4,0c1.3,0,2.5-0.3,3.6-1v-2.5
							h-3.8v-3.3h7.5v7.5c-2.1,1.8-4.7,2.8-7.4,2.8C97.8,136.7,94.1,133,94.1,127.8z"/>
						<path class="st2" d="M114.1,118.4h3.8v18.1h-3.8V118.4z"/>
						<path class="st2" d="M120.7,129.9L120.7,129.9c0.1-4,3.5-7.1,7.4-6.9c3.8,0.1,6.8,3.1,6.9,6.9v0.1c-0.1,4-3.5,7.1-7.5,6.9
							C123.9,136.7,120.9,133.6,120.7,129.9z M131.4,129.9L131.4,129.9c0.1-1.9-1.4-3.6-3.4-3.7h-0.1c-1.9,0-3.4,1.5-3.4,3.4
							c0,0.1,0,0.2,0,0.3v0.1c-0.1,1.9,1.4,3.6,3.4,3.7h0.1c1.9,0,3.4-1.5,3.4-3.3C131.4,130.1,131.4,130,131.4,129.9z"/>
						<path class="st2" d="M141.6,134.7v1.7h-3.8v-18.1h3.8v6.7c0.9-1.4,2.5-2.2,4.1-2.2c3.1,0,6,2.4,6,6.9v0.1c0,4.4-2.9,6.9-6,6.9
							C144.1,136.7,142.6,136,141.6,134.7z M148,129.8L148,129.8c0.2-1.8-1-3.5-2.8-3.7s-3.4,1-3.6,2.8c0,0.3,0,0.5,0,0.8v0.1
							c-0.2,1.8,1,3.4,2.8,3.6s3.4-1,3.6-2.8C148,130.4,148,130.1,148,129.8z"/>
						<path class="st2" d="M153.8,132.6L153.8,132.6c0-2.9,2.2-4.2,5.4-4.2c1.1,0,2.2,0.2,3.2,0.6v-0.2c0-1.6-1-2.4-2.9-2.4
							c-1.3,0-2.5,0.2-3.7,0.7l-0.9-2.9c1.6-0.8,3.3-1.1,5.1-1.1c1.6-0.1,3.2,0.4,4.5,1.5c1,1.2,1.5,2.7,1.4,4.2v7.7h-3.6V135
							c-1,1.1-2.5,1.8-4,1.7C155.8,136.7,153.8,135.2,153.8,132.6z M162.4,131.8v-0.7c-0.8-0.3-1.6-0.5-2.4-0.5
							c-1.6,0-2.6,0.6-2.6,1.8l0,0c0,1,0.8,1.6,2.1,1.6C161.2,134.1,162.4,133.1,162.4,131.8L162.4,131.8z"/>
						<path class="st2" d="M169.4,118.4h3.8v18.1h-3.8V118.4z"/>
					</g>
					<g>
						<path class="st2" d="M35,157.8L35,157.8c-0.1-4.9,3.7-8.9,8.6-9c0.1,0,0.3,0,0.4,0c2.6-0.1,5,0.9,6.8,2.7l-2.4,2.8
							c-1.2-1.2-2.7-1.9-4.4-2c-2.8,0.1-5.1,2.4-5,5.3v0.1v0.1c-0.2,2.8,2,5.3,4.8,5.4c0.1,0,0.1,0,0.2,0c1.7,0,3.4-0.7,4.6-2
							l2.5,2.4c-1.8,2.1-4.4,3.2-7.1,3.1c-4.8,0.1-8.8-3.8-8.9-8.6C35,158,35,157.9,35,157.8z"/>
						<path class="st2" d="M52.8,159.9L52.8,159.9c0-3.9,3.2-7,7-7c0.1,0,0.1,0,0.2,0c3.8-0.1,7,2.8,7.1,6.6c0,0.1,0,0.2,0,0.2v0.1
							c-0.2,4-3.6,7-7.6,6.8C55.9,166.4,53,163.5,52.8,159.9L52.8,159.9z M63.4,159.9L63.4,159.9c0.1-1.9-1.4-3.6-3.4-3.7h-0.1
							c-1.9,0-3.4,1.5-3.5,3.4c0,0.1,0,0.2,0,0.3v0.1c-0.1,1.9,1.4,3.6,3.4,3.7h0.1c1.9,0,3.4-1.5,3.4-3.3
							C63.4,160.1,63.4,160,63.4,159.9z"/>
						<path class="st2" d="M69.8,153.2h3.8v1.9c0.9-1.3,2.3-2.1,3.9-2.1c2.8,0,4.5,1.9,4.5,4.9v8.6h-3.8V159c0-1.8-0.8-2.7-2.3-2.7
							s-2.3,0.9-2.3,2.7v7.4h-3.8C69.8,166.4,69.8,153.2,69.8,153.2z"/>
						<path class="st2" d="M85.3,153.2H89v1.9c0.9-1.3,2.3-2.1,3.9-2.1c2.8,0,4.5,1.9,4.5,4.9v8.6h-3.7V159c0-1.8-0.8-2.7-2.3-2.7
							S89,157.2,89,159v7.4h-3.7V153.2z"/>
						<path class="st2" d="M100,159.9L100,159.9c-0.2-3.6,2.7-6.7,6.3-6.9c0.1,0,0.2,0,0.3,0c4.4,0,6.5,3.4,6.5,7.2c0,0.3,0,0.6,0,1
							h-9.2c0.2,1.6,1.7,2.7,3.2,2.6c1.2,0,2.4-0.5,3.2-1.4l2.2,1.9c-2.5,3-6.9,3.4-9.9,1C100.9,164,100,162,100,159.9z
							 M109.4,158.8c-0.2-1.7-1.2-2.8-2.8-2.8s-2.6,1.1-2.9,2.8H109.4z"/>
						<path class="st2" d="M115.2,159.9L115.2,159.9c-0.1-3.8,3-6.9,6.7-6.9c0.1,0,0.2,0,0.3,0c2-0.1,4,0.7,5.3,2.2l-2.3,2.5
							c-0.7-0.9-1.8-1.4-3-1.5c-1.9,0.1-3.3,1.7-3.2,3.6c0,0,0,0,0,0.1v0.1c-0.1,1.9,1.2,3.5,3.1,3.6c0.1,0,0.2,0,0.3,0
							c1.2,0,2.2-0.5,3-1.4l2.2,2.2c-1.3,1.6-3.3,2.5-5.4,2.4c-3.7,0.1-6.8-2.9-6.9-6.6C115.2,160.1,115.2,160,115.2,159.9z"/>
						<path class="st2" d="M130.6,162.7v-6.3H129v-3.2h1.6v-3.4h3.8v3.4h3.1v3.2h-3.1v5.7c0,0.9,0.4,1.3,1.2,1.3
							c0.6,0,1.3-0.2,1.9-0.5v3c-0.9,0.5-1.9,0.8-3,0.8C132.2,166.7,130.6,165.8,130.6,162.7z"/>
						<path class="st2" d="M140.4,148.4h4v3.3h-4V148.4z M140.5,153.2h3.8v13.3h-3.8V153.2z"/>
						<path class="st2" d="M146.6,153.2h4l3,8.9l3-8.9h3.9l-5.2,13.4h-3.4L146.6,153.2z"/>
						<path class="st2" d="M162.7,148.4h4v3.3h-4V148.4z M162.8,153.2h3.8v13.3h-3.8V153.2z"/>
						<path class="st2" d="M170.7,162.7v-6.3h-1.6v-3.2h1.6v-3.4h3.8v3.4h3.1v3.2h-3.1v5.7c0,0.9,0.4,1.3,1.2,1.3
							c0.6,0,1.3-0.2,1.9-0.5v3c-0.9,0.5-1.9,0.8-3,0.8C172.3,166.7,170.7,165.8,170.7,162.7z"/>
						<path class="st2" d="M180.2,169.6l1.3-2.7c0.5,0.3,1,0.5,1.6,0.5c0.6,0.1,1.1-0.3,1.3-0.9l-5.2-13.3h4l3,9l2.9-9h3.9
							l-5.1,13.6c-1,2.7-2.1,3.7-4.4,3.7C182.4,170.5,181.2,170.2,180.2,169.6z"/>
					</g>
				</g>
				<g id="f3">
					<g id="c3">
						<g>
							<path class="st2" d="M34.7,155.4h6.9l7.7,12.3l7.7-12.3h6.9v29.1h-6.4v-19l-8.2,12.4h-0.2L41,165.6v18.9h-6.3V155.4z"/>
							<path class="st2" d="M70.8,155.4h22v5.7H77.2v5.9h13.7v5.7H77.2v6.1H93v5.7H70.8V155.4z"/>
							<path class="st2" d="M105.4,161.3h-8.9v-5.9h24.1v5.9h-8.9v23.2h-6.4v-23.2H105.4z"/>
							<path class="st2" d="M131.8,155.2h5.9l12.5,29.3h-6.7l-2.7-6.5h-12.3l-2.7,6.5h-6.5L131.8,155.2z M138.6,172.3l-3.9-9.4
								l-3.9,9.4H138.6z"/>
							<path class="st2" d="M154.7,155.4h6.4v23.3h14.5v5.8h-20.9V155.4z"/>
						</g>
						<g>
							<path class="st2" d="M32.3,134.6h3.9c2.2,0,3.6,1.3,3.6,3.3l0,0c0,2.2-1.7,3.3-3.8,3.3h-1.6v2.8h-2.1
								C32.3,144,32.3,134.6,32.3,134.6z M36.1,139.3c0.8,0.1,1.5-0.5,1.6-1.3c0-0.1,0-0.1,0-0.2l0,0c0-0.9-0.7-1.4-1.7-1.4h-1.6
								v2.9H36.1z"/>
							<path class="st2" d="M41.2,140v-5.4h2.1v5.3c0,1.5,0.8,2.3,2,2.3s2-0.8,2-2.3v-5.4h2.1v5.3c0,2.9-1.6,4.3-4.2,4.3
								S41.2,142.8,41.2,140z"/>
							<path class="st2" d="M51.5,134.6h4.3c1-0.1,2,0.3,2.8,1c0.5,0.6,0.8,1.4,0.8,2.1l0,0c0.1,1.3-0.8,2.5-2,2.9l2.3,3.3h-2.4
								l-2-3h-1.6v3h-2.1L51.5,134.6L51.5,134.6z M55.7,139.2c1,0,1.6-0.5,1.6-1.3l0,0c0-0.9-0.6-1.4-1.6-1.4h-2.1v2.7H55.7z"/>
							<path class="st2" d="M61.3,134.6h7.1v1.9h-5.1v1.9h4.4v1.9h-4.4v2h5.1v1.8h-7.2L61.3,134.6L61.3,134.6z"/>
							<path class="st2" d="M73.7,142.6l1.3-1.5c0.8,0.7,1.8,1.1,2.8,1.1c0.8,0,1.4-0.3,1.4-0.9l0,0c0-0.5-0.3-0.8-1.9-1.2
								c-1.9-0.5-3.1-1-3.1-2.9l0,0c0-1.7,1.4-2.9,3.3-2.9c1.3,0,2.5,0.4,3.5,1.2l-1.1,1.6c-0.7-0.6-1.6-0.9-2.5-0.9
								c-0.8,0-1.2,0.4-1.2,0.8l0,0c0,0.6,0.4,0.8,2,1.2c1.9,0.5,3,1.2,3,2.8l0,0c0,1.9-1.4,2.9-3.5,2.9
								C76.3,144.2,74.8,143.6,73.7,142.6z"/>
							<path class="st2" d="M85,136.5h-2.9v-1.9H90v1.9h-2.9v7.5H85V136.5z"/>
							<path class="st2" d="M90.7,139.3L90.7,139.3c0-2.7,2.2-4.9,4.9-4.9h0.1c2.7-0.1,4.9,2,5,4.7c0,0.1,0,0.1,0,0.2l0,0
								c0,2.8-2.2,5-5,5S90.7,142.1,90.7,139.3L90.7,139.3z M98.6,139.3L98.6,139.3c0.1-1.6-1.2-2.9-2.7-3h-0.1
								c-1.6,0-2.8,1.2-2.8,2.8v0.1l0,0c-0.1,1.6,1.2,2.9,2.7,3h0.1c1.6,0,2.8-1.2,2.8-2.8C98.6,139.4,98.6,139.4,98.6,139.3z"/>
							<path class="st2" d="M102.6,134.6h4.3c1-0.1,2,0.3,2.8,1c0.5,0.6,0.8,1.4,0.8,2.1l0,0c0.1,1.3-0.8,2.5-2,2.9l2.3,3.4h-2.4
								l-2-3h-1.6v3h-2.1v-9.4H102.6z M106.8,139.2c1,0,1.6-0.5,1.6-1.3l0,0c0-0.9-0.6-1.4-1.6-1.4h-2.1v2.7H106.8z"/>
							<path class="st2" d="M115.6,134.5h1.9l4,9.5h-2.2l-0.9-2.1h-4l-0.9,2.1h-2.1L115.6,134.5z M117.8,140.1l-1.3-3.1l-1.3,3.1
								H117.8z"/>
							<path class="st2" d="M122,139.3L122,139.3c0-2.7,2.1-4.9,4.8-4.9c0.1,0,0.1,0,0.2,0c1.4-0.1,2.7,0.4,3.7,1.3l-1.3,1.6
								c-0.7-0.6-1.5-1-2.5-1c-1.6,0.1-2.8,1.4-2.7,2.9l0,0c-0.1,1.6,1.1,2.9,2.6,3c0.1,0,0.2,0,0.2,0c0.7,0,1.4-0.2,2-0.6v-1.4h-2
								v-1.8h4v4.1c-1.1,1-2.5,1.5-4,1.5c-2.6,0.1-4.8-1.8-5-4.5C122,139.6,122,139.5,122,139.3z"/>
							<path class="st2" d="M133,134.6h7.1v1.9H135v1.9h4.4v1.9H135v2h5.1v1.8H133V134.6z"/>
							<path class="st2" d="M145.6,139.3L145.6,139.3c0-2.7,2.2-4.9,4.9-4.9h0.1c2.7-0.1,4.9,2,5,4.7c0,0.1,0,0.1,0,0.2l0,0
								c0,2.8-2.2,5-5,5S145.6,142.1,145.6,139.3L145.6,139.3z M153.5,139.3L153.5,139.3c0.1-1.6-1.2-2.9-2.7-3h-0.1
								c-1.6,0-2.8,1.2-2.8,2.8v0.1l0,0c-0.1,1.6,1.2,2.9,2.7,3h0.1c1.6,0,2.8-1.2,2.8-2.8C153.5,139.4,153.5,139.4,153.5,139.3
								L153.5,139.3z"/>
							<path class="st2" d="M157.5,134.6h1.9l4.4,5.8v-5.8h2v9.4H164l-4.6-6v6h-2v-9.4H157.5z"/>
						</g>
						<g>
							<path class="st2" d="M44.7,95.6h5.9l12.5,29.3h-6.7l-2.7-6.5H41.4l-2.7,6.5h-6.5L44.7,95.6z M51.4,112.7l-3.9-9.4l-3.9,9.4
								H51.4z"/>
							<path class="st2" d="M67.6,95.8h11.3c9.2,0,15.5,6.3,15.5,14.5v0.1c0,8.2-6.3,14.6-15.5,14.6H67.6V95.8z M78.9,119.1
								c5.2,0,8.8-3.5,8.8-8.7v-0.1c0.2-4.6-3.3-8.5-7.9-8.8c-0.3,0-0.6,0-0.8,0h-5v17.6H78.9z"/>
							<path class="st2" d="M100.1,95.8h11.3c9.2,0,15.5,6.3,15.5,14.5v0.1c0,8.2-6.3,14.6-15.5,14.6h-11.3V95.8z M111.4,119.1
								c5.2,0,8.8-3.5,8.8-8.7v-0.1c0.2-4.6-3.3-8.5-7.9-8.8c-0.3,0-0.6,0-0.8,0h-4.9v17.6H111.4z"/>
						</g>
						<g>
							<path class="st2" d="M31.8,83.9l4-4.5c1.7,1.8,3.3,2.9,5.3,2.9c2.4,0,3.9-1.5,3.9-4.8V58.7h6.6v19c0,3.4-1,6-2.7,7.8
								c-2.1,1.9-4.8,2.9-7.6,2.7C37.6,88.3,34.1,86.7,31.8,83.9z"/>
							<path class="st2" d="M57.7,75.4V58.7h6.4v16.5c0,4.7,2.4,7.2,6.3,7.2s6.3-2.4,6.3-7V58.7h6.4v16.4c0,8.8-5,13.1-12.8,13.1
								S57.7,83.9,57.7,75.4z"/>
							<path class="st2" d="M87.6,83.6l3.8-4.5c2.4,2.2,5.5,3.4,8.7,3.5c2.6,0,4.2-1,4.2-2.7v-0.1c0-1.6-1-2.4-5.9-3.7
								c-5.9-1.5-9.7-3.1-9.7-8.9v-0.1c0-5.3,4.2-8.8,10.2-8.8c3.9-0.1,7.7,1.2,10.8,3.7l-3.3,4.8c-2.6-1.8-5.1-2.9-7.6-2.9
								s-3.7,1.1-3.7,2.5v0.1c0,1.9,1.2,2.5,6.3,3.8c5.9,1.5,9.2,3.7,9.2,8.7v0.1c0,5.8-4.4,9-10.7,9C95.4,88.2,91,86.6,87.6,83.6z"
								/>
							<path class="st2" d="M122.3,64.6h-8.9v-5.9h24.1v5.9h-8.9v23.2h-6.4L122.3,64.6L122.3,64.6z"/>
						</g>
					</g>
					<g id="cta">
						<g>
							<g>
								<defs>
									<rect id="SVGID_3_" x="27" y="198.7" width="144.2" height="43.5"/>
								</defs>
								<clipPath id="SVGID_4_">
									<use xlink:href="#SVGID_3_"  style="overflow:visible;"/>
								</clipPath>
								<g class="st3">
									<g>
										<g>
											<defs>
												<rect id="SVGID_5_" x="31.7" y="204.3" width="134.7" height="32.4"/>
											</defs>
											<clipPath id="SVGID_6_">
												<use xlink:href="#SVGID_5_"  style="overflow:visible;"/>
											</clipPath>
											<g class="st4">
												
													<linearGradient id="cta-glow_1_" gradientUnits="userSpaceOnUse" x1="17.4599" y1="806.3097" x2="-122.2401" y2="837.6697" gradientTransform="matrix(1 0 0 1 0 -598)">
													<stop  offset="0" style="stop-color:#000000"/>
													<stop  offset="0.24" style="stop-color:#FFFFFF"/>
													<stop  offset="0.46" style="stop-color:#000000"/>
													<stop  offset="0.71" style="stop-color:#FFFFFF"/>
													<stop  offset="1" style="stop-color:#000000"/>
												</linearGradient>
												<rect id="cta-glow" x="-338" y="153.4" class="st5" width="549.3" height="146.1"/>
											</g>
										</g>
									</g>
									<g id="Learn_more">
										<g>
											<path class="st2" d="M58.9,215.2h2.8v7.6h4.9v2.4h-7.7C58.9,225.2,58.9,215.2,58.9,215.2z"/>
											<path class="st2" d="M67.4,221.4L67.4,221.4c-0.1-2.2,1.6-4,3.7-4.1c0.1,0,0.1,0,0.2,0c2.7,0,3.9,2,3.9,4.2
												c0,0.2,0,0.4,0,0.6H70c0.2,0.8,0.9,1.3,1.7,1.3c0.7,0,1.3-0.3,1.7-0.8l1.5,1.2c-0.8,1-2.1,1.6-3.4,1.6
												c-2.2,0.1-4-1.5-4.2-3.6C67.4,221.7,67.4,221.5,67.4,221.4z M72.7,220.7c-0.1-0.9-0.6-1.4-1.3-1.4s-1.2,0.6-1.3,1.4H72.7
												z"/>
											<path class="st2" d="M76,223L76,223c0-1.6,1.2-2.4,3-2.4c0.6,0,1.3,0.1,1.9,0.3v-0.1c0-0.8-0.5-1.3-1.6-1.3
												c-0.7,0-1.5,0.1-2.1,0.4l-0.5-1.9c1-0.4,2.1-0.6,3.2-0.6c1.1-0.1,2.2,0.2,3,0.9c0.6,0.7,0.9,1.6,0.8,2.5v4.5H81v-0.8
												c-0.6,0.7-1.4,1-2.3,1c-1.3,0.2-2.5-0.8-2.6-2.1C76,223.3,76,223.1,76,223z M80.9,222.4V222c-0.3-0.1-0.7-0.2-1.1-0.2
												c-0.8,0-1.2,0.4-1.2,1l0,0c0,0.5,0.4,0.9,0.9,0.9h0.1C80.3,223.7,80.9,223.2,80.9,222.4
												C80.9,222.5,80.9,222.4,80.9,222.4L80.9,222.4z"/>
											<path class="st2" d="M85.2,217.5h2.7v1.5c0.3-1.1,1.3-1.8,2.5-1.7v2.9h-0.2c-1.4,0-2.2,0.8-2.2,2.6v2.4h-2.7v-7.7H85.2z"
												/>
											<path class="st2" d="M91.3,217.5H94v1.1c0.5-0.8,1.4-1.2,2.3-1.3c1.4-0.1,2.6,1,2.7,2.4c0,0.1,0,0.3,0,0.4v5.1h-2.7V221
												c0-0.8-0.4-1.3-1.1-1.3c-0.6,0-1.2,0.5-1.2,1.1c0,0.1,0,0.1,0,0.2v4.2h-2.7C91.3,225.2,91.3,217.5,91.3,217.5z"/>
											<path class="st2" d="M104.6,215.2h3l2.4,3.9l2.4-3.9h3v10.1h-2.8v-5.8l-2.6,3.9h-0.1l-2.6-3.9v5.7h-2.8L104.6,215.2
												L104.6,215.2z"/>
											<path class="st2" d="M116.8,221.4L116.8,221.4c0.1-2.4,2.1-4.2,4.5-4.1c2.2,0.1,4,1.9,4.1,4.1l0,0c0,2.3-1.9,4.1-4.2,4.1
												h-0.1c-2.3,0.1-4.2-1.6-4.3-3.9C116.8,221.5,116.8,221.4,116.8,221.4z M122.7,221.4L122.7,221.4c0-0.9-0.7-1.7-1.6-1.8
												H121c-0.9,0-1.6,0.7-1.6,1.6v0.1l0,0c0,0.9,0.7,1.7,1.6,1.8l0,0c0.9,0,1.6-0.7,1.7-1.6
												C122.7,221.4,122.7,221.4,122.7,221.4z"/>
											<path class="st2" d="M126.6,217.5h2.7v1.5c0.3-1.1,1.3-1.8,2.5-1.7v2.9h-0.2c-1.4,0-2.2,0.8-2.2,2.6v2.4h-2.7
												L126.6,217.5z"/>
											<path class="st2" d="M132.4,221.4L132.4,221.4c-0.1-2.2,1.6-4,3.7-4.1c0.1,0,0.1,0,0.2,0c2.7,0,3.9,2,3.9,4.2
												c0,0.2,0,0.4,0,0.6H135c0.2,0.8,0.9,1.3,1.7,1.3c0.7,0,1.3-0.3,1.7-0.8l1.5,1.2c-0.8,1-2.1,1.6-3.4,1.6
												c-2.2,0.2-4-1.5-4.2-3.6C132.4,221.7,132.4,221.5,132.4,221.4z M137.7,220.7c-0.1-0.9-0.6-1.4-1.4-1.4s-1.2,0.6-1.4,1.4
												H137.7z"/>
										</g>
									</g>
									<rect id="Rectangle_5685-2" x="31.7" y="204.3" class="st6" width="134.7" height="32.4"/>
								</g>
							</g>
						</g>
					</g>
				</g>
			</g>
		</g>
	</g>
	<g id="Logo">
		<path id="chevon_shape" class="st2" d="M300,471.4H185.8L152.4,524H300V471.4z"/>
		<g id="Grupo_12756">
			<g id="Group_2">
				<path id="X" class="st7" d="M268.6,506.6l-2.4,2.6l-2.3-2.6h-1.3l2.9,3.3l-3.6,3.9h1.3l3-3.2l2.8,3.2h1.4l-3.5-3.9l3-3.3H268.6z
					"/>
				<rect id="I" x="255.9" y="506.6" class="st7" width="1" height="7.2"/>
				<path id="N" class="st7" d="M248.6,506.6v5.6l-5.1-5.6h-1v7.2h1v-5.7l5.1,5.7h1v-7.2L248.6,506.6L248.6,506.6z"/>
				<rect id="I-2" x="235.3" y="506.6" class="st7" width="1" height="7.2"/>
				<path id="U" class="st7" d="M228.5,510.9c0.1,1.1-0.8,2-1.9,2.1h-0.2c-1.1,0-2-0.8-2-1.8l0,0c0-0.1,0-0.2,0-0.3v-4.3h-1v4.4
					c-0.1,1.6,1.2,2.9,2.7,3h0.3c1.6,0.2,3-1,3.1-2.6c0-0.1,0-0.3,0-0.4v-4.3h-1L228.5,510.9z"/>
				<path id="Q" class="st7" d="M214.4,506.3c-2.1,0-3.8,1.6-3.8,3.7l0,0v0.2c-0.1,2,1.6,3.7,3.6,3.8h0.2c0.6,0,1.1-0.1,1.7-0.4
					l0.6,0.7h1.2l-1-1.2c0.9-0.7,1.4-1.8,1.4-3l0,0c0.1-2-1.6-3.7-3.6-3.8l0,0H214.4 M217.2,510.2c0,0.8-0.3,1.7-0.9,2.2l-0.6-0.6
					h-1.2l1,1.1c-0.3,0.1-0.7,0.2-1,0.2c-1.5,0-2.8-1.3-2.8-2.8l0,0l0,0v-0.1c-0.1-1.5,1-2.8,2.5-2.9l0,0h0.2
					C215.9,507.3,217.2,508.5,217.2,510.2L217.2,510.2L217.2,510.2z"/>
				<path id="E" class="st7" d="M200.2,506.6v7.2h6.4v-0.9h-5.3v-2.3h3.5v-1h-3.5v-2h5.2v-1L200.2,506.6z"/>
			</g>
			<g id="icon_group">
				<path id="icon" class="st8" d="M235.8,480.4l-2.9,1v15.3L231,496v-13.9l-5.8,2v9.9l-1.9-0.7v-8.5l-1.9,0.7v9.2l5.8,2v-11.2
					l1.9-0.7v12.6l5.8,2v-16.6l1-0.3l1,0.3v16.6l5.8-2v-12.6l1.9,0.7v11.2l5.8-2v-9.2l-1.9-0.7v8.5l-1.9,0.7v-9.9l-5.8-2V496
					l-1.9,0.7v-15.3L235.8,480.4z"/>
				<path id="R" class="st8" d="M254.1,494c1,0,1.7-0.8,1.8-1.8l0,0c-0.1-1-0.9-1.7-1.9-1.6c-0.9,0.1-1.6,0.8-1.6,1.6l0,0
					C252.4,493.2,253.2,494,254.1,494L254.1,494 M254.1,493.8c-0.9,0-1.5-0.7-1.6-1.5l0,0l0,0l0,0c-0.1-0.9,0.5-1.6,1.4-1.7
					s1.6,0.5,1.7,1.4c0,0.1,0,0.1,0,0.2v0.1l0,0C255.7,493.1,255,493.8,254.1,493.8L254.1,493.8L254.1,493.8 M253.4,493.1h0.4v-0.6
					h0.3l0.4,0.6h0.5l-0.5-0.6c0.2-0.1,0.4-0.3,0.4-0.6c0-0.4-0.3-0.6-0.7-0.6h-0.9v1.8H253.4z M253.9,492.2v-0.5h0.4
					c0.2,0,0.3,0.1,0.3,0.2s-0.1,0.3-0.3,0.3H253.9z"/>
			</g>
		</g>
	</g>
	<g id="purestorage_logo">
		<g id="Group-28">
			<g id="Group-3">
				<path id="Fill-1" class="st9" d="M37.6,506.2h-5.2c-1.1,0-2.1-0.6-2.6-1.5l-4.4-7.6c-0.5-0.9-0.5-2.1,0-3l4.4-7.6
					c0.5-0.9,1.5-1.5,2.6-1.5h8.8c1.1,0,2.1,0.6,2.6,1.5l4.4,7.6c0.5,0.9,0.5,2.1,0,3l-1.1,1.8c-0.5,0.9-1.5,1.5-2.6,1.5h-5.2
					l2.8-4.8l-2.6-4.6h-5.3l-2.6,4.6L37.6,506.2z"/>
			</g>
			<path id="Fill-4" class="st10" d="M57,495.6c0.9,0,1.5-0.3,1.5-1.3s-0.5-1.2-1.4-1.2h-0.7v2.5H57z M56.5,500.6H54v-9.4h3.5
				c2.2,0,3.5,1,3.5,3c0,2.2-1.6,3.3-3.8,3.3h-0.7V500.6z"/>
			<path id="Fill-6" class="st10" d="M64.8,491.2v6.1c0,1.1,0.5,1.4,1.3,1.4c0.6,0,1.2-0.4,1.2-1.1c0-0.1,0-0.1,0-0.2v-6.1h2.4v6.4
				c0,1.9-1.5,3-3.7,3c-2.4,0-3.7-1-3.7-3.2v-6.2L64.8,491.2z"/>
			<path id="Fill-8" class="st10" d="M80.2,491.2h6.2v2.1h-3.7v1.4h3.2v2.1h-3.2v1.6h3.8v2.1h-6.3V491.2z"/>
			<path id="Fill-10" class="st10" d="M88.8,498.8c0.8,0.5,1.7,0.8,2.6,0.8c1,0,2-0.3,2-1.7c0-1.1-1-1.5-2.1-1.8
				c-1.4-0.4-2.7-0.9-2.7-2.6c0-1.6,1.2-2.6,3-2.6c1.2,0,2.3,0.5,3.1,1.3l-0.6,0.8c-0.7-0.6-1.5-1-2.5-1c-0.8,0-1.8,0.3-1.8,1.5
				s1,1.5,2.2,1.8s2.7,0.9,2.7,2.7s-1.2,2.8-3.2,2.8c-1.1,0-2.1-0.3-3-0.9L88.8,498.8z"/>
			<path id="Fill-12" class="st10" d="M102.3,491.2v1h-2.8v8.5h-1.1v-8.5h-2.7v-1H102.3z"/>
			<path id="Fill-14" class="st10" d="M106.9,499.7c2,0,2.7-2,2.7-3.9c0-1.7-0.5-4-2.7-4s-2.8,2-2.8,3.9S104.6,499.7,106.9,499.7
				 M106.8,500.7c-2.4,0-3.8-1.6-3.8-4.9c0-3.7,2.1-4.9,4-4.9s3.8,1.3,3.8,4.9C110.7,499.1,109.2,500.7,106.8,500.7"/>
			<path id="Fill-16" class="st10" d="M122.5,496.8h3.2l-1.6-4.6L122.5,496.8z M120.1,500.6l3.3-9.4h1.3l3.4,9.4H127l-1-2.9h-3.7
				l-1,2.9H120.1z"/>
			<path id="Fill-18" class="st10" d="M135.5,499.8c-0.9,0.6-2,0.9-3.1,0.9c-2.4,0-3.9-1.6-3.9-4.9c0-3.7,2.1-4.9,3.9-4.9
				c1.2,0,2.4,0.5,3.1,1.5l-0.8,0.6c-0.5-0.7-1.4-1.2-2.3-1.2c-1.7,0-2.8,1.5-2.8,3.9c0,2.6,0.9,4,2.9,4c0.7,0,1.3-0.2,1.9-0.5v-2.8
				h-2.1v-1h3.2L135.5,499.8L135.5,499.8z"/>
			<path id="Fill-20" class="st10" d="M137.6,491.2h5.1v1h-4.1v3.2h3.5v1h-3.5v3.4h4.1v1h-5.2L137.6,491.2L137.6,491.2z"/>
			<path id="Fill-22" class="st10" d="M115,496.2h-1.4v-4.1h1.3c1.6,0,2.8,0.2,2.8,2C117.6,495.7,116.5,496.2,115,496.2z
				 M117.7,497.7c-0.2-0.5-0.4-0.7-0.7-0.9c1.1-0.5,1.8-1.6,1.7-2.8c0-1.9-1.2-2.8-3.2-2.8h-3.1v9.4h1.1v-3.5h2
				c0.6,0,0.9,0.4,1.1,0.9l1.2,2.6h1.2L117.7,497.7z"/>
			<path id="Fill-24" class="st10" d="M73.9,495.6v-2.5h0.7c0.9,0,1.4,0.3,1.4,1.2s-0.6,1.3-1.5,1.3H73.9z M77.6,497.6
				c-0.1-0.3-0.3-0.6-0.6-0.7c0.9-0.6,1.5-1.6,1.4-2.7c0-2-1.3-3-3.5-3h-3.4v9.4h2.4v-3.1h0.6c0.3,0,0.6,0.2,0.7,0.5l1.1,2.6h2.6
				L77.6,497.6z"/>
			<path id="Fill-26" class="st10" d="M144.8,492c0.2,0,0.3,0,0.3-0.2s-0.2-0.2-0.3-0.2h-0.3v0.4L144.8,492L144.8,492z M144.5,492.8
				h-0.2v-1.4h0.5c0.3,0,0.5,0.1,0.5,0.4c0,0.2-0.1,0.4-0.3,0.4l0,0l0,0l0.4,0.6h-0.3l-0.4-0.6h-0.2V492.8z M144.8,491.1
				c-0.6,0-1,0.4-1,1s0.4,1,1,1c0.5,0,1-0.4,1-0.9c0,0,0,0,0-0.1C145.7,491.6,145.3,491.1,144.8,491.1L144.8,491.1z M144.8,493.3
				c-0.7,0.1-1.3-0.4-1.3-1.1c-0.1-0.7,0.4-1.3,1.1-1.3c0.1,0,0.1,0,0.2,0c0.7,0,1.2,0.5,1.2,1.2l0,0l0,0
				C146,492.7,145.5,493.3,144.8,493.3C144.9,493.3,144.9,493.3,144.8,493.3L144.8,493.3z"/>
		</g>
	</g>
</g>
</svg>
