<?xml version="1.0" encoding="utf-8"?>
<!-- Generator: Adobe Illustrator 25.2.1, SVG Export Plug-In . SVG Version: 6.00 Build 0)  -->
<svg version="1.1" id="_300x250" xmlns="http://www.w3.org/2000/svg" xmlns:xlink="http://www.w3.org/1999/xlink" x="0px" y="0px"
	 viewBox="0 0 300 250" style="enable-background:new 0 0 300 250;" xml:space="preserve">
<style type="text/css">
	.st0{clip-path:url(#SVGID_2_);}
	.st1{opacity:0.6;fill:url(#bg-light_1_);enable-background:new    ;}
	.st2{fill:#FFFFFF;}
	.st3{clip-path:url(#SVGID_4_);}
	.st4{clip-path:url(#SVGID_6_);}
	.st5{opacity:0.29;fill:url(#cta-glow_1_);enable-background:new    ;}
	.st6{fill:none;stroke:#FFFFFF;stroke-width:0.64;stroke-miterlimit:10;}
	.st7{fill:#030504;}
	.st8{fill:#E4001B;}
	.st9{fill-rule:evenodd;clip-rule:evenodd;fill:#FE5000;}
	.st10{fill-rule:evenodd;clip-rule:evenodd;fill:#FFFFFF;}
</style>
<g>
	<defs>
		<rect id="SVGID_1_" width="300" height="250"/>
	</defs>
	<clipPath id="SVGID_2_">
		<use xlink:href="#SVGID_1_"  style="overflow:visible;"/>
	</clipPath>
	<g class="st0">
		<g id="BG">
			
				<image style="overflow:visible;enable-background:new    ;" width="901" height="803" id="GettyImages-561860327" xlink:href="awareness1-300x2501.jpg"  transform="matrix(0.58 0 0 0.47 -112.26 -80.12)">
			</image>
			
				<radialGradient id="bg-light_1_" cx="-1240.4626" cy="935.3313" r="0.15" gradientTransform="matrix(1189.83 0 0 378.81 1476076.625 -354188.125)" gradientUnits="userSpaceOnUse">
				<stop  offset="0" style="stop-color:#FFFFFF"/>
				<stop  offset="0.26" style="stop-color:#FFFFFF;stop-opacity:0.68"/>
				<stop  offset="0.53" style="stop-color:#FFFFFF;stop-opacity:0.39"/>
				<stop  offset="0.75" style="stop-color:#FFFFFF;stop-opacity:0.18"/>
				<stop  offset="0.91" style="stop-color:#FFFFFF;stop-opacity:5.000000e-02"/>
				<stop  offset="1" style="stop-color:#FFFFFF;stop-opacity:0"/>
			</radialGradient>
			<ellipse id="bg-light" class="st1" cx="148.1" cy="126.7" rx="204" ry="64.9"/>
			
				<image style="overflow:visible;enable-background:new    ;" width="600" height="491" id="keyshadow" xlink:href="awareness11.png"  transform="matrix(0.6585 0 0 0.4288 -38.08 103)">
			</image>
			
				<image style="overflow:visible;enable-background:new    ;" width="258" height="68" xlink:href="metal3.png"  transform="matrix(0.69 0 0 0.69 65.04 133.37)">
			</image>
			
				<image style="overflow:visible;enable-background:new    ;" width="1721" height="1721" id="shine1_300x" xlink:href="consideration21.png"  transform="matrix(3.000000e-02 0 0 3.000000e-02 101.8 107.44)">
			</image>
		</g>
		<g id="f2">
			<g>
				<path class="st2" d="M33.9,37.1h3l6.2,14.6h-3.4l-1.3-3.3h-6.2L31,51.7h-3.3L33.9,37.1z M37.3,45.7L35.4,41l-1.9,4.7L37.3,45.7z
					"/>
				<path class="st2" d="M44,46.2L44,46.2c0-3.7,2.4-5.8,5.1-5.8c1.4,0,2.6,0.6,3.5,1.7v-5.5h3.2v15.2h-3.1v-1.6
					c-0.8,1.2-2.1,1.9-3.5,1.9C46.5,52,44,49.9,44,46.2z M52.6,46.2L52.6,46.2c0.2-1.5-0.8-2.9-2.3-3.1c-1.5-0.2-2.9,0.8-3.1,2.3
					c0,0.2,0,0.5,0,0.7l0,0c-0.2,1.5,0.8,2.9,2.3,3.1c1.5,0.2,2.9-0.8,3.1-2.3C52.6,46.7,52.6,46.4,52.6,46.2z"/>
				<path class="st2" d="M58,46.2L58,46.2c0-3.7,2.4-5.8,5.1-5.8c1.4,0,2.6,0.6,3.5,1.7v-5.5h3.2v15.2h-3.2v-1.6
					c-0.8,1.2-2.1,1.9-3.5,1.9C60.5,52,58,49.9,58,46.2z M66.6,46.2L66.6,46.2c0.2-1.5-0.8-2.9-2.3-3.1c-1.5-0.2-2.9,0.8-3.1,2.3
					c0,0.2,0,0.5,0,0.7l0,0c-0.2,1.5,0.8,2.9,2.3,3.1s2.9-0.8,3.1-2.3C66.7,46.7,66.7,46.4,66.6,46.2z"/>
				<path class="st2" d="M78.2,49.6l1.9-2.3c1.2,1.1,2.7,1.7,4.3,1.8c1.3,0,2.1-0.5,2.1-1.4l0,0c0-0.8-0.5-1.2-2.9-1.8
					c-2.9-0.8-4.8-1.6-4.8-4.4l0,0c0-2.6,2.1-4.4,5.1-4.4c2,0,3.9,0.6,5.4,1.8l-1.7,2.4c-1.1-0.8-2.4-1.3-3.8-1.4
					c-1.2,0-1.9,0.6-1.9,1.3l0,0c0,1,0.6,1.3,3.1,1.9c3,0.8,4.6,1.8,4.6,4.4l0,0c0,2.9-2.2,4.5-5.3,4.5C82.1,52,79.9,51.1,78.2,49.6
					z"/>
				<path class="st2" d="M92.6,48.6v-5.3h-1.3v-2.7h1.3v-2.8h3.2v2.8h2.6v2.7h-2.6v4.8c0,0.7,0.3,1.1,1,1.1c0.5,0,1.1-0.1,1.6-0.4
					v2.5c-0.8,0.4-1.6,0.7-2.5,0.6C93.9,51.9,92.6,51.2,92.6,48.6z"/>
				<path class="st2" d="M99.8,46.2L99.8,46.2c0-3.2,2.7-5.8,5.9-5.8c0.1,0,0.1,0,0.2,0c3.2-0.1,5.9,2.4,6,5.6c0,0.1,0,0.1,0,0.2
					l0,0c0,3.3-2.7,6-6,6C102.5,52.2,99.8,49.5,99.8,46.2L99.8,46.2z M108.8,46.2L108.8,46.2c0-1.7-1.3-3-2.9-3.1c0,0,0,0,0,0
					c-1.6,0-2.9,1.2-2.9,2.8c0,0.1,0,0.1,0,0.2l0,0c0,1.7,1.3,3,2.9,3.1c0,0,0,0,0,0c1.6,0,2.8-1.3,2.8-2.9
					C108.8,46.3,108.8,46.3,108.8,46.2L108.8,46.2z"/>
				<path class="st2" d="M114.2,40.6h3.2v2.2c0.5-1.5,1.9-2.6,3.6-2.5v3.3h-0.2c-2.1,0-3.4,1.3-3.4,3.9v4.1h-3.2V40.6z"/>
				<path class="st2" d="M121.7,48.5L121.7,48.5c0-2.4,1.8-3.5,4.5-3.5c0.9,0,1.9,0.1,2.7,0.5v-0.2c0-1.3-0.8-2-2.4-2
					c-1.1,0-2.1,0.2-3.1,0.6l-0.8-2.4c1.4-0.6,2.8-0.9,4.3-0.9c1.4-0.1,2.7,0.3,3.8,1.2c0.9,1,1.3,2.3,1.2,3.5v6.5h-3.1v-1.2
					c-0.9,0.9-2.1,1.4-3.4,1.4C123.4,52,121.7,50.8,121.7,48.5z M128.9,47.8v-0.6c-0.6-0.3-1.3-0.4-2-0.4c-1.3,0-2.2,0.5-2.2,1.5
					l0,0c0,0.8,0.7,1.3,1.7,1.3C127.9,49.8,128.9,49,128.9,47.8z"/>
				<path class="st2" d="M134.7,53.9l1.1-2.4c1.1,0.7,2.4,1,3.8,1c2.2,0,3.2-1,3.2-3V49c-0.8,1.2-2.2,1.8-3.6,1.8
					c-2.7,0.1-4.9-2.1-5-4.8c0-0.1,0-0.3,0-0.4l0,0c-0.2-2.7,1.9-5,4.6-5.2c0.1,0,0.3,0,0.4,0c1.4,0,2.7,0.6,3.6,1.7v-1.5h3.2v8.6
					c0.1,1.6-0.4,3.2-1.4,4.4c-1,1-2.6,1.5-4.8,1.5C137.9,55.1,136.2,54.7,134.7,53.9z M142.7,45.6L142.7,45.6
					c0-1.5-1.2-2.7-2.7-2.7c-1.5,0-2.7,1.2-2.7,2.7l0,0c0,1.4,1.1,2.6,2.5,2.6c0.1,0,0.1,0,0.2,0c1.4,0.1,2.6-1,2.7-2.4
					C142.7,45.8,142.7,45.7,142.7,45.6L142.7,45.6z"/>
				<path class="st2" d="M148.1,46.2L148.1,46.2c-0.1-3.1,2.2-5.7,5.3-5.8c0.1,0,0.1,0,0.2,0c3.7,0,5.4,2.9,5.4,6c0,0.2,0,0.5,0,0.8
					h-7.8c0.2,1.3,1.4,2.3,2.7,2.2c1,0,2-0.4,2.7-1.1l1.8,1.6c-2.1,2.5-5.8,2.8-8.3,0.6C148.9,49.5,148.2,47.9,148.1,46.2
					L148.1,46.2z M156,45.3c0-1.3-1.1-2.3-2.4-2.4c-1.3,0-2.3,1.1-2.4,2.4H156z"/>
				<path class="st2" d="M160.3,53.8c1.4-0.2,2.1-0.9,2-2.1H161v-3.3h3.4v2.8c0,2.7-1.4,3.8-3.9,3.9L160.3,53.8z"/>
				<path class="st2" d="M28.3,67.2L28.3,67.2c-0.1-4.1,3.2-7.5,7.3-7.5c0.1,0,0.2,0,0.3,0c2.1-0.1,4.2,0.7,5.7,2.2l-2,2.3
					c-1-1-2.3-1.6-3.7-1.6c-2.4,0-4.3,2-4.2,4.4c0,0,0,0.1,0,0.1l0,0c-0.1,2.4,1.7,4.4,4.1,4.6c0.1,0,0.1,0,0.2,0
					c1.4,0,2.8-0.6,3.8-1.7l2,2.1c-1.5,1.7-3.7,2.7-6,2.6c-4.1,0-7.4-3.2-7.4-7.3C28.3,67.3,28.3,67.2,28.3,67.2z"/>
				<path class="st2" d="M43.2,68.9L43.2,68.9c0-3.3,2.7-6,6-6c3.3,0,6,2.7,6,6l0,0c0,3.3-2.7,6-6,6C45.9,74.9,43.2,72.2,43.2,68.9z
					 M52.1,68.9L52.1,68.9c0-1.7-1.3-3-2.9-3.1c0,0,0,0,0,0c-1.6,0-2.9,1.2-2.9,2.8c0,0.1,0,0.1,0,0.2l0,0c0,1.7,1.3,3,2.9,3.1
					c0,0,0,0,0,0c1.6,0,2.9-1.2,2.9-2.8C52.2,69,52.2,68.9,52.1,68.9z"/>
				<path class="st2" d="M57.5,63.2h3.2v1.6c0.7-1.1,2-1.8,3.3-1.8c1.3-0.1,2.5,0.6,3.1,1.8c0.9-1.1,2.2-1.8,3.7-1.8
					c2.3,0,3.8,1.4,3.8,4.1v7.2h-3.2v-6.2c0-1.5-0.7-2.3-1.9-2.3s-1.9,0.8-1.9,2.3v6.2h-3.2v-6.2c0-1.5-0.7-2.3-1.8-2.3
					s-1.9,0.8-1.9,2.3v6.2h-3.2V63.2z"/>
				<path class="st2" d="M77.3,63.2h3.2v1.6c0.8-1.2,2.1-1.9,3.5-1.8c2.6,0,5.1,2,5.1,5.8l0,0c0,3.7-2.4,5.8-5.1,5.8
					c-1.4,0-2.6-0.6-3.5-1.7v4.8h-3.2V63.2z M85.9,68.8L85.9,68.8c0.2-1.5-0.8-2.9-2.3-3.1c-1.5-0.2-2.9,0.8-3.1,2.3
					c0,0.2,0,0.5,0,0.7l0,0c-0.2,1.5,0.8,2.9,2.3,3.1c1.5,0.2,2.9-0.8,3.1-2.3C85.9,69.3,85.9,69.1,85.9,68.8z"/>
				<path class="st2" d="M91.3,70.4v-7.2h3.2v6.2c0,1.5,0.7,2.3,1.9,2.3s2-0.8,2-2.3v-6.2h3.2v11.1h-3.2v-1.6
					c-0.7,1.1-2,1.8-3.3,1.8C92.7,74.6,91.3,73,91.3,70.4z"/>
				<path class="st2" d="M104.8,71.2v-5.3h-1.3v-2.7h1.3v-2.8h3.2v2.8h2.6v2.7H108v4.8c0,0.7,0.3,1.1,1,1.1c0.5,0,1.1-0.1,1.6-0.4
					v2.5c-0.8,0.4-1.6,0.7-2.5,0.7C106.1,74.6,104.8,73.8,104.8,71.2z"/>
				<path class="st2" d="M112.1,68.9L112.1,68.9c-0.2-3.1,2.1-5.7,5.2-5.9c0.1,0,0.2,0,0.3,0c3.7,0,5.4,2.9,5.4,6c0,0.2,0,0.5,0,0.8
					h-7.8c0.2,1.3,1.4,2.3,2.7,2.2c1,0,2-0.4,2.7-1.1l1.8,1.6c-2.1,2.5-5.8,2.8-8.3,0.7C112.9,72.1,112.1,70.5,112.1,68.9
					L112.1,68.9z M119.9,67.9c0-1.3-1.1-2.4-2.3-2.4c-1.3,0-2.3,1.1-2.4,2.4H119.9z"/>
				<path class="st2" d="M136.9,59.7h3l6.2,14.6h-3.3l-1.3-3.3h-6.2l-1.3,3.3h-3.3L136.9,59.7z M140.3,68.3l-1.9-4.7l-1.9,4.7H140.3
					z"/>
				<path class="st2" d="M148,63.2h3.2v1.6c0.7-1.1,2-1.8,3.3-1.8c2.4,0,3.8,1.6,3.8,4.1v7.2h-3.2v-6.2c0-1.5-0.7-2.3-1.9-2.3
					s-2,0.8-2,2.3v6.2H148V63.2z"/>
				<path class="st2" d="M160.5,68.8L160.5,68.8c0-3.7,2.4-5.8,5.1-5.8c1.3,0,2.6,0.6,3.4,1.6v-5.5h3.2v15.2H169v-1.6
					c-0.8,1.2-2.1,1.8-3.5,1.8C163,74.6,160.5,72.5,160.5,68.8z M169.1,68.8L169.1,68.8c0.2-1.5-0.8-2.9-2.3-3.1
					c-1.5-0.2-2.9,0.8-3.1,2.3c0,0.2,0,0.5,0,0.7l0,0c-0.2,1.5,0.8,2.9,2.3,3.1c1.5,0.2,2.9-0.8,3.1-2.3
					C169.1,69.3,169.1,69.1,169.1,68.8z"/>
				<path class="st2" d="M28.3,89.8L28.3,89.8c0-4.1,3.3-7.5,7.4-7.5c0.1,0,0.1,0,0.2,0c2.1-0.1,4.1,0.6,5.7,2l-2,2.4
					c-1-1-2.4-1.5-3.8-1.5c-2.4,0.1-4.3,2.1-4.2,4.5l0,0c-0.1,2.4,1.7,4.5,4.1,4.6c0.1,0,0.2,0,0.3,0c1.1,0,2.1-0.3,3-0.9v-2.1h-3.2
					v-2.8h6.3v6.3c-1.7,1.5-3.9,2.3-6.2,2.3c-4,0.2-7.5-2.8-7.7-6.8C28.3,90.2,28.3,90,28.3,89.8z"/>
				<path class="st2" d="M45.1,81.8h3.2V97h-3.2V81.8z"/>
				<path class="st2" d="M50.7,91.5L50.7,91.5c0-3.2,2.7-5.8,5.9-5.8c0.1,0,0.1,0,0.2,0c3.2-0.1,5.9,2.4,6,5.6c0,0.1,0,0.1,0,0.2
					l0,0c0,3.3-2.7,6-6,6C53.3,97.5,50.6,94.8,50.7,91.5L50.7,91.5z M59.6,91.5L59.6,91.5c0-1.7-1.3-3-2.9-3.1c0,0,0,0,0,0
					c-1.6,0-2.9,1.2-2.9,2.8c0,0.1,0,0.1,0,0.2l0,0c0,1.7,1.3,3,2.9,3.1c0,0,0,0,0,0c1.6,0,2.9-1.2,2.9-2.8
					C59.6,91.6,59.6,91.6,59.6,91.5z"/>
				<path class="st2" d="M68.2,95.5V97H65V81.8h3.2v5.6c0.8-1.1,2.1-1.8,3.5-1.8c2.6,0,5.1,2,5.1,5.8l0,0c0,3.7-2.4,5.7-5.1,5.7
					C70.3,97.2,69,96.6,68.2,95.5z M73.6,91.5L73.6,91.5c0.2-1.5-0.8-2.9-2.3-3.1c-1.5-0.2-2.9,0.8-3.1,2.3c0,0.2,0,0.5,0,0.7l0,0
					c-0.2,1.5,0.8,2.9,2.3,3.1c1.5,0.2,2.9-0.8,3.1-2.3C73.6,92,73.6,91.7,73.6,91.5z"/>
				<path class="st2" d="M78.4,93.8L78.4,93.8c0-2.4,1.8-3.6,4.5-3.6c0.9,0,1.8,0.1,2.7,0.5v-0.2c0-1.3-0.8-2-2.4-2
					c-1.1,0-2.1,0.2-3.1,0.6l-0.8-2.4c1.4-0.6,2.8-0.9,4.3-0.9c1.4-0.1,2.7,0.3,3.8,1.2c0.9,1,1.3,2.2,1.2,3.5V97h-3.1v-1.2
					c-0.9,0.9-2.1,1.5-3.4,1.4C80.1,97.2,78.4,96,78.4,93.8z M85.6,93.1v-0.6c-0.6-0.3-1.3-0.4-2-0.4c-1.3,0-2.2,0.5-2.2,1.5l0,0
					c0,0.8,0.7,1.3,1.7,1.3C84.6,95,85.6,94.2,85.6,93.1z"/>
				<path class="st2" d="M91.5,81.8h3.2V97h-3.2V81.8z"/>
				<path class="st2" d="M103.6,89.8L103.6,89.8c-0.1-4.1,3.2-7.4,7.3-7.5c0.1,0,0.2,0,0.3,0c2.1-0.1,4.2,0.7,5.7,2.2l-2,2.3
					c-1-1-2.3-1.6-3.7-1.6c-2.4,0-4.3,2-4.2,4.4c0,0,0,0.1,0,0.1l0,0c-0.1,2.4,1.7,4.4,4.1,4.6c0.1,0,0.1,0,0.2,0
					c1.5,0,2.8-0.6,3.8-1.7l2,2.1c-1.5,1.7-3.7,2.7-6,2.6c-4.1,0.1-7.4-3.2-7.4-7.2C103.5,89.9,103.5,89.9,103.6,89.8z"/>
				<path class="st2" d="M118.5,91.5L118.5,91.5c0-3.3,2.7-6,6-6c3.3,0,6,2.7,6,6l0,0c0,3.2-2.7,5.8-5.9,5.8c0,0-0.1,0-0.1,0
					c-3.2,0.1-5.9-2.4-6-5.6C118.5,91.6,118.5,91.6,118.5,91.5z M127.4,91.5L127.4,91.5c0-1.7-1.3-3-2.9-3.1c0,0,0,0,0,0
					c-1.6,0-2.9,1.2-2.9,2.8c0,0.1,0,0.1,0,0.2l0,0c0,1.7,1.3,3,2.9,3.1c0,0,0,0,0,0c1.6,0,2.9-1.2,2.9-2.8
					C127.4,91.6,127.4,91.6,127.4,91.5z"/>
				<path class="st2" d="M132.8,85.9h3.2v1.6c0.7-1.1,2-1.8,3.3-1.8c2.4,0,3.8,1.6,3.8,4.1V97h-3.2v-6.2c0-1.5-0.7-2.3-1.9-2.3
					s-2,0.8-2,2.3V97h-3.2V85.9z"/>
				<path class="st2" d="M145.8,85.9h3.2v1.6c0.7-1.1,1.9-1.8,3.3-1.8c2.4,0,3.8,1.6,3.8,4.1V97h-3.2v-6.2c0-1.5-0.7-2.3-1.9-2.3
					s-2,0.8-2,2.3V97h-3.2L145.8,85.9z"/>
				<path class="st2" d="M158.2,91.5L158.2,91.5c-0.1-3.1,2.2-5.6,5.3-5.8c0.1,0,0.2,0,0.2,0c3.7,0,5.4,2.9,5.4,6c0,0.2,0,0.5,0,0.8
					h-7.8c0.2,1.3,1.3,2.2,2.7,2.2c1,0,2-0.4,2.7-1.1l1.8,1.6c-2.1,2.5-5.8,2.8-8.3,0.7C158.9,94.8,158.2,93.2,158.2,91.5
					L158.2,91.5z M166,90.6c0-1.3-1.1-2.3-2.4-2.4c-1.3,0-2.3,1.1-2.4,2.4H166z"/>
				<path class="st2" d="M170.9,91.5L170.9,91.5c0-3.2,2.5-5.7,5.6-5.8c0.1,0,0.1,0,0.2,0c1.7-0.1,3.3,0.6,4.4,1.9l-1.9,2.1
					c-0.6-0.8-1.6-1.2-2.5-1.2c-1.6,0.1-2.8,1.4-2.7,3c0,0,0,0,0,0l0,0c-0.1,1.6,1.1,2.9,2.6,3.1c0.1,0,0.1,0,0.2,0
					c1,0,1.9-0.5,2.6-1.2l1.9,1.9c-1.1,1.3-2.8,2.1-4.6,2c-3.1,0.1-5.7-2.4-5.8-5.6C170.9,91.6,170.9,91.5,170.9,91.5z"/>
				<path class="st2" d="M183.9,93.8v-5.3h-1.3v-2.7h1.3V83h3.1v2.8h2.6v2.7H187v4.8c0,0.7,0.3,1.1,1,1.1c0.5,0,1.1-0.1,1.6-0.4v2.5
					c-0.8,0.4-1.6,0.7-2.5,0.6C185.2,97.2,183.9,96.4,183.9,93.8z"/>
				<path class="st2" d="M192,81.8h3.3v2.8H192V81.8z M192.1,85.8h3.2V97h-3.1L192.1,85.8z"/>
				<path class="st2" d="M197.2,85.9h3.4l2.5,7.4l2.5-7.4h3.3l-4.4,11.2h-2.9L197.2,85.9z"/>
				<path class="st2" d="M210.8,81.8h3.3v2.8h-3.3V81.8z M210.9,85.8h3.1V97h-3.2L210.9,85.8z"/>
				<path class="st2" d="M217.5,93.8v-5.3h-1.3v-2.7h1.3V83h3.2v2.8h2.6v2.7h-2.6v4.8c0,0.7,0.3,1.1,1,1.1c0.5,0,1.1-0.1,1.6-0.4
					v2.5c-0.8,0.4-1.6,0.7-2.5,0.6C218.8,97.2,217.5,96.4,217.5,93.8z"/>
				<path class="st2" d="M225.5,99.6l1.1-2.3c0.4,0.3,0.9,0.4,1.4,0.4c0.5,0.1,1-0.3,1.1-0.8l-4.4-11.2h3.4l2.5,7.6l2.4-7.6h3.3
					L232,97.2c-0.9,2.3-1.8,3.1-3.7,3.1C227.3,100.4,226.3,100.1,225.5,99.6z"/>
			</g>
		</g>
		<g id="f3">
			<g id="c3">
				<g>
					<path class="st2" d="M33.1,97.6h4.6l5.1,8.2l5.1-8.2h4.6V117h-4.3v-12.7l-5.5,8.3h-0.1l-5.4-8.2V117h-4.2V97.6z"/>
					<path class="st2" d="M57.2,97.6h14.7v3.8H61.4v3.9h9.2v3.8h-9.2v4.1H72v3.8H57.2V97.6z"/>
					<path class="st2" d="M80.3,101.5h-5.9v-3.9h16.1v3.9h-5.9V117h-4.3V101.5z"/>
					<path class="st2" d="M98,97.4h3.9l8.3,19.6h-4.5l-1.8-4.4h-8.2L94,117h-4.4L98,97.4z M102.5,108.9l-2.6-6.3l-2.6,6.3H102.5z"/>
					<path class="st2" d="M113.2,97.6h4.3v15.6h9.7v3.9h-14L113.2,97.6z"/>
				</g>
				<g>
					<path class="st2" d="M31.5,83.7h2.6c1.2-0.1,2.3,0.7,2.4,1.9c0,0.1,0,0.2,0,0.3l0,0c0,1.2-1,2.3-2.3,2.2c-0.1,0-0.1,0-0.2,0
						h-1.1V90h-1.4V83.7z M34,86.9c0.6,0,1-0.4,1.1-0.9c0,0,0-0.1,0-0.1l0,0c0-0.6-0.4-0.9-1.1-0.9h-1.1v1.9L34,86.9z"/>
					<path class="st2" d="M37.4,87.3v-3.6h1.4v3.6c0,1,0.5,1.6,1.3,1.6s1.4-0.5,1.4-1.5v-3.6h1.4v3.6c0.2,1.4-0.8,2.7-2.2,2.8
						c-0.2,0-0.4,0-0.6,0c-1.4,0.1-2.6-0.9-2.7-2.2C37.4,87.7,37.4,87.5,37.4,87.3z"/>
					<path class="st2" d="M44.3,83.7h2.9c0.7,0,1.3,0.2,1.8,0.6c0.4,0.4,0.6,0.9,0.5,1.4l0,0c0,0.9-0.5,1.7-1.3,2l1.5,2.2h-1.6
						l-1.3-2h-1.1v2h-1.4V83.7z M47.1,86.7c0.7,0,1.1-0.4,1.1-0.9l0,0c0-0.6-0.4-0.9-1.1-0.9h-1.4v1.8L47.1,86.7z"/>
					<path class="st2" d="M50.8,83.7h4.8v1.2h-3.4v1.3h3v1.2h-3v1.3h3.4V90h-4.8L50.8,83.7z"/>
					<path class="st2" d="M59.2,89.1l0.8-1c0.5,0.5,1.2,0.7,1.9,0.8c0.6,0,0.9-0.2,0.9-0.6l0,0c0-0.3-0.2-0.5-1.3-0.8
						c-1.3-0.3-2.1-0.7-2.1-1.9l0,0c0-1.1,1-2,2.1-1.9c0,0,0.1,0,0.1,0c0.8,0,1.7,0.3,2.3,0.8l-0.7,1c-0.5-0.4-1-0.6-1.6-0.6
						c-0.5,0-0.8,0.2-0.8,0.6l0,0c0,0.4,0.3,0.6,1.4,0.8c1.3,0.3,2,0.8,2,1.9l0,0c0,1.2-1,1.9-2.3,1.9C60.9,90,59.9,89.7,59.2,89.1z
						"/>
					<path class="st2" d="M66.7,85h-1.9v-1.3H70V85h-1.9v5h-1.4V85z"/>
					<path class="st2" d="M70.5,86.8L70.5,86.8c0-1.9,1.5-3.3,3.4-3.3c1.8,0,3.3,1.5,3.3,3.3l0,0c0,1.8-1.5,3.3-3.3,3.3
						c0,0-0.1,0-0.1,0c-1.8,0.1-3.3-1.3-3.3-3.1C70.5,86.9,70.5,86.9,70.5,86.8z M75.8,86.8L75.8,86.8c0-1.1-0.8-1.9-1.8-2
						c0,0-0.1,0-0.1,0c-1,0-1.9,0.8-1.9,1.9c0,0,0,0.1,0,0.1l0,0c0,1.1,0.8,1.9,1.8,2c0,0,0.1,0,0.1,0c1,0,1.9-0.8,1.9-1.9
						C75.8,86.9,75.8,86.9,75.8,86.8z"/>
					<path class="st2" d="M78.4,83.7h2.9c0.7,0,1.3,0.2,1.8,0.6c0.4,0.4,0.6,0.9,0.5,1.4l0,0c0,0.9-0.5,1.7-1.3,2l1.5,2.2h-1.6
						l-1.3-2h-1.1v2h-1.4V83.7z M81.2,86.7c0.7,0,1.1-0.4,1.1-0.9l0,0c0-0.6-0.4-0.9-1.1-0.9h-1.4v1.8L81.2,86.7z"/>
					<path class="st2" d="M87.1,83.6h1.3l2.7,6.4h-1.5l-0.6-1.4h-2.7L85.8,90h-1.4L87.1,83.6z M88.6,87.3l-0.8-2l-0.8,2H88.6z"/>
					<path class="st2" d="M91.4,86.8L91.4,86.8c0-1.8,1.4-3.2,3.2-3.3c0,0,0.1,0,0.1,0c0.9,0,1.8,0.3,2.5,0.9l-0.9,1.1
						c-0.4-0.4-1-0.7-1.7-0.6c-1,0-1.8,0.9-1.8,2c0,0,0,0,0,0l0,0c-0.1,1,0.7,1.9,1.8,2c0,0,0.1,0,0.1,0c0.5,0,0.9-0.2,1.3-0.4v-0.9
						h-1.4v-1.2h2.7v2.7c-0.7,0.6-1.7,1-2.7,1c-1.7,0.1-3.2-1.3-3.3-3C91.4,87,91.4,86.9,91.4,86.8z"/>
					<path class="st2" d="M98.7,83.7h4.8v1.2h-3.4v1.3h3v1.2h-3v1.3h3.4V90h-4.8V83.7z"/>
					<path class="st2" d="M107.2,86.8L107.2,86.8c0-1.9,1.5-3.3,3.4-3.3c1.8,0,3.3,1.5,3.3,3.3l0,0c0,1.9-1.5,3.3-3.4,3.3
						C108.7,90.2,107.2,88.7,107.2,86.8z M112.4,86.8L112.4,86.8c0-1.1-0.8-1.9-1.8-2c0,0-0.1,0-0.1,0c-1,0-1.9,0.8-1.9,1.9
						c0,0,0,0.1,0,0.1l0,0c0,1.1,0.8,1.9,1.8,2c0,0,0.1,0,0.1,0c1,0,1.9-0.8,1.9-1.9C112.4,86.9,112.4,86.9,112.4,86.8z"/>
					<path class="st2" d="M115.1,83.7h1.3l3,3.9v-3.9h1.4V90h-1.2l-3.1-4v4h-1.4L115.1,83.7z"/>
				</g>
				<g>
					<path class="st2" d="M39.8,57.6h4L52,77.2h-4.4l-1.8-4.4h-8.2l-1.8,4.4h-4.4L39.8,57.6z M44.2,69.1l-2.6-6.3l-2.6,6.3H44.2z"/>
					<path class="st2" d="M55,57.8h7.6c6.1,0,10.3,4.2,10.3,9.7l0,0c0,5.5-4.2,9.7-10.3,9.7H55V57.8z M62.6,73.4
						c3.1,0.2,5.7-2.1,5.9-5.2c0-0.2,0-0.4,0-0.6v-0.1c0.2-3.1-2.2-5.7-5.3-5.9c-0.2,0-0.4,0-0.6,0h-3.3v11.7H62.6z"/>
					<path class="st2" d="M76.7,57.8h7.6c6.1,0,10.3,4.2,10.3,9.7l0,0c0,5.5-4.2,9.7-10.3,9.7h-7.6V57.8z M84.3,73.4
						c3.1,0.2,5.7-2.1,5.9-5.2c0-0.2,0-0.4,0-0.6v-0.1c0.2-3.1-2.2-5.7-5.3-5.9c-0.2,0-0.4,0-0.6,0H81v11.7H84.3z"/>
				</g>
				<g>
					<path class="st2" d="M31.1,49.8l2.7-3c0.8,1.1,2.1,1.8,3.5,1.9c1.6,0,2.6-1,2.6-3.2V33h4.4v12.7c0.1,1.9-0.5,3.8-1.8,5.2
						c-1.4,1.2-3.2,1.9-5.1,1.8C35,52.8,32.7,51.7,31.1,49.8z"/>
					<path class="st2" d="M48.4,44.1V33h4.3v11c0,3.2,1.6,4.8,4.2,4.8s4.2-1.6,4.2-4.7V33h4.3v11c0,5.9-3.3,8.8-8.5,8.8
						S48.4,49.8,48.4,44.1z"/>
					<path class="st2" d="M68.4,49.6l2.5-3c1.6,1.5,3.6,2.3,5.8,2.4c1.8,0,2.8-0.7,2.8-1.8l0,0c0-1.1-0.7-1.6-3.9-2.5
						c-3.9-1-6.4-2.1-6.4-6l0,0c0-3.5,2.8-5.9,6.8-5.9c2.6,0,5.2,0.8,7.2,2.5L81,38.4c-1.4-1.1-3.2-1.8-5-1.9
						c-1.6,0-2.5,0.8-2.5,1.7l0,0c0,1.3,0.8,1.7,4.2,2.6c3.9,1,6.2,2.4,6.2,5.8v0.1c0,3.9-2.9,6-7.1,6
						C73.7,52.7,70.7,51.6,68.4,49.6z"/>
					<path class="st2" d="M91.6,37h-5.9v-4h16.1v4h-5.9v15.5h-4.3V37z"/>
				</g>
			</g>
			<g id="cta">
				<g>
					<defs>
						<rect id="SVGID_3_" x="25.6" y="125.1" width="100.9" height="32"/>
					</defs>
					<clipPath id="SVGID_4_">
						<use xlink:href="#SVGID_3_"  style="overflow:visible;"/>
					</clipPath>
					<g class="st3">
						<g>
							<defs>
								<rect id="SVGID_5_" x="31.1" y="130.2" width="90" height="21.6"/>
							</defs>
							<clipPath id="SVGID_6_">
								<use xlink:href="#SVGID_5_"  style="overflow:visible;"/>
							</clipPath>
							<g class="st4">
								
									<linearGradient id="cta-glow_1_" gradientUnits="userSpaceOnUse" x1="21.569" y1="119.0844" x2="-71.741" y2="98.1344" gradientTransform="matrix(1 0 0 -1 0 252)">
									<stop  offset="0" style="stop-color:#000000"/>
									<stop  offset="0.24" style="stop-color:#FFFFFF"/>
									<stop  offset="0.46" style="stop-color:#000000"/>
									<stop  offset="0.71" style="stop-color:#FFFFFF"/>
									<stop  offset="1" style="stop-color:#000000"/>
								</linearGradient>
								<rect id="cta-glow" x="-215.9" y="96.2" class="st5" width="366.9" height="97.6"/>
							</g>
						</g>
						<g id="Learn_more">
							<g>
								<path class="st2" d="M49,137.5h1.9v5.1h3.2v1.6H49V137.5z"/>
								<path class="st2" d="M54.7,141.6L54.7,141.6c-0.1-1.4,1-2.7,2.5-2.7c0,0,0.1,0,0.1,0c1.4,0,2.6,1.1,2.6,2.5
									c0,0.1,0,0.2,0,0.4c0,0.1,0,0.2,0,0.4h-3.5c0.1,0.5,0.6,0.9,1.1,0.9c0.4,0,0.9-0.2,1.2-0.5l1,0.8c-0.6,0.7-1.4,1-2.3,1
									c-1.4,0.1-2.7-1-2.8-2.4C54.7,141.8,54.7,141.7,54.7,141.6z M58.2,141.2c-0.1-0.6-0.4-0.9-0.9-0.9s-0.8,0.4-0.9,0.9H58.2z"
									/>
								<path class="st2" d="M60.5,142.7L60.5,142.7c0-1.1,0.8-1.6,2-1.6c0.4,0,0.8,0.1,1.2,0.2v-0.1c0-0.5-0.3-0.8-1-0.8
									c-0.5,0-1,0.1-1.4,0.3l-0.3-1.3c0.7-0.3,1.4-0.4,2.1-0.4c0.7-0.1,1.4,0.2,2,0.6c0.4,0.4,0.6,1,0.6,1.6v3h-1.9v-0.5
									c-0.4,0.4-0.9,0.7-1.5,0.6c-0.9,0.1-1.6-0.5-1.7-1.4C60.5,142.9,60.5,142.8,60.5,142.7z M63.8,142.4v-0.2
									c-0.2-0.1-0.5-0.1-0.7-0.1c-0.5,0-0.8,0.3-0.8,0.6l0,0c0,0.3,0.3,0.6,0.6,0.6c0,0,0,0,0.1,0
									C63.4,143.2,63.8,142.9,63.8,142.4C63.8,142.4,63.8,142.4,63.8,142.4z"/>
								<path class="st2" d="M66.7,139h1.8v1.1c0.2-0.7,0.9-1.1,1.6-1.1v1.9H70c-1,0-1.5,0.5-1.5,1.7v1.6h-1.8V139z"/>
								<path class="st2" d="M71,139h1.8v0.7c0.4-0.5,0.9-0.8,1.6-0.8c0.9,0,1.7,0.7,1.8,1.6c0,0.1,0,0.2,0,0.3v3.4h-1.8v-2.8
									c0-0.6-0.3-0.9-0.7-0.9c-0.4,0-0.8,0.3-0.8,0.8c0,0,0,0.1,0,0.1v2.8H71V139z"/>
								<path class="st2" d="M79.8,137.5h2l1.6,2.6l1.6-2.6h2v6.7h-1.9v-3.9l-1.7,2.6l0,0l-1.7-2.6v3.8h-1.9V137.5z"/>
								<path class="st2" d="M88,141.6L88,141.6c0-1.6,1.3-2.9,2.9-2.9c1.6,0,2.9,1.3,2.9,2.9l0,0c-0.1,1.6-1.5,2.8-3.1,2.6
									C89.2,144.2,88.1,143.1,88,141.6z M92,141.6L92,141.6c0-0.6-0.5-1.2-1.1-1.2c0,0,0,0,0,0c-0.6,0-1.1,0.5-1.1,1.1
									c0,0,0,0,0,0.1l0,0c0,0.6,0.5,1.1,1.1,1.2c0,0,0,0,0,0C91.5,142.8,92,142.3,92,141.6C92,141.7,92,141.7,92,141.6z"/>
								<path class="st2" d="M94.7,139h1.8v1.1c0.2-0.7,0.9-1.1,1.6-1.1v1.9H98c-0.9,0-1.5,0.5-1.5,1.7v1.6h-1.8V139z"/>
								<path class="st2" d="M98.7,141.6L98.7,141.6c-0.1-1.4,1.1-2.7,2.5-2.7c0,0,0.1,0,0.1,0c1.4,0,2.6,1.1,2.6,2.5
									c0,0.1,0,0.3,0,0.4c0,0.1,0,0.2,0,0.4h-3.5c0.1,0.5,0.6,0.9,1.1,0.9c0.4,0,0.9-0.2,1.2-0.5l1,0.8c-0.6,0.7-1.4,1-2.3,1
									c-1.4,0.1-2.7-1-2.8-2.4C98.7,141.8,98.7,141.7,98.7,141.6z M102.2,141.2c0-0.5-0.4-0.9-0.9-0.9c0,0,0,0,0,0
									c-0.5,0-0.8,0.4-0.9,0.9H102.2z"/>
							</g>
						</g>
						<rect id="Rectangle_5685-2" x="31.1" y="130.2" class="st6" width="90" height="21.6"/>
					</g>
				</g>
			</g>
		</g>
	</g>
</g>
<g id="equinix_logo">
	<path id="chevon_shape" class="st2" d="M300.3,210.3h-56.9l-16.6,26.2h73.5L300.3,210.3z"/>
	<g id="Grupo_12756">
		<g id="Group_2">
			<path id="X" class="st7" d="M284.6,227.8l-1.2,1.3l-1.1-1.3h-0.7l1.4,1.6l-1.8,1.9h0.6l1.5-1.6l1.4,1.6h0.7l-1.7-1.9l1.5-1.6
				H284.6z"/>
			<rect id="I" x="278.3" y="227.8" class="st7" width="0.5" height="3.6"/>
			<path id="N" class="st7" d="M274.7,227.8v2.8l-2.5-2.8h-0.5v3.6h0.5v-2.8l2.5,2.8h0.5v-3.6H274.7z"/>
			<rect id="I-2" x="268" y="227.8" class="st7" width="0.5" height="3.6"/>
			<path id="U" class="st7" d="M264.7,230c0,0.5-0.4,1-0.9,1.1h-0.1c-0.5,0-1-0.4-1-0.9v-2.3h-0.5v2.1c0,0.8,0.6,1.5,1.3,1.5
				c0,0,0,0,0,0h0.1c0.8,0.1,1.5-0.5,1.5-1.3c0,0,0,0,0,0c0-0.1,0-0.1,0-0.2v-2.2h-0.5L264.7,230z"/>
			<path id="Q" class="st7" d="M257.6,227.7c-1,0-1.9,0.8-1.9,1.8c0,0,0,0,0,0v0.1l0,0c0,1,0.8,1.9,1.8,1.9c0,0,0,0,0,0h0.1
				c0.3,0,0.6-0.1,0.8-0.2l0.3,0.3h0.6l-0.5-0.6c0.4-0.4,0.7-0.9,0.7-1.5l0,0c0-1-0.8-1.9-1.8-1.9
				C257.7,227.7,257.7,227.7,257.6,227.7L257.6,227.7 M259,229.6c0,0.4-0.2,0.8-0.5,1.1l-0.3-0.3h-0.6l0.5,0.6
				c-0.2,0.1-0.3,0.1-0.5,0.1c-0.8,0-1.4-0.6-1.4-1.4c0,0,0,0,0,0l0,0v-0.1l0,0c-0.1-0.7,0.5-1.4,1.3-1.4h0.1
				C258.4,228.2,259,228.8,259,229.6C259,229.5,259,229.5,259,229.6L259,229.6L259,229.6z"/>
			<path id="E" class="st7" d="M250.6,227.8v3.6h3.2v-0.5h-2.7v-1.2h1.7v-0.5h-1.7v-1h2.6v-0.5L250.6,227.8z"/>
		</g>
		<g id="icon_group">
			<path id="icon" class="st8" d="M268.3,214.8l-1.5,0.5v7.6l-1-0.3v-6.9l-2.9,1v4.9l-1-0.3V217l-1,0.3v4.6l2.9,1v-5.6l1-0.3v6.3
				l2.9,1V216l0.5-0.2l0.5,0.2v8.3l2.9-1V217l1,0.3v5.6l2.9-1v-4.6l-1-0.3v4.2l-1,0.3v-4.9l-2.9-1v6.9l-1,0.3v-7.6L268.3,214.8z"/>
			<path id="R" class="st8" d="M277.4,221.6c0.5,0,0.9-0.4,0.9-0.9l0,0c0-0.5-0.4-0.9-0.9-0.9c-0.5,0-0.9,0.4-0.9,0.9l0,0
				C276.6,221.2,276.9,221.6,277.4,221.6L277.4,221.6 M277.4,221.5c-0.4,0-0.8-0.3-0.8-0.8l0,0c0-0.4,0.3-0.8,0.7-0.8
				c0.4,0,0.8,0.3,0.8,0.7v0.1l0,0C278.2,221.2,277.9,221.5,277.4,221.5C277.4,221.5,277.4,221.5,277.4,221.5L277.4,221.5
				 M277.1,221.2h0.2v-0.3h0.1l0.2,0.3h0.3l-0.2-0.3c0.1,0,0.2-0.2,0.2-0.3c0-0.2-0.1-0.3-0.4-0.3h-0.4L277.1,221.2z M277.3,220.7
				v-0.2h0.2c0.1,0,0.2,0,0.2,0.1s-0.1,0.1-0.2,0.1H277.3z"/>
		</g>
	</g>
</g>
<g id="purestorage_logo">
	<g id="Group-28">
		<g id="Group-3">
			<path id="Fill-1" class="st9" d="M43.4,233.1h-4.6c-1,0-1.9-0.5-2.3-1.4l-3.9-6.8c-0.5-0.8-0.5-1.9,0-2.7l3.9-6.8
				c0.5-0.8,1.4-1.3,2.3-1.4h7.8c1,0,1.8,0.5,2.3,1.4l3.9,6.8c0.5,0.8,0.5,1.9,0,2.7l-1,1.6c-0.5,0.8-1.4,1.3-2.3,1.3h-4.6l2.5-4.3
				l-2.3-4.1h-4.7l-2.3,4.1L43.4,233.1z"/>
		</g>
		<path id="Fill-4" class="st10" d="M60.7,223.6c0.8,0,1.4-0.3,1.4-1.1s-0.5-1.1-1.2-1.1h-0.6v2.2L60.7,223.6z M60.2,228.1h-2.2
			v-8.4h3.1c2,0,3.2,0.9,3.2,2.7c0,2-1.4,2.9-3.4,2.9h-0.6V228.1z"/>
		<path id="Fill-6" class="st10" d="M67.7,219.7v5.4c0,0.9,0.5,1.2,1.2,1.2c0.5,0.1,1-0.3,1.1-0.9c0,0,0-0.1,0-0.1
			c0-0.1,0-0.1,0-0.2v-5.5h2.1v5.7c0,1.7-1.3,2.7-3.3,2.7c-2.2,0-3.2-0.9-3.2-2.9v-5.5L67.7,219.7z"/>
		<path id="Fill-8" class="st10" d="M81.5,219.7H87v1.9h-3.3v1.3h2.9v1.9h-2.9v1.4h3.4v1.9h-5.6V219.7z"/>
		<path id="Fill-10" class="st10" d="M89.1,226.5c0.7,0.4,1.5,0.7,2.3,0.7c0.8,0,1.8-0.3,1.8-1.6c0-1-0.9-1.4-1.9-1.6
			c-1.2-0.3-2.4-0.8-2.4-2.3c0-1.3,1.1-2.4,2.4-2.3c0.1,0,0.2,0,0.2,0c1,0,2,0.4,2.8,1.1l-0.6,0.7c-0.6-0.6-1.4-0.9-2.2-0.9
			c-0.7,0-1.6,0.3-1.6,1.4s0.9,1.3,2,1.6s2.4,0.8,2.4,2.4s-1.1,2.5-2.9,2.5c-1,0-1.9-0.3-2.7-0.8L89.1,226.5z"/>
		<path id="Fill-12" class="st10" d="M101.1,219.7v0.9h-2.5v7.6h-1v-7.6h-2.4v-0.9H101.1z"/>
		<path id="Fill-14" class="st10" d="M105.2,227.2c1.8,0,2.3-1.7,2.3-3.5c0-1.5-0.5-3.6-2.4-3.6s-2.5,1.8-2.5,3.5
			S103.2,227.2,105.2,227.2 M105.1,228.1c-2.1,0-3.4-1.5-3.4-4.4c0-3.2,1.8-4.4,3.5-4.4s3.3,1.1,3.3,4.4
			C108.6,226.6,107.2,228.1,105.1,228.1"/>
		<path id="Fill-16" class="st10" d="M119.1,224.7h2.9l-1.4-4.1L119.1,224.7z M117,228.1l3-8.4h1.2l3,8.4h-1l-0.9-2.6H119l-0.9,2.6
			H117z"/>
		<path id="Fill-18" class="st10" d="M130.7,227.3c-0.8,0.5-1.8,0.8-2.7,0.8c-2.2,0-3.5-1.4-3.5-4.4c0-3.3,1.8-4.4,3.5-4.4
			c1.1,0,2.1,0.5,2.7,1.4l-0.7,0.6c-0.5-0.7-1.2-1.1-2.1-1.1c-1.6,0-2.5,1.3-2.5,3.4c0,2.3,0.8,3.6,2.6,3.6c0.6,0,1.2-0.1,1.7-0.4
			v-2.5h-1.9v-0.9h2.8L130.7,227.3z"/>
		<path id="Fill-20" class="st10" d="M132.6,219.7h4.6v0.9h-3.6v2.8h3.1v0.9h-3.1v3h3.7v0.9h-4.7V219.7z"/>
		<path id="Fill-22" class="st10" d="M112.4,224.2h-1.3v-3.7h1.1c1.4,0,2.5,0.2,2.5,1.8C114.7,223.7,113.8,224.2,112.4,224.2z
			 M114.8,225.4c-0.2-0.4-0.3-0.6-0.6-0.8c1-0.4,1.6-1.4,1.5-2.5c0-1.6-1.1-2.5-2.9-2.5h-2.8v8.4h1V225h1.8c0.5,0,0.8,0.3,1,0.8
			l1.1,2.3h1.1L114.8,225.4z"/>
		<path id="Fill-24" class="st10" d="M75.8,223.6v-2.2h0.6c0.8,0,1.2,0.2,1.2,1.1s-0.5,1.1-1.3,1.1L75.8,223.6z M79.1,225.4
			c-0.1-0.3-0.3-0.5-0.5-0.7c0.8-0.5,1.3-1.4,1.3-2.4c0-1.8-1.2-2.7-3.1-2.7h-3v8.4h2.1v-2.8h0.6c0.3,0,0.5,0.2,0.6,0.5l1,2.3h2.3
			L79.1,225.4z"/>
		<path id="Fill-26" class="st10" d="M139,220.4c0.1,0,0.3,0,0.3-0.2s-0.1-0.2-0.3-0.2h-0.2v0.4H139z M138.8,221.1h-0.2v-1.2h0.4
			c0.3,0,0.4,0.1,0.4,0.3c0,0.2-0.1,0.3-0.3,0.3c0,0,0,0,0,0l0,0l0.4,0.5h-0.2l-0.3-0.5h-0.2L138.8,221.1z M139,219.5
			c-0.5,0-0.9,0.3-0.9,0.8c0,0,0,0,0,0c0,0.5,0.4,0.9,0.8,1c0.5,0,0.9-0.4,1-0.9v-0.1C139.9,220,139.5,219.6,139,219.5L139,219.5z
			 M139,221.5c-0.6,0-1.1-0.5-1.1-1.1c0-0.6,0.5-1.1,1.1-1.1c0.6,0,1.1,0.5,1.1,1.1c0,0,0,0,0,0l0,0
			C140.1,221,139.7,221.5,139,221.5L139,221.5z"/>
	</g>
</g>
</svg>
