<?xml version="1.0" encoding="utf-8"?>
<!-- Generator: Adobe Illustrator 25.1.0, SVG Export Plug-In . SVG Version: 6.00 Build 0)  -->
<svg version="1.1" id="Layer_1" xmlns="http://www.w3.org/2000/svg" xmlns:xlink="http://www.w3.org/1999/xlink" x="0px" y="0px"
	 viewBox="0 0 80 300" style="enable-background:new 0 0 80 300;" xml:space="preserve">
<style type="text/css">
	.st0{fill:url(#SVGID_1_);}
	.st1{fill:#FFFFFF;}
	.st2{clip-path:url(#cta-mask_1_);}
	.st3{fill:#181A19;}
	.st4{clip-path:url(#cta-mask_1_);fill:#FFC100;}
</style>
<g id="bgsil">
	
		<radialGradient id="SVGID_1_" cx="44" cy="173" r="120.096" fx="24.3887" fy="171.0877" gradientTransform="matrix(-4.257945e-02 -0.9991 0.6173 -2.630892e-02 -60.9225 221.5115)" gradientUnits="userSpaceOnUse">
		<stop  offset="0.5" style="stop-color:#000000;stop-opacity:0"/>
		<stop  offset=".9" style="stop-color:#000000"/>
	</radialGradient>
	<rect class="st0" width="80" height="300"/>
</g>
<g id="c3">
	<g id="Infuse__x0D_analytics__x0D_everywhere">
		<g>
			<path class="st1" d="M24.3,31.8v-7.6h0.9v7.6H24.3z"/>
			<path class="st1" d="M31.1,31.8v-3.7c0-0.5-0.1-0.8-0.3-1c-0.2-0.2-0.5-0.3-1-0.3c-0.6,0-1,0.2-1.3,0.5s-0.4,0.9-0.4,1.6v3h-0.9
				v-5.7h0.7L28,27l0,0c0.2-0.3,0.4-0.5,0.7-0.7c0.3-0.2,0.7-0.2,1.1-0.2c0.7,0,1.2,0.2,1.6,0.5c0.3,0.3,0.5,0.9,0.5,1.6v3.7h-0.8
				V31.8z"/>
			<path class="st1" d="M36.3,26.8h-1.5v5.1H34v-5.1h-1v-0.4l1-0.3v-0.3c0-1.4,0.6-2.1,1.8-2.1c0.3,0,0.7,0.1,1.1,0.2l-0.2,0.7
				c-0.3-0.1-0.6-0.2-0.9-0.2c-0.3,0-0.6,0.1-0.7,0.3s-0.2,0.6-0.2,1v0.4h1.5L36.3,26.8L36.3,26.8z"/>
			<path class="st1" d="M38.2,26.1v3.7c0,0.5,0.1,0.8,0.3,1s0.5,0.3,1,0.3c0.6,0,1-0.2,1.3-0.5s0.4-0.9,0.4-1.6v-3h0.9v5.7h-0.7
				l-0.1-0.8l0,0c-0.2,0.3-0.4,0.5-0.7,0.6s-0.7,0.2-1.1,0.2c-0.7,0-1.2-0.2-1.6-0.5c-0.3-0.3-0.5-0.9-0.5-1.6v-3.7h0.8V26.1z"/>
			<path class="st1" d="M47.7,30.3c0,0.5-0.2,0.9-0.6,1.2c-0.4,0.3-1,0.4-1.7,0.4c-0.8,0-1.4-0.1-1.8-0.4v-0.8
				c0.3,0.1,0.6,0.2,0.9,0.3s0.6,0.1,0.9,0.1c0.5,0,0.8-0.1,1-0.2s0.4-0.4,0.4-0.7c0-0.2-0.1-0.4-0.3-0.6s-0.6-0.3-1.1-0.6
				c-0.5-0.2-0.9-0.4-1.1-0.5s-0.4-0.3-0.5-0.5s-0.2-0.4-0.2-0.7c0-0.5,0.2-0.8,0.6-1.1c0.4-0.3,0.9-0.4,1.6-0.4
				c0.6,0,1.2,0.1,1.8,0.4l-0.3,0.7c-0.6-0.2-1.1-0.4-1.6-0.4c-0.4,0-0.7,0.1-0.9,0.2s-0.3,0.3-0.3,0.5s0,0.3,0.1,0.4
				s0.2,0.2,0.4,0.3c0.2,0.1,0.5,0.2,1,0.4c0.7,0.2,1.1,0.5,1.4,0.7C47.5,29.6,47.7,29.9,47.7,30.3z"/>
			<path class="st1" d="M51.5,31.9c-0.8,0-1.5-0.3-2-0.8s-0.7-1.2-0.7-2.1s0.2-1.7,0.7-2.2s1.1-0.8,1.8-0.8s1.3,0.2,1.7,0.7
				s0.6,1.1,0.6,1.9v0.5h-3.9c0,0.7,0.2,1.2,0.5,1.5s0.8,0.5,1.4,0.5c0.6,0,1.2-0.1,1.8-0.4v0.8c-0.3,0.1-0.6,0.2-0.9,0.3
				C52.2,31.9,51.9,31.9,51.5,31.9z M51.3,26.7c-0.5,0-0.8,0.1-1.1,0.4s-0.4,0.7-0.5,1.2h3c0-0.5-0.1-1-0.4-1.3
				C52.1,26.9,51.7,26.7,51.3,26.7z"/>
			<path class="st1" d="M21.5,46.7l-0.2-0.8l0,0c-0.3,0.4-0.6,0.6-0.9,0.7c-0.3,0.1-0.6,0.2-1.1,0.2c-0.6,0-1-0.1-1.3-0.4
				s-0.5-0.7-0.5-1.2c0-1.2,0.9-1.8,2.8-1.8h1V43c0-0.4-0.1-0.8-0.3-1s-0.5-0.3-0.9-0.3c-0.5,0-1,0.1-1.6,0.4l-0.3-0.7
				c0.3-0.2,0.6-0.3,0.9-0.4c0.3-0.1,0.7-0.1,1-0.1c0.7,0,1.2,0.2,1.5,0.5s0.5,0.8,0.5,1.5v3.9h-0.6V46.7z M19.6,46.1
				c0.5,0,1-0.1,1.3-0.4c0.3-0.3,0.5-0.7,0.5-1.2V44h-0.9c-0.7,0-1.2,0.1-1.5,0.3s-0.5,0.5-0.5,0.9c0,0.3,0.1,0.6,0.3,0.7
				S19.2,46.1,19.6,46.1z"/>
			<path class="st1" d="M27.9,46.7V43c0-0.5-0.1-0.8-0.3-1c-0.2-0.2-0.5-0.3-1-0.3c-0.6,0-1,0.2-1.3,0.5s-0.4,0.9-0.4,1.6v3H24V41
				h0.7l0.1,0.8l0,0c0.2-0.3,0.4-0.5,0.7-0.7c0.3-0.2,0.7-0.2,1.1-0.2c0.7,0,1.2,0.2,1.6,0.5c0.3,0.3,0.5,0.9,0.5,1.6v3.7
				C28.7,46.7,27.9,46.7,27.9,46.7z"/>
			<path class="st1" d="M34.1,46.7l-0.2-0.8l0,0c-0.3,0.4-0.6,0.6-0.9,0.7c-0.3,0.1-0.6,0.2-1.1,0.2c-0.6,0-1-0.1-1.3-0.4
				s-0.5-0.7-0.5-1.2c0-1.2,0.9-1.8,2.8-1.8h1V43c0-0.4-0.1-0.8-0.3-1s-0.5-0.3-0.9-0.3c-0.5,0-1,0.1-1.6,0.4l-0.3-0.7
				c0.3-0.2,0.6-0.3,0.9-0.4c0.3-0.1,0.7-0.1,1-0.1c0.7,0,1.2,0.2,1.5,0.5s0.5,0.8,0.5,1.5v3.9h-0.6V46.7z M32.1,46.1
				c0.5,0,1-0.1,1.3-0.4c0.3-0.3,0.5-0.7,0.5-1.2V44H33c-0.7,0-1.2,0.1-1.5,0.3S31,44.8,31,45.2c0,0.3,0.1,0.6,0.3,0.7
				S31.8,46.1,32.1,46.1z"/>
			<path class="st1" d="M37.4,46.7h-0.9v-8.1h0.9V46.7z"/>
			<path class="st1" d="M38.3,41h0.9l1.3,3.3c0.3,0.7,0.4,1.3,0.5,1.6l0,0c0-0.2,0.1-0.5,0.3-0.9s0.6-1.8,1.4-4h0.9l-2.5,6.5
				c-0.2,0.6-0.5,1.1-0.9,1.4c-0.3,0.3-0.7,0.4-1.2,0.4c-0.3,0-0.5,0-0.8-0.1v-0.7c0.2,0,0.4,0.1,0.6,0.1c0.6,0,1-0.3,1.3-1l0.3-0.8
				L38.3,41z"/>
			<path class="st1" d="M46.4,46.1c0.2,0,0.3,0,0.4,0c0.1,0,0.3,0,0.3-0.1v0.7c-0.1,0-0.2,0.1-0.4,0.1s-0.3,0-0.5,0
				c-1.1,0-1.7-0.6-1.7-1.8v-3.4h-0.8v-0.4l0.8-0.4l0.4-1.2h0.5V41h1.7v0.7h-1.7V45c0,0.3,0.1,0.6,0.2,0.8
				C45.9,46,46.2,46.1,46.4,46.1z"/>
			<path class="st1" d="M48.3,39.4c0-0.2,0-0.3,0.1-0.4c0.1-0.1,0.2-0.1,0.4-0.1c0.1,0,0.3,0,0.4,0.1c0.1,0.1,0.2,0.2,0.2,0.4
				s-0.1,0.3-0.2,0.4C49.1,40,48.9,40,48.8,40c-0.1,0-0.3,0-0.4-0.1C48.3,39.8,48.3,39.6,48.3,39.4z M49.2,46.7h-0.9V41h0.9V46.7z"
				/>
			<path class="st1" d="M53.4,46.8c-0.8,0-1.5-0.3-1.9-0.8c-0.5-0.5-0.7-1.2-0.7-2.2s0.2-1.7,0.7-2.2s1.1-0.8,2-0.8
				c0.3,0,0.6,0,0.8,0.1c0.3,0.1,0.5,0.1,0.6,0.2l-0.3,0.7c-0.2-0.1-0.4-0.1-0.6-0.2c-0.2-0.1-0.4-0.1-0.6-0.1
				c-1.2,0-1.7,0.7-1.7,2.2c0,0.7,0.1,1.2,0.4,1.6c0.3,0.4,0.7,0.6,1.3,0.6c0.5,0,1-0.1,1.5-0.3v0.8C54.4,46.7,53.9,46.8,53.4,46.8z
				"/>
			<path class="st1" d="M59.9,45.1c0,0.5-0.2,0.9-0.6,1.2c-0.4,0.3-1,0.4-1.7,0.4c-0.8,0-1.4-0.1-1.8-0.4v-0.8
				c0.3,0.1,0.6,0.2,0.9,0.3s0.6,0.1,0.9,0.1c0.5,0,0.8-0.1,1-0.2S59,45.3,59,45c0-0.2-0.1-0.4-0.3-0.6c-0.2-0.2-0.6-0.3-1.1-0.6
				c-0.5-0.2-0.9-0.4-1.1-0.5S56.1,43,56,42.8s-0.2-0.4-0.2-0.7c0-0.5,0.2-0.8,0.6-1.1c0.4-0.3,0.9-0.4,1.6-0.4
				c0.6,0,1.2,0.1,1.8,0.4l-0.4,1c-0.6-0.2-1.1-0.4-1.6-0.4c-0.4,0-0.7,0.1-0.9,0.2s-0.3,0.3-0.3,0.5s0,0.3,0.1,0.4s0.2,0.2,0.4,0.3
				s0.5,0.2,1,0.4c0.7,0.2,1.1,0.5,1.4,0.7C59.7,44.4,59.9,44.8,59.9,45.1z"/>
			<path class="st1" d="M14.3,61.7c-0.8,0-1.5-0.3-2-0.8s-0.7-1.2-0.7-2.1c0-0.9,0.2-1.7,0.7-2.2s1.1-0.8,1.8-0.8s1.3,0.2,1.7,0.7
				c0.4,0.5,0.6,1.1,0.6,1.9v0.5h-3.9c0,0.7,0.2,1.2,0.5,1.5s0.8,0.5,1.4,0.5c0.6,0,1.2-0.1,1.8-0.4v0.8c-0.3,0.1-0.6,0.2-0.9,0.3
				C15,61.6,14.6,61.7,14.3,61.7z M14,56.5c-0.5,0-0.8,0.1-1.1,0.4c-0.3,0.3-0.4,0.7-0.5,1.2h3c0-0.5-0.1-1-0.4-1.3
				C14.8,56.6,14.5,56.5,14,56.5z"/>
			<path class="st1" d="M19.1,61.6l-2.2-5.7h0.9l1.2,3.4c0.3,0.8,0.4,1.3,0.5,1.5l0,0c0-0.2,0.2-0.6,0.4-1.1
				c0.2-0.6,0.7-1.8,1.4-3.8h0.9L20,61.6C20,61.6,19.1,61.6,19.1,61.6z"/>
			<path class="st1" d="M25.6,61.7c-0.8,0-1.5-0.3-2-0.8s-0.7-1.2-0.7-2.1c0-0.9,0.2-1.7,0.7-2.2s1.1-0.8,1.8-0.8
				c0.7,0,1.3,0.2,1.7,0.7c0.4,0.5,0.6,1.1,0.6,1.9v0.5h-3.9c0,0.7,0.2,1.2,0.5,1.5s0.8,0.5,1.4,0.5s1.2-0.1,1.8-0.4v0.8
				c-0.3,0.1-0.6,0.2-0.9,0.3C26.3,61.6,26,61.7,25.6,61.7z M25.4,56.5c-0.5,0-0.8,0.1-1.1,0.4c-0.3,0.3-0.4,0.7-0.5,1.2h3
				c0-0.5-0.1-1-0.4-1.3C26.2,56.6,25.8,56.5,25.4,56.5z"/>
			<path class="st1" d="M31.8,55.7c0.3,0,0.5,0,0.7,0.1l-0.1,0.8c-0.2-0.1-0.4-0.1-0.6-0.1c-0.5,0-0.9,0.2-1.2,0.6
				c-0.3,0.4-0.5,0.8-0.5,1.4v3.1h-0.9v-5.7h0.7L30,57l0,0c0.2-0.4,0.5-0.7,0.8-0.9C31.1,55.8,31.5,55.7,31.8,55.7z"/>
			<path class="st1" d="M32.7,55.8h0.9l1.3,3.3c0.3,0.7,0.4,1.3,0.5,1.6l0,0c0-0.2,0.1-0.5,0.3-0.9s0.6-1.8,1.4-4H38l-2.5,6.5
				c-0.2,0.6-0.5,1.1-0.9,1.4c-0.3,0.3-0.7,0.4-1.2,0.4c-0.3,0-0.5,0-0.8-0.1v-0.7c0.2,0,0.4,0.1,0.6,0.1c0.6,0,1-0.3,1.3-1l0.3-0.8
				L32.7,55.8z"/>
			<path class="st1" d="M43.6,61.6l-1.1-3.4c-0.1-0.2-0.2-0.7-0.4-1.4l0,0c-0.1,0.6-0.3,1.1-0.4,1.4l-1.1,3.3h-1L38,55.8h0.9
				c0.4,1.4,0.7,2.5,0.8,3.3s0.3,1.3,0.3,1.5l0,0c0-0.2,0.1-0.5,0.2-0.8c0.1-0.3,0.2-0.6,0.2-0.8l1.1-3.3h0.9l1,3.3
				c0.2,0.6,0.3,1.1,0.4,1.5l0,0c0-0.1,0.1-0.3,0.1-0.6s0.4-1.7,1.1-4.2h0.9l-1.6,5.7h-0.7V61.6z"/>
			<path class="st1" d="M51.2,61.6v-3.7c0-0.5-0.1-0.8-0.3-1s-0.5-0.3-1-0.3c-0.6,0-1,0.2-1.3,0.5s-0.4,0.9-0.4,1.6v3h-0.9v-8.1h0.9
				v2.5c0,0.3,0,0.5,0,0.7h0.1c0.2-0.3,0.4-0.5,0.7-0.7s0.7-0.2,1.1-0.2c0.7,0,1.2,0.2,1.6,0.5c0.4,0.3,0.5,0.9,0.5,1.6v3.7
				L51.2,61.6L51.2,61.6z"/>
			<path class="st1" d="M56.3,61.7c-0.8,0-1.5-0.3-2-0.8s-0.7-1.2-0.7-2.1c0-0.9,0.2-1.7,0.7-2.2s1.1-0.8,1.8-0.8s1.3,0.2,1.7,0.7
				s0.6,1.1,0.6,1.9v0.5h-3.9c0,0.7,0.2,1.2,0.5,1.5s0.8,0.5,1.4,0.5c0.6,0,1.2-0.1,1.8-0.4v0.8c-0.3,0.1-0.6,0.2-0.9,0.3
				C57,61.6,56.7,61.7,56.3,61.7z M56,56.5c-0.5,0-0.8,0.1-1.1,0.4c-0.3,0.3-0.4,0.7-0.5,1.2h3c0-0.5-0.1-1-0.4-1.3
				C56.8,56.6,56.5,56.5,56,56.5z"/>
			<path class="st1" d="M62.5,55.7c0.3,0,0.5,0,0.7,0.1L63,56.6c-0.2-0.1-0.4-0.1-0.6-0.1c-0.5,0-0.9,0.2-1.2,0.6
				c-0.3,0.4-0.5,0.8-0.5,1.4v3.1h-0.9v-5.7h0.7l0.1,1.1l0,0c0.2-0.4,0.5-0.7,0.8-0.9S62.1,55.7,62.5,55.7z"/>
			<path class="st1" d="M66.6,61.7c-0.8,0-1.5-0.3-2-0.8s-0.7-1.2-0.7-2.1c0-0.9,0.2-1.7,0.7-2.2s1.1-0.8,1.8-0.8
				c0.7,0,1.3,0.2,1.7,0.7c0.4,0.5,0.6,1.1,0.6,1.9v0.5h-3.9c0,0.7,0.2,1.2,0.5,1.5s0.8,0.5,1.4,0.5s1.2-0.1,1.8-0.4v0.8
				c-0.3,0.1-0.6,0.2-0.9,0.3C67.4,61.6,67,61.7,66.6,61.7z M66.4,56.5c-0.5,0-0.8,0.1-1.1,0.4c-0.3,0.3-0.4,0.7-0.5,1.2h3
				c0-0.5-0.1-1-0.4-1.3C67.2,56.6,66.9,56.5,66.4,56.5z"/>
		</g>
	</g>
</g>
<g id="logo_1_">
	<g id="Sisense_x5F_logo_xA0_Image_1_">
		
			<image style="overflow:visible;enable-background:new    ;" width="108" height="28" id="Sisense_x5F_logo_xA0_Image" xlink:href="60056A1A8078A72B.png"  transform="matrix(0.5 0 0 0.5 13 273)">
		</image>
	</g>
</g>
<g id="cta_1_">
	<defs>
		<rect id="cta-mask" x="8.5" y="71.7" width="63.1" height="19.2"/>
	</defs>
	<clipPath id="cta-mask_1_">
		<rect id="cta-mask" x="8.5" y="71.7" width="63.1" height="19.2"/>
	</clipPath>
	<g id="Learn_more" class="st2">
		<g>
			<path class="st3" d="M20.6,83.1V78h0.8v4.4h2.1v0.7H20.6z"/>
			<path class="st3" d="M26,83.1c-0.6,0-1.1-0.2-1.4-0.5s-0.5-0.8-0.5-1.4s0.2-1.1,0.5-1.5s0.7-0.5,1.3-0.5c0.5,0,0.9,0.2,1.2,0.5
				c0.3,0.3,0.4,0.7,0.4,1.3v0.4h-2.6c0,0.4,0.1,0.7,0.3,0.9s0.5,0.3,0.8,0.3c0.2,0,0.4,0,0.6-0.1s0.4-0.1,0.6-0.2V83
				c-0.2,0.1-0.4,0.2-0.6,0.2C26.5,83.1,26.3,83.1,26,83.1z M25.9,79.8c-0.3,0-0.5,0.1-0.6,0.2c-0.2,0.2-0.2,0.4-0.3,0.7h1.7
				c0-0.3-0.1-0.6-0.2-0.7C26.3,79.9,26.1,79.8,25.9,79.8z"/>
			<path class="st3" d="M30.8,83.1l-0.2-0.5l0,0c-0.2,0.2-0.4,0.4-0.6,0.5s-0.4,0.1-0.7,0.1c-0.4,0-0.7-0.1-0.9-0.3
				c-0.2-0.2-0.3-0.5-0.3-0.9s0.1-0.7,0.4-0.9c0.3-0.2,0.7-0.3,1.3-0.3h0.7v-0.2c0-0.2-0.1-0.4-0.2-0.6c-0.1-0.1-0.3-0.2-0.5-0.2
				s-0.4,0-0.6,0.1s-0.4,0.1-0.5,0.2l-0.3-0.6c0.2-0.1,0.4-0.2,0.7-0.2c0.2-0.1,0.5-0.1,0.7-0.1c0.5,0,0.9,0.1,1.1,0.3
				c0.2,0.2,0.4,0.5,0.4,1v2.6H30.8z M29.6,82.5c0.3,0,0.5-0.1,0.7-0.2c0.2-0.2,0.3-0.4,0.3-0.7v-0.3h-0.5c-0.4,0-0.7,0.1-0.8,0.2
				C29.1,81.6,29,81.7,29,82c0,0.2,0.1,0.3,0.2,0.4C29.3,82.5,29.4,82.5,29.6,82.5z"/>
			<path class="st3" d="M34.5,79.2c0.2,0,0.3,0,0.4,0L34.8,80c-0.1,0-0.2,0-0.4,0c-0.3,0-0.6,0.1-0.8,0.3c-0.2,0.2-0.3,0.5-0.3,0.8
				v2h-0.8v-3.8h0.6l0.1,0.7l0,0c0.1-0.2,0.3-0.4,0.5-0.5C34,79.2,34.3,79.2,34.5,79.2z"/>
			<path class="st3" d="M39,83.1h-0.8v-2.4c0-0.3-0.1-0.5-0.2-0.7c-0.1-0.1-0.3-0.2-0.6-0.2s-0.6,0.1-0.8,0.3
				c-0.2,0.2-0.2,0.5-0.2,1V83h-0.8v-3.8h0.6l0.1,0.5l0,0c0.1-0.2,0.3-0.3,0.5-0.4s0.4-0.1,0.7-0.1c0.9,0,1.4,0.5,1.4,1.4L39,83.1
				L39,83.1z"/>
			<path class="st3" d="M44.3,83.1l-1.5-4.2l0,0c0,0.6,0.1,1.2,0.1,1.8v2.5h-0.8V78h1.2l1.4,4l0,0l1.5-4h1.2v5.1h-0.8v-2.5
				c0-0.3,0-0.6,0-1s0-0.7,0-0.7l0,0L45,83.1H44.3z"/>
			<path class="st3" d="M52,81.1c0,0.6-0.2,1.1-0.5,1.5s-0.8,0.5-1.3,0.5c-0.4,0-0.7-0.1-1-0.2c-0.3-0.2-0.5-0.4-0.6-0.7
				c-0.1-0.3-0.2-0.7-0.2-1.1c0-0.6,0.2-1.1,0.5-1.5c0.3-0.3,0.8-0.5,1.4-0.5c0.6,0,1,0.2,1.3,0.5C51.8,80.1,52,80.5,52,81.1z
				 M49.2,81.1c0,0.9,0.3,1.3,1,1.3c0.6,0,1-0.4,1-1.3s-0.3-1.3-1-1.3c-0.3,0-0.6,0.1-0.7,0.3C49.2,80.4,49.2,80.7,49.2,81.1z"/>
			<path class="st3" d="M54.8,79.2c0.2,0,0.3,0,0.4,0V80c-0.1,0-0.2,0-0.4,0c-0.3,0-0.6,0.1-0.8,0.3c-0.2,0.2-0.3,0.5-0.3,0.8v2
				h-0.8v-3.8h0.6l0.1,0.7l0,0c0.1-0.2,0.3-0.4,0.5-0.5C54.4,79.2,54.6,79.2,54.8,79.2z"/>
			<path class="st3" d="M57.6,83.1c-0.6,0-1.1-0.2-1.4-0.5s-0.5-0.8-0.5-1.4s0.2-1.1,0.5-1.5s0.7-0.5,1.3-0.5c0.5,0,0.9,0.2,1.2,0.5
				s0.4,0.7,0.4,1.3v0.4h-2.6c0,0.4,0.1,0.7,0.3,0.9c0.2,0.2,0.5,0.3,0.8,0.3c0.2,0,0.4,0,0.6-0.1s0.4-0.1,0.6-0.2V83
				c-0.2,0.1-0.4,0.2-0.6,0.2C58.1,83.1,57.9,83.1,57.6,83.1z M57.5,79.8c-0.3,0-0.5,0.1-0.6,0.2s-0.2,0.4-0.3,0.7h1.7
				c0-0.3-0.1-0.6-0.2-0.7C57.9,79.9,57.7,79.8,57.5,79.8z"/>
		</g>
	</g>
	<path id="cta-bg" class="st4" d="M9.8,73.9h60.6c0.5,0,1,0.4,1,1l0,0V88c0,0.5-0.4,1-1,1l0,0H9.8c-0.5,0-1-0.4-1-1l0,0V74.9
		C8.8,74.3,9.2,73.9,9.8,73.9z"/>
</g>
<g id="c1">
	<g id="Put_data__to_work__wherever__you_need_it_1_">
		<g id="Put_data__to_work__wherever__you_need_it">
			<path class="st1" d="M23.7,26.4c0,0.8-0.3,1.4-0.8,1.8s-1.3,0.6-2.3,0.6h-0.9v3h-0.9v-7.6h2C22.8,24.2,23.7,24.9,23.7,26.4z
				 M19.8,28.1h0.8c0.8,0,1.4-0.1,1.7-0.4c0.4-0.3,0.5-0.7,0.5-1.2s-0.2-0.9-0.5-1.1C22,25.1,21.5,25,20.8,25h-1V28.1z"/>
			<path class="st1" d="M26,26.1v3.7c0,0.5,0.1,0.8,0.3,1c0.2,0.2,0.5,0.3,1,0.3c0.6,0,1-0.2,1.3-0.5S29,29.7,29,29v-3h0.9v5.7h-0.7
				l-0.1-0.8l0,0c-0.2,0.3-0.4,0.5-0.7,0.6c-0.3,0.1-0.7,0.2-1.1,0.2c-0.7,0-1.2-0.2-1.6-0.5c-0.3-0.3-0.5-0.9-0.5-1.6v-3.7H26V26.1
				z"/>
			<path class="st1" d="M33.6,31.2c0.2,0,0.3,0,0.4,0c0.1,0,0.3,0,0.3-0.1v0.7c-0.1,0-0.2,0.1-0.4,0.1s-0.3,0-0.5,0
				c-1.1,0-1.7-0.6-1.7-1.8v-3.4H31v-0.4l0.8-0.4l0.4-1.2h0.5V26h1.7v0.7h-1.7v3.4c0,0.3,0.1,0.6,0.2,0.8S33.3,31.2,33.6,31.2z"/>
			<path class="st1" d="M42.2,31.1L42.2,31.1c-0.4,0.6-1,0.9-1.8,0.9c-0.7,0-1.3-0.3-1.7-0.8C38.2,30.7,38,29.9,38,29
				s0.2-1.7,0.6-2.2c0.4-0.5,1-0.8,1.7-0.8c0.8,0,1.4,0.3,1.8,0.8h0.1v-0.4V26v-2.3H43v8.1h-0.7L42.2,31.1z M40.5,31.2
				c0.6,0,1-0.2,1.3-0.5s0.4-0.8,0.4-1.6V29c0-0.8-0.1-1.4-0.4-1.7s-0.7-0.5-1.3-0.5c-0.5,0-0.9,0.2-1.2,0.6s-0.4,1-0.4,1.7
				s0.1,1.3,0.4,1.7C39.6,31,40,31.2,40.5,31.2z"/>
			<path class="st1" d="M48.4,31.8L48.2,31l0,0c-0.3,0.4-0.6,0.6-0.9,0.7c-0.3,0.1-0.6,0.2-1.1,0.2c-0.6,0-1-0.1-1.3-0.4
				s-0.5-0.7-0.5-1.2c0-1.2,0.9-1.8,2.8-1.8h1v-0.4c0-0.4-0.1-0.8-0.3-1s-0.5-0.3-0.9-0.3c-0.5,0-1,0.1-1.6,0.4l-0.3-0.7
				c0.3-0.2,0.6-0.3,0.9-0.4c0.3-0.1,0.7-0.1,1-0.1c0.7,0,1.2,0.2,1.5,0.5S49,27.3,49,28v3.9h-0.6V31.8z M46.4,31.2
				c0.5,0,1-0.1,1.3-0.4s0.5-0.7,0.5-1.2V29h-0.9c-0.7,0-1.2,0.1-1.5,0.3s-0.5,0.5-0.5,0.9c0,0.3,0.1,0.6,0.3,0.7
				C45.8,31.1,46.1,31.2,46.4,31.2z"/>
			<path class="st1" d="M52.7,31.2c0.2,0,0.3,0,0.4,0c0.1,0,0.3,0,0.3-0.1v0.7c-0.1,0-0.2,0.1-0.4,0.1s-0.3,0-0.5,0
				c-1.1,0-1.7-0.6-1.7-1.8v-3.4H50v-0.4l0.8-0.4l0.4-1.2h0.5V26h1.7v0.7h-1.7v3.4c0,0.3,0.1,0.6,0.2,0.8
				C52.2,31.1,52.4,31.2,52.7,31.2z"/>
			<path class="st1" d="M58.1,31.8L57.9,31l0,0c-0.3,0.4-0.6,0.6-0.9,0.7c-0.3,0.1-0.6,0.2-1.1,0.2c-0.6,0-1-0.1-1.3-0.4
				s-0.5-0.7-0.5-1.2c0-1.2,0.9-1.8,2.8-1.8h1v-0.4c0-0.4-0.1-0.8-0.3-1s-0.5-0.3-0.9-0.3c-0.5,0-1,0.1-1.6,0.4l-0.3-0.7
				c0.3-0.2,0.6-0.3,0.9-0.4c0.3-0.1,0.7-0.1,1-0.1c0.7,0,1.2,0.2,1.5,0.5s0.5,0.8,0.5,1.5v3.9h-0.6V31.8z M56.2,31.2
				c0.5,0,1-0.1,1.3-0.4s0.5-0.7,0.5-1.2V29h-0.9c-0.7,0-1.2,0.1-1.5,0.3s-0.5,0.5-0.5,0.9c0,0.3,0.1,0.6,0.3,0.7
				C55.6,31.1,55.8,31.2,56.2,31.2z"/>
			<path class="st1" d="M22.6,46.1c0.2,0,0.3,0,0.4,0s0.3,0,0.3-0.1v0.7c-0.1,0-0.2,0.1-0.4,0.1c-0.2,0-0.3,0-0.5,0
				c-1.1,0-1.7-0.6-1.7-1.8v-3.4H20v-0.4l0.8-0.4l0.4-1.2h0.5V41h1.7v0.7h-1.7V45c0,0.3,0.1,0.6,0.2,0.8S22.3,46.1,22.6,46.1z"/>
			<path class="st1" d="M29.5,43.8c0,0.9-0.2,1.7-0.7,2.2s-1.1,0.8-1.9,0.8c-0.5,0-1-0.1-1.4-0.4c-0.4-0.2-0.7-0.6-0.9-1
				c-0.2-0.4-0.3-1-0.3-1.6c0-0.9,0.2-1.7,0.7-2.2s1.1-0.8,1.9-0.8s1.4,0.3,1.9,0.8C29.2,42.2,29.5,42.9,29.5,43.8z M25.1,43.8
				c0,0.7,0.1,1.3,0.4,1.7s0.7,0.6,1.3,0.6s1-0.2,1.3-0.6s0.4-0.9,0.4-1.7c0-0.7-0.1-1.3-0.4-1.7s-0.7-0.6-1.3-0.6
				c-0.6,0-1,0.2-1.3,0.6C25.2,42.5,25.1,43.1,25.1,43.8z"/>
			<path class="st1" d="M38.4,46.7l-1.1-3.4c-0.1-0.2-0.2-0.7-0.4-1.4l0,0c-0.1,0.6-0.3,1.1-0.4,1.4l-1.1,3.3h-1L33,41h0.9
				c0.4,1.4,0.7,2.5,0.8,3.3s0.3,1.3,0.3,1.5l0,0c0-0.2,0.1-0.5,0.2-0.8c0.1-0.3,0.2-0.6,0.2-0.8l1.1-3.3h0.9l1,3.3
				c0.2,0.6,0.3,1.1,0.4,1.5l0,0c0-0.1,0.1-0.3,0.1-0.6s0.4-1.7,1.1-4.2h0.9l-1.6,5.7L38.4,46.7L38.4,46.7z"/>
			<path class="st1" d="M47,43.8c0,0.9-0.2,1.7-0.7,2.2s-1.1,0.8-1.9,0.8c-0.5,0-1-0.1-1.4-0.4c-0.4-0.2-0.7-0.6-0.9-1
				s-0.3-1-0.3-1.6c0-0.9,0.2-1.7,0.7-2.2s1.1-0.8,1.9-0.8c0.8,0,1.4,0.3,1.9,0.8C46.8,42.2,47,42.9,47,43.8z M42.7,43.8
				c0,0.7,0.1,1.3,0.4,1.7c0.3,0.4,0.7,0.6,1.3,0.6s1-0.2,1.3-0.6s0.4-0.9,0.4-1.7c0-0.7-0.1-1.3-0.4-1.7s-0.7-0.6-1.3-0.6
				s-1,0.2-1.3,0.6C42.8,42.5,42.7,43.1,42.7,43.8z"/>
			<path class="st1" d="M51.2,40.9c0.3,0,0.5,0,0.7,0.1l-0.1,0.8c-0.2-0.1-0.4-0.1-0.6-0.1c-0.5,0-0.9,0.2-1.2,0.6
				c-0.3,0.4-0.5,0.8-0.5,1.4v3.1h-0.9V41h0.7l0.1,1.1l0,0c0.2-0.4,0.5-0.7,0.8-0.9S50.8,40.9,51.2,40.9z"/>
			<path class="st1" d="M53.8,43.8c0.2-0.2,0.4-0.5,0.7-0.8l1.8-2h1L55,43.4l2.5,3.3h-1l-2-2.7l-0.7,0.6v2.1h-0.9v-8.1h0.9v4.3
				C53.8,43.1,53.8,43.4,53.8,43.8L53.8,43.8z"/>
			<path class="st1" d="M20.8,61.6l-1.1-3.4c-0.1-0.2-0.2-0.7-0.4-1.4l0,0c-0.1,0.6-0.3,1.1-0.4,1.4l-1.1,3.3h-1l-1.6-5.7h0.9
				c0.4,1.4,0.7,2.5,0.8,3.3s0.3,1.3,0.3,1.5l0,0c0-0.2,0.1-0.5,0.2-0.8s0.2-0.6,0.2-0.8l1.1-3.3h0.9l1,3.3c0.2,0.6,0.3,1.1,0.4,1.5
				l0,0c0-0.1,0.1-0.3,0.1-0.6s0.4-1.7,1.1-4.2h0.9l-1.6,5.7h-0.7V61.6z"/>
			<path class="st1" d="M28.4,61.6v-3.7c0-0.5-0.1-0.8-0.3-1c-0.2-0.2-0.5-0.3-1-0.3c-0.6,0-1,0.2-1.3,0.5s-0.4,0.9-0.4,1.6v3h-0.9
				v-8.1h0.9v2.5c0,0.3,0,0.5,0,0.7h0.1c0.2-0.3,0.4-0.5,0.7-0.7c0.3-0.2,0.7-0.2,1.1-0.2c0.7,0,1.2,0.2,1.6,0.5s0.5,0.9,0.5,1.6
				v3.7L28.4,61.6L28.4,61.6z"/>
			<path class="st1" d="M33.5,61.7c-0.8,0-1.5-0.3-2-0.8s-0.7-1.2-0.7-2.1c0-0.9,0.2-1.7,0.7-2.2s1.1-0.8,1.8-0.8s1.3,0.2,1.7,0.7
				s0.6,1.1,0.6,1.9v0.5h-3.9c0,0.7,0.2,1.2,0.5,1.5c0.3,0.3,0.8,0.5,1.4,0.5c0.6,0,1.2-0.1,1.8-0.4v0.8c-0.3,0.1-0.6,0.2-0.9,0.3
				C34.2,61.6,33.8,61.7,33.5,61.7z M33.2,56.5c-0.5,0-0.8,0.1-1.1,0.4c-0.3,0.3-0.4,0.7-0.5,1.2h3c0-0.5-0.1-1-0.4-1.3
				C34,56.6,33.7,56.5,33.2,56.5z"/>
			<path class="st1" d="M39.7,55.7c0.3,0,0.5,0,0.7,0.1l-0.1,0.8c-0.2-0.1-0.4-0.1-0.6-0.1c-0.5,0-0.9,0.2-1.2,0.6
				c-0.3,0.4-0.5,0.8-0.5,1.4v3.1h-1v-5.7h0.7l0.1,1.1l0,0c0.2-0.4,0.5-0.7,0.8-0.9C39,55.8,39.3,55.7,39.7,55.7z"/>
			<path class="st1" d="M43.8,61.7c-0.8,0-1.5-0.3-2-0.8s-0.7-1.2-0.7-2.1c0-0.9,0.2-1.7,0.7-2.2s1.1-0.8,1.8-0.8s1.3,0.2,1.7,0.7
				s0.6,1.1,0.6,1.9v0.5H42c0,0.7,0.2,1.2,0.5,1.5s0.8,0.5,1.4,0.5c0.6,0,1.2-0.1,1.8-0.4v0.8c-0.3,0.1-0.6,0.2-0.9,0.3
				C44.5,61.6,44.2,61.7,43.8,61.7z M43.6,56.5c-0.5,0-0.8,0.1-1.1,0.4c-0.3,0.3-0.4,0.7-0.5,1.2h3c0-0.5-0.1-1-0.4-1.3
				C44.4,56.6,44,56.5,43.6,56.5z"/>
			<path class="st1" d="M48.7,61.6l-2.2-5.7h0.9l1.2,3.4c0.3,0.8,0.4,1.3,0.5,1.5l0,0c0-0.2,0.2-0.6,0.4-1.1
				c0.2-0.6,0.7-1.8,1.4-3.8h0.9l-2.2,5.7C49.6,61.6,48.7,61.6,48.7,61.6z"/>
			<path class="st1" d="M55.2,61.7c-0.8,0-1.5-0.3-2-0.8s-0.7-1.2-0.7-2.1c0-0.9,0.2-1.7,0.7-2.2s1.1-0.8,1.8-0.8s1.3,0.2,1.7,0.7
				s0.6,1.1,0.6,1.9v0.5h-3.9c0,0.7,0.2,1.2,0.5,1.5s0.8,0.5,1.4,0.5c0.6,0,1.2-0.1,1.8-0.4v0.8c-0.3,0.1-0.6,0.2-0.9,0.3
				C55.9,61.6,55.6,61.7,55.2,61.7z M55,56.5c-0.5,0-0.8,0.1-1.1,0.4c-0.3,0.3-0.4,0.7-0.5,1.2h3c0-0.5-0.1-1-0.4-1.3
				C55.8,56.6,55.4,56.5,55,56.5z"/>
			<path class="st1" d="M61.4,55.7c0.3,0,0.5,0,0.7,0.1L62,56.6c-0.2-0.1-0.4-0.1-0.6-0.1c-0.5,0-0.9,0.2-1.2,0.6
				c-0.3,0.4-0.5,0.8-0.5,1.4v3.1h-0.9v-5.7h0.7l0.1,1.1l0,0c0.2-0.4,0.5-0.7,0.8-0.9S61,55.7,61.4,55.7z"/>
			<path class="st1" d="M12.3,70.7h0.9l1.3,3.3c0.3,0.7,0.4,1.3,0.5,1.6l0,0c0-0.2,0.1-0.5,0.3-0.9s0.6-1.8,1.4-4h0.9l-2.5,6.5
				c-0.2,0.6-0.5,1.1-0.9,1.4C13.9,78.9,13.5,79,13,79c-0.3,0-0.5,0-0.8-0.1v-0.7c0.2,0,0.4,0.1,0.6,0.1c0.6,0,1-0.3,1.3-1l0.3-0.8
				L12.3,70.7z"/>
			<path class="st1" d="M23.6,73.6c0,0.9-0.2,1.7-0.7,2.2s-1.1,0.8-1.9,0.8c-0.5,0-1-0.1-1.4-0.4c-0.4-0.2-0.7-0.6-0.9-1
				c-0.2-0.4-0.3-1-0.3-1.6c0-0.9,0.2-1.7,0.7-2.2s1.1-0.8,1.9-0.8s1.4,0.3,1.9,0.8C23.3,71.9,23.6,72.7,23.6,73.6z M19.2,73.6
				c0,0.7,0.1,1.3,0.4,1.7c0.3,0.4,0.7,0.6,1.3,0.6s1-0.2,1.3-0.6s0.4-0.9,0.4-1.7c0-0.7-0.1-1.3-0.4-1.7s-0.7-0.6-1.3-0.6
				c-0.6,0-1,0.2-1.3,0.6C19.3,72.3,19.2,72.8,19.2,73.6z"/>
			<path class="st1" d="M25.9,70.7v3.7c0,0.5,0.1,0.8,0.3,1c0.2,0.2,0.5,0.3,1,0.3c0.6,0,1-0.2,1.3-0.5s0.4-0.9,0.4-1.6v-3h0.9v5.7
				h-0.7L29,75.7l0,0c-0.2,0.3-0.4,0.5-0.7,0.6c-0.3,0.1-0.7,0.2-1.1,0.2c-0.7,0-1.2-0.2-1.6-0.5c-0.3-0.3-0.5-0.9-0.5-1.6v-3.7
				H25.9z"/>
			<path class="st1" d="M38.4,76.4v-3.7c0-0.5-0.1-0.8-0.3-1s-0.5-0.3-1-0.3c-0.6,0-1,0.2-1.3,0.5s-0.4,0.9-0.4,1.6v3h-0.9v-5.7h0.7
				l0.1,0.8l0,0c0.2-0.3,0.4-0.5,0.7-0.7s0.7-0.2,1.1-0.2c0.7,0,1.2,0.2,1.6,0.5c0.3,0.3,0.5,0.9,0.5,1.6v3.7h-0.8V76.4z"/>
			<path class="st1" d="M43.4,76.5c-0.8,0-1.5-0.3-2-0.8s-0.7-1.2-0.7-2.1s0.2-1.7,0.7-2.2s1.1-0.8,1.8-0.8s1.3,0.2,1.7,0.7
				s0.6,1.1,0.6,1.9v0.5h-3.9c0,0.7,0.2,1.2,0.5,1.5s0.8,0.5,1.4,0.5c0.6,0,1.2-0.1,1.8-0.4v0.8c-0.3,0.1-0.6,0.2-0.9,0.3
				C44.1,76.5,43.8,76.5,43.4,76.5z M43.2,71.3c-0.5,0-0.8,0.1-1.1,0.4s-0.4,0.7-0.5,1.2h3c0-0.5-0.1-1-0.4-1.3
				C44,71.5,43.6,71.3,43.2,71.3z"/>
			<path class="st1" d="M49.4,76.5c-0.8,0-1.5-0.3-2-0.8s-0.7-1.2-0.7-2.1s0.2-1.7,0.7-2.2s1.1-0.8,1.8-0.8s1.3,0.2,1.7,0.7
				s0.6,1.1,0.6,1.9v0.5h-3.9c0,0.7,0.2,1.2,0.5,1.5s0.8,0.5,1.4,0.5c0.6,0,1.2-0.1,1.8-0.4v0.8c-0.3,0.1-0.6,0.2-0.9,0.3
				C50.1,76.5,49.8,76.5,49.4,76.5z M49.2,71.3c-0.5,0-0.8,0.1-1.1,0.4s-0.4,0.7-0.5,1.2h3c0-0.5-0.1-1-0.4-1.3
				C50,71.5,49.6,71.3,49.2,71.3z"/>
			<path class="st1" d="M56.9,75.7L56.9,75.7c-0.4,0.6-1,0.9-1.8,0.9c-0.7,0-1.3-0.3-1.7-0.8s-0.6-1.2-0.6-2.2s0.2-1.7,0.6-2.2
				c0.4-0.5,1-0.8,1.7-0.8c0.8,0,1.4,0.3,1.8,0.8H57V71v-0.4v-2.3h0.9v8.1H57L56.9,75.7z M55.2,75.8c0.6,0,1-0.2,1.3-0.5
				s0.4-0.8,0.4-1.6v-0.2c0-0.8-0.1-1.4-0.4-1.7c-0.3-0.3-0.7-0.5-1.3-0.5c-0.5,0-0.9,0.2-1.2,0.6s-0.4,1-0.4,1.7s0.1,1.3,0.4,1.7
				C54.3,75.6,54.7,75.8,55.2,75.8z"/>
			<path class="st1" d="M62.3,69.1c0-0.2,0-0.3,0.1-0.4s0.2-0.1,0.4-0.1c0.1,0,0.3,0,0.4,0.1c0.1,0.1,0.2,0.2,0.2,0.4
				c0,0.2-0.1,0.3-0.2,0.4c-0.1,0.1-0.2,0.1-0.4,0.1c-0.1,0-0.3,0-0.4-0.1C62.3,69.5,62.3,69.3,62.3,69.1z M63.2,76.4h-0.9v-5.7h0.9
				V76.4z"/>
			<path class="st1" d="M66.9,75.8c0.2,0,0.3,0,0.4,0s0.3,0,0.3-0.1v0.7c-0.1,0-0.2,0.1-0.4,0.1s-0.3,0-0.5,0
				c-1.1,0-1.7-0.6-1.7-1.8v-3.4h-0.8V71l0.8-0.4l0.4-1.2H66v1.3h1.7v0.7H66v3.4c0,0.3,0.1,0.6,0.2,0.8
				C66.4,75.7,66.6,75.8,66.9,75.8z"/>
		</g>
	</g>
</g>
<g id="c2">
	<g id="Whenever__x0D_you_need_it">
		<g>
			<path class="st1" d="M21,31.8h-0.9l-1.5-5.1c-0.1-0.2-0.2-0.5-0.2-0.9c-0.1-0.3-0.1-0.6-0.1-0.6c-0.1,0.5-0.2,1-0.4,1.5l-1.5,5.1
				h-0.9l-2-7.6h0.9l1.2,4.7c0.2,0.7,0.3,1.3,0.4,1.8c0.1-0.6,0.2-1.3,0.4-1.9l1.4-4.6h0.9l1.4,4.7c0.2,0.5,0.3,1.1,0.4,1.8
				c0.1-0.5,0.2-1.1,0.4-1.8l1.2-4.7H23L21,31.8z"/>
			<path class="st1" d="M28.1,31.8v-3.7c0-0.5-0.1-0.8-0.3-1c-0.2-0.2-0.5-0.3-1-0.3c-0.6,0-1,0.2-1.3,0.5s-0.4,0.9-0.4,1.6v3h-0.9
				v-8.1H25v2.5c0,0.3,0,0.5,0,0.7l0,0c0.2-0.3,0.4-0.5,0.7-0.7c0.3-0.2,0.7-0.2,1.1-0.2c0.7,0,1.2,0.2,1.6,0.5s0.5,0.9,0.5,1.6v3.7
				h-0.8V31.8z"/>
			<path class="st1" d="M33.1,31.9c-0.8,0-1.5-0.3-2-0.8s-0.7-1.2-0.7-2.1s0.2-1.7,0.7-2.2s1.1-0.8,1.8-0.8s1.3,0.2,1.7,0.7
				s0.6,1.1,0.6,1.9v0.5h-3.9c0,0.7,0.2,1.2,0.5,1.5c0.3,0.3,0.8,0.5,1.4,0.5s1.2-0.1,1.8-0.4v0.8c-0.3,0.1-0.6,0.2-0.9,0.3
				C33.9,31.9,33.5,31.9,33.1,31.9z M32.9,26.7c-0.5,0-0.8,0.1-1.1,0.4c-0.3,0.3-0.4,0.7-0.5,1.2h3c0-0.5-0.1-1-0.4-1.3
				C33.7,26.9,33.4,26.7,32.9,26.7z"/>
			<path class="st1" d="M40.6,31.8v-3.7c0-0.5-0.1-0.8-0.3-1s-0.5-0.3-1-0.3c-0.6,0-1,0.2-1.3,0.5s-0.4,0.9-0.4,1.6v3h-0.9v-5.7h0.7
				l0.1,0.8l0,0c0.2-0.3,0.4-0.5,0.7-0.7s0.7-0.2,1.1-0.2c0.7,0,1.2,0.2,1.6,0.5c0.3,0.3,0.5,0.9,0.5,1.6v3.7h-0.8V31.8z"/>
			<path class="st1" d="M45.7,31.9c-0.8,0-1.5-0.3-2-0.8S43,29.9,43,29s0.2-1.7,0.7-2.2s1.1-0.8,1.8-0.8s1.3,0.2,1.7,0.7
				s0.6,1.1,0.6,1.9v0.5h-3.9c0,0.7,0.2,1.2,0.5,1.5s0.8,0.5,1.4,0.5c0.6,0,1.2-0.1,1.8-0.4v0.8c-0.3,0.1-0.6,0.2-0.9,0.3
				C46.4,31.9,46.1,31.9,45.7,31.9z M45.5,26.7c-0.5,0-0.8,0.1-1.1,0.4s-0.4,0.7-0.5,1.2h3c0-0.5-0.1-1-0.4-1.3
				C46.3,26.9,45.9,26.7,45.5,26.7z"/>
			<path class="st1" d="M50.6,31.8l-2.2-5.7h0.9l1.2,3.4c0.3,0.8,0.4,1.3,0.5,1.5l0,0c0-0.2,0.2-0.6,0.4-1.1
				c0.2-0.6,0.7-1.8,1.4-3.8h0.9l-2.2,5.7H50.6z"/>
			<path class="st1" d="M57.1,31.9c-0.8,0-1.5-0.3-2-0.8s-0.7-1.2-0.7-2.1s0.2-1.7,0.7-2.2s1.1-0.8,1.8-0.8s1.3,0.2,1.7,0.7
				s0.6,1.1,0.6,1.9v0.5h-3.9c0,0.7,0.2,1.2,0.5,1.5s0.8,0.5,1.4,0.5c0.6,0,1.2-0.1,1.8-0.4v0.8c-0.3,0.1-0.6,0.2-0.9,0.3
				C57.8,31.9,57.5,31.9,57.1,31.9z M56.8,26.7c-0.5,0-0.8,0.1-1.1,0.4s-0.4,0.7-0.5,1.2h3c0-0.5-0.1-1-0.4-1.3
				C57.6,26.9,57.3,26.7,56.8,26.7z"/>
			<path class="st1" d="M63.3,26c0.3,0,0.5,0,0.7,0.1l-0.1,0.8c-0.2-0.1-0.4-0.1-0.6-0.1c-0.5,0-0.9,0.2-1.2,0.6s-0.5,0.8-0.5,1.4
				v3.1h-0.9v-5.7h0.7l0.1,1.1l0,0c0.2-0.4,0.5-0.7,0.8-0.9S62.9,26,63.3,26z"/>
			<path class="st1" d="M12.3,41h0.9l1.3,3.3c0.3,0.7,0.4,1.3,0.5,1.6l0,0c0-0.2,0.1-0.5,0.3-0.9s0.6-1.8,1.4-4h0.9l-2.5,6.5
				c-0.2,0.6-0.5,1.1-0.9,1.4c-0.3,0.3-0.7,0.4-1.2,0.4c-0.3,0-0.5,0-0.8-0.1v-0.7c0.2,0,0.4,0.1,0.6,0.1c0.6,0,1-0.3,1.3-1l0.3-0.8
				L12.3,41z"/>
			<path class="st1" d="M23.6,43.8c0,0.9-0.2,1.7-0.7,2.2s-1.1,0.8-1.9,0.8c-0.5,0-1-0.1-1.4-0.4c-0.4-0.2-0.7-0.6-0.9-1
				c-0.2-0.4-0.3-1-0.3-1.6c0-0.9,0.2-1.7,0.7-2.2s1.1-0.8,1.9-0.8s1.4,0.3,1.9,0.8C23.3,42.2,23.6,42.9,23.6,43.8z M19.2,43.8
				c0,0.7,0.1,1.3,0.4,1.7s0.7,0.6,1.3,0.6s1-0.2,1.3-0.6s0.4-0.9,0.4-1.7c0-0.7-0.1-1.3-0.4-1.7s-0.7-0.6-1.3-0.6
				c-0.6,0-1,0.2-1.3,0.6C19.3,42.5,19.2,43.1,19.2,43.8z"/>
			<path class="st1" d="M25.9,41v3.7c0,0.5,0.1,0.8,0.3,1c0.2,0.2,0.5,0.3,1,0.3c0.6,0,1-0.2,1.3-0.5s0.4-0.9,0.4-1.6v-3h0.9v5.7
				h-0.7L29,45.9l0,0c-0.2,0.3-0.4,0.5-0.7,0.6c-0.3,0.1-0.7,0.2-1.1,0.2c-0.7,0-1.2-0.2-1.6-0.5C25.2,46,25,45.4,25,44.7V41H25.9z"
				/>
			<path class="st1" d="M38.4,46.7V43c0-0.5-0.1-0.8-0.3-1s-0.5-0.3-1-0.3c-0.6,0-1,0.2-1.3,0.5s-0.4,0.9-0.4,1.6v3h-0.9V41h0.7
				l0.1,0.8l0,0c0.2-0.3,0.4-0.5,0.7-0.7s0.7-0.2,1.1-0.2c0.7,0,1.2,0.2,1.6,0.5c0.3,0.3,0.5,0.9,0.5,1.6v3.7
				C39.2,46.7,38.4,46.7,38.4,46.7z"/>
			<path class="st1" d="M43.4,46.8c-0.8,0-1.5-0.3-2-0.8s-0.7-1.2-0.7-2.1c0-0.9,0.2-1.7,0.7-2.2s1.1-0.8,1.8-0.8s1.3,0.2,1.7,0.7
				s0.6,1.1,0.6,1.9V44h-3.9c0,0.7,0.2,1.2,0.5,1.5s0.8,0.5,1.4,0.5c0.6,0,1.2-0.1,1.8-0.4v0.8c-0.3,0.1-0.6,0.2-0.9,0.3
				C44.1,46.8,43.8,46.8,43.4,46.8z M43.2,41.6c-0.5,0-0.8,0.1-1.1,0.4c-0.3,0.3-0.4,0.7-0.5,1.2h3c0-0.5-0.1-1-0.4-1.3
				C44,41.7,43.6,41.6,43.2,41.6z"/>
			<path class="st1" d="M49.4,46.8c-0.8,0-1.5-0.3-2-0.8s-0.7-1.2-0.7-2.1c0-0.9,0.2-1.7,0.7-2.2s1.1-0.8,1.8-0.8s1.3,0.2,1.7,0.7
				s0.6,1.1,0.6,1.9V44h-3.9c0,0.7,0.2,1.2,0.5,1.5s0.8,0.5,1.4,0.5c0.6,0,1.2-0.1,1.8-0.4v0.8c-0.3,0.1-0.6,0.2-0.9,0.3
				C50.1,46.8,49.8,46.8,49.4,46.8z M49.2,41.6c-0.5,0-0.8,0.1-1.1,0.4c-0.3,0.3-0.4,0.7-0.5,1.2h3c0-0.5-0.1-1-0.4-1.3
				C50,41.7,49.6,41.6,49.2,41.6z"/>
			<path class="st1" d="M56.9,45.9L56.9,45.9c-0.4,0.6-1,0.9-1.8,0.9c-0.7,0-1.3-0.3-1.7-0.8s-0.6-1.2-0.6-2.2s0.2-1.7,0.6-2.2
				c0.4-0.5,1-0.8,1.7-0.8c0.8,0,1.4,0.3,1.8,0.8H57v-0.4v-0.4v-2.3h0.9v8.1H57L56.9,45.9z M55.2,46.1c0.6,0,1-0.2,1.3-0.5
				s0.4-0.8,0.4-1.6v-0.2c0-0.8-0.1-1.4-0.4-1.7c-0.3-0.3-0.7-0.5-1.3-0.5c-0.5,0-0.9,0.2-1.2,0.6c-0.3,0.4-0.4,1-0.4,1.7
				s0.1,1.3,0.4,1.7C54.3,45.9,54.7,46.1,55.2,46.1z"/>
			<path class="st1" d="M62.3,39.4c0-0.2,0-0.3,0.1-0.4c0.1-0.1,0.2-0.1,0.4-0.1c0.1,0,0.3,0,0.4,0.1c0.1,0.1,0.2,0.2,0.2,0.4
				s-0.1,0.3-0.2,0.4C63,40,62.9,40,62.8,40c-0.1,0-0.3,0-0.4-0.1C62.3,39.8,62.3,39.6,62.3,39.4z M63.2,46.7h-0.9V41h0.9V46.7z"/>
			<path class="st1" d="M66.9,46.1c0.2,0,0.3,0,0.4,0s0.3,0,0.3-0.1v0.7c-0.1,0-0.2,0.1-0.4,0.1s-0.3,0-0.5,0
				c-1.1,0-1.7-0.6-1.7-1.8v-3.4h-0.8v-0.4l0.8-0.4l0.4-1.2H66V41h1.7v0.7H66V45c0,0.3,0.1,0.6,0.2,0.8C66.4,46,66.6,46.1,66.9,46.1
				z"/>
		</g>
	</g>
</g>
</svg>
