<?xml version="1.0" encoding="utf-8"?>
<!-- Generator: Adobe Illustrator 25.2.1, SVG Export Plug-In . SVG Version: 6.00 Build 0)  -->
<svg version="1.1" id="Layer_1" xmlns="http://www.w3.org/2000/svg" xmlns:xlink="http://www.w3.org/1999/xlink" x="0px" y="0px"
	 viewBox="0 0 160 600" style="enable-background:new 0 0 160 600;" xml:space="preserve">
<style type="text/css">
	.st0{clip-path:url(#SVGID_2_);}
	.st1{opacity:0.6;fill:url(#bg-light_1_);enable-background:new    ;}
	.st2{fill:#FFFFFF;}
	.st3{clip-path:url(#SVGID_4_);}
	.st4{clip-path:url(#SVGID_6_);}
	.st5{opacity:0.29;fill:url(#cta-glow_1_);enable-background:new    ;}
	.st6{fill:none;stroke:#FFFFFF;stroke-width:0.82;stroke-miterlimit:10;}
	.st7{fill:#030504;}
	.st8{fill:#E4001B;}
	.st9{fill-rule:evenodd;clip-rule:evenodd;fill:#FE5000;}
	.st10{fill-rule:evenodd;clip-rule:evenodd;fill:#FFFFFF;}
</style>
<g id="_160x600">
	<g>
		<defs>
			<rect id="SVGID_1_" width="160" height="600"/>
		</defs>
		<clipPath id="SVGID_2_">
			<use xlink:href="#SVGID_1_"  style="overflow:visible;"/>
		</clipPath>
		<g class="st0">
			<g id="BG">
				
					<image style="overflow:visible;enable-background:new    ;" width="901" height="803" id="GettyImages-561860327" xlink:href="awareness1-300x2501.jpg"  transform="matrix(0.84 0 0 0.84 -286.85 -53.27)">
				</image>
				
					<radialGradient id="bg-light_1_" cx="51.796" cy="1108.5077" r="0.41" gradientTransform="matrix(542.92 0 0 239.64 -28059.373 -265278.625)" gradientUnits="userSpaceOnUse">
					<stop  offset="0" style="stop-color:#FFFFFF"/>
					<stop  offset="0.26" style="stop-color:#FFFFFF;stop-opacity:0.68"/>
					<stop  offset="0.53" style="stop-color:#FFFFFF;stop-opacity:0.39"/>
					<stop  offset="0.75" style="stop-color:#FFFFFF;stop-opacity:0.18"/>
					<stop  offset="0.91" style="stop-color:#FFFFFF;stop-opacity:5.000000e-02"/>
					<stop  offset="1" style="stop-color:#FFFFFF;stop-opacity:0"/>
				</radialGradient>
				<ellipse id="bg-light" class="st1" cx="80" cy="367.6" rx="246.3" ry="108.7"/>
				
					<image style="overflow:visible;enable-background:new    ;" width="600" height="491" id="keyshadow" xlink:href="awareness11.png"  transform="matrix(0.5163 0 0 0.4718 -70.2255 301.3556)">
				</image>
				
					<image style="overflow:visible;enable-background:new    ;" width="258" height="68" xlink:href="metal3.png"  transform="matrix(0.52 0 0 0.52 13.49 351.19)">
				</image>
				
					<image style="overflow:visible;enable-background:new    ;" width="1721" height="1721" id="shine1_300x" xlink:href="consideration21.png"  transform="matrix(3.000000e-02 0 0 3.000000e-02 14.61 326.01)">
				</image>
			</g>
			<g id="f2">
				<g>
					<path class="st2" d="M28.8,112.2h2.1l4.5,10.6H33l-1-2.4h-4.4l-1,2.4h-2.3L28.8,112.2z M31.2,118.4l-1.4-3.4l-1.4,3.4H31.2z"/>
					<path class="st2" d="M36.1,118.8L36.1,118.8c0-2.7,1.8-4.2,3.7-4.2c1,0,1.9,0.4,2.5,1.2v-4h2.3v11h-2.3v-1.2
						c-0.6,0.8-1.5,1.3-2.5,1.3C37.9,123,36.1,121.5,36.1,118.8z M42.3,118.8L42.3,118.8c0.2-1.1-0.5-2.1-1.6-2.4
						c-1.1-0.2-2.1,0.5-2.4,1.6c-0.1,0.3-0.1,0.5,0,0.8l0,0c-0.2,1.1,0.5,2.1,1.6,2.4c1.1,0.2,2.1-0.5,2.4-1.6
						C42.3,119.4,42.3,119.1,42.3,118.8z"/>
					<path class="st2" d="M46.2,118.8L46.2,118.8c0-2.7,1.8-4.2,3.7-4.2c1,0,1.9,0.4,2.5,1.2v-4h2.3v11h-2.3v-1.2
						c-0.6,0.8-1.5,1.3-2.5,1.3C48,123,46.2,121.5,46.2,118.8z M52.4,118.8L52.4,118.8c0.2-1.1-0.5-2.1-1.5-2.4
						c-1.1-0.2-2.1,0.5-2.4,1.5c-0.1,0.3-0.1,0.6,0,0.8l0,0c-0.2,1.1,0.5,2.1,1.5,2.4c1.1,0.2,2.1-0.5,2.4-1.5
						C52.5,119.4,52.5,119.1,52.4,118.8z"/>
					<path class="st2" d="M60.7,121.3l1.4-1.6c0.9,0.8,2,1.2,3.1,1.3c1,0,1.5-0.4,1.5-1l0,0c0-0.6-0.4-0.9-2.1-1.3
						c-2.1-0.5-3.5-1.1-3.5-3.2l0,0c0-1.9,1.5-3.2,3.7-3.2c1.4,0,2.8,0.4,3.9,1.3l-1.2,1.7c-0.8-0.6-1.7-0.9-2.7-1
						c-0.9,0-1.3,0.4-1.3,0.9l0,0c0,0.7,0.5,0.9,2.3,1.4c2.1,0.6,3.3,1.3,3.3,3.2l0,0c0,2.1-1.6,3.3-3.8,3.3
						C63.5,123,61.9,122.4,60.7,121.3z"/>
					<path class="st2" d="M71.1,120.6v-3.8h-1v-1.9h1v-2.1h2.3v2.1h1.9v1.9h-1.9v3.4c0,0.5,0.2,0.8,0.7,0.8c0.4,0,0.8-0.1,1.1-0.3
						v1.8c-0.5,0.3-1.2,0.5-1.8,0.5C72,123,71.1,122.4,71.1,120.6z"/>
					<path class="st2" d="M76.3,118.8L76.3,118.8c0-2.4,2-4.3,4.4-4.3c2.4,0,4.3,1.9,4.3,4.3l0,0c0,2.3-2,4.2-4.3,4.2c0,0,0,0-0.1,0
						c-2.3,0.1-4.2-1.7-4.3-4C76.3,118.9,76.3,118.9,76.3,118.8z M82.8,118.8L82.8,118.8c0-1.2-0.9-2.2-2.1-2.2c0,0,0,0-0.1,0
						c-1.1,0-2.1,0.9-2.1,2c0,0.1,0,0.1,0,0.2l0,0c0,1.2,0.9,2.2,2.1,2.2c0,0,0,0,0,0c1.1,0,2.1-0.9,2.1-2
						C82.8,118.9,82.8,118.9,82.8,118.8z"/>
					<path class="st2" d="M86.7,114.8H89v1.6c0.3-1.1,1.4-1.9,2.6-1.8v2.4h-0.2c-1.5,0-2.4,0.9-2.4,2.8v3h-2.3V114.8z"/>
					<path class="st2" d="M92.1,120.5L92.1,120.5c0-1.8,1.3-2.6,3.2-2.6c0.7,0,1.4,0.1,2,0.3v-0.1c0-1-0.6-1.5-1.7-1.5
						c-0.8,0-1.5,0.1-2.2,0.4l-0.6-1.7c1-0.4,2-0.7,3.1-0.6c1-0.1,2,0.2,2.7,0.9c0.6,0.7,0.9,1.6,0.9,2.6v4.7h-2.2V122
						c-0.6,0.7-1.5,1-2.4,1c-1.4,0.1-2.6-0.8-2.7-2.2C92.1,120.7,92.1,120.6,92.1,120.5z M97.3,120v-0.4c-0.5-0.2-1-0.3-1.5-0.3
						c-1,0-1.6,0.4-1.6,1.1l0,0c0,0.6,0.5,1,1.2,1C96.6,121.4,97.3,120.8,97.3,120L97.3,120z"/>
					<path class="st2" d="M101.5,124.4l0.8-1.7c0.8,0.5,1.8,0.7,2.7,0.7c1.6,0,2.3-0.8,2.3-2.2v-0.4c-0.6,0.8-1.6,1.3-2.6,1.3
						c-2,0-3.6-1.5-3.6-3.5c0-0.1,0-0.2,0-0.2l0,0c-0.1-2,1.4-3.6,3.3-3.7c0.1,0,0.2,0,0.2,0c1,0,2,0.4,2.6,1.2v-1h2.3v6.1
						c0.1,1.1-0.3,2.3-1,3.2c-1,0.8-2.2,1.2-3.5,1.1C103.8,125.3,102.6,125,101.5,124.4z M107.3,118.4L107.3,118.4
						c-0.2-1.1-1.3-1.8-2.4-1.6c-0.8,0.2-1.4,0.8-1.6,1.6l0,0c0,1,0.8,1.9,1.8,1.9c0,0,0.1,0,0.1,0
						C106.4,120.3,107.2,119.5,107.3,118.4C107.3,118.5,107.3,118.5,107.3,118.4z"/>
					<path class="st2" d="M111.2,118.8L111.2,118.8c-0.1-2.2,1.6-4.1,3.8-4.2c0.1,0,0.1,0,0.2,0c2.7,0,3.9,2.1,3.9,4.4
						c0,0.2,0,0.4,0,0.6h-5.6c0.1,1,1,1.7,2,1.6c0.8,0,1.5-0.3,2-0.8l1.3,1.2c-1.5,1.8-4.2,2-6,0.5c-0.9-0.8-1.5-1.9-1.5-3.2
						L111.2,118.8z M116.9,118.2c0-0.9-0.8-1.7-1.7-1.7c-0.9,0-1.7,0.8-1.7,1.7H116.9z"/>
					<path class="st2" d="M120,124.3c1-0.1,1.6-0.6,1.5-1.5h-0.9v-2.4h2.5v2c0,2-1,2.8-2.8,2.8L120,124.3z"/>
				</g>
				<g>
					<path class="st2" d="M24.7,134.3L24.7,134.3c-0.1-2.9,2.3-5.4,5.2-5.4c0.1,0,0.2,0,0.2,0c1.5-0.1,3.1,0.5,4.1,1.6l-1.5,1.7
						c-0.7-0.7-1.7-1.2-2.7-1.2c-1.7,0.1-3.1,1.5-3,3.2c0,0,0,0,0,0.1l0,0c-0.1,1.7,1.2,3.2,2.9,3.3c0,0,0.1,0,0.1,0
						c1.1,0,2.1-0.4,2.8-1.2l1.5,1.5c-1.1,1.2-2.7,1.9-4.3,1.9c-2.9,0.1-5.4-2.2-5.4-5.2C24.7,134.4,24.7,134.3,24.7,134.3z"/>
					<path class="st2" d="M35.5,135.5L35.5,135.5c0-2.4,1.9-4.4,4.3-4.4c2.4,0,4.4,1.9,4.4,4.4l0,0c0,2.3-1.9,4.2-4.3,4.2
						c0,0-0.1,0-0.1,0c-2.3,0.1-4.2-1.7-4.3-4C35.5,135.6,35.5,135.6,35.5,135.5z M42,135.5L42,135.5c0-1.2-0.9-2.2-2.1-2.2
						c0,0,0,0-0.1,0c-1.1,0-2.1,0.9-2.1,2c0,0.1,0,0.1,0,0.2l0,0c0,1.2,0.9,2.2,2.1,2.2c0,0,0,0,0.1,0c1.1,0,2.1-0.8,2.1-2
						C42,135.7,42,135.6,42,135.5L42,135.5z"/>
					<path class="st2" d="M45.8,131.4h2.3v1.1c0.5-0.8,1.4-1.3,2.4-1.3c0.9-0.1,1.8,0.4,2.3,1.3c0.6-0.8,1.6-1.3,2.6-1.3
						c1.7,0,2.7,1,2.7,3v5.2h-2.3V135c0-1.1-0.5-1.6-1.3-1.6s-1.4,0.6-1.4,1.6v4.5h-2.3V135c0-1.1-0.5-1.6-1.3-1.6s-1.4,0.6-1.4,1.6
						v4.5h-2.3V131.4z"/>
					<path class="st2" d="M60.1,131.4h2.3v1.2c0.6-0.8,1.5-1.3,2.5-1.3c1.9,0,3.7,1.5,3.7,4.2l0,0c0,2.7-1.8,4.1-3.7,4.1
						c-1,0-1.9-0.4-2.5-1.2v3.4h-2.3V131.4z M66.3,135.4L66.3,135.4c0.2-1.1-0.5-2.1-1.5-2.4c-1.1-0.2-2.1,0.5-2.4,1.5
						c-0.1,0.3-0.1,0.6,0,0.8l0,0c-0.2,1.1,0.5,2.1,1.5,2.4c1.1,0.2,2.1-0.5,2.4-1.5C66.3,136,66.3,135.7,66.3,135.4z"/>
					<path class="st2" d="M70.2,136.6v-5.2h2.3v4.5c0,1.1,0.5,1.6,1.4,1.6s1.4-0.6,1.4-1.6v-4.5h2.3v8h-2.3v-1.1
						c-0.5,0.8-1.4,1.3-2.4,1.3C71.2,139.6,70.2,138.5,70.2,136.6z"/>
					<path class="st2" d="M79.9,137.2v-3.8H79v-1.9h1v-2.1h2.3v2.1h1.9v1.9h-1.9v3.4c0,0.5,0.2,0.8,0.7,0.8c0.4,0,0.8-0.1,1.1-0.3
						v1.8c-0.5,0.3-1.2,0.5-1.8,0.5C80.9,139.6,79.9,139.1,79.9,137.2z"/>
					<path class="st2" d="M85.2,135.5L85.2,135.5c-0.1-2.2,1.6-4.1,3.8-4.2c0.1,0,0.1,0,0.2,0c2.7,0,3.9,2.1,3.9,4.4
						c0,0.2,0,0.4,0,0.6h-5.6c0.2,1,1,1.7,2,1.6c0.8,0,1.5-0.3,2-0.8l1.3,1.1c-1.5,1.8-4.2,2-6,0.5c-0.9-0.8-1.5-1.9-1.5-3.2
						L85.2,135.5z M90.8,134.8c0-0.9-0.8-1.7-1.7-1.7c-0.9,0-1.7,0.8-1.7,1.7H90.8z"/>
					<path class="st2" d="M103.1,128.9h2.1l4.5,10.6h-2.4l-1-2.4h-4.4l-1,2.4h-2.3L103.1,128.9z M105.5,135.1l-1.4-3.4l-1.4,3.4
						H105.5z"/>
					<path class="st2" d="M111.1,131.4h2.3v1.1c0.5-0.8,1.4-1.3,2.4-1.3c1.7,0,2.7,1.1,2.7,3v5.2h-2.3V135c0-1.1-0.5-1.6-1.4-1.6
						s-1.4,0.6-1.4,1.6v4.5h-2.3V131.4z"/>
					<path class="st2" d="M120.1,135.5L120.1,135.5c0-2.7,1.8-4.2,3.7-4.2c1,0,1.9,0.4,2.5,1.2v-4h2.3v10.9h-2.3v-1.1
						c-0.6,0.8-1.5,1.3-2.5,1.3C121.9,139.6,120.1,138.2,120.1,135.5z M126.3,135.5L126.3,135.5c0.2-1.1-0.5-2.1-1.5-2.4
						c-1.1-0.2-2.1,0.5-2.4,1.5c-0.1,0.3-0.1,0.6,0,0.8l0,0c-0.2,1.1,0.5,2.1,1.5,2.4c1.1,0.2,2.1-0.5,2.4-1.5
						C126.3,136,126.3,135.8,126.3,135.5z"/>
				</g>
				<g>
					<path class="st2" d="M24.7,150.9L24.7,150.9c0-3,2.4-5.4,5.4-5.4c0,0,0.1,0,0.1,0c1.5-0.1,3,0.4,4.1,1.4l-1.5,1.8
						c-0.7-0.7-1.7-1.1-2.8-1.1c-1.7,0.1-3.1,1.5-3,3.3l0,0c-0.1,1.7,1.2,3.2,3,3.3c0.1,0,0.1,0,0.2,0c0.8,0,1.5-0.2,2.2-0.6v-1.5
						h-2.3v-2h4.6v4.6c-1.2,1.1-2.8,1.7-4.5,1.7c-2.9,0.2-5.4-2.1-5.5-5C24.7,151.2,24.7,151.1,24.7,150.9z"/>
					<path class="st2" d="M36.8,145.2h2.3v10.9h-2.3V145.2z"/>
					<path class="st2" d="M40.9,152.2L40.9,152.2c0-2.4,1.9-4.4,4.4-4.4c2.4,0,4.3,1.9,4.3,4.4l0,0c0,2.3-1.9,4.2-4.3,4.2
						c0,0-0.1,0-0.1,0c-2.3,0.1-4.2-1.7-4.3-4C40.9,152.3,40.9,152.2,40.9,152.2z M47.3,152.2L47.3,152.2c0-1.2-0.9-2.2-2.1-2.2
						c0,0,0,0-0.1,0c-1.1,0-2.1,0.9-2.1,2c0,0.1,0,0.1,0,0.2l0,0c0,1.2,0.9,2.2,2.1,2.2c0,0,0,0,0.1,0c1.1,0,2.1-0.9,2.1-2
						C47.3,152.3,47.3,152.2,47.3,152.2z"/>
					<path class="st2" d="M53.5,155.1v1h-2.3v-10.9h2.3v4.1c0.6-0.8,1.5-1.3,2.5-1.3c1.9,0,3.7,1.5,3.7,4.2l0,0
						c0,2.7-1.8,4.1-3.7,4.1C55,156.3,54.1,155.9,53.5,155.1z M57.4,152.1L57.4,152.1c0.2-1.1-0.5-2.1-1.5-2.4
						c-1.1-0.2-2.1,0.5-2.4,1.5c-0.1,0.3-0.1,0.6,0,0.8l0,0c-0.2,1.1,0.5,2.1,1.5,2.4c1.1,0.2,2.1-0.5,2.4-1.5
						C57.4,152.7,57.4,152.4,57.4,152.1z"/>
					<path class="st2" d="M60.9,153.8L60.9,153.8c0-1.8,1.3-2.6,3.2-2.6c0.7,0,1.4,0.1,2,0.3v-0.1c0-0.9-0.6-1.5-1.7-1.5
						c-0.8,0-1.5,0.2-2.2,0.4l-0.6-1.7c1-0.4,2-0.7,3.1-0.6c1-0.1,2,0.2,2.7,0.9c0.6,0.7,0.9,1.6,0.9,2.6v4.7h-2.2v-0.9
						c-0.6,0.7-1.5,1-2.4,1c-1.4,0.1-2.6-0.8-2.7-2.2C60.9,154,60.9,153.9,60.9,153.8z M66.1,153.3v-0.4c-0.5-0.2-1-0.3-1.5-0.3
						c-1,0-1.6,0.4-1.6,1.1l0,0c0,0.6,0.5,1,1.2,1C65.4,154.7,66.1,154.1,66.1,153.3z"/>
					<path class="st2" d="M70.3,145.2h2.3v10.9h-2.3V145.2z"/>
				</g>
				<g>
					<path class="st2" d="M24.7,167.6L24.7,167.6c-0.1-2.9,2.3-5.4,5.2-5.4c0.1,0,0.2,0,0.2,0c1.5-0.1,3.1,0.5,4.1,1.6l-1.5,1.7
						c-0.7-0.7-1.7-1.2-2.7-1.2c-1.7,0.1-3.1,1.5-3,3.2c0,0,0,0,0,0.1l0,0c-0.1,1.7,1.2,3.2,2.9,3.3c0,0,0.1,0,0.1,0
						c1.1,0,2.1-0.4,2.8-1.2l1.5,1.5c-1.1,1.2-2.7,1.9-4.3,1.9c-2.9,0.1-5.4-2.2-5.4-5.2C24.7,167.7,24.7,167.7,24.7,167.6z"/>
					<path class="st2" d="M35.5,168.8L35.5,168.8c0-2.4,1.9-4.4,4.3-4.4c2.4,0,4.4,1.9,4.4,4.4l0,0c0,2.3-1.9,4.2-4.3,4.2
						c0,0-0.1,0-0.1,0c-2.3,0.1-4.2-1.7-4.3-4C35.5,168.9,35.5,168.9,35.5,168.8z M42,168.8L42,168.8c0-1.2-0.9-2.2-2.1-2.2
						c0,0,0,0-0.1,0c-1.1,0-2.1,0.9-2.1,2c0,0.1,0,0.1,0,0.2l0,0c0,1.2,0.9,2.2,2.1,2.2c0,0,0,0,0,0c1.1,0,2.1-0.8,2.1-2
						C42,169,42,168.9,42,168.8L42,168.8z"/>
					<path class="st2" d="M45.8,164.8h2.3v1.1c0.5-0.8,1.4-1.3,2.3-1.3c1.7,0,2.7,1.1,2.7,3v5.2h-2.3v-4.5c0-1.1-0.5-1.6-1.4-1.6
						s-1.4,0.6-1.4,1.6v4.5h-2.3V164.8z"/>
					<path class="st2" d="M55.2,164.8h2.3v1.1c0.5-0.8,1.4-1.3,2.4-1.3c1.7,0,2.7,1.1,2.7,3v5.2h-2.3v-4.5c0-1.1-0.5-1.6-1.4-1.6
						s-1.4,0.6-1.4,1.6v4.5h-2.3V164.8z"/>
					<path class="st2" d="M64.2,168.8L64.2,168.8c-0.1-2.2,1.6-4.1,3.8-4.2c0.1,0,0.1,0,0.2,0c2.7,0,3.9,2.1,3.9,4.4
						c0,0.2,0,0.4,0,0.6h-5.6c0.2,1,1,1.7,2,1.6c0.8,0,1.5-0.3,2-0.8l1.3,1.1c-1.5,1.8-4.2,2-6,0.5c-0.9-0.8-1.5-1.9-1.5-3.2
						L64.2,168.8z M69.8,168.2c0-0.9-0.8-1.7-1.7-1.7c-0.9,0-1.7,0.8-1.7,1.7H69.8z"/>
					<path class="st2" d="M73.3,168.8L73.3,168.8c0-2.3,1.8-4.2,4.1-4.2c0.1,0,0.1,0,0.2,0c1.2-0.1,2.4,0.4,3.2,1.4l-1.4,1.5
						c-0.4-0.6-1.1-0.9-1.8-0.9c-1.1,0-2,1-2,2.1c0,0,0,0.1,0,0.1l0,0c-0.1,1.1,0.8,2.1,1.9,2.2c0,0,0.1,0,0.1,0
						c0.7,0,1.4-0.3,1.8-0.9l1.3,1.4c-0.8,1-2,1.5-3.2,1.5c-2.3,0-4.1-1.8-4.2-4C73.3,168.9,73.3,168.9,73.3,168.8z"/>
					<path class="st2" d="M82.7,170.5v-3.8h-1v-2h1v-2H85v2h1.9v2H85v3.4c0,0.5,0.2,0.8,0.7,0.8c0.4,0,0.8-0.1,1.1-0.3v1.8
						c-0.5,0.3-1.2,0.5-1.8,0.5C83.6,172.9,82.7,172.4,82.7,170.5z"/>
					<path class="st2" d="M88.6,161.9H91v2h-2.4L88.6,161.9z M88.6,164.8h2.3v8h-2.3V164.8z"/>
					<path class="st2" d="M92.3,164.8h2.4l1.8,5.4l1.8-5.4h2.4l-3.2,8.1h-2.1L92.3,164.8z"/>
					<path class="st2" d="M102.1,161.9h2.4v2h-2.4V161.9z M102.2,164.8h2.3v8h-2.3V164.8z"/>
					<path class="st2" d="M107,170.5v-3.8h-1v-2h1v-2h2.3v2h1.9v2h-1.9v3.4c0,0.5,0.2,0.8,0.7,0.8c0.4,0,0.8-0.1,1.1-0.3v1.8
						c-0.5,0.3-1.2,0.5-1.8,0.5C107.9,172.9,107,172.4,107,170.5z"/>
					<path class="st2" d="M112.7,174.7l0.8-1.6c0.3,0.2,0.6,0.3,1,0.3c0.4,0,0.7-0.2,0.8-0.5l-3.2-8.1h2.4l1.8,5.5l1.8-5.5h2.4
						l-3.1,8.2c-0.6,1.6-1.3,2.2-2.6,2.2C114,175.3,113.3,175.1,112.7,174.7z"/>
				</g>
			</g>
			<g id="f3">
				<g id="c3">
					<g>
						<path class="st2" d="M27.5,165h5.8l6.5,10.4l6.5-10.4h5.8v24.6h-5.4v-16.1L39.8,184h-0.1l-6.9-10.4v16h-5.3V165z"/>
						<path class="st2" d="M58,165h18.6v4.8H63.4v5H75v4.8H63.4v5.2h13.4v4.8H58V165z"/>
						<path class="st2" d="M87.3,170h-7.5v-5h20.4v5h-7.5v19.6h-5.4V170z"/>
						<path class="st2" d="M109.6,164.8h5l10.6,24.8h-5.7l-2.2-5.5h-10.4l-2.2,5.5h-5.5L109.6,164.8z M115.3,179.3l-3.3-8l-3.3,8
							H115.3z"/>
						<path class="st2" d="M129,165h5.4v19.7h12.3v4.9H129V165z"/>
					</g>
					<g>
						<path class="st2" d="M25.5,147.4h3.3c1.5-0.2,2.9,0.9,3,2.4c0,0.1,0,0.2,0,0.4l0,0c0,1.9-1.4,2.8-3.2,2.8h-1.3v2.4h-1.8V147.4
							z M28.6,151.4c0.7,0.1,1.3-0.4,1.4-1.1c0,0,0-0.1,0-0.1l0,0c0-0.8-0.5-1.2-1.4-1.2h-1.4v2.4L28.6,151.4z"/>
						<path class="st2" d="M33,151.9v-4.6h1.8v4.5c0,1.3,0.7,2,1.7,2s1.7-0.6,1.7-1.9v-4.6H40v4.5c0,2.4-1.3,3.6-3.5,3.6
							S33,154.3,33,151.9z"/>
						<path class="st2" d="M41.7,147.4h3.6c0.9-0.1,1.7,0.2,2.3,0.8c0.5,0.5,0.7,1.1,0.7,1.8l0,0c0.1,1.1-0.6,2.1-1.7,2.5l2,2.9h-2
							l-1.7-2.6h-1.5v2.6h-1.8V147.4z M45.2,151.2c0.8,0,1.3-0.4,1.3-1.1l0,0c0-0.8-0.5-1.1-1.4-1.1h-1.7v2.3L45.2,151.2z"/>
						<path class="st2" d="M50,147.4h6v1.6h-4.3v1.6h3.8v1.6h-3.8v1.7H56v1.6h-6V147.4z"/>
						<path class="st2" d="M60.5,154.2l1-1.2c0.6,0.6,1.5,1,2.4,1c0.7,0,1.2-0.3,1.2-0.8l0,0c0-0.4-0.3-0.7-1.6-1
							c-1.6-0.4-2.6-0.9-2.6-2.4l0,0c0-1.4,1.2-2.5,2.6-2.4c0.1,0,0.1,0,0.2,0c1.1,0,2.1,0.3,3,1l-0.9,1.3c-0.6-0.5-1.3-0.7-2.1-0.8
							c-0.7,0-1,0.3-1,0.7l0,0c0,0.5,0.3,0.7,1.7,1.1c1.6,0.4,2.5,1,2.5,2.4l0,0c0,1.6-1.2,2.5-2.9,2.5
							C62.6,155.5,61.4,155,60.5,154.2z"/>
						<path class="st2" d="M70,149h-2.4v-1.6h6.6v1.6h-2.4v6.4H70V149z"/>
						<path class="st2" d="M74.8,151.4L74.8,151.4c0-2.3,1.9-4.2,4.2-4.2c2.3,0,4.2,1.9,4.2,4.2l0,0c0,2.3-1.9,4.2-4.2,4.2
							C76.7,155.6,74.9,153.7,74.8,151.4z M81.5,151.4L81.5,151.4c0-1.3-1-2.5-2.3-2.5c0,0-0.1,0-0.1,0c-1.3,0-2.4,1.1-2.4,2.4
							c0,0,0,0.1,0,0.1l0,0c0,1.3,1,2.5,2.4,2.5c0,0,0,0,0.1,0c1.3,0,2.4-1.1,2.4-2.4C81.5,151.5,81.5,151.4,81.5,151.4z"/>
						<path class="st2" d="M84.9,147.4h3.6c0.9-0.1,1.7,0.2,2.3,0.8c0.5,0.5,0.7,1.1,0.7,1.8l0,0c0.1,1.1-0.6,2.1-1.7,2.5l2,2.9
							h-2.1l-1.7-2.5h-1.3v2.6h-1.8V147.4z M88.4,151.2c0.8,0,1.3-0.4,1.3-1.1l0,0c0-0.8-0.5-1.1-1.4-1.1h-1.7v2.3L88.4,151.2z"/>
						<path class="st2" d="M95.9,147.3h1.6l3.4,8h-1.8l-0.7-1.8H95l-0.7,1.8h-1.8L95.9,147.3z M97.7,152l-1.1-2.6l-1.1,2.6L97.7,152
							z"/>
						<path class="st2" d="M101.3,151.4L101.3,151.4c0-2.3,1.8-4.1,4-4.1c0,0,0.1,0,0.1,0c1.1-0.1,2.3,0.3,3.1,1.1l-1.1,1.3
							c-0.6-0.5-1.3-0.8-2.1-0.8c-1.3,0.1-2.3,1.2-2.3,2.5l0,0c-0.1,1.3,0.9,2.4,2.2,2.5c0.1,0,0.1,0,0.2,0c0.6,0,1.2-0.1,1.7-0.5
							v-1.1h-1.8v-1.5h3.5v3.5c-0.9,0.8-2.2,1.3-3.4,1.3c-2.2,0.1-4.1-1.6-4.2-3.8C101.3,151.6,101.3,151.5,101.3,151.4z"/>
						<path class="st2" d="M110.6,147.4h6v1.6h-4.3v1.6h3.8v1.6h-3.8v1.7h4.3v1.6h-6.1L110.6,147.4z"/>
						<path class="st2" d="M121.3,151.4L121.3,151.4c0-2.3,1.9-4.2,4.2-4.2c2.3,0,4.2,1.9,4.2,4.2l0,0c0,2.3-1.9,4.2-4.2,4.2
							C123.2,155.6,121.3,153.7,121.3,151.4z M127.9,151.4L127.9,151.4c0-1.3-1-2.5-2.3-2.5c0,0,0,0-0.1,0c-1.3,0-2.4,1.1-2.4,2.4
							c0,0,0,0.1,0,0.1l0,0c0,1.3,1,2.5,2.4,2.5c0,0,0,0,0.1,0C126.9,153.9,127.9,152.8,127.9,151.4
							C127.9,151.5,127.9,151.4,127.9,151.4z"/>
						<path class="st2" d="M131.3,147.4h1.7l3.7,4.9v-4.9h1.7v8H137l-3.9-5.1v5.1h-1.7L131.3,147.4z"/>
					</g>
					<g>
						<path class="st2" d="M35.9,114.4h5l10.5,24.8h-5.7l-2.2-5.5H33.1l-2.3,5.5h-5.5L35.9,114.4z M41.6,128.9l-3.3-8l-3.3,8H41.6z"
							/>
						<path class="st2" d="M55.2,114.6h9.6c7.7,0,13.1,5.3,13.1,12.2v0.1c0,6.9-5.3,12.3-13.1,12.3h-9.6V114.6z M64.9,134.3
							c3.9,0.2,7.2-2.7,7.4-6.6c0-0.2,0-0.5,0-0.8v-0.1c0.2-3.9-2.8-7.2-6.7-7.4c-0.2,0-0.5,0-0.7,0h-4.2v14.8L64.9,134.3z"/>
						<path class="st2" d="M82.8,114.6h9.6c7.7,0,13.1,5.3,13.1,12.2v0.1c0,6.9-5.3,12.3-13.1,12.3h-9.6L82.8,114.6z M92.3,134.3
							c3.9,0.2,7.2-2.7,7.4-6.5c0-0.3,0-0.5,0-0.8v-0.1c0.2-3.9-2.8-7.2-6.7-7.4c-0.2,0-0.5,0-0.7,0h-4.2v14.8L92.3,134.3z"/>
					</g>
					<g>
						<path class="st2" d="M25,104.5l3.4-3.8c1.4,1.5,2.8,2.5,4.5,2.5c2,0,3.3-1.2,3.3-4.1V83.2h5.6v16.1c0.1,2.4-0.7,4.8-2.3,6.6
							c-1.7,1.6-4,2.4-6.4,2.3C29.9,108.3,27,106.9,25,104.5z"/>
						<path class="st2" d="M46.9,97.3V83.2h5.4v13.9c0,4,2,6.1,5.3,6.1s5.3-2,5.3-5.9V83.2h5.4v13.9c0,7.5-4.2,11.1-10.8,11.1
							S46.9,104.5,46.9,97.3z"/>
						<path class="st2" d="M72.2,104.2l3.2-3.8c2,1.9,4.6,2.9,7.3,3c2.2,0,3.6-0.9,3.6-2.3V101c0-1.4-0.8-2.1-5-3.1
							c-5-1.3-8.2-2.6-8.2-7.5v-0.1c0-4.5,3.6-7.4,8.6-7.4c3.4-0.1,6.6,1.1,9.2,3.1l-2.8,4.1c-1.8-1.4-4.1-2.3-6.4-2.4
							c-2.1,0-3.2,0.9-3.2,2.1v0.1c0,1.6,1.1,2.2,5.3,3.2c5,1.3,7.8,3.1,7.8,7.4v0.1c0,4.9-3.7,7.6-9,7.6
							C78.9,108.2,75.1,106.8,72.2,104.2z"/>
						<path class="st2" d="M101.6,88.2h-7.5v-5h20.4v5H107v19.6h-5.4V88.2z"/>
					</g>
				</g>
				<g id="cta">
					<g>
						<defs>
							<rect id="SVGID_3_" x="19.6" y="201" width="124.6" height="38.1"/>
						</defs>
						<clipPath id="SVGID_4_">
							<use xlink:href="#SVGID_3_"  style="overflow:visible;"/>
						</clipPath>
						<g class="st3">
							<g>
								<defs>
									<rect id="SVGID_5_" x="25" y="206.4" width="114" height="27.4"/>
								</defs>
								<clipPath id="SVGID_6_">
									<use xlink:href="#SVGID_5_"  style="overflow:visible;"/>
								</clipPath>
								<g class="st4">
									
										<linearGradient id="cta-glow_1_" gradientUnits="userSpaceOnUse" x1="12.8799" y1="392.2702" x2="-105.28" y2="365.7402" gradientTransform="matrix(1 0 0 -1 0 602)">
										<stop  offset="0" style="stop-color:#000000"/>
										<stop  offset="0.24" style="stop-color:#FFFFFF"/>
										<stop  offset="0.46" style="stop-color:#000000"/>
										<stop  offset="0.71" style="stop-color:#FFFFFF"/>
										<stop  offset="1" style="stop-color:#000000"/>
									</linearGradient>
									<rect id="cta-glow" x="-287.8" y="163.3" class="st5" width="464.6" height="123.6"/>
								</g>
							</g>
							<g id="Learn_more">
								<g>
									<path class="st2" d="M48,215.5h2.3v6.5h4.1v2.1H48V215.5z"/>
									<path class="st2" d="M55.1,220.8L55.1,220.8c-0.1-1.8,1.3-3.4,3.2-3.4c0.1,0,0.1,0,0.2,0c2.3,0,3.3,1.7,3.3,3.6
										c0,0.1,0,0.3,0,0.5h-4.4c0.1,0.7,0.8,1.1,1.4,1.1c0.6,0,1.1-0.3,1.5-0.7l1.3,1.1c-0.7,0.9-1.7,1.4-2.8,1.3
										c-1.8,0.1-3.4-1.3-3.5-3.1C55.1,221,55.1,220.9,55.1,220.8z M59.6,220.2c0-0.6-0.5-1.2-1.1-1.2c0,0,0,0,0,0
										c-0.6,0-1,0.5-1.1,1.2L59.6,220.2z"/>
									<path class="st2" d="M62.4,222.2L62.4,222.2c0-1.4,1-2.1,2.6-2.1c0.5,0,1.1,0.1,1.6,0.3v-0.1c0-0.7-0.4-1.1-1.3-1.1
										c-0.6,0-1.2,0.1-1.8,0.4l-0.5-1.6c0.8-0.4,1.7-0.5,2.7-0.5c0.9-0.1,1.8,0.2,2.5,0.8c0.5,0.6,0.8,1.3,0.7,2.1v3.8h-2.3v-0.7
										c-0.5,0.5-1.2,0.9-1.9,0.8c-1.1,0.1-2.1-0.7-2.2-1.8C62.4,222.4,62.4,222.3,62.4,222.2z M66.6,221.7v-0.3
										c-0.3-0.1-0.6-0.2-0.9-0.2c-0.7,0-1.1,0.3-1.1,0.8l0,0c0,0.4,0.3,0.7,0.7,0.7c0,0,0.1,0,0.1,0
										C66,222.8,66.5,222.3,66.6,221.7C66.6,221.7,66.6,221.7,66.6,221.7z"/>
									<path class="st2" d="M70.1,217.5h2.3v1.3c0.3-0.9,1.1-1.5,2.1-1.4v2.4h-0.2c-1.2,0-1.9,0.7-1.9,2.2v2h-2.3V217.5z"/>
									<path class="st2" d="M75.4,217.5h2.3v0.9c0.4-0.7,1.2-1.1,2-1.1c1.2-0.1,2.2,0.9,2.3,2c0,0.1,0,0.3,0,0.4v4.3h-2.3v-3.6
										c0-0.7-0.4-1.1-0.9-1.1c-0.6,0-1,0.4-1,1c0,0,0,0.1,0,0.1v3.6h-2.3V217.5z"/>
									<path class="st2" d="M86.6,215.5h2.5l2,3.3l2-3.3h2.5v8.5h-2.3v-4.9l-2.2,3.3h-0.1l-2.2-3.3v4.9h-2.3V215.5z"/>
									<path class="st2" d="M96.9,220.8L96.9,220.8c0-1.9,1.6-3.5,3.6-3.4c0,0,0.1,0,0.1,0c1.9-0.1,3.5,1.4,3.6,3.3
										c0,0,0,0.1,0,0.1l0,0c-0.1,2-1.8,3.5-3.8,3.4C98.5,224.1,97,222.6,96.9,220.8L96.9,220.8z M101.9,220.8L101.9,220.8
										c0-0.8-0.6-1.5-1.4-1.5c0,0,0,0,0,0c-0.8,0-1.4,0.6-1.4,1.4c0,0,0,0.1,0,0.1l0,0c0,0.8,0.6,1.4,1.4,1.5c0,0,0,0,0,0
										c0.8,0,1.4-0.6,1.4-1.3C101.9,220.9,101.9,220.8,101.9,220.8L101.9,220.8z"/>
									<path class="st2" d="M105.2,217.5h2.3v1.3c0.3-0.9,1.1-1.5,2.1-1.4v2.4h-0.2c-1.2,0-1.9,0.7-1.9,2.2v2h-2.3V217.5z"/>
									<path class="st2" d="M110.2,220.8L110.2,220.8c-0.1-1.8,1.3-3.4,3.2-3.4c0.1,0,0.1,0,0.2,0c2.3,0,3.3,1.7,3.3,3.6
										c0,0.1,0,0.3,0,0.5h-4.4c0.1,0.7,0.7,1.1,1.4,1.1c0.6,0,1.1-0.3,1.5-0.7l1.3,1.1c-0.7,0.9-1.7,1.4-2.9,1.3
										c-1.8,0.1-3.4-1.2-3.5-3.1C110.1,221,110.1,220.9,110.2,220.8z M114.6,220.2c-0.1-0.7-0.5-1.2-1.2-1.2s-1,0.5-1.1,1.2
										H114.6z"/>
								</g>
							</g>
							<rect id="Rectangle_5685-2" x="25" y="206.4" class="st6" width="114" height="27.4"/>
						</g>
					</g>
				</g>
			</g>
		</g>
	</g>
	<g id="Logo">
		<path id="chevon_shape" class="st2" d="M159.4,495.6H96.5l-18.4,29h81.3L159.4,495.6z"/>
		<g id="Grupo_12756">
			<g id="Group_2">
				<path id="X" class="st7" d="M142.1,515l-1.3,1.4l-1.3-1.4h-0.7l1.6,1.8l-2,2.1h0.7l1.6-1.8l1.6,1.8h0.8l-1.9-2.1l1.6-1.8H142.1z
					"/>
				<rect id="I" x="135.1" y="515" class="st7" width="0.6" height="3.9"/>
				<path id="N" class="st7" d="M131.1,515v3.1l-2.8-3.1h-0.6v3.9h0.6v-3.1l2.8,3.1h0.6V515H131.1z"/>
				<rect id="I-2" x="123.8" y="515" class="st7" width="0.6" height="3.9"/>
				<path id="U" class="st7" d="M120.1,517.3c0,0.6-0.4,1.1-1,1.2h-0.1c-0.6,0-1.1-0.4-1.1-1c0,0,0-0.1,0-0.2V515h-0.6v2.4
					c0,0.9,0.6,1.6,1.5,1.7c0,0,0,0,0,0h0.2c0.9,0.1,1.6-0.6,1.7-1.4c0-0.1,0-0.2,0-0.2V515h-0.6L120.1,517.3z"/>
				<path id="Q" class="st7" d="M112.3,514.8c-1.1,0-2,0.9-2.1,2v0.1l0,0c0,1.1,0.8,2,1.9,2.1c0,0,0.1,0,0.1,0h0.1
					c0.3,0,0.6-0.1,0.9-0.2l0.3,0.4h0.7l-0.6-0.7c0.5-0.4,0.8-1,0.7-1.6l0,0c0-1.1-0.8-2-1.9-2.1c0,0-0.1,0-0.1,0L112.3,514.8
					 M113.8,516.9c0,0.5-0.2,0.9-0.5,1.2l-0.3-0.4h-0.7l0.5,0.6c-0.2,0.1-0.4,0.1-0.6,0.1c-0.8,0-1.5-0.7-1.5-1.5l0,0v-0.1l0,0
					c-0.1-0.8,0.5-1.5,1.4-1.6c0,0,0,0,0,0h0.1C113.1,515.3,113.8,516,113.8,516.9L113.8,516.9L113.8,516.9L113.8,516.9z"/>
				<path id="E" class="st7" d="M104.5,515v3.9h3.5v-0.5h-3v-1.3h1.9v-0.5H105v-1.1h2.8V515H104.5z"/>
			</g>
			<g id="icon_group">
				<path id="icon" class="st8" d="M124.1,500.5l-1.6,0.6v8.4l-1.1-0.4v-7.7l-3.2,1.1v5.4l-1.1-0.4V503l-1.1,0.4v5.1l3.2,1.1v-6.2
					l1.1-0.4v6.9l3.2,1.1v-9.2l0.5-0.2l0.5,0.2v9.1l3.2-1.1V503l1.1,0.4v6.2l3.2-1.1v-5.1L131,503v4.7l-1,0.3v-5.4l-3.2-1.1v7.7
					l-1.1,0.4v-8.4L124.1,500.5z"/>
				<path id="R" class="st8" d="M134.2,508c0.6,0,1-0.4,1-1l0,0c0.1-0.5-0.2-1.1-0.7-1.2c-0.5-0.1-1.1,0.2-1.2,0.7
					c0,0.2,0,0.4,0,0.5l0,0C133.2,507.6,133.7,508,134.2,508L134.2,508 M134.2,507.9c-0.5,0-0.9-0.4-0.9-0.9l0,0
					c0.1-0.5,0.6-0.7,1.1-0.6c0.3,0.1,0.5,0.3,0.6,0.5v0.1l0,0C135,507.5,134.6,507.9,134.2,507.9L134.2,507.9 M133.8,507.5h0.2
					v-0.3h0.1l0.2,0.3h0.3l-0.2-0.4c0.1,0,0.2-0.2,0.2-0.3c0-0.2-0.2-0.3-0.4-0.3h-0.5V507.5z M134,507v-0.3h0.2
					c0.1,0,0.2,0,0.2,0.1s-0.1,0.1-0.2,0.1L134,507z"/>
			</g>
		</g>
	</g>
	<g id="purestorage_logo">
		<g id="Group-28">
			<g id="Group-3">
				<path id="Fill-1" class="st9" d="M18.9,515h-2.8c-0.6,0-1.1-0.3-1.4-0.8l-2.3-4.1c-0.3-0.5-0.3-1.1,0-1.6l2.3-4.1
					c0.3-0.5,0.8-0.8,1.4-0.8h4.7c0.6,0,1.1,0.3,1.4,0.8l2.4,4.1c0.3,0.5,0.3,1.1,0,1.6l-0.6,1c-0.3,0.5-0.8,0.8-1.4,0.8h-2.8
					l1.5-2.6l-1.4-2.5H17l-1.4,2.5L18.9,515z"/>
			</g>
			<path id="Fill-4" class="st10" d="M29.3,509.3c0.5,0,0.8-0.2,0.8-0.7s-0.3-0.7-0.8-0.7H29v1.3H29.3z M29,512h-1.3v-5.1h1.9
				c1.2,0,1.9,0.5,1.9,1.6s-0.9,1.8-2.1,1.8H29V512z"/>
			<path id="Fill-6" class="st10" d="M33.5,506.9v3.2c0,0.6,0.3,0.7,0.7,0.7c0.3,0,0.6-0.2,0.7-0.6c0,0,0-0.1,0-0.1v-3.3h1.3v3.4
				c0,1-0.8,1.6-2,1.6s-2-0.5-2-1.7v-3.3L33.5,506.9z"/>
			<path id="Fill-8" class="st10" d="M41.8,506.9h3.3v1.1h-2v0.8h1.7v1.2h-1.7v0.9h2.1v1.1h-3.4V506.9z"/>
			<path id="Fill-10" class="st10" d="M46.3,511c0.4,0.3,0.9,0.4,1.4,0.4c0.5,0,1.1-0.2,1.1-0.9c0-0.6-0.5-0.8-1.1-1
				s-1.5-0.5-1.5-1.4c0-0.8,0.7-1.4,1.5-1.4c0.1,0,0.1,0,0.2,0c0.6,0,1.2,0.3,1.7,0.7l-0.3,0.4c-0.4-0.3-0.8-0.5-1.3-0.6
				c-0.4,0-1,0.2-1,0.8s0.5,0.8,1.2,1s1.4,0.5,1.4,1.5s-0.6,1.5-1.7,1.5c-0.6,0-1.1-0.2-1.6-0.5L46.3,511z"/>
			<path id="Fill-12" class="st10" d="M53.6,506.9v0.5h-1.5v4.6h-0.6v-4.6H50v-0.5L53.6,506.9z"/>
			<path id="Fill-14" class="st10" d="M56.1,511.5c1.1,0,1.4-1,1.4-2.1s-0.3-2.1-1.4-2.1s-1.5,1.1-1.5,2.1S54.8,511.5,56.1,511.5
				 M56.1,512c-1.3,0-2-0.9-2-2.6c0-2,1.1-2.6,2.1-2.6s2,0.7,2,2.6C58.1,511.1,57.3,512,56.1,512"/>
			<path id="Fill-16" class="st10" d="M64.4,509.9h1.7l-0.9-2.5L64.4,509.9z M63.2,512l1.8-5.1h0.7l1.8,5.1h-0.6l-0.6-1.6h-2
				l-0.5,1.6H63.2z"/>
			<path id="Fill-18" class="st10" d="M71.4,511.5c-0.5,0.3-1.1,0.5-1.6,0.5c-1.3,0-2.1-0.9-2.1-2.6c0-2,1.1-2.6,2.1-2.6
				c0.7,0,1.3,0.3,1.7,0.8l-0.4,0.4c-0.3-0.4-0.7-0.6-1.2-0.6c-0.9,0-1.5,0.8-1.5,2.1s0.5,2.2,1.6,2.2c0.4,0,0.7-0.1,1-0.3v-1.5
				h-1.1v-0.5h1.7L71.4,511.5z"/>
			<path id="Fill-20" class="st10" d="M72.6,506.9h2.8v0.5h-2.2v1.7H75v0.5h-1.9v1.8h2.2v0.5h-2.8V506.9z"/>
			<path id="Fill-22" class="st10" d="M60.4,509.6h-0.8v-2.2h0.7c0.9,0,1.5,0.1,1.5,1.1C61.8,509.3,61.2,509.6,60.4,509.6z
				 M61.9,510.4c-0.1-0.3-0.2-0.4-0.3-0.5c0.6-0.3,1-0.9,0.9-1.5c0-1-0.7-1.5-1.7-1.5H59v5.1h0.6v-1.9h1.1c0.3,0,0.5,0.2,0.6,0.5
				L62,512h0.7L61.9,510.4z"/>
			<path id="Fill-24" class="st10" d="M38.3,509.3v-1.3h0.4c0.5,0,0.7,0.1,0.7,0.7s-0.3,0.7-0.8,0.7H38.3z M40.3,510.4
				c-0.1-0.2-0.2-0.3-0.3-0.4c0.5-0.3,0.8-0.9,0.8-1.5c0-1-0.7-1.6-1.9-1.6h-1.8v5.1h1.3v-1.7h0.3c0.2,0,0.3,0.1,0.4,0.3l0.6,1.4H41
				L40.3,510.4z"/>
			<path id="Fill-26" class="st10" d="M76.4,507.3c0.1,0,0.2,0,0.2-0.1s-0.1-0.1-0.2-0.1h-0.2v0.2H76.4z M76.3,507.8h-0.1V507h0.3
				c0.2,0,0.3,0.1,0.3,0.2c0,0.1-0.1,0.2-0.2,0.2c0,0,0,0,0,0l0,0l0.2,0.3h-0.1l-0.2-0.3h-0.1L76.3,507.8z M76.4,506.8
				c-0.3,0-0.6,0.2-0.6,0.5c-0.1,0.3,0.1,0.6,0.4,0.6c0.3,0.1,0.6-0.1,0.6-0.4c0,0,0-0.1,0-0.1l0,0
				C76.9,507.1,76.7,506.9,76.4,506.8C76.4,506.9,76.4,506.9,76.4,506.8L76.4,506.8z M76.4,508c-0.4,0-0.7-0.3-0.7-0.6
				s0.3-0.7,0.6-0.7s0.7,0.3,0.7,0.6c0,0,0,0,0,0l0,0C77.1,507.7,76.8,508,76.4,508L76.4,508z"/>
		</g>
	</g>
</g>
</svg>
