<?xml version="1.0" encoding="utf-8"?>
<!-- Generator: Adobe Illustrator 25.2.1, SVG Export Plug-In . SVG Version: 6.00 Build 0)  -->
<svg version="1.1" id="Layer_1" xmlns="http://www.w3.org/2000/svg" xmlns:xlink="http://www.w3.org/1999/xlink" x="0px" y="0px"
	 viewBox="0 0 300 600" style="enable-background:new 0 0 300 600;" xml:space="preserve">
<style type="text/css">
	.st0{clip-path:url(#SVGID_2_);}
	.st1{opacity:0.95;fill:url(#bg-light_1_);enable-background:new    ;}
	.st2{fill:url(#Elipse_70_1_);}
	.st3{fill:#FFFFFF;}
	.st4{clip-path:url(#SVGID_4_);}
	.st5{clip-path:url(#SVGID_6_);}
	.st6{opacity:0.29;fill:url(#cta-glow_1_);enable-background:new    ;}
	.st7{fill:none;stroke:#FFFFFF;stroke-width:0.97;stroke-miterlimit:10;}
	.st8{fill:#030504;}
	.st9{fill:#E4001B;}
</style>
<g id="_300x600">
	<g>
		<defs>
			<rect id="SVGID_1_" width="300" height="600"/>
		</defs>
		<clipPath id="SVGID_2_">
			<use xlink:href="#SVGID_1_"  style="overflow:visible;"/>
		</clipPath>
		<g class="st0">
			<g id="BG">
				
					<image style="overflow:visible;enable-background:new    ;" width="1740" height="1731" id="GettyImages-561860327" xlink:href="awareness.jpg"  transform="matrix(0.4089 0 0 0.4089 -209.3699 -57.5196)">
				</image>
				
					<radialGradient id="bg-light_1_" cx="-446.483" cy="1107.6003" r="0.41" gradientTransform="matrix(542.92 0 0 563.83 242538.8281 -624181.125)" gradientUnits="userSpaceOnUse">
					<stop  offset="0" style="stop-color:#FFFFFF"/>
					<stop  offset="0.26" style="stop-color:#FFFFFF;stop-opacity:0.68"/>
					<stop  offset="0.53" style="stop-color:#FFFFFF;stop-opacity:0.39"/>
					<stop  offset="0.75" style="stop-color:#FFFFFF;stop-opacity:0.18"/>
					<stop  offset="0.91" style="stop-color:#FFFFFF;stop-opacity:5.000000e-02"/>
					<stop  offset="1" style="stop-color:#FFFFFF;stop-opacity:0"/>
				</radialGradient>
				<ellipse id="bg-light" class="st1" cx="156.6" cy="326.2" rx="246.3" ry="255.8"/>
				
					<image style="overflow:visible;enable-background:new    ;" width="1035" height="847" id="keyshadow" xlink:href="awareness32.png"  transform="matrix(0.2879 0 0 0.2851 10.06 368)">
				</image>
				
					<radialGradient id="Elipse_70_1_" cx="-499.4117" cy="1171.3199" r="0.38" gradientTransform="matrix(129.6595 -12.4568 113.2887 11.6695 -67794.6328 -19446.5996)" gradientUnits="userSpaceOnUse">
					<stop  offset="0" style="stop-color:#000000"/>
					<stop  offset="0.63" style="stop-color:#040404;stop-opacity:0.97"/>
					<stop  offset="1" style="stop-color:#808080;stop-opacity:0"/>
				</radialGradient>
				<path id="Elipse_70" class="st2" d="M73.3,442.5c0.1-4.2,34.5-7,76.8-6.3s76.6,4.7,76.6,8.9s-34.5,7-76.8,6.3
					S73.2,446.7,73.3,442.5z"/>
				
					<image style="overflow:visible;enable-background:new    ;" width="1922" height="2733" id="PT200827_001C1" xlink:href="awareness33.png"  transform="matrix(8.000000e-02 0 0 8.000000e-02 77.16 250)">
				</image>
				
					<image style="overflow:visible;enable-background:new    ;" width="1721" height="1721" id="shine1_300x" xlink:href="awareness34.png"  transform="matrix(4.000000e-02 0 0 4.000000e-02 58.46 267.87)">
				</image>
			</g>
			<g id="f2">
				<g id="_70_Less_Hardware_Spend_84_Faster_Time_To_Market_">
					<g>
						<path class="st3" d="M47.3,61.9h-9.2v-3.7h14.1v3.2l-8.8,16.4h-4.9L47.3,61.9z"/>
						<path class="st3" d="M54.5,68L54.5,68c0-5.7,3.5-10.1,8.7-10.1s8.7,4.4,8.7,10.1V68c0,5.7-3.5,10.1-8.7,10.1
							S54.5,73.7,54.5,68z M67.5,68L67.5,68c0-3.6-1.7-6.2-4.3-6.2s-4.3,2.6-4.3,6.2V68c0,3.6,1.7,6.2,4.3,6.2S67.5,71.6,67.5,68
							L67.5,68z"/>
						<path class="st3" d="M74.7,63L74.7,63c-0.1-2.6,1.9-4.9,4.5-5c0.1,0,0.2,0,0.2,0c2.6,0,4.7,2.1,4.7,4.7c0,0.1,0,0.2,0,0.3l0,0
							c0.1,2.6-1.9,4.9-4.6,5c-0.1,0-0.1,0-0.2,0c-2.6,0-4.7-2.1-4.7-4.7C74.7,63.2,74.7,63.1,74.7,63z M90.9,58.2h3.3L80,77.8h-3.4
							L90.9,58.2z M81.3,63L81.3,63c0-1.3-0.7-2.5-1.8-2.5s-1.8,1.1-1.8,2.4v0c0,1.3,0.7,2.5,1.8,2.5S81.3,64.3,81.3,63z M86.7,73
							L86.7,73c-0.1-2.6,1.9-4.9,4.5-5c0.1,0,0.2,0,0.2,0c2.6,0,4.7,2.1,4.7,4.7c0,0.1,0,0.2,0,0.3l0,0c0.1,2.6-1.9,4.9-4.6,5
							c-0.1,0-0.1,0-0.2,0c-2.6,0-4.7-2.1-4.7-4.7C86.7,73.2,86.7,73.1,86.7,73z M93.3,73L93.3,73c0-1.3-0.7-2.5-1.8-2.5
							s-1.8,1.1-1.8,2.4V73c0,1.3,0.7,2.5,1.8,2.5S93.3,74.3,93.3,73z"/>
						<path class="st3" d="M108.2,58.2h4.3v15.7h9.8v3.9h-14.1V58.2z"/>
						<path class="st3" d="M124.1,70.3L124.1,70.3c0-4.3,3.1-7.9,7.4-7.9c5,0,7.3,3.9,7.3,8.1c0,0.3,0,0.7,0,1.1h-10.5
							c0.3,1.8,1.9,3,3.6,2.9c1.4,0,2.7-0.5,3.6-1.5l2.4,2.2c-2.8,3.4-7.8,3.8-11.2,1C125.1,74.8,124.1,72.6,124.1,70.3L124.1,70.3z
							 M134.7,69.1c-0.2-1.9-1.4-3.2-3.2-3.2s-2.9,1.3-3.2,3.2H134.7z"/>
						<path class="st3" d="M140.8,75.8l1.8-2.8c1.4,1.1,3,1.7,4.7,1.8c1.2,0,1.8-0.4,1.8-1.1v-0.1c0-0.9-1.4-1.2-3.1-1.7
							c-2.1-0.6-4.5-1.6-4.5-4.5v-0.1c0-3.1,2.5-4.8,5.5-4.8c2,0,3.9,0.6,5.6,1.7l-1.6,2.9c-1.2-0.8-2.6-1.3-4.1-1.4
							c-1,0-1.6,0.4-1.6,1v0.1c0,0.8,1.4,1.2,3,1.8c2.1,0.7,4.5,1.7,4.5,4.5l0,0c0,3.3-2.5,4.8-5.7,4.8
							C144.9,78,142.7,77.2,140.8,75.8z"/>
						<path class="st3" d="M154.6,75.8l1.8-2.8c1.4,1.1,3,1.7,4.7,1.8c1.2,0,1.8-0.4,1.8-1.1v-0.1c0-0.9-1.5-1.2-3.1-1.7
							c-2.1-0.6-4.5-1.6-4.5-4.5v-0.1c0-3.1,2.5-4.8,5.5-4.8c2,0,3.9,0.6,5.6,1.7l-1.6,2.9c-1.2-0.8-2.6-1.3-4.1-1.4
							c-1,0-1.6,0.4-1.6,1v0.1c0,0.8,1.4,1.2,3,1.8c2.1,0.7,4.5,1.7,4.5,4.5l0,0c0,3.3-2.5,4.8-5.7,4.8
							C158.7,78,156.5,77.2,154.6,75.8z"/>
					</g>
					<g>
						<path class="st3" d="M38.6,88.2h4.3v7.8h8v-7.8h4.3v19.6h-4.4v-7.9h-8v7.9h-4.3V88.2z"/>
						<path class="st3" d="M58.5,103.4L58.5,103.4c0-3.3,2.5-4.8,6-4.8c1.3,0,2.5,0.2,3.7,0.6V99c0-1.8-1.1-2.7-3.2-2.7
							c-1.4,0-2.8,0.3-4.2,0.8l-1.1-3.2c1.8-0.8,3.8-1.2,5.8-1.2c1.8-0.1,3.7,0.5,5.1,1.7c1.2,1.3,1.8,3,1.6,4.8v8.7h-4.1v-1.6
							c-1.2,1.3-2.8,2-4.5,1.9C60.8,108.1,58.5,106.4,58.5,103.4z M68.3,102.4v-0.8c-0.9-0.4-1.8-0.6-2.7-0.6
							c-1.8,0-2.9,0.7-2.9,2.1l0,0c0,1.2,1,1.8,2.3,1.8C66.9,105.1,68.3,104,68.3,102.4L68.3,102.4z"/>
						<path class="st3" d="M76,92.8h4.3v3c0.9-2.1,2.3-3.4,4.8-3.3v4.4h-0.2c-2.8,0-4.6,1.7-4.6,5.3v5.6H76V92.8z"/>
						<path class="st3" d="M86.7,100.3L86.7,100.3c0-5.1,3.3-7.8,6.8-7.8c1.8,0,3.6,0.8,4.7,2.2v-7.4h4.3v20.4h-4.3v-2.2
							c-1,1.6-2.8,2.5-4.7,2.4C90.1,108.1,86.7,105.3,86.7,100.3z M98.3,100.3L98.3,100.3c0-2.5-1.7-4.2-3.6-4.2s-3.6,1.6-3.6,4.1
							v0.1c-0.2,2.1,1.4,4,3.5,4.1c0.1,0,0.1,0,0.2,0C96.6,104.4,98.3,102.8,98.3,100.3z"/>
						<path class="st3" d="M105.1,92.8h4.3l2.4,9.1l2.8-9.2h3.7l2.9,9.2l2.5-9.1h4.2l-4.7,15.1h-3.8l-2.9-9.2l-2.9,9.2h-3.8
							L105.1,92.8z"/>
						<path class="st3" d="M128.9,103.4L128.9,103.4c0-3.3,2.5-4.8,6.1-4.8c1.3,0,2.5,0.2,3.7,0.6V99c0-1.8-1.1-2.7-3.2-2.7
							c-1.4,0-2.8,0.3-4.1,0.8l-1.1-3.2c1.8-0.8,3.8-1.2,5.8-1.2c1.8-0.1,3.7,0.5,5.1,1.7c1.2,1.3,1.7,3,1.6,4.8v8.7h-4.1v-1.6
							c-1.2,1.3-2.8,2-4.5,1.9C131.3,108.1,128.9,106.4,128.9,103.4z M138.7,102.4v-0.8c-0.9-0.4-1.8-0.6-2.7-0.6
							c-1.8,0-2.9,0.7-2.9,2.1l0,0c0,1.2,0.9,1.8,2.3,1.8C137.4,105.1,138.7,104,138.7,102.4L138.7,102.4z"/>
						<path class="st3" d="M146.4,92.8h4.3v3c0.9-2.1,2.3-3.4,4.8-3.3v4.4h-0.2c-2.8,0-4.6,1.7-4.6,5.3v5.6h-4.3V92.8z"/>
						<path class="st3" d="M157,100.3L157,100.3c0-4.3,3.1-7.9,7.4-7.9c5,0,7.3,3.9,7.3,8.2c0,0.3,0,0.7-0.1,1.1h-10.5
							c0.3,1.8,1.9,3.1,3.7,2.9c1.4,0,2.7-0.5,3.6-1.5l2.4,2.2c-2.8,3.4-7.8,3.8-11.2,1C158,104.8,157,102.6,157,100.3L157,100.3z
							 M167.6,99.1c-0.2-1.9-1.4-3.2-3.2-3.2s-2.9,1.3-3.2,3.2H167.6z"/>
						<path class="st3" d="M182.4,104.9l2.6-3c1.6,1.5,3.7,2.3,5.9,2.4c1.8,0,2.8-0.7,2.8-1.8v-0.1c0-1.1-0.7-1.7-4-2.5
							c-3.9-1-6.5-2.1-6.5-6v-0.1c0-3.6,2.9-5.9,6.9-5.9c2.6,0,5.2,0.8,7.3,2.5l-2.2,3.2c-1.5-1.1-3.2-1.8-5.1-1.9
							c-1.6,0-2.5,0.8-2.5,1.7v0.1c0,1.3,0.8,1.7,4.2,2.6c4,1,6.2,2.5,6.2,5.9v0.1c0,3.9-3,6.1-7.2,6.1
							C187.6,108.1,184.6,106.9,182.4,104.9z"/>
						<path class="st3" d="M201.2,92.8h4.3v2.2c1-1.6,2.8-2.5,4.7-2.4c3.5,0,6.8,2.7,6.8,7.8v0.1c0,5-3.3,7.8-6.8,7.8
							c-1.8,0-3.6-0.8-4.7-2.2v6.4h-4.3V92.8z M212.7,100.3L212.7,100.3c0.2-2.2-1.4-4-3.5-4.2c-0.1,0-0.1,0-0.2,0
							c-2,0-3.6,1.7-3.6,4.1v0.1c0,2.5,1.6,4.1,3.6,4.1S212.7,102.8,212.7,100.3L212.7,100.3z"/>
						<path class="st3" d="M219.4,100.3L219.4,100.3c0-4.3,3.1-7.9,7.4-7.9c5,0,7.3,3.9,7.3,8.2c0,0.3,0,0.7-0.1,1.1h-10.4
							c0.3,1.8,1.9,3.1,3.7,2.9c1.4,0,2.7-0.5,3.6-1.5l2.4,2.2c-2.8,3.4-7.8,3.8-11.2,1C220.4,104.8,219.3,102.6,219.4,100.3
							L219.4,100.3z M229.9,99.1c-0.2-1.9-1.4-3.2-3.2-3.2s-2.9,1.3-3.2,3.2H229.9z"/>
						<path class="st3" d="M237.2,92.8h4.3v2.1c1-1.5,2.6-2.4,4.4-2.4c3.2,0,5.1,2.1,5.1,5.6v9.7h-4.3v-8.4c0-2-0.9-3-2.6-3
							s-2.7,1-2.7,3v8.4h-4.3V92.8z"/>
						<path class="st3" d="M254,100.3L254,100.3c0-5.1,3.3-7.8,6.8-7.8c1.8,0,3.6,0.8,4.7,2.2v-7.4h4.3v20.4h-4.3v-2.2
							c-1,1.6-2.8,2.5-4.7,2.4C257.4,108.1,254,105.3,254,100.3z M265.6,100.3L265.6,100.3c0-2.5-1.6-4.2-3.6-4.2s-3.7,1.6-3.7,4.1
							v0.1c-0.2,2.1,1.4,4,3.5,4.1c0.1,0,0.1,0,0.2,0C263.9,104.4,265.6,102.8,265.6,100.3L265.6,100.3z"/>
					</g>
					<g>
						<path class="st3" d="M37.5,131.4L37.5,131.4c-0.1-2.2,1.2-4.1,3.2-4.8c-1.6-0.8-2.5-2.5-2.5-4.3v-0.1c0-3,2.7-5.4,6.9-5.4
							s6.9,2.3,6.9,5.4v0.1c0.1,1.8-0.9,3.4-2.5,4.3c2,1,3.2,2.3,3.2,4.6v0.1c0,3.6-3.2,5.8-7.6,5.8S37.5,134.8,37.5,131.4z
							 M48.4,131.1L48.4,131.1c0-1.6-1.4-2.5-3.4-2.5s-3.4,0.9-3.4,2.4v0.1c0,1.4,1.3,2.4,3.4,2.4S48.4,132.4,48.4,131.1z
							 M47.8,122.8L47.8,122.8c0-1.3-1-2.4-2.8-2.4s-2.8,1.1-2.8,2.3v0.1c0,1.4,1.2,2.5,2.6,2.4c0.1,0,0.1,0,0.2,0
							C46.7,125.2,47.8,124.2,47.8,122.8z"/>
						<path class="st3" d="M65,132.5h-9.6l-0.7-3.1L65.5,117h3.6v12h2.6v3.5h-2.6v4.2H65V132.5z M65,129v-6.1l-5.2,6.1L65,129z"/>
						<path class="st3" d="M74.4,122L74.4,122c-0.1-2.6,1.9-4.9,4.5-5c0.1,0,0.2,0,0.2,0c2.6,0,4.7,2.1,4.7,4.7c0,0.1,0,0.2,0,0.3
							l0,0c0.1,2.6-1.9,4.9-4.6,5c-0.1,0-0.1,0-0.2,0c-2.6,0-4.7-2.1-4.7-4.7C74.4,122.2,74.4,122.1,74.4,122z M90.7,117.2H94
							l-14.3,19.6h-3.3L90.7,117.2z M81,122L81,122c0-1.3-0.7-2.5-1.8-2.5s-1.8,1.1-1.8,2.4l0,0c0,1.3,0.7,2.5,1.8,2.5
							S81,123.3,81,122z M86.5,132L86.5,132c-0.1-2.6,1.9-4.9,4.5-5c0.1,0,0.2,0,0.2,0c2.6,0,4.7,2.1,4.8,4.7c0,0.1,0,0.2,0,0.3v0.1
							c0.1,2.6-1.9,4.9-4.6,5c-0.1,0-0.1,0-0.2,0c-2.6,0-4.7-2-4.8-4.6C86.4,132.2,86.4,132.1,86.5,132L86.5,132z M93,132L93,132
							c0-1.3-0.7-2.5-1.8-2.5s-1.8,1.1-1.8,2.4v0.1c0,1.3,0.7,2.5,1.8,2.5S93,133.3,93,132z"/>
						<path class="st3" d="M108,117.2h14.9v3.9h-10.6v4.2h9.3v3.9h-9.3v7.6H108V117.2z"/>
						<path class="st3" d="M124.3,132.4L124.3,132.4c0-3.3,2.5-4.8,6-4.8c1.3,0,2.5,0.2,3.7,0.6V128c0-1.8-1.1-2.7-3.2-2.7
							c-1.4,0-2.8,0.3-4.2,0.8l-1.1-3.2c1.8-0.8,3.8-1.2,5.8-1.2c1.8-0.1,3.7,0.5,5.1,1.7c1.2,1.3,1.8,3,1.6,4.8v8.7H134v-1.6
							c-1.2,1.3-2.8,2-4.5,1.9C126.6,137.1,124.3,135.4,124.3,132.4z M134.1,131.4v-0.8c-0.9-0.4-1.8-0.6-2.7-0.6
							c-1.8,0-2.9,0.7-2.9,2.1v0.1c0,1.1,1,1.8,2.3,1.8C132.7,134.1,134.1,133,134.1,131.4L134.1,131.4z"/>
						<path class="st3" d="M140.6,134.8l1.8-2.8c1.4,1.1,3,1.7,4.7,1.8c1.2,0,1.8-0.4,1.8-1.1v-0.1c0-0.9-1.4-1.2-3.1-1.7
							c-2.1-0.6-4.5-1.6-4.5-4.5v-0.1c0-3.1,2.5-4.8,5.5-4.8c2,0,3.9,0.6,5.6,1.7l-1.6,2.9c-1.2-0.8-2.6-1.3-4.1-1.4
							c-1,0-1.6,0.4-1.6,1v0.1c0,0.8,1.4,1.2,3,1.8c2.1,0.7,4.5,1.7,4.5,4.5l0,0c0,3.3-2.5,4.9-5.7,4.9
							C144.7,137,142.4,136.2,140.6,134.8z"/>
						<path class="st3" d="M156.2,132.5v-7.1h-1.8v-3.6h1.8v-3.8h4.3v3.8h3.5v3.6h-3.5v6.4c0,1,0.4,1.5,1.4,1.5
							c0.7,0,1.5-0.2,2.1-0.5v3.4c-1,0.6-2.2,0.9-3.4,0.9C158,137,156.2,136,156.2,132.5z"/>
						<path class="st3" d="M166,129.4L166,129.4c0-4.3,3.1-7.9,7.4-7.9c5,0,7.3,3.9,7.3,8.1c0,0.3,0,0.7-0.1,1.1h-10.4
							c0.3,1.8,1.9,3.1,3.7,2.9c1.4,0,2.7-0.5,3.6-1.5l2.4,2.1c-2.8,3.4-7.8,3.8-11.2,1C167.1,133.8,166,131.6,166,129.4L166,129.4z
							 M176.6,128.1c-0.3-1.9-1.4-3.2-3.2-3.2s-2.9,1.3-3.2,3.2H176.6z"/>
						<path class="st3" d="M183.9,121.8h4.3v3c0.9-2.1,2.3-3.4,4.8-3.3v4.4h-0.2c-2.8,0-4.6,1.7-4.6,5.3v5.6h-4.3V121.8z"/>
					</g>
					<g>
						<path class="st3" d="M43.1,150.1h-6v-4h16.3v4h-6v15.6h-4.3V150.1z"/>
						<path class="st3" d="M56.1,145.3h4.5v3.8h-4.5V145.3z M56.2,150.8h4.2v15h-4.3L56.2,150.8z"/>
						<path class="st3" d="M64.4,150.8h4.2v2.1c1-1.5,2.6-2.4,4.4-2.4c1.8-0.1,3.4,0.8,4.2,2.4c1.2-1.5,3-2.4,4.9-2.4
							c3.2,0,5.1,1.9,5.1,5.5v9.8h-4.2v-8.4c0-2-0.9-3-2.5-3s-2.6,1-2.6,3v8.4h-4.3v-8.4c0-2-0.9-3-2.5-3s-2.6,1-2.6,3v8.4h-4.2
							V150.8z"/>
						<path class="st3" d="M90.3,158.4L90.3,158.4c0-4.3,3-7.9,7.4-7.9c5,0,7.3,3.9,7.3,8.1c0,0.3,0,0.7-0.1,1.1H94.5
							c0.3,1.8,1.9,3.1,3.7,2.9c1.4,0,2.7-0.5,3.6-1.5l2.4,2.1c-2.8,3.4-7.8,3.8-11.2,1C91.3,162.8,90.3,160.6,90.3,158.4
							L90.3,158.4z M100.9,157.1c-0.2-1.9-1.4-3.2-3.2-3.2s-2.9,1.3-3.2,3.2H100.9z"/>
						<path class="st3" d="M121.6,150.1h-6v-4h16.2v4h-6v15.6h-4.2V150.1z"/>
						<path class="st3" d="M131.1,158.4L131.1,158.4c0.2-4.5,4-8,8.5-7.8c4.2,0.2,7.5,3.5,7.7,7.7v0.1c0,4.4-3.6,7.9-7.9,7.8
							c-0.1,0-0.1,0-0.2,0c-4.3,0.2-7.9-3.2-8.1-7.5C131.1,158.5,131.1,158.4,131.1,158.4z M143.1,158.4L143.1,158.4
							c0.1-2.3-1.6-4.1-3.9-4.2c0,0-0.1,0-0.1,0c-2.1,0-3.9,1.7-3.9,3.8c0,0.1,0,0.2,0,0.3v0.1c-0.1,2.2,1.6,4.1,3.9,4.1
							c0,0,0.1,0,0.1,0c2.1,0.1,3.9-1.6,4-3.7C143.1,158.6,143.1,158.5,143.1,158.4L143.1,158.4z"/>
						<path class="st3" d="M159.2,146.2h4.6l5.1,8.3l5.2-8.3h4.6v19.6h-4.3V153l-5.5,8.3h-0.1l-5.5-8.3v12.7h-4.2L159.2,146.2z"/>
						<path class="st3" d="M182.2,161.4L182.2,161.4c0-3.3,2.5-4.8,6.1-4.8c1.3,0,2.5,0.2,3.7,0.6V157c0-1.8-1.1-2.7-3.2-2.7
							c-1.4,0-2.8,0.3-4.1,0.8l-1.1-3.2c1.8-0.8,3.8-1.2,5.8-1.2c1.8-0.1,3.7,0.5,5.1,1.7c1.2,1.3,1.8,3,1.6,4.8v8.7h-4.1v-1.6
							c-1.1,1.3-2.8,2-4.5,1.9C184.5,166.1,182.2,164.4,182.2,161.4z M192,160.4v-0.8c-0.9-0.4-1.8-0.6-2.7-0.6
							c-1.8,0-2.9,0.7-2.9,2.1v0.1c0,1.1,0.9,1.8,2.3,1.8C190.6,163.1,192,162,192,160.4L192,160.4z"/>
						<path class="st3" d="M199.7,150.8h4.2v3c0.9-2.1,2.3-3.4,4.8-3.3v4.4h-0.2c-2.8,0-4.6,1.7-4.6,5.3v5.6h-4.2L199.7,150.8z"/>
						<path class="st3" d="M211.4,145.3h4.3v10.9l5-5.5h5.1l-5.7,5.9l5.9,9.1H221l-3.9-6.1l-1.5,1.6v4.6h-4.3L211.4,145.3z"/>
						<path class="st3" d="M226.5,158.4L226.5,158.4c0-4.3,3-7.9,7.4-7.9c5,0,7.3,3.9,7.3,8.1c0,0.3,0,0.7-0.1,1.1h-10.4
							c0.3,1.8,1.9,3.1,3.7,2.9c1.4,0,2.7-0.5,3.6-1.5l2.4,2.1c-2.8,3.4-7.8,3.8-11.2,1C227.6,162.8,226.5,160.6,226.5,158.4
							L226.5,158.4z M237.1,157.1c-0.2-1.9-1.4-3.2-3.2-3.2s-2.9,1.3-3.2,3.2H237.1z"/>
						<path class="st3" d="M245.1,161.5v-7.1h-1.8v-3.6h1.8v-3.8h4.3v3.8h3.5v3.6h-3.5v6.4c0,1,0.4,1.5,1.4,1.5
							c0.7,0,1.5-0.2,2.1-0.5v3.4c-1,0.6-2.2,0.9-3.4,0.9C246.9,166,245.1,165,245.1,161.5z"/>
					</g>
				</g>
			</g>
			<g id="f3">
				<g id="c3">
					<g id="Just_add_metal">
						<g>
							<path class="st3" d="M32.2,83.1l5.2-4.9c1.4,1.7,2.7,2.7,4.5,2.7c2,0,3.3-1.4,3.3-4.1V58.5h8v18.4c0,3.6-0.9,6.2-2.8,8.2
								c-2.2,2-5,3.1-8,2.9C37.3,88,34.2,85.9,32.2,83.1z"/>
							<path class="st3" d="M58.2,74.8V58.5h8.2v16.1c0,4.2,2.1,6.2,5.3,6.2s5.3-1.9,5.3-6V58.5h8.2v16.1c0,9.4-5.3,13.5-13.6,13.5
								S58.2,83.9,58.2,74.8z"/>
							<path class="st3" d="M87.8,83.2l4.5-5.3c2.6,2.2,6,3.4,9.4,3.5c2.2,0,3.3-0.8,3.3-2v-0.1c0-1.2-1-1.9-4.9-2.8
								c-6.1-1.4-10.9-3.1-10.9-9.1v-0.1c0-5.4,4.3-9.3,11.2-9.3c4.3-0.2,8.5,1.2,11.9,3.9l-4,5.7c-2.4-1.7-5.2-2.7-8.1-2.9
								c-2,0-2.9,0.8-2.9,1.9v0.1c0,1.3,1,1.9,5,2.8c6.7,1.4,10.8,3.6,10.8,9v0.1c0,5.9-4.7,9.4-11.7,9.4
								C96.5,88.1,91.6,86.4,87.8,83.2z"/>
							<path class="st3" d="M123.8,65.6h-8.7v-7h25.4v7h-8.7v22h-8L123.8,65.6z"/>
						</g>
						<g>
							<path class="st3" d="M44.6,97h7.8l12.3,29.2h-8.6L54,121H42.8l-2.1,5.2h-8.5L44.6,97z M51.6,114.8l-3.2-8.2l-3.3,8.2H51.6z"
								/>
							<path class="st3" d="M67.4,97.2h11.2c10.3,0,16.4,6,16.4,14.3v0.1c0,8.4-6.1,14.6-16.5,14.6h-11L67.4,97.2z M78.7,119.1
								c4.8,0,8-2.7,8-7.3v-0.1c0-4.6-3.2-7.3-8-7.3h-3.3v14.8L78.7,119.1z"/>
							<path class="st3" d="M99.1,97.2h11.2c10.3,0,16.4,6,16.4,14.3v0.1c0,8.4-6.1,14.6-16.5,14.6h-11L99.1,97.2z M110.4,119.1
								c4.8,0,8-2.7,8-7.3v-0.1c0-4.6-3.2-7.3-8-7.3h-3.3v14.8L110.4,119.1z"/>
						</g>
						<g>
							<path class="st3" d="M34.6,135.9h8.5l6.9,11.2l6.9-11.2h8.5v29h-8v-16.7L50,159.6h-0.2l-7.4-11.3v16.6h-7.9V135.9z"/>
							<path class="st3" d="M71,135.9h23.3v6.8H79v4.4h13.9v6.3H79v4.6h15.6v6.8H71V135.9z"/>
							<path class="st3" d="M105.6,142.9h-8.7v-7h25.4v7h-8.7v22h-8L105.6,142.9z"/>
							<path class="st3" d="M132,135.7h7.7l12.4,29.2h-8.6l-2.1-5.2h-11.2l-2.1,5.2h-8.4L132,135.7z M139,153.4l-3.2-8.2l-3.3,8.2
								H139z"/>
							<path class="st3" d="M154.7,135.9h8v22h14v7h-22V135.9z"/>
						</g>
					</g>
				</g>
				<g id="cta">
					<g>
						<defs>
							<rect id="SVGID_3_" x="31.8" y="180.6" width="135" height="32.4"/>
						</defs>
						<clipPath id="SVGID_4_">
							<use xlink:href="#SVGID_3_"  style="overflow:visible;"/>
						</clipPath>
						<g class="st4">
							<g>
								<defs>
									<rect id="SVGID_5_" x="31.8" y="180.6" width="135" height="32.4"/>
								</defs>
								<clipPath id="SVGID_6_">
									<use xlink:href="#SVGID_5_"  style="overflow:visible;"/>
								</clipPath>
								<g class="st5">
									
										<linearGradient id="cta-glow_1_" gradientUnits="userSpaceOnUse" x1="17.4491" y1="417.354" x2="-122.5309" y2="385.924" gradientTransform="matrix(1 0 0 -1 0 602)">
										<stop  offset="0" style="stop-color:#000000"/>
										<stop  offset="0.24" style="stop-color:#FFFFFF"/>
										<stop  offset="0.46" style="stop-color:#000000"/>
										<stop  offset="0.71" style="stop-color:#FFFFFF"/>
										<stop  offset="1" style="stop-color:#000000"/>
									</linearGradient>
									<rect id="cta-glow" x="-338.7" y="129.6" class="st6" width="550.5" height="146.4"/>
								</g>
							</g>
							<g id="Learn_more">
								<g>
									<path class="st3" d="M50.4,200.1l1.5-1.8c0.9,0.7,2,1.2,3.2,1.2c0.7,0,1.1-0.2,1.1-0.7l0,0c0-0.4-0.3-0.6-1.7-0.9
										c-2.1-0.5-3.7-1.1-3.7-3.1l0,0c0-1.8,1.5-3.1,3.8-3.1c1.4,0,2.9,0.4,4,1.3l-1.4,1.9c-0.8-0.6-1.8-1-2.8-1
										c-0.7,0-1,0.3-1,0.6l0,0c0,0.4,0.3,0.6,1.7,1c2.3,0.5,3.7,1.2,3.7,3.1l0,0c0,2-1.6,3.2-4,3.2
										C53.2,201.8,51.6,201.2,50.4,200.1z"/>
									<path class="st3" d="M59.9,197.9L59.9,197.9c-0.1-2.1,1.5-3.9,3.6-4c0.1,0,0.1,0,0.2,0c2.6,0,3.8,1.9,3.8,4.2
										c0,0.2,0,0.4,0,0.6h-5.1c0.2,0.8,0.9,1.3,1.6,1.2c0.6,0,1.3-0.3,1.7-0.8l1.5,1.2c-0.8,1-2,1.6-3.3,1.6
										c-2.1,0.1-3.9-1.5-4.1-3.6C59.9,198.1,59.9,198,59.9,197.9z M65,197.2c-0.1-0.8-0.6-1.4-1.3-1.4s-1.2,0.6-1.3,1.4H65z"/>
									<path class="st3" d="M68.4,197.9L68.4,197.9c-0.1-2.1,1.5-3.9,3.6-4c0.1,0,0.1,0,0.2,0c2.6,0,3.8,1.9,3.8,4.2
										c0,0.2,0,0.4,0,0.6H71c0.2,0.8,0.9,1.3,1.6,1.2c0.6,0,1.3-0.3,1.7-0.8l1.5,1.2c-0.8,1-2,1.6-3.3,1.6
										c-2.1,0.1-3.9-1.5-4.1-3.6C68.4,198.1,68.4,198,68.4,197.9z M73.6,197.2c-0.1-0.8-0.6-1.4-1.3-1.4s-1.2,0.6-1.3,1.4H73.6z"
										/>
									<path class="st3" d="M83.7,194.2h-3v-2.4h8.6v2.4h-3v7.4h-2.6V194.2z"/>
									<path class="st3" d="M90.3,191.4H93v3.7c0.5-0.7,1.4-1.2,2.3-1.2c1.4-0.1,2.5,1,2.6,2.4c0,0.1,0,0.3,0,0.4v5h-2.6v-4.1
										c0-0.8-0.4-1.3-1.1-1.3c-0.6,0-1.1,0.5-1.2,1.1c0,0.1,0,0.1,0,0.2v4.1h-2.7V191.4z"/>
									<path class="st3" d="M99.1,197.9L99.1,197.9c-0.1-2.1,1.5-3.9,3.6-4c0.1,0,0.1,0,0.2,0c2.6,0,3.8,1.9,3.8,4.2
										c0,0.2,0,0.4,0,0.6h-5.1c0.2,0.8,0.9,1.3,1.6,1.2c0.7,0,1.3-0.3,1.7-0.8l1.5,1.2c-0.8,1-2,1.6-3.3,1.6
										c-2.1,0.2-3.9-1.4-4.1-3.5C99.1,198.1,99.1,198,99.1,197.9z M104.2,197.2c-0.1-0.8-0.6-1.4-1.3-1.4s-1.2,0.6-1.3,1.4H104.2
										z"/>
									<path class="st3" d="M111.2,200.1l1.5-1.8c0.9,0.7,2,1.2,3.2,1.2c0.7,0,1.1-0.2,1.1-0.7l0,0c0-0.4-0.3-0.6-1.7-0.9
										c-2.1-0.5-3.7-1.1-3.7-3.1l0,0c0-1.8,1.4-3.1,3.8-3.1c1.5-0.1,2.9,0.4,4.1,1.3l-1.4,1.9c-0.8-0.6-1.8-1-2.8-1
										c-0.7,0-1,0.3-1,0.6l0,0c0,0.4,0.3,0.6,1.7,1c2.3,0.5,3.7,1.2,3.7,3.1l0,0c0,2-1.6,3.2-4,3.2
										C114.1,201.8,112.5,201.2,111.2,200.1z"/>
									<path class="st3" d="M121.4,199.2v-3.1h-0.9V194h0.9v-1.9h2.6v1.9h1.8v2.1H124v2.6c0,0.5,0.2,0.8,0.7,0.8
										c0.3,0,0.7-0.1,1-0.2v2.1c-0.6,0.3-1.2,0.5-1.8,0.4C122.3,201.8,121.4,201.1,121.4,199.2z"/>
									<path class="st3" d="M126.6,197.9L126.6,197.9c0.1-2.3,2.1-4.1,4.4-4c2.2,0.1,3.9,1.8,4,4l0,0c-0.1,2.3-2.1,4.1-4.4,4
										C128.5,201.7,126.7,200,126.6,197.9z M132.4,197.9L132.4,197.9c0-0.9-0.7-1.7-1.6-1.7c0,0,0,0,0,0c-0.9,0-1.6,0.7-1.6,1.6
										c0,0,0,0.1,0,0.1l0,0c0,0.9,0.7,1.7,1.6,1.7c0,0,0,0,0,0C131.7,199.5,132.5,198.8,132.4,197.9
										C132.5,197.9,132.5,197.9,132.4,197.9z"/>
									<path class="st3" d="M136.3,194h2.7v1.5c0.3-1,1.3-1.7,2.4-1.6v2.8h-0.2c-1.4,0-2.2,0.8-2.2,2.6v2.4h-2.7V194z"/>
									<path class="st3" d="M142.3,203.2l0.8-1.9c0.4,0.2,0.8,0.4,1.2,0.4c0.2,0,0.5-0.1,0.6-0.3l-3-7.5h2.8l1.5,4.6l1.4-4.6h2.7
										l-2.8,7.4c-0.7,1.8-1.4,2.5-2.9,2.5C143.8,203.9,143,203.7,142.3,203.2z"/>
								</g>
							</g>
							<rect id="Rectangle_5685-2" x="31.8" y="180.6" class="st7" width="135" height="32.4"/>
						</g>
					</g>
				</g>
			</g>
		</g>
	</g>
	<g id="Logo">
		<path id="chevon_shape" class="st3" d="M300,471.4l-114.2,0l-33.4,52.6H300V471.4z"/>
		<g id="Grupo_12756">
			<g id="Group_2">
				<path id="X" class="st8" d="M268.6,506.6l-2.4,2.6l-2.3-2.6h-1.3l2.9,3.3l-3.6,3.9h1.3l3-3.2l2.8,3.2h1.4l-3.5-3.9l3-3.3H268.6z
					"/>
				<rect id="I" x="255.9" y="506.6" class="st8" width="1" height="7.2"/>
				<path id="N" class="st8" d="M248.6,506.6v5.6l-5.1-5.6h-1v7.2h1v-5.7l5.1,5.7h1v-7.2H248.6z"/>
				<rect id="I-2" x="235.3" y="506.6" class="st8" width="1" height="7.2"/>
				<path id="U" class="st8" d="M228.5,510.9c0.1,1.1-0.8,2-1.9,2.1h-0.2c-1.1,0-2-0.8-2-1.8c0,0,0,0,0,0c0-0.1,0-0.2,0-0.3v-4.3h-1
					v4.4c-0.1,1.6,1.2,2.9,2.7,3h0.3c1.6,0.2,3-1,3.1-2.6c0-0.1,0-0.3,0-0.4v-4.3h-1L228.5,510.9z"/>
				<path id="Q" class="st8" d="M214.4,506.3c-2.1,0-3.8,1.6-3.8,3.7c0,0,0,0,0,0v0.2c-0.1,2,1.6,3.7,3.6,3.8h0.2
					c0.6,0,1.1-0.1,1.7-0.4l0.6,0.7h1.2l-1-1.2c0.9-0.7,1.4-1.8,1.4-3l0,0c0.1-2-1.6-3.7-3.6-3.8c0,0,0,0,0,0L214.4,506.3
					 M217.2,510.2c0,0.8-0.3,1.7-0.9,2.2l-0.6-0.6h-1.2l1,1.1c-0.3,0.1-0.7,0.2-1,0.2c-1.5,0-2.8-1.3-2.8-2.8c0,0,0,0,0,0l0,0v-0.1
					c-0.1-1.5,1-2.8,2.5-2.9c0,0,0,0,0,0h0.2c1.5,0,2.8,1.2,2.8,2.8L217.2,510.2L217.2,510.2z"/>
				<path id="E" class="st8" d="M200.2,506.6v7.2h6.4v-0.9h-5.3v-2.3h3.5v-1h-3.5v-2h5.2v-1L200.2,506.6z"/>
			</g>
			<g id="icon_group">
				<path id="icon" class="st9" d="M235.8,480.4l-2.9,1v15.3L231,496v-13.9l-5.8,2v9.9l-1.9-0.7v-8.5l-1.9,0.7v9.2l5.8,2v-11.2
					l1.9-0.7v12.6l5.8,2v-16.6l1-0.3l1,0.3v16.6l5.8-2v-12.6l1.9,0.7v11.2l5.8-2v-9.2l-1.9-0.7v8.5l-1.9,0.7v-9.9l-5.8-2V496
					l-1.9,0.7v-15.3L235.8,480.4z"/>
				<path id="R" class="st9" d="M254.1,494c1,0,1.7-0.8,1.8-1.8l0,0c-0.1-1-0.9-1.7-1.9-1.6c-0.9,0.1-1.6,0.8-1.6,1.6l0,0
					C252.4,493.2,253.2,494,254.1,494L254.1,494 M254.1,493.8c-0.9,0-1.5-0.7-1.6-1.5c0,0,0,0,0,0l0,0l0,0c-0.1-0.9,0.5-1.6,1.4-1.7
					c0.9-0.1,1.6,0.5,1.7,1.4c0,0.1,0,0.1,0,0.2v0.1l0,0C255.7,493.1,255,493.8,254.1,493.8C254.1,493.8,254.1,493.8,254.1,493.8
					L254.1,493.8 M253.4,493.1h0.4v-0.6h0.3l0.4,0.6h0.5l-0.5-0.6c0.2-0.1,0.4-0.3,0.4-0.6c0-0.4-0.3-0.6-0.7-0.6h-0.9V493.1z
					 M253.9,492.2v-0.5h0.4c0.2,0,0.3,0.1,0.3,0.2s-0.1,0.3-0.3,0.3H253.9z"/>
			</g>
		</g>
	</g>
	
		<image style="overflow:visible;enable-background:new    ;" width="2430" height="1298" id="Logo_Dizzion" xlink:href="awareness35.png"  transform="matrix(3.189687e-02 0 0 3.189687e-02 41.5521 478.1856)">
	</image>
</g>
</svg>
